<?xml version='1.0' encoding='ascii'?>
<svg xmlns="http://www.w3.org/2000/svg" version="1.1" width="1080" height="1080">
    <g id="View Layer_LineSet" xmlns:inkscape="http://www.inkscape.org/namespaces/inkscape" inkscape:groupmode="lineset" inkscape:label="View Layer_LineSet">
        <g xmlns:inkscape="http://www.inkscape.org/namespaces/inkscape" inkscape:groupmode="layer" id="strokes" inkscape:label="strokes">
            <path fill="none" stroke-width="3.0" stroke-linecap="butt" stroke-opacity="1.0" stroke="rgb(0, 0, 0)" stroke-linejoin="miter" d=" M 481.275, 381.289 484.432, 380.623 488.161, 380.190 492.513, 379.955 493.498, 379.845 494.410, 379.692 495.247, 379.479 496.006, 379.191 496.683, 378.811 497.276, 378.324 497.783, 377.713 498.200, 376.961 498.524, 376.053 498.601, 375.692 498.754, 374.972 498.885, 373.701 498.916, 372.226 498.858, 371.042 498.717, 369.927 498.496, 368.884 498.196, 367.912 497.820, 367.014 497.372, 366.190 496.852, 365.442 496.265, 364.770 495.612, 364.175 494.896, 363.659 494.119, 363.222 493.285, 362.865 489.459, 361.498 485.276, 360.067 480.824, 358.589 476.183, 357.082 471.437, 355.561 466.665, 354.043 461.944, 352.542 457.349, 351.072 452.955, 349.649 448.832, 348.286 445.052, 346.995 441.684, 345.791 438.305, 344.500 434.646, 343.025 430.764, 341.404 426.716, 339.674 422.557, 337.872 418.342, 336.036 414.124, 334.199 409.956, 332.399 405.889, 330.669 401.973, 329.044 398.258, 327.556 394.791, 326.239 394.179, 326.070 393.559, 326.008 392.945, 326.051 392.349, 326.200 391.783, 326.455 391.259, 326.814 390.790, 327.277 390.388, 327.844 390.065, 328.516 389.833, 329.291 389.704, 330.169 389.690, 331.150 389.795, 332.495 389.981, 333.777 390.246, 334.998 390.588, 336.157 391.004, 337.257 391.494, 338.299 392.054, 339.282 392.684, 340.210 393.380, 341.082 394.143, 341.899 394.969, 342.663 395.857, 343.374 399.670, 346.178 403.024, 348.862 405.943, 351.482 408.453, 354.096 410.581, 356.762 412.355, 359.538 413.802, 362.482 414.953, 365.651 415.837, 369.102 416.484, 372.894 416.926, 377.081 417.192, 381.719 417.578, 391.712 417.965, 401.704 418.351, 411.697 418.738, 421.689 419.125, 431.682 419.511, 441.674 419.898, 451.667 420.284, 461.659 420.671, 471.652 421.057, 481.644 421.444, 491.637 421.830, 501.629 422.217, 511.622 422.603, 521.614 422.990, 531.607 423.377, 541.599 423.763, 551.592 424.150, 561.585 424.536, 571.577 424.681, 575.315 424.771, 579.147 424.706, 582.252 424.701, 582.449 424.443, 585.244 423.963, 587.553 423.232, 589.398 422.220, 590.799 420.896, 591.776 " />
            <path fill="none" stroke-width="3.0" stroke-linecap="butt" stroke-opacity="1.0" stroke="rgb(0, 0, 0)" stroke-linejoin="miter" d=" M 595.812, 439.864 600.106, 438.409 604.661, 437.194 609.504, 436.253 614.660, 435.613 620.156, 435.309 626.021, 435.371 626.812, 435.429 632.283, 435.832 638.972, 436.726 646.118, 438.089 647.417, 438.271 648.791, 438.388 650.205, 438.420 651.626, 438.349 653.018, 438.156 654.349, 437.821 655.581, 437.326 656.681, 436.652 657.613, 435.779 658.341, 434.689 658.830, 433.363 659.045, 431.782 658.974, 430.474 658.674, 429.191 658.169, 427.944 657.479, 426.740 656.627, 425.588 655.636, 424.497 654.528, 423.475 653.325, 422.530 652.049, 421.671 650.724, 420.905 649.370, 420.241 648.500, 419.885 648.010, 419.686 639.724, 416.674 631.918, 413.894 624.524, 411.308 617.475, 408.880 610.706, 406.576 604.156, 404.361 597.765, 402.204 595.808, 401.540 591.474, 400.070 585.226, 397.930 578.966, 395.753 572.641, 393.508 566.199, 391.166 556.814, 387.711 547.430, 384.256 539.443, 381.315 538.700, 381.103 537.943, 381.005 537.186, 381.022 536.445, 381.153 535.736, 381.399 535.073, 381.760 534.472, 382.236 533.947, 382.828 533.513, 383.535 533.185, 384.358 532.979, 385.298 532.909, 386.355 532.964, 387.809 533.122, 389.199 533.380, 390.527 533.736, 391.793 534.187, 392.999 534.731, 394.145 535.365, 395.233 536.087, 396.263 536.894, 397.237 537.786, 398.156 538.758, 399.021 539.810, 399.832 541.859, 401.298 542.510, 401.764 544.975, 403.689 547.204, 405.606 549.197, 407.513 550.952, 409.406 552.471, 411.284 553.752, 413.145 554.797, 414.986 555.605, 416.805 556.179, 418.600 556.518, 420.369 556.625, 422.109 556.559, 423.206 556.375, 424.277 556.082, 425.329 555.686, 426.365 555.192, 427.388 554.609, 428.403 553.942, 429.414 553.199, 430.425 552.385, 431.440 551.508, 432.463 550.574, 433.497 549.591, 434.548 542.697, 441.792 541.834, 442.699 534.940, 449.943 528.047, 457.187 521.153, 464.431 514.259, 471.675 507.365, 478.919 500.472, 486.163 493.578, 493.407 486.684, 500.651 484.605, 502.836 483.762, 503.406 482.980, 503.944 482.253, 504.441 481.572, 504.891 480.931, 505.285 480.324, 505.617 479.742, 505.878 " />
            <path fill="none" stroke-width="3.0" stroke-linecap="butt" stroke-opacity="1.0" stroke="rgb(0, 0, 0)" stroke-linejoin="miter" d=" M 479.742, 505.878 479.179, 506.061 478.628, 506.158 478.083, 506.163 477.536, 506.066 476.980, 505.862 476.505, 505.605 476.047, 505.278 475.609, 504.879 475.197, 504.406 474.814, 503.857 474.464, 503.228 474.152, 502.517 473.883, 501.722 473.660, 500.839 473.488, 499.866 473.370, 498.801 473.313, 497.639 473.095, 487.642 472.877, 477.644 472.659, 467.646 472.441, 457.649 472.223, 447.651 472.005, 437.654 471.787, 427.656 471.569, 417.658 471.351, 407.661 471.266, 403.759 471.245, 399.372 471.413, 395.539 471.809, 392.226 472.475, 389.397 473.449, 387.019 474.774, 385.055 476.491, 383.469 478.643, 382.226 481.275, 381.289 " />
            <path fill="none" stroke-width="3.0" stroke-linecap="butt" stroke-opacity="1.0" stroke="rgb(0, 0, 0)" stroke-linejoin="miter" d=" M 540.599, 646.811 531.601, 651.175 522.614, 655.534 522.049, 655.930 521.566, 656.447 521.168, 657.087 520.857, 657.853 520.634, 658.748 520.502, 659.774 520.463, 660.933 520.534, 661.863 520.727, 662.804 521.027, 663.745 521.421, 664.674 521.896, 665.579 522.438, 666.450 523.033, 667.275 523.670, 668.041 524.333, 668.738 525.010, 669.354 525.686, 669.876 526.349, 670.294 530.137, 672.352 533.854, 674.299 537.520, 676.161 541.154, 677.961 544.778, 679.726 548.412, 681.482 552.078, 683.253 555.796, 685.067 559.588, 686.949 563.477, 688.927 567.484, 691.029 571.633, 693.280 577.159, 696.392 582.692, 699.611 588.234, 702.918 593.786, 706.294 599.349, 709.720 604.924, 713.175 610.513, 716.641 616.117, 720.096 621.739, 723.521 627.380, 726.896 633.042, 730.201 638.729, 733.414 641.157, 734.688 643.392, 735.719 645.430, 736.513 647.270, 737.077 648.909, 737.419 650.343, 737.546 651.570, 737.465 652.587, 737.184 653.392, 736.712 653.982, 736.055 654.356, 735.222 654.510, 734.221 654.418, 732.813 654.053, 731.407 653.448, 730.007 652.640, 728.621 651.664, 727.254 650.555, 725.912 649.349, 724.600 648.081, 723.325 646.786, 722.091 645.498, 720.903 644.254, 719.766 643.086, 718.686 638.453, 714.446 634.231, 710.312 630.381, 706.263 626.864, 702.281 623.643, 698.349 620.682, 694.449 617.945, 690.563 615.397, 686.675 613.002, 682.769 610.727, 678.829 608.537, 674.838 606.400, 670.783 601.808, 661.899 597.216, 653.016 592.624, 644.133 588.032, 635.249 586.514, 632.312 583.303, 626.101 578.711, 617.217 578.382, 616.581 573.790, 607.697 569.198, 598.814 564.606, 589.931 560.014, 581.047 555.422, 572.164 550.829, 563.281 546.237, 554.398 541.645, 545.514 537.053, 536.631 532.461, 527.748 527.869, 518.864 522.847, 509.149 522.055, 507.536 521.406, 505.975 520.898, 504.471 520.534, 503.032 520.505, 502.855 520.312, 501.662 520.232, 500.368 520.296, 499.156 520.502, 498.032 520.852, 497.003 521.345, 496.074 521.983, 495.251 522.765, 494.543 527.786, 490.520 532.774, 486.353 535.390, 484.103 537.744, 482.078 542.710, 477.735 547.688, 473.362 552.695, 469.000 557.746, 464.688 562.857, 460.470 568.047, 456.387 573.331, 452.483 578.727, 448.802 584.253, 445.389 587.910, 443.384 591.755, 441.533 595.125, 440.147 595.812, 439.864 " />
            <path fill="none" stroke-width="3.0" stroke-linecap="butt" stroke-opacity="1.0" stroke="rgb(0, 0, 0)" stroke-linejoin="miter" d=" M 424.706, 582.252 415.488, 586.129 406.270, 590.006 404.179, 590.885 403.572, 591.205 403.061, 591.648 402.649, 592.216 402.338, 592.912 402.128, 593.738 402.023, 594.696 402.024, 595.788 402.153, 596.705 402.448, 597.701 402.888, 598.753 403.453, 599.840 404.124, 600.938 404.882, 602.025 405.706, 603.079 406.577, 604.077 407.475, 604.996 408.381, 605.815 409.275, 606.508 410.137, 607.055 414.759, 609.544 419.003, 611.692 422.910, 613.546 426.523, 615.155 429.884, 616.570 433.040, 617.843 436.035, 619.024 438.916, 620.167 441.730, 621.325 444.524, 622.551 447.346, 623.899 450.247, 625.424 453.147, 627.086 456.098, 628.885 459.122, 630.812 462.244, 632.859 465.488, 635.019 468.879, 637.283 472.443, 639.644 476.205, 642.095 480.193, 644.629 484.435, 647.239 488.959, 649.918 493.794, 652.660 494.820, 653.172 495.853, 653.576 496.875, 653.868 497.868, 654.044 498.813, 654.098 499.691, 654.025 500.484, 653.821 501.173, 653.480 501.739, 652.998 502.163, 652.370 502.426, 651.590 502.509, 650.655 502.409, 649.364 502.155, 648.125 501.762, 646.936 501.245, 645.793 500.619, 644.691 499.900, 643.627 499.103, 642.597 498.244, 641.596 497.339, 640.621 496.401, 639.666 495.448, 638.729 494.493, 637.803 490.699, 634.247 487.506, 631.034 484.852, 628.089 482.683, 625.343 480.940, 622.723 479.571, 620.161 478.521, 617.587 477.736, 614.931 477.165, 612.124 476.754, 609.096 476.451, 605.779 476.203, 602.101 475.856, 595.824 475.543, 589.555 475.262, 583.290 475.009, 577.024 474.782, 570.751 474.722, 568.913 474.576, 564.467 474.483, 561.318 474.389, 558.167 474.218, 551.846 474.059, 545.500 473.909, 539.122 473.765, 532.709 473.623, 526.256 473.630, 525.137 473.702, 524.154 473.833, 523.302 474.020, 522.579 474.257, 521.981 474.541, 521.503 474.868, 521.144 475.232, 520.899 475.629, 520.766 476.055, 520.739 476.506, 520.817 476.977, 520.995 477.543, 521.309 478.126, 521.722 478.724, 522.234 479.337, 522.849 479.966, 523.566 480.611, 524.389 481.272, 525.318 481.948, 526.355 482.639, 527.501 483.347, 528.758 484.069, 530.128 484.808, 531.611 489.250, 540.570 493.692, 549.530 495.214, 552.600 498.330, 558.885 502.772, 567.844 507.214, 576.803 511.656, 585.763 516.097, 594.722 520.539, 603.681 524.981, 612.641 529.423, 621.600 533.865, 630.559 535.464, 633.784 536.351, 635.605 536.759, 636.479 537.167, 637.356 537.911, 639.036 538.582, 640.646 539.178, 642.188 539.699, 643.661 540.143, 645.067 540.508, 646.406 540.599, 646.811 540.794, 647.679 541.000, 648.887 541.124, 650.029 541.165, 651.108 540.996, 652.352 540.654, 653.448 540.134, 654.390 539.430, 655.175 538.537, 655.798 " />
            <path fill="none" stroke-width="3.0" stroke-linecap="butt" stroke-opacity="1.0" stroke="rgb(0, 0, 0)" stroke-linejoin="miter" d=" M 420.896, 591.776 419.232, 592.352 417.198, 592.546 414.767, 592.380 411.913, 591.876 408.610, 591.055 407.544, 590.792 406.566, 590.641 405.678, 590.605 404.882, 590.686 404.179, 590.885 " />
            <path fill="none" stroke-width="3.0" stroke-linecap="butt" stroke-opacity="1.0" stroke="rgb(0, 0, 0)" stroke-linejoin="miter" d=" M 538.537, 655.798 537.451, 656.255 536.166, 656.542 534.677, 656.654 532.981, 656.588 531.074, 656.340 528.949, 655.906 526.605, 655.283 525.659, 655.111 524.784, 655.047 523.984, 655.095 523.260, 655.256 522.614, 655.534 " />
            <path fill="none" stroke-width="3.0" stroke-linecap="butt" stroke-opacity="1.0" stroke="rgb(0, 0, 0)" stroke-linejoin="miter" d=" M 495.247, 379.479 504.759, 376.392 514.270, 373.305 523.782, 370.217 533.293, 367.130 541.880, 364.343 551.392, 361.256 560.904, 358.169 570.415, 355.081 579.927, 351.994 589.438, 348.907 598.950, 345.820 599.827, 345.535 609.339, 342.448 618.850, 339.361 621.952, 338.354 622.736, 338.060 623.442, 337.683 624.066, 337.206 624.606, 336.616 625.060, 335.895 625.426, 335.030 625.701, 334.005 625.884, 332.805 625.971, 331.415 625.958, 330.301 625.857, 329.256 625.671, 328.280 625.402, 327.374 625.054, 326.539 624.628, 325.776 624.127, 325.086 623.553, 324.470 622.910, 323.929 622.200, 323.463 621.425, 323.074 620.588, 322.762 616.737, 321.583 612.523, 320.355 608.034, 319.089 603.352, 317.801 598.561, 316.502 593.741, 315.205 588.970, 313.922 584.326, 312.666 579.882, 311.447 575.713, 310.276 571.891, 309.164 568.486, 308.122 565.072, 306.997 561.377, 305.706 557.459, 304.283 553.372, 302.762 549.173, 301.175 544.917, 299.557 540.656, 297.938 536.443, 296.351 532.330, 294.827 528.366, 293.397 524.602, 292.092 521.086, 290.941 520.462, 290.798 519.826, 290.756 519.192, 290.813 518.572, 290.970 508.940, 293.659 499.308, 296.347 489.676, 299.035 480.044, 301.724 470.412, 304.412 460.780, 307.100 451.148, 309.789 441.517, 312.477 431.885, 315.165 422.253, 317.854 412.621, 320.542 402.989, 323.231 392.349, 326.200 " />
            <path fill="none" stroke-width="3.0" stroke-linecap="butt" stroke-opacity="1.0" stroke="rgb(0, 0, 0)" stroke-linejoin="miter" d=" M 654.349, 437.821 658.262, 436.289 667.574, 432.644 676.886, 428.999 686.198, 425.353 695.510, 421.708 704.822, 418.063 714.134, 414.418 723.446, 410.773 732.758, 407.128 742.070, 403.482 751.382, 399.837 760.694, 396.192 770.006, 392.547 779.318, 388.902 780.876, 388.292 782.131, 387.789 783.259, 387.122 784.224, 386.276 784.993, 385.232 785.530, 383.976 785.799, 382.489 785.773, 381.266 785.516, 380.075 785.052, 378.923 784.401, 377.818 783.585, 376.767 782.628, 375.776 781.551, 374.854 780.375, 374.008 779.124, 373.243 777.819, 372.567 776.483, 371.987 775.136, 371.510 766.913, 368.946 759.159, 366.582 751.807, 364.385 744.792, 362.326 738.052, 360.372 731.524, 358.494 725.151, 356.664 718.874, 354.853 712.637, 353.032 706.387, 351.176 700.069, 349.258 693.632, 347.251 684.098, 344.236 674.563, 341.220 666.865, 338.786 666.118, 338.608 665.352, 338.538 664.583, 338.576 663.826, 338.721 654.338, 341.881 644.851, 345.042 635.363, 348.202 625.876, 351.362 616.388, 354.523 606.901, 357.683 597.414, 360.844 596.539, 361.135 587.051, 364.296 577.564, 367.456 568.076, 370.616 558.589, 373.777 549.101, 376.937 541.872, 379.345 536.445, 381.153 " />
            <path fill="none" stroke-width="3.0" stroke-linecap="butt" stroke-opacity="1.0" stroke="rgb(0, 0, 0)" stroke-linejoin="miter" d=" M 596.539, 361.135 596.658, 357.836 596.979, 354.212 597.514, 351.072 598.304, 348.382 599.394, 346.108 599.827, 345.535 " />
            <path fill="none" stroke-width="3.0" stroke-linecap="butt" stroke-opacity="1.0" stroke="rgb(0, 0, 0)" stroke-linejoin="miter" d=" M 652.587, 737.184 661.264, 732.214 669.941, 727.243 678.618, 722.272 687.295, 717.301 695.972, 712.330 704.649, 707.359 713.326, 702.388 722.003, 697.418 730.680, 692.447 739.357, 687.476 748.034, 682.505 756.711, 677.534 765.388, 672.563 768.704, 670.664 769.535, 670.177 770.155, 669.526 770.562, 668.717 770.753, 667.760 770.709, 666.428 770.389, 665.110 769.826, 663.810 769.057, 662.532 768.117, 661.280 767.042, 660.058 765.868, 658.870 764.629, 657.718 763.361, 656.607 762.100, 655.539 760.880, 654.519 759.735, 653.547 755.193, 649.737 751.061, 646.007 747.303, 642.339 743.879, 638.720 740.754, 635.134 737.890, 631.565 735.252, 628.000 732.805, 624.423 730.515, 620.823 728.347, 617.184 726.268, 613.493 724.244, 609.739 719.577, 600.895 714.910, 592.050 710.242, 583.206 705.575, 574.362 700.908, 565.518 696.241, 556.674 691.574, 547.830 686.906, 538.986 682.239, 530.142 677.572, 521.298 672.905, 512.454 668.238, 503.610 663.570, 494.766 658.903, 485.922 654.236, 477.078 649.569, 468.234 645.170, 459.898 644.422, 458.400 643.819, 456.946 643.358, 455.542 643.041, 454.192 642.866, 452.904 642.834, 451.683 642.945, 450.534 643.198, 449.463 643.594, 448.477 644.132, 447.581 644.814, 446.781 645.639, 446.083 650.912, 442.103 656.152, 437.991 658.262, 436.289 " />
            <path fill="none" stroke-width="3.0" stroke-linecap="butt" stroke-opacity="1.0" stroke="rgb(0, 0, 0)" stroke-linejoin="miter" d=" M 500.484, 653.821 509.506, 649.508 518.528, 645.195 527.550, 640.882 536.759, 636.479 " />
        </g>
    </g>
</svg>
