<?xml version='1.0' encoding='ascii'?>
<svg xmlns="http://www.w3.org/2000/svg" version="1.1" width="1080" height="1080">
    <g id="View Layer_LineSet" xmlns:inkscape="http://www.inkscape.org/namespaces/inkscape" inkscape:groupmode="lineset" inkscape:label="View Layer_LineSet">
        <g xmlns:inkscape="http://www.inkscape.org/namespaces/inkscape" inkscape:groupmode="layer" id="strokes" inkscape:label="strokes">
            <path fill="none" stroke-width="3.0" stroke-linecap="butt" stroke-opacity="1.0" stroke="rgb(0, 0, 0)" stroke-linejoin="miter" d=" M 485.212, 380.959 488.457, 380.265 492.290, 379.800 496.762, 379.528 497.774, 379.410 498.712, 379.249 499.572, 379.029 500.352, 378.735 501.048, 378.349 501.659, 377.857 502.180, 377.242 502.610, 376.487 502.945, 375.576 503.090, 374.914 503.182, 374.494 503.320, 373.223 503.354, 371.748 503.297, 370.565 503.154, 369.453 502.928, 368.411 502.622, 367.443 502.238, 366.549 501.778, 365.729 501.246, 364.985 500.643, 364.318 499.974, 363.730 499.239, 363.220 498.442, 362.789 497.586, 362.440 493.656, 361.105 489.361, 359.709 484.788, 358.270 480.021, 356.801 475.144, 355.320 470.240, 353.841 465.388, 352.379 460.666, 350.947 456.148, 349.560 451.910, 348.230 448.023, 346.970 444.560, 345.793 441.085, 344.529 437.322, 343.083 433.329, 341.492 429.165, 339.794 424.887, 338.025 420.551, 336.221 416.211, 334.417 411.922, 332.649 407.736, 330.950 403.705, 329.354 399.880, 327.894 396.310, 326.603 395.680, 326.439 395.041, 326.381 394.409, 326.430 393.794, 326.583 393.210, 326.842 392.670, 327.206 392.186, 327.673 391.770, 328.245 391.436, 328.919 391.195, 329.697 391.061, 330.577 391.045, 331.559 391.151, 332.905 391.341, 334.187 391.611, 335.406 391.961, 336.564 392.388, 337.662 392.891, 338.700 393.466, 339.681 394.114, 340.604 394.830, 341.471 395.614, 342.283 396.464, 343.041 397.378, 343.746 401.302, 346.521 404.752, 349.180 407.754, 351.778 410.335, 354.374 412.522, 357.024 414.343, 359.787 415.829, 362.721 417.008, 365.882 417.912, 369.329 418.572, 373.117 419.019, 377.303 419.284, 381.942 419.664, 391.935 420.044, 401.928 420.424, 411.920 420.804, 421.913 421.184, 431.906 421.564, 441.899 421.944, 451.891 422.324, 461.884 422.704, 471.877 423.085, 481.870 423.464, 491.863 423.844, 501.855 424.224, 511.848 424.604, 521.841 424.984, 531.834 425.365, 541.826 425.745, 551.819 426.125, 561.812 426.505, 571.805 426.649, 575.593 426.734, 579.427 426.671, 582.120 426.657, 582.732 426.385, 585.532 425.888, 587.849 425.132, 589.703 424.087, 591.117 422.722, 592.111 " />
            <path fill="none" stroke-width="3.0" stroke-linecap="butt" stroke-opacity="1.0" stroke="rgb(0, 0, 0)" stroke-linejoin="miter" d=" M 602.634, 438.433 607.034, 436.940 611.702, 435.685 616.662, 434.700 621.943, 434.014 627.570, 433.658 628.278, 433.659 633.573, 433.665 639.980, 434.066 646.822, 434.895 654.130, 436.187 655.459, 436.357 656.863, 436.460 657.552, 436.469 658.310, 436.479 659.763, 436.395 661.188, 436.189 662.549, 435.843 663.810, 435.338 664.936, 434.655 665.890, 433.776 666.636, 432.682 667.139, 431.356 667.361, 429.777 667.299, 428.641 667.290, 428.473 666.986, 427.197 666.471, 425.957 665.768, 424.763 664.899, 423.623 663.888, 422.544 662.756, 421.535 661.527, 420.604 660.225, 419.759 658.870, 419.007 657.487, 418.357 656.097, 417.816 655.199, 417.506 647.625, 414.888 639.644, 412.185 632.081, 409.672 624.870, 407.314 617.944, 405.076 611.241, 402.925 604.699, 400.828 598.257, 398.755 596.448, 398.167 591.859, 396.674 585.448, 394.556 578.969, 392.370 572.369, 390.089 562.931, 386.783 553.494, 383.477 544.945, 380.483 544.183, 380.278 543.406, 380.187 542.629, 380.210 541.869, 380.347 541.141, 380.599 540.460, 380.965 539.842, 381.446 539.302, 382.042 538.856, 382.752 538.518, 383.577 538.305, 384.518 538.231, 385.574 538.285, 387.026 538.445, 388.414 538.708, 389.738 539.071, 390.999 539.531, 392.199 540.087, 393.340 540.736, 394.421 541.328, 395.241 541.475, 395.444 542.302, 396.410 543.215, 397.320 544.212, 398.175 545.289, 398.976 548.056, 400.881 550.582, 402.782 552.865, 404.677 554.906, 406.563 556.703, 408.438 558.257, 410.300 559.568, 412.147 560.637, 413.976 561.463, 415.785 562.048, 417.572 562.393, 419.336 562.499, 421.073 562.429, 422.168 562.240, 423.240 561.937, 424.293 561.529, 425.331 561.021, 426.358 560.421, 427.377 559.735, 428.393 558.971, 429.409 558.135, 430.430 557.233, 431.460 556.274, 432.502 555.263, 433.561 548.299, 440.737 541.306, 447.943 534.342, 455.119 527.378, 462.296 520.414, 469.472 513.450, 476.648 506.485, 483.825 499.521, 491.001 492.557, 498.177 488.420, 502.441 487.552, 503.020 486.748, 503.566 485.999, 504.071 485.299, 504.527 484.640, 504.928 484.014, 505.266 483.416, 505.533 " />
            <path fill="none" stroke-width="3.0" stroke-linecap="butt" stroke-opacity="1.0" stroke="rgb(0, 0, 0)" stroke-linejoin="miter" d=" M 483.416, 505.533 482.837, 505.722 482.270, 505.825 481.710, 505.835 481.148, 505.745 480.577, 505.546 480.089, 505.294 479.619, 504.972 479.170, 504.578 478.746, 504.109 478.353, 503.564 477.995, 502.939 477.676, 502.231 477.400, 501.438 477.173, 500.558 476.997, 499.587 476.879, 498.523 476.821, 497.362 476.615, 487.364 476.409, 477.367 476.202, 467.369 475.996, 457.371 475.789, 447.373 475.583, 437.375 475.376, 427.377 475.170, 417.379 474.963, 407.381 474.883, 403.512 474.869, 399.126 475.049, 395.291 475.462, 391.975 476.151, 389.141 477.157, 386.755 478.522, 384.779 480.290, 383.179 482.505, 381.918 485.212, 380.959 " />
            <path fill="none" stroke-width="3.0" stroke-linecap="butt" stroke-opacity="1.0" stroke="rgb(0, 0, 0)" stroke-linejoin="miter" d=" M 545.579, 645.293 536.664, 649.822 527.748, 654.351 527.196, 654.632 526.615, 655.035 526.118, 655.557 525.708, 656.202 525.387, 656.972 525.157, 657.869 525.019, 658.896 524.977, 660.055 525.049, 660.984 525.245, 661.922 525.551, 662.858 525.954, 663.781 526.440, 664.680 526.995, 665.543 527.605, 666.360 528.257, 667.118 528.937, 667.806 529.631, 668.412 530.324, 668.926 531.005, 669.334 534.889, 671.342 538.701, 673.240 542.459, 675.052 546.186, 676.804 549.901, 678.521 553.627, 680.227 557.384, 681.949 561.194, 683.712 565.081, 685.543 569.065, 687.468 573.171, 689.514 577.421, 691.708 583.080, 694.742 588.746, 697.883 594.420, 701.112 600.103, 704.408 605.796, 707.754 611.501, 711.128 617.219, 714.512 622.951, 717.885 628.701, 721.227 634.470, 724.518 640.260, 727.738 646.074, 730.865 648.556, 732.104 650.840, 733.101 652.925, 733.865 654.806, 734.403 656.481, 734.721 657.948, 734.828 659.203, 734.730 660.244, 734.436 661.068, 733.954 661.673, 733.290 662.056, 732.454 662.215, 731.454 662.124, 730.051 661.753, 728.653 661.137, 727.265 660.313, 725.894 659.317, 724.543 658.185, 723.220 656.953, 721.928 655.658, 720.673 654.335, 719.459 653.020, 718.292 651.749, 717.175 650.556, 716.113 645.823, 711.946 641.509, 707.877 637.576, 703.889 633.983, 699.963 630.693, 696.081 627.669, 692.228 624.873, 688.386 622.270, 684.540 619.825, 680.673 617.502, 676.769 615.267, 672.815 613.085, 668.794 608.386, 659.967 603.688, 651.139 598.990, 642.312 594.291, 633.484 592.274, 629.694 588.871, 623.300 584.172, 614.472 583.687, 613.560 578.988, 604.732 574.290, 595.905 569.591, 587.077 564.893, 578.250 560.195, 569.422 555.496, 560.595 550.798, 551.767 546.100, 542.940 541.401, 534.112 536.703, 525.285 532.004, 516.457 527.690, 508.351 526.880, 506.747 526.215, 505.194 525.698, 503.697 525.326, 502.263 525.159, 501.250 525.100, 500.896 525.021, 499.604 525.088, 498.393 525.302, 497.267 525.663, 496.235 526.171, 495.302 526.827, 494.474 527.631, 493.757 532.793, 489.687 537.919, 485.472 543.026, 481.152 543.083, 481.104 548.130, 476.763 553.245, 472.346 558.388, 467.939 563.575, 463.584 568.824, 459.321 574.152, 455.193 579.575, 451.244 585.112, 447.517 590.781, 444.058 594.532, 442.021 595.674, 441.475 598.474, 440.137 602.634, 438.433 " />
            <path fill="none" stroke-width="3.0" stroke-linecap="butt" stroke-opacity="1.0" stroke="rgb(0, 0, 0)" stroke-linejoin="miter" d=" M 426.671, 582.120 417.515, 586.140 408.359, 590.161 405.506, 591.414 404.879, 591.742 404.353, 592.191 403.927, 592.765 403.605, 593.465 403.388, 594.294 403.277, 595.255 403.276, 596.348 403.408, 597.265 403.710, 598.258 404.161, 599.307 404.741, 600.387 405.431, 601.479 406.209, 602.558 407.056, 603.603 407.952, 604.592 408.876, 605.501 409.808, 606.309 410.727, 606.993 411.614, 607.530 416.370, 609.966 420.737, 612.065 424.757, 613.873 428.474, 615.440 431.932, 616.816 435.178, 618.051 438.259, 619.196 441.222, 620.305 444.115, 621.429 446.988, 622.621 449.891, 623.936 452.873, 625.426 455.853, 627.054 458.885, 628.817 461.992, 630.707 465.200, 632.716 468.532, 634.836 472.015, 637.058 475.676, 639.376 479.540, 641.780 483.635, 644.264 487.990, 646.821 492.635, 649.443 497.600, 652.124 498.653, 652.622 499.713, 653.013 500.763, 653.292 501.783, 653.455 502.753, 653.497 503.656, 653.414 504.471, 653.200 505.179, 652.850 505.761, 652.361 506.198, 651.728 506.469, 650.945 506.556, 650.009 506.456, 648.720 506.198, 647.485 505.796, 646.301 505.266, 645.165 504.625, 644.071 503.888, 643.017 503.072, 641.997 502.191, 641.007 501.262, 640.043 500.301, 639.101 499.323, 638.175 498.344, 637.262 494.452, 633.753 491.175, 630.580 488.453, 627.668 486.228, 624.949 484.442, 622.351 483.039, 619.805 481.964, 617.244 481.162, 614.597 480.579, 611.797 480.162, 608.775 479.856, 605.461 479.608, 601.787 479.262, 595.514 478.952, 589.249 478.674, 582.987 478.425, 576.724 478.202, 570.454 478.109, 567.533 478.002, 564.172 477.872, 559.635 477.821, 557.875 477.656, 551.556 477.504, 545.212 477.361, 538.836 477.224, 532.425 477.090, 525.973 477.099, 524.855 477.174, 523.871 477.311, 523.018 477.504, 522.293 477.749, 521.692 478.042, 521.212 478.378, 520.849 478.753, 520.600 479.162, 520.462 479.600, 520.431 480.063, 520.504 480.547, 520.677 481.129, 520.985 481.727, 521.391 482.340, 521.898 482.970, 522.505 483.615, 523.216 484.277, 524.032 484.954, 524.954 485.647, 525.983 486.356, 527.122 487.081, 528.371 487.821, 529.732 488.577, 531.207 493.125, 540.113 497.673, 549.020 498.474, 550.587 501.766, 557.035 506.314, 565.941 510.862, 574.847 515.409, 583.753 519.957, 592.659 524.505, 601.565 529.053, 610.471 533.601, 619.378 538.148, 628.284 540.424, 632.739 541.331, 634.547 541.412, 634.717 542.165, 636.286 542.926, 637.955 543.611, 639.556 544.221, 641.089 544.752, 642.554 545.205, 643.953 545.578, 645.287 545.579, 645.293 545.869, 646.555 546.078, 647.759 546.203, 648.899 546.244, 649.976 546.068, 651.221 545.715, 652.320 545.180, 653.268 544.456, 654.061 543.539, 654.695 " />
            <path fill="none" stroke-width="3.0" stroke-linecap="butt" stroke-opacity="1.0" stroke="rgb(0, 0, 0)" stroke-linejoin="miter" d=" M 422.722, 592.111 421.007, 592.706 418.913, 592.925 416.410, 592.787 413.471, 592.316 410.070, 591.533 408.972, 591.282 407.965, 591.143 407.050, 591.117 406.230, 591.207 405.506, 591.414 " />
            <path fill="none" stroke-width="3.0" stroke-linecap="butt" stroke-opacity="1.0" stroke="rgb(0, 0, 0)" stroke-linejoin="miter" d=" M 543.539, 654.695 542.423, 655.165 541.104, 655.468 539.576, 655.599 537.836, 655.555 535.878, 655.331 533.699, 654.924 531.293, 654.331 530.322, 654.171 529.424, 654.118 528.603, 654.176 527.859, 654.347 527.196, 654.632 " />
            <path fill="none" stroke-width="3.0" stroke-linecap="butt" stroke-opacity="1.0" stroke="rgb(0, 0, 0)" stroke-linejoin="miter" d=" M 499.572, 379.029 509.040, 375.812 518.509, 372.595 527.977, 369.377 537.445, 366.160 541.341, 364.836 550.810, 361.619 560.278, 358.402 569.746, 355.185 579.215, 351.968 588.683, 348.750 598.151, 345.533 600.161, 344.850 609.630, 341.633 619.098, 338.416 623.058, 337.071 623.858, 336.771 624.577, 336.389 625.213, 335.909 625.763, 335.315 626.226, 334.593 626.598, 333.727 626.879, 332.702 627.065, 331.503 627.154, 330.115 627.140, 329.004 627.036, 327.962 626.846, 326.989 626.573, 326.087 626.217, 325.257 625.783, 324.499 625.272, 323.815 624.688, 323.205 624.032, 322.669 623.307, 322.210 622.517, 321.828 621.664, 321.523 617.737, 320.376 613.441, 319.182 608.863, 317.953 604.088, 316.702 599.201, 315.442 594.283, 314.184 589.415, 312.940 584.675, 311.720 580.140, 310.536 575.885, 309.398 571.982, 308.316 568.506, 307.301 565.020, 306.203 561.247, 304.941 557.245, 303.549 553.070, 302.060 548.781, 300.506 544.432, 298.920 540.079, 297.334 535.773, 295.780 531.569, 294.287 527.517, 292.887 523.669, 291.610 520.074, 290.485 519.437, 290.347 518.787, 290.309 518.138, 290.371 517.504, 290.533 507.903, 293.330 498.303, 296.128 488.702, 298.926 479.101, 301.724 469.501, 304.521 459.900, 307.319 450.300, 310.117 440.699, 312.915 431.098, 315.713 421.498, 318.510 411.897, 321.308 402.296, 324.106 393.794, 326.583 " />
            <path fill="none" stroke-width="3.0" stroke-linecap="butt" stroke-opacity="1.0" stroke="rgb(0, 0, 0)" stroke-linejoin="miter" d=" M 663.810, 435.338 673.057, 431.530 682.303, 427.722 691.550, 423.915 700.797, 420.107 710.044, 416.300 719.290, 412.492 728.537, 408.685 737.784, 404.877 747.031, 401.069 756.277, 397.262 765.524, 393.454 774.771, 389.647 784.018, 385.839 785.983, 385.030 787.127, 384.357 788.107, 383.506 788.886, 382.460 789.431, 381.204 789.704, 379.722 789.677, 378.505 789.416, 377.322 788.944, 376.179 788.283, 375.084 787.456, 374.044 786.484, 373.066 785.391, 372.157 784.198, 371.324 782.928, 370.573 781.604, 369.911 780.247, 369.345 778.880, 368.881 770.532, 366.396 762.659, 364.106 755.193, 361.979 748.068, 359.984 741.219, 358.093 734.586, 356.276 728.109, 354.504 721.728, 352.750 715.387, 350.987 709.030, 349.187 702.604, 347.326 696.057, 345.376 686.484, 342.485 676.911, 339.594 668.813, 337.148 668.053, 336.977 667.273, 336.913 666.490, 336.957 665.719, 337.108 664.976, 337.365 655.535, 340.661 646.094, 343.957 636.653, 347.253 627.212, 350.549 617.771, 353.846 608.329, 357.142 598.888, 360.438 597.112, 361.058 587.670, 364.354 578.229, 367.650 568.788, 370.947 559.347, 374.243 549.906, 377.539 541.335, 380.531 541.141, 380.599 " />
            <path fill="none" stroke-width="3.0" stroke-linecap="butt" stroke-opacity="1.0" stroke="rgb(0, 0, 0)" stroke-linejoin="miter" d=" M 597.112, 361.058 597.115, 360.853 597.267, 356.717 597.594, 353.096 598.139, 349.957 598.945, 347.266 600.056, 344.988 600.161, 344.850 " />
            <path fill="none" stroke-width="3.0" stroke-linecap="butt" stroke-opacity="1.0" stroke="rgb(0, 0, 0)" stroke-linejoin="miter" d=" M 661.068, 733.954 669.634, 728.793 678.199, 723.633 686.765, 718.472 695.331, 713.312 703.896, 708.151 712.462, 702.991 721.027, 697.831 729.593, 692.670 738.159, 687.510 746.724, 682.349 755.290, 677.189 763.855, 672.028 773.274, 666.354 773.904, 665.697 774.317, 664.887 774.510, 663.931 774.466, 662.605 774.140, 661.297 773.568, 660.009 772.787, 658.746 771.833, 657.511 770.741, 656.307 769.548, 655.138 768.290, 654.006 767.003, 652.915 765.722, 651.868 764.482, 650.866 763.320, 649.913 758.706, 646.173 754.509, 642.508 750.690, 638.900 747.211, 635.336 744.034, 631.801 741.124, 628.280 738.442, 624.759 735.955, 621.225 733.626, 617.664 731.422, 614.064 729.308, 610.411 727.250, 606.693 722.486, 597.901 717.721, 589.109 712.957, 580.317 708.192, 571.525 703.428, 562.732 698.663, 553.940 693.899, 545.148 689.134, 536.356 684.370, 527.564 679.605, 518.772 674.841, 509.980 670.077, 501.188 665.312, 492.396 660.548, 483.604 655.783, 474.812 651.019, 466.020 646.746, 458.135 645.984, 456.647 645.368, 455.202 644.899, 453.805 644.575, 452.463 644.397, 451.179 644.364, 449.961 644.477, 448.814 644.734, 447.743 645.137, 446.756 645.686, 445.856 646.380, 445.052 647.221, 444.348 652.591, 440.328 657.552, 436.469 " />
            <path fill="none" stroke-width="3.0" stroke-linecap="butt" stroke-opacity="1.0" stroke="rgb(0, 0, 0)" stroke-linejoin="miter" d=" M 505.179, 652.850 514.121, 648.375 523.064, 643.900 532.007, 639.424 540.949, 634.949 541.412, 634.717 " />
        </g>
    </g>
</svg>
