<?xml version='1.0' encoding='ascii'?>
<svg xmlns="http://www.w3.org/2000/svg" version="1.1" width="1080" height="1080">
    <g id="View Layer_LineSet" xmlns:inkscape="http://www.inkscape.org/namespaces/inkscape" inkscape:groupmode="lineset" inkscape:label="View Layer_LineSet">
        <g xmlns:inkscape="http://www.inkscape.org/namespaces/inkscape" inkscape:groupmode="layer" id="strokes" inkscape:label="strokes">
            <path fill="none" stroke-width="3.0" stroke-linecap="butt" stroke-opacity="1.0" stroke="rgb(0, 0, 0)" stroke-linejoin="miter" d=" M 488.294, 380.677 491.607, 379.962 495.520, 379.471 500.085, 379.169 501.118, 379.044 502.075, 378.877 502.953, 378.651 503.749, 378.352 504.460, 377.962 505.084, 377.466 505.617, 376.847 506.056, 376.090 506.399, 375.178 506.605, 374.261 506.643, 374.094 506.785, 372.823 506.822, 371.349 506.764, 370.167 506.620, 369.055 506.391, 368.016 506.080, 367.051 505.689, 366.159 505.221, 365.343 504.679, 364.603 504.066, 363.940 503.383, 363.356 502.634, 362.851 501.821, 362.426 500.948, 362.082 496.940, 360.774 492.558, 359.407 487.891, 357.997 483.027, 356.560 478.051, 355.111 473.046, 353.663 468.093, 352.232 463.272, 350.831 458.659, 349.472 454.332, 348.169 450.363, 346.934 446.826, 345.779 443.277, 344.537 439.434, 343.114 435.356, 341.548 431.103, 339.876 426.732, 338.133 422.302, 336.355 417.868, 334.578 413.485, 332.835 409.207, 331.161 405.087, 329.589 401.177, 328.151 397.528, 326.882 396.883, 326.721 396.231, 326.668 395.583, 326.720 394.954, 326.878 394.357, 327.140 393.804, 327.507 393.308, 327.978 392.882, 328.552 392.539, 329.229 392.292, 330.009 392.153, 330.891 392.136, 331.874 392.242, 333.220 392.434, 334.502 392.710, 335.720 393.066, 336.877 393.501, 337.973 394.014, 339.009 394.601, 339.986 395.262, 340.906 395.994, 341.770 396.795, 342.578 397.663, 343.331 398.597, 344.030 402.606, 346.782 406.131, 349.421 409.197, 352.001 411.833, 354.582 414.065, 357.220 415.924, 359.972 417.439, 362.898 418.640, 366.053 419.560, 369.495 420.229, 373.281 420.680, 377.466 420.945, 382.106 421.320, 392.099 421.695, 402.092 422.070, 412.085 422.445, 422.078 422.819, 432.070 423.194, 442.063 423.569, 452.056 423.944, 462.049 424.319, 472.042 424.693, 482.035 425.068, 492.028 425.443, 502.021 425.818, 512.014 426.193, 522.007 426.567, 532.000 426.942, 541.993 427.317, 551.986 427.692, 561.979 428.067, 571.972 428.210, 575.797 428.292, 579.632 428.233, 581.979 428.209, 582.940 427.928, 585.744 427.415, 588.066 426.640, 589.929 425.570, 591.353 424.174, 592.360 " />
            <path fill="none" stroke-width="3.0" stroke-linecap="butt" stroke-opacity="1.0" stroke="rgb(0, 0, 0)" stroke-linejoin="miter" d=" M 603.682, 439.000 607.919, 437.269 612.400, 435.745 617.153, 434.458 622.203, 433.438 627.577, 432.715 628.994, 432.617 633.304, 432.319 639.411, 432.281 645.928, 432.635 652.886, 433.412 659.528, 434.517 660.316, 434.647 661.667, 434.807 663.095, 434.900 664.565, 434.909 666.043, 434.814 667.492, 434.598 668.876, 434.242 670.159, 433.729 671.304, 433.040 672.275, 432.156 673.035, 431.059 673.548, 429.732 673.776, 428.155 673.705, 426.855 673.398, 425.584 672.876, 424.351 672.659, 423.989 672.163, 423.165 671.281, 422.033 670.254, 420.964 669.105, 419.965 667.857, 419.045 666.533, 418.211 665.157, 417.471 663.752, 416.833 662.339, 416.303 660.232, 415.602 653.728, 413.441 645.614, 410.801 637.924, 408.346 630.590, 406.043 623.546, 403.857 616.726, 401.757 610.069, 399.710 603.515, 397.684 597.003, 395.651 596.897, 395.617 590.477, 393.580 583.881, 391.442 577.161, 389.208 567.684, 386.016 558.207, 382.824 549.227, 379.800 548.450, 379.600 547.658, 379.514 546.866, 379.542 546.091, 379.684 545.348, 379.941 544.654, 380.311 544.023, 380.796 543.472, 381.395 543.016, 382.107 542.671, 382.934 542.452, 383.875 542.375, 384.931 542.429, 386.382 542.590, 387.767 542.856, 389.088 543.224, 390.346 543.692, 391.542 544.258, 392.677 544.917, 393.753 545.670, 394.770 546.512, 395.729 547.441, 396.632 548.456, 397.479 549.553, 398.272 552.371, 400.156 554.943, 402.038 557.268, 403.915 559.345, 405.785 561.174, 407.645 562.756, 409.494 564.089, 411.329 565.175, 413.149 566.015, 414.950 566.609, 416.731 566.958, 418.490 567.064, 420.225 566.991, 421.319 566.797, 422.391 566.487, 423.445 566.070, 424.485 565.551, 425.514 564.938, 426.536 564.238, 427.556 563.458, 428.577 562.604, 429.603 561.684, 430.638 560.705, 431.687 559.674, 432.752 552.659, 439.878 545.644, 447.005 540.862, 451.862 533.847, 458.989 526.832, 466.115 519.817, 473.242 512.802, 480.369 505.787, 487.495 498.772, 494.622 491.406, 502.105 490.520, 502.691 489.699, 503.243 488.934, 503.754 488.218, 504.216 487.544, 504.622 486.905, 504.965 486.294, 505.237 " />
            <path fill="none" stroke-width="3.0" stroke-linecap="butt" stroke-opacity="1.0" stroke="rgb(0, 0, 0)" stroke-linejoin="miter" d=" M 486.294, 505.237 485.703, 505.430 485.125, 505.538 484.552, 505.553 483.978, 505.467 483.396, 505.273 482.899, 505.025 482.419, 504.707 481.961, 504.317 481.529, 503.852 481.129, 503.310 480.764, 502.687 480.439, 501.982 480.158, 501.192 479.927, 500.314 479.749, 499.344 479.630, 498.281 479.573, 497.121 479.375, 487.123 479.178, 477.125 478.980, 467.127 478.783, 457.129 478.585, 447.131 478.388, 437.133 478.190, 427.135 477.993, 417.137 477.795, 407.139 477.720, 403.296 477.711, 398.911 477.900, 395.076 478.326, 391.757 479.033, 388.919 480.063, 386.526 481.460, 384.542 483.267, 382.930 485.530, 381.654 488.294, 380.677 " />
            <path fill="none" stroke-width="3.0" stroke-linecap="butt" stroke-opacity="1.0" stroke="rgb(0, 0, 0)" stroke-linejoin="miter" d=" M 549.433, 644.050 540.586, 648.712 531.740, 653.374 530.768, 653.886 530.175, 654.295 529.667, 654.822 529.248, 655.471 528.920, 656.243 528.684, 657.142 528.542, 658.170 528.498, 659.329 528.570, 660.256 528.768, 661.191 529.080, 662.124 529.490, 663.043 529.984, 663.936 530.549, 664.794 531.170, 665.603 531.834, 666.354 532.526, 667.035 533.233, 667.634 533.940, 668.141 534.633, 668.542 538.591, 670.510 542.475, 672.368 546.305, 674.141 550.102, 675.854 553.887, 677.531 557.683, 679.199 561.510, 680.881 565.391, 682.603 569.349, 684.393 573.406, 686.275 577.587, 688.276 581.914, 690.424 587.674, 693.397 593.441, 696.475 599.216, 699.641 604.998, 702.874 610.790, 706.155 616.593, 709.465 622.409, 712.783 628.239, 716.090 634.085, 719.366 639.950, 722.590 645.837, 725.742 651.747, 728.802 654.269, 730.011 656.592, 730.983 658.711, 731.723 660.623, 732.239 662.326, 732.539 663.818, 732.629 665.094, 732.518 666.153, 732.214 666.991, 731.723 667.607, 731.055 667.998, 730.216 668.161, 729.216 668.070, 727.817 667.694, 726.426 667.070, 725.048 666.234, 723.688 665.222, 722.351 664.073, 721.042 662.823, 719.766 661.507, 718.527 660.163, 717.330 658.828, 716.178 657.536, 715.077 656.324, 714.030 651.516, 709.920 647.133, 705.905 643.137, 701.965 639.487, 698.083 636.145, 694.243 633.072, 690.427 630.232, 686.620 627.589, 682.807 625.105, 678.971 622.746, 675.097 620.476, 671.172 618.260, 667.179 613.480, 658.396 608.700, 649.612 603.920, 640.829 599.140, 632.045 596.699, 627.561 593.139, 621.019 588.359, 612.235 587.745, 611.106 582.964, 602.323 578.184, 593.539 573.404, 584.756 568.624, 575.972 563.844, 567.189 559.064, 558.405 554.284, 549.622 549.504, 540.838 544.724, 532.055 539.943, 523.271 535.163, 514.487 531.465, 507.692 530.641, 506.096 529.965, 504.549 529.439, 503.057 529.062, 501.627 528.834, 500.263 528.812, 499.904 528.754, 498.972 528.825, 497.761 529.044, 496.635 529.413, 495.600 529.933, 494.663 530.603, 493.830 531.424, 493.108 536.693, 488.999 541.926, 484.747 547.138, 480.390 549.418, 478.453 552.346, 475.966 557.566, 471.512 562.813, 467.070 568.105, 462.679 573.459, 458.381 578.891, 454.218 584.421, 450.233 590.066, 446.470 595.844, 442.973 596.046, 442.863 599.665, 440.911 603.682, 439.000 " />
            <path fill="none" stroke-width="3.0" stroke-linecap="butt" stroke-opacity="1.0" stroke="rgb(0, 0, 0)" stroke-linejoin="miter" d=" M 428.233, 581.979 419.129, 586.115 410.025, 590.252 406.571, 591.821 405.930, 592.155 405.390, 592.609 404.954, 593.187 404.624, 593.891 404.400, 594.723 404.286, 595.685 404.284, 596.780 404.417, 597.696 404.724, 598.687 405.185, 599.732 405.777, 600.808 406.480, 601.894 407.275, 602.967 408.140, 604.005 409.054, 604.986 409.998, 605.888 410.950, 606.688 411.889, 607.364 412.795, 607.893 417.655, 610.286 422.117, 612.345 426.224, 614.116 430.021, 615.649 433.555, 616.992 436.871, 618.197 440.018, 619.314 443.044, 620.395 445.999, 621.492 448.933, 622.658 451.897, 623.945 454.941, 625.407 457.984, 627.006 461.079, 628.741 464.250, 630.602 467.523, 632.580 470.924, 634.668 474.478, 636.857 478.212, 639.139 482.155, 641.506 486.333, 643.950 490.775, 646.463 495.513, 649.040 500.576, 651.671 501.650, 652.159 502.732, 652.539 503.803, 652.808 504.843, 652.961 505.834, 652.994 506.755, 652.901 507.587, 652.679 508.310, 652.323 508.904, 651.828 509.351, 651.191 509.629, 650.406 509.719, 649.469 509.619, 648.181 509.356, 646.949 508.948, 645.770 508.409, 644.639 507.756, 643.552 507.006, 642.505 506.174, 641.493 505.277, 640.512 504.330, 639.558 503.350, 638.625 502.353, 637.709 501.355, 636.805 497.388, 633.336 494.047, 630.194 491.273, 627.309 489.005, 624.611 487.185, 622.030 485.756, 619.499 484.662, 616.947 483.847, 614.309 483.256, 611.514 482.834, 608.496 482.526, 605.185 482.278, 601.514 481.934, 595.244 481.625, 588.982 481.350, 582.723 481.104, 576.463 480.885, 570.195 480.765, 566.370 480.689, 563.916 480.529, 558.218 480.512, 557.620 480.352, 551.304 480.205, 544.961 480.068, 538.587 479.937, 532.178 479.808, 525.728 479.819, 524.609 479.898, 523.625 480.038, 522.771 480.236, 522.044 480.488, 521.441 480.787, 520.958 481.131, 520.593 481.514, 520.341 481.931, 520.200 482.379, 520.165 482.851, 520.234 483.345, 520.403 483.939, 520.706 484.548, 521.107 485.174, 521.608 485.816, 522.211 486.474, 522.916 487.148, 523.726 487.839, 524.642 488.545, 525.665 489.267, 526.798 490.005, 528.041 490.759, 529.396 491.529, 530.864 496.158, 539.728 500.787, 548.592 500.966, 548.933 504.403, 555.514 509.032, 564.378 513.661, 573.242 518.291, 582.106 522.920, 590.970 527.549, 599.834 532.179, 608.698 536.808, 617.561 541.437, 626.425 544.285, 631.878 545.005, 633.282 545.208, 633.677 546.056, 635.406 546.830, 637.067 547.526, 638.660 548.146, 640.185 548.686, 641.645 549.145, 643.038 549.433, 644.050 549.523, 644.367 549.819, 645.631 550.030, 646.832 550.156, 647.970 550.196, 649.046 550.016, 650.292 549.654, 651.393 549.107, 652.346 548.368, 653.145 547.432, 653.788 " />
            <path fill="none" stroke-width="3.0" stroke-linecap="butt" stroke-opacity="1.0" stroke="rgb(0, 0, 0)" stroke-linejoin="miter" d=" M 424.174, 592.360 422.420, 592.972 420.278, 593.209 417.719, 593.095 414.715, 592.650 411.238, 591.898 410.116, 591.657 409.086, 591.527 408.151, 591.510 407.312, 591.607 406.571, 591.821 " />
            <path fill="none" stroke-width="3.0" stroke-linecap="butt" stroke-opacity="1.0" stroke="rgb(0, 0, 0)" stroke-linejoin="miter" d=" M 547.432, 653.788 546.294, 654.269 544.949, 654.584 543.391, 654.730 541.617, 654.703 539.621, 654.499 537.399, 654.114 534.947, 653.545 533.957, 653.395 533.041, 653.351 532.203, 653.417 531.445, 653.595 530.768, 653.886 " />
            <path fill="none" stroke-width="3.0" stroke-linecap="butt" stroke-opacity="1.0" stroke="rgb(0, 0, 0)" stroke-linejoin="miter" d=" M 502.953, 378.651 512.385, 375.329 521.816, 372.006 531.248, 368.683 540.886, 365.288 550.318, 361.965 559.750, 358.643 569.182, 355.320 578.614, 351.997 588.046, 348.675 597.478, 345.352 600.416, 344.317 609.848, 340.994 619.280, 337.672 623.861, 336.058 624.673, 335.754 625.402, 335.368 626.047, 334.885 626.605, 334.289 627.074, 333.565 627.452, 332.698 627.737, 331.674 627.925, 330.476 628.015, 329.089 628.000, 327.981 627.896, 326.941 627.703, 325.971 627.425, 325.072 627.064, 324.246 626.623, 323.492 626.105, 322.812 625.512, 322.206 624.847, 321.676 624.112, 321.222 623.310, 320.844 622.445, 320.545 618.460, 319.424 614.101, 318.257 609.455, 317.057 604.609, 315.837 599.648, 314.607 594.655, 313.380 589.713, 312.166 584.901, 310.976 580.295, 309.820 575.974, 308.708 572.010, 307.651 568.479, 306.656 564.938, 305.580 561.105, 304.342 557.038, 302.974 552.797, 301.510 548.438, 299.982 544.018, 298.423 539.593, 296.863 535.217, 295.334 530.943, 293.867 526.823, 292.491 522.911, 291.236 519.255, 290.132 518.607, 289.997 517.946, 289.963 517.286, 290.029 516.641, 290.194 507.067, 293.080 497.493, 295.966 487.918, 298.853 478.344, 301.739 468.769, 304.625 459.195, 307.512 449.621, 310.398 440.046, 313.284 430.472, 316.170 420.897, 319.057 411.323, 321.943 401.749, 324.829 394.954, 326.878 " />
            <path fill="none" stroke-width="3.0" stroke-linecap="butt" stroke-opacity="1.0" stroke="rgb(0, 0, 0)" stroke-linejoin="miter" d=" M 670.159, 433.729 679.350, 429.789 688.541, 425.849 697.732, 421.909 706.923, 417.969 716.114, 414.029 725.305, 410.090 734.497, 406.150 743.688, 402.210 752.879, 398.270 762.070, 394.330 771.261, 390.390 780.452, 386.450 788.856, 382.848 790.012, 382.170 791.002, 381.315 791.789, 380.269 792.339, 379.014 792.615, 377.535 792.587, 376.322 792.323, 375.145 791.846, 374.009 791.178, 372.922 790.341, 371.892 789.359, 370.924 788.254, 370.025 787.048, 369.203 785.764, 368.463 784.425, 367.812 783.054, 367.256 781.672, 366.802 773.231, 364.380 765.269, 362.148 757.718, 360.076 750.509, 358.133 743.581, 356.292 736.868, 354.522 730.312, 352.796 723.854, 351.088 717.434, 349.369 710.998, 347.614 704.491, 345.798 697.859, 343.895 688.258, 341.098 678.657, 338.301 670.256, 335.854 669.485, 335.688 668.695, 335.630 667.902, 335.678 667.120, 335.833 666.368, 336.094 656.966, 339.500 647.564, 342.907 638.162, 346.313 628.760, 349.720 619.358, 353.126 609.956, 356.533 600.554, 359.939 597.519, 361.039 588.117, 364.445 578.715, 367.852 569.313, 371.258 559.911, 374.664 550.510, 378.071 545.348, 379.941 " />
            <path fill="none" stroke-width="3.0" stroke-linecap="butt" stroke-opacity="1.0" stroke="rgb(0, 0, 0)" stroke-linejoin="miter" d=" M 597.519, 361.039 597.539, 359.966 597.692, 355.835 598.023, 352.217 598.576, 349.079 599.394, 346.387 600.416, 344.317 " />
            <path fill="none" stroke-width="3.0" stroke-linecap="butt" stroke-opacity="1.0" stroke="rgb(0, 0, 0)" stroke-linejoin="miter" d=" M 666.991, 731.723 675.464, 726.411 683.936, 721.099 692.408, 715.786 700.880, 710.474 709.353, 705.161 717.825, 699.849 726.297, 694.537 734.769, 689.224 743.242, 683.912 751.714, 678.600 760.186, 673.288 768.658, 667.975 776.069, 663.329 776.705, 662.668 777.122, 661.856 777.318, 660.902 777.272, 659.581 776.943, 658.279 776.364, 657.001 775.574, 655.750 774.609, 654.528 773.505, 653.339 772.298, 652.185 771.026, 651.070 769.724, 649.994 768.428, 648.962 767.174, 647.976 765.999, 647.037 761.331, 643.353 757.085, 639.739 753.221, 636.179 749.700, 632.659 746.486, 629.164 743.539, 625.680 740.825, 622.195 738.308, 618.694 735.951, 615.165 733.719, 611.595 731.579, 607.972 729.495, 604.283 724.656, 595.532 719.816, 586.780 714.977, 578.029 710.138, 569.278 705.299, 560.527 700.460, 551.776 695.621, 543.025 690.781, 534.274 685.942, 525.523 681.103, 516.771 676.264, 508.020 671.425, 499.269 666.586, 490.518 661.746, 481.767 656.907, 473.016 652.068, 464.265 647.908, 456.741 647.135, 455.262 646.511, 453.825 646.035, 452.434 645.706, 451.096 645.525, 449.817 645.492, 448.601 645.605, 447.455 645.866, 446.385 646.275, 445.396 646.831, 444.494 647.535, 443.686 648.387, 442.977 653.831, 438.926 659.240, 434.745 659.528, 434.517 " />
            <path fill="none" stroke-width="3.0" stroke-linecap="butt" stroke-opacity="1.0" stroke="rgb(0, 0, 0)" stroke-linejoin="miter" d=" M 508.310, 652.323 517.186, 647.717 526.062, 643.112 534.938, 638.506 543.815, 633.900 545.005, 633.282 " />
        </g>
    </g>
</svg>
