<?xml version='1.0' encoding='ascii'?>
<svg xmlns="http://www.w3.org/2000/svg" version="1.1" width="1080" height="1080">
    <g id="View Layer_LineSet" xmlns:inkscape="http://www.inkscape.org/namespaces/inkscape" inkscape:groupmode="lineset" inkscape:label="View Layer_LineSet">
        <g xmlns:inkscape="http://www.inkscape.org/namespaces/inkscape" inkscape:groupmode="layer" id="strokes" inkscape:label="strokes">
            <path fill="none" stroke-width="3.0" stroke-linecap="butt" stroke-opacity="1.0" stroke="rgb(0, 0, 0)" stroke-linejoin="miter" d=" M 489.246, 381.303 492.080, 380.303 495.476, 379.561 499.484, 379.038 504.160, 378.698 505.218, 378.564 506.198, 378.389 507.098, 378.157 507.914, 377.851 508.643, 377.456 509.282, 376.955 509.829, 376.332 510.280, 375.571 510.633, 374.657 510.884, 373.572 510.907, 373.369 511.031, 372.301 511.071, 370.827 511.015, 369.646 510.869, 368.537 510.636, 367.500 510.319, 366.538 509.920, 365.650 509.442, 364.838 508.888, 364.103 508.261, 363.446 507.563, 362.867 506.796, 362.369 505.965, 361.951 505.071, 361.614 500.968, 360.338 496.482, 359.007 491.704, 357.635 486.722, 356.238 481.625, 354.828 476.498, 353.421 471.424, 352.030 466.483, 350.667 461.757, 349.344 457.321, 348.075 453.253, 346.871 449.628, 345.744 445.989, 344.529 442.049, 343.136 437.868, 341.601 433.506, 339.961 429.024, 338.251 424.480, 336.507 419.931, 334.763 415.435, 333.052 411.045, 331.410 406.817, 329.868 402.804, 328.459 399.059, 327.216 398.396, 327.061 397.726, 327.012 397.061, 327.069 396.415, 327.232 395.801, 327.499 395.232, 327.871 394.722, 328.346 394.283, 328.924 393.930, 329.604 393.675, 330.386 393.531, 331.270 393.511, 332.254 393.618, 333.600 393.814, 334.882 394.094, 336.100 394.459, 337.255 394.904, 338.348 395.429, 339.381 396.031, 340.355 396.708, 341.271 397.458, 342.129 398.279, 342.931 399.170, 343.678 400.128, 344.371 404.241, 347.094 407.856, 349.707 411.001, 352.265 413.702, 354.827 415.990, 357.448 417.894, 360.188 419.444, 363.103 420.673, 366.250 421.611, 369.687 422.292, 373.470 422.748, 377.654 423.013, 382.293 423.381, 392.286 423.749, 402.280 424.118, 412.273 424.486, 422.266 424.854, 432.259 425.223, 442.253 425.591, 452.246 425.959, 462.239 426.328, 472.232 426.696, 482.225 427.064, 492.219 427.433, 502.212 427.801, 512.205 428.169, 522.198 428.538, 532.191 428.906, 542.185 429.274, 552.178 429.643, 562.171 430.011, 572.164 430.153, 576.032 430.231, 579.868 430.180, 581.759 430.141, 583.179 429.847, 585.988 429.318, 588.317 428.519, 590.190 427.419, 591.627 425.983, 592.651 " />
            <path fill="none" stroke-width="3.0" stroke-linecap="butt" stroke-opacity="1.0" stroke="rgb(0, 0, 0)" stroke-linejoin="miter" d=" M 610.012, 437.552 614.341, 435.786 618.919, 434.224 623.773, 432.897 628.929, 431.834 629.307, 431.781 634.415, 431.063 640.258, 430.617 646.489, 430.524 653.137, 430.818 660.232, 431.531 662.201, 431.834 667.806, 432.696 669.183, 432.843 670.638, 432.923 672.138, 432.918 673.644, 432.810 675.121, 432.581 676.532, 432.214 677.841, 431.691 679.009, 430.993 680.000, 430.103 680.777, 429.003 681.301, 427.675 681.536, 426.101 681.466, 424.805 681.155, 423.541 680.625, 422.316 679.900, 421.140 679.002, 420.019 678.123, 419.130 677.957, 418.962 676.788, 417.977 675.517, 417.070 674.169, 416.251 672.768, 415.525 671.336, 414.900 669.896, 414.384 666.134, 413.193 661.121, 411.606 652.850, 409.043 645.009, 406.662 637.530, 404.428 630.344, 402.308 623.387, 400.271 616.595, 398.285 609.905, 396.320 603.258, 394.346 597.384, 392.572 596.595, 392.334 589.860, 390.255 582.996, 388.082 573.475, 385.026 563.953, 381.970 554.453, 378.921 553.659, 378.727 552.849, 378.648 552.039, 378.683 551.246, 378.831 550.486, 379.094 549.775, 379.470 549.129, 379.959 548.565, 380.561 548.097, 381.277 547.743, 382.106 547.518, 383.048 547.437, 384.103 547.490, 385.551 547.652, 386.934 547.922, 388.251 548.297, 389.504 548.774, 390.695 549.350, 391.824 550.024, 392.893 550.791, 393.902 551.651, 394.854 552.600, 395.747 553.637, 396.585 554.758, 397.367 557.637, 399.225 560.264, 401.082 562.638, 402.937 564.759, 404.786 566.627, 406.628 568.240, 408.461 569.601, 410.281 570.708, 412.089 571.564, 413.880 572.168, 415.653 572.522, 417.407 572.628, 419.138 572.552, 420.231 572.352, 421.304 572.033, 422.359 571.605, 423.401 571.073, 424.433 570.445, 425.459 569.728, 426.484 568.928, 427.510 568.054, 428.543 567.112, 429.585 566.109, 430.640 565.053, 431.713 557.980, 438.783 550.908, 445.852 543.835, 452.922 540.280, 456.475 533.207, 463.544 526.134, 470.614 519.061, 477.683 511.989, 484.753 504.916, 491.822 497.843, 498.892 495.074, 501.659 494.165, 502.254 493.323, 502.814 492.538, 503.333 491.804, 503.802 491.113, 504.215 490.458, 504.564 " />
            <path fill="none" stroke-width="3.0" stroke-linecap="butt" stroke-opacity="1.0" stroke="rgb(0, 0, 0)" stroke-linejoin="miter" d=" M 490.458, 504.564 489.831, 504.842 489.225, 505.042 488.633, 505.155 488.046, 505.176 487.458, 505.096 486.862, 504.908 486.353, 504.664 485.861, 504.351 485.392, 503.966 484.951, 503.505 484.541, 502.967 484.168, 502.349 483.837, 501.647 483.550, 500.860 483.315, 499.984 483.134, 499.016 483.013, 497.955 482.957, 496.795 482.771, 486.797 482.584, 476.799 482.398, 466.801 482.211, 456.802 482.025, 446.804 481.839, 436.806 481.652, 426.807 481.466, 416.809 481.279, 406.811 481.208, 403.005 481.207, 398.621 481.406, 394.785 481.849, 391.464 482.578, 388.620 483.637, 386.219 485.072, 384.224 486.926, 382.598 489.246, 381.303 " />
            <path fill="none" stroke-width="3.0" stroke-linecap="butt" stroke-opacity="1.0" stroke="rgb(0, 0, 0)" stroke-linejoin="miter" d=" M 554.127, 642.449 545.370, 647.278 536.613, 652.108 535.136, 652.922 534.529, 653.337 534.009, 653.870 533.579, 654.524 533.241, 655.300 532.998, 656.201 532.852, 657.230 532.805, 658.388 532.877, 659.314 533.078, 660.246 533.396, 661.174 533.814, 662.087 534.318, 662.974 534.895, 663.824 535.529, 664.626 536.208, 665.368 536.915, 666.040 537.637, 666.630 538.360, 667.127 539.068, 667.519 543.116, 669.436 547.086, 671.244 551.002, 672.968 554.883, 674.632 558.752, 676.261 562.630, 677.878 566.541, 679.511 570.507, 681.182 574.550, 682.920 578.695, 684.748 582.965, 686.694 587.384, 688.785 593.266, 691.680 599.153, 694.680 605.047, 697.766 610.948, 700.920 616.857, 704.121 622.777, 707.349 628.709, 710.586 634.654, 713.810 640.616, 717.003 646.595, 720.143 652.596, 723.210 658.619, 726.185 661.190, 727.358 663.557, 728.296 665.717, 729.007 667.666, 729.496 669.403, 729.773 670.923, 729.843 672.224, 729.716 673.304, 729.398 674.160, 728.898 674.789, 728.223 675.188, 727.381 675.356, 726.382 675.266, 724.988 674.885, 723.605 674.250, 722.239 673.400, 720.893 672.371, 719.573 671.201, 718.282 669.928, 717.026 668.589, 715.807 667.220, 714.631 665.860, 713.500 664.545, 712.418 663.311, 711.389 658.412, 707.352 653.949, 703.402 649.878, 699.523 646.160, 695.696 642.756, 691.907 639.626, 688.139 636.734, 684.376 634.042, 680.604 631.513, 676.807 629.111, 672.971 626.800, 669.082 624.544, 665.125 619.665, 656.395 614.787, 647.666 609.908, 638.937 605.030, 630.208 602.029, 624.840 598.267, 618.107 593.388, 609.378 592.604, 607.975 587.725, 599.246 582.847, 590.516 577.968, 581.787 573.089, 573.058 568.211, 564.329 563.332, 555.600 558.454, 546.870 553.575, 538.141 548.696, 529.412 543.818, 520.683 538.939, 511.954 536.081, 506.840 535.240, 505.253 534.551, 503.715 534.015, 502.230 533.631, 500.804 533.400, 499.444 533.321, 498.155 533.322, 498.130 533.394, 496.944 533.621, 495.817 534.000, 494.779 534.534, 493.838 535.221, 492.999 536.062, 492.269 541.460, 488.112 546.820, 483.813 552.159, 479.410 557.492, 474.940 557.756, 474.718 562.837, 470.443 568.209, 465.956 573.626, 461.521 579.105, 457.179 584.664, 452.972 590.320, 448.942 596.093, 445.133 596.434, 444.928 602.000, 441.589 605.907, 439.496 610.012, 437.552 " />
            <path fill="none" stroke-width="3.0" stroke-linecap="butt" stroke-opacity="1.0" stroke="rgb(0, 0, 0)" stroke-linejoin="miter" d=" M 430.180, 581.759 421.143, 586.041 412.106, 590.323 407.911, 592.311 407.252, 592.652 406.697, 593.113 406.249, 593.697 405.908, 594.405 405.677, 595.240 405.559, 596.205 405.554, 597.300 405.690, 598.216 406.004, 599.205 406.474, 600.245 407.081, 601.316 407.802, 602.395 408.616, 603.460 409.502, 604.489 410.440, 605.460 411.407, 606.352 412.384, 607.141 413.347, 607.807 414.276, 608.326 419.263, 610.665 423.840, 612.673 428.053, 614.398 431.947, 615.888 435.571, 617.191 438.972, 618.358 442.199, 619.439 445.303, 620.485 448.333, 621.548 451.340, 622.679 454.378, 623.932 457.498, 625.359 460.616, 626.922 463.787, 628.621 467.035, 630.444 470.388, 632.384 473.871, 634.432 477.511, 636.578 481.335, 638.815 485.371, 641.135 489.649, 643.528 494.197, 645.988 499.046, 648.506 504.228, 651.076 505.328, 651.550 506.435, 651.917 507.532, 652.173 508.597, 652.313 509.611, 652.334 510.554, 652.230 511.407, 651.998 512.148, 651.633 512.758, 651.131 513.216, 650.488 513.502, 649.701 513.595, 648.763 513.495, 647.477 513.228, 646.249 512.812, 645.075 512.262, 643.951 511.595, 642.873 510.828, 641.835 509.978, 640.834 509.061, 639.864 508.093, 638.921 507.091, 638.000 506.071, 637.097 505.050, 636.205 500.992, 632.784 497.575, 629.683 494.737, 626.831 492.418, 624.161 490.557, 621.602 489.097, 619.087 487.980, 616.549 487.149, 613.920 486.548, 611.133 486.120, 608.120 485.810, 604.813 485.562, 601.145 485.219, 594.880 484.913, 588.622 484.641, 582.367 484.399, 576.110 484.184, 569.845 484.032, 564.835 483.993, 563.569 483.823, 557.276 483.800, 556.351 483.669, 550.962 483.529, 544.622 483.398, 538.250 483.274, 531.843 483.152, 525.395 483.166, 524.277 483.247, 523.291 483.393, 522.436 483.597, 521.707 483.855, 521.102 484.163, 520.616 484.516, 520.247 484.909, 519.992 485.337, 519.846 485.795, 519.807 486.280, 519.871 486.785, 520.035 487.393, 520.332 488.017, 520.727 488.658, 521.221 489.315, 521.817 489.988, 522.515 490.677, 523.318 491.383, 524.226 492.105, 525.242 492.843, 526.367 493.597, 527.602 494.367, 528.948 495.154, 530.408 499.881, 539.220 503.950, 546.803 507.572, 553.554 512.300, 562.366 517.028, 571.178 521.756, 579.990 526.484, 588.801 531.212, 597.613 535.940, 606.425 540.667, 615.237 545.395, 624.048 549.002, 630.771 549.356, 631.443 549.943, 632.556 550.808, 634.274 551.597, 635.924 552.307, 637.507 552.938, 639.023 553.488, 640.475 553.956, 641.861 554.127, 642.449 554.341, 643.184 554.641, 644.443 554.855, 645.641 554.982, 646.776 555.021, 647.850 554.835, 649.097 554.463, 650.201 553.902, 651.160 553.145, 651.968 552.187, 652.621 " />
            <path fill="none" stroke-width="3.0" stroke-linecap="butt" stroke-opacity="1.0" stroke="rgb(0, 0, 0)" stroke-linejoin="miter" d=" M 425.983, 592.651 424.182, 593.283 421.983, 593.545 419.356, 593.459 416.272, 593.049 412.704, 592.335 411.552, 592.107 410.494, 591.988 409.534, 591.981 408.672, 592.088 407.911, 592.311 " />
            <path fill="none" stroke-width="3.0" stroke-linecap="butt" stroke-opacity="1.0" stroke="rgb(0, 0, 0)" stroke-linejoin="miter" d=" M 552.187, 652.621 551.022, 653.115 549.645, 653.447 548.052, 653.612 546.236, 653.606 544.194, 653.426 541.922, 653.069 539.413, 652.530 538.400, 652.392 537.464, 652.360 536.606, 652.436 535.829, 652.622 535.136, 652.922 " />
            <path fill="none" stroke-width="3.0" stroke-linecap="butt" stroke-opacity="1.0" stroke="rgb(0, 0, 0)" stroke-linejoin="miter" d=" M 507.098, 378.157 516.481, 374.700 525.865, 371.243 535.248, 367.786 540.288, 365.929 549.671, 362.472 559.055, 359.015 568.438, 355.558 577.822, 352.101 587.205, 348.644 596.589, 345.188 600.696, 343.674 610.079, 340.217 619.463, 336.760 624.771, 334.805 625.597, 334.496 626.339, 334.105 626.994, 333.618 627.562, 333.019 628.039, 332.293 628.423, 331.425 628.712, 330.401 628.903, 329.204 628.995, 327.820 628.980, 326.714 628.873, 325.677 628.676, 324.711 628.393, 323.816 628.027, 322.994 627.578, 322.245 627.051, 321.570 626.448, 320.970 625.771, 320.446 625.023, 319.998 624.208, 319.628 623.327, 319.335 619.274, 318.245 614.840, 317.113 610.112, 315.950 605.181, 314.767 600.132, 313.576 595.050, 312.387 590.019, 311.211 585.119, 310.057 580.430, 308.936 576.028, 307.857 571.991, 306.830 568.394, 305.862 564.787, 304.813 560.881, 303.603 556.738, 302.266 552.415, 300.834 547.973, 299.339 543.468, 297.813 538.956, 296.286 534.494, 294.789 530.136, 293.353 525.935, 292.007 521.944, 290.780 518.215, 289.702 517.554, 289.572 516.880, 289.543 516.207, 289.613 515.549, 289.782 506.009, 292.781 496.470, 295.780 486.930, 298.779 477.390, 301.777 467.850, 304.776 458.311, 307.775 448.771, 310.774 439.231, 313.773 429.691, 316.771 420.151, 319.770 410.612, 322.769 401.072, 325.768 396.415, 327.232 " />
            <path fill="none" stroke-width="3.0" stroke-linecap="butt" stroke-opacity="1.0" stroke="rgb(0, 0, 0)" stroke-linejoin="miter" d=" M 677.841, 431.691 686.958, 427.582 696.074, 423.473 705.191, 419.364 714.308, 415.255 723.425, 411.146 732.541, 407.036 741.658, 402.927 750.775, 398.818 759.892, 394.709 769.008, 390.600 778.125, 386.491 787.242, 382.382 792.209, 380.143 793.380, 379.458 794.381, 378.600 795.179, 377.551 795.735, 376.297 796.013, 374.823 795.985, 373.616 795.718, 372.445 795.234, 371.319 794.558, 370.242 793.711, 369.223 792.716, 368.267 791.596, 367.381 790.375, 366.572 789.075, 365.845 787.719, 365.208 786.330, 364.666 784.931, 364.225 776.382, 361.880 768.317, 359.720 760.665, 357.716 753.360, 355.838 746.336, 354.057 739.531, 352.347 732.883, 350.678 726.333, 349.026 719.821, 347.363 713.291, 345.664 706.688, 343.904 699.957, 342.057 690.323, 339.374 680.690, 336.691 671.928, 334.251 671.145, 334.091 670.342, 334.038 669.536, 334.093 668.743, 334.253 667.978, 334.519 658.628, 338.066 649.278, 341.613 639.929, 345.161 630.579, 348.708 621.229, 352.255 611.879, 355.802 602.530, 359.349 597.955, 361.085 588.605, 364.632 579.255, 368.179 569.905, 371.726 560.556, 375.273 551.206, 378.821 550.486, 379.094 " />
            <path fill="none" stroke-width="3.0" stroke-linecap="butt" stroke-opacity="1.0" stroke="rgb(0, 0, 0)" stroke-linejoin="miter" d=" M 597.955, 361.085 597.995, 358.870 598.150, 354.745 598.487, 351.131 599.048, 347.995 599.880, 345.301 600.696, 343.674 " />
            <path fill="none" stroke-width="3.0" stroke-linecap="butt" stroke-opacity="1.0" stroke="rgb(0, 0, 0)" stroke-linejoin="miter" d=" M 674.160, 728.898 682.510, 723.394 690.859, 717.891 699.209, 712.388 707.558, 706.885 715.908, 701.382 724.258, 695.879 732.607, 690.376 740.957, 684.873 749.306, 679.369 757.656, 673.866 766.006, 668.363 774.355, 662.860 779.339, 659.575 779.983, 658.910 780.406, 658.096 780.603, 657.143 780.557, 655.828 780.223, 654.536 779.637, 653.270 778.836, 652.033 777.858, 650.828 776.739, 649.656 775.517, 648.522 774.228, 647.425 772.908, 646.370 771.595, 645.357 770.325, 644.390 769.134, 643.468 764.403, 639.854 760.099, 636.304 756.182, 632.803 752.613, 629.336 749.354, 625.891 746.366, 622.455 743.614, 619.013 741.060, 615.553 738.669, 612.064 736.406, 608.532 734.234, 604.945 732.120, 601.293 727.190, 592.592 722.261, 583.891 717.332, 575.190 712.403, 566.490 707.473, 557.789 702.544, 549.088 697.615, 540.388 692.686, 531.687 687.756, 522.986 682.827, 514.285 677.898, 505.585 672.969, 496.884 668.039, 488.183 663.110, 479.482 658.181, 470.782 653.252, 462.081 649.248, 455.015 648.463, 453.546 647.828, 452.118 647.343, 450.735 647.009, 449.403 646.825, 448.128 646.791, 446.916 646.906, 445.771 647.171, 444.701 647.586, 443.711 648.151, 442.807 648.867, 441.994 649.732, 441.279 655.264, 437.189 660.760, 432.970 662.201, 431.834 " />
            <path fill="none" stroke-width="3.0" stroke-linecap="butt" stroke-opacity="1.0" stroke="rgb(0, 0, 0)" stroke-linejoin="miter" d=" M 512.148, 651.633 520.937, 646.864 529.727, 642.094 538.516, 637.325 547.305, 632.555 549.356, 631.443 " />
        </g>
    </g>
</svg>
