<?xml version='1.0' encoding='ascii'?>
<svg xmlns="http://www.w3.org/2000/svg" version="1.1" width="1080" height="1080">
    <g id="View Layer_LineSet" xmlns:inkscape="http://www.inkscape.org/namespaces/inkscape" inkscape:groupmode="lineset" inkscape:label="View Layer_LineSet">
        <g xmlns:inkscape="http://www.inkscape.org/namespaces/inkscape" inkscape:groupmode="layer" id="strokes" inkscape:label="strokes">
            <path fill="none" stroke-width="3.0" stroke-linecap="butt" stroke-opacity="1.0" stroke="rgb(0, 0, 0)" stroke-linejoin="miter" d=" M 493.621, 380.851 496.534, 379.823 500.025, 379.048 504.144, 378.486 508.946, 378.100 510.034, 377.956 511.041, 377.772 511.965, 377.531 512.803, 377.217 513.552, 376.815 514.210, 376.308 514.772, 375.681 515.237, 374.916 515.601, 373.999 515.861, 372.913 515.943, 372.231 516.014, 371.641 516.058, 370.168 516.002, 368.989 515.855, 367.882 515.617, 366.849 515.294, 365.890 514.886, 365.007 514.397, 364.200 513.829, 363.471 513.186, 362.820 512.470, 362.249 511.684, 361.758 510.831, 361.348 509.914, 361.020 505.702, 359.785 501.096, 358.497 496.189, 357.171 491.073, 355.821 485.838, 354.460 480.570, 353.102 475.356, 351.758 470.278, 350.442 465.420, 349.164 460.860, 347.936 456.678, 346.770 452.949, 345.676 449.208, 344.494 445.156, 343.137 440.855, 341.641 436.368, 340.040 431.757, 338.370 427.081, 336.667 422.400, 334.963 417.771, 333.292 413.253, 331.688 408.899, 330.183 404.767, 328.809 400.909, 327.599 400.227, 327.449 399.536, 327.406 398.851, 327.469 398.184, 327.638 397.551, 327.911 396.964, 328.288 396.437, 328.768 395.984, 329.351 395.618, 330.035 395.354, 330.820 395.204, 331.706 395.182, 332.692 395.290, 334.039 395.489, 335.320 395.776, 336.536 396.149, 337.689 396.606, 338.780 397.145, 339.809 397.764, 340.778 398.460, 341.689 399.231, 342.541 400.076, 343.337 400.993, 344.076 401.979, 344.761 406.212, 347.449 409.933, 350.030 413.168, 352.561 415.946, 355.099 418.298, 357.701 420.254, 360.424 421.845, 363.326 423.105, 366.464 424.065, 369.894 424.759, 373.673 425.221, 377.855 425.485, 382.495 425.845, 392.488 426.206, 402.482 426.566, 412.475 426.927, 422.469 427.288, 432.462 427.648, 442.456 428.009, 452.449 428.369, 462.443 428.730, 472.436 429.090, 482.430 429.451, 492.423 429.812, 502.417 430.172, 512.410 430.533, 522.404 430.893, 532.397 431.254, 542.391 431.614, 552.384 431.975, 562.378 432.336, 572.371 432.477, 576.283 432.550, 580.121 432.511, 581.429 432.450, 583.436 432.143, 586.251 431.593, 588.589 430.768, 590.474 429.631, 591.927 428.152, 592.970 " />
            <path fill="none" stroke-width="3.0" stroke-linecap="butt" stroke-opacity="1.0" stroke="rgb(0, 0, 0)" stroke-linejoin="miter" d=" M 617.364, 435.774 621.797, 433.965 626.484, 432.359 628.434, 431.819 631.452, 430.983 636.728, 429.867 642.340, 429.041 648.316, 428.533 654.686, 428.375 661.480, 428.597 664.919, 428.898 668.728, 429.232 676.464, 430.312 677.870, 430.444 679.357, 430.509 680.888, 430.487 682.426, 430.364 683.935, 430.120 685.377, 429.740 686.714, 429.204 687.908, 428.497 688.922, 427.599 689.717, 426.495 690.254, 425.166 690.496, 423.596 690.428, 422.305 690.112, 421.048 689.573, 419.834 688.834, 418.669 687.920, 417.562 686.855, 416.520 685.662, 415.550 684.366, 414.661 683.514, 414.163 682.991, 413.858 681.561, 413.149 680.100, 412.541 678.631, 412.042 672.788, 410.295 669.672, 409.364 661.224, 406.894 653.215, 404.601 645.572, 402.449 638.228, 400.409 631.115, 398.448 624.170, 396.536 617.327, 394.643 610.527, 392.741 603.710, 390.801 597.865, 389.099 596.817, 388.794 589.791, 386.694 580.221, 383.792 570.651, 380.891 561.081, 377.989 560.556, 377.830 559.742, 377.645 558.912, 377.573 558.081, 377.616 557.268, 377.772 556.488, 378.042 555.758, 378.424 555.095, 378.919 554.515, 379.526 554.034, 380.245 553.669, 381.076 553.437, 382.019 553.352, 383.073 553.403, 384.519 553.568, 385.898 553.842, 387.211 554.224, 388.458 554.711, 389.643 555.300, 390.764 555.989, 391.825 556.774, 392.825 557.654, 393.766 558.626, 394.649 559.687, 395.475 560.835, 396.245 563.784, 398.071 566.474, 399.898 568.904, 401.725 571.075, 403.550 572.985, 405.370 574.636, 407.182 576.027, 408.986 577.159, 410.778 578.032, 412.558 578.648, 414.321 579.008, 416.068 579.114, 417.795 579.034, 418.887 578.826, 419.960 578.498, 421.016 578.057, 422.061 577.510, 423.097 576.865, 424.128 576.128, 425.158 575.307, 426.191 574.409, 427.231 573.442, 428.281 572.412, 429.346 571.328, 430.428 564.194, 437.436 557.059, 444.443 549.925, 451.450 542.791, 458.458 539.540, 461.651 532.406, 468.658 525.272, 475.666 518.138, 482.673 511.003, 489.680 503.869, 496.688 499.389, 501.088 498.454, 501.694 497.587, 502.264 496.780, 502.791 496.025, 503.269 495.315, 503.690 494.641, 504.047 " />
            <path fill="none" stroke-width="3.0" stroke-linecap="butt" stroke-opacity="1.0" stroke="rgb(0, 0, 0)" stroke-linejoin="miter" d=" M 494.641, 504.047 493.996, 504.332 493.373, 504.539 492.764, 504.660 492.161, 504.687 491.557, 504.614 490.945, 504.433 490.422, 504.196 489.917, 503.889 489.436, 503.509 488.983, 503.054 488.563, 502.521 488.181, 501.907 487.841, 501.210 487.549, 500.426 487.308, 499.553 487.124, 498.588 487.002, 497.528 486.946, 496.369 486.773, 486.371 486.599, 476.372 486.426, 466.374 486.253, 456.375 486.079, 446.377 485.906, 436.378 485.733, 426.380 485.559, 416.381 485.386, 406.383 485.321, 402.625 485.328, 398.242 485.539, 394.406 486.000, 391.081 486.755, 388.231 487.848, 385.820 489.326, 383.812 491.234, 382.167 493.621, 380.851 " />
            <path fill="none" stroke-width="3.0" stroke-linecap="butt" stroke-opacity="1.0" stroke="rgb(0, 0, 0)" stroke-linejoin="miter" d=" M 559.591, 640.457 550.949, 645.489 542.307, 650.520 540.249, 651.719 539.625, 652.142 539.090, 652.682 538.648, 653.341 538.300, 654.121 538.049, 655.025 537.897, 656.055 537.847, 657.213 537.919, 658.137 538.124, 659.065 538.448, 659.988 538.875, 660.894 539.391, 661.773 539.982, 662.613 540.632, 663.405 541.326, 664.137 542.051, 664.797 542.791, 665.376 543.531, 665.862 544.257, 666.244 548.406, 668.099 552.476, 669.847 556.489, 671.512 560.466, 673.117 564.430, 674.686 568.404, 676.244 572.410, 677.816 576.472, 679.426 580.613, 681.101 584.857, 682.865 589.228, 684.744 593.751, 686.764 599.771, 689.566 605.794, 692.472 611.823, 695.463 617.858, 698.520 623.901, 701.624 629.952, 704.755 636.015, 707.893 642.091, 711.018 648.181, 714.111 654.289, 717.150 660.418, 720.116 666.569, 722.988 669.194, 724.118 671.611, 725.016 673.816, 725.691 675.807, 726.149 677.581, 726.397 679.134, 726.444 680.463, 726.296 681.567, 725.963 682.442, 725.450 683.085, 724.768 683.495, 723.923 683.668, 722.924 683.578, 721.536 683.191, 720.164 682.545, 718.811 681.679, 717.483 680.630, 716.183 679.438, 714.915 678.139, 713.682 676.773, 712.488 675.377, 711.336 673.990, 710.229 672.648, 709.171 671.388, 708.165 666.390, 704.214 661.835, 700.344 657.681, 696.537 653.887, 692.778 650.413, 689.050 647.220, 685.339 644.269, 681.630 641.522, 677.907 638.942, 674.157 636.492, 670.366 634.135, 666.520 631.834, 662.606 626.842, 653.941 621.850, 645.276 616.858, 636.611 611.866, 627.946 608.147, 621.490 604.133, 614.523 599.141, 605.858 598.138, 604.118 593.146, 595.453 588.154, 586.788 583.162, 578.123 578.170, 569.458 573.178, 560.793 568.186, 552.128 563.194, 543.464 558.202, 534.799 553.210, 526.134 548.218, 517.469 543.227, 508.804 541.482, 505.776 540.622, 504.202 539.918, 502.673 539.371, 501.196 538.979, 499.776 538.745, 498.420 538.666, 497.134 538.743, 495.923 538.767, 495.809 538.978, 494.795 539.369, 493.754 539.918, 492.807 540.624, 491.962 541.489, 491.223 547.034, 487.008 552.540, 482.652 558.023, 478.194 563.500, 473.669 568.513, 469.511 568.987, 469.118 574.501, 464.578 580.060, 460.090 585.682, 455.695 591.384, 451.435 596.900, 447.551 597.184, 447.351 603.102, 443.487 609.157, 439.887 613.159, 437.757 617.364, 435.774 " />
            <path fill="none" stroke-width="3.0" stroke-linecap="butt" stroke-opacity="1.0" stroke="rgb(0, 0, 0)" stroke-linejoin="miter" d=" M 432.511, 581.429 423.560, 585.887 414.608, 590.346 409.534, 592.873 408.855, 593.223 408.282, 593.693 407.819, 594.283 407.466, 594.997 407.227, 595.836 407.103, 596.803 407.096, 597.900 407.234, 598.814 407.556, 599.800 408.039, 600.836 408.662, 601.900 409.403, 602.970 410.240, 604.025 411.152, 605.043 412.116, 606.002 413.111, 606.882 414.115, 607.659 415.107, 608.312 416.063, 608.819 421.196, 611.092 425.906, 613.039 430.242, 614.707 434.250, 616.144 437.978, 617.398 441.478, 618.519 444.798, 619.556 447.990, 620.559 451.106, 621.580 454.199, 622.670 457.322, 623.881 460.530, 625.265 463.734, 626.785 466.993, 628.440 470.331, 630.218 473.775, 632.111 477.353, 634.110 481.091, 636.205 485.018, 638.388 489.163, 640.650 493.555, 642.982 498.224, 645.376 503.202, 647.824 508.521, 650.318 509.649, 650.776 510.786, 651.127 511.912, 651.367 513.005, 651.492 514.047, 651.498 515.016, 651.381 515.892, 651.136 516.654, 650.761 517.281, 650.251 517.752, 649.602 518.047, 648.810 518.145, 647.872 518.044, 646.588 517.773, 645.365 517.347, 644.198 516.784, 643.082 516.102, 642.014 515.316, 640.988 514.445, 639.999 513.504, 639.043 512.512, 638.114 511.485, 637.208 510.439, 636.319 509.392, 635.443 505.229, 632.080 501.725, 629.028 498.815, 626.217 496.436, 623.580 494.529, 621.048 493.033, 618.554 491.889, 616.032 491.040, 613.415 490.427, 610.636 489.993, 607.630 489.681, 604.328 489.432, 600.663 489.091, 594.404 488.788, 588.152 488.520, 581.902 488.283, 575.649 488.074, 569.388 487.889, 563.116 487.882, 562.866 487.725, 556.826 487.659, 553.960 487.579, 550.515 487.446, 544.178 487.323, 537.810 487.207, 531.405 487.094, 524.960 487.110, 523.842 487.196, 522.856 487.347, 521.999 487.558, 521.268 487.825, 520.659 488.142, 520.170 488.506, 519.797 488.910, 519.537 489.350, 519.386 489.821, 519.341 490.319, 519.399 490.838, 519.557 491.462, 519.846 492.103, 520.233 492.760, 520.720 493.434, 521.307 494.125, 521.997 494.832, 522.791 495.555, 523.691 496.295, 524.698 497.051, 525.813 497.824, 527.038 498.613, 528.374 499.418, 529.824 504.260, 538.574 507.347, 544.154 511.199, 551.114 516.040, 559.864 520.882, 568.614 525.724, 577.364 530.565, 586.114 535.407, 594.863 540.248, 603.613 545.090, 612.363 549.931, 621.113 554.386, 629.163 554.514, 629.394 555.475, 631.165 556.360, 632.868 557.165, 634.504 557.891, 636.075 558.535, 637.581 559.097, 639.023 559.574, 640.401 559.591, 640.457 559.966, 641.717 560.272, 642.970 560.489, 644.163 560.618, 645.295 560.656, 646.367 560.462, 647.615 560.080, 648.723 559.503, 649.688 558.725, 650.506 557.741, 651.172 " />
            <path fill="none" stroke-width="3.0" stroke-linecap="butt" stroke-opacity="1.0" stroke="rgb(0, 0, 0)" stroke-linejoin="miter" d=" M 428.152, 592.970 426.295, 593.627 424.030, 593.919 421.324, 593.869 418.148, 593.499 414.473, 592.833 413.286, 592.620 412.197, 592.515 411.208, 592.521 410.319, 592.640 409.534, 592.873 " />
            <path fill="none" stroke-width="3.0" stroke-linecap="butt" stroke-opacity="1.0" stroke="rgb(0, 0, 0)" stroke-linejoin="miter" d=" M 557.741, 651.172 556.545, 651.683 555.133, 652.034 553.498, 652.221 551.636, 652.242 549.542, 652.092 547.211, 651.767 544.639, 651.265 543.599, 651.142 542.638, 651.123 541.758, 651.211 540.961, 651.409 540.249, 651.719 " />
            <path fill="none" stroke-width="3.0" stroke-linecap="butt" stroke-opacity="1.0" stroke="rgb(0, 0, 0)" stroke-linejoin="miter" d=" M 512.803, 377.217 522.124, 373.595 531.445, 369.972 539.526, 366.832 548.847, 363.209 558.168, 359.587 567.489, 355.964 576.809, 352.342 586.130, 348.719 595.451, 345.097 600.884, 342.985 610.205, 339.363 619.526, 335.740 626.575, 333.001 627.330, 332.604 627.999, 332.112 628.577, 331.510 629.063, 330.782 629.454, 329.913 629.748, 328.888 629.942, 327.693 630.035, 326.312 630.020, 325.209 629.910, 324.176 629.710, 323.214 629.422, 322.324 629.047, 321.507 628.590, 320.764 628.053, 320.095 627.438, 319.502 626.748, 318.985 625.986, 318.545 625.155, 318.182 624.258, 317.898 620.127, 316.846 615.606, 315.755 610.786, 314.635 605.758, 313.498 600.608, 312.353 595.425, 311.210 590.292, 310.079 585.292, 308.970 580.506, 307.891 576.014, 306.852 571.893, 305.860 568.221, 304.925 564.537, 303.907 560.549, 302.733 556.316, 301.433 551.901, 300.039 547.362, 298.583 542.759, 297.096 538.148, 295.608 533.588, 294.150 529.132, 292.752 524.837, 291.442 520.757, 290.249 516.943, 289.203 516.267, 289.078 515.577, 289.055 514.889, 289.130 514.217, 289.305 504.721, 292.442 495.226, 295.578 485.731, 298.715 476.236, 301.852 466.740, 304.989 457.245, 308.126 447.750, 311.263 438.255, 314.400 428.759, 317.537 419.264, 320.674 409.769, 323.811 400.274, 326.948 398.184, 327.638 " />
            <path fill="none" stroke-width="3.0" stroke-linecap="butt" stroke-opacity="1.0" stroke="rgb(0, 0, 0)" stroke-linejoin="miter" d=" M 686.714, 429.204 695.733, 424.886 704.753, 420.568 713.772, 416.249 722.792, 411.931 731.811, 407.612 740.831, 403.294 749.850, 398.976 758.870, 394.657 767.889, 390.339 776.909, 386.020 785.928, 381.702 795.908, 376.924 797.094, 376.232 798.109, 375.368 798.916, 374.317 799.479, 373.064 799.761, 371.595 799.732, 370.395 799.461, 369.233 798.971, 368.117 798.285, 367.053 797.426, 366.047 796.417, 365.105 795.282, 364.235 794.045, 363.441 792.727, 362.731 791.352, 362.109 789.944, 361.583 788.525, 361.158 779.858, 358.904 771.678, 356.830 763.915, 354.907 756.503, 353.105 749.374, 351.398 742.466, 349.757 735.715, 348.157 729.062, 346.572 722.447, 344.975 715.813, 343.342 709.102, 341.649 702.260, 339.870 692.591, 337.318 682.922, 334.765 673.752, 332.343 672.955, 332.191 672.138, 332.146 671.318, 332.207 670.511, 332.374 669.733, 332.646 660.451, 336.367 651.169, 340.088 641.887, 343.808 632.605, 347.529 623.323, 351.250 614.041, 354.971 604.759, 358.692 598.374, 361.251 589.092, 364.972 579.810, 368.693 570.528, 372.414 561.246, 376.135 556.488, 378.042 " />
            <path fill="none" stroke-width="3.0" stroke-linecap="butt" stroke-opacity="1.0" stroke="rgb(0, 0, 0)" stroke-linejoin="miter" d=" M 598.374, 361.251 598.441, 357.571 598.598, 353.453 598.940, 349.844 599.513, 346.708 600.360, 344.013 600.884, 342.985 " />
            <path fill="none" stroke-width="3.0" stroke-linecap="butt" stroke-opacity="1.0" stroke="rgb(0, 0, 0)" stroke-linejoin="miter" d=" M 682.442, 725.450 690.635, 719.717 698.828, 713.983 707.020, 708.249 715.213, 702.515 723.406, 696.781 731.599, 691.048 739.792, 685.314 747.985, 679.580 756.178, 673.846 764.371, 668.112 772.564, 662.379 780.757, 656.645 782.957, 655.105 783.610, 654.433 784.038, 653.618 784.238, 652.666 784.191, 651.358 783.852, 650.077 783.257, 648.825 782.445, 647.606 781.453, 646.420 780.318, 645.270 779.078, 644.158 777.770, 643.085 776.431, 642.053 775.099, 641.064 773.810, 640.118 772.602, 639.218 767.802, 635.686 763.434, 632.212 759.459, 628.780 755.835, 625.379 752.526, 621.994 749.492, 618.612 746.697, 615.223 744.103, 611.813 741.675, 608.370 739.375, 604.883 737.169, 601.340 735.020, 597.731 729.988, 589.090 724.955, 580.448 719.922, 571.807 714.889, 563.166 709.856, 554.525 704.823, 545.884 699.790, 537.242 694.757, 528.601 689.724, 519.960 684.691, 511.319 679.658, 502.678 674.625, 494.037 669.593, 485.395 664.560, 476.754 659.527, 468.113 654.494, 459.472 650.702, 452.961 649.901, 451.506 649.254, 450.088 648.761, 448.714 648.420, 447.390 648.232, 446.120 648.197, 444.912 648.314, 443.769 648.583, 442.699 649.006, 441.708 649.581, 440.800 650.309, 439.982 651.191, 439.259 656.822, 435.122 662.415, 430.857 664.919, 428.898 " />
            <path fill="none" stroke-width="3.0" stroke-linecap="butt" stroke-opacity="1.0" stroke="rgb(0, 0, 0)" stroke-linejoin="miter" d=" M 516.654, 650.761 525.332, 645.793 534.011, 640.825 542.690, 635.857 551.368, 630.890 554.386, 629.163 " />
        </g>
    </g>
</svg>
