<?xml version='1.0' encoding='ascii'?>
<svg xmlns="http://www.w3.org/2000/svg" version="1.1" width="1080" height="1080">
    <g id="View Layer_LineSet" xmlns:inkscape="http://www.inkscape.org/namespaces/inkscape" inkscape:groupmode="lineset" inkscape:label="View Layer_LineSet">
        <g xmlns:inkscape="http://www.inkscape.org/namespaces/inkscape" inkscape:groupmode="layer" id="strokes" inkscape:label="strokes">
            <path fill="none" stroke-width="3.0" stroke-linecap="butt" stroke-opacity="1.0" stroke="rgb(0, 0, 0)" stroke-linejoin="miter" d=" M 501.332, 379.947 504.380, 378.869 508.031, 378.033 512.337, 377.400 517.355, 376.931 518.491, 376.768 519.543, 376.566 520.509, 376.309 521.386, 375.981 522.169, 375.566 522.857, 375.049 523.447, 374.413 523.934, 373.642 524.317, 372.720 524.592, 371.630 524.756, 370.358 524.768, 369.990 524.806, 368.887 524.751, 367.711 524.600, 366.608 524.356, 365.581 524.021, 364.629 523.598, 363.754 523.090, 362.957 522.499, 362.239 521.830, 361.600 521.084, 361.042 520.265, 360.566 519.375, 360.171 518.418, 359.859 514.022, 358.697 509.214, 357.489 504.090, 356.248 498.746, 354.986 493.275, 353.715 487.769, 352.446 482.317, 351.191 477.006, 349.960 471.923, 348.764 467.152, 347.612 462.774, 346.516 458.870, 345.483 454.953, 344.364 450.709, 343.074 446.204, 341.648 441.503, 340.120 436.670, 338.525 431.768, 336.897 426.860, 335.267 422.005, 333.671 417.264, 332.138 412.695, 330.701 408.357, 329.393 404.305, 328.242 403.589, 328.103 402.863, 328.071 402.142, 328.146 401.440, 328.325 400.773, 328.609 400.155, 328.996 399.599, 329.486 399.121, 330.077 398.735, 330.768 398.454, 331.559 398.293, 332.449 398.267, 333.437 398.376, 334.785 398.581, 336.065 398.879, 337.279 399.268, 338.428 399.745, 339.513 400.309, 340.536 400.956, 341.496 401.685, 342.397 402.493, 343.238 403.379, 344.021 404.341, 344.747 405.375, 345.416 409.816, 348.037 413.717, 350.560 417.108, 353.040 420.019, 355.535 422.480, 358.100 424.525, 360.793 426.187, 363.672 427.499, 366.791 428.496, 370.208 429.213, 373.979 429.684, 378.157 429.947, 382.797 430.293, 392.791 430.640, 402.785 430.986, 412.779 431.333, 422.773 431.680, 432.767 432.026, 442.761 432.373, 452.755 432.719, 462.749 433.066, 472.743 433.412, 482.737 433.759, 492.731 434.106, 502.725 434.452, 512.719 434.799, 522.713 435.145, 532.707 435.492, 542.701 435.838, 552.695 436.185, 562.689 436.532, 572.683 436.670, 576.661 436.734, 580.502 436.730, 580.613 436.619, 583.823 436.288, 586.649 435.703, 589.003 434.831, 590.910 433.633, 592.392 432.076, 593.473 " />
            <path fill="none" stroke-width="3.0" stroke-linecap="butt" stroke-opacity="1.0" stroke="rgb(0, 0, 0)" stroke-linejoin="miter" d=" M 625.685, 434.494 630.056, 432.439 634.661, 430.554 639.528, 428.866 644.684, 427.403 650.157, 426.193 655.975, 425.264 662.168, 424.646 668.449, 424.382 668.765, 424.369 675.798, 424.462 683.297, 424.956 691.295, 425.883 692.748, 425.988 694.285, 426.023 695.868, 425.973 697.459, 425.821 699.019, 425.551 700.511, 425.145 701.894, 424.588 703.130, 423.863 704.180, 422.953 705.005, 421.841 705.564, 420.511 705.819, 418.947 705.752, 417.666 705.429, 416.424 704.875, 415.228 704.116, 414.085 703.174, 413.002 702.076, 411.987 700.847, 411.045 699.510, 410.185 698.091, 409.413 696.615, 408.735 695.106, 408.159 693.588, 407.689 690.749, 406.924 684.331, 405.192 683.514, 404.977 675.597, 402.893 667.312, 400.758 659.403, 398.758 651.799, 396.861 644.431, 395.039 637.233, 393.261 630.140, 391.501 623.088, 389.729 616.015, 387.918 608.860, 386.043 601.565, 384.076 598.466, 383.227 588.821, 380.587 579.176, 377.947 571.178, 375.757 570.331, 375.586 569.466, 375.530 568.601, 375.587 567.754, 375.757 566.941, 376.039 566.179, 376.433 565.487, 376.938 564.881, 377.554 564.378, 378.279 563.996, 379.115 563.750, 380.059 563.659, 381.112 563.708, 382.553 563.875, 383.925 564.157, 385.229 564.551, 386.466 565.055, 387.638 565.665, 388.747 566.379, 389.792 567.194, 390.775 568.107, 391.698 569.117, 392.561 570.219, 393.365 571.413, 394.112 574.477, 395.879 577.271, 397.652 579.796, 399.429 582.049, 401.208 584.032, 402.987 585.744, 404.763 587.185, 406.535 588.357, 408.301 589.260, 410.058 589.896, 411.804 590.265, 413.537 590.369, 415.256 590.283, 416.346 590.064, 417.419 589.719, 418.478 589.258, 419.527 588.686, 420.570 588.011, 421.610 587.241, 422.650 586.384, 423.696 585.447, 424.749 584.437, 425.814 583.363, 426.894 582.231, 427.994 575.004, 434.906 567.777, 441.817 560.550, 448.729 553.323, 455.641 546.096, 462.553 538.869, 469.464 538.092, 470.208 530.865, 477.119 523.638, 484.031 516.411, 490.943 509.184, 497.854 506.988, 499.956 506.009, 500.580 505.101, 501.168 504.255, 501.712 503.465, 502.206 502.721, 502.642 502.015, 503.013 " />
            <path fill="none" stroke-width="3.0" stroke-linecap="butt" stroke-opacity="1.0" stroke="rgb(0, 0, 0)" stroke-linejoin="miter" d=" M 502.015, 503.013 501.340, 503.312 500.688, 503.531 500.050, 503.665 499.420, 503.705 498.789, 503.645 498.149, 503.478 497.602, 503.252 497.076, 502.956 496.574, 502.586 496.102, 502.141 495.664, 501.617 495.266, 501.012 494.913, 500.322 494.609, 499.545 494.361, 498.678 494.171, 497.717 494.047, 496.660 493.992, 495.504 493.842, 485.505 493.691, 475.506 493.541, 465.507 493.391, 455.508 493.240, 445.510 493.090, 435.511 492.940, 425.512 492.790, 415.513 492.639, 405.514 492.584, 401.852 492.605, 397.472 492.838, 393.635 493.331, 390.304 494.129, 387.443 495.280, 385.014 496.832, 382.981 498.832, 381.305 501.332, 379.947 " />
            <path fill="none" stroke-width="3.0" stroke-linecap="butt" stroke-opacity="1.0" stroke="rgb(0, 0, 0)" stroke-linejoin="miter" d=" M 569.011, 636.670 560.598, 642.076 552.185, 647.481 549.182, 649.411 548.529, 649.850 547.970, 650.403 547.507, 651.072 547.142, 651.859 546.877, 652.768 546.716, 653.800 546.659, 654.958 546.732, 655.878 546.943, 656.799 547.278, 657.712 547.721, 658.605 548.256, 659.469 548.869, 660.292 549.544, 661.066 550.266, 661.778 551.020, 662.418 551.790, 662.977 552.560, 663.442 553.316, 663.804 557.636, 665.547 561.872, 667.185 566.048, 668.740 570.186, 670.236 574.310, 671.697 578.443, 673.146 582.608, 674.608 586.830, 676.106 591.134, 677.666 595.543, 679.311 600.083, 681.068 604.779, 682.961 611.027, 685.592 617.276, 688.325 623.529, 691.143 629.785, 694.025 636.047, 696.952 642.316, 699.905 648.594, 702.864 654.883, 705.808 661.186, 708.719 667.505, 711.575 673.843, 714.356 680.202, 717.043 682.916, 718.094 685.414, 718.920 687.693, 719.530 689.752, 719.930 691.585, 720.127 693.191, 720.131 694.567, 719.947 695.709, 719.585 696.615, 719.052 697.282, 718.355 697.708, 717.504 697.890, 716.507 697.801, 715.129 697.405, 713.776 696.742, 712.450 695.850, 711.154 694.769, 709.890 693.539, 708.662 692.200, 707.472 690.791, 706.322 689.350, 705.215 687.918, 704.153 686.532, 703.137 685.233, 702.171 680.072, 698.379 675.368, 694.653 671.078, 690.979 667.160, 687.341 663.573, 683.725 660.275, 680.118 657.228, 676.505 654.392, 672.874 651.729, 669.210 649.200, 665.501 646.767, 661.735 644.393, 657.898 639.208, 649.348 634.023, 640.797 628.838, 632.246 623.653, 623.695 618.490, 615.182 613.994, 607.767 608.809, 599.216 607.370, 596.843 602.185, 588.292 597.000, 579.741 591.815, 571.191 586.630, 562.640 581.445, 554.089 576.260, 545.538 571.075, 536.987 565.890, 528.437 560.705, 519.886 555.520, 511.335 550.914, 503.739 550.022, 502.187 549.293, 500.676 548.727, 499.214 548.323, 497.806 548.082, 496.458 548.004, 495.176 548.089, 493.966 548.337, 492.835 548.748, 491.788 549.323, 490.832 549.539, 490.581 550.062, 489.973 550.966, 489.218 556.759, 484.897 562.510, 480.439 568.235, 475.879 573.952, 471.256 579.677, 466.607 585.429, 461.971 591.226, 457.387 592.250, 456.602 597.085, 452.896 600.563, 450.345 603.026, 448.539 609.066, 444.357 615.226, 440.393 621.524, 436.692 625.685, 434.494 " />
            <path fill="none" stroke-width="3.0" stroke-linecap="butt" stroke-opacity="1.0" stroke="rgb(0, 0, 0)" stroke-linejoin="miter" d=" M 436.730, 580.613 427.949, 585.397 419.168, 590.181 411.806, 594.192 411.202, 594.676 410.713, 595.279 410.341, 596.003 410.087, 596.849 409.953, 597.821 409.942, 598.920 410.084, 599.834 410.419, 600.814 410.924, 601.840 411.575, 602.890 412.351, 603.944 413.227, 604.981 414.182, 605.978 415.192, 606.916 416.235, 607.773 417.288, 608.527 418.327, 609.157 419.331, 609.641 424.715, 611.791 429.655, 613.625 434.202, 615.188 438.404, 616.528 442.312, 617.691 445.980, 618.725 449.459, 619.680 452.803, 620.605 456.067, 621.549 459.306, 622.563 462.576, 623.696 465.933, 625.001 469.285, 626.442 472.693, 628.014 476.184, 629.709 479.784, 631.516 483.523, 633.424 487.429, 635.424 491.532, 637.507 495.861, 639.663 500.447, 641.882 505.321, 644.155 510.517, 646.474 516.068, 648.829 517.245, 649.258 518.432, 649.579 519.607, 649.790 520.749, 649.886 521.837, 649.865 522.849, 649.723 523.765, 649.457 524.561, 649.062 525.218, 648.537 525.712, 647.876 526.023, 647.078 526.128, 646.139 526.026, 644.859 525.747, 643.644 525.306, 642.489 524.722, 641.389 524.012, 640.339 523.195, 639.335 522.288, 638.369 521.309, 637.438 520.275, 636.535 519.204, 635.656 518.115, 634.795 517.024, 633.946 512.685, 630.692 509.032, 627.730 505.998, 624.995 503.520, 622.418 501.534, 619.935 499.977, 617.480 498.789, 614.987 497.909, 612.393 497.277, 609.631 496.832, 606.636 496.516, 603.343 496.267, 599.687 495.930, 593.439 495.632, 587.197 495.371, 580.956 495.143, 574.711 494.944, 568.459 494.770, 562.193 494.691, 558.913 494.618, 555.911 494.485, 549.607 494.476, 549.151 494.366, 543.275 494.257, 536.913 494.156, 530.515 494.058, 524.075 494.078, 522.957 494.171, 521.970 494.331, 521.110 494.555, 520.375 494.835, 519.761 495.169, 519.265 495.550, 518.884 495.973, 518.615 496.434, 518.455 496.927, 518.400 497.448, 518.447 497.990, 518.593 498.642, 518.869 499.311, 519.242 499.997, 519.714 500.700, 520.286 501.419, 520.960 502.156, 521.738 502.910, 522.621 503.680, 523.611 504.467, 524.708 505.271, 525.915 506.092, 527.233 506.929, 528.664 511.965, 537.303 512.993, 539.067 517.290, 546.439 521.859, 554.276 526.895, 562.916 531.931, 571.555 536.967, 580.195 542.003, 588.834 547.039, 597.473 552.075, 606.113 557.111, 614.752 562.148, 623.391 562.987, 624.831 564.118, 626.772 565.115, 628.514 566.031, 630.191 566.866, 631.804 567.617, 633.353 568.283, 634.838 568.864, 636.262 569.011, 636.670 569.357, 637.625 569.761, 638.927 570.075, 640.170 570.298, 641.354 570.429, 642.480 570.465, 643.549 570.260, 644.798 569.858, 645.913 569.254, 646.891 568.441, 647.727 567.414, 648.416 " />
            <path fill="none" stroke-width="3.0" stroke-linecap="butt" stroke-opacity="1.0" stroke="rgb(0, 0, 0)" stroke-linejoin="miter" d=" M 432.076, 593.473 430.125, 594.175 427.746, 594.522 424.905, 594.538 421.570, 594.244 417.711, 593.665 416.465, 593.480 415.321, 593.402 414.281, 593.432 413.347, 593.572 412.521, 593.825 411.806, 594.192 " />
            <path fill="none" stroke-width="3.0" stroke-linecap="butt" stroke-opacity="1.0" stroke="rgb(0, 0, 0)" stroke-linejoin="miter" d=" M 567.414, 648.416 566.167, 648.956 564.694, 649.343 562.990, 649.572 561.050, 649.641 558.868, 649.545 556.439, 649.281 553.760, 648.846 552.676, 648.749 551.675, 648.755 550.757, 648.866 549.925, 649.084 549.182, 649.411 " />
            <path fill="none" stroke-width="3.0" stroke-linecap="butt" stroke-opacity="1.0" stroke="rgb(0, 0, 0)" stroke-linejoin="miter" d=" M 521.386, 375.981 530.578, 372.045 538.029, 368.854 547.222, 364.918 556.415, 360.982 565.608, 357.046 574.800, 353.110 583.993, 349.173 593.186, 345.237 600.884, 341.941 610.077, 338.005 619.270, 334.068 628.003, 330.329 628.782, 329.922 629.471, 329.422 630.067, 328.813 630.567, 328.081 630.970, 327.210 631.273, 326.185 631.473, 324.992 631.568, 323.616 631.551, 322.518 631.438, 321.492 631.231, 320.538 630.933, 319.656 630.547, 318.849 630.075, 318.116 629.521, 317.459 628.886, 316.878 628.175, 316.375 627.389, 315.948 626.532, 315.600 625.606, 315.331 621.345, 314.348 616.680, 313.331 611.706, 312.290 606.515, 311.235 601.197, 310.173 595.843, 309.113 590.539, 308.065 585.371, 307.036 580.423, 306.034 575.777, 305.066 571.514, 304.140 567.714, 303.263 563.902, 302.304 559.773, 301.192 555.391, 299.959 550.818, 298.635 546.116, 297.251 541.345, 295.836 536.566, 294.420 531.838, 293.033 527.217, 291.702 522.762, 290.458 518.527, 289.328 514.570, 288.339 513.867, 288.225 513.152, 288.211 512.438, 288.297 511.740, 288.481 502.335, 291.878 492.929, 295.276 483.524, 298.673 474.119, 302.071 464.714, 305.468 455.309, 308.866 445.904, 312.263 436.499, 315.661 427.093, 319.058 417.688, 322.456 408.283, 325.853 401.440, 328.325 " />
            <path fill="none" stroke-width="3.0" stroke-linecap="butt" stroke-opacity="1.0" stroke="rgb(0, 0, 0)" stroke-linejoin="miter" d=" M 701.894, 424.588 710.711, 419.871 719.529, 415.154 728.346, 410.436 737.163, 405.719 745.981, 401.001 754.798, 396.284 763.616, 391.566 772.433, 386.849 781.250, 382.131 790.068, 377.414 798.885, 372.697 801.766, 371.155 802.976, 370.449 804.011, 369.576 804.835, 368.522 805.409, 367.272 805.695, 365.812 805.665, 364.624 805.387, 363.478 804.886, 362.381 804.185, 361.338 803.308, 360.356 802.278, 359.441 801.119, 358.597 799.854, 357.832 798.508, 357.150 797.104, 356.557 795.666, 356.059 794.217, 355.661 785.361, 353.572 776.999, 351.651 769.060, 349.872 761.475, 348.207 754.178, 346.630 747.104, 345.116 740.189, 343.638 733.370, 342.173 726.588, 340.695 719.783, 339.181 712.897, 337.608 705.874, 335.951 696.150, 333.619 686.426, 331.287 676.581, 328.926 675.762, 328.787 674.922, 328.755 674.078, 328.829 673.248, 329.008 672.448, 329.291 663.305, 333.342 654.162, 337.393 645.020, 341.444 635.877, 345.495 626.734, 349.546 617.591, 353.597 608.449, 357.648 598.859, 361.897 589.716, 365.948 580.574, 369.999 571.431, 374.050 566.941, 376.039 " />
            <path fill="none" stroke-width="3.0" stroke-linecap="butt" stroke-opacity="1.0" stroke="rgb(0, 0, 0)" stroke-linejoin="miter" d=" M 598.859, 361.897 598.981, 355.256 599.142, 351.150 599.494, 347.549 600.083, 344.416 600.884, 341.941 " />
            <path fill="none" stroke-width="3.0" stroke-linecap="butt" stroke-opacity="1.0" stroke="rgb(0, 0, 0)" stroke-linejoin="miter" d=" M 696.615, 719.052 704.495, 712.895 712.375, 706.738 720.254, 700.580 728.134, 694.423 736.014, 688.266 743.894, 682.109 751.773, 675.952 759.653, 669.795 767.533, 663.638 775.413, 657.481 783.292, 651.324 788.718, 647.084 789.385, 646.402 789.822, 645.583 790.026, 644.635 789.977, 643.339 789.629, 642.078 789.021, 640.852 788.190, 639.663 787.175, 638.512 786.015, 637.401 784.746, 636.329 783.409, 635.298 782.040, 634.308 780.678, 633.360 779.360, 632.454 778.123, 631.591 773.212, 628.208 768.742, 624.869 764.672, 621.563 760.962, 618.277 757.573, 614.999 754.465, 611.718 751.601, 608.422 748.942, 605.100 746.453, 601.741 744.095, 598.335 741.832, 594.871 739.629, 591.339 734.419, 582.803 729.209, 574.268 724.000, 565.732 718.790, 557.196 713.581, 548.660 708.371, 540.124 703.161, 531.589 697.952, 523.053 692.742, 514.517 687.533, 505.981 682.323, 497.445 677.113, 488.909 671.904, 480.374 666.694, 471.838 661.485, 463.302 656.275, 454.766 652.929, 449.284 652.104, 447.852 651.437, 446.454 650.928, 445.096 650.576, 443.785 650.382, 442.526 650.345, 441.324 650.465, 440.185 650.742, 439.115 651.177, 438.120 651.769, 437.206 652.518, 436.378 653.425, 435.643 659.221, 431.421 664.975, 427.074 668.449, 424.382 " />
            <path fill="none" stroke-width="3.0" stroke-linecap="butt" stroke-opacity="1.0" stroke="rgb(0, 0, 0)" stroke-linejoin="miter" d=" M 524.561, 649.062 533.020, 643.728 541.478, 638.394 549.937, 633.060 558.396, 627.726 562.987, 624.831 " />
        </g>
    </g>
</svg>
