<?xml version='1.0' encoding='ascii'?>
<svg xmlns="http://www.w3.org/2000/svg" version="1.1" width="1080" height="1080">
    <g id="View Layer_LineSet" xmlns:inkscape="http://www.inkscape.org/namespaces/inkscape" inkscape:groupmode="lineset" inkscape:label="View Layer_LineSet">
        <g xmlns:inkscape="http://www.inkscape.org/namespaces/inkscape" inkscape:groupmode="layer" id="strokes" inkscape:label="strokes">
            <path fill="none" stroke-width="3.0" stroke-linecap="butt" stroke-opacity="1.0" stroke="rgb(0, 0, 0)" stroke-linejoin="miter" d=" M 516.840, 377.694 520.139, 376.507 524.085, 375.540 528.735, 374.751 534.149, 374.099 534.387, 374.060 535.375, 373.896 536.510, 373.656 537.553, 373.365 538.499, 373.006 539.346, 372.565 540.090, 372.024 540.729, 371.369 541.258, 370.584 541.676, 369.652 541.978, 368.557 542.163, 367.284 542.225, 365.817 542.173, 364.648 542.147, 364.467 542.017, 363.556 541.760, 362.541 541.404, 361.605 540.954, 360.749 540.411, 359.974 539.779, 359.280 539.062, 358.667 538.261, 358.138 537.381, 357.692 536.425, 357.331 535.395, 357.054 530.663, 356.052 525.482, 355.018 519.959, 353.962 514.193, 352.892 508.287, 351.817 502.338, 350.744 496.444, 349.683 490.700, 348.640 485.197, 347.623 480.029, 346.639 475.285, 345.696 471.053, 344.800 466.804, 343.817 462.200, 342.674 457.309, 341.403 452.204, 340.037 446.952, 338.607 441.622, 337.145 436.281, 335.682 430.996, 334.248 425.831, 332.874 420.851, 331.590 416.118, 330.425 411.696, 329.409 410.914, 329.293 410.120, 329.286 409.331, 329.385 408.563, 329.589 407.831, 329.897 407.152, 330.306 406.541, 330.817 406.015, 331.426 405.587, 332.133 405.275, 332.937 405.094, 333.835 405.059, 334.827 405.171, 336.177 405.387, 337.454 405.706, 338.662 406.124, 339.802 406.639, 340.875 407.249, 341.881 407.952, 342.823 408.744, 343.701 409.623, 344.517 410.587, 345.271 411.634, 345.966 412.761, 346.601 417.599, 349.075 421.846, 351.467 425.533, 353.834 428.695, 356.231 431.366, 358.714 433.580, 361.340 435.375, 364.164 436.787, 367.242 437.853, 370.630 438.612, 374.381 439.101, 378.549 439.358, 383.189 439.675, 393.184 439.992, 403.179 440.309, 413.173 440.626, 423.168 440.943, 433.163 441.260, 443.158 441.577, 453.153 441.894, 463.148 442.211, 473.143 442.528, 483.138 442.845, 493.133 443.162, 503.128 443.479, 513.123 443.796, 523.118 444.113, 533.113 444.430, 543.108 444.747, 553.103 445.064, 563.098 445.381, 573.093 445.510, 577.149 445.521, 577.999 445.557, 580.995 445.412, 584.329 445.033, 587.178 444.382, 589.567 443.420, 591.522 442.106, 593.069 440.402, 594.231 " />
            <path fill="none" stroke-width="3.0" stroke-linecap="butt" stroke-opacity="1.0" stroke="rgb(0, 0, 0)" stroke-linejoin="miter" d=" M 632.075, 437.566 638.660, 433.392 645.386, 429.475 649.826, 427.135 654.485, 424.928 659.389, 422.882 664.568, 421.022 667.396, 420.171 670.049, 419.373 675.861, 417.964 682.034, 416.820 688.597, 415.969 695.580, 415.438 703.016, 415.257 710.936, 415.454 719.373, 416.058 720.906, 416.105 722.527, 416.081 724.196, 415.970 725.874, 415.759 727.520, 415.432 729.094, 414.975 730.555, 414.373 731.861, 413.611 732.972, 412.673 733.846, 411.547 734.442, 410.216 734.719, 408.665 734.655, 407.407 734.322, 406.196 733.746, 405.039 732.952, 403.942 731.966, 402.912 730.815, 401.953 729.524, 401.073 728.120, 400.276 726.629, 399.569 725.077, 398.957 723.489, 398.445 721.891, 398.040 712.136, 395.927 702.922, 393.986 701.750, 393.745 700.630, 393.515 694.172, 392.189 685.810, 390.509 677.764, 388.919 669.960, 387.391 662.329, 385.900 654.802, 384.421 647.313, 382.928 639.794, 381.396 632.183, 379.801 624.416, 378.120 614.650, 375.968 604.884, 373.816 598.666, 372.446 591.985, 370.974 591.079, 370.835 590.154, 370.811 589.227, 370.898 588.318, 371.098 587.446, 371.408 586.628, 371.827 585.883, 372.354 585.230, 372.987 584.687, 373.726 584.272, 374.570 584.004, 375.516 583.900, 376.566 583.944, 377.995 584.115, 379.352 584.410, 380.637 584.826, 381.852 585.358, 382.998 586.006, 384.076 586.765, 385.088 587.632, 386.034 588.606, 386.917 589.682, 387.736 590.858, 388.494 592.132, 389.190 595.403, 390.830 598.298, 392.438 598.383, 392.486 601.074, 394.155 603.474, 395.835 605.584, 397.525 607.404, 399.223 608.935, 400.926 610.177, 402.633 611.132, 404.341 611.801, 406.049 612.185, 407.754 612.287, 409.455 612.189, 410.540 611.949, 411.612 611.575, 412.676 611.075, 413.734 610.458, 414.791 609.732, 415.849 608.903, 416.911 607.981, 417.982 606.973, 419.064 605.888, 420.160 604.733, 421.274 603.516, 422.410 597.646, 427.809 590.285, 434.578 582.925, 441.347 575.565, 448.117 568.204, 454.886 560.844, 461.655 553.483, 468.425 546.123, 475.194 538.762, 481.964 534.584, 485.806 527.223, 492.576 522.258, 497.142 522.242, 497.157 " />
            <path fill="none" stroke-width="3.0" stroke-linecap="butt" stroke-opacity="1.0" stroke="rgb(0, 0, 0)" stroke-linejoin="miter" d=" M 522.258, 497.142 521.182, 497.823 520.198, 498.450 519.281, 499.031 518.424, 499.558 517.618, 500.026 516.853, 500.428 516.122, 500.756 515.416, 501.004 514.726, 501.166 514.045, 501.234 513.363, 501.203 512.672, 501.064 512.083, 500.863 511.515, 500.591 510.975, 500.245 510.467, 499.821 509.997, 499.318 509.570, 498.731 509.192, 498.059 508.868, 497.297 508.604, 496.442 508.405, 495.491 508.277, 494.442 508.224, 493.290 508.121, 483.290 508.017, 473.291 507.913, 463.291 507.809, 453.292 507.706, 443.292 507.602, 433.293 507.498, 423.294 507.394, 413.294 507.291, 403.295 507.255, 399.875 507.304, 395.503 507.579, 391.665 508.131, 388.323 509.011, 385.438 510.270, 382.972 511.959, 380.886 514.131, 379.140 516.840, 377.694 " />
            <path fill="none" stroke-width="3.0" stroke-linecap="butt" stroke-opacity="1.0" stroke="rgb(0, 0, 0)" stroke-linejoin="miter" d=" M 587.057, 627.798 579.236, 634.029 571.415, 640.260 566.116, 644.482 565.513, 645.062 565.011, 645.753 564.614, 646.556 564.324, 647.475 564.145, 648.511 564.077, 649.667 564.150, 650.579 564.372, 651.485 564.726, 652.375 565.197, 653.240 565.768, 654.071 566.422, 654.858 567.143, 655.591 567.914, 656.261 568.720, 656.857 569.544, 657.371 570.368, 657.793 571.178, 658.112 575.806, 659.612 580.342, 661.010 584.812, 662.329 589.239, 663.590 593.649, 664.817 598.066, 666.031 602.516, 667.255 607.024, 668.511 611.616, 669.824 616.319, 671.215 621.157, 672.708 626.159, 674.328 632.809, 676.592 639.454, 678.956 646.097, 681.401 652.738, 683.909 659.381, 686.458 666.025, 689.031 672.674, 691.607 679.330, 694.166 685.995, 696.689 692.672, 699.155 699.365, 701.545 706.075, 703.838 708.938, 704.722 711.573, 705.395 713.977, 705.867 716.149, 706.145 718.083, 706.236 719.779, 706.148 721.231, 705.889 722.439, 705.466 723.397, 704.889 724.105, 704.164 724.559, 703.300 724.756, 702.306 724.670, 700.953 724.259, 699.640 723.566, 698.369 722.633, 697.141 721.499, 695.955 720.208, 694.813 718.801, 693.714 717.320, 692.658 715.805, 691.646 714.298, 690.678 712.840, 689.753 711.473, 688.872 706.040, 685.415 701.086, 681.997 696.568, 678.605 692.440, 675.227 688.661, 671.851 685.187, 668.465 681.977, 665.060 678.991, 661.623 676.186, 658.143 673.524, 654.611 670.963, 651.016 668.463, 647.348 662.915, 639.028 657.367, 630.708 651.819, 622.388 646.271, 614.069 640.723, 605.749 637.453, 600.846 631.905, 592.526 631.705, 592.227 626.157, 583.907 623.640, 580.133 618.092, 571.813 612.544, 563.494 612.416, 563.302 606.868, 554.982 601.320, 546.662 596.588, 539.566 591.039, 531.246 585.491, 522.926 579.943, 514.607 574.395, 506.287 569.521, 498.979 568.572, 497.474 567.798, 496.003 567.198, 494.574 566.773, 493.191 566.522, 491.860 566.445, 490.588 566.543, 489.381 566.816, 488.245 567.264, 487.186 567.887, 486.210 568.686, 485.323 569.661, 484.533 575.904, 479.985 582.098, 475.306 588.261, 470.531 594.410, 465.697 596.626, 463.949 600.565, 460.840 606.743, 455.999 612.964, 451.211 619.246, 446.516 625.610, 441.955 632.075, 437.566 " />
            <path fill="none" stroke-width="3.0" stroke-linecap="butt" stroke-opacity="1.0" stroke="rgb(0, 0, 0)" stroke-linejoin="miter" d=" M 522.242, 497.157 521.182, 497.823 " />
            <path fill="none" stroke-width="3.0" stroke-linecap="butt" stroke-opacity="1.0" stroke="rgb(0, 0, 0)" stroke-linejoin="miter" d=" M 509.771, 516.559 510.231, 516.271 510.730, 516.090 511.264, 516.012 511.826, 516.036 512.411, 516.157 513.114, 516.402 513.835, 516.744 514.574, 517.184 515.330, 517.723 516.104, 518.363 516.895, 519.105 517.704, 519.952 518.531, 520.904 519.375, 521.963 520.236, 523.130 521.114, 524.407 522.010, 525.796 527.416, 534.209 528.017, 535.145 528.164, 535.374 533.569, 543.787 538.975, 552.201 542.294, 557.368 547.700, 565.781 553.105, 574.194 558.510, 582.607 563.915, 591.021 569.321, 599.434 574.726, 607.847 579.163, 614.753 582.984, 620.701 584.042, 622.381 585.015, 624.000 585.900, 625.560 586.696, 627.060 587.057, 627.798 587.402, 628.503 588.016, 629.888 588.537, 631.216 588.963, 632.490 589.293, 633.708 589.525, 634.873 589.658, 635.986 589.691, 637.046 589.464, 638.299 589.027, 639.429 588.374, 640.433 587.498, 641.307 " />
            <path fill="none" stroke-width="3.0" stroke-linecap="butt" stroke-opacity="1.0" stroke="rgb(0, 0, 0)" stroke-linejoin="miter" d=" M 445.521, 577.999 437.174, 583.507 428.827, 589.014 420.481, 594.522 418.267, 595.982 417.605, 596.499 417.067, 597.129 416.655, 597.874 416.372, 598.737 416.220, 599.720 416.201, 600.824 416.351, 601.734 416.711, 602.700 417.257, 603.704 417.962, 604.725 418.804, 605.744 419.755, 606.739 420.792, 607.691 421.891, 608.580 423.025, 609.386 424.171, 610.088 425.302, 610.667 426.395, 611.100 432.260, 612.979 437.639, 614.561 442.587, 615.892 447.158, 617.015 451.409, 617.977 455.395, 618.822 459.175, 619.597 462.808, 620.348 466.351, 621.123 469.865, 621.968 473.411, 622.931 477.048, 624.060 480.679, 625.326 484.367, 626.720 488.143, 628.230 492.035, 629.846 496.076, 631.556 500.294, 633.348 504.723, 635.212 509.394, 637.135 514.340, 639.106 519.595, 641.115 525.193, 643.151 531.170, 645.203 532.438, 645.568 533.716, 645.825 534.982, 645.972 536.213, 646.007 537.386, 645.927 538.478, 645.731 539.467, 645.416 540.328, 644.981 541.038, 644.421 541.575, 643.737 541.914, 642.924 542.033, 641.982 541.931, 640.712 541.637, 639.516 541.168, 638.388 540.545, 637.323 539.787, 636.314 538.912, 635.355 537.939, 634.441 536.889, 633.564 535.780, 632.719 534.630, 631.899 533.460, 631.098 532.288, 630.309 527.626, 627.291 523.699, 624.528 520.439, 621.957 517.776, 619.514 515.644, 617.139 513.976, 614.769 512.707, 612.342 511.771, 609.797 511.103, 607.071 510.640, 604.104 510.317, 600.833 510.070, 597.194 509.742, 590.973 509.457, 584.755 509.211, 578.536 509.001, 572.313 508.823, 566.079 508.672, 559.832 508.545, 553.567 508.460, 548.589 508.438, 547.279 508.346, 540.964 508.292, 536.659 508.267, 534.616 508.195, 528.233 508.127, 521.809 508.155, 520.692 508.261, 519.702 508.440, 518.836 508.686, 518.092 508.993, 517.466 509.357, 516.956 509.771, 516.559 " />
            <path fill="none" stroke-width="3.0" stroke-linecap="butt" stroke-opacity="1.0" stroke="rgb(0, 0, 0)" stroke-linejoin="miter" d=" M 587.498, 641.307 586.393, 642.047 585.053, 642.651 583.472, 643.114 581.643, 643.433 579.561, 643.604 577.220, 643.625 574.615, 643.492 571.741, 643.203 570.578, 643.165 569.502, 643.224 568.515, 643.383 567.620, 643.645 566.820, 644.010 566.116, 644.482 " />
            <path fill="none" stroke-width="3.0" stroke-linecap="butt" stroke-opacity="1.0" stroke="rgb(0, 0, 0)" stroke-linejoin="miter" d=" M 440.402, 594.231 438.270, 595.034 435.672, 595.503 432.572, 595.663 428.934, 595.538 424.723, 595.153 423.363, 595.031 422.114, 595.010 420.977, 595.093 419.956, 595.281 419.052, 595.577 418.267, 595.982 " />
            <path fill="none" stroke-width="3.0" stroke-linecap="butt" stroke-opacity="1.0" stroke="rgb(0, 0, 0)" stroke-linejoin="miter" d=" M 539.346, 372.565 548.186, 367.891 557.027, 363.217 565.867, 358.543 574.708, 353.869 583.548, 349.195 592.389, 344.521 600.071, 340.460 608.912, 335.786 617.752, 331.112 626.593, 326.438 630.501, 324.371 631.226, 323.853 631.853, 323.231 632.380, 322.489 632.803, 321.613 633.120, 320.589 633.330, 319.401 633.428, 318.035 633.409, 316.949 633.288, 315.936 633.069, 314.998 632.754, 314.135 632.346, 313.348 631.849, 312.637 631.264, 312.004 630.594, 311.449 629.844, 310.973 629.015, 310.576 628.111, 310.258 627.135, 310.022 622.641, 309.183 617.719, 308.324 612.466, 307.451 606.982, 306.568 601.360, 305.684 595.695, 304.802 590.081, 303.930 584.606, 303.071 579.362, 302.231 574.434, 301.416 569.910, 300.630 565.876, 299.877 561.826, 299.044 557.438, 298.068 552.778, 296.978 547.913, 295.804 542.907, 294.572 537.826, 293.311 532.732, 292.050 527.689, 290.814 522.758, 289.631 518.002, 288.528 513.479, 287.531 509.249, 286.667 508.498, 286.574 507.733, 286.582 506.970, 286.690 506.224, 286.895 505.510, 287.196 496.347, 291.201 487.184, 295.207 478.022, 299.212 468.859, 303.218 459.696, 307.224 450.534, 311.229 441.371, 315.235 432.208, 319.240 423.045, 323.246 413.883, 327.251 407.831, 329.897 " />
            <path fill="none" stroke-width="3.0" stroke-linecap="butt" stroke-opacity="1.0" stroke="rgb(0, 0, 0)" stroke-linejoin="miter" d=" M 731.861, 413.611 740.103, 407.947 748.345, 402.284 756.587, 396.621 764.829, 390.958 773.071, 385.295 781.313, 379.632 789.555, 373.969 797.797, 368.306 806.039, 362.643 812.163, 358.435 813.230, 357.544 814.078, 356.482 814.668, 355.237 814.961, 353.797 814.928, 352.634 814.640, 351.521 814.122, 350.463 813.397, 349.465 812.491, 348.532 811.427, 347.670 810.230, 346.883 808.924, 346.175 807.534, 345.552 806.085, 345.018 804.599, 344.579 803.102, 344.237 793.950, 342.486 785.299, 340.882 777.077, 339.401 769.216, 338.019 761.645, 336.713 754.299, 335.459 747.112, 334.235 740.020, 333.019 732.960, 331.789 725.870, 330.523 718.690, 329.200 711.360, 327.799 701.545, 325.885 691.730, 323.972 681.914, 322.058 680.720, 321.825 679.861, 321.715 678.981, 321.710 678.097, 321.811 677.227, 322.014 676.389, 322.320 675.600, 322.725 666.845, 327.557 658.090, 332.389 649.335, 337.221 640.579, 342.052 631.824, 346.884 623.069, 351.716 614.314, 356.548 605.558, 361.379 598.801, 365.108 590.046, 369.940 586.628, 371.827 " />
            <path fill="none" stroke-width="3.0" stroke-linecap="butt" stroke-opacity="1.0" stroke="rgb(0, 0, 0)" stroke-linejoin="miter" d=" M 598.801, 365.108 598.985, 355.110 599.071, 350.489 599.235, 346.410 599.603, 342.824 600.071, 340.460 " />
            <path fill="none" stroke-width="3.0" stroke-linecap="butt" stroke-opacity="1.0" stroke="rgb(0, 0, 0)" stroke-linejoin="miter" d=" M 723.397, 704.889 730.466, 697.815 737.534, 690.741 744.603, 683.668 751.671, 676.594 758.740, 669.520 765.808, 662.447 772.876, 655.373 779.945, 648.299 787.013, 641.225 794.082, 634.152 797.852, 630.378 798.541, 629.674 798.991, 628.848 799.200, 627.907 799.148, 626.637 798.786, 625.417 798.156, 624.245 797.295, 623.120 796.245, 622.042 795.043, 621.009 793.730, 620.021 792.345, 619.076 790.928, 618.173 789.517, 617.311 788.152, 616.488 786.871, 615.703 781.781, 612.626 777.146, 609.569 772.923, 606.522 769.072, 603.476 765.551, 600.421 762.320, 597.347 759.342, 594.246 756.577, 591.108 753.986, 587.924 751.531, 584.687 749.174, 581.387 746.878, 578.017 741.335, 569.694 735.792, 561.370 730.249, 553.047 724.706, 544.724 719.163, 536.401 713.620, 528.078 708.077, 519.754 702.534, 511.431 696.991, 503.108 691.448, 494.785 685.905, 486.461 680.362, 478.138 674.819, 469.815 669.277, 461.492 663.734, 453.169 658.191, 444.846 656.060, 441.647 655.191, 440.262 654.489, 438.906 653.952, 437.583 653.581, 436.300 653.375, 435.061 653.334, 433.874 653.459, 432.742 653.749, 431.673 654.204, 430.671 654.825, 429.743 655.612, 428.895 656.564, 428.132 662.646, 423.730 667.396, 420.171 " />
            <path fill="none" stroke-width="3.0" stroke-linecap="butt" stroke-opacity="1.0" stroke="rgb(0, 0, 0)" stroke-linejoin="miter" d=" M 540.328, 644.981 548.219, 638.838 556.110, 632.696 564.001, 626.554 571.893, 620.411 579.163, 614.753 " />
            <path fill="none" stroke-width="3.0" stroke-linecap="butt" stroke-opacity="1.0" stroke="rgb(0, 0, 0)" stroke-linejoin="miter" d=" M 597.646, 427.809 597.830, 417.810 598.014, 407.812 598.199, 397.814 598.298, 392.438 " />
        </g>
    </g>
</svg>
