<?xml version='1.0' encoding='ascii'?>
<svg xmlns="http://www.w3.org/2000/svg" version="1.1" width="1080" height="1080">
    <g id="View Layer_LineSet" xmlns:inkscape="http://www.inkscape.org/namespaces/inkscape" inkscape:groupmode="lineset" inkscape:label="View Layer_LineSet">
        <g xmlns:inkscape="http://www.inkscape.org/namespaces/inkscape" inkscape:groupmode="layer" id="strokes" inkscape:label="strokes">
            <path fill="none" stroke-width="3.0" stroke-linecap="butt" stroke-opacity="1.0" stroke="rgb(0, 0, 0)" stroke-linejoin="miter" d=" M 524.567, 377.304 527.403, 375.793 530.854, 374.525 531.362, 374.394 534.979, 373.460 539.837, 372.556 545.490, 371.770 546.769, 371.536 547.955, 371.268 549.043, 370.952 550.032, 370.571 550.916, 370.109 551.694, 369.552 552.363, 368.883 552.918, 368.087 553.357, 367.148 553.676, 366.050 553.873, 364.777 553.944, 363.314 553.893, 362.150 553.735, 361.065 553.470, 360.061 553.320, 359.683 553.103, 359.137 552.636, 358.295 552.073, 357.536 551.417, 356.860 550.670, 356.268 549.837, 355.760 548.921, 355.337 547.925, 355.000 546.852, 354.750 541.917, 353.867 536.514, 352.963 530.748, 352.045 524.728, 351.118 518.557, 350.189 512.339, 349.263 506.175, 348.346 500.164, 347.444 494.404, 346.562 488.991, 345.704 484.020, 344.876 479.585, 344.083 475.130, 343.202 470.301, 342.170 465.170, 341.017 459.811, 339.773 454.297, 338.469 448.698, 337.133 443.084, 335.795 437.527, 334.486 432.093, 333.232 426.851, 332.064 421.868, 331.009 417.210, 330.095 416.385, 329.998 415.548, 330.009 414.715, 330.127 413.904, 330.350 413.131, 330.675 412.414, 331.102 411.767, 331.627 411.209, 332.251 410.756, 332.969 410.423, 333.782 410.228, 334.687 410.188, 335.682 410.300, 337.032 410.524, 338.308 410.855, 339.511 411.292, 340.643 411.832, 341.706 412.472, 342.700 413.209, 343.627 414.041, 344.488 414.965, 345.284 415.979, 346.017 417.081, 346.687 418.267, 347.296 423.358, 349.657 427.824, 351.949 431.700, 354.229 435.021, 356.552 437.823, 358.972 440.145, 361.546 442.023, 364.328 443.497, 367.374 444.606, 370.738 445.390, 374.474 445.888, 378.634 446.142, 383.270 446.438, 393.266 446.733, 403.262 447.029, 413.257 447.325, 423.253 447.620, 433.249 447.916, 443.244 448.212, 453.240 448.507, 463.235 448.803, 473.231 449.099, 483.227 449.394, 493.222 449.690, 503.218 449.986, 513.214 450.281, 523.209 450.577, 533.205 450.873, 543.200 451.168, 553.196 451.464, 563.192 451.760, 573.187 451.819, 575.183 451.880, 577.251 451.915, 581.100 451.749, 584.443 451.341, 587.309 450.647, 589.724 449.627, 591.715 448.238, 593.309 " />
            <path fill="none" stroke-width="3.0" stroke-linecap="butt" stroke-opacity="1.0" stroke="rgb(0, 0, 0)" stroke-linejoin="miter" d=" M 620.704, 451.328 627.169, 446.393 633.588, 441.631 633.695, 441.551 640.301, 436.842 647.006, 432.305 653.832, 427.980 654.379, 427.660 660.798, 423.909 665.393, 421.465 670.212, 419.150 675.283, 416.988 680.633, 415.004 686.292, 413.222 692.288, 411.669 698.652, 410.371 705.413, 409.353 712.603, 408.641 720.251, 408.264 728.391, 408.248 737.055, 408.620 738.628, 408.626 740.292, 408.558 742.006, 408.405 743.729, 408.151 745.419, 407.784 747.035, 407.291 748.536, 406.657 749.878, 405.869 751.020, 404.913 751.921, 403.776 752.536, 402.445 752.825, 400.906 752.764, 399.664 752.427, 398.476 751.839, 397.348 751.029, 396.285 750.021, 395.292 748.844, 394.375 747.523, 393.538 746.085, 392.787 744.558, 392.127 742.967, 391.562 741.339, 391.097 739.700, 390.738 729.865, 388.932 729.689, 388.900 720.226, 387.217 711.232, 385.664 702.631, 384.215 694.348, 382.846 686.309, 381.532 678.443, 380.249 670.680, 378.974 662.950, 377.684 655.185, 376.355 647.319, 374.965 639.287, 373.491 629.458, 371.652 619.628, 369.813 609.799, 367.974 605.694, 367.206 604.754, 367.091 603.793, 367.089 602.830, 367.200 601.886, 367.421 600.978, 367.751 600.127, 368.188 599.352, 368.730 598.671, 369.377 598.105, 370.125 597.875, 370.575 597.671, 370.975 597.388, 371.923 597.277, 372.970 597.318, 374.390 597.491, 375.736 597.760, 376.871 597.793, 377.006 598.220, 378.204 598.769, 379.330 599.438, 380.385 600.223, 381.372 601.120, 382.291 602.128, 383.144 603.243, 383.931 604.461, 384.654 605.781, 385.314 609.170, 386.860 612.257, 388.429 615.043, 390.018 617.526, 391.625 619.708, 393.250 621.589, 394.889 623.170, 396.541 624.452, 398.204 625.436, 399.876 626.123, 401.555 626.516, 403.239 626.615, 404.927 626.509, 406.007 626.257, 407.079 625.866, 408.145 625.344, 409.211 624.701, 410.277 623.944, 411.347 623.081, 412.425 622.122, 413.514 621.073, 414.616 619.944, 415.735 618.742, 416.874 617.476, 418.036 610.060, 424.744 602.645, 431.453 596.938, 436.617 589.522, 443.326 582.106, 450.034 574.691, 456.743 567.275, 463.452 559.860, 470.161 552.444, 476.870 545.028, 483.579 537.613, 490.288 532.610, 494.813 " />
            <path fill="none" stroke-width="3.0" stroke-linecap="butt" stroke-opacity="1.0" stroke="rgb(0, 0, 0)" stroke-linejoin="miter" d=" M 532.610, 494.813 531.500, 495.511 530.469, 496.166 529.510, 496.774 528.612, 497.327 527.768, 497.818 526.967, 498.242 526.202, 498.592 525.463, 498.862 524.741, 499.045 524.029, 499.134 523.316, 499.123 522.594, 499.006 521.979, 498.824 521.386, 498.570 520.823, 498.241 520.293, 497.834 519.803, 497.346 519.359, 496.774 518.966, 496.114 518.631, 495.363 518.357, 494.518 518.153, 493.575 518.022, 492.531 517.972, 491.383 517.900, 481.383 517.828, 471.384 517.756, 461.384 517.684, 451.384 517.612, 441.384 517.540, 431.385 517.469, 421.385 517.397, 411.385 517.325, 401.385 517.302, 398.173 517.368, 393.809 517.670, 389.971 518.260, 386.621 519.191, 383.720 520.516, 381.227 522.290, 379.102 524.567, 377.304 " />
            <path fill="none" stroke-width="3.0" stroke-linecap="butt" stroke-opacity="1.0" stroke="rgb(0, 0, 0)" stroke-linejoin="miter" d=" M 582.089, 480.796 588.598, 476.083 595.053, 471.243 595.670, 470.770 601.473, 466.312 607.875, 461.325 614.279, 456.317 620.704, 451.328 " />
            <path fill="none" stroke-width="3.0" stroke-linecap="butt" stroke-opacity="1.0" stroke="rgb(0, 0, 0)" stroke-linejoin="miter" d=" M 598.513, 620.708 591.233, 627.564 583.954, 634.421 577.827, 640.191 577.196, 640.791 576.672, 641.498 576.255, 642.313 575.951, 643.239 575.760, 644.278 575.686, 645.432 575.758, 646.338 575.986, 647.232 576.352, 648.106 576.839, 648.950 577.429, 649.756 578.107, 650.516 578.855, 651.219 579.656, 651.857 580.492, 652.421 581.347, 652.902 582.204, 653.291 583.046, 653.579 587.854, 654.898 592.566, 656.120 597.207, 657.264 601.803, 658.353 606.379, 659.407 610.960, 660.448 615.574, 661.498 620.246, 662.577 625.004, 663.708 629.873, 664.912 634.882, 666.213 640.057, 667.632 646.932, 669.628 653.799, 671.722 660.659, 673.896 667.514, 676.130 674.366, 678.405 681.215, 680.702 688.066, 683.000 694.920, 685.280 701.779, 687.522 708.647, 689.707 715.527, 691.813 722.423, 693.822 725.363, 694.585 728.069, 695.149 730.539, 695.523 732.769, 695.712 734.757, 695.727 736.498, 695.573 737.991, 695.260 739.233, 694.795 740.219, 694.186 740.948, 693.441 741.417, 692.569 741.623, 691.578 741.539, 690.242 741.122, 688.959 740.415, 687.729 739.460, 686.549 738.300, 685.420 736.978, 684.339 735.536, 683.306 734.018, 682.319 732.465, 681.376 730.920, 680.475 729.425, 679.616 728.022, 678.796 722.448, 675.582 717.365, 672.386 712.727, 669.198 708.490, 666.008 704.609, 662.806 701.043, 659.583 697.747, 656.328 694.681, 653.033 691.802, 649.688 689.069, 646.285 686.440, 642.815 683.874, 639.269 678.097, 631.107 672.320, 622.945 666.543, 614.782 660.766, 606.620 654.989, 598.457 649.211, 590.295 648.670, 589.530 642.892, 581.367 641.849, 579.893 636.072, 571.730 630.295, 563.568 624.517, 555.406 618.740, 547.243 612.963, 539.081 607.186, 530.919 601.409, 522.756 595.381, 514.239 589.604, 506.077 583.826, 497.914 581.892, 495.181 580.910, 493.712 580.110, 492.272 579.491, 490.867 579.053, 489.502 578.797, 488.185 578.721, 486.921 578.828, 485.716 579.116, 484.577 579.586, 483.509 580.237, 482.518 581.072, 481.612 582.089, 480.796 " />
            <path fill="none" stroke-width="3.0" stroke-linecap="butt" stroke-opacity="1.0" stroke="rgb(0, 0, 0)" stroke-linejoin="miter" d=" M 519.504, 514.562 519.986, 514.260 520.508, 514.064 521.067, 513.970 521.654, 513.976 522.266, 514.078 523.000, 514.301 523.753, 514.619 524.523, 515.035 525.312, 515.549 526.118, 516.163 526.943, 516.879 527.785, 517.698 528.645, 518.622 529.523, 519.652 530.419, 520.789 531.332, 522.036 531.492, 522.268 532.263, 523.392 537.904, 531.650 543.545, 539.907 549.185, 548.164 554.826, 556.421 555.271, 557.073 560.911, 565.330 566.552, 573.587 572.193, 581.845 577.833, 590.102 583.474, 598.359 589.182, 606.715 594.822, 614.972 595.456, 615.899 596.550, 617.533 597.555, 619.110 598.469, 620.630 598.513, 620.708 599.291, 622.095 600.019, 623.504 600.652, 624.860 601.188, 626.164 601.626, 627.415 601.965, 628.616 602.202, 629.766 602.336, 630.868 602.367, 631.923 602.126, 633.177 601.668, 634.318 600.986, 635.341 600.073, 636.243 " />
            <path fill="none" stroke-width="3.0" stroke-linecap="butt" stroke-opacity="1.0" stroke="rgb(0, 0, 0)" stroke-linejoin="miter" d=" M 451.819, 575.183 443.867, 581.247 435.915, 587.310 427.963, 593.374 423.119, 597.067 422.419, 597.608 421.849, 598.259 421.412, 599.021 421.110, 599.896 420.946, 600.886 420.922, 601.994 421.077, 602.901 421.453, 603.857 422.024, 604.844 422.764, 605.843 423.647, 606.833 424.647, 607.797 425.737, 608.715 426.891, 609.566 428.083, 610.333 429.288, 610.996 430.478, 611.535 431.628, 611.930 437.799, 613.601 443.457, 614.993 448.659, 616.147 453.463, 617.107 457.929, 617.917 462.116, 618.618 466.085, 619.257 469.898, 619.877 473.616, 620.524 477.303, 621.242 481.020, 622.076 484.832, 623.073 488.635, 624.207 492.497, 625.466 496.449, 626.838 500.521, 628.311 504.747, 629.872 509.158, 631.508 513.786, 633.207 518.666, 634.955 523.832, 636.742 529.317, 638.553 535.159, 640.378 541.393, 642.204 542.716, 642.521 544.049, 642.729 545.370, 642.829 546.655, 642.818 547.879, 642.696 549.020, 642.460 550.052, 642.109 550.952, 641.642 551.695, 641.058 552.257, 640.356 552.614, 639.533 552.741, 638.590 552.640, 637.326 552.337, 636.145 551.853, 635.037 551.207, 633.998 550.419, 633.020 549.509, 632.096 548.498, 631.220 547.405, 630.384 546.251, 629.582 545.054, 628.805 543.836, 628.049 542.616, 627.304 537.758, 624.463 533.667, 621.849 530.269, 619.401 527.496, 617.059 525.276, 614.765 523.541, 612.458 522.222, 610.081 521.252, 607.573 520.564, 604.876 520.091, 601.930 519.765, 598.675 519.520, 595.051 519.200, 588.851 518.924, 582.653 518.690, 576.453 518.493, 570.246 518.330, 564.029 518.195, 557.797 518.085, 551.547 517.996, 545.272 517.926, 539.127 517.924, 538.971 517.881, 534.433 517.864, 532.637 517.812, 526.267 517.765, 519.856 517.798, 518.740 517.913, 517.748 518.103, 516.878 518.363, 516.127 518.687, 515.493 519.069, 514.972 519.504, 514.562 " />
            <path fill="none" stroke-width="3.0" stroke-linecap="butt" stroke-opacity="1.0" stroke="rgb(0, 0, 0)" stroke-linejoin="miter" d=" M 448.238, 593.309 446.441, 594.533 444.194, 595.413 441.458, 595.974 438.193, 596.243 434.362, 596.246 429.927, 596.008 428.495, 595.934 427.178, 595.957 425.979, 596.080 424.902, 596.305 423.948, 596.633 423.119, 597.067 " />
            <path fill="none" stroke-width="3.0" stroke-linecap="butt" stroke-opacity="1.0" stroke="rgb(0, 0, 0)" stroke-linejoin="miter" d=" M 600.073, 636.243 598.923, 637.020 597.528, 637.670 595.883, 638.189 593.981, 638.574 591.816, 638.821 589.382, 638.928 586.674, 638.892 583.684, 638.710 582.475, 638.715 581.355, 638.814 580.327, 639.009 579.395, 639.302 578.561, 639.695 577.827, 640.191 " />
            <path fill="none" stroke-width="3.0" stroke-linecap="butt" stroke-opacity="1.0" stroke="rgb(0, 0, 0)" stroke-linejoin="miter" d=" M 550.916, 370.109 559.406, 364.824 567.895, 359.539 576.384, 354.254 584.874, 348.969 593.363, 343.684 598.757, 340.326 607.246, 335.041 615.735, 329.756 624.225, 324.471 630.679, 320.453 631.425, 319.922 632.070, 319.289 632.611, 318.541 633.046, 317.661 633.372, 316.637 633.586, 315.453 633.686, 314.094 633.665, 313.016 633.540, 312.013 633.313, 311.086 632.988, 310.236 632.568, 309.463 632.055, 308.769 631.452, 308.153 630.762, 307.617 629.989, 307.160 629.136, 306.784 628.205, 306.489 627.199, 306.275 622.569, 305.542 617.496, 304.797 612.081, 304.045 606.423, 303.289 600.621, 302.533 594.773, 301.780 588.972, 301.035 583.315, 300.301 577.892, 299.580 572.794, 298.876 568.113, 298.192 563.936, 297.531 559.742, 296.789 555.196, 295.912 550.366, 294.928 545.321, 293.863 540.128, 292.743 534.855, 291.596 529.566, 290.448 524.328, 289.323 519.205, 288.249 514.260, 287.250 509.556, 286.352 505.156, 285.580 504.374, 285.503 503.579, 285.528 502.785, 285.651 502.008, 285.872 501.265, 286.188 492.338, 290.694 483.411, 295.200 474.484, 299.706 465.557, 304.212 456.630, 308.718 447.702, 313.225 438.775, 317.731 429.848, 322.237 420.921, 326.743 413.131, 330.675 " />
            <path fill="none" stroke-width="3.0" stroke-linecap="butt" stroke-opacity="1.0" stroke="rgb(0, 0, 0)" stroke-linejoin="miter" d=" M 751.020, 404.913 758.669, 398.471 766.317, 392.028 773.965, 385.586 781.613, 379.144 789.262, 372.701 796.910, 366.259 804.558, 359.816 812.206, 353.374 817.373, 349.022 818.231, 347.956 818.827, 346.715 819.123, 345.289 819.088, 344.143 818.795, 343.053 818.268, 342.023 817.533, 341.057 816.613, 340.159 815.534, 339.334 814.320, 338.586 812.995, 337.919 811.585, 337.337 810.114, 336.845 808.607, 336.446 807.088, 336.144 797.798, 334.630 789.011, 333.248 780.654, 331.976 772.657, 330.793 764.951, 329.678 757.470, 328.608 750.145, 327.564 742.913, 326.524 735.709, 325.470 728.470, 324.379 721.134, 323.234 713.641, 322.014 703.777, 320.372 693.912, 318.729 684.048, 317.087 682.267, 316.791 681.387, 316.700 680.484, 316.716 679.578, 316.835 678.687, 317.057 677.827, 317.378 677.019, 317.798 668.655, 323.279 660.291, 328.761 651.927, 334.242 643.563, 339.723 635.199, 345.204 626.835, 350.685 618.471, 356.167 610.107, 361.648 601.743, 367.129 600.127, 368.188 " />
            <path fill="none" stroke-width="3.0" stroke-linecap="butt" stroke-opacity="1.0" stroke="rgb(0, 0, 0)" stroke-linejoin="miter" d=" M 597.875, 370.575 598.057, 360.577 598.238, 350.578 598.301, 347.143 598.467, 343.082 598.757, 340.326 " />
            <path fill="none" stroke-width="3.0" stroke-linecap="butt" stroke-opacity="1.0" stroke="rgb(0, 0, 0)" stroke-linejoin="miter" d=" M 596.938, 436.617 596.841, 436.122 596.742, 435.149 596.721, 434.076 596.903, 424.078 597.085, 414.079 597.266, 404.081 597.448, 394.083 597.629, 384.084 597.760, 376.871 " />
            <path fill="none" stroke-width="3.0" stroke-linecap="butt" stroke-opacity="1.0" stroke="rgb(0, 0, 0)" stroke-linejoin="miter" d=" M 740.948, 693.441 747.278, 685.699 753.607, 677.957 759.936, 670.215 766.265, 662.473 772.595, 654.731 778.924, 646.989 785.253, 639.247 791.583, 631.505 797.912, 623.763 802.791, 617.795 803.247, 616.964 803.458, 616.028 803.403, 614.777 803.035, 613.586 802.394, 612.451 801.519, 611.372 800.451, 610.345 799.229, 609.368 797.895, 608.439 796.487, 607.555 795.047, 606.713 793.613, 605.911 792.225, 605.146 790.922, 604.416 785.747, 601.554 781.030, 598.696 776.732, 595.833 772.809, 592.956 769.222, 590.058 765.930, 587.131 762.894, 584.168 760.074, 581.160 757.430, 578.101 754.925, 574.984 752.519, 571.800 750.175, 568.544 744.421, 560.366 738.666, 552.187 732.912, 544.009 727.158, 535.830 721.403, 527.652 715.649, 519.473 709.895, 511.295 704.140, 503.116 698.386, 494.938 692.632, 486.759 686.877, 478.581 681.123, 470.402 675.369, 462.224 669.614, 454.045 663.860, 445.867 658.106, 437.688 657.082, 436.234 656.188, 434.884 655.465, 433.558 654.912, 432.260 654.529, 430.996 654.316, 429.773 654.273, 428.595 654.379, 427.660 " />
            <path fill="none" stroke-width="3.0" stroke-linecap="butt" stroke-opacity="1.0" stroke="rgb(0, 0, 0)" stroke-linejoin="miter" d=" M 601.473, 466.312 607.877, 461.390 615.806, 455.296 623.735, 449.203 631.664, 443.109 633.588, 441.631 " />
            <path fill="none" stroke-width="3.0" stroke-linecap="butt" stroke-opacity="1.0" stroke="rgb(0, 0, 0)" stroke-linejoin="miter" d=" M 551.695, 641.058 559.068, 634.303 566.442, 627.548 573.815, 620.793 581.189, 614.038 588.562, 607.282 589.182, 606.715 " />
        </g>
    </g>
</svg>
