<?xml version='1.0' encoding='ascii'?>
<svg xmlns="http://www.w3.org/2000/svg" version="1.1" width="1080" height="1080">
    <g id="View Layer_LineSet" xmlns:inkscape="http://www.inkscape.org/namespaces/inkscape" inkscape:groupmode="lineset" inkscape:label="View Layer_LineSet">
        <g xmlns:inkscape="http://www.inkscape.org/namespaces/inkscape" inkscape:groupmode="layer" id="strokes" inkscape:label="strokes">
            <path fill="none" stroke-width="3.0" stroke-linecap="butt" stroke-opacity="1.0" stroke="rgb(0, 0, 0)" stroke-linejoin="miter" d=" M 528.202, 376.590 530.198, 375.524 531.079, 375.054 534.579, 373.757 538.761, 372.657 543.686, 371.710 549.416, 370.875 550.712, 370.630 551.913, 370.353 553.017, 370.027 554.018, 369.638 554.915, 369.169 555.704, 368.606 556.382, 367.932 556.945, 367.132 557.391, 366.190 557.716, 365.091 557.917, 363.818 557.990, 362.356 557.941, 361.194 557.781, 360.113 557.514, 359.112 557.143, 358.193 556.958, 357.864 556.672, 357.356 556.102, 356.603 555.438, 355.933 554.683, 355.348 553.840, 354.848 552.912, 354.434 551.903, 354.106 550.816, 353.865 545.817, 353.026 540.342, 352.169 534.499, 351.301 528.397, 350.427 522.141, 349.552 515.835, 348.680 509.584, 347.816 503.486, 346.966 497.642, 346.133 492.150, 345.321 487.105, 344.536 482.603, 343.780 478.081, 342.938 473.178, 341.947 467.968, 340.837 462.526, 339.638 456.925, 338.379 451.237, 337.090 445.534, 335.799 439.886, 334.535 434.363, 333.327 429.034, 332.201 423.968, 331.187 419.231, 330.310 418.391, 330.220 417.540, 330.239 416.693, 330.363 415.867, 330.593 415.081, 330.925 414.350, 331.358 413.692, 331.889 413.123, 332.517 412.661, 333.241 412.321, 334.057 412.122, 334.964 412.080, 335.960 412.192, 337.310 412.418, 338.585 412.754, 339.786 413.197, 340.916 413.745, 341.974 414.394, 342.964 415.143, 343.885 415.989, 344.740 416.928, 345.529 417.959, 346.253 419.078, 346.915 420.284, 347.514 425.459, 349.833 429.999, 352.089 433.937, 354.336 437.310, 356.631 440.156, 359.028 442.513, 361.582 444.419, 364.349 445.913, 367.383 447.036, 370.738 447.828, 374.467 448.330, 378.624 448.582, 383.260 448.870, 393.256 449.158, 403.251 449.446, 413.247 449.734, 423.243 450.022, 433.239 450.310, 443.235 450.598, 453.231 450.886, 463.227 451.174, 473.222 451.462, 483.218 451.750, 493.214 452.038, 503.210 452.326, 513.206 452.614, 523.202 452.902, 533.198 453.190, 543.193 453.478, 553.189 453.766, 563.185 454.075, 573.909 454.170, 577.238 454.201, 581.088 454.029, 584.434 453.610, 587.306 452.902, 589.730 451.862, 591.734 450.449, 593.346 " />
            <path fill="none" stroke-width="3.0" stroke-linecap="butt" stroke-opacity="1.0" stroke="rgb(0, 0, 0)" stroke-linejoin="miter" d=" M 585.319, 480.207 586.349, 479.381 592.943, 474.609 595.188, 472.927 599.480, 469.711 605.980, 464.723 609.225, 462.199 612.462, 459.681 618.944, 454.620 625.446, 449.577 631.988, 444.589 638.588, 439.695 645.268, 434.933 652.048, 430.342 654.568, 428.743 658.947, 425.963 665.986, 421.837 670.629, 419.357 675.496, 417.003 680.616, 414.799 686.018, 412.770 691.729, 410.941 697.781, 409.337 704.201, 407.983 711.020, 406.905 718.270, 406.129 725.980, 405.682 734.183, 405.589 742.911, 405.880 744.495, 405.870 746.172, 405.787 747.898, 405.618 749.634, 405.350 751.336, 404.969 752.964, 404.462 754.476, 403.817 755.828, 403.020 756.980, 402.058 757.888, 400.918 758.509, 399.587 758.801, 398.052 758.741, 396.816 758.403, 395.636 757.813, 394.518 756.998, 393.467 755.984, 392.488 754.800, 391.586 753.471, 390.765 752.024, 390.030 750.486, 389.386 748.884, 388.838 747.245, 388.391 745.595, 388.048 735.741, 386.348 735.512, 386.308 725.978, 384.718 716.914, 383.252 708.243, 381.886 699.891, 380.596 691.783, 379.359 683.848, 378.151 676.014, 376.950 668.212, 375.732 660.373, 374.477 652.431, 373.160 644.318, 371.762 634.469, 370.029 624.621, 368.297 614.772, 366.564 610.366, 365.789 609.416, 365.682 608.444, 365.689 607.470, 365.808 606.515, 366.036 605.596, 366.374 604.735, 366.817 603.950, 367.365 603.261, 368.016 602.687, 368.769 602.247, 369.620 601.960, 370.569 601.846, 371.614 601.886, 373.032 602.059, 374.372 602.363, 375.638 602.794, 376.829 603.348, 377.948 604.023, 378.995 604.816, 379.973 605.723, 380.882 606.741, 381.723 607.868, 382.499 609.100, 383.209 610.434, 383.856 613.859, 385.368 616.979, 386.905 619.794, 388.465 622.303, 390.046 624.507, 391.647 626.407, 393.265 628.003, 394.898 629.297, 396.546 630.289, 398.204 630.982, 399.873 631.377, 401.549 631.476, 403.231 631.367, 404.309 631.111, 405.381 630.714, 406.449 630.186, 407.516 629.534, 408.586 628.768, 409.661 627.895, 410.744 626.923, 411.839 625.862, 412.949 624.719, 414.076 623.503, 415.223 622.221, 416.394 614.793, 423.089 607.364, 429.784 599.936, 436.478 597.937, 438.280 590.508, 444.975 583.080, 451.669 575.651, 458.364 568.223, 465.059 560.794, 471.753 553.366, 478.448 545.938, 485.143 538.509, 491.837 536.213, 493.906 " />
            <path fill="none" stroke-width="3.0" stroke-linecap="butt" stroke-opacity="1.0" stroke="rgb(0, 0, 0)" stroke-linejoin="miter" d=" M 536.213, 493.906 535.087, 494.615 534.041, 495.281 533.068, 495.898 532.157, 496.460 531.300, 496.960 530.488, 497.393 529.712, 497.751 528.962, 498.028 528.230, 498.218 527.508, 498.315 526.785, 498.312 526.053, 498.203 525.429, 498.028 524.829, 497.780 524.257, 497.457 523.721, 497.057 523.225, 496.574 522.775, 496.007 522.378, 495.352 522.038, 494.605 521.762, 493.764 521.556, 492.824 521.424, 491.783 521.375, 490.636 521.314, 480.636 521.253, 470.636 521.192, 460.636 521.132, 450.636 521.071, 440.637 521.010, 430.637 520.949, 420.637 520.889, 410.637 520.828, 400.637 520.809, 397.506 520.882, 393.144 521.192, 389.307 521.795, 385.955 522.742, 383.047 524.089, 380.545 525.890, 378.406 528.202, 376.590 " />
            <path fill="none" stroke-width="3.0" stroke-linecap="butt" stroke-opacity="1.0" stroke="rgb(0, 0, 0)" stroke-linejoin="miter" d=" M 602.288, 618.003 595.232, 625.089 588.175, 632.175 581.206, 639.173 580.674, 639.886 580.252, 640.705 579.942, 641.634 579.748, 642.673 579.672, 643.826 579.744, 644.730 579.973, 645.620 580.343, 646.487 580.835, 647.324 581.432, 648.122 582.117, 648.871 582.873, 649.563 583.683, 650.190 584.529, 650.742 585.394, 651.211 586.261, 651.588 587.113, 651.864 591.978, 653.118 596.745, 654.275 601.440, 655.357 606.088, 656.383 610.716, 657.374 615.349, 658.352 620.013, 659.338 624.737, 660.353 629.545, 661.418 634.466, 662.555 639.526, 663.786 644.754, 665.133 651.699, 667.031 658.633, 669.028 665.559, 671.104 672.478, 673.240 679.392, 675.416 686.303, 677.613 693.213, 679.811 700.125, 681.990 707.041, 684.132 713.965, 686.215 720.900, 688.220 727.848, 690.127 730.810, 690.847 733.538, 691.372 736.026, 691.710 738.273, 691.868 740.276, 691.855 742.031, 691.678 743.535, 691.346 744.786, 690.865 745.780, 690.245 746.516, 689.494 746.989, 688.618 747.198, 687.628 747.114, 686.299 746.696, 685.027 745.985, 683.811 745.024, 682.649 743.857, 681.540 742.526, 680.482 741.075, 679.472 739.546, 678.509 737.982, 677.591 736.426, 676.715 734.921, 675.879 733.508, 675.081 727.894, 671.954 722.774, 668.838 718.102, 665.724 713.833, 662.602 709.924, 659.462 706.330, 656.297 703.010, 653.097 699.921, 649.853 697.020, 646.557 694.266, 643.201 691.618, 639.776 689.033, 636.274 683.180, 628.167 677.326, 620.059 671.473, 611.951 665.619, 603.843 659.766, 595.735 653.912, 587.627 652.201, 585.258 646.348, 577.150 644.929, 575.184 639.075, 567.076 633.222, 558.968 627.368, 550.860 621.515, 542.753 615.661, 534.645 609.808, 526.537 603.955, 518.429 598.101, 510.321 594.922, 505.917 589.068, 497.809 586.133, 493.744 585.141, 492.288 584.333, 490.859 583.708, 489.462 583.266, 488.105 583.008, 486.793 582.934, 485.532 583.043, 484.328 583.335, 483.187 583.812, 482.116 584.473, 481.120 585.319, 480.207 " />
            <path fill="none" stroke-width="3.0" stroke-linecap="butt" stroke-opacity="1.0" stroke="rgb(0, 0, 0)" stroke-linejoin="miter" d=" M 522.900, 513.781 523.389, 513.474 523.920, 513.272 524.486, 513.172 525.082, 513.171 525.702, 513.267 526.446, 513.481 527.209, 513.791 527.990, 514.197 528.789, 514.702 529.606, 515.307 530.441, 516.013 530.615, 516.179 531.294, 516.822 532.165, 517.736 533.054, 518.755 533.960, 519.882 534.885, 521.117 535.827, 522.461 541.546, 530.664 547.266, 538.867 552.986, 547.070 558.705, 555.273 559.974, 557.092 565.693, 565.294 571.413, 573.497 577.133, 581.700 582.852, 589.903 588.572, 598.106 592.433, 603.643 598.153, 611.846 599.717, 614.089 600.822, 615.706 601.837, 617.268 602.288, 618.003 602.760, 618.773 603.590, 620.225 604.325, 621.623 604.964, 622.968 605.505, 624.262 605.946, 625.505 606.287, 626.699 606.525, 627.845 606.660, 628.943 606.690, 629.995 606.445, 631.250 605.980, 632.395 605.289, 633.424 " />
            <path fill="none" stroke-width="3.0" stroke-linecap="butt" stroke-opacity="1.0" stroke="rgb(0, 0, 0)" stroke-linejoin="miter" d=" M 454.075, 573.909 446.285, 580.180 438.495, 586.450 430.706, 592.721 424.190, 597.966 423.610, 598.625 423.164, 599.392 422.856, 600.272 422.688, 601.265 422.662, 602.374 422.818, 603.280 423.200, 604.232 423.780, 605.213 424.531, 606.203 425.428, 607.184 426.444, 608.136 427.551, 609.040 428.724, 609.878 429.936, 610.631 431.160, 611.279 432.370, 611.803 433.539, 612.184 439.811, 613.779 445.562, 615.100 450.848, 616.189 455.729, 617.089 460.266, 617.841 464.520, 618.490 468.552, 619.079 472.424, 619.651 476.200, 620.250 479.942, 620.921 483.716, 621.709 487.585, 622.657 491.445, 623.742 495.364, 624.951 499.373, 626.273 503.504, 627.693 507.790, 629.199 512.263, 630.778 516.957, 632.416 521.904, 634.100 527.140, 635.819 532.701, 637.558 538.621, 639.306 544.938, 641.049 546.277, 641.348 547.629, 641.539 548.967, 641.622 550.269, 641.594 551.510, 641.456 552.666, 641.205 553.712, 640.842 554.625, 640.364 555.378, 639.771 555.949, 639.062 556.311, 638.235 556.442, 637.291 556.340, 636.031 556.035, 634.854 555.545, 633.754 554.892, 632.725 554.095, 631.758 553.175, 630.847 552.151, 629.984 551.045, 629.163 549.876, 628.377 548.664, 627.617 547.431, 626.876 546.194, 626.148 541.274, 623.372 537.130, 620.812 533.689, 618.409 530.880, 616.104 528.632, 613.840 526.875, 611.557 525.540, 609.198 524.560, 606.704 523.866, 604.017 523.389, 601.079 523.063, 597.830 522.819, 594.212 522.501, 588.020 522.230, 581.829 522.000, 575.636 521.808, 569.436 521.649, 563.226 521.520, 557.000 521.416, 550.754 521.334, 544.486 521.268, 538.189 521.243, 535.153 521.226, 533.152 521.215, 531.860 521.171, 525.495 521.130, 519.090 521.166, 517.974 521.283, 516.982 521.477, 516.110 521.742, 515.357 522.071, 514.720 522.459, 514.195 522.900, 513.781 " />
            <path fill="none" stroke-width="3.0" stroke-linecap="butt" stroke-opacity="1.0" stroke="rgb(0, 0, 0)" stroke-linejoin="miter" d=" M 450.449, 593.346 448.621, 594.593 446.336, 595.500 443.554, 596.096 440.234, 596.405 436.339, 596.455 431.829, 596.273 430.372, 596.216 429.033, 596.255 427.814, 596.393 426.718, 596.631 425.747, 596.972 424.904, 597.416 424.190, 597.966 " />
            <path fill="none" stroke-width="3.0" stroke-linecap="butt" stroke-opacity="1.0" stroke="rgb(0, 0, 0)" stroke-linejoin="miter" d=" M 605.289, 633.424 604.364, 634.336 603.199, 635.127 601.788, 635.794 600.123, 636.333 598.198, 636.742 596.007, 637.017 593.544, 637.155 590.802, 637.154 587.777, 637.011 586.552, 637.031 585.419, 637.145 584.378, 637.353 583.434, 637.657 582.589, 638.061 581.846, 638.566 581.206, 639.173 " />
            <path fill="none" stroke-width="3.0" stroke-linecap="butt" stroke-opacity="1.0" stroke="rgb(0, 0, 0)" stroke-linejoin="miter" d=" M 554.915, 369.169 563.251, 363.645 571.587, 358.121 579.923, 352.597 588.259, 347.074 596.595, 341.550 598.174, 340.503 606.510, 334.979 614.846, 329.455 623.182, 323.932 630.535, 319.059 631.287, 318.523 631.938, 317.887 632.483, 317.136 632.922, 316.256 633.250, 315.231 633.466, 314.049 633.566, 312.693 633.545, 311.617 633.418, 310.617 633.189, 309.694 632.861, 308.849 632.437, 308.082 631.919, 307.393 631.310, 306.784 630.614, 306.254 629.834, 305.805 628.973, 305.436 628.033, 305.149 627.019, 304.944 622.346, 304.248 617.225, 303.544 611.758, 302.836 606.046, 302.125 600.187, 301.415 594.280, 300.710 588.420, 300.011 582.704, 299.322 577.223, 298.644 572.072, 297.980 567.339, 297.333 563.116, 296.705 558.875, 295.996 554.278, 295.156 549.393, 294.209 544.289, 293.184 539.036, 292.105 533.700, 291.000 528.347, 289.892 523.045, 288.809 517.858, 287.774 512.851, 286.813 508.087, 285.951 503.631, 285.212 502.840, 285.141 502.034, 285.172 501.229, 285.301 500.443, 285.528 499.691, 285.849 490.865, 290.551 482.039, 295.253 473.214, 299.954 464.388, 304.656 455.562, 309.358 446.737, 314.060 437.911, 318.762 429.085, 323.464 420.260, 328.166 415.081, 330.925 " />
            <path fill="none" stroke-width="3.0" stroke-linecap="butt" stroke-opacity="1.0" stroke="rgb(0, 0, 0)" stroke-linejoin="miter" d=" M 756.980, 402.058 764.364, 395.314 771.749, 388.571 779.133, 381.828 786.517, 375.085 793.902, 368.342 801.286, 361.599 808.671, 354.855 816.055, 348.112 818.382, 345.987 819.242, 344.919 819.840, 343.681 820.136, 342.259 820.100, 341.120 819.806, 340.038 819.277, 339.018 818.539, 338.063 817.616, 337.177 816.533, 336.365 815.314, 335.631 813.985, 334.979 812.569, 334.412 811.093, 333.934 809.581, 333.549 808.056, 333.262 798.731, 331.831 789.908, 330.528 781.515, 329.330 773.482, 328.218 765.739, 327.170 758.220, 326.166 750.857, 325.185 743.585, 324.208 736.340, 323.216 729.058, 322.188 721.677, 321.106 714.136, 319.951 704.257, 318.401 694.378, 316.852 684.498, 315.303 682.543, 314.996 681.656, 314.913 680.748, 314.936 679.835, 315.062 678.936, 315.290 678.071, 315.617 677.256, 316.042 676.511, 316.563 668.319, 322.298 660.128, 328.034 651.936, 333.769 643.744, 339.504 635.552, 345.240 627.360, 350.975 619.169, 356.710 610.977, 362.446 603.950, 367.365 " />
            <path fill="none" stroke-width="3.0" stroke-linecap="butt" stroke-opacity="1.0" stroke="rgb(0, 0, 0)" stroke-linejoin="miter" d=" M 597.937, 438.280 597.907, 438.252 597.496, 437.731 597.135, 437.127 596.832, 436.436 596.590, 435.656 596.417, 434.782 596.316, 433.811 596.295, 432.741 596.475, 422.742 596.656, 412.744 596.836, 402.745 597.016, 392.747 597.196, 382.749 597.376, 372.750 597.557, 362.752 597.737, 352.754 597.859, 345.958 598.026, 341.903 598.174, 340.503 " />
            <path fill="none" stroke-width="3.0" stroke-linecap="butt" stroke-opacity="1.0" stroke="rgb(0, 0, 0)" stroke-linejoin="miter" d=" M 746.516, 689.494 752.543, 681.514 758.569, 673.534 764.596, 665.554 770.623, 657.574 776.650, 649.594 782.676, 641.615 788.703, 633.635 794.730, 625.655 800.757, 617.675 803.866, 613.558 804.324, 612.725 804.535, 611.791 804.480, 610.547 804.110, 609.366 803.465, 608.245 802.587, 607.182 801.514, 606.173 800.287, 605.216 798.947, 604.307 797.534, 603.445 796.087, 602.625 794.647, 601.844 793.253, 601.100 791.945, 600.389 786.746, 597.605 782.008, 594.817 777.688, 592.019 773.746, 589.202 770.141, 586.360 766.832, 583.486 763.779, 580.571 760.943, 577.610 758.285, 574.595 755.765, 571.520 753.345, 568.379 750.987, 565.163 745.162, 557.035 739.337, 548.907 733.512, 540.779 727.687, 532.650 721.862, 524.522 716.037, 516.394 710.212, 508.266 704.387, 500.137 698.562, 492.009 692.737, 483.881 686.911, 475.753 681.086, 467.624 675.261, 459.496 669.436, 451.368 663.611, 443.239 657.208, 434.305 656.307, 432.968 655.577, 431.652 655.019, 430.363 654.632, 429.106 654.568, 428.743 " />
            <path fill="none" stroke-width="3.0" stroke-linecap="butt" stroke-opacity="1.0" stroke="rgb(0, 0, 0)" stroke-linejoin="miter" d=" M 555.378, 639.771 562.538, 632.790 569.698, 625.809 576.859, 618.828 584.019, 611.847 591.179, 604.866 592.433, 603.643 " />
        </g>
    </g>
</svg>
