<?xml version='1.0' encoding='ascii'?>
<svg xmlns="http://www.w3.org/2000/svg" version="1.1" width="1080" height="1080">
    <g id="View Layer_LineSet" xmlns:inkscape="http://www.inkscape.org/namespaces/inkscape" inkscape:groupmode="lineset" inkscape:label="View Layer_LineSet">
        <g xmlns:inkscape="http://www.inkscape.org/namespaces/inkscape" inkscape:groupmode="layer" id="strokes" inkscape:label="strokes">
            <path fill="none" stroke-width="3.0" stroke-linecap="butt" stroke-opacity="1.0" stroke="rgb(0, 0, 0)" stroke-linejoin="miter" d=" M 531.897, 375.820 534.814, 374.260 538.362, 372.932 542.600, 371.795 547.590, 370.804 553.393, 369.918 554.706, 369.662 555.923, 369.373 557.040, 369.038 558.055, 368.640 558.964, 368.164 559.763, 367.595 560.450, 366.916 561.022, 366.112 561.474, 365.167 561.804, 364.067 562.009, 362.794 562.085, 361.334 562.036, 360.174 561.876, 359.096 561.607, 358.099 561.233, 357.185 560.756, 356.354 560.460, 355.969 560.180, 355.606 559.509, 354.943 558.745, 354.366 557.892, 353.874 556.953, 353.469 555.932, 353.150 554.831, 352.919 549.770, 352.125 544.226, 351.319 538.308, 350.503 532.126, 349.684 525.788, 348.864 519.398, 348.048 513.061, 347.240 506.879, 346.444 500.953, 345.663 495.383, 344.900 490.265, 344.159 485.698, 343.443 481.110, 342.640 476.135, 341.691 470.848, 340.627 465.324, 339.475 459.637, 338.265 453.862, 337.025 448.069, 335.783 442.332, 334.567 436.722, 333.405 431.307, 332.325 426.158, 331.353 421.343, 330.516 420.489, 330.433 419.623, 330.459 418.762, 330.591 417.922, 330.828 417.122, 331.167 416.378, 331.606 415.708, 332.143 415.129, 332.777 414.658, 333.505 414.312, 334.324 414.108, 335.234 414.063, 336.232 414.176, 337.581 414.404, 338.855 414.744, 340.054 415.193, 341.181 415.749, 342.236 416.408, 343.220 417.169, 344.136 418.027, 344.983 418.982, 345.765 420.029, 346.481 421.166, 347.133 422.391, 347.722 427.651, 349.997 432.262, 352.213 436.262, 354.427 439.688, 356.692 442.577, 359.065 444.968, 361.599 446.901, 364.349 448.416, 367.371 449.552, 370.716 450.352, 374.439 450.856, 378.592 451.107, 383.226 451.387, 393.223 451.667, 403.219 451.947, 413.215 452.227, 423.211 452.507, 433.207 452.787, 443.203 453.067, 453.199 453.347, 463.195 453.627, 473.191 453.907, 483.187 454.187, 493.183 454.467, 503.179 454.747, 513.175 455.027, 523.172 455.307, 533.168 455.587, 543.164 455.867, 553.160 456.147, 563.156 456.407, 572.419 456.541, 577.196 456.567, 581.047 456.388, 584.397 455.958, 587.274 455.236, 589.708 454.178, 591.727 452.740, 593.357 " />
            <path fill="none" stroke-width="3.0" stroke-linecap="butt" stroke-opacity="1.0" stroke="rgb(0, 0, 0)" stroke-linejoin="miter" d=" M 589.600, 478.715 590.643, 477.880 594.609, 475.007 597.317, 473.045 603.934, 468.087 610.511, 463.041 610.518, 463.035 617.068, 457.942 623.624, 452.825 630.200, 447.726 636.813, 442.684 643.485, 437.735 650.236, 432.919 655.432, 429.394 657.085, 428.273 664.053, 423.839 671.161, 419.655 675.847, 417.137 680.759, 414.743 685.926, 412.497 691.375, 410.423 697.135, 408.545 703.237, 406.888 709.709, 405.477 716.581, 404.337 723.885, 403.494 731.651, 402.974 739.910, 402.803 748.695, 403.008 750.290, 402.984 751.977, 402.885 753.715, 402.700 755.462, 402.416 757.175, 402.021 758.814, 401.501 760.335, 400.844 761.697, 400.037 762.857, 399.069 763.771, 397.926 764.398, 396.595 764.694, 395.064 764.634, 393.834 764.295, 392.664 763.703, 391.557 762.884, 390.518 761.866, 389.553 760.675, 388.666 759.339, 387.861 757.884, 387.143 756.337, 386.517 754.726, 385.987 753.077, 385.556 751.417, 385.230 741.545, 383.637 741.270, 383.592 731.672, 382.098 722.545, 380.722 713.812, 379.442 705.396, 378.234 697.226, 377.076 689.226, 375.945 681.328, 374.820 673.459, 373.678 665.551, 372.498 657.537, 371.259 649.349, 369.939 639.482, 368.313 629.615, 366.687 619.748, 365.061 615.060, 364.288 614.100, 364.190 613.117, 364.206 612.133, 364.333 611.167, 364.570 610.238, 364.915 609.367, 365.365 608.573, 365.919 607.876, 366.575 607.294, 367.331 606.848, 368.184 606.558, 369.134 606.441, 370.178 606.480, 371.592 606.653, 372.928 606.959, 374.188 607.393, 375.372 607.952, 376.483 608.633, 377.522 609.434, 378.490 610.349, 379.389 611.378, 380.219 612.516, 380.982 613.760, 381.680 615.107, 382.313 618.568, 383.789 621.719, 385.293 624.561, 386.823 627.094, 388.377 629.319, 389.953 631.236, 391.549 632.847, 393.163 634.152, 394.793 635.152, 396.438 635.850, 398.096 636.247, 399.764 636.344, 401.440 636.234, 402.517 635.973, 403.588 635.572, 404.657 635.037, 405.727 634.377, 406.800 633.602, 407.879 632.719, 408.968 631.736, 410.070 630.663, 411.187 629.507, 412.322 628.276, 413.479 626.981, 414.660 619.542, 421.343 612.104, 428.027 604.666, 434.711 600.614, 438.352 593.176, 445.035 585.738, 451.719 578.299, 458.403 570.861, 465.086 563.423, 471.770 555.985, 478.454 548.546, 485.138 541.108, 491.821 539.872, 492.932 " />
            <path fill="none" stroke-width="3.0" stroke-linecap="butt" stroke-opacity="1.0" stroke="rgb(0, 0, 0)" stroke-linejoin="miter" d=" M 539.872, 492.932 538.730, 493.652 537.670, 494.329 536.683, 494.957 535.760, 495.528 534.891, 496.037 534.067, 496.478 533.280, 496.845 532.520, 497.130 531.778, 497.329 531.046, 497.433 530.313, 497.439 529.572, 497.338 528.940, 497.169 528.332, 496.928 527.753, 496.612 527.210, 496.218 526.707, 495.742 526.252, 495.180 525.850, 494.530 525.507, 493.788 525.228, 492.950 525.020, 492.013 524.888, 490.974 524.839, 489.828 524.790, 479.828 524.740, 469.829 524.691, 459.829 524.642, 449.829 524.592, 439.829 524.543, 429.829 524.493, 419.829 524.444, 409.829 524.394, 399.829 524.379, 396.785 524.459, 392.427 524.778, 388.591 525.392, 385.236 526.356, 382.322 527.725, 379.809 529.553, 377.656 531.897, 375.820 " />
            <path fill="none" stroke-width="3.0" stroke-linecap="butt" stroke-opacity="1.0" stroke="rgb(0, 0, 0)" stroke-linejoin="miter" d=" M 606.009, 615.115 599.202, 622.441 592.394, 629.766 585.587, 637.091 585.250, 637.454 584.711, 638.172 584.283, 638.996 583.969, 639.927 583.771, 640.967 583.692, 642.119 583.764, 643.021 583.995, 643.906 584.368, 644.767 584.865, 645.596 585.468, 646.384 586.160, 647.123 586.925, 647.804 587.743, 648.419 588.599, 648.958 589.473, 649.415 590.350, 649.780 591.211, 650.044 596.130, 651.229 600.950, 652.320 605.696, 653.335 610.395, 654.296 615.071, 655.223 619.753, 656.136 624.466, 657.056 629.237, 658.004 634.094, 659.001 639.063, 660.068 644.173, 661.226 649.450, 662.497 656.459, 664.295 663.456, 666.191 670.444, 668.166 677.422, 670.199 684.394, 672.273 691.361, 674.366 698.326, 676.461 705.292, 678.536 712.260, 680.573 719.234, 682.552 726.218, 684.452 733.214, 686.254 736.197, 686.929 738.942, 687.414 741.448, 687.715 743.710, 687.841 745.726, 687.800 747.493, 687.599 749.007, 687.247 750.267, 686.751 751.269, 686.119 752.010, 685.360 752.487, 684.482 752.698, 683.493 752.616, 682.171 752.196, 680.910 751.481, 679.709 750.516, 678.566 749.342, 677.477 748.004, 676.442 746.544, 675.457 745.006, 674.519 743.433, 673.626 741.867, 672.775 740.353, 671.963 738.931, 671.188 733.281, 668.151 728.128, 665.118 723.425, 662.080 719.128, 659.028 715.192, 655.953 711.575, 652.848 708.232, 649.704 705.122, 646.514 702.202, 643.268 699.430, 639.960 696.763, 636.583 694.161, 633.127 688.232, 625.075 682.303, 617.022 676.374, 608.970 670.444, 600.917 664.515, 592.864 658.586, 584.812 655.572, 580.719 649.643, 572.666 647.792, 570.152 641.863, 562.100 635.933, 554.047 630.004, 545.995 624.075, 537.942 618.146, 529.890 612.216, 521.837 606.287, 513.784 600.358, 505.732 594.402, 497.643 590.407, 492.218 589.405, 490.775 588.589, 489.358 587.959, 487.971 587.514, 486.621 587.254, 485.314 587.180, 484.056 587.292, 482.853 587.590, 481.711 588.073, 480.637 588.743, 479.636 589.600, 478.715 " />
            <path fill="none" stroke-width="3.0" stroke-linecap="butt" stroke-opacity="1.0" stroke="rgb(0, 0, 0)" stroke-linejoin="miter" d=" M 526.358, 512.937 526.854, 512.625 527.391, 512.417 527.965, 512.311 528.569, 512.303 529.198, 512.392 529.422, 512.453 529.952, 512.597 530.724, 512.898 531.515, 513.295 532.324, 513.791 533.151, 514.386 533.997, 515.082 534.860, 515.880 535.742, 516.783 536.641, 517.791 537.558, 518.906 538.493, 520.129 539.446, 521.462 545.244, 529.609 551.043, 537.756 556.841, 545.904 562.639, 554.051 564.953, 557.302 570.751, 565.449 576.549, 573.596 582.348, 581.744 588.146, 589.891 593.944, 598.038 595.594, 600.357 601.393, 608.504 604.002, 612.171 605.118, 613.771 606.009, 615.115 606.142, 615.316 607.074, 616.807 607.911, 618.244 608.653, 619.630 609.297, 620.964 609.842, 622.248 610.287, 623.483 610.630, 624.671 610.870, 625.811 611.005, 626.905 611.034, 627.954 610.784, 629.210 610.313, 630.358 609.613, 631.395 " />
            <path fill="none" stroke-width="3.0" stroke-linecap="butt" stroke-opacity="1.0" stroke="rgb(0, 0, 0)" stroke-linejoin="miter" d=" M 456.407, 572.419 448.798, 578.909 441.190, 585.398 433.581, 591.887 426.046, 598.314 425.455, 598.980 425.001, 599.755 424.686, 600.639 424.514, 601.635 424.486, 602.745 424.644, 603.650 425.031, 604.598 425.619, 605.572 426.382, 606.553 427.293, 607.523 428.324, 608.463 429.449, 609.354 430.640, 610.177 431.871, 610.915 433.115, 611.547 434.344, 612.056 435.532, 612.422 441.905, 613.936 447.747, 615.183 453.116, 616.204 458.074, 617.040 462.682, 617.734 467.000, 618.327 471.094, 618.863 475.024, 619.385 478.857, 619.935 482.655, 620.557 486.484, 621.294 490.409, 622.192 494.324, 623.226 498.299, 624.384 502.364, 625.652 506.553, 627.017 510.897, 628.466 515.431, 629.984 520.188, 631.559 525.201, 633.177 530.506, 634.824 536.139, 636.488 542.135, 638.155 548.532, 639.812 549.889, 640.093 551.257, 640.266 552.613, 640.330 553.931, 640.285 555.188, 640.130 556.359, 639.864 557.419, 639.487 558.344, 638.998 559.107, 638.395 559.686, 637.680 560.054, 636.850 560.187, 635.905 560.086, 634.647 559.778, 633.476 559.284, 632.384 558.624, 631.364 557.818, 630.409 556.887, 629.512 555.851, 628.664 554.732, 627.858 553.549, 627.088 552.323, 626.345 551.074, 625.622 549.823, 624.911 544.843, 622.202 540.647, 619.699 537.164, 617.343 534.320, 615.077 532.044, 612.843 530.267, 610.585 528.917, 608.245 527.927, 605.766 527.226, 603.090 526.747, 600.160 526.420, 596.918 526.177, 593.305 525.863, 587.122 525.595, 580.940 525.370, 574.754 525.182, 568.561 525.029, 562.357 524.906, 556.138 524.808, 549.898 524.732, 543.636 524.673, 537.345 524.628, 531.022 524.625, 530.648 524.624, 530.498 524.590, 524.662 524.557, 518.262 524.594, 517.147 524.715, 516.154 524.912, 515.281 525.181, 514.526 525.516, 513.885 525.910, 513.356 526.358, 512.937 " />
            <path fill="none" stroke-width="3.0" stroke-linecap="butt" stroke-opacity="1.0" stroke="rgb(0, 0, 0)" stroke-linejoin="miter" d=" M 452.740, 593.357 450.881, 594.628 448.558, 595.565 445.730, 596.195 442.357, 596.547 438.398, 596.647 433.814, 596.522 432.333, 596.483 430.972, 596.540 429.732, 596.694 428.617, 596.946 427.630, 597.299 426.772, 597.754 426.046, 598.314 " />
            <path fill="none" stroke-width="3.0" stroke-linecap="butt" stroke-opacity="1.0" stroke="rgb(0, 0, 0)" stroke-linejoin="miter" d=" M 609.613, 631.395 608.678, 632.317 607.499, 633.122 606.071, 633.806 604.386, 634.367 602.440, 634.800 600.224, 635.104 597.733, 635.275 594.960, 635.310 591.900, 635.207 590.661, 635.244 589.514, 635.372 588.462, 635.594 587.506, 635.911 586.651, 636.325 585.898, 636.839 585.250, 637.454 " />
            <path fill="none" stroke-width="3.0" stroke-linecap="butt" stroke-opacity="1.0" stroke="rgb(0, 0, 0)" stroke-linejoin="miter" d=" M 558.964, 368.164 567.123, 362.382 575.281, 356.599 583.440, 350.817 591.599, 345.035 597.472, 340.872 605.630, 335.090 613.789, 329.307 621.948, 323.525 630.272, 317.625 631.030, 317.085 631.686, 316.445 632.236, 315.691 632.678, 314.810 633.008, 313.785 633.225, 312.603 633.326, 311.250 633.304, 310.177 633.176, 309.181 632.945, 308.263 632.614, 307.422 632.185, 306.660 631.663, 305.977 631.049, 305.374 630.347, 304.852 629.560, 304.410 628.691, 304.049 627.743, 303.771 626.720, 303.574 622.007, 302.917 616.841, 302.256 611.324, 301.593 605.559, 300.929 599.645, 300.268 593.681, 299.611 587.765, 298.960 581.991, 298.317 576.456, 297.684 571.251, 297.063 566.469, 296.454 562.201, 295.860 557.915, 295.186 553.267, 294.383 548.328, 293.476 543.167, 292.492 537.854, 291.456 532.456, 290.393 527.041, 289.329 521.676, 288.287 516.427, 287.294 511.358, 286.373 506.536, 285.548 502.024, 284.844 501.222, 284.780 500.406, 284.816 499.592, 284.952 498.796, 285.184 498.034, 285.511 489.325, 290.425 480.616, 295.340 471.907, 300.254 463.197, 305.168 454.488, 310.082 445.779, 314.997 437.070, 319.911 428.361, 324.825 419.651, 329.739 417.122, 331.167 " />
            <path fill="none" stroke-width="3.0" stroke-linecap="butt" stroke-opacity="1.0" stroke="rgb(0, 0, 0)" stroke-linejoin="miter" d=" M 762.857, 399.069 769.934, 392.004 777.012, 384.940 784.090, 377.875 791.167, 370.811 798.245, 363.747 805.323, 356.682 812.400, 349.618 819.167, 342.864 820.029, 341.794 820.628, 340.557 820.924, 339.141 820.887, 338.008 820.592, 336.935 820.061, 335.924 819.321, 334.981 818.395, 334.108 817.308, 333.310 816.086, 332.590 814.753, 331.952 813.333, 331.400 811.853, 330.937 810.336, 330.568 808.807, 330.294 799.453, 328.949 790.600, 327.726 782.177, 326.605 774.112, 325.565 766.337, 324.587 758.785, 323.650 751.388, 322.735 744.081, 321.823 736.799, 320.895 729.478, 319.931 722.057, 318.915 714.472, 317.826 704.578, 316.370 694.685, 314.914 684.792, 313.459 682.677, 313.148 681.784, 313.072 680.869, 313.102 679.950, 313.236 679.045, 313.470 678.174, 313.803 677.354, 314.234 676.604, 314.759 668.612, 320.769 660.619, 326.779 652.627, 332.790 644.635, 338.800 636.643, 344.810 628.650, 350.821 620.658, 356.831 612.666, 362.841 608.573, 365.919 " />
            <path fill="none" stroke-width="3.0" stroke-linecap="butt" stroke-opacity="1.0" stroke="rgb(0, 0, 0)" stroke-linejoin="miter" d=" M 600.614, 438.352 600.054, 438.287 599.464, 438.142 598.897, 437.930 598.360, 437.646 597.858, 437.288 597.396, 436.853 596.980, 436.338 596.616, 435.739 596.309, 435.052 596.065, 434.276 595.890, 433.405 595.788, 432.437 595.766, 431.369 595.945, 421.371 596.123, 411.372 596.302, 401.374 596.480, 391.375 596.659, 381.377 596.837, 371.379 597.015, 361.380 597.194, 351.382 597.312, 344.739 597.472, 340.872 " />
            <path fill="none" stroke-width="3.0" stroke-linecap="butt" stroke-opacity="1.0" stroke="rgb(0, 0, 0)" stroke-linejoin="miter" d=" M 752.010, 685.360 757.701, 677.138 763.393, 668.916 769.085, 660.694 774.776, 652.471 780.468, 644.249 786.160, 636.027 791.851, 627.805 797.543, 619.582 803.235, 611.360 804.735, 609.193 805.193, 608.359 805.405, 607.427 805.349, 606.190 804.977, 605.019 804.330, 603.912 803.448, 602.865 802.372, 601.875 801.141, 600.938 799.796, 600.051 798.377, 599.211 796.925, 598.413 795.480, 597.655 794.081, 596.932 792.768, 596.240 787.549, 593.534 782.792, 590.819 778.454, 588.088 774.496, 585.334 770.874, 582.549 767.550, 579.728 764.482, 576.864 761.633, 573.951 758.961, 570.982 756.428, 567.951 753.996, 564.852 751.625, 561.679 745.730, 553.601 739.834, 545.524 733.939, 537.447 728.043, 529.369 722.148, 521.292 716.252, 513.215 710.357, 505.137 704.461, 497.060 698.566, 488.983 692.670, 480.905 686.775, 472.828 680.879, 464.751 674.984, 456.673 669.088, 448.596 663.193, 440.519 657.207, 432.318 656.298, 430.994 655.562, 429.689 655.432, 429.394 " />
            <path fill="none" stroke-width="3.0" stroke-linecap="butt" stroke-opacity="1.0" stroke="rgb(0, 0, 0)" stroke-linejoin="miter" d=" M 559.107, 638.395 566.030, 631.179 572.952, 623.962 579.874, 616.745 586.797, 609.528 593.719, 602.312 595.594, 600.357 " />
        </g>
    </g>
</svg>
