<?xml version='1.0' encoding='ascii'?>
<svg xmlns="http://www.w3.org/2000/svg" version="1.1" width="1080" height="1080">
    <g id="View Layer_LineSet" xmlns:inkscape="http://www.inkscape.org/namespaces/inkscape" inkscape:groupmode="lineset" inkscape:label="View Layer_LineSet">
        <g xmlns:inkscape="http://www.inkscape.org/namespaces/inkscape" inkscape:groupmode="layer" id="strokes" inkscape:label="strokes">
            <path fill="none" stroke-width="3.0" stroke-linecap="butt" stroke-opacity="1.0" stroke="rgb(0, 0, 0)" stroke-linejoin="miter" d=" M 544.594, 374.080 547.057, 372.159 550.117, 370.490 553.835, 369.028 558.271, 367.729 563.488, 366.546 569.551, 365.436 570.922, 365.129 572.193, 364.795 573.360, 364.418 574.420, 363.983 575.370, 363.474 576.206, 362.877 576.926, 362.176 577.525, 361.355 578.001, 360.400 578.351, 359.294 578.570, 358.023 578.657, 356.570 578.612, 355.421 578.450, 354.356 578.174, 353.377 577.788, 352.484 577.295, 351.677 576.699, 350.957 576.002, 350.325 575.208, 349.781 574.321, 349.325 573.344, 348.959 572.280, 348.682 571.298, 348.521 571.133, 348.494 565.855, 347.900 560.069, 347.310 553.887, 346.726 547.425, 346.147 540.792, 345.574 534.100, 345.007 527.458, 344.444 520.972, 343.886 514.750, 343.334 508.897, 342.785 503.516, 342.241 498.711, 341.700 493.881, 341.074 488.640, 340.316 483.067, 339.453 477.240, 338.512 471.238, 337.518 465.136, 336.496 459.012, 335.472 452.942, 334.472 447.000, 333.520 441.261, 332.641 435.800, 331.861 430.688, 331.203 429.782, 331.152 428.861, 331.210 427.945, 331.375 427.051, 331.644 426.198, 332.014 425.405, 332.482 424.689, 333.046 424.070, 333.703 423.565, 334.451 423.193, 335.286 422.971, 336.206 422.919, 337.208 423.032, 338.558 423.268, 339.827 423.623, 341.017 424.095, 342.129 424.681, 343.166 425.377, 344.128 426.181, 345.017 427.090, 345.834 428.100, 346.580 429.210, 347.258 430.415, 347.868 431.714, 348.411 437.289, 350.487 442.173, 352.528 446.405, 354.589 450.025, 356.724 453.075, 358.986 455.596, 361.428 457.629, 364.104 459.218, 367.067 460.404, 370.370 461.232, 374.063 461.745, 378.198 461.986, 382.825 462.232, 392.822 462.478, 402.818 462.723, 412.815 462.969, 422.812 463.215, 432.809 463.461, 442.806 463.706, 452.803 463.952, 462.800 464.198, 472.797 464.444, 482.794 464.689, 492.791 464.935, 502.788 465.181, 512.785 465.427, 522.782 465.672, 532.779 465.918, 542.776 466.164, 552.773 466.426, 563.419 466.671, 573.416 466.752, 576.695 466.761, 580.548 466.554, 583.911 466.085, 586.816 465.308, 589.293 464.177, 591.372 " />
            <path fill="none" stroke-width="3.0" stroke-linecap="butt" stroke-opacity="1.0" stroke="rgb(0, 0, 0)" stroke-linejoin="miter" d=" M 605.830, 472.800 606.724, 471.847 607.812, 470.970 614.762, 465.868 614.919, 465.749 621.646, 460.651 628.484, 455.353 635.295, 450.009 642.099, 444.652 648.916, 439.318 655.766, 434.042 660.747, 430.304 662.669, 428.861 669.646, 423.812 676.717, 418.933 683.903, 414.260 691.224, 409.834 696.045, 407.156 701.095, 404.591 706.402, 402.163 711.993, 399.894 717.897, 397.808 724.145, 395.926 730.764, 394.272 737.785, 392.870 745.238, 391.744 753.152, 390.916 761.559, 390.412 770.489, 390.255 772.109, 390.166 773.823, 390.001 775.588, 389.749 777.363, 389.399 779.104, 388.942 780.768, 388.366 782.315, 387.661 783.699, 386.816 784.879, 385.821 785.811, 384.664 786.452, 383.336 786.759, 381.825 786.704, 380.623 786.365, 379.491 785.769, 378.430 784.944, 377.446 783.915, 376.541 782.711, 375.720 781.359, 374.984 779.886, 374.339 778.320, 373.786 776.686, 373.330 775.014, 372.974 773.330, 372.720 763.398, 371.558 763.026, 371.515 753.266, 370.426 743.972, 369.435 735.068, 368.521 726.479, 367.665 718.130, 366.847 709.947, 366.048 701.858, 365.250 693.791, 364.433 685.675, 363.580 682.654, 363.246 678.561, 362.794 677.442, 362.671 669.021, 361.688 659.092, 360.495 649.164, 359.303 639.235, 358.110 633.654, 357.440 632.660, 357.380 631.644, 357.433 630.624, 357.598 629.623, 357.870 628.660, 358.247 627.756, 358.726 626.931, 359.306 626.206, 359.982 625.600, 360.752 625.134, 361.615 624.829, 362.566 624.703, 363.603 624.736, 365.002 624.910, 366.317 625.221, 367.552 625.665, 368.708 626.239, 369.785 626.939, 370.786 627.763, 371.713 628.707, 372.565 629.768, 373.346 630.942, 374.056 632.227, 374.696 633.618, 375.268 637.191, 376.590 640.442, 377.950 643.372, 379.349 645.982, 380.782 648.273, 382.250 650.245, 383.750 651.900, 385.279 652.690, 386.198 653.240, 386.837 654.265, 388.422 654.977, 390.030 655.379, 391.662 655.472, 393.314 655.353, 394.382 655.079, 395.451 654.659, 396.524 654.103, 397.603 653.417, 398.691 652.612, 399.790 " />
            <path fill="none" stroke-width="3.0" stroke-linecap="butt" stroke-opacity="1.0" stroke="rgb(0, 0, 0)" stroke-linejoin="miter" d=" M 652.612, 399.790 651.695, 400.903 650.676, 402.033 649.562, 403.181 648.363, 404.352 647.088, 405.547 645.744, 406.769 638.300, 413.447 630.856, 420.124 623.413, 426.802 615.969, 433.480 608.525, 440.157 601.082, 446.835 593.638, 453.513 591.567, 455.370 584.124, 462.048 576.680, 468.726 569.236, 475.404 568.563, 476.007 561.120, 482.685 554.832, 488.326 553.634, 489.097 552.522, 489.822 551.486, 490.494 550.517, 491.107 549.605, 491.656 548.741, 492.135 547.916, 492.538 547.119, 492.859 546.341, 493.092 545.574, 493.232 544.807, 493.272 544.031, 493.208 543.370, 493.071 542.734, 492.861 542.129, 492.574 541.562, 492.208 541.038, 491.757 540.564, 491.220 540.146, 490.592 539.790, 489.869 539.502, 489.049 539.288, 488.126 539.155, 487.097 539.109, 485.959 539.107, 475.959 539.104, 465.959 539.101, 455.959 539.098, 445.959 539.095, 435.959 539.092, 425.959 539.089, 415.959 539.086, 405.959 539.083, 395.959 539.083, 393.332 539.187, 388.990 539.540, 385.157 540.201, 381.792 541.224, 378.853 542.670, 376.297 544.594, 374.080 " />
            <path fill="none" stroke-width="3.0" stroke-linecap="butt" stroke-opacity="1.0" stroke="rgb(0, 0, 0)" stroke-linejoin="miter" d=" M 619.702, 601.654 614.209, 610.010 608.716, 618.367 603.223, 626.723 600.890, 630.273 600.441, 631.115 600.109, 632.058 599.899, 633.102 599.811, 634.250 599.882, 635.140 600.118, 636.005 600.501, 636.839 601.014, 637.632 601.638, 638.379 602.354, 639.072 603.145, 639.703 603.993, 640.265 604.879, 640.751 605.786, 641.152 606.695, 641.463 607.588, 641.675 612.691, 642.563 617.688, 643.361 622.605, 644.090 627.470, 644.766 632.309, 645.410 637.150, 646.039 642.021, 646.673 646.949, 647.331 651.961, 648.032 657.086, 648.795 662.352, 649.639 667.787, 650.585 674.998, 651.948 682.190, 653.407 689.364, 654.943 696.522, 656.536 703.666, 658.167 710.799, 659.817 717.923, 661.467 725.040, 663.096 732.154, 664.686 739.268, 666.216 746.385, 667.667 753.508, 669.020 756.543, 669.504 759.336, 669.816 761.885, 669.962 764.186, 669.950 766.237, 669.789 768.035, 669.486 769.576, 669.050 770.859, 668.488 771.880, 667.808 772.636, 667.019 773.125, 666.129 773.344, 665.146 773.265, 663.853 772.844, 662.641 772.123, 661.505 771.147, 660.440 769.959, 659.442 768.603, 658.505 767.123, 657.624 765.562, 656.794 763.966, 656.010 762.377, 655.267 760.839, 654.559 759.395, 653.881 753.655, 651.230 748.416, 648.551 743.634, 645.839 739.263, 643.088 735.258, 640.293 731.577, 637.447 728.175, 634.546 725.009, 631.585 722.037, 628.558 719.215, 625.459 716.501, 622.285 713.852, 619.029 707.630, 611.200 701.409, 603.371 695.187, 595.542 688.966, 587.713 682.744, 579.884 676.523, 572.055 670.302, 564.226 666.482, 559.420 663.149, 555.225 656.928, 547.396 650.706, 539.567 644.485, 531.738 638.263, 523.909 632.042, 516.080 625.820, 508.251 619.599, 500.422 613.377, 492.593 607.499, 485.196 606.465, 483.813 605.624, 482.447 604.976, 481.101 604.520, 479.784 604.257, 478.500 604.186, 477.256 604.308, 476.058 604.622, 474.912 605.130, 473.824 605.830, 472.800 " />
            <path fill="none" stroke-width="3.0" stroke-linecap="butt" stroke-opacity="1.0" stroke="rgb(0, 0, 0)" stroke-linejoin="miter" d=" M 540.116, 509.339 540.587, 508.899 541.108, 508.564 541.673, 508.330 542.275, 508.196 542.908, 508.158 543.565, 508.215 544.354, 508.383 545.162, 508.644 545.988, 509.000 546.832, 509.453 547.695, 510.005 548.577, 510.655 549.477, 511.407 550.395, 512.262 551.331, 513.221 552.285, 514.284 553.257, 515.455 554.248, 516.733 560.352, 524.654 566.457, 532.574 572.562, 540.494 578.667, 548.415 584.771, 556.335 586.150, 558.124 592.255, 566.044 598.360, 573.964 604.465, 581.884 606.738, 584.834 612.843, 592.754 618.947, 600.674 619.702, 601.654 621.041, 603.391 622.191, 604.915 623.245, 606.388 624.204, 607.813 625.065, 609.190 625.827, 610.521 626.488, 611.807 627.047, 613.048 627.502, 614.247 627.852, 615.403 628.095, 616.519 628.230, 617.595 628.255, 618.633 627.991, 619.891 627.497, 621.056 " />
            <path fill="none" stroke-width="3.0" stroke-linecap="butt" stroke-opacity="1.0" stroke="rgb(0, 0, 0)" stroke-linejoin="miter" d=" M 466.426, 563.419 459.780, 570.891 453.135, 578.364 446.490, 585.837 439.845, 593.310 433.674, 600.249 433.187, 601.052 432.848, 601.957 432.660, 602.966 432.625, 604.082 432.788, 604.980 433.194, 605.910 433.815, 606.854 434.621, 607.795 435.583, 608.716 436.674, 609.600 437.864, 610.429 439.126, 611.188 440.429, 611.857 441.747, 612.420 443.049, 612.861 444.308, 613.160 451.061, 614.313 457.247, 615.228 462.929, 615.943 468.173, 616.496 473.042, 616.926 477.605, 617.273 481.926, 617.574 486.074, 617.870 490.115, 618.200 494.118, 618.604 498.151, 619.122 502.283, 619.793 506.400, 620.601 510.577, 621.528 514.847, 622.561 519.244, 623.682 523.801, 624.877 528.554, 626.129 533.538, 627.425 538.787, 628.747 544.339, 630.081 550.228, 631.411 556.494, 632.723 563.173, 634.000 564.589, 634.200 566.018, 634.293 567.433, 634.278 568.810, 634.156 570.123, 633.929 571.347, 633.597 572.455, 633.160 573.422, 632.620 574.222, 631.977 574.829, 631.231 575.217, 630.385 575.360, 629.438 575.261, 628.194 574.945, 627.047 574.435, 625.990 573.751, 625.014 572.914, 624.111 571.947, 623.272 570.871, 622.488 569.706, 621.752 568.474, 621.053 567.198, 620.384 565.897, 619.736 564.594, 619.101 559.402, 616.690 555.027, 614.437 551.394, 612.289 548.428, 610.194 546.057, 608.099 544.206, 605.950 542.803, 603.695 541.778, 601.280 541.057, 598.654 540.569, 595.762 540.242, 592.550 540.005, 588.964 539.706, 582.821 539.456, 576.676 539.250, 570.526 539.084, 564.366 538.954, 558.194 538.855, 552.004 538.783, 545.794 538.734, 539.559 538.703, 533.295 538.686, 526.999 538.678, 520.666 538.674, 514.292 538.719, 513.180 538.850, 512.185 539.061, 511.306 539.347, 510.540 539.701, 509.885 540.116, 509.339 " />
            <path fill="none" stroke-width="3.0" stroke-linecap="butt" stroke-opacity="1.0" stroke="rgb(0, 0, 0)" stroke-linejoin="miter" d=" M 464.177, 591.372 462.647, 593.085 460.672, 594.461 458.207, 595.529 455.207, 596.319 451.629, 596.860 447.430, 597.182 442.566, 597.314 440.994, 597.358 439.548, 597.491 438.231, 597.715 437.045, 598.031 435.994, 598.440 435.080, 598.945 434.306, 599.548 433.674, 600.249 " />
            <path fill="none" stroke-width="3.0" stroke-linecap="butt" stroke-opacity="1.0" stroke="rgb(0, 0, 0)" stroke-linejoin="miter" d=" M 627.497, 621.056 626.767, 622.123 625.793, 623.090 624.568, 623.955 623.085, 624.715 621.336, 625.366 619.315, 625.908 617.015, 626.336 614.429, 626.649 611.551, 626.843 608.374, 626.917 607.087, 627.025 605.895, 627.218 604.800, 627.498 603.806, 627.868 602.915, 628.328 602.130, 628.881 601.454, 629.529 600.890, 630.273 " />
            <path fill="none" stroke-width="3.0" stroke-linecap="butt" stroke-opacity="1.0" stroke="rgb(0, 0, 0)" stroke-linejoin="miter" d=" M 576.926, 362.176 584.031, 355.139 591.136, 348.103 593.820, 345.445 600.925, 338.409 608.030, 331.372 615.135, 324.335 622.241, 317.299 629.286, 310.321 629.850, 309.556 630.302, 308.669 630.640, 307.644 630.861, 306.467 630.962, 305.125 630.937, 304.065 630.804, 303.085 630.565, 302.184 630.223, 301.364 629.781, 300.626 629.242, 299.968 628.610, 299.393 627.888, 298.900 627.078, 298.490 626.183, 298.164 625.208, 297.920 624.155, 297.761 619.304, 297.274 613.983, 296.797 608.298, 296.330 602.351, 295.871 596.247, 295.419 590.085, 294.973 583.968, 294.530 577.994, 294.091 572.261, 293.652 566.867, 293.213 561.907, 292.773 557.479, 292.329 553.028, 291.805 548.199, 291.166 543.064, 290.433 537.694, 289.630 532.162, 288.780 526.537, 287.905 520.890, 287.029 515.292, 286.174 509.810, 285.361 504.513, 284.614 499.471, 283.955 494.749, 283.405 493.911, 283.368 493.057, 283.432 492.204, 283.595 491.371, 283.853 490.574, 284.205 489.831, 284.648 481.802, 290.609 473.773, 296.570 465.744, 302.531 457.715, 308.493 449.686, 314.454 441.657, 320.415 433.628, 326.376 425.405, 332.482 " />
            <path fill="none" stroke-width="3.0" stroke-linecap="butt" stroke-opacity="1.0" stroke="rgb(0, 0, 0)" stroke-linejoin="miter" d=" M 785.811, 384.664 791.066, 376.156 796.321, 367.648 801.575, 359.140 806.830, 350.632 812.085, 342.124 817.340, 333.616 820.493, 328.511 821.090, 327.281 821.384, 325.887 821.345, 324.782 821.046, 323.745 820.512, 322.777 819.768, 321.882 818.838, 321.062 817.748, 320.321 816.521, 319.661 815.183, 319.086 813.758, 318.597 812.272, 318.197 810.750, 317.889 809.215, 317.676 799.819, 316.692 790.916, 315.809 782.434, 315.009 774.305, 314.275 766.460, 313.590 758.831, 312.937 751.352, 312.300 743.956, 311.661 736.578, 311.006 729.154, 310.316 721.620, 309.577 713.913, 308.772 703.970, 307.700 694.028, 306.627 684.086, 305.554 681.515, 305.277 680.604, 305.233 679.669, 305.295 678.731, 305.458 677.808, 305.721 676.919, 306.080 676.082, 306.533 675.316, 307.077 674.641, 307.709 667.844, 315.044 661.047, 322.379 654.251, 329.715 647.454, 337.050 640.657, 344.385 633.861, 351.720 627.064, 359.056 626.206, 359.982 " />
            <path fill="none" stroke-width="3.0" stroke-linecap="butt" stroke-opacity="1.0" stroke="rgb(0, 0, 0)" stroke-linejoin="miter" d=" M 652.690, 386.198 645.275, 392.907 637.859, 399.616 630.443, 406.325 623.028, 413.033 615.612, 419.742 608.196, 426.451 606.989, 427.543 605.869, 428.279 604.828, 428.970 603.860, 429.610 602.954, 430.195 602.101, 430.720 601.294, 431.178 600.524, 431.565 599.781, 431.876 599.058, 432.105 598.345, 432.246 597.635, 432.295 596.917, 432.247 596.308, 432.129 595.722, 431.943 595.167, 431.685 594.648, 431.352 594.170, 430.941 593.740, 430.448 593.362, 429.869 593.044, 429.202 592.791, 428.442 592.608, 427.586 592.501, 426.631 592.477, 425.572 592.644, 415.573 592.812, 405.575 592.979, 395.576 593.147, 385.577 593.315, 375.579 593.482, 365.580 593.650, 355.582 593.820, 345.445 " />
            <path fill="none" stroke-width="3.0" stroke-linecap="butt" stroke-opacity="1.0" stroke="rgb(0, 0, 0)" stroke-linejoin="miter" d=" M 773.125, 666.129 777.097, 656.952 781.069, 647.775 785.041, 638.597 789.013, 629.420 792.985, 620.243 796.958, 611.066 800.930, 601.888 804.902, 592.711 806.179, 589.760 806.390, 588.837 806.331, 587.630 805.955, 586.504 805.303, 585.455 804.414, 584.478 803.331, 583.566 802.092, 582.715 800.738, 581.919 799.310, 581.172 797.849, 580.468 796.393, 579.803 794.984, 579.169 793.662, 578.562 788.404, 576.188 783.607, 573.780 779.230, 571.332 775.232, 568.840 771.573, 566.299 768.212, 563.706 765.108, 561.057 762.224, 558.346 759.518, 555.571 756.952, 552.726 754.486, 549.809 752.081, 546.815 745.911, 538.945 739.742, 531.075 733.572, 523.205 727.403, 515.334 721.234, 507.464 715.064, 499.594 708.895, 491.724 702.725, 483.854 696.556, 475.984 690.387, 468.114 684.217, 460.244 678.048, 452.374 671.878, 444.504 665.709, 436.633 660.747, 430.304 " />
            <path fill="none" stroke-width="3.0" stroke-linecap="butt" stroke-opacity="1.0" stroke="rgb(0, 0, 0)" stroke-linejoin="miter" d=" M 574.829, 631.231 580.495, 622.992 586.162, 614.752 591.829, 606.513 597.495, 598.273 603.162, 590.034 606.738, 584.834 " />
        </g>
    </g>
</svg>
