<?xml version='1.0' encoding='ascii'?>
<svg xmlns="http://www.w3.org/2000/svg" version="1.1" width="1080" height="1080">
    <g id="View Layer_LineSet" xmlns:inkscape="http://www.inkscape.org/namespaces/inkscape" inkscape:groupmode="lineset" inkscape:label="View Layer_LineSet">
        <g xmlns:inkscape="http://www.inkscape.org/namespaces/inkscape" inkscape:groupmode="layer" id="strokes" inkscape:label="strokes">
            <path fill="none" stroke-width="3.0" stroke-linecap="butt" stroke-opacity="1.0" stroke="rgb(0, 0, 0)" stroke-linejoin="miter" d=" M 553.962, 373.024 555.943, 370.755 558.474, 368.764 561.615, 367.005 565.427, 365.431 569.972, 363.997 575.314, 362.655 581.517, 361.359 582.920, 361.010 584.220, 360.638 585.413, 360.226 586.498, 359.760 587.470, 359.225 588.326, 358.605 589.063, 357.886 589.567, 357.203 589.678, 357.052 590.168, 356.088 590.528, 354.978 590.757, 353.709 590.850, 352.263 590.808, 351.123 590.646, 350.070 590.368, 349.106 589.977, 348.231 589.712, 347.815 589.477, 347.445 588.870, 346.748 588.161, 346.141 587.352, 345.625 586.447, 345.200 585.450, 344.866 584.364, 344.624 583.193, 344.473 577.800, 344.044 575.576, 343.891 571.883, 343.637 565.558, 343.246 558.941, 342.869 552.145, 342.503 545.282, 342.143 538.465, 341.787 531.805, 341.431 525.411, 341.071 519.391, 340.704 513.854, 340.327 508.907, 339.935 503.932, 339.457 498.531, 338.862 492.784, 338.171 486.772, 337.409 480.575, 336.599 474.271, 335.764 467.940, 334.927 461.660, 334.112 455.508, 333.340 449.563, 332.635 443.901, 332.019 438.599, 331.516 437.658, 331.492 436.702, 331.578 435.750, 331.771 434.820, 332.067 433.933, 332.464 433.107, 332.957 432.362, 333.544 431.716, 334.222 431.189, 334.986 430.799, 335.834 430.566, 336.763 430.507, 337.769 430.619, 339.117 430.860, 340.381 431.225, 341.563 431.711, 342.663 432.315, 343.683 433.035, 344.625 433.867, 345.491 434.808, 346.281 435.854, 346.998 437.004, 347.642 438.253, 348.215 439.599, 348.718 445.377, 350.622 450.434, 352.512 454.814, 354.442 458.557, 356.463 461.708, 358.629 464.309, 360.991 466.404, 363.603 468.037, 366.515 469.253, 369.779 470.096, 373.445 470.611, 377.563 470.843, 382.182 471.061, 392.179 471.279, 402.177 471.497, 412.174 471.715, 422.172 471.932, 432.170 472.150, 442.167 472.368, 452.165 472.586, 462.163 472.804, 472.160 473.022, 482.158 473.239, 492.156 473.457, 502.153 473.675, 512.151 473.893, 522.148 474.111, 532.146 474.329, 542.144 474.515, 550.688 474.732, 560.685 474.950, 570.683 475.064, 575.892 475.059, 579.747 474.832, 583.120 474.337, 586.047 473.524, 588.559 472.346, 590.690 " />
            <path fill="none" stroke-width="3.0" stroke-linecap="butt" stroke-opacity="1.0" stroke="rgb(0, 0, 0)" stroke-linejoin="miter" d=" M 617.444, 467.757 617.518, 467.649 618.161, 466.714 619.074, 465.735 620.184, 464.824 627.274, 459.504 634.291, 454.078 641.255, 448.576 648.188, 443.034 655.107, 437.484 662.035, 431.960 663.793, 430.579 668.990, 426.497 675.994, 421.131 683.066, 415.897 690.227, 410.830 697.497, 405.969 704.897, 401.351 709.767, 398.544 714.863, 395.844 720.214, 393.271 725.849, 390.848 731.794, 388.596 738.079, 386.535 744.732, 384.689 751.783, 383.078 759.260, 381.726 767.192, 380.654 775.609, 379.885 784.539, 379.441 786.159, 379.301 787.872, 379.084 789.637, 378.779 791.410, 378.378 793.150, 377.873 794.814, 377.253 796.360, 376.511 797.745, 375.636 798.925, 374.621 799.859, 373.455 800.502, 372.130 800.813, 370.637 800.762, 369.459 800.427, 368.357 799.836, 367.335 799.015, 366.394 797.991, 365.538 796.792, 364.769 795.445, 364.090 793.976, 363.502 792.413, 363.009 790.784, 362.612 789.114, 362.315 787.433, 362.118 777.467, 361.285 777.134, 361.257 767.369, 360.493 758.060, 359.810 749.133, 359.189 740.513, 358.615 732.125, 358.070 723.898, 357.539 715.757, 357.005 707.631, 356.451 699.450, 355.862 691.142, 355.221 686.338, 354.821 682.637, 354.513 677.629, 354.079 667.667, 353.216 657.704, 352.353 647.741, 351.491 646.830, 351.412 645.822, 351.383 644.790, 351.468 643.755, 351.662 642.738, 351.963 641.759, 352.367 640.839, 352.870 639.999, 353.469 639.260, 354.162 638.643, 354.944 638.167, 355.813 637.853, 356.765 637.722, 357.797 637.751, 359.181 637.923, 360.479 638.234, 361.693 638.682, 362.824 639.261, 363.873 639.969, 364.842 640.803, 365.734 641.759, 366.548 642.833, 367.288 644.023, 367.953 645.325, 368.546 646.735, 369.068 650.355, 370.262 653.648, 371.505 656.615, 372.794 657.049, 373.014 659.256, 374.129 661.572, 375.507 663.565, 376.927 665.237, 378.387 666.588, 379.884 667.620, 381.418 668.336, 382.986 668.738, 384.587 668.826, 386.218 668.702, 387.279 668.422, 388.345 667.994, 389.420 667.426, 390.506 " />
            <path fill="none" stroke-width="3.0" stroke-linecap="butt" stroke-opacity="1.0" stroke="rgb(0, 0, 0)" stroke-linejoin="miter" d=" M 667.426, 390.506 666.729, 391.605 665.910, 392.719 664.977, 393.851 663.941, 395.003 662.809, 396.177 661.591, 397.376 660.294, 398.601 658.928, 399.856 651.520, 406.573 650.083, 407.876 649.883, 408.057 642.475, 414.774 635.067, 421.491 627.659, 428.208 620.251, 434.925 612.843, 441.642 605.434, 448.359 598.026, 455.076 590.618, 461.793 587.506, 464.615 580.098, 471.332 572.690, 478.049 566.032, 484.086 564.802, 484.900 563.661, 485.664 562.598, 486.373 562.389, 486.509 561.603, 487.021 560.667, 487.603 559.780, 488.113 558.932, 488.546 558.114, 488.896 557.317, 489.159 556.529, 489.328 555.743, 489.399 554.948, 489.365 554.270, 489.254 553.619, 489.069 553.000, 488.807 552.419, 488.465 551.884, 488.037 551.399, 487.520 550.973, 486.911 550.610, 486.205 550.317, 485.399 550.102, 484.488 549.969, 483.468 549.926, 482.336 549.958, 472.336 549.990, 462.336 550.023, 452.337 550.055, 442.337 550.087, 432.337 550.120, 422.337 550.152, 412.337 550.184, 402.337 550.217, 392.337 550.224, 390.100 550.346, 385.774 550.722, 381.947 551.411, 378.575 552.471, 375.616 553.962, 373.024 " />
            <path fill="none" stroke-width="3.0" stroke-linecap="butt" stroke-opacity="1.0" stroke="rgb(0, 0, 0)" stroke-linejoin="miter" d=" M 627.818, 589.033 623.733, 598.161 619.649, 607.289 615.565, 616.417 612.134, 624.086 611.793, 625.037 611.575, 626.083 611.482, 627.227 611.551, 628.108 611.788, 628.957 612.176, 629.766 612.696, 630.530 613.329, 631.243 614.057, 631.897 614.861, 632.487 615.722, 633.005 616.624, 633.446 617.546, 633.802 618.470, 634.068 619.379, 634.236 624.571, 634.877 629.653, 635.435 634.650, 635.927 639.592, 636.369 644.506, 636.779 649.419, 637.175 654.359, 637.574 659.354, 637.994 664.432, 638.452 669.622, 638.967 674.950, 639.554 680.446, 640.234 687.733, 641.243 694.994, 642.346 702.231, 643.525 709.446, 644.761 716.642, 646.034 723.820, 647.325 730.984, 648.614 738.135, 649.883 745.278, 651.113 752.415, 652.282 759.549, 653.373 766.685, 654.366 769.724, 654.698 772.521, 654.872 775.072, 654.894 777.375, 654.773 779.428, 654.516 781.227, 654.133 782.770, 653.630 784.055, 653.016 785.078, 652.299 785.836, 651.487 786.328, 650.588 786.550, 649.611 786.475, 648.343 786.058, 647.171 785.341, 646.087 784.368, 645.086 783.182, 644.159 781.829, 643.301 780.351, 642.504 778.793, 641.761 777.198, 641.064 775.610, 640.407 774.072, 639.783 772.629, 639.183 766.888, 636.842 761.646, 634.448 756.859, 631.999 752.482, 629.492 748.471, 626.922 744.783, 624.287 741.375, 621.584 738.204, 618.809 735.225, 615.959 732.397, 613.031 729.677, 610.023 727.022, 606.930 720.601, 599.264 714.180, 591.599 707.758, 583.933 701.337, 576.267 694.915, 568.601 688.494, 560.935 682.073, 553.269 675.651, 545.603 669.230, 537.938 662.808, 530.272 656.387, 522.606 649.965, 514.940 643.544, 507.274 637.123, 499.608 630.701, 491.942 624.280, 484.277 619.818, 478.950 618.770, 477.618 617.918, 476.294 617.263, 474.984 616.803, 473.694 616.539, 472.430 616.471, 471.198 616.599, 470.005 616.923, 468.855 617.444, 467.757 " />
            <path fill="none" stroke-width="3.0" stroke-linecap="butt" stroke-opacity="1.0" stroke="rgb(0, 0, 0)" stroke-linejoin="miter" d=" M 550.448, 506.143 550.876, 505.583 551.361, 505.126 551.897, 504.771 552.477, 504.516 553.094, 504.358 553.744, 504.296 554.418, 504.326 555.226, 504.462 556.053, 504.689 556.898, 505.011 557.763, 505.429 558.645, 505.943 559.547, 506.556 560.466, 507.269 561.404, 508.083 562.360, 508.999 563.333, 510.020 564.325, 511.146 565.335, 512.378 571.653, 520.129 577.971, 527.881 584.289, 535.632 590.607, 543.383 596.926, 551.134 600.989, 556.119 607.307, 563.870 612.416, 570.138 618.734, 577.889 625.052, 585.640 627.818, 589.033 633.197, 595.633 634.360, 597.092 635.428, 598.507 636.397, 599.876 637.268, 601.203 638.038, 602.489 638.705, 603.734 639.269, 604.939 639.728, 606.107 640.079, 607.238 640.322, 608.333 640.456, 609.394 640.477, 610.421 640.205, 611.681 " />
            <path fill="none" stroke-width="3.0" stroke-linecap="butt" stroke-opacity="1.0" stroke="rgb(0, 0, 0)" stroke-linejoin="miter" d=" M 474.515, 550.688 468.933, 558.985 463.351, 567.282 457.769, 575.579 452.188, 583.876 446.606, 592.174 440.696, 600.959 440.188, 601.785 439.833, 602.708 439.633, 603.728 439.593, 604.848 439.759, 605.741 440.177, 606.654 440.818, 607.572 441.651, 608.478 442.647, 609.357 443.776, 610.193 445.008, 610.969 446.314, 611.671 447.665, 612.281 449.029, 612.785 450.379, 613.166 451.683, 613.408 458.680, 614.250 465.085, 614.880 470.965, 615.333 476.388, 615.644 481.422, 615.849 486.136, 615.984 490.599, 616.085 494.880, 616.190 499.049, 616.332 503.177, 616.551 507.333, 616.881 511.589, 617.360 515.827, 617.976 520.125, 618.708 524.516, 619.541 529.035, 620.455 533.716, 621.435 538.596, 622.464 543.710, 623.523 549.094, 624.596 554.784, 625.667 560.817, 626.717 567.231, 627.730 574.065, 628.689 575.513, 628.822 576.974, 628.847 578.422, 628.766 579.831, 628.581 581.175, 628.294 582.427, 627.906 583.562, 627.420 584.552, 626.838 585.372, 626.161 585.995, 625.391 586.394, 624.531 586.544, 623.583 586.447, 622.350 586.128, 621.225 585.610, 620.197 584.914, 619.259 584.063, 618.399 583.077, 617.609 581.979, 616.879 580.790, 616.200 579.534, 615.562 578.230, 614.955 576.902, 614.370 575.570, 613.798 570.265, 611.637 565.793, 609.594 562.079, 607.622 559.046, 605.671 556.622, 603.692 554.732, 601.635 553.302, 599.452 552.258, 597.094 551.528, 594.510 551.037, 591.650 550.713, 588.465 550.483, 584.903 550.198, 578.796 549.962, 572.685 549.773, 566.567 549.624, 560.438 549.512, 554.294 549.433, 548.133 549.381, 541.949 549.352, 535.740 549.343, 529.501 549.347, 523.230 549.361, 516.922 549.380, 510.574 549.430, 509.464 549.568, 508.468 549.787, 507.584 550.083, 506.809 550.448, 506.143 " />
            <path fill="none" stroke-width="3.0" stroke-linecap="butt" stroke-opacity="1.0" stroke="rgb(0, 0, 0)" stroke-linejoin="miter" d=" M 640.205, 611.681 639.700, 612.858 638.954, 613.949 637.961, 614.953 636.713, 615.867 635.203, 616.688 633.423, 617.415 631.366, 618.045 629.025, 618.576 626.394, 619.005 623.464, 619.331 620.229, 619.551 618.919, 619.717 617.704, 619.964 616.588, 620.292 615.574, 620.705 614.664, 621.203 613.863, 621.789 613.172, 622.463 612.595, 623.228 612.134, 624.086 " />
            <path fill="none" stroke-width="3.0" stroke-linecap="butt" stroke-opacity="1.0" stroke="rgb(0, 0, 0)" stroke-linejoin="miter" d=" M 472.346, 590.690 470.757, 592.473 468.707, 593.938 466.151, 595.119 463.042, 596.045 459.333, 596.749 454.979, 597.261 449.935, 597.613 448.304, 597.729 446.803, 597.928 445.436, 598.212 444.204, 598.582 443.111, 599.040 442.161, 599.588 441.355, 600.227 440.696, 600.959 " />
            <path fill="none" stroke-width="3.0" stroke-linecap="butt" stroke-opacity="1.0" stroke="rgb(0, 0, 0)" stroke-linejoin="miter" d=" M 589.678, 357.052 595.410, 348.858 601.143, 340.664 606.875, 332.470 612.607, 324.275 618.339, 316.081 624.071, 307.887 626.327, 304.662 626.784, 303.770 627.124, 302.744 627.346, 301.572 627.446, 300.239 627.419, 299.189 627.282, 298.221 627.039, 297.335 626.691, 296.532 626.242, 295.812 625.695, 295.175 625.054, 294.623 624.321, 294.155 623.499, 293.771 622.593, 293.472 621.604, 293.257 620.536, 293.129 615.617, 292.780 610.218, 292.455 604.446, 292.149 598.405, 291.858 592.198, 291.579 585.931, 291.306 579.703, 291.036 573.617, 290.764 567.774, 290.487 562.272, 290.200 557.211, 289.899 552.688, 289.579 548.141, 289.181 543.205, 288.678 537.952, 288.090 532.457, 287.438 526.792, 286.743 521.028, 286.027 515.239, 285.308 509.495, 284.609 503.867, 283.948 498.427, 283.348 493.244, 282.828 488.389, 282.408 487.527, 282.393 486.648, 282.481 485.772, 282.667 484.915, 282.948 484.096, 283.322 483.331, 283.784 482.639, 284.332 475.493, 291.327 468.347, 298.322 461.200, 305.317 454.054, 312.312 446.908, 319.307 439.761, 326.302 432.362, 333.544 " />
            <path fill="none" stroke-width="3.0" stroke-linecap="butt" stroke-opacity="1.0" stroke="rgb(0, 0, 0)" stroke-linejoin="miter" d=" M 800.502, 372.130 803.521, 362.597 806.539, 353.063 809.557, 343.529 812.575, 333.996 815.594, 324.462 818.058, 316.677 818.347, 315.302 818.306, 314.219 818.008, 313.210 817.477, 312.276 816.737, 311.419 815.813, 310.641 814.729, 309.946 813.511, 309.333 812.182, 308.806 810.767, 308.367 809.291, 308.017 807.778, 307.758 806.254, 307.592 796.916, 306.891 788.058, 306.275 779.612, 305.728 771.510, 305.235 763.684, 304.783 756.067, 304.355 748.593, 303.938 741.197, 303.518 733.813, 303.080 726.376, 302.609 718.823, 302.092 711.089, 301.514 701.119, 300.736 691.150, 299.957 681.180, 299.179 678.509, 298.970 677.591, 298.953 676.650, 299.040 675.705, 299.228 674.775, 299.513 673.879, 299.893 673.036, 300.365 672.266, 300.924 671.586, 301.568 671.016, 302.294 665.778, 310.812 660.540, 319.331 655.303, 327.849 650.065, 336.368 644.827, 344.886 639.589, 353.405 638.643, 354.944 " />
            <path fill="none" stroke-width="3.0" stroke-linecap="butt" stroke-opacity="1.0" stroke="rgb(0, 0, 0)" stroke-linejoin="miter" d=" M 657.049, 373.014 649.689, 379.784 642.330, 386.555 634.971, 393.325 627.611, 400.096 620.252, 406.866 612.893, 413.637 605.533, 420.408 603.335, 422.430 602.198, 423.200 601.143, 423.922 600.160, 424.592 599.240, 425.205 598.375, 425.755 597.555, 426.239 596.773, 426.651 596.018, 426.985 595.283, 427.238 594.559, 427.404 593.836, 427.478 593.107, 427.455 592.487, 427.359 591.891, 427.195 591.326, 426.958 590.797, 426.646 590.310, 426.254 589.872, 425.780 589.487, 425.218 589.162, 424.566 588.903, 423.820 588.715, 422.976 588.605, 422.030 588.579, 420.979 588.734, 410.980 588.889, 400.982 589.044, 390.983 589.198, 380.984 589.353, 370.985 589.508, 360.986 589.567, 357.203 " />
            <path fill="none" stroke-width="3.0" stroke-linecap="butt" stroke-opacity="1.0" stroke="rgb(0, 0, 0)" stroke-linejoin="miter" d=" M 786.328, 650.588 788.571, 640.843 790.815, 631.098 793.058, 621.353 795.302, 611.608 797.545, 601.863 799.789, 592.118 802.032, 582.373 803.762, 574.858 803.970, 573.942 803.909, 572.758 803.533, 571.669 802.883, 570.667 801.998, 569.744 800.919, 568.895 799.686, 568.112 798.338, 567.387 796.917, 566.713 795.461, 566.084 794.012, 565.492 792.609, 564.929 791.293, 564.388 786.053, 562.278 781.271, 560.112 776.905, 557.889 772.914, 555.605 769.260, 553.258 765.901, 550.847 762.799, 548.368 759.913, 545.819 757.206, 543.198 754.636, 540.503 752.167, 537.730 749.757, 534.880 743.397, 527.163 737.037, 519.446 730.677, 511.729 724.317, 504.013 717.956, 496.296 711.596, 488.579 705.236, 480.862 698.876, 473.145 692.516, 465.429 686.156, 457.712 679.796, 449.995 673.435, 442.278 667.075, 434.562 663.793, 430.579 " />
            <path fill="none" stroke-width="3.0" stroke-linecap="butt" stroke-opacity="1.0" stroke="rgb(0, 0, 0)" stroke-linejoin="miter" d=" M 585.995, 625.391 590.309, 616.370 594.623, 607.348 598.937, 598.326 603.251, 589.305 607.564, 580.283 611.878, 571.261 612.416, 570.138 " />
        </g>
    </g>
</svg>
