<?xml version='1.0' encoding='ascii'?>
<svg xmlns="http://www.w3.org/2000/svg" version="1.1" width="1080" height="1080">
    <g id="View Layer_LineSet" xmlns:inkscape="http://www.inkscape.org/namespaces/inkscape" inkscape:groupmode="lineset" inkscape:label="View Layer_LineSet">
        <g xmlns:inkscape="http://www.inkscape.org/namespaces/inkscape" inkscape:groupmode="layer" id="strokes" inkscape:label="strokes">
            <path fill="none" stroke-width="3.0" stroke-linecap="butt" stroke-opacity="1.0" stroke="rgb(0, 0, 0)" stroke-linejoin="miter" d=" M 557.672, 371.806 559.667, 369.520 562.215, 367.504 565.377, 365.714 569.213, 364.101 573.785, 362.620 579.157, 361.222 585.394, 359.861 586.804, 359.498 587.875, 359.182 588.110, 359.112 589.310, 358.688 590.401, 358.212 591.378, 357.667 592.239, 357.039 592.981, 356.314 593.599, 355.475 594.092, 354.508 594.456, 353.398 594.687, 352.129 594.782, 350.686 594.741, 349.549 594.580, 348.501 594.301, 347.542 593.910, 346.673 593.408, 345.894 592.799, 345.206 592.086, 344.608 591.274, 344.102 590.366, 343.687 589.364, 343.365 588.273, 343.134 588.115, 343.116 587.097, 342.996 581.676, 342.626 576.521, 342.328 575.729, 342.282 569.370, 341.959 562.715, 341.653 555.878, 341.359 548.973, 341.073 542.112, 340.789 535.406, 340.504 528.967, 340.212 522.904, 339.909 517.326, 339.590 512.340, 339.251 507.326, 338.826 501.882, 338.288 496.088, 337.658 490.026, 336.960 483.774, 336.215 477.414, 335.446 471.025, 334.676 464.686, 333.926 458.475, 333.219 452.471, 332.576 446.752, 332.019 441.395, 331.571 440.444, 331.556 439.477, 331.653 438.515, 331.855 437.575, 332.162 436.678, 332.568 435.843, 333.070 435.089, 333.665 434.435, 334.349 433.901, 335.120 433.506, 335.972 433.269, 336.904 433.208, 337.911 433.320, 339.259 433.562, 340.521 433.929, 341.700 434.419, 342.795 435.029, 343.810 435.756, 344.745 436.595, 345.602 437.545, 346.382 438.602, 347.088 439.763, 347.720 441.025, 348.280 442.385, 348.769 448.221, 350.612 453.327, 352.448 457.748, 354.330 461.527, 356.311 464.705, 358.442 467.329, 360.777 469.441, 363.365 471.086, 366.259 472.309, 369.509 473.156, 373.165 473.671, 377.276 473.900, 381.892 474.108, 391.889 474.317, 401.887 474.525, 411.885 474.733, 421.883 474.941, 431.881 475.149, 441.879 475.358, 451.876 475.566, 461.874 475.774, 471.872 475.982, 481.870 476.190, 491.868 476.398, 501.866 476.607, 511.863 476.815, 521.861 477.023, 531.859 477.231, 541.857 477.281, 544.256 477.489, 554.254 477.697, 564.252 477.906, 574.250 477.932, 575.530 477.923, 579.385 477.690, 582.762 477.186, 585.696 476.363, 588.221 475.172, 590.370 " />
            <path fill="none" stroke-width="3.0" stroke-linecap="butt" stroke-opacity="1.0" stroke="rgb(0, 0, 0)" stroke-linejoin="miter" d=" M 620.837, 466.655 621.360, 465.553 622.081, 464.505 622.999, 463.516 624.114, 462.594 631.234, 457.199 638.279, 451.700 645.270, 446.129 652.226, 440.519 659.168, 434.903 664.510, 430.606 666.116, 429.314 673.090, 423.788 680.110, 418.358 687.197, 413.060 694.370, 407.931 701.651, 403.006 709.058, 398.322 713.932, 395.471 719.031, 392.725 724.384, 390.104 730.018, 387.628 735.962, 385.319 742.243, 383.198 748.891, 381.287 755.934, 379.605 763.399, 378.177 771.317, 377.022 779.715, 376.163 788.623, 375.622 790.238, 375.465 791.947, 375.229 793.706, 374.907 795.475, 374.489 797.210, 373.967 798.869, 373.333 800.411, 372.578 801.792, 371.694 802.969, 370.672 803.901, 369.504 804.544, 368.180 804.855, 366.693 804.805, 365.523 804.472, 364.432 803.884, 363.423 803.067, 362.498 802.048, 361.659 800.853, 360.908 799.511, 360.247 798.047, 359.679 796.490, 359.206 794.866, 358.830 793.202, 358.552 791.525, 358.375 781.551, 357.653 781.255, 357.631 771.513, 356.978 762.224, 356.399 753.312, 355.878 744.703, 355.400 736.324, 354.949 728.102, 354.509 719.965, 354.065 711.840, 353.602 703.656, 353.104 695.343, 352.555 687.143, 351.964 686.831, 351.942 676.764, 351.183 666.792, 350.430 656.821, 349.678 650.963, 349.237 649.953, 349.219 648.918, 349.315 647.880, 349.519 646.860, 349.830 645.878, 350.242 644.955, 350.754 644.112, 351.360 643.371, 352.058 642.750, 352.845 642.272, 353.716 641.956, 354.668 641.824, 355.698 641.852, 357.077 642.023, 358.369 642.334, 359.575 642.781, 360.697 643.361, 361.736 644.070, 362.695 644.905, 363.574 645.862, 364.375 646.939, 365.100 648.131, 365.750 649.436, 366.326 650.849, 366.831 654.477, 367.981 657.468, 369.070 657.776, 369.182 660.748, 370.434 663.393, 371.735 665.712, 373.082 667.708, 374.474 669.380, 375.909 670.732, 377.386 671.765, 378.902 672.481, 380.456 672.881, 382.045 672.968, 383.669 672.843, 384.727 672.795, 384.906 672.561, 385.792 672.131, 386.868 " />
            <path fill="none" stroke-width="3.0" stroke-linecap="butt" stroke-opacity="1.0" stroke="rgb(0, 0, 0)" stroke-linejoin="miter" d=" M 672.131, 386.868 671.561, 387.956 670.861, 389.059 670.039, 390.178 669.104, 391.316 668.065, 392.475 666.930, 393.658 665.708, 394.866 664.407, 396.102 663.037, 397.368 655.649, 404.107 648.696, 410.449 644.820, 413.985 637.432, 420.724 630.044, 427.463 622.656, 434.203 615.268, 440.942 607.880, 447.681 600.492, 454.420 593.103, 461.159 585.873, 467.755 578.485, 474.494 571.097, 481.233 569.689, 482.518 568.451, 483.347 567.302, 484.125 566.232, 484.847 565.230, 485.507 564.288, 486.100 563.528, 486.544 563.395, 486.621 562.542, 487.065 561.719, 487.426 560.916, 487.699 560.124, 487.878 559.332, 487.959 558.532, 487.936 557.851, 487.834 557.196, 487.658 556.573, 487.405 555.990, 487.071 555.451, 486.651 554.964, 486.142 554.536, 485.539 554.171, 484.839 553.878, 484.038 553.662, 483.131 553.530, 482.115 553.487, 480.986 553.531, 470.986 553.575, 460.986 553.619, 450.986 553.663, 440.986 553.707, 430.986 553.751, 420.986 553.794, 410.986 553.838, 400.986 553.882, 390.987 553.891, 388.895 554.019, 384.575 554.402, 380.750 555.099, 377.376 556.169, 374.410 557.672, 371.806 " />
            <path fill="none" stroke-width="3.0" stroke-linecap="butt" stroke-opacity="1.0" stroke="rgb(0, 0, 0)" stroke-linejoin="miter" d=" M 629.892, 584.223 626.371, 593.583 622.851, 602.943 619.330, 612.303 615.859, 621.530 615.516, 622.484 615.296, 623.531 615.201, 624.674 615.269, 625.551 615.507, 626.394 615.896, 627.195 616.417, 627.949 617.051, 628.649 617.781, 629.290 618.588, 629.865 619.452, 630.368 620.356, 630.793 621.282, 631.134 622.210, 631.383 623.122, 631.537 628.332, 632.093 633.430, 632.567 638.443, 632.976 643.400, 633.337 648.327, 633.666 653.253, 633.981 658.204, 634.299 663.211, 634.636 668.299, 635.011 673.497, 635.439 678.834, 635.938 684.338, 636.526 691.632, 637.412 698.899, 638.393 706.140, 639.449 713.357, 640.562 720.552, 641.712 727.728, 642.879 734.887, 644.046 742.032, 645.191 749.166, 646.297 756.293, 647.344 763.415, 648.312 770.537, 649.182 773.570, 649.462 776.360, 649.589 778.906, 649.569 781.204, 649.410 783.252, 649.122 785.047, 648.711 786.587, 648.185 787.869, 647.554 788.890, 646.824 789.647, 646.005 790.138, 645.103 790.360, 644.128 790.288, 642.869 789.872, 641.710 789.158, 640.645 788.189, 639.665 787.008, 638.763 785.658, 637.932 784.185, 637.164 782.631, 636.450 781.041, 635.783 779.457, 635.156 777.924, 634.560 776.484, 633.987 770.757, 631.751 765.527, 629.455 760.751, 627.096 756.383, 624.672 752.380, 622.180 748.700, 619.617 745.298, 616.982 742.132, 614.271 739.159, 611.483 736.336, 608.614 733.621, 605.663 730.970, 602.627 724.487, 595.013 718.004, 587.399 711.521, 579.785 705.038, 572.172 698.555, 564.558 692.072, 556.944 685.589, 549.330 679.106, 541.716 672.623, 534.102 666.140, 526.489 659.657, 518.875 653.174, 511.261 646.690, 503.647 640.207, 496.033 633.724, 488.420 627.241, 480.806 623.731, 476.683 622.681, 475.368 621.827, 474.059 621.170, 472.762 620.710, 471.481 620.447, 470.225 620.380, 468.997 620.510, 467.805 620.837, 466.655 " />
            <path fill="none" stroke-width="3.0" stroke-linecap="butt" stroke-opacity="1.0" stroke="rgb(0, 0, 0)" stroke-linejoin="miter" d=" M 553.618, 505.419 553.986, 504.748 554.418, 504.183 554.906, 503.720 555.446, 503.359 556.029, 503.096 556.651, 502.930 557.304, 502.858 557.983, 502.880 558.796, 503.004 559.627, 503.220 560.478, 503.530 561.347, 503.935 562.234, 504.436 563.140, 505.035 564.064, 505.734 565.006, 506.534 565.967, 507.436 566.945, 508.441 567.942, 509.551 568.956, 510.768 575.340, 518.464 581.725, 526.160 588.110, 533.857 594.494, 541.553 600.879, 549.250 605.484, 554.801 611.869, 562.498 613.551, 564.525 619.935, 572.221 626.320, 579.918 629.892, 584.223 636.276, 591.920 637.029, 592.827 638.194, 594.264 639.263, 595.657 640.234, 597.008 641.106, 598.317 641.877, 599.587 642.545, 600.817 643.109, 602.010 643.568, 603.167 643.919, 604.289 644.162, 605.377 644.295, 606.432 644.315, 607.456 644.041, 608.716 " />
            <path fill="none" stroke-width="3.0" stroke-linecap="butt" stroke-opacity="1.0" stroke="rgb(0, 0, 0)" stroke-linejoin="miter" d=" M 477.281, 544.256 472.139, 552.833 466.996, 561.409 461.854, 569.986 456.711, 578.562 451.569, 587.139 446.426, 595.715 442.677, 601.968 442.317, 602.897 442.114, 603.921 442.072, 605.043 442.239, 605.934 442.660, 606.841 443.307, 607.749 444.148, 608.643 445.153, 609.507 446.293, 610.325 447.538, 611.082 448.857, 611.764 450.220, 612.353 451.598, 612.836 452.961, 613.195 454.279, 613.416 461.346, 614.148 467.813, 614.677 473.749, 615.036 479.222, 615.261 484.302, 615.386 489.058, 615.446 493.560, 615.477 497.878, 615.513 502.083, 615.590 506.245, 615.742 510.435, 616.006 514.723, 616.418 518.994, 616.965 523.324, 617.629 527.747, 618.390 532.298, 619.232 537.012, 620.136 541.924, 621.086 547.071, 622.062 552.489, 623.048 558.214, 624.025 564.283, 624.977 570.734, 625.886 577.605, 626.733 579.061, 626.842 580.530, 626.844 581.986, 626.740 583.402, 626.533 584.753, 626.224 586.012, 625.817 587.153, 625.314 588.149, 624.717 588.974, 624.028 589.601, 623.250 590.004, 622.386 590.155, 621.437 590.059, 620.209 589.740, 619.091 589.220, 618.074 588.522, 617.148 587.667, 616.303 586.677, 615.531 585.574, 614.820 584.380, 614.161 583.117, 613.544 581.808, 612.959 580.473, 612.396 579.135, 611.846 573.803, 609.772 569.308, 607.804 565.574, 605.894 562.525, 603.993 560.089, 602.055 558.189, 600.031 556.752, 597.874 555.705, 595.535 554.973, 592.966 554.482, 590.118 554.160, 586.942 553.932, 583.389 553.652, 577.296 553.422, 571.197 553.238, 565.091 553.095, 558.973 552.990, 552.840 552.917, 546.688 552.872, 540.515 552.850, 534.315 552.847, 528.086 552.859, 521.825 552.880, 515.526 552.906, 509.187 552.957, 508.078 553.097, 507.081 553.320, 506.196 553.618, 505.419 " />
            <path fill="none" stroke-width="3.0" stroke-linecap="butt" stroke-opacity="1.0" stroke="rgb(0, 0, 0)" stroke-linejoin="miter" d=" M 644.041, 608.716 643.533, 609.897 642.784, 610.997 641.787, 612.013 640.534, 612.944 639.018, 613.787 637.232, 614.540 635.168, 615.200 632.819, 615.766 630.178, 616.236 627.237, 616.608 623.991, 616.878 622.675, 617.065 621.456, 617.330 620.335, 617.676 619.317, 618.103 618.403, 618.615 617.598, 619.211 616.903, 619.895 616.323, 620.667 615.859, 621.530 " />
            <path fill="none" stroke-width="3.0" stroke-linecap="butt" stroke-opacity="1.0" stroke="rgb(0, 0, 0)" stroke-linejoin="miter" d=" M 475.172, 590.370 473.565, 592.177 471.495, 593.675 468.913, 594.895 465.772, 595.870 462.026, 596.631 457.628, 597.211 452.532, 597.642 450.884, 597.783 449.367, 598.006 447.985, 598.311 446.740, 598.700 445.635, 599.176 444.674, 599.739 443.858, 600.391 443.192, 601.133 442.677, 601.968 " />
            <path fill="none" stroke-width="3.0" stroke-linecap="butt" stroke-opacity="1.0" stroke="rgb(0, 0, 0)" stroke-linejoin="miter" d=" M 593.599, 355.475 598.707, 346.878 603.814, 338.280 608.921, 329.683 614.028, 321.085 619.135, 312.488 624.242, 303.890 624.776, 302.992 625.233, 302.098 625.574, 301.072 625.796, 299.901 625.895, 298.571 625.868, 297.525 625.730, 296.561 625.485, 295.680 625.136, 294.883 624.685, 294.169 624.137, 293.540 623.493, 292.995 622.758, 292.536 621.934, 292.161 621.025, 291.871 620.033, 291.667 618.962, 291.549 614.028, 291.248 608.612, 290.976 602.820, 290.726 596.758, 290.494 590.528, 290.274 584.234, 290.062 577.980, 289.852 571.866, 289.639 565.995, 289.418 560.465, 289.184 555.378, 288.932 550.831, 288.656 546.258, 288.302 541.293, 287.846 536.009, 287.309 530.480, 286.710 524.778, 286.070 518.977, 285.409 513.148, 284.746 507.363, 284.101 501.694, 283.495 496.213, 282.946 490.990, 282.475 486.097, 282.101 485.227, 282.095 484.342, 282.190 483.459, 282.385 482.595, 282.674 481.770, 283.055 480.999, 283.524 480.302, 284.079 479.695, 284.715 472.957, 292.104 466.219, 299.493 459.481, 306.882 452.743, 314.272 446.005, 321.661 439.267, 329.050 434.435, 334.349 " />
            <path fill="none" stroke-width="3.0" stroke-linecap="butt" stroke-opacity="1.0" stroke="rgb(0, 0, 0)" stroke-linejoin="miter" d=" M 804.544, 368.180 806.631, 358.401 808.719, 348.621 810.807, 338.841 812.894, 329.062 814.982, 319.282 816.311, 313.055 816.597, 311.687 816.556, 310.612 816.258, 309.612 815.729, 308.690 814.992, 307.846 814.072, 307.083 812.992, 306.402 811.779, 305.806 810.456, 305.295 809.047, 304.872 807.577, 304.539 806.071, 304.297 804.553, 304.147 795.253, 303.542 786.428, 303.016 778.011, 302.555 769.933, 302.144 762.129, 301.770 754.531, 301.419 747.074, 301.078 739.692, 300.731 732.319, 300.367 724.893, 299.971 717.347, 299.530 709.619, 299.030 699.642, 298.351 689.665, 297.672 679.688, 296.993 677.038, 296.813 676.119, 296.805 675.178, 296.900 674.232, 297.096 673.302, 297.390 672.406, 297.777 671.563, 298.254 670.792, 298.819 670.112, 299.467 669.542, 300.195 669.100, 301.001 664.565, 309.913 660.029, 318.825 655.493, 327.737 650.957, 336.649 646.422, 345.562 642.272, 353.716 " />
            <path fill="none" stroke-width="3.0" stroke-linecap="butt" stroke-opacity="1.0" stroke="rgb(0, 0, 0)" stroke-linejoin="miter" d=" M 657.468, 369.070 650.135, 375.869 642.801, 382.667 635.468, 389.466 628.134, 396.264 620.801, 403.062 613.467, 409.861 606.133, 416.659 601.787, 420.689 600.647, 421.470 599.588, 422.203 598.601, 422.884 597.678, 423.506 596.810, 424.066 595.988, 424.559 595.203, 424.979 594.446, 425.322 593.708, 425.583 592.981, 425.757 592.256, 425.839 591.523, 425.826 590.901, 425.738 590.302, 425.581 589.735, 425.352 589.204, 425.047 588.715, 424.662 588.274, 424.193 587.888, 423.638 587.561, 422.991 587.300, 422.250 587.111, 421.410 587.000, 420.468 586.973, 419.419 587.123, 409.420 587.272, 399.421 587.422, 389.422 587.572, 379.423 587.722, 369.425 587.875, 359.182 " />
            <path fill="none" stroke-width="3.0" stroke-linecap="butt" stroke-opacity="1.0" stroke="rgb(0, 0, 0)" stroke-linejoin="miter" d=" M 790.360, 644.128 791.949, 634.255 793.537, 624.382 795.125, 614.509 796.713, 604.636 798.301, 594.763 799.889, 584.889 801.477, 575.016 802.470, 568.845 802.408, 567.670 802.033, 566.593 801.385, 565.606 800.503, 564.703 799.427, 563.875 798.198, 563.114 796.856, 562.414 795.439, 561.765 793.989, 561.161 792.545, 560.594 791.147, 560.055 789.834, 559.537 784.612, 557.516 779.844, 555.432 775.490, 553.285 771.510, 551.072 767.864, 548.792 764.512, 546.442 761.416, 544.021 758.536, 541.528 755.833, 538.959 753.268, 536.315 750.801, 533.592 748.395, 530.791 741.975, 523.123 735.555, 515.456 729.135, 507.789 722.716, 500.122 716.296, 492.454 709.876, 484.787 703.456, 477.120 697.036, 469.453 690.617, 461.786 684.197, 454.118 677.777, 446.451 671.357, 438.784 664.510, 430.606 " />
            <path fill="none" stroke-width="3.0" stroke-linecap="butt" stroke-opacity="1.0" stroke="rgb(0, 0, 0)" stroke-linejoin="miter" d=" M 590.004, 622.386 593.773, 613.124 597.542, 603.861 601.312, 594.599 605.081, 585.336 608.851, 576.074 612.620, 566.812 613.551, 564.525 " />
        </g>
    </g>
</svg>
