<?xml version='1.0' encoding='ascii'?>
<svg xmlns="http://www.w3.org/2000/svg" version="1.1" width="1080" height="1080">
    <g id="View Layer_LineSet" xmlns:inkscape="http://www.inkscape.org/namespaces/inkscape" inkscape:groupmode="lineset" inkscape:label="View Layer_LineSet">
        <g xmlns:inkscape="http://www.inkscape.org/namespaces/inkscape" inkscape:groupmode="layer" id="strokes" inkscape:label="strokes">
            <path fill="none" stroke-width="3.0" stroke-linecap="butt" stroke-opacity="1.0" stroke="rgb(0, 0, 0)" stroke-linejoin="miter" d=" M 559.818, 373.141 561.331, 370.525 563.339, 368.220 565.902, 366.180 569.080, 364.357 572.935, 362.705 577.529, 361.175 582.925, 359.721 586.052, 359.008 589.187, 358.293 590.602, 357.916 591.914, 357.516 593.119, 357.081 594.214, 356.593 595.196, 356.039 596.060, 355.404 596.805, 354.672 597.427, 353.828 597.923, 352.858 598.289, 351.747 598.522, 350.479 598.619, 349.038 598.579, 347.905 598.418, 346.861 598.140, 345.908 597.748, 345.046 597.245, 344.274 596.635, 343.594 595.921, 343.006 595.106, 342.510 594.195, 342.106 593.190, 341.795 592.095, 341.577 590.914, 341.452 586.309, 341.189 585.474, 341.141 579.503, 340.862 577.172, 340.769 573.117, 340.608 566.432, 340.374 559.562, 340.154 552.622, 339.943 545.725, 339.734 538.982, 339.521 532.505, 339.299 526.405, 339.061 520.792, 338.803 515.774, 338.517 510.727, 338.147 505.245, 337.667 499.410, 337.100 493.303, 336.467 487.005, 335.790 480.595, 335.089 474.155, 334.387 467.763, 333.705 461.499, 333.064 455.442, 332.484 449.671, 331.988 444.264, 331.597 443.304, 331.593 442.328, 331.699 441.356, 331.912 440.407, 332.229 439.501, 332.644 438.657, 333.156 437.895, 333.759 437.234, 334.451 436.694, 335.227 436.294, 336.085 436.053, 337.019 435.991, 338.027 436.103, 339.375 436.345, 340.636 436.714, 341.810 437.208, 342.901 437.823, 343.910 438.555, 344.837 439.402, 345.685 440.360, 346.456 441.427, 347.151 442.598, 347.770 443.871, 348.317 445.244, 348.791 451.131, 350.570 456.283, 352.350 460.741, 354.184 464.550, 356.123 467.754, 358.219 470.397, 360.524 472.524, 363.088 474.179, 365.963 475.409, 369.199 476.258, 372.844 476.773, 376.949 476.999, 381.561 477.197, 391.559 477.396, 401.557 477.594, 411.555 477.792, 421.553 477.991, 431.551 478.189, 441.549 478.388, 451.547 478.586, 461.545 478.784, 471.543 478.983, 481.541 479.181, 491.539 479.380, 501.537 479.578, 511.535 479.776, 521.533 479.975, 531.531 480.062, 535.910 480.260, 545.908 480.459, 555.906 480.657, 565.904 480.840, 575.117 480.826, 578.971 480.587, 582.352 480.076, 585.293 479.243, 587.831 " />
            <path fill="none" stroke-width="3.0" stroke-linecap="butt" stroke-opacity="1.0" stroke="rgb(0, 0, 0)" stroke-linejoin="miter" d=" M 624.625, 464.367 625.151, 463.261 625.875, 462.206 626.796, 461.208 627.915, 460.274 635.056, 454.803 642.120, 449.231 649.128, 443.590 656.100, 437.911 663.055, 432.229 665.055, 430.604 670.014, 426.575 676.997, 420.984 684.025, 415.491 691.117, 410.130 698.293, 404.937 705.574, 399.947 712.980, 395.198 717.851, 392.304 722.946, 389.512 728.293, 386.841 733.920, 384.313 739.854, 381.948 746.124, 379.766 752.757, 377.788 759.781, 376.036 767.226, 374.531 775.118, 373.293 783.486, 372.344 792.359, 371.705 793.967, 371.531 795.669, 371.277 797.421, 370.937 799.182, 370.502 800.910, 369.964 802.562, 369.315 804.097, 368.548 805.473, 367.654 806.646, 366.626 807.574, 365.455 808.215, 364.133 808.526, 362.652 808.478, 361.491 808.148, 360.411 807.563, 359.415 806.751, 358.505 805.737, 357.683 804.549, 356.950 803.214, 356.309 801.757, 355.761 800.207, 355.308 798.591, 354.952 796.935, 354.694 795.265, 354.537 785.284, 353.925 785.038, 353.910 775.333, 353.368 766.075, 352.894 757.191, 352.474 748.605, 352.093 740.246, 351.736 732.041, 351.389 723.917, 351.036 715.804, 350.664 707.629, 350.258 699.323, 349.803 690.814, 349.285 687.711, 349.086 677.732, 348.445 675.592, 348.308 665.612, 347.667 655.633, 347.027 654.932, 346.982 653.920, 346.975 652.884, 347.082 651.844, 347.297 650.822, 347.617 649.838, 348.039 648.914, 348.559 648.069, 349.172 647.326, 349.876 646.703, 350.666 646.223, 351.539 645.906, 352.491 645.773, 353.519 645.799, 354.893 645.969, 356.178 646.279, 357.377 646.726, 358.490 647.306, 359.519 648.015, 360.466 648.850, 361.333 649.808, 362.120 650.885, 362.831 652.078, 363.465 653.384, 364.025 654.799, 364.512 657.413, 365.307 658.430, 365.616 661.731, 366.776 664.704, 367.990 667.349, 369.255 669.669, 370.571 671.664, 371.935 673.336, 373.345 674.688, 374.800 675.719, 376.298 676.433, 377.837 676.470, 377.984 676.832, 379.416 676.918, 381.032 676.791, 382.087 676.508, 383.151 " />
            <path fill="none" stroke-width="3.0" stroke-linecap="butt" stroke-opacity="1.0" stroke="rgb(0, 0, 0)" stroke-linejoin="miter" d=" M 676.508, 383.151 676.076, 384.228 675.506, 385.318 674.804, 386.424 673.981, 387.548 673.044, 388.693 672.003, 389.859 670.866, 391.051 669.642, 392.268 668.339, 393.515 666.966, 394.792 659.603, 401.558 652.239, 408.324 648.830, 411.457 641.568, 418.129 634.205, 424.895 626.841, 431.661 619.478, 438.427 612.114, 445.193 604.750, 451.958 597.387, 458.724 590.023, 465.490 584.096, 470.936 576.733, 477.702 573.282, 480.873 572.038, 481.717 570.883, 482.509 569.807, 483.244 568.800, 483.916 567.853, 484.521 566.956, 485.054 566.098, 485.508 565.270, 485.879 565.047, 485.958 564.463, 486.163 563.667, 486.353 562.872, 486.444 562.068, 486.432 561.383, 486.340 560.725, 486.173 560.099, 485.929 559.513, 485.603 558.972, 485.191 558.484, 484.690 558.054, 484.094 557.688, 483.400 557.394, 482.604 557.178, 481.702 557.046, 480.689 557.005, 479.562 557.060, 469.562 557.116, 459.563 557.171, 449.563 557.226, 439.563 557.281, 429.563 557.337, 419.563 557.392, 409.563 557.447, 399.563 557.502, 389.564 557.513, 387.626 557.646, 383.312 558.035, 379.489 558.740, 376.114 559.818, 373.141 " />
            <path fill="none" stroke-width="3.0" stroke-linecap="butt" stroke-opacity="1.0" stroke="rgb(0, 0, 0)" stroke-linejoin="miter" d=" M 631.532, 579.026 628.622, 588.593 625.713, 598.160 622.803, 607.728 619.894, 617.295 619.124, 619.827 618.902, 620.875 618.806, 622.016 618.873, 622.890 619.111, 623.726 619.500, 624.519 620.021, 625.262 620.657, 625.950 621.388, 626.577 622.196, 627.137 623.062, 627.625 623.968, 628.034 624.896, 628.358 625.826, 628.592 626.740, 628.730 631.962, 629.199 637.070, 629.587 642.093, 629.913 647.058, 630.191 651.993, 630.438 656.925, 630.671 661.882, 630.907 666.893, 631.160 671.985, 631.450 677.186, 631.790 682.524, 632.200 688.028, 632.695 695.321, 633.457 702.584, 634.314 709.819, 635.246 717.028, 636.234 724.214, 637.259 731.377, 638.302 738.522, 639.344 745.652, 640.365 752.768, 641.347 759.875, 642.269 766.976, 643.113 774.075, 643.859 777.097, 644.088 779.877, 644.167 782.414, 644.105 784.704, 643.909 786.744, 643.588 788.533, 643.149 790.067, 642.602 791.345, 641.953 792.362, 641.211 793.117, 640.383 793.607, 639.479 793.829, 638.506 793.758, 637.256 793.346, 636.111 792.636, 635.064 791.671, 634.107 790.495, 633.230 789.152, 632.426 787.685, 631.686 786.138, 631.002 784.554, 630.366 782.977, 629.768 781.450, 629.200 780.016, 628.654 774.311, 626.525 769.100, 624.328 764.340, 622.060 759.987, 619.720 755.998, 617.306 752.329, 614.817 748.938, 612.250 745.782, 609.604 742.818, 606.878 740.004, 604.069 737.297, 601.176 734.655, 598.197 728.113, 590.633 721.571, 583.070 715.029, 575.507 708.488, 567.943 701.946, 560.380 695.404, 552.816 688.862, 545.253 682.321, 537.689 675.779, 530.126 669.237, 522.562 662.695, 514.999 656.154, 507.436 649.612, 499.872 643.070, 492.309 636.528, 484.745 629.987, 477.182 627.516, 474.325 626.464, 473.029 625.610, 471.735 624.953, 470.450 624.494, 469.180 624.231, 467.930 624.165, 466.707 624.297, 465.518 624.625, 464.367 " />
            <path fill="none" stroke-width="3.0" stroke-linecap="butt" stroke-opacity="1.0" stroke="rgb(0, 0, 0)" stroke-linejoin="miter" d=" M 557.109, 503.953 557.480, 503.279 557.914, 502.708 558.406, 502.239 558.948, 501.871 559.535, 501.600 560.160, 501.426 560.817, 501.346 561.499, 501.358 562.316, 501.470 563.151, 501.674 564.005, 501.972 564.878, 502.364 565.769, 502.852 566.679, 503.437 567.606, 504.122 568.552, 504.907 569.516, 505.794 570.498, 506.783 571.498, 507.877 572.515, 509.077 578.964, 516.720 585.412, 524.363 587.052, 526.307 590.897, 530.864 597.346, 538.507 603.795, 546.150 609.445, 552.847 614.188, 558.469 620.636, 566.112 627.085, 573.755 631.532, 579.026 637.980, 586.669 640.719, 589.914 641.885, 591.329 642.954, 592.700 643.926, 594.031 644.798, 595.323 645.568, 596.576 646.236, 597.792 646.800, 598.972 647.258, 600.118 647.609, 601.230 647.851, 602.311 647.983, 603.361 648.002, 604.381 647.726, 605.641 " />
            <path fill="none" stroke-width="3.0" stroke-linecap="butt" stroke-opacity="1.0" stroke="rgb(0, 0, 0)" stroke-linejoin="miter" d=" M 480.062, 535.910 475.407, 544.760 470.752, 553.611 466.097, 562.461 461.442, 571.312 456.787, 580.162 452.132, 589.013 447.477, 597.863 445.240, 602.116 444.875, 603.051 444.670, 604.079 444.626, 605.202 444.793, 606.091 445.217, 606.992 445.869, 607.890 446.717, 608.771 447.731, 609.619 448.881, 610.420 450.136, 611.158 451.467, 611.818 452.842, 612.386 454.233, 612.846 455.608, 613.184 456.937, 613.384 464.067, 614.002 470.590, 614.426 476.576, 614.689 482.094, 614.825 487.215, 614.868 492.008, 614.851 496.545, 614.809 500.895, 614.775 505.131, 614.783 509.322, 614.869 513.541, 615.065 517.859, 615.406 522.158, 615.884 526.515, 616.477 530.964, 617.166 535.542, 617.933 540.283, 618.760 545.223, 619.628 550.398, 620.519 555.844, 621.415 561.597, 622.298 567.695, 623.149 574.175, 623.951 581.075, 624.684 582.537, 624.769 584.012, 624.747 585.474, 624.619 586.897, 624.389 588.253, 624.059 589.518, 623.633 590.664, 623.112 591.664, 622.500 592.493, 621.799 593.123, 621.013 593.528, 620.144 593.681, 619.195 593.586, 617.971 593.267, 616.860 592.747, 615.854 592.047, 614.941 591.189, 614.112 590.196, 613.357 589.090, 612.666 587.892, 612.027 586.625, 611.432 585.310, 610.870 583.971, 610.330 582.628, 609.802 577.275, 607.818 572.762, 605.925 569.013, 604.078 565.952, 602.229 563.505, 600.333 561.599, 598.343 560.157, 596.211 559.107, 593.893 558.374, 591.339 557.884, 588.504 557.563, 585.338 557.338, 581.794 557.063, 575.714 556.839, 569.629 556.661, 563.535 556.524, 557.429 556.425, 551.307 556.358, 545.166 556.320, 539.003 556.305, 532.814 556.309, 526.595 556.328, 520.343 556.356, 514.054 556.389, 507.725 556.442, 506.617 556.584, 505.620 556.808, 504.733 557.109, 503.953 " />
            <path fill="none" stroke-width="3.0" stroke-linecap="butt" stroke-opacity="1.0" stroke="rgb(0, 0, 0)" stroke-linejoin="miter" d=" M 479.243, 587.831 478.040, 589.999 476.417, 591.832 474.328, 593.362 471.722, 594.623 468.553, 595.648 464.773, 596.469 460.335, 597.119 455.193, 597.630 453.529, 597.798 451.998, 598.044 450.602, 598.372 449.345, 598.781 448.230, 599.274 447.258, 599.853 446.434, 600.518 445.761, 601.272 445.240, 602.116 " />
            <path fill="none" stroke-width="3.0" stroke-linecap="butt" stroke-opacity="1.0" stroke="rgb(0, 0, 0)" stroke-linejoin="miter" d=" M 647.726, 605.641 647.216, 606.826 646.465, 607.935 645.465, 608.963 644.209, 609.911 642.690, 610.776 640.899, 611.555 638.830, 612.246 636.476, 612.849 633.829, 613.360 630.881, 613.777 627.627, 614.100 626.308, 614.307 625.085, 614.591 623.961, 614.954 622.940, 615.397 622.023, 615.921 621.215, 616.530 620.518, 617.223 619.935, 618.002 619.469, 618.870 619.124, 619.827 " />
            <path fill="none" stroke-width="3.0" stroke-linecap="butt" stroke-opacity="1.0" stroke="rgb(0, 0, 0)" stroke-linejoin="miter" d=" M 597.923, 352.858 602.303, 343.869 606.684, 334.880 611.065, 325.890 615.446, 316.901 619.827, 307.912 623.481, 300.412 623.822, 299.387 624.043, 298.217 624.142, 296.891 624.114, 295.847 623.975, 294.888 623.729, 294.012 623.379, 293.221 622.927, 292.514 622.377, 291.892 621.732, 291.355 620.995, 290.904 620.170, 290.538 619.258, 290.258 618.265, 290.065 617.192, 289.957 612.248, 289.706 606.820, 289.486 601.014, 289.293 594.935, 289.121 588.686, 288.962 582.373, 288.812 576.097, 288.663 569.961, 288.510 564.067, 288.346 558.515, 288.167 553.405, 287.964 548.837, 287.733 544.243, 287.424 539.254, 287.017 533.943, 286.532 528.384, 285.987 522.650, 285.403 516.815, 284.799 510.950, 284.193 505.129, 283.604 499.424, 283.053 493.906, 282.557 488.647, 282.136 483.719, 281.809 482.843, 281.812 481.952, 281.916 481.062, 282.118 480.193, 282.416 479.361, 282.805 478.585, 283.281 477.883, 283.842 477.272, 284.484 471.019, 292.288 464.766, 300.092 458.513, 307.896 452.260, 315.699 446.006, 323.503 439.753, 331.307 437.234, 334.451 " />
            <path fill="none" stroke-width="3.0" stroke-linecap="butt" stroke-opacity="1.0" stroke="rgb(0, 0, 0)" stroke-linejoin="miter" d=" M 808.526, 362.652 809.605, 352.711 810.684, 342.769 811.763, 332.828 812.842, 322.886 813.921, 312.944 814.454, 308.041 814.412, 306.974 814.115, 305.984 813.588, 305.073 812.855, 304.242 811.939, 303.493 810.866, 302.828 809.658, 302.247 808.342, 301.754 806.941, 301.348 805.479, 301.031 803.981, 300.805 802.471, 300.671 793.218, 300.163 784.436, 299.727 776.056, 299.352 768.012, 299.024 760.237, 298.729 752.666, 298.455 745.233, 298.189 737.872, 297.918 730.519, 297.628 723.110, 297.308 715.580, 296.943 707.866, 296.522 697.882, 295.943 687.899, 295.364 677.916, 294.785 675.316, 294.634 674.398, 294.635 673.456, 294.740 672.511, 294.944 671.581, 295.246 670.686, 295.640 669.843, 296.124 669.073, 296.694 668.393, 297.346 667.824, 298.077 667.383, 298.884 663.654, 308.163 659.925, 317.442 656.197, 326.721 652.468, 335.999 648.739, 345.278 646.223, 351.539 " />
            <path fill="none" stroke-width="3.0" stroke-linecap="butt" stroke-opacity="1.0" stroke="rgb(0, 0, 0)" stroke-linejoin="miter" d=" M 657.413, 365.307 650.109, 372.137 642.805, 378.967 635.501, 385.797 628.196, 392.627 620.892, 399.457 613.588, 406.287 606.284, 413.117 600.063, 418.935 598.920, 419.729 597.859, 420.473 596.870, 421.164 595.945, 421.796 595.075, 422.366 594.250, 422.867 593.463, 423.296 592.704, 423.647 591.964, 423.917 591.235, 424.100 590.508, 424.191 589.773, 424.186 589.149, 424.106 588.548, 423.957 587.979, 423.736 587.446, 423.438 586.955, 423.060 586.513, 422.598 586.125, 422.048 585.797, 421.407 585.535, 420.671 585.345, 419.835 585.232, 418.896 585.204, 417.850 585.348, 407.851 585.492, 397.852 585.636, 387.853 585.780, 377.854 585.924, 367.855 586.052, 359.008 " />
            <path fill="none" stroke-width="3.0" stroke-linecap="butt" stroke-opacity="1.0" stroke="rgb(0, 0, 0)" stroke-linejoin="miter" d=" M 793.829, 638.506 794.731, 628.547 795.632, 618.588 796.533, 608.628 797.434, 598.669 798.336, 588.710 799.237, 578.751 800.138, 568.791 800.599, 563.700 800.536, 562.534 800.162, 561.469 799.516, 560.498 798.638, 559.613 797.568, 558.806 796.344, 558.069 795.008, 557.393 793.598, 556.770 792.154, 556.191 790.717, 555.648 789.325, 555.134 788.018, 554.638 782.818, 552.707 778.069, 550.706 773.731, 548.636 769.766, 546.495 766.132, 544.281 762.792, 541.993 759.705, 539.631 756.833, 537.193 754.137, 534.678 751.578, 532.084 749.118, 529.412 746.717, 526.660 740.240, 519.041 733.762, 511.422 727.285, 503.803 720.808, 496.184 714.331, 488.565 707.854, 480.946 701.377, 473.328 694.900, 465.709 688.423, 458.090 681.945, 450.471 675.468, 442.852 668.991, 435.233 665.055, 430.604 " />
            <path fill="none" stroke-width="3.0" stroke-linecap="butt" stroke-opacity="1.0" stroke="rgb(0, 0, 0)" stroke-linejoin="miter" d=" M 590.897, 530.864 590.156, 530.282 588.424, 528.440 587.120, 526.462 587.052, 526.307 " />
            <path fill="none" stroke-width="3.0" stroke-linecap="butt" stroke-opacity="1.0" stroke="rgb(0, 0, 0)" stroke-linejoin="miter" d=" M 593.528, 620.144 596.705, 610.662 599.881, 601.179 603.057, 591.697 606.233, 582.215 609.410, 572.733 612.586, 563.251 614.188, 558.469 " />
        </g>
    </g>
</svg>
