<?xml version='1.0' encoding='ascii'?>
<svg xmlns="http://www.w3.org/2000/svg" version="1.1" width="1080" height="1080">
    <g id="View Layer_LineSet" xmlns:inkscape="http://www.inkscape.org/namespaces/inkscape" inkscape:groupmode="lineset" inkscape:label="View Layer_LineSet">
        <g xmlns:inkscape="http://www.inkscape.org/namespaces/inkscape" inkscape:groupmode="layer" id="strokes" inkscape:label="strokes">
            <path fill="none" stroke-width="3.0" stroke-linecap="butt" stroke-opacity="1.0" stroke="rgb(0, 0, 0)" stroke-linejoin="miter" d=" M 563.405, 371.807 564.926, 369.179 566.944, 366.856 569.517, 364.790 572.708, 362.935 576.578, 361.242 581.187, 359.664 584.059, 358.862 586.600, 358.152 592.880, 356.658 594.300, 356.265 595.615, 355.852 596.824, 355.404 597.922, 354.905 598.906, 354.341 599.773, 353.698 600.520, 352.960 601.144, 352.112 601.642, 351.139 602.010, 350.026 602.245, 348.759 602.344, 347.321 602.305, 346.192 602.145, 345.153 601.867, 344.205 601.475, 343.349 600.972, 342.586 600.361, 341.914 599.646, 341.336 598.831, 340.850 597.917, 340.457 596.911, 340.158 595.814, 339.952 594.630, 339.841 589.176, 339.590 584.327, 339.417 583.189, 339.377 577.480, 339.213 576.784, 339.193 570.077, 339.033 563.184, 338.889 556.218, 338.754 549.292, 338.620 542.520, 338.482 536.014, 338.331 529.884, 338.160 524.242, 337.963 519.198, 337.733 514.123, 337.418 508.610, 336.999 502.741, 336.496 496.597, 335.930 490.258, 335.321 483.806, 334.691 477.322, 334.059 470.884, 333.447 464.574, 332.873 458.470, 332.360 452.654, 331.926 447.203, 331.593 446.235, 331.599 445.251, 331.716 444.270, 331.940 443.313, 332.266 442.398, 332.692 441.547, 333.213 440.777, 333.825 440.110, 334.524 439.564, 335.307 439.160, 336.169 438.916, 337.107 438.852, 338.116 438.963, 339.463 439.206, 340.721 439.578, 341.893 440.074, 342.979 440.693, 343.981 441.431, 344.901 442.284, 345.740 443.249, 346.500 444.324, 347.183 445.504, 347.790 446.788, 348.322 448.171, 348.782 454.105, 350.495 459.295, 352.218 463.786, 354.002 467.622, 355.898 470.847, 357.957 473.507, 360.232 475.646, 362.771 477.310, 365.626 478.545, 368.847 479.396, 372.482 479.910, 376.579 480.132, 381.187 480.321, 391.185 480.509, 401.183 480.698, 411.182 480.886, 421.180 481.075, 431.178 481.263, 441.176 481.452, 451.174 481.640, 461.173 481.829, 471.171 482.017, 481.169 482.206, 491.167 482.394, 501.166 482.583, 511.164 482.771, 521.162 482.931, 529.642 483.120, 539.640 483.142, 540.849 483.331, 550.847 483.520, 560.845 483.708, 570.843 483.780, 574.651 483.761, 578.505 483.517, 581.888 482.999, 584.838 482.157, 587.389 " />
            <path fill="none" stroke-width="3.0" stroke-linecap="butt" stroke-opacity="1.0" stroke="rgb(0, 0, 0)" stroke-linejoin="miter" d=" M 627.941, 463.143 628.271, 461.991 628.799, 460.881 629.524, 459.820 630.447, 458.814 631.568, 457.868 638.721, 452.320 645.795, 446.674 652.811, 440.962 659.789, 435.214 665.410, 430.570 666.748, 429.465 673.709, 423.746 680.692, 418.091 687.717, 412.534 694.804, 407.109 701.973, 401.853 709.245, 396.798 716.638, 391.983 721.500, 389.046 726.584, 386.208 731.917, 383.488 737.529, 380.907 743.445, 378.485 749.694, 376.242 756.303, 374.199 763.300, 372.376 770.713, 370.793 778.568, 369.472 786.895, 368.433 795.720, 367.697 797.319, 367.505 799.011, 367.234 800.754, 366.876 802.505, 366.424 804.223, 365.870 805.866, 365.206 807.393, 364.427 808.760, 363.524 809.927, 362.489 810.851, 361.315 811.489, 359.995 811.799, 358.522 811.752, 357.369 811.426, 356.300 810.846, 355.318 810.039, 354.423 809.033, 353.618 807.852, 352.903 806.526, 352.281 805.079, 351.753 803.538, 351.320 801.932, 350.985 800.285, 350.747 798.626, 350.610 788.638, 350.110 788.456, 350.101 778.802, 349.670 769.588, 349.302 760.743, 348.983 752.193, 348.699 743.865, 348.437 735.688, 348.183 727.590, 347.922 719.499, 347.642 711.344, 347.328 703.056, 346.967 694.563, 346.546 688.024, 346.200 678.038, 345.671 674.101, 345.463 664.115, 344.934 658.714, 344.649 657.702, 344.654 656.666, 344.771 655.626, 344.997 654.604, 345.327 653.620, 345.758 652.694, 346.286 651.849, 346.907 651.105, 347.616 650.482, 348.410 650.001, 349.285 649.683, 350.238 649.548, 351.263 649.573, 352.632 649.741, 353.910 650.050, 355.101 650.496, 356.205 651.075, 357.224 651.783, 358.159 652.618, 359.013 653.575, 359.787 654.652, 360.482 655.844, 361.100 657.021, 361.590 657.149, 361.643 658.563, 362.112 662.192, 363.171 665.491, 364.289 668.461, 365.464 671.104, 366.693 673.421, 367.977 675.413, 369.312 677.082, 370.697 678.431, 372.131 678.443, 372.147 679.460, 373.610 680.172, 375.135 680.569, 376.702 680.652, 378.310 680.525, 379.362 " />
            <path fill="none" stroke-width="3.0" stroke-linecap="butt" stroke-opacity="1.0" stroke="rgb(0, 0, 0)" stroke-linejoin="miter" d=" M 680.525, 379.362 680.241, 380.425 679.809, 381.502 679.237, 382.594 678.536, 383.704 677.712, 384.833 676.775, 385.984 675.733, 387.158 674.596, 388.358 673.371, 389.585 672.068, 390.842 670.695, 392.130 663.361, 398.927 656.026, 405.725 649.331, 411.930 641.996, 418.728 639.606, 420.943 632.271, 427.740 624.936, 434.538 617.602, 441.335 610.267, 448.133 602.933, 454.930 595.598, 461.727 588.264, 468.525 582.175, 474.168 576.799, 479.150 575.550, 480.010 574.390, 480.816 573.310, 481.565 572.299, 482.250 571.348, 482.866 570.446, 483.410 569.585, 483.875 568.754, 484.258 567.944, 484.552 567.145, 484.752 566.795, 484.797 566.346, 484.854 565.539, 484.853 564.852, 484.771 564.192, 484.614 563.564, 484.379 562.976, 484.062 562.434, 483.658 561.944, 483.164 561.513, 482.575 561.147, 481.888 560.853, 481.097 560.637, 480.200 560.505, 479.191 560.465, 478.066 560.532, 468.066 560.598, 458.067 560.665, 448.067 560.731, 438.067 560.798, 428.067 560.864, 418.067 560.931, 408.068 560.997, 398.068 561.064, 388.068 561.075, 386.292 561.214, 381.984 561.609, 378.164 562.319, 374.787 563.405, 371.807 " />
            <path fill="none" stroke-width="3.0" stroke-linecap="butt" stroke-opacity="1.0" stroke="rgb(0, 0, 0)" stroke-linejoin="miter" d=" M 632.691, 573.421 630.439, 583.164 628.186, 592.907 625.933, 602.650 623.680, 612.393 622.600, 617.067 622.376, 618.116 622.279, 619.255 622.345, 620.126 622.582, 620.956 622.971, 621.740 623.492, 622.472 624.128, 623.148 624.860, 623.761 625.668, 624.306 626.535, 624.778 627.442, 625.170 628.370, 625.478 629.301, 625.696 630.216, 625.818 635.443, 626.198 640.555, 626.501 645.581, 626.741 650.548, 626.935 655.483, 627.100 660.415, 627.249 665.372, 627.401 670.380, 627.570 675.469, 627.773 680.666, 628.026 685.999, 628.344 691.495, 628.745 698.777, 629.382 706.027, 630.114 713.246, 630.920 720.438, 631.783 727.603, 632.683 734.745, 633.601 741.867, 634.517 748.971, 635.413 756.060, 636.269 763.137, 637.067 770.207, 637.786 777.272, 638.408 780.279, 638.584 783.046, 638.616 785.570, 638.511 787.848, 638.278 789.879, 637.924 791.658, 637.458 793.185, 636.888 794.456, 636.222 795.469, 635.467 796.221, 634.633 796.709, 633.726 796.931, 632.756 796.861, 631.514 796.452, 630.384 795.747, 629.355 794.788, 628.419 793.620, 627.568 792.284, 626.791 790.826, 626.081 789.288, 625.427 787.712, 624.820 786.144, 624.252 784.625, 623.714 783.199, 623.195 777.523, 621.173 772.339, 619.074 767.603, 616.898 763.270, 614.643 759.300, 612.308 755.648, 609.892 752.272, 607.395 749.130, 604.815 746.180, 602.151 743.378, 599.402 740.683, 596.568 738.052, 593.647 731.455, 586.132 724.857, 578.617 718.260, 571.102 711.663, 563.587 705.065, 556.072 698.468, 548.557 691.871, 541.042 685.273, 533.527 678.676, 526.012 672.079, 518.497 665.481, 510.982 658.884, 503.466 652.287, 495.951 645.690, 488.436 639.092, 480.921 632.495, 473.406 631.154, 471.879 630.103, 470.601 629.249, 469.323 628.593, 468.051 628.134, 466.791 627.872, 465.549 627.808, 464.331 627.941, 463.143 " />
            <path fill="none" stroke-width="3.0" stroke-linecap="butt" stroke-opacity="1.0" stroke="rgb(0, 0, 0)" stroke-linejoin="miter" d=" M 560.240, 503.195 560.543, 502.412 560.916, 501.734 561.353, 501.158 561.847, 500.683 562.392, 500.308 562.981, 500.029 563.609, 499.846 564.268, 499.757 564.952, 499.759 565.772, 499.860 566.610, 500.052 567.467, 500.337 568.343, 500.716 569.237, 501.190 570.149, 501.762 571.079, 502.432 572.027, 503.202 572.993, 504.073 573.977, 505.047 574.979, 506.124 575.999, 507.307 582.508, 514.898 583.054, 515.535 589.564, 523.126 596.073, 530.717 599.214, 534.380 605.723, 541.971 612.150, 549.466 614.231, 551.893 620.741, 559.484 627.250, 567.076 632.691, 573.421 639.201, 581.012 644.247, 586.897 645.412, 588.288 646.481, 589.638 647.452, 590.949 648.323, 592.223 649.092, 593.459 649.759, 594.660 650.322, 595.827 650.779, 596.962 651.129, 598.065 651.370, 599.138 651.500, 600.182 651.519, 601.198 " />
            <path fill="none" stroke-width="3.0" stroke-linecap="butt" stroke-opacity="1.0" stroke="rgb(0, 0, 0)" stroke-linejoin="miter" d=" M 482.931, 529.642 482.030, 530.065 481.125, 530.629 480.355, 531.271 479.724, 531.993 479.232, 532.795 475.116, 541.909 471.000, 551.022 466.884, 560.136 462.768, 569.249 458.651, 578.363 454.535, 587.476 450.419, 596.590 447.874, 602.225 447.505, 603.167 447.296, 604.199 447.251, 605.323 447.418, 606.210 447.845, 607.104 448.501, 607.993 449.355, 608.860 450.377, 609.692 451.535, 610.474 452.800, 611.192 454.141, 611.831 455.527, 612.376 456.928, 612.814 458.314, 613.129 459.654, 613.307 466.839, 613.808 473.411, 614.124 479.440, 614.289 484.998, 614.334 490.154, 614.292 494.979, 614.196 499.545, 614.079 503.923, 613.974 508.185, 613.912 512.401, 613.928 516.644, 614.055 520.986, 614.325 525.307, 614.732 529.687, 615.252 534.158, 615.867 538.758, 616.558 543.520, 617.305 548.482, 618.090 553.678, 618.894 559.145, 619.699 564.919, 620.485 571.039, 621.233 577.540, 621.925 584.461, 622.542 585.927, 622.604 587.407, 622.557 588.873, 622.405 590.300, 622.152 591.660, 621.800 592.929, 621.353 594.078, 620.815 595.082, 620.187 595.913, 619.475 596.546, 618.680 596.953, 617.806 597.107, 616.857 597.013, 615.637 596.695, 614.534 596.174, 613.539 595.473, 612.640 594.615, 611.827 593.620, 611.090 592.511, 610.418 591.311, 609.801 590.041, 609.228 588.723, 608.688 587.380, 608.171 586.034, 607.666 580.668, 605.774 576.142, 603.959 572.382, 602.176 569.312, 600.380 566.859, 598.526 564.947, 596.570 563.502, 594.466 562.451, 592.168 561.718, 589.631 561.229, 586.807 560.911, 583.652 560.688, 580.117 560.419, 574.052 560.201, 567.981 560.028, 561.900 559.898, 555.806 559.805, 549.696 559.745, 543.566 559.713, 537.414 559.705, 531.235 559.716, 525.027 559.741, 518.785 559.776, 512.507 559.816, 506.189 559.871, 505.082 560.014, 504.084 560.240, 503.195 " />
            <path fill="none" stroke-width="3.0" stroke-linecap="butt" stroke-opacity="1.0" stroke="rgb(0, 0, 0)" stroke-linejoin="miter" d=" M 482.157, 587.389 480.943, 589.576 479.307, 591.434 477.200, 592.998 474.575, 594.301 471.381, 595.377 467.571, 596.259 463.098, 596.981 457.914, 597.575 456.236, 597.770 454.693, 598.042 453.285, 598.392 452.017, 598.822 450.892, 599.333 449.912, 599.928 449.080, 600.607 448.400, 601.372 447.874, 602.225 " />
            <path fill="none" stroke-width="3.0" stroke-linecap="butt" stroke-opacity="1.0" stroke="rgb(0, 0, 0)" stroke-linejoin="miter" d=" M 651.519, 601.198 651.241, 602.458 650.730, 603.648 649.977, 604.764 648.976, 605.806 647.719, 606.771 646.198, 607.657 644.405, 608.463 642.334, 609.186 639.978, 609.825 637.328, 610.378 634.378, 610.842 631.119, 611.217 629.799, 611.445 628.574, 611.749 627.448, 612.129 626.425, 612.587 625.507, 613.125 624.697, 613.745 623.998, 614.447 623.414, 615.234 622.946, 616.107 622.600, 617.067 " />
            <path fill="none" stroke-width="3.0" stroke-linecap="butt" stroke-opacity="1.0" stroke="rgb(0, 0, 0)" stroke-linejoin="miter" d=" M 601.642, 351.139 605.188, 341.789 608.733, 332.438 612.279, 323.088 615.825, 313.738 619.370, 304.388 621.521, 298.718 621.861, 297.691 622.081, 296.523 622.179, 295.200 622.150, 294.160 622.011, 293.205 621.764, 292.334 621.413, 291.549 620.960, 290.849 620.410, 290.234 619.764, 289.706 619.026, 289.263 618.199, 288.906 617.287, 288.637 616.293, 288.453 615.219, 288.357 610.269, 288.155 604.834, 287.990 599.020, 287.855 592.930, 287.743 586.669, 287.646 580.342, 287.559 574.051, 287.472 567.898, 287.380 561.986, 287.275 556.416, 287.151 551.289, 286.999 546.705, 286.814 542.093, 286.550 537.083, 286.193 531.750, 285.761 526.166, 285.272 520.406, 284.745 514.542, 284.198 508.647, 283.651 502.795, 283.120 497.057, 282.625 491.507, 282.183 486.216, 281.814 481.257, 281.536 480.376, 281.547 479.479, 281.659 478.584, 281.871 477.709, 282.177 476.872, 282.574 476.091, 283.058 475.385, 283.626 474.770, 284.273 474.266, 284.997 468.588, 293.229 462.910, 301.461 457.232, 309.692 451.554, 317.924 445.876, 326.156 440.198, 334.388 439.564, 335.307 " />
            <path fill="none" stroke-width="3.0" stroke-linecap="butt" stroke-opacity="1.0" stroke="rgb(0, 0, 0)" stroke-linejoin="miter" d=" M 811.799, 358.522 811.819, 348.522 811.838, 338.522 811.857, 328.522 811.876, 318.522 811.896, 308.522 811.904, 304.372 811.861, 303.312 811.566, 302.332 811.042, 301.433 810.313, 300.615 809.403, 299.881 808.336, 299.231 807.137, 298.666 805.829, 298.189 804.436, 297.800 802.984, 297.500 801.496, 297.291 799.995, 297.173 790.800, 296.761 782.069, 296.416 773.735, 296.127 765.733, 295.881 757.996, 295.666 750.460, 295.470 743.059, 295.280 735.727, 295.084 728.402, 294.869 721.018, 294.624 713.511, 294.337 705.818, 293.994 695.830, 293.516 685.841, 293.039 675.852, 292.561 673.333, 292.440 672.416, 292.450 671.476, 292.564 670.532, 292.777 669.604, 293.086 668.709, 293.488 667.868, 293.978 667.099, 294.554 666.421, 295.210 665.853, 295.944 665.413, 296.752 665.120, 297.630 662.304, 307.225 659.489, 316.821 656.673, 326.416 653.857, 336.011 651.042, 345.607 649.683, 350.238 " />
            <path fill="none" stroke-width="3.0" stroke-linecap="butt" stroke-opacity="1.0" stroke="rgb(0, 0, 0)" stroke-linejoin="miter" d=" M 657.021, 361.590 649.751, 368.456 642.480, 375.321 635.209, 382.187 627.938, 389.052 620.667, 395.918 613.396, 402.783 606.126, 409.649 598.855, 416.514 598.157, 417.173 597.013, 417.979 595.950, 418.735 594.960, 419.437 594.034, 420.079 593.162, 420.658 592.337, 421.169 591.548, 421.606 590.788, 421.967 590.047, 422.245 589.316, 422.436 588.588, 422.537 587.851, 422.541 587.225, 422.469 586.624, 422.328 586.053, 422.114 585.518, 421.824 585.027, 421.453 584.583, 420.997 584.193, 420.454 583.864, 419.818 583.601, 419.087 583.410, 418.255 583.297, 417.320 583.268, 416.276 583.406, 406.277 583.544, 396.278 583.681, 386.279 583.819, 376.280 583.957, 366.281 584.059, 358.862 " />
            <path fill="none" stroke-width="3.0" stroke-linecap="butt" stroke-opacity="1.0" stroke="rgb(0, 0, 0)" stroke-linejoin="miter" d=" M 796.931, 632.756 797.121, 622.757 797.311, 612.759 797.501, 602.761 797.692, 592.763 797.882, 582.765 798.072, 572.766 798.262, 562.768 798.343, 558.518 798.280, 557.359 797.908, 556.307 797.265, 555.352 796.392, 554.486 795.327, 553.701 794.111, 552.986 792.781, 552.335 791.380, 551.737 789.944, 551.183 788.514, 550.666 787.130, 550.175 785.831, 549.703 780.658, 547.861 775.933, 545.944 771.617, 543.951 767.670, 541.881 764.053, 539.734 760.727, 537.509 757.652, 535.206 754.792, 532.823 752.106, 530.362 749.556, 527.820 747.104, 525.198 744.711, 522.495 738.179, 514.923 731.647, 507.352 725.115, 499.780 718.583, 492.208 712.051, 484.636 705.519, 477.064 698.987, 469.492 692.455, 461.920 685.923, 454.348 679.391, 446.777 672.859, 439.205 666.327, 431.633 665.410, 430.570 " />
            <path fill="none" stroke-width="3.0" stroke-linecap="butt" stroke-opacity="1.0" stroke="rgb(0, 0, 0)" stroke-linejoin="miter" d=" M 599.214, 534.380 596.768, 533.397 593.338, 531.760 590.541, 530.107 588.308, 528.394 586.571, 526.581 585.263, 524.627 584.315, 522.488 583.662, 520.124 583.234, 517.492 583.054, 515.535 " />
            <path fill="none" stroke-width="3.0" stroke-linecap="butt" stroke-opacity="1.0" stroke="rgb(0, 0, 0)" stroke-linejoin="miter" d=" M 596.953, 617.806 599.489, 608.133 602.024, 598.460 604.560, 588.787 607.096, 579.113 609.632, 569.440 612.167, 559.767 614.231, 551.893 " />
        </g>
    </g>
</svg>
