<?xml version='1.0' encoding='ascii'?>
<svg xmlns="http://www.w3.org/2000/svg" version="1.1" width="1080" height="1080">
    <g id="View Layer_LineSet" xmlns:inkscape="http://www.inkscape.org/namespaces/inkscape" inkscape:groupmode="lineset" inkscape:label="View Layer_LineSet">
        <g xmlns:inkscape="http://www.inkscape.org/namespaces/inkscape" inkscape:groupmode="layer" id="strokes" inkscape:label="strokes">
            <path fill="none" stroke-width="3.0" stroke-linecap="butt" stroke-opacity="1.0" stroke="rgb(0, 0, 0)" stroke-linejoin="miter" d=" M 571.822, 373.809 572.545, 370.428 573.643, 367.428 575.177, 364.763 576.976, 362.654 577.207, 362.383 579.793, 360.240 582.996, 358.285 586.876, 356.469 591.495, 354.741 596.914, 353.052 603.195, 351.351 604.615, 350.912 605.930, 350.457 607.138, 349.970 608.236, 349.438 609.221, 348.845 610.089, 348.177 610.837, 347.420 611.462, 346.558 611.962, 345.577 612.333, 344.462 612.571, 343.197 612.674, 341.769 612.639, 340.651 612.482, 339.627 612.208, 338.697 611.819, 337.863 611.319, 337.123 610.712, 336.478 610.000, 335.928 609.187, 335.474 608.276, 335.116 607.272, 334.854 606.177, 334.687 604.995, 334.616 599.546, 334.551 593.560, 334.541 587.151, 334.576 580.434, 334.643 577.300, 334.684 576.222, 334.698 573.524, 334.733 566.536, 334.834 559.582, 334.935 552.776, 335.026 546.232, 335.096 540.063, 335.134 534.380, 335.130 529.296, 335.071 524.178, 334.930 518.615, 334.699 512.688, 334.396 506.479, 334.040 500.069, 333.648 493.539, 333.237 486.970, 332.826 480.444, 332.431 474.041, 332.072 467.844, 331.765 461.933, 331.528 456.390, 331.379 455.405, 331.418 454.403, 331.568 453.404, 331.825 452.428, 332.185 451.496, 332.642 450.627, 333.192 449.842, 333.831 449.160, 334.553 448.601, 335.355 448.186, 336.232 447.935, 337.179 447.866, 338.192 447.975, 339.537 448.218, 340.789 448.592, 341.948 449.095, 343.018 449.721, 344.000 450.469, 344.896 451.335, 345.706 452.315, 346.434 453.407, 347.080 454.607, 347.646 455.911, 348.134 457.317, 348.546 463.346, 350.053 468.616, 351.594 473.171, 353.219 477.059, 354.980 480.325, 356.924 483.016, 359.102 485.176, 361.563 486.854, 364.356 488.095, 367.528 488.946, 371.128 489.453, 375.202 489.663, 379.795 489.822, 389.794 489.980, 399.793 490.138, 409.792 490.297, 419.790 490.455, 429.789 490.614, 439.788 490.772, 449.787 490.931, 459.785 491.089, 469.784 491.248, 479.783 491.406, 489.782 491.564, 499.780 491.723, 509.779 491.881, 519.778 491.965, 525.050 492.123, 535.049 492.233, 541.985 492.392, 551.984 492.550, 561.983 492.709, 571.982 492.723, 572.913 492.692, 576.765 492.433, 580.159 491.899, 583.132 " />
            <path fill="none" stroke-width="3.0" stroke-linecap="butt" stroke-opacity="1.0" stroke="rgb(0, 0, 0)" stroke-linejoin="miter" d=" M 637.697, 456.701 637.833, 455.520 638.165, 454.366 638.693, 453.246 639.418, 452.166 640.339, 451.132 641.457, 450.150 648.584, 444.370 655.628, 438.502 662.606, 432.576 665.219, 430.333 669.541, 426.622 676.452, 420.671 683.358, 414.756 690.279, 408.909 697.236, 403.162 704.247, 397.548 711.333, 392.102 718.512, 386.856 725.804, 381.845 730.594, 378.779 735.600, 375.803 740.848, 372.937 746.364, 370.200 752.175, 367.610 758.307, 365.186 764.786, 362.947 771.639, 360.912 778.892, 359.101 786.569, 357.532 794.698, 356.225 803.304, 355.198 804.863, 354.955 806.511, 354.631 808.209, 354.220 809.915, 353.717 811.589, 353.116 813.190, 352.410 814.678, 351.595 816.011, 350.664 817.149, 349.612 818.050, 348.432 818.674, 347.119 818.980, 345.667 818.937, 344.540 818.622, 343.506 818.061, 342.565 817.279, 341.716 816.302, 340.962 815.155, 340.303 813.866, 339.739 812.459, 339.271 810.961, 338.899 809.398, 338.624 807.796, 338.447 806.180, 338.368 796.270, 338.211 786.850, 338.112 777.850, 338.060 769.201, 338.045 760.830, 338.053 752.669, 338.076 744.647, 338.101 736.695, 338.117 728.742, 338.114 720.719, 338.080 712.555, 338.004 704.182, 337.875 694.183, 337.688 687.445, 337.562 677.447, 337.375 668.740, 337.212 667.737, 337.251 667.507, 337.285 666.710, 337.402 665.679, 337.660 664.664, 338.021 663.687, 338.480 662.768, 339.033 661.928, 339.675 661.187, 340.401 660.567, 341.206 660.087, 342.088 659.769, 343.039 659.632, 344.057 659.646, 344.980 659.653, 345.409 659.816, 346.666 660.119, 347.832 660.558, 348.907 661.129, 349.894 661.829, 350.794 662.655, 351.609 663.602, 352.340 664.667, 352.990 665.847, 353.559 667.139, 354.050 668.539, 354.464 672.132, 355.383 675.396, 356.371 678.333, 357.427 678.700, 357.584 680.945, 358.548 683.233, 359.734 685.200, 360.981 686.847, 362.289 688.176, 363.655 689.189, 365.078 689.889, 366.556 690.276, 368.088 " />
            <path fill="none" stroke-width="3.0" stroke-linecap="butt" stroke-opacity="1.0" stroke="rgb(0, 0, 0)" stroke-linejoin="miter" d=" M 690.276, 368.088 690.355, 369.671 690.226, 370.713 689.942, 371.772 689.511, 372.850 688.944, 373.947 688.247, 375.067 687.429, 376.211 686.499, 377.380 685.466, 378.577 684.337, 379.802 683.122, 381.057 681.830, 382.345 680.467, 383.667 673.249, 390.587 666.030, 397.507 658.812, 404.428 651.593, 411.348 649.758, 413.108 642.539, 420.028 637.666, 424.701 630.447, 431.621 623.228, 438.541 616.010, 445.462 608.791, 452.382 601.573, 459.303 594.354, 466.223 586.733, 473.529 585.480, 474.436 584.316, 475.286 583.231, 476.075 582.216, 476.799 581.261, 477.452 580.356, 478.031 579.492, 478.530 578.658, 478.945 577.844, 479.272 577.042, 479.505 576.242, 479.641 575.494, 479.672 575.432, 479.675 574.744, 479.622 574.082, 479.495 573.453, 479.288 572.864, 478.998 572.321, 478.620 571.831, 478.149 571.777, 478.078 571.400, 477.583 571.035, 476.915 570.742, 476.142 570.528, 475.259 570.400, 474.261 570.363, 473.145 570.462, 463.145 570.560, 453.146 570.659, 443.146 570.757, 433.147 570.856, 423.147 570.954, 413.148 571.053, 403.148 571.151, 393.149 571.250, 383.149 571.262, 381.905 571.414, 377.620 571.822, 373.809 " />
            <path fill="none" stroke-width="3.0" stroke-linecap="butt" stroke-opacity="1.0" stroke="rgb(0, 0, 0)" stroke-linejoin="miter" d=" M 632.102, 553.169 632.037, 563.168 631.972, 573.168 631.907, 583.168 631.842, 593.168 631.777, 603.168 631.730, 610.385 631.794, 611.244 632.027, 612.054 632.412, 612.811 632.929, 613.511 633.560, 614.147 634.287, 614.717 635.090, 615.216 635.952, 615.639 636.854, 615.981 637.776, 616.239 638.702, 616.407 639.613, 616.481 644.811, 616.590 649.893, 616.628 654.885, 616.608 659.816, 616.547 664.713, 616.457 669.603, 616.353 674.515, 616.249 679.475, 616.161 684.511, 616.101 689.651, 616.086 694.922, 616.128 700.351, 616.243 707.537, 616.500 714.685, 616.852 721.796, 617.278 728.873, 617.762 735.918, 618.282 742.934, 618.821 749.924, 619.359 756.890, 619.877 763.836, 620.357 770.765, 620.779 777.680, 621.125 784.585, 621.375 787.523, 621.394 790.224, 621.284 792.689, 621.053 794.913, 620.708 796.895, 620.257 798.632, 619.710 800.123, 619.073 801.364, 618.355 802.353, 617.564 803.089, 616.708 803.567, 615.794 803.786, 614.832 803.721, 613.619 803.325, 612.531 802.640, 611.559 801.708, 610.690 800.571, 609.914 799.271, 609.219 797.851, 608.596 796.351, 608.032 794.816, 607.516 793.287, 607.038 791.805, 606.585 790.415, 606.148 784.877, 604.448 779.815, 602.647 775.189, 600.747 770.956, 598.748 767.075, 596.652 763.504, 594.459 760.203, 592.171 757.131, 589.790 754.244, 587.316 751.503, 584.751 748.866, 582.095 746.292, 579.350 739.549, 571.965 732.806, 564.580 726.064, 557.195 719.321, 549.811 712.578, 542.426 705.836, 535.041 699.093, 527.656 692.350, 520.271 685.608, 512.886 678.865, 505.501 672.122, 498.116 665.380, 490.731 658.637, 483.347 651.894, 475.962 645.152, 468.577 641.004, 464.033 639.962, 462.812 639.117, 461.583 638.467, 460.351 638.014, 459.123 637.758, 457.904 637.697, 456.701 " />
            <path fill="none" stroke-width="3.0" stroke-linecap="butt" stroke-opacity="1.0" stroke="rgb(0, 0, 0)" stroke-linejoin="miter" d=" M 569.682, 500.029 569.829, 499.031 570.059, 498.137 570.365, 497.346 570.742, 496.655 571.182, 496.063 571.679, 495.569 572.227, 495.172 572.819, 494.870 573.449, 494.660 574.111, 494.543 574.797, 494.515 575.619, 494.579 575.749, 494.603 576.459, 494.733 577.317, 494.978 578.194, 495.317 579.088, 495.749 580.001, 496.277 580.931, 496.902 581.879, 497.625 582.844, 498.448 583.827, 499.372 584.828, 500.398 585.845, 501.528 592.517, 508.977 599.189, 516.425 605.862, 523.874 612.534, 531.323 619.206, 538.771 625.878, 546.220 632.102, 553.169 638.775, 560.617 645.447, 568.066 652.119, 575.515 653.678, 577.255 654.831, 578.574 655.888, 579.857 656.848, 581.107 657.709, 582.323 658.469, 583.509 659.128, 584.664 659.683, 585.790 660.133, 586.890 660.477, 587.963 660.713, 589.012 660.840, 590.039 " />
            <path fill="none" stroke-width="3.0" stroke-linecap="butt" stroke-opacity="1.0" stroke="rgb(0, 0, 0)" stroke-linejoin="miter" d=" M 491.965, 525.050 490.214, 525.552 486.057, 526.450 481.238, 527.266 479.677, 527.532 478.240, 527.864 476.929, 528.262 475.747, 528.728 474.696, 529.263 473.780, 529.869 473.001, 530.547 472.362, 531.298 471.866, 532.123 471.515, 533.024 469.329, 542.782 467.143, 552.540 464.958, 562.298 462.772, 572.056 460.586, 581.814 458.400, 591.573 456.214, 601.331 455.783, 603.254 455.567, 604.299 455.517, 605.427 455.685, 606.307 456.117, 607.181 456.782, 608.037 457.648, 608.862 458.685, 609.643 459.861, 610.367 461.146, 611.021 462.508, 611.591 463.916, 612.066 465.339, 612.432 466.747, 612.676 468.109, 612.786 475.408, 612.916 482.079, 612.894 488.194, 612.749 493.827, 612.508 499.050, 612.201 503.935, 611.858 508.555, 611.506 512.983, 611.176 517.290, 610.897 521.548, 610.697 525.832, 610.606 530.212, 610.653 534.568, 610.837 538.981, 611.132 543.483, 611.515 548.112, 611.968 552.902, 612.468 557.888, 612.995 563.108, 613.529 568.596, 614.050 574.388, 614.535 580.522, 614.965 587.035, 615.320 593.962, 615.577 595.429, 615.563 596.910, 615.441 598.377, 615.215 599.805, 614.890 601.166, 614.471 602.436, 613.963 603.586, 613.370 604.592, 612.696 605.425, 611.946 606.060, 611.125 606.469, 610.237 606.626, 609.287 606.535, 608.081 606.221, 607.003 605.703, 606.042 605.006, 605.185 604.150, 604.422 603.158, 603.741 602.052, 603.130 600.853, 602.578 599.585, 602.073 598.269, 601.603 596.928, 601.157 595.582, 600.724 590.217, 599.115 585.690, 597.539 581.928, 595.955 578.856, 594.324 576.402, 592.604 574.491, 590.755 573.048, 588.734 572.000, 586.501 571.272, 584.014 570.790, 581.231 570.481, 578.109 570.268, 574.604 570.017, 568.586 569.817, 562.558 569.663, 556.519 569.551, 550.465 569.477, 544.393 569.435, 538.301 569.423, 532.185 569.434, 526.041 569.464, 519.867 569.509, 513.660 569.564, 507.416 569.624, 501.132 569.682, 500.029 " />
            <path fill="none" stroke-width="3.0" stroke-linecap="butt" stroke-opacity="1.0" stroke="rgb(0, 0, 0)" stroke-linejoin="miter" d=" M 491.899, 583.132 491.037, 585.723 489.799, 587.969 488.134, 589.909 485.993, 591.577 483.325, 593.012 480.080, 594.248 476.209, 595.322 471.663, 596.270 466.392, 597.127 464.686, 597.407 463.115, 597.757 461.682, 598.179 460.390, 598.673 459.244, 599.243 458.244, 599.888 457.395, 600.610 456.700, 601.411 456.162, 602.292 455.783, 603.254 " />
            <path fill="none" stroke-width="3.0" stroke-linecap="butt" stroke-opacity="1.0" stroke="rgb(0, 0, 0)" stroke-linejoin="miter" d=" M 660.840, 590.039 660.855, 591.043 660.576, 592.303 660.065, 593.505 659.315, 594.647 658.318, 595.727 657.066, 596.744 655.553, 597.697 653.771, 598.584 651.712, 599.403 649.368, 600.153 646.732, 600.833 643.797, 601.441 640.555, 601.976 639.240, 602.268 638.020, 602.631 636.899, 603.064 635.879, 603.569 634.963, 604.149 634.155, 604.803 633.457, 605.535 632.872, 606.344 632.405, 607.232 632.056, 608.201 631.831, 609.252 631.730, 610.385 " />
            <path fill="none" stroke-width="3.0" stroke-linecap="butt" stroke-opacity="1.0" stroke="rgb(0, 0, 0)" stroke-linejoin="miter" d=" M 612.674, 341.769 613.118, 331.779 613.563, 321.789 614.007, 311.799 614.452, 301.809 614.896, 291.819 614.972, 290.108 614.941, 289.079 614.800, 288.137 614.552, 287.283 614.201, 286.515 613.749, 285.836 613.199, 285.244 612.554, 284.740 611.818, 284.323 610.994, 283.995 610.085, 283.756 609.093, 283.604 608.023, 283.542 603.088, 283.492 597.666, 283.494 591.862, 283.538 585.778, 283.612 579.519, 283.708 573.188, 283.814 566.888, 283.920 560.722, 284.016 554.793, 284.093 549.203, 284.140 544.053, 284.146 539.447, 284.101 534.809, 283.981 529.769, 283.779 524.399, 283.511 518.773, 283.195 512.965, 282.846 507.048, 282.480 501.096, 282.114 495.182, 281.763 489.380, 281.444 483.764, 281.173 478.406, 280.966 473.382, 280.839 472.489, 280.877 471.580, 281.017 470.673, 281.256 469.787, 281.588 468.939, 282.011 468.148, 282.519 467.433, 283.108 466.811, 283.774 466.301, 284.514 465.920, 285.321 462.631, 294.765 459.341, 304.208 456.052, 313.652 452.762, 323.095 449.473, 332.539 448.186, 336.232 " />
            <path fill="none" stroke-width="3.0" stroke-linecap="butt" stroke-opacity="1.0" stroke="rgb(0, 0, 0)" stroke-linejoin="miter" d=" M 818.622, 343.506 815.484, 334.011 812.346, 324.516 809.208, 315.021 806.070, 305.526 802.933, 296.031 801.374, 291.317 800.862, 290.452 800.151, 289.674 799.264, 288.982 798.224, 288.378 797.055, 287.862 795.781, 287.434 794.425, 287.095 793.010, 286.846 791.560, 286.686 790.098, 286.616 781.135, 286.490 772.615, 286.417 764.475, 286.386 756.651, 286.388 749.079, 286.412 741.696, 286.448 734.438, 286.486 727.243, 286.515 720.047, 286.527 712.787, 286.511 705.399, 286.456 697.821, 286.353 687.822, 286.184 677.824, 286.015 667.825, 285.846 665.740, 285.810 664.833, 285.848 663.903, 285.989 662.969, 286.228 662.051, 286.562 661.167, 286.986 660.335, 287.496 659.575, 288.088 658.905, 288.758 658.344, 289.500 657.910, 290.312 657.622, 291.188 657.499, 292.125 657.518, 293.368 657.928, 303.360 658.338, 313.352 658.748, 323.343 659.158, 333.335 659.567, 343.326 659.635, 344.990 659.653, 345.409 " />
            <path fill="none" stroke-width="3.0" stroke-linecap="butt" stroke-opacity="1.0" stroke="rgb(0, 0, 0)" stroke-linejoin="miter" d=" M 659.635, 344.990 652.489, 351.985 645.343, 358.980 638.197, 365.975 631.051, 372.970 623.904, 379.966 616.758, 386.961 609.612, 393.956 602.466, 400.951 595.319, 407.946 591.298, 411.883 590.156, 412.726 589.096, 413.518 588.109, 414.252 587.185, 414.926 586.315, 415.534 585.491, 416.073 584.704, 416.538 583.945, 416.926 583.204, 417.231 582.474, 417.449 581.746, 417.577 581.010, 417.610 580.383, 417.563 579.781, 417.446 579.209, 417.256 578.674, 416.988 578.181, 416.639 577.736, 416.204 577.345, 415.679 577.014, 415.060 576.749, 414.344 576.556, 413.525 576.441, 412.600 576.410, 411.565 576.526, 401.566 576.641, 391.566 576.757, 381.567 576.873, 371.568 576.976, 362.654 " />
            <path fill="none" stroke-width="3.0" stroke-linecap="butt" stroke-opacity="1.0" stroke="rgb(0, 0, 0)" stroke-linejoin="miter" d=" M 803.721, 613.619 801.728, 603.819 799.735, 594.020 797.742, 584.221 795.749, 574.421 793.756, 564.622 791.763, 554.823 789.770, 545.023 789.098, 541.719 788.732, 540.704 788.104, 539.797 787.250, 538.988 786.210, 538.266 785.022, 537.622 783.724, 537.043 782.355, 536.521 780.953, 536.043 779.557, 535.601 778.205, 535.183 776.935, 534.778 771.880, 533.206 767.259, 531.539 763.035, 529.778 759.169, 527.923 755.624, 525.977 752.362, 523.940 749.346, 521.814 746.538, 519.601 743.900, 517.300 741.394, 514.914 738.983, 512.444 736.628, 509.891 729.949, 502.449 723.269, 495.007 716.589, 487.566 709.910, 480.124 703.230, 472.682 696.550, 465.240 689.871, 457.798 683.191, 450.356 676.511, 442.914 669.832, 435.472 665.219, 430.333 " />
            <path fill="none" stroke-width="3.0" stroke-linecap="butt" stroke-opacity="1.0" stroke="rgb(0, 0, 0)" stroke-linejoin="miter" d=" M 606.626, 609.287 606.999, 599.294 607.372, 589.301 607.745, 579.308 608.117, 569.315 608.490, 559.322 608.863, 549.329 609.236, 539.336 609.277, 538.234 609.195, 537.108 608.909, 536.101 608.437, 535.204 607.801, 534.405 607.021, 533.694 606.116, 533.060 605.107, 532.493 604.013, 531.980 602.856, 531.512 601.656, 531.077 600.431, 530.664 599.204, 530.263 594.308, 528.774 590.178, 527.315 586.746, 525.846 583.945, 524.331 581.708, 522.732 579.966, 521.010 578.653, 519.127 577.700, 517.045 577.041, 514.725 576.606, 512.128 576.329, 509.215 576.142, 505.946 575.924, 500.332 575.752, 494.712 575.749, 494.603 " />
        </g>
    </g>
</svg>
