<?xml version='1.0' encoding='ascii'?>
<svg xmlns="http://www.w3.org/2000/svg" version="1.1" width="1080" height="1080">
    <g id="View Layer_LineSet" xmlns:inkscape="http://www.inkscape.org/namespaces/inkscape" inkscape:groupmode="lineset" inkscape:label="View Layer_LineSet">
        <g xmlns:inkscape="http://www.inkscape.org/namespaces/inkscape" inkscape:groupmode="layer" id="strokes" inkscape:label="strokes">
            <path fill="none" stroke-width="3.0" stroke-linecap="butt" stroke-opacity="1.0" stroke="rgb(0, 0, 0)" stroke-linejoin="miter" d=" M 576.454, 470.623 576.420, 469.513 576.538, 459.514 576.656, 449.515 576.774, 439.515 576.892, 429.516 576.905, 428.377 577.023, 418.378 577.073, 414.137 577.191, 404.137 577.309, 394.138 577.427, 384.139 577.492, 378.669 577.652, 374.400 578.065, 370.597 578.790, 367.214 579.889, 364.202 581.419, 361.512 583.442, 359.095 586.017, 356.900 589.203, 354.878 593.062, 352.977 597.652, 351.148 603.035, 349.338 609.271, 347.497 610.679, 347.027 611.985, 346.543 613.184, 346.031 614.273, 345.476 615.250, 344.864 616.112, 344.180 616.855, 343.409 617.477, 342.538 617.974, 341.552 618.343, 340.435 618.582, 339.174 618.687, 337.753 618.654, 336.643 618.501, 335.629 618.231, 334.712 617.847, 333.892 617.353, 333.168 616.752, 332.542 616.047, 332.013 615.242, 331.580 614.340, 331.246 613.345, 331.008 612.259, 330.868 611.087, 330.825 605.682, 330.886 599.741, 331.015 593.377, 331.198 586.703, 331.421 579.834, 331.670 572.882, 331.933 565.960, 332.196 559.182, 332.445 552.661, 332.667 546.510, 332.849 540.840, 332.976 535.767, 333.037 530.657, 333.015 525.100, 332.914 519.177, 332.751 512.969, 332.540 506.557, 332.298 500.021, 332.041 493.442, 331.783 486.902, 331.541 480.483, 331.331 474.266, 331.169 468.333, 331.070 462.766, 331.050 461.776, 331.112 460.769, 331.286 459.765, 331.566 458.784, 331.948 457.846, 332.427 456.972, 332.998 456.181, 333.655 455.494, 334.394 454.931, 335.210 454.512, 336.097 454.257, 337.050 454.186, 338.065 454.292, 339.408 454.534, 340.655 454.908, 341.806 455.410, 342.865 456.038, 343.832 456.788, 344.710 457.657, 345.500 458.640, 346.204 459.736, 346.824 460.940, 347.362 462.249, 347.819 463.661, 348.196 469.713, 349.558 474.999, 350.972 479.566, 352.486 483.462, 354.151 486.733, 356.014 489.425, 358.125 491.586, 360.530 493.261, 363.278 494.498, 366.416 495.343, 369.991 495.842, 374.047 496.043, 378.630 496.182, 388.629 496.320, 398.628 496.458, 408.627 496.596, 418.626 496.735, 428.625 496.873, 438.624 497.011, 448.623 497.150, 458.622 497.288, 468.621 497.426, 478.620 497.565, 488.619 497.703, 498.618 497.841, 508.617 497.951, 516.535 498.089, 526.534 498.227, 536.533 498.281, 540.418 498.419, 550.417 498.558, 560.416 498.696, 570.415 498.711, 571.457 498.671, 575.307 " />
            <path fill="none" stroke-width="3.0" stroke-linecap="butt" stroke-opacity="1.0" stroke="rgb(0, 0, 0)" stroke-linejoin="miter" d=" M 643.305, 452.424 643.247, 451.231 643.383, 450.055 643.714, 448.900 644.239, 447.774 644.957, 446.681 645.870, 445.629 646.977, 444.623 654.033, 438.690 661.002, 432.674 663.918, 430.110 667.903, 426.606 674.756, 420.516 681.581, 414.434 688.397, 408.391 695.224, 402.418 702.082, 396.547 708.989, 390.810 715.964, 385.240 723.027, 379.870 730.195, 374.733 734.901, 371.582 739.817, 368.518 744.967, 365.557 750.378, 362.718 756.074, 360.018 762.082, 357.476 768.426, 355.110 775.131, 352.938 782.223, 350.978 789.724, 349.248 797.661, 347.767 806.056, 346.551 807.577, 346.275 809.184, 345.917 810.840, 345.472 812.503, 344.936 814.135, 344.305 815.696, 343.572 817.147, 342.734 818.447, 341.786 819.556, 340.723 820.436, 339.541 821.046, 338.233 821.346, 336.796 821.306, 335.688 821.001, 334.677 820.456, 333.763 819.696, 332.946 818.745, 332.226 817.630, 331.603 816.375, 331.077 815.005, 330.648 813.547, 330.317 812.024, 330.082 810.462, 329.944 808.888, 329.903 799.224, 329.975 790.031, 330.094 781.240, 330.250 772.785, 330.432 764.597, 330.634 756.609, 330.843 748.751, 331.053 740.955, 331.252 733.154, 331.432 725.279, 331.583 717.260, 331.696 709.030, 331.762 699.030, 331.809 689.030, 331.856 685.858, 331.870 675.858, 331.917 674.128, 331.925 673.139, 331.987 672.125, 332.161 671.107, 332.440 670.105, 332.822 669.140, 333.299 668.232, 333.868 667.402, 334.524 666.670, 335.261 666.056, 336.074 665.581, 336.959 665.265, 337.910 665.128, 338.922 665.146, 340.262 665.306, 341.505 665.603, 342.653 666.034, 343.709 666.596, 344.673 667.285, 345.549 668.098, 346.337 669.031, 347.039 670.081, 347.658 671.245, 348.194 672.518, 348.649 673.899, 349.026 675.389, 349.374 677.440, 349.851 680.656, 350.753 683.549, 351.728 686.121, 352.776 688.373, 353.895 690.308, 355.083 691.928, 356.338 693.234, 357.659 694.230, 359.044 694.916, 360.491 " />
            <path fill="none" stroke-width="3.0" stroke-linecap="butt" stroke-opacity="1.0" stroke="rgb(0, 0, 0)" stroke-linejoin="miter" d=" M 694.916, 360.491 695.294, 361.998 695.369, 363.563 695.240, 364.598 694.958, 365.653 694.533, 366.731 693.972, 367.832 693.283, 368.958 692.476, 370.111 691.558, 371.292 690.538, 372.502 689.425, 373.744 688.226, 375.018 686.950, 376.326 685.605, 377.669 678.490, 384.695 671.374, 391.722 664.259, 398.748 657.143, 405.775 650.028, 412.801 648.980, 413.836 641.864, 420.862 637.937, 424.741 630.822, 431.767 623.706, 438.794 616.591, 445.820 609.475, 452.847 602.360, 459.873 595.245, 466.900 592.695, 469.418 591.447, 470.356 590.289, 471.236 589.209, 472.053 588.199, 472.803 587.249, 473.481 586.348, 474.083 585.488, 474.606 584.658, 475.043 583.849, 475.393 583.051, 475.649 582.254, 475.807 581.449, 475.865 580.765, 475.832 580.107, 475.725 579.482, 475.538 578.896, 475.266 578.357, 474.906 577.871, 474.452 577.443, 473.901 577.081, 473.247 576.791, 472.485 576.580, 471.613 576.454, 470.623 " />
            <path fill="none" stroke-width="3.0" stroke-linecap="butt" stroke-opacity="1.0" stroke="rgb(0, 0, 0)" stroke-linejoin="miter" d=" M 626.709, 535.385 628.190, 545.275 629.672, 555.165 631.153, 565.054 632.635, 574.944 634.116, 584.834 635.598, 594.723 637.118, 604.868 637.347, 605.665 637.727, 606.403 638.237, 607.080 638.861, 607.690 639.579, 608.231 640.373, 608.698 641.225, 609.087 642.116, 609.396 643.029, 609.619 643.944, 609.754 644.845, 609.795 649.985, 609.720 655.008, 609.579 659.941, 609.385 664.811, 609.151 669.646, 608.890 674.472, 608.615 679.317, 608.340 684.208, 608.079 689.172, 607.844 694.236, 607.648 699.426, 607.506 704.769, 607.430 711.837, 607.434 718.864, 607.532 725.850, 607.706 732.798, 607.936 739.711, 608.205 746.591, 608.493 753.440, 608.780 760.263, 609.049 767.062, 609.281 773.840, 609.456 780.601, 609.555 787.349, 609.561 790.218, 609.477 792.857, 609.274 795.263, 608.960 797.435, 608.542 799.370, 608.029 801.067, 607.429 802.522, 606.749 803.734, 605.998 804.700, 605.183 805.419, 604.313 805.887, 603.396 806.102, 602.440 806.041, 601.246 805.656, 600.187 804.990, 599.252 804.082, 598.427 802.974, 597.701 801.707, 597.061 800.322, 596.495 798.860, 595.990 797.362, 595.534 795.870, 595.115 794.425, 594.719 793.068, 594.336 787.662, 592.848 782.719, 591.244 778.200, 589.526 774.064, 587.697 770.271, 585.758 766.781, 583.714 763.554, 581.566 760.550, 579.318 757.727, 576.971 755.047, 574.528 752.468, 571.992 749.949, 569.365 743.130, 562.051 736.310, 554.737 729.491, 547.423 722.672, 540.109 715.852, 532.794 709.033, 525.480 702.213, 518.166 695.394, 510.852 688.575, 503.538 681.755, 496.224 674.936, 488.910 668.116, 481.596 661.297, 474.282 654.478, 466.968 647.658, 459.654 646.503, 458.415 645.475, 457.233 644.642, 456.036 644.002, 454.832 643.556, 453.626 643.305, 452.424 " />
            <path fill="none" stroke-width="3.0" stroke-linecap="butt" stroke-opacity="1.0" stroke="rgb(0, 0, 0)" stroke-linejoin="miter" d=" M 576.332, 574.019 576.128, 570.536 575.889, 564.551 575.702, 558.556 575.560, 552.547 575.461, 546.522 575.399, 540.479 575.394, 539.510 575.370, 534.413 575.369, 528.324 575.392, 522.206 575.420, 518.076 575.434, 516.058 575.491, 509.876 575.558, 503.657 575.630, 497.399 575.690, 496.299 575.838, 495.301 576.069, 494.404 576.375, 493.606 576.751, 492.907 577.190, 492.305 577.685, 491.799 578.231, 491.386 578.821, 491.067 579.448, 490.840 580.106, 490.703 580.789, 490.655 581.606, 490.694 582.441, 490.822 583.294, 491.040 584.165, 491.351 585.053, 491.754 585.960, 492.252 586.883, 492.846 587.824, 493.537 588.782, 494.327 589.757, 495.216 590.749, 496.207 591.758, 497.300 598.519, 504.668 605.281, 512.036 612.042, 519.403 618.803, 526.771 625.565, 534.139 626.709, 535.385 626.984, 535.686 628.860, 537.729 635.621, 545.097 642.383, 552.465 649.144, 559.833 655.905, 567.200 658.821, 570.377 659.958, 571.648 661.000, 572.886 661.945, 574.093 662.793, 575.271 663.542, 576.421 664.190, 577.545 664.737, 578.644 665.179, 579.719 665.517, 580.773 665.748, 581.805 " />
            <path fill="none" stroke-width="3.0" stroke-linecap="butt" stroke-opacity="1.0" stroke="rgb(0, 0, 0)" stroke-linejoin="miter" d=" M 497.951, 516.535 497.487, 517.405 495.960, 519.268 493.997, 520.893 491.552, 522.317 488.578, 523.574 485.031, 524.701 480.864, 525.731 476.031, 526.699 474.466, 527.015 473.024, 527.392 471.709, 527.832 470.523, 528.336 469.469, 528.906 468.550, 529.541 467.769, 530.244 467.129, 531.015 466.632, 531.857 466.281, 532.769 466.079, 533.753 465.411, 543.731 464.742, 553.708 464.073, 563.686 463.405, 573.663 462.736, 583.641 462.067, 593.619 461.363, 604.122 461.310, 605.253 461.477, 606.128 461.909, 606.988 462.576, 607.821 463.444, 608.616 464.485, 609.361 465.665, 610.044 466.954, 610.652 468.321, 611.175 469.734, 611.600 471.163, 611.916 472.576, 612.110 473.943, 612.171 481.268, 612.043 487.959, 611.784 494.090, 611.421 499.735, 610.981 504.966, 610.490 509.857, 609.974 514.481, 609.460 518.910, 608.974 523.217, 608.543 527.474, 608.193 531.753, 607.951 536.128, 607.844 540.477, 607.874 544.880, 608.012 549.371, 608.236 553.986, 608.524 558.759, 608.854 563.727, 609.204 568.924, 609.552 574.386, 609.877 580.149, 610.156 586.248, 610.368 592.720, 610.491 599.601, 610.504 601.058, 610.438 602.528, 610.264 603.985, 609.987 605.403, 609.614 606.756, 609.150 608.016, 608.600 609.159, 607.969 610.158, 607.263 610.986, 606.489 611.617, 605.650 612.025, 604.753 612.182, 603.803 612.095, 602.607 611.785, 601.546 611.273, 600.608 610.583, 599.780 609.735, 599.051 608.752, 598.408 607.656, 597.839 606.468, 597.332 605.210, 596.873 603.905, 596.452 602.574, 596.055 601.239, 595.670 595.913, 594.255 591.418, 592.843 587.682, 591.396 584.632, 589.878 582.194, 588.251 580.297, 586.475 578.865, 584.512 577.827, 582.324 577.108, 579.873 576.634, 577.117 576.332, 574.019 " />
            <path fill="none" stroke-width="3.0" stroke-linecap="butt" stroke-opacity="1.0" stroke="rgb(0, 0, 0)" stroke-linejoin="miter" d=" M 498.671, 575.307 498.405, 578.706 497.863, 581.695 496.995, 584.314 495.750, 586.601 494.077, 588.597 491.927, 590.338 489.250, 591.864 485.994, 593.213 482.109, 594.421 477.545, 595.527 472.252, 596.568 470.538, 596.907 468.960, 597.312 467.520, 597.784 466.221, 598.324 465.068, 598.934 464.062, 599.614 463.208, 600.367 462.508, 601.193 461.965, 602.093 461.582, 603.069 461.363, 604.122 " />
            <path fill="none" stroke-width="3.0" stroke-linecap="butt" stroke-opacity="1.0" stroke="rgb(0, 0, 0)" stroke-linejoin="miter" d=" M 665.748, 581.805 665.871, 582.819 665.884, 583.815 665.606, 585.074 665.100, 586.284 664.357, 587.442 663.370, 588.548 662.133, 589.600 660.636, 590.597 658.874, 591.538 656.838, 592.422 654.520, 593.247 651.914, 594.013 649.011, 594.718 645.804, 595.360 644.503, 595.696 643.295, 596.098 642.185, 596.567 641.175, 597.104 640.267, 597.711 639.466, 598.389 638.774, 599.140 638.194, 599.964 637.730, 600.862 637.383, 601.836 637.158, 602.888 637.056, 604.018 637.118, 604.868 " />
            <path fill="none" stroke-width="3.0" stroke-linecap="butt" stroke-opacity="1.0" stroke="rgb(0, 0, 0)" stroke-linejoin="miter" d=" M 618.501, 335.629 616.635, 325.805 614.769, 315.980 612.904, 306.156 611.038, 296.331 609.172, 286.507 608.845, 284.784 608.598, 283.940 608.248, 283.185 607.798, 282.519 607.252, 281.942 606.612, 281.455 605.881, 281.056 605.063, 280.748 604.161, 280.529 603.177, 280.399 602.115, 280.359 597.218, 280.413 591.835, 280.529 586.069, 280.694 580.023, 280.896 573.800, 281.123 567.501, 281.361 561.230, 281.600 555.090, 281.826 549.182, 282.027 543.608, 282.192 538.472, 282.307 533.876, 282.360 529.246, 282.337 524.212, 282.242 518.846, 282.089 513.222, 281.892 507.413, 281.667 501.491, 281.426 495.532, 281.186 489.608, 280.961 483.793, 280.765 478.162, 280.612 472.787, 280.518 467.745, 280.497 466.848, 280.554 465.936, 280.714 465.026, 280.971 464.137, 281.322 463.286, 281.763 462.493, 282.287 461.776, 282.892 461.152, 283.571 460.641, 284.322 460.260, 285.138 460.027, 286.015 458.904, 295.952 457.780, 305.889 456.657, 315.825 455.533, 325.762 454.410, 335.699 454.257, 337.050 " />
            <path fill="none" stroke-width="3.0" stroke-linecap="butt" stroke-opacity="1.0" stroke="rgb(0, 0, 0)" stroke-linejoin="miter" d=" M 821.001, 334.677 816.083, 325.970 811.165, 317.263 806.247, 308.556 801.329, 299.849 796.411, 291.141 792.379, 284.002 791.877, 283.160 791.182, 282.408 790.314, 281.745 789.298, 281.171 788.157, 280.686 786.912, 280.291 785.587, 279.985 784.205, 279.768 782.789, 279.641 781.361, 279.602 772.603, 279.665 764.271, 279.770 756.305, 279.909 748.643, 280.073 741.224, 280.254 733.985, 280.444 726.864, 280.633 719.801, 280.812 712.732, 280.974 705.595, 281.110 698.328, 281.211 690.870, 281.267 680.870, 281.310 670.870, 281.352 660.870, 281.394 659.241, 281.401 658.345, 281.458 657.427, 281.617 656.506, 281.874 655.600, 282.224 654.727, 282.663 653.907, 283.187 653.157, 283.790 652.497, 284.468 651.944, 285.216 651.517, 286.030 651.234, 286.905 651.114, 287.837 651.135, 289.070 651.285, 290.215 651.558, 291.273 654.195, 300.919 656.832, 310.565 659.468, 320.211 662.105, 329.857 662.429, 331.042 665.066, 340.689 665.603, 342.653 " />
            <path fill="none" stroke-width="3.0" stroke-linecap="butt" stroke-opacity="1.0" stroke="rgb(0, 0, 0)" stroke-linejoin="miter" d=" M 806.041, 601.246 802.655, 591.836 799.270, 582.427 795.885, 573.017 792.500, 563.607 789.115, 554.198 785.730, 544.788 782.345, 535.379 780.880, 531.308 780.521, 530.318 779.905, 529.443 779.069, 528.671 778.051, 527.991 776.889, 527.392 775.619, 526.862 774.280, 526.389 772.908, 525.962 771.542, 525.569 770.219, 525.198 768.976, 524.839 764.028, 523.445 759.502, 521.942 755.363, 520.334 751.573, 518.622 748.096, 516.808 744.896, 514.896 741.935, 512.888 739.177, 510.786 736.585, 508.593 734.122, 506.310 731.752, 503.941 729.437, 501.488 722.674, 494.121 715.912, 486.754 709.150, 479.387 702.388, 472.020 695.625, 464.653 688.863, 457.286 682.101, 449.919 675.339, 442.552 668.577, 435.185 663.918, 430.110 " />
            <path fill="none" stroke-width="3.0" stroke-linecap="butt" stroke-opacity="1.0" stroke="rgb(0, 0, 0)" stroke-linejoin="miter" d=" M 662.429, 331.042 655.388, 338.144 648.347, 345.245 641.306, 352.346 634.265, 359.447 627.225, 366.548 620.184, 373.649 613.143, 380.750 606.102, 387.852 599.061, 394.953 592.020, 402.054 585.733, 408.395 584.601, 409.265 583.548, 410.080 582.568, 410.838 581.651, 411.533 580.787, 412.161 579.969, 412.719 579.187, 413.203 578.433, 413.609 577.697, 413.933 577.073, 414.137 " />
            <path fill="none" stroke-width="3.0" stroke-linecap="butt" stroke-opacity="1.0" stroke="rgb(0, 0, 0)" stroke-linejoin="miter" d=" M 612.095, 602.607 610.911, 592.677 609.726, 582.748 608.542, 572.818 607.357, 562.889 606.173, 552.959 604.989, 543.029 603.726, 532.443 603.440, 531.451 602.971, 530.574 602.338, 529.800 601.562, 529.117 600.663, 528.516 599.660, 527.983 598.574, 527.508 597.424, 527.078 596.231, 526.684 595.015, 526.312 593.795, 525.951 588.929, 524.625 584.822, 523.302 581.408, 521.948 578.621, 520.528 576.393, 519.006 575.420, 518.076 " />
        </g>
    </g>
</svg>
