<?xml version='1.0' encoding='ascii'?>
<svg xmlns="http://www.w3.org/2000/svg" version="1.1" width="1080" height="1080">
    <g id="View Layer_LineSet" xmlns:inkscape="http://www.inkscape.org/namespaces/inkscape" inkscape:groupmode="lineset" inkscape:label="View Layer_LineSet">
        <g xmlns:inkscape="http://www.inkscape.org/namespaces/inkscape" inkscape:groupmode="layer" id="strokes" inkscape:label="strokes">
            <path fill="none" stroke-width="3.0" stroke-linecap="butt" stroke-opacity="1.0" stroke="rgb(0, 0, 0)" stroke-linejoin="miter" d=" M 579.402, 469.689 579.277, 468.704 579.244, 467.597 579.371, 457.597 579.498, 447.598 579.625, 437.599 579.718, 430.290 579.845, 420.291 579.972, 410.292 579.992, 408.766 580.119, 398.767 580.246, 388.768 580.373, 378.768 580.396, 376.961 580.559, 372.701 580.973, 368.903 581.698, 365.520 582.794, 362.502 584.319, 359.799 586.333, 357.363 588.896, 355.142 592.067, 353.086 595.905, 351.144 600.470, 349.263 605.822, 347.393 612.020, 345.482 613.420, 344.997 614.717, 344.499 615.908, 343.974 616.991, 343.408 617.962, 342.785 618.819, 342.093 619.557, 341.317 620.176, 340.441 620.670, 339.452 621.038, 338.335 621.276, 337.075 621.382, 335.658 621.350, 334.552 621.199, 333.544 620.931, 332.633 620.551, 331.820 620.061, 331.105 619.465, 330.488 618.765, 329.969 617.966, 329.548 617.070, 329.224 616.082, 328.999 615.004, 328.872 613.840, 328.843 608.469, 328.969 602.565, 329.167 596.238, 329.425 589.603, 329.726 582.770, 330.056 575.853, 330.400 568.964, 330.745 562.216, 331.073 555.721, 331.372 549.593, 331.627 543.944, 331.822 538.888, 331.942 533.794, 331.981 528.254, 331.947 522.347, 331.854 516.154, 331.717 509.755, 331.552 503.231, 331.372 496.663, 331.193 495.688, 331.168 495.065, 331.153 490.132, 331.029 483.719, 330.895 477.506, 330.807 471.576, 330.778 466.010, 330.824 465.020, 330.898 464.013, 331.084 463.009, 331.376 462.027, 331.770 461.088, 332.260 460.213, 332.842 459.421, 333.508 458.733, 334.256 458.169, 335.078 457.749, 335.970 457.493, 336.927 457.421, 337.943 457.526, 339.285 457.767, 340.528 458.140, 341.675 458.641, 342.728 459.268, 343.688 460.018, 344.556 460.885, 345.336 461.869, 346.028 462.964, 346.635 464.167, 347.158 465.476, 347.599 466.887, 347.959 472.937, 349.246 478.219, 350.595 482.782, 352.052 486.672, 353.668 489.938, 355.490 492.625, 357.565 494.781, 359.942 495.482, 361.086 496.451, 362.668 497.683, 365.788 498.523, 369.349 499.018, 373.396 " />
            <path fill="none" stroke-width="3.0" stroke-linecap="butt" stroke-opacity="1.0" stroke="rgb(0, 0, 0)" stroke-linejoin="miter" d=" M 645.962, 450.774 645.714, 449.580 645.658, 448.393 645.794, 447.219 646.123, 446.064 646.645, 444.935 647.359, 443.836 648.265, 442.775 649.364, 441.758 656.367, 435.748 662.889, 430.005 663.282, 429.660 670.127, 423.522 676.922, 417.365 683.688, 411.218 690.443, 405.112 697.207, 399.078 703.999, 393.146 710.837, 387.349 717.740, 381.719 724.728, 376.288 731.817, 371.090 736.470, 367.898 741.329, 364.790 746.419, 361.784 751.764, 358.895 757.390, 356.142 763.321, 353.543 769.583, 351.115 776.199, 348.875 783.194, 346.842 790.591, 345.034 798.413, 343.467 806.684, 342.160 808.182, 341.868 809.766, 341.493 811.396, 341.032 813.035, 340.480 814.642, 339.833 816.180, 339.088 817.608, 338.239 818.888, 337.283 819.982, 336.216 820.849, 335.032 821.450, 333.727 821.746, 332.298 821.708, 331.199 821.408, 330.200 820.872, 329.299 820.125, 328.498 819.190, 327.795 818.092, 327.190 816.857, 326.683 815.509, 326.273 814.073, 325.961 812.574, 325.746 811.037, 325.627 809.486, 325.605 799.967, 325.790 790.908, 326.015 782.242, 326.272 773.903, 326.553 765.825, 326.849 757.941, 327.151 750.183, 327.451 742.485, 327.740 734.778, 328.011 726.994, 328.254 719.067, 328.460 710.927, 328.623 700.929, 328.789 690.930, 328.955 684.694, 329.058 676.378, 329.196 675.398, 329.269 674.393, 329.454 673.384, 329.744 672.391, 330.136 671.435, 330.622 670.535, 331.200 669.712, 331.862 668.985, 332.604 668.376, 333.422 667.905, 334.308 667.591, 335.258 667.454, 336.268 667.471, 337.601 667.628, 338.836 667.921, 339.976 668.347, 341.021 668.903, 341.975 669.586, 342.838 670.390, 343.613 671.315, 344.301 672.354, 344.903 673.190, 345.280 673.507, 345.423 674.768, 345.861 676.136, 346.219 679.643, 346.997 682.828, 347.855 685.692, 348.791 688.238, 349.802 690.467, 350.888 692.382, 352.046 693.984, 353.275 695.276, 354.573 696.260, 355.938 696.937, 357.369 " />
            <path fill="none" stroke-width="3.0" stroke-linecap="butt" stroke-opacity="1.0" stroke="rgb(0, 0, 0)" stroke-linejoin="miter" d=" M 696.937, 357.369 697.311, 358.864 697.383, 360.420 697.255, 361.451 696.975, 362.505 696.553, 363.582 695.997, 364.685 695.315, 365.814 694.515, 366.971 693.605, 368.157 692.594, 369.375 691.491, 370.624 690.302, 371.907 689.038, 373.224 687.705, 374.578 680.650, 381.665 673.594, 388.751 666.539, 395.838 659.484, 402.925 652.428, 410.011 648.248, 414.210 641.192, 421.297 638.198, 424.304 631.143, 431.391 624.087, 438.477 617.032, 445.564 609.977, 452.651 602.921, 459.737 595.866, 466.824 595.432, 467.260 594.191, 468.214 593.038, 469.109 591.964, 469.940 590.959, 470.703 590.013, 471.393 589.117, 472.007 588.260, 472.541 587.434, 472.990 586.629, 473.351 585.835, 473.618 585.043, 473.788 584.242, 473.857 583.561, 473.836 582.906, 473.738 582.285, 473.561 581.703, 473.299 581.166, 472.948 580.683, 472.502 580.258, 471.958 579.898, 471.311 579.611, 470.556 579.402, 469.689 " />
            <path fill="none" stroke-width="3.0" stroke-linecap="butt" stroke-opacity="1.0" stroke="rgb(0, 0, 0)" stroke-linejoin="miter" d=" M 499.018, 373.396 499.214, 377.972 499.342, 387.972 499.471, 397.971 499.599, 407.970 499.727, 417.969 499.856, 427.968 499.984, 437.968 500.112, 447.967 500.241, 457.966 500.369, 467.965 500.497, 477.964 500.625, 487.963 500.754, 497.963 500.882, 507.962 501.010, 517.961 501.139, 527.960 501.267, 537.959 501.395, 547.958 501.524, 557.958 501.652, 567.957 501.686, 570.636 501.643, 574.485 501.374, 577.887 500.830, 580.884 499.960, 583.516 498.714, 585.824 497.042, 587.848 494.893, 589.627 492.217, 591.200 488.963, 592.605 485.080, 593.882 480.518, 595.068 475.226, 596.203 473.512, 596.573 471.934, 597.006 470.493, 597.503 469.194, 598.067 468.040, 598.697 467.034, 599.396 466.179, 600.164 465.478, 601.003 464.934, 601.913 464.550, 602.896 464.330, 603.954 464.276, 605.086 464.442, 605.958 464.873, 606.810 465.539, 607.632 466.407, 608.411 467.447, 609.138 468.626, 609.799 469.915, 610.384 471.281, 610.883 472.693, 611.282 474.122, 611.572 475.534, 611.741 476.901, 611.777 484.222, 611.516 490.908, 611.136 497.033, 610.663 502.670, 610.121 507.893, 609.536 512.776, 608.932 517.391, 608.335 521.810, 607.770 526.107, 607.262 530.353, 606.836 534.621, 606.517 538.982, 606.331 543.318, 606.284 547.706, 606.343 552.181, 606.486 556.777, 606.690 561.532, 606.934 566.478, 607.194 571.652, 607.448 577.088, 607.674 582.822, 607.849 588.890, 607.951 595.327, 607.957 602.169, 607.846 603.617, 607.754 605.078, 607.554 606.527, 607.253 607.936, 606.855 609.281, 606.368 610.534, 605.796 611.670, 605.147 612.664, 604.426 613.487, 603.639 614.115, 602.791 614.521, 601.889 614.678, 600.939 614.592, 599.749 612.630, 589.943 610.667, 580.138 608.705, 570.332 606.742, 560.527 604.780, 550.721 602.817, 540.916 600.855, 531.110 600.660, 530.137 600.374, 529.152 599.907, 528.285 599.277, 527.523 598.505, 526.855 597.610, 526.270 596.612, 525.755 595.531, 525.298 594.388, 524.889 593.201, 524.514 591.990, 524.163 590.777, 523.823 585.935, 522.578 581.847, 521.324 578.448, 520.029 578.174, 519.893 " />
            <path fill="none" stroke-width="3.0" stroke-linecap="butt" stroke-opacity="1.0" stroke="rgb(0, 0, 0)" stroke-linejoin="miter" d=" M 624.346, 527.294 624.339, 527.305 623.921, 528.149 623.611, 529.062 623.411, 530.045 623.323, 531.099 623.382, 531.891 625.628, 541.636 627.874, 551.380 630.120, 561.125 632.366, 570.869 634.612, 580.614 636.857, 590.358 639.103, 600.103 639.438, 601.558 639.666, 602.347 640.041, 603.076 640.548, 603.741 641.166, 604.338 641.878, 604.864 642.665, 605.315 643.510, 605.688 644.395, 605.980 645.300, 606.186 646.208, 606.303 647.101, 606.328 652.201, 606.162 657.183, 605.931 662.075, 605.650 666.903, 605.329 671.695, 604.983 676.478, 604.623 681.278, 604.263 686.123, 603.915 691.039, 603.593 696.052, 603.308 701.190, 603.074 706.478, 602.903 713.471, 602.781 720.420, 602.754 727.328, 602.802 734.195, 602.908 741.026, 603.052 747.822, 603.215 754.586, 603.379 761.322, 603.525 768.032, 603.634 774.719, 603.687 781.388, 603.666 788.042, 603.551 790.870, 603.417 793.472, 603.168 795.844, 602.813 797.985, 602.360 799.892, 601.816 801.564, 601.190 802.998, 600.489 804.193, 599.722 805.146, 598.896 805.854, 598.020 806.316, 597.101 806.529, 596.148 806.469, 594.964 806.092, 593.920 805.436, 593.003 804.542, 592.200 803.451, 591.499 802.203, 590.885 800.839, 590.348 799.399, 589.872 797.923, 589.446 796.453, 589.055 795.029, 588.688 793.691, 588.330 788.363, 586.947 783.491, 585.440 779.036, 583.812 774.958, 582.067 771.217, 580.207 767.775, 578.236 764.592, 576.158 761.629, 573.975 758.845, 571.691 756.200, 569.309 753.656, 566.832 751.171, 564.264 744.320, 556.980 737.469, 549.695 730.618, 542.411 723.767, 535.126 716.916, 527.842 710.065, 520.557 703.214, 513.273 696.363, 505.988 689.512, 498.704 682.661, 491.419 675.810, 484.134 668.960, 476.850 662.109, 469.565 655.258, 462.281 648.882, 455.501 647.863, 454.339 647.037, 453.159 646.404, 451.969 645.962, 450.774 " />
            <path fill="none" stroke-width="3.0" stroke-linecap="butt" stroke-opacity="1.0" stroke="rgb(0, 0, 0)" stroke-linejoin="miter" d=" M 579.356, 574.947 579.059, 571.861 578.858, 568.390 578.627, 562.422 578.446, 556.443 578.311, 550.451 578.218, 544.441 578.161, 538.412 578.159, 537.748 578.138, 532.362 578.143, 526.286 578.172, 520.182 578.174, 519.893 578.220, 514.047 578.282, 507.879 578.354, 501.673 578.432, 495.428 578.492, 494.330 578.641, 493.332 578.871, 492.434 579.177, 491.633 579.551, 490.930 579.989, 490.323 580.482, 489.810 581.026, 489.390 581.613, 489.063 582.237, 488.826 582.892, 488.680 583.571, 488.621 584.384, 488.648 585.215, 488.762 586.063, 488.967 586.929, 489.263 587.812, 489.652 588.713, 490.135 589.631, 490.713 590.566, 491.388 591.518, 492.161 592.487, 493.033 593.473, 494.006 594.475, 495.080 601.274, 502.413 608.074, 509.746 614.873, 517.078 621.673, 524.411 624.346, 527.294 631.146, 534.627 632.701, 536.303 639.500, 543.636 646.299, 550.969 653.099, 558.301 659.898, 565.634 660.998, 566.820 662.124, 568.066 663.156, 569.281 664.093, 570.467 664.932, 571.626 665.674, 572.758 666.315, 573.866 666.856, 574.951 667.294, 576.014 667.627, 577.057 " />
            <path fill="none" stroke-width="3.0" stroke-linecap="butt" stroke-opacity="1.0" stroke="rgb(0, 0, 0)" stroke-linejoin="miter" d=" M 614.592, 599.749 614.285, 598.697 613.778, 597.770 613.093, 596.958 612.251, 596.246 611.275, 595.622 610.186, 595.074 609.006, 594.589 607.756, 594.154 606.459, 593.757 605.136, 593.384 603.810, 593.024 598.517, 591.706 594.049, 590.377 590.334, 589.000 587.301, 587.540 584.878, 585.958 582.992, 584.220 581.570, 582.286 580.538, 580.122 579.825, 577.688 579.356, 574.947 " />
            <path fill="none" stroke-width="3.0" stroke-linecap="butt" stroke-opacity="1.0" stroke="rgb(0, 0, 0)" stroke-linejoin="miter" d=" M 667.627, 577.057 667.855, 578.082 667.976, 579.089 667.989, 580.080 667.712, 581.339 667.209, 582.553 666.471, 583.719 665.492, 584.837 664.265, 585.906 662.780, 586.926 661.032, 587.894 659.012, 588.810 656.714, 589.672 654.128, 590.481 651.248, 591.234 648.066, 591.930 646.775, 592.288 645.576, 592.709 644.474, 593.196 643.471, 593.749 642.571, 594.370 641.775, 595.060 641.088, 595.820 640.511, 596.651 640.049, 597.555 639.705, 598.532 639.480, 599.583 639.378, 600.711 639.438, 601.558 " />
            <path fill="none" stroke-width="3.0" stroke-linecap="butt" stroke-opacity="1.0" stroke="rgb(0, 0, 0)" stroke-linejoin="miter" d=" M 620.931, 332.633 617.960, 323.085 614.989, 313.536 612.018, 303.988 609.046, 294.440 606.075, 284.891 605.265, 282.289 604.916, 281.539 604.469, 280.880 603.925, 280.311 603.289, 279.832 602.562, 279.443 601.748, 279.144 600.851, 278.935 599.873, 278.817 598.817, 278.788 593.947, 278.895 588.593, 279.068 582.857, 279.294 576.841, 279.561 570.647, 279.853 564.376, 280.159 558.131, 280.464 552.014, 280.756 546.127, 281.021 540.572, 281.245 535.451, 281.415 530.868, 281.517 526.250, 281.545 521.228, 281.504 515.874, 281.409 510.260, 281.273 504.461, 281.110 498.548, 280.934 492.595, 280.758 486.676, 280.597 480.865, 280.463 475.235, 280.371 469.862, 280.335 464.819, 280.369 463.922, 280.435 463.010, 280.604 462.099, 280.872 461.210, 281.233 460.360, 281.682 459.567, 282.215 458.850, 282.828 458.226, 283.514 457.715, 284.270 457.335, 285.091 457.103, 285.971 457.038, 286.906 457.113, 296.906 457.188, 306.905 457.263, 316.905 457.338, 326.905 457.414, 336.904 457.421, 337.943 " />
            <path fill="none" stroke-width="3.0" stroke-linecap="butt" stroke-opacity="1.0" stroke="rgb(0, 0, 0)" stroke-linejoin="miter" d=" M 820.872, 329.299 815.212, 321.056 809.551, 312.812 803.890, 304.569 798.230, 296.325 792.569, 288.082 786.709, 279.547 786.022, 278.808 785.166, 278.159 784.164, 277.600 783.037, 277.130 781.809, 276.751 780.502, 276.461 779.139, 276.261 777.742, 276.149 776.333, 276.126 767.692, 276.281 759.469, 276.473 751.604, 276.696 744.036, 276.941 736.706, 277.200 729.551, 277.465 722.512, 277.729 715.526, 277.983 708.533, 278.219 701.471, 278.430 694.278, 278.608 686.892, 278.744 676.893, 278.894 666.894, 279.045 656.895, 279.195 655.546, 279.215 654.657, 279.281 653.747, 279.449 652.833, 279.715 651.935, 280.074 651.070, 280.521 650.256, 281.051 649.513, 281.659 648.859, 282.342 648.311, 283.093 647.888, 283.908 647.608, 284.783 647.490, 285.713 647.513, 286.940 647.662, 288.079 647.934, 289.129 651.593, 298.436 655.251, 307.743 658.909, 317.050 662.104, 325.177 665.762, 334.484 667.921, 339.976 " />
            <path fill="none" stroke-width="3.0" stroke-linecap="butt" stroke-opacity="1.0" stroke="rgb(0, 0, 0)" stroke-linejoin="miter" d=" M 806.092, 593.920 802.057, 584.770 798.021, 575.620 793.986, 566.471 789.951, 557.321 785.916, 548.171 781.880, 539.022 777.845, 529.872 775.769, 525.164 775.160, 524.304 774.334, 523.551 773.329, 522.892 772.182, 522.315 770.928, 521.809 769.606, 521.361 768.252, 520.958 766.903, 520.590 765.597, 520.242 764.370, 519.905 759.483, 518.599 755.013, 517.177 750.923, 515.645 747.177, 514.003 743.741, 512.255 740.576, 510.405 737.648, 508.455 734.920, 506.409 732.356, 504.268 729.919, 502.037 727.573, 499.718 725.281, 497.314 718.483, 489.980 711.685, 482.646 704.887, 475.313 698.089, 467.979 691.291, 460.645 684.493, 453.311 677.694, 445.977 670.896, 438.643 664.098, 431.310 662.889, 430.005 " />
            <path fill="none" stroke-width="3.0" stroke-linecap="butt" stroke-opacity="1.0" stroke="rgb(0, 0, 0)" stroke-linejoin="miter" d=" M 662.104, 325.177 655.123, 332.338 648.142, 339.498 641.161, 346.658 634.180, 353.818 627.199, 360.978 620.218, 368.138 613.238, 375.298 606.257, 382.458 599.276, 389.618 592.295, 396.778 585.314, 403.938 582.644, 406.676 581.518, 407.559 580.472, 408.387 579.992, 408.766 " />
            <path fill="none" stroke-width="3.0" stroke-linecap="butt" stroke-opacity="1.0" stroke="rgb(0, 0, 0)" stroke-linejoin="miter" d=" M 495.482, 361.086 495.621, 371.085 495.760, 381.084 495.900, 391.083 496.039, 401.083 496.178, 411.082 496.318, 421.081 496.457, 431.080 496.596, 441.079 496.736, 451.078 496.875, 461.077 497.014, 471.076 497.154, 481.075 497.293, 491.074 497.432, 501.073 497.454, 502.662 497.420, 506.254 497.179, 509.430 496.686, 512.227 495.895, 514.683 494.761, 516.835 493.236, 518.722 491.276, 520.378 488.834, 521.841 485.864, 523.146 482.320, 524.329 478.155, 525.427 473.323, 526.474 471.759, 526.815 470.317, 527.216 469.002, 527.677 467.816, 528.201 466.763, 528.787 465.844, 529.438 465.063, 530.153 464.423, 530.935 463.927, 531.785 463.577, 532.703 463.376, 533.691 463.327, 534.750 463.462, 544.749 463.597, 554.748 463.732, 564.747 463.867, 574.746 464.001, 584.745 464.136, 594.744 464.276, 605.086 " />
        </g>
    </g>
</svg>
