<?xml version='1.0' encoding='ascii'?>
<svg xmlns="http://www.w3.org/2000/svg" version="1.1" width="1080" height="1080">
    <g id="View Layer_LineSet" xmlns:inkscape="http://www.inkscape.org/namespaces/inkscape" inkscape:groupmode="lineset" inkscape:label="View Layer_LineSet">
        <g xmlns:inkscape="http://www.inkscape.org/namespaces/inkscape" inkscape:groupmode="layer" id="strokes" inkscape:label="strokes">
            <path fill="none" stroke-width="3.0" stroke-linecap="butt" stroke-opacity="1.0" stroke="rgb(0, 0, 0)" stroke-linejoin="miter" d=" M 582.275, 468.563 582.068, 467.701 581.945, 466.720 581.914, 465.616 582.049, 455.617 582.185, 445.618 582.320, 435.619 582.331, 434.803 582.467, 424.804 582.603, 414.805 582.738, 404.806 582.785, 401.392 582.920, 391.393 583.056, 381.394 583.140, 375.197 583.306, 370.946 583.721, 367.153 584.444, 363.769 585.535, 360.745 587.052, 358.031 589.054, 355.576 591.601, 353.330 594.750, 351.240 598.562, 349.256 603.094, 347.324 608.406, 345.394 614.556, 343.413 615.945, 342.912 617.232, 342.400 618.414, 341.862 619.488, 341.285 620.451, 340.653 621.301, 339.953 622.034, 339.170 622.648, 338.290 623.139, 337.298 623.505, 336.180 623.742, 334.922 623.848, 333.509 623.817, 332.408 623.669, 331.405 623.404, 330.501 623.028, 329.695 622.543, 328.989 621.952, 328.381 621.259, 327.872 620.467, 327.462 619.579, 327.150 618.599, 326.938 617.530, 326.824 616.376, 326.809 611.049, 326.998 605.191, 327.266 598.913, 327.598 592.325, 327.978 585.540, 328.389 578.669, 328.815 571.824, 329.241 565.118, 329.650 558.661, 330.026 552.567, 330.353 546.948, 330.615 541.916, 330.797 536.847, 330.897 531.332, 330.929 525.451, 330.907 519.284, 330.845 512.909, 330.757 506.408, 330.656 499.861, 330.556 494.241, 330.482 493.349, 330.471 492.065, 330.459 486.953, 330.414 480.755, 330.400 474.837, 330.443 469.281, 330.556 468.293, 330.642 467.288, 330.840 466.284, 331.144 465.304, 331.550 464.366, 332.052 463.491, 332.643 462.700, 333.320 462.012, 334.075 461.448, 334.905 461.028, 335.802 460.771, 336.762 460.699, 337.779 460.802, 339.119 461.041, 340.360 461.412, 341.503 461.912, 342.549 462.537, 343.501 463.285, 344.361 464.151, 345.129 465.132, 345.810 466.224, 346.403 467.426, 346.911 468.732, 347.335 470.140, 347.678 476.177, 348.890 481.447, 350.172 485.998, 351.572 489.877, 353.138 492.423, 354.530 493.132, 354.918 495.810, 356.958 497.957, 359.306 499.620, 362.008 500.845, 365.110 501.679, 368.657 " />
            <path fill="none" stroke-width="3.0" stroke-linecap="butt" stroke-opacity="1.0" stroke="rgb(0, 0, 0)" stroke-linejoin="miter" d=" M 648.540, 449.043 648.104, 447.859 647.859, 446.674 647.805, 445.492 647.941, 444.321 648.267, 443.166 648.785, 442.034 649.493, 440.930 650.392, 439.860 651.481, 438.830 658.420, 432.745 661.581, 429.901 665.268, 426.585 672.046, 420.379 678.773, 414.156 685.469, 407.946 692.152, 401.778 698.841, 395.683 705.555, 389.692 712.314, 383.836 719.134, 378.147 726.035, 372.657 733.035, 367.398 737.627, 364.167 742.422, 361.017 747.442, 357.965 752.714, 355.028 758.261, 352.223 764.107, 349.567 770.276, 347.078 776.793, 344.773 783.680, 342.669 790.961, 340.783 798.658, 339.133 806.793, 337.736 808.266, 337.427 809.823, 337.036 811.426, 336.559 813.037, 335.992 814.618, 335.331 816.129, 334.573 817.534, 333.714 818.793, 332.750 819.868, 331.678 820.720, 330.493 821.312, 329.192 821.604, 327.771 821.568, 326.682 821.274, 325.694 820.748, 324.807 820.014, 324.020 819.096, 323.334 818.018, 322.747 816.805, 322.258 815.480, 321.868 814.069, 321.575 812.595, 321.379 811.084, 321.280 809.560, 321.276 800.199, 321.571 791.288, 321.901 782.759, 322.258 774.550, 322.635 766.594, 323.024 758.827, 323.417 751.181, 323.806 743.591, 324.185 735.990, 324.545 728.311, 324.878 720.487, 325.178 712.451, 325.436 702.455, 325.723 692.459, 326.010 683.317, 326.272 678.309, 326.416 677.340, 326.501 676.346, 326.696 675.348, 326.997 674.366, 327.399 673.419, 327.895 672.528, 328.480 671.713, 329.149 670.994, 329.897 670.391, 330.717 669.924, 331.605 669.612, 332.555 669.476, 333.561 669.492, 334.888 669.646, 336.115 669.935, 337.246 670.356, 338.282 670.905, 339.224 671.579, 340.075 671.711, 340.202 672.375, 340.836 673.288, 341.510 674.317, 342.097 675.456, 342.600 676.703, 343.020 678.055, 343.360 681.523, 344.091 684.671, 344.906 687.502, 345.801 690.018, 346.776 692.220, 347.829 694.112, 348.957 695.694, 350.160 696.970, 351.435 697.941, 352.781 " />
            <path fill="none" stroke-width="3.0" stroke-linecap="butt" stroke-opacity="1.0" stroke="rgb(0, 0, 0)" stroke-linejoin="miter" d=" M 697.941, 352.781 698.609, 354.196 698.977, 355.678 699.047, 357.226 698.919, 358.253 698.642, 359.304 698.224, 360.381 697.674, 361.485 696.999, 362.617 696.207, 363.778 695.307, 364.970 694.307, 366.194 693.216, 367.451 692.040, 368.743 690.789, 370.070 689.471, 371.434 682.481, 378.585 675.492, 385.737 668.502, 392.889 661.512, 400.040 654.523, 407.192 647.277, 414.605 640.288, 421.757 638.486, 423.600 631.497, 430.752 624.507, 437.903 617.518, 445.055 610.528, 452.207 603.539, 459.358 597.989, 465.037 596.756, 466.007 595.611, 466.917 594.543, 467.762 593.545, 468.538 592.605, 469.241 591.714, 469.867 590.864, 470.412 590.043, 470.872 589.243, 471.244 588.455, 471.523 587.667, 471.704 586.872, 471.785 586.196, 471.774 585.546, 471.687 584.928, 471.520 584.350, 471.267 583.818, 470.925 583.338, 470.488 582.917, 469.952 582.560, 469.312 582.275, 468.563 " />
            <path fill="none" stroke-width="3.0" stroke-linecap="butt" stroke-opacity="1.0" stroke="rgb(0, 0, 0)" stroke-linejoin="miter" d=" M 501.679, 368.657 502.168, 372.694 502.359, 377.265 502.478, 387.264 502.596, 397.264 502.714, 407.263 502.833, 417.262 502.951, 427.262 503.070, 437.261 503.188, 447.260 503.306, 457.259 503.425, 467.259 503.543, 477.258 503.662, 487.257 503.780, 497.257 503.898, 507.256 504.017, 517.255 504.135, 527.255 504.254, 537.254 504.372, 547.253 504.490, 557.252 504.609, 567.252 504.638, 569.752 504.591, 573.599 504.320, 577.004 503.775, 580.008 502.905, 582.655 501.661, 584.984 499.992, 587.036 497.847, 588.852 495.177, 590.472 491.930, 591.935 488.055, 593.281 483.502, 594.550 478.220, 595.779 476.509, 596.180 474.933, 596.641 473.494, 597.165 472.197, 597.752 471.044, 598.403 470.039, 599.120 469.184, 599.904 468.483, 600.755 467.939, 601.676 467.555, 602.666 467.334, 603.728 467.279, 604.861 467.444, 605.730 467.874, 606.575 468.538, 607.385 469.404, 608.149 470.441, 608.856 471.618, 609.496 472.904, 610.058 474.267, 610.531 475.677, 610.905 477.102, 611.169 478.512, 611.312 479.876, 611.323 487.182, 610.928 493.852, 610.426 499.960, 609.841 505.581, 609.196 510.788, 608.516 515.654, 607.823 520.252, 607.142 524.655, 606.497 528.935, 605.912 533.163, 605.409 537.412, 605.013 541.754, 604.748 546.068, 604.622 550.434, 604.601 554.885, 604.663 559.457, 604.784 564.184, 604.941 569.101, 605.110 574.243, 605.270 579.644, 605.397 585.341, 605.467 591.367, 605.459 597.758, 605.348 604.549, 605.113 605.986, 604.995 607.437, 604.769 608.874, 604.442 610.273, 604.020 611.607, 603.510 612.851, 602.918 613.979, 602.250 614.965, 601.513 615.783, 600.713 616.406, 599.857 616.810, 598.951 616.967, 598.001 616.882, 596.816 614.160, 587.193 611.437, 577.571 608.714, 567.949 605.991, 558.327 603.269, 548.705 600.546, 539.082 597.823, 529.460 597.369, 527.857 597.085, 526.879 596.620, 526.022 595.994, 525.272 595.226, 524.619 594.337, 524.049 593.345, 523.552 592.271, 523.114 591.135, 522.724 589.955, 522.370 588.752, 522.040 587.546, 521.720 582.734, 520.557 580.790, 519.991 " />
            <path fill="none" stroke-width="3.0" stroke-linecap="butt" stroke-opacity="1.0" stroke="rgb(0, 0, 0)" stroke-linejoin="miter" d=" M 624.001, 521.633 623.536, 521.904 622.723, 522.494 622.005, 523.146 621.387, 523.863 620.869, 524.645 620.455, 525.493 620.148, 526.408 619.951, 527.391 619.865, 528.443 619.925, 529.232 620.136, 529.965 623.124, 539.508 626.111, 549.052 629.099, 558.595 632.087, 568.138 635.075, 577.681 638.063, 587.224 641.051, 596.768 641.736, 598.955 642.107, 599.674 642.608, 600.327 643.220, 600.911 643.925, 601.422 644.705, 601.857 645.542, 602.214 646.417, 602.488 647.314, 602.677 648.213, 602.778 649.098, 602.787 654.149, 602.529 659.082, 602.209 663.924, 601.840 668.702, 601.434 673.444, 601.003 678.176, 600.559 682.924, 600.114 687.715, 599.681 692.575, 599.271 697.531, 598.898 702.607, 598.573 707.832, 598.308 714.739, 598.060 721.600, 597.909 728.418, 597.833 735.194, 597.815 741.932, 597.836 748.634, 597.876 755.302, 597.918 761.940, 597.942 768.551, 597.930 775.138, 597.863 781.705, 597.723 788.254, 597.490 791.039, 597.306 793.599, 597.013 795.933, 596.618 798.039, 596.129 799.916, 595.555 801.561, 594.904 802.973, 594.183 804.148, 593.400 805.086, 592.563 805.784, 591.681 806.238, 590.761 806.448, 589.811 806.391, 588.636 806.020, 587.607 805.376, 586.708 804.497, 585.927 803.425, 585.250 802.198, 584.663 800.856, 584.153 799.440, 583.706 797.989, 583.309 796.543, 582.947 795.142, 582.607 793.826, 582.276 788.584, 580.996 783.789, 579.585 779.404, 578.046 775.390, 576.383 771.707, 574.601 768.319, 572.703 765.185, 570.693 762.266, 568.576 759.524, 566.354 756.920, 564.033 754.414, 561.615 751.967, 559.106 745.089, 551.846 738.211, 544.587 731.334, 537.327 724.456, 530.068 717.579, 522.809 710.701, 515.549 703.823, 508.290 696.946, 501.031 690.068, 493.771 683.191, 486.512 676.313, 479.252 669.435, 471.993 662.558, 464.734 655.680, 457.474 650.991, 452.525 649.984, 451.382 649.167, 450.220 648.540, 449.043 " />
            <path fill="none" stroke-width="3.0" stroke-linecap="butt" stroke-opacity="1.0" stroke="rgb(0, 0, 0)" stroke-linejoin="miter" d=" M 582.391, 575.431 581.927, 572.705 581.635, 569.631 581.439, 566.171 581.214, 560.222 581.040, 554.260 580.911, 548.284 580.824, 542.290 580.774, 536.277 580.772, 535.731 580.756, 530.241 580.767, 524.179 580.790, 519.991 580.801, 518.089 580.854, 511.969 580.921, 505.814 580.999, 499.623 581.082, 493.392 581.143, 492.295 581.291, 491.297 581.521, 490.397 581.825, 489.594 582.198, 488.887 582.633, 488.274 583.123, 487.755 583.664, 487.328 584.247, 486.992 584.867, 486.747 585.518, 486.590 586.192, 486.521 587.000, 486.535 587.825, 486.637 588.667, 486.828 589.527, 487.110 590.403, 487.484 591.297, 487.951 592.208, 488.514 593.136, 489.172 594.081, 489.928 595.042, 490.783 596.020, 491.738 597.013, 492.794 603.846, 500.095 610.679, 507.397 617.512, 514.698 624.001, 521.633 630.834, 528.934 634.791, 533.163 641.624, 540.465 648.457, 547.767 655.290, 555.068 662.123, 562.370 662.892, 563.192 664.005, 564.413 665.025, 565.605 665.951, 566.770 666.781, 567.909 667.514, 569.024 668.148, 570.116 668.682, 571.187 669.114, 572.238 " />
            <path fill="none" stroke-width="3.0" stroke-linecap="butt" stroke-opacity="1.0" stroke="rgb(0, 0, 0)" stroke-linejoin="miter" d=" M 616.882, 596.816 616.579, 595.772 616.076, 594.858 615.398, 594.060 614.563, 593.365 613.595, 592.761 612.515, 592.234 611.345, 591.771 610.106, 591.360 608.819, 590.987 607.507, 590.639 606.191, 590.304 600.939, 589.084 596.505, 587.838 592.818, 586.530 589.808, 585.127 587.403, 583.592 585.531, 581.891 584.119, 579.988 583.097, 577.847 582.391, 575.431 " />
            <path fill="none" stroke-width="3.0" stroke-linecap="butt" stroke-opacity="1.0" stroke="rgb(0, 0, 0)" stroke-linejoin="miter" d=" M 669.114, 572.238 669.443, 573.271 669.668, 574.287 669.787, 575.287 669.798, 576.274 669.523, 577.533 669.024, 578.750 668.294, 579.924 667.324, 581.055 666.108, 582.141 664.638, 583.182 662.907, 584.177 660.907, 585.125 658.631, 586.024 656.070, 586.875 653.218, 587.676 650.066, 588.427 648.786, 588.806 647.599, 589.247 646.507, 589.751 645.513, 590.320 644.620, 590.955 643.832, 591.656 643.150, 592.426 642.578, 593.264 642.120, 594.173 641.778, 595.152 641.554, 596.204 641.452, 597.329 641.511, 598.172 641.736, 598.955 " />
            <path fill="none" stroke-width="3.0" stroke-linecap="butt" stroke-opacity="1.0" stroke="rgb(0, 0, 0)" stroke-linejoin="miter" d=" M 623.404, 330.501 619.411, 321.333 615.417, 312.165 611.423, 302.997 607.430, 293.829 603.436, 284.661 601.692, 280.656 601.345, 279.913 600.900, 279.261 600.360, 278.700 599.727, 278.229 599.005, 277.849 598.197, 277.560 597.306, 277.361 596.335, 277.253 595.286, 277.236 590.450, 277.395 585.132, 277.626 579.433, 277.914 573.454, 278.245 567.296, 278.604 561.061, 278.977 554.849, 279.350 548.763, 279.707 542.904, 280.036 537.375, 280.320 532.276, 280.545 527.711, 280.698 523.112, 280.775 518.108, 280.790 512.772, 280.753 507.176, 280.678 501.393, 280.579 495.495, 280.467 489.557, 280.357 483.650, 280.260 477.849, 280.190 472.229, 280.160 466.862, 280.182 461.825, 280.271 460.929, 280.347 460.018, 280.526 459.109, 280.803 458.221, 281.174 457.371, 281.633 456.580, 282.175 455.863, 282.795 455.241, 283.489 454.731, 284.251 454.352, 285.075 454.121, 285.958 454.057, 286.894 454.153, 288.129 455.446, 298.045 456.739, 307.961 458.032, 317.877 459.325, 327.793 460.618, 337.709 460.802, 339.119 " />
            <path fill="none" stroke-width="3.0" stroke-linecap="butt" stroke-opacity="1.0" stroke="rgb(0, 0, 0)" stroke-linejoin="miter" d=" M 820.748, 324.807 814.444, 317.044 808.140, 309.281 801.836, 301.519 795.532, 293.756 789.228, 285.994 782.924, 278.231 781.085, 275.967 780.408, 275.240 779.565, 274.604 778.577, 274.060 777.467, 273.606 776.257, 273.243 774.969, 272.969 773.626, 272.784 772.250, 272.688 770.862, 272.681 762.348, 272.926 754.242, 273.206 746.487, 273.511 739.022, 273.835 731.789, 274.171 724.727, 274.512 717.777, 274.849 710.877, 275.177 703.968, 275.487 696.989, 275.773 689.878, 276.027 682.574, 276.242 672.578, 276.502 662.581, 276.762 652.584, 277.022 651.548, 277.049 650.668, 277.124 649.766, 277.302 648.862, 277.576 647.972, 277.943 647.115, 278.397 646.310, 278.934 645.574, 279.548 644.926, 280.235 644.384, 280.989 643.966, 281.806 643.690, 282.680 643.574, 283.607 643.598, 284.830 643.747, 285.962 644.018, 287.005 644.408, 287.961 648.991, 296.849 653.574, 305.737 658.157, 314.625 660.855, 319.856 665.438, 328.744 670.021, 337.632 670.356, 338.282 " />
            <path fill="none" stroke-width="3.0" stroke-linecap="butt" stroke-opacity="1.0" stroke="rgb(0, 0, 0)" stroke-linejoin="miter" d=" M 806.020, 587.607 801.374, 578.751 796.729, 569.896 792.083, 561.040 787.438, 552.185 782.792, 543.329 778.147, 534.474 773.501, 525.618 770.580, 520.051 769.980, 519.207 769.166, 518.472 768.175, 517.833 767.043, 517.279 765.807, 516.796 764.503, 516.372 763.168, 515.994 761.839, 515.649 760.550, 515.326 759.341, 515.010 754.521, 513.790 750.111, 512.450 746.075, 510.991 742.379, 509.419 738.986, 507.737 735.861, 505.948 732.969, 504.056 730.274, 502.064 727.741, 499.976 725.333, 497.796 723.014, 495.527 720.748, 493.172 713.918, 485.868 707.088, 478.564 700.257, 471.260 693.427, 463.956 686.597, 456.652 679.767, 449.348 672.936, 442.044 666.106, 434.740 661.581, 429.901 " />
            <path fill="none" stroke-width="3.0" stroke-linecap="butt" stroke-opacity="1.0" stroke="rgb(0, 0, 0)" stroke-linejoin="miter" d=" M 492.423, 354.530 492.571, 364.529 492.720, 374.528 492.868, 384.527 493.017, 394.526 493.166, 404.524 493.314, 414.523 493.463, 424.522 493.611, 434.521 493.760, 444.520 493.909, 454.519 494.057, 464.518 494.206, 474.517 494.354, 484.516 494.503, 494.515 494.615, 502.091 494.584, 505.683 494.347, 508.861 493.858, 511.664 493.071, 514.132 491.941, 516.303 490.422, 518.213 488.468, 519.901 486.032, 521.403 483.069, 522.757 479.532, 523.998 475.374, 525.164 470.550, 526.290 468.988, 526.657 467.548, 527.082 466.235, 527.565 465.051, 528.108 463.999, 528.712 463.082, 529.378 462.302, 530.107 461.664, 530.900 461.169, 531.758 460.820, 532.682 460.620, 533.674 460.572, 534.734 461.524, 544.688 462.476, 554.643 463.428, 564.598 464.380, 574.552 465.332, 584.507 466.284, 594.461 467.279, 604.861 " />
            <path fill="none" stroke-width="3.0" stroke-linecap="butt" stroke-opacity="1.0" stroke="rgb(0, 0, 0)" stroke-linejoin="miter" d=" M 660.855, 319.856 653.939, 327.079 647.023, 334.302 640.107, 341.525 633.191, 348.748 626.275, 355.971 619.359, 363.194 612.444, 370.417 605.528, 377.639 598.612, 384.862 591.696, 392.085 584.780, 399.308 582.785, 401.392 " />
        </g>
    </g>
</svg>
