<?xml version='1.0' encoding='ascii'?>
<svg xmlns="http://www.w3.org/2000/svg" version="1.1" width="1080" height="1080">
    <g id="View Layer_LineSet" xmlns:inkscape="http://www.inkscape.org/namespaces/inkscape" inkscape:groupmode="lineset" inkscape:label="View Layer_LineSet">
        <g xmlns:inkscape="http://www.inkscape.org/namespaces/inkscape" inkscape:groupmode="layer" id="strokes" inkscape:label="strokes">
            <path fill="none" stroke-width="3.0" stroke-linecap="butt" stroke-opacity="1.0" stroke="rgb(0, 0, 0)" stroke-linejoin="miter" d=" M 587.365, 465.130 587.086, 464.394 586.884, 463.543 586.765, 462.571 586.736, 461.474 586.887, 451.475 587.001, 443.945 587.152, 433.946 587.303, 423.947 587.454, 413.948 587.605, 403.949 587.756, 393.950 587.898, 384.538 588.049, 374.539 588.095, 371.508 588.265, 367.276 588.679, 363.494 589.394, 360.110 590.469, 357.076 591.962, 354.338 593.930, 351.847 596.431, 349.549 599.522, 347.393 603.261, 345.326 607.704, 343.294 612.909, 341.244 618.931, 339.125 620.291, 338.593 621.550, 338.053 622.707, 337.490 623.759, 336.890 624.702, 336.239 625.534, 335.523 626.253, 334.728 626.854, 333.839 627.336, 332.843 627.695, 331.725 627.929, 330.470 628.035, 329.065 628.007, 327.973 627.863, 326.981 627.606, 326.090 627.240, 325.300 626.766, 324.610 626.190, 324.021 625.513, 323.532 624.739, 323.144 623.872, 322.857 622.914, 322.669 621.868, 322.582 620.739, 322.594 615.527, 322.910 609.792, 323.317 603.641, 323.797 597.185, 324.333 590.530, 324.905 583.787, 325.494 577.065, 326.083 570.475, 326.652 564.127, 327.183 558.132, 327.657 552.601, 328.054 547.647, 328.357 542.653, 328.580 537.218, 328.746 531.419, 328.868 525.334, 328.956 519.041, 329.023 512.620, 329.081 506.150, 329.140 499.710, 329.214 493.381, 329.314 492.197, 329.341 487.244, 329.451 485.774, 329.498 481.381, 329.639 475.874, 329.888 474.895, 329.998 473.897, 330.220 472.902, 330.549 471.928, 330.979 470.997, 331.503 470.129, 332.116 469.343, 332.812 468.659, 333.584 468.098, 334.427 467.679, 335.335 467.423, 336.301 467.348, 337.319 467.448, 338.657 467.683, 339.892 468.049, 341.025 468.543, 342.059 469.162, 342.995 469.902, 343.836 470.759, 344.583 471.731, 345.238 472.814, 345.803 474.004, 346.281 475.298, 346.672 476.694, 346.979 482.675, 348.038 486.099, 348.791 487.892, 349.186 492.396, 350.469 496.232, 351.935 499.450, 353.629 502.095, 355.597 504.214, 357.886 505.853, 360.541 " />
            <path fill="none" stroke-width="3.0" stroke-linecap="butt" stroke-opacity="1.0" stroke="rgb(0, 0, 0)" stroke-linejoin="miter" d=" M 652.568, 444.173 651.959, 443.025 651.536, 441.864 651.298, 440.695 651.247, 439.525 651.382, 438.359 651.702, 437.205 652.209, 436.066 652.902, 434.951 653.780, 433.864 654.844, 432.812 658.140, 429.780 661.619, 426.579 668.302, 420.279 674.912, 413.940 681.468, 407.589 687.989, 401.255 694.494, 394.968 701.001, 388.757 707.529, 382.651 714.094, 376.682 720.716, 370.880 727.411, 365.276 734.197, 359.902 738.646, 356.594 743.289, 353.362 748.148, 350.223 753.248, 347.193 758.610, 344.287 764.259, 341.523 770.216, 338.917 776.505, 336.485 783.146, 334.244 790.162, 332.210 797.573, 330.399 805.401, 328.827 806.817, 328.488 808.315, 328.066 809.857, 327.558 811.406, 326.961 812.925, 326.273 814.379, 325.491 815.729, 324.612 816.940, 323.634 817.974, 322.553 818.795, 321.368 819.365, 320.074 819.647, 318.669 819.613, 317.598 819.333, 316.633 818.829, 315.773 818.125, 315.017 817.244, 314.363 816.210, 313.811 815.045, 313.358 813.773, 313.005 812.417, 312.750 811.002, 312.592 809.549, 312.529 808.084, 312.560 799.082, 313.069 790.503, 313.602 782.288, 314.154 774.374, 314.717 766.699, 315.287 759.199, 315.857 751.812, 316.421 744.474, 316.974 737.121, 317.508 729.687, 318.019 722.108, 318.500 714.317, 318.945 704.332, 319.481 694.346, 320.018 684.360, 320.554 681.155, 320.726 680.212, 320.833 679.921, 320.898 679.245, 321.050 678.273, 321.372 677.317, 321.793 676.395, 322.306 675.527, 322.907 674.733, 323.589 674.031, 324.347 673.443, 325.174 672.987, 326.065 672.682, 327.013 672.548, 328.013 672.561, 329.326 672.709, 330.539 672.989, 331.652 673.397, 332.667 673.930, 333.587 674.585, 334.413 675.358, 335.148 676.246, 335.792 677.246, 336.349 678.354, 336.819 679.567, 337.204 680.881, 337.508 684.253, 338.146 687.313, 338.875 690.063, 339.692 692.507, 340.594 694.645, 341.581 696.481, 342.651 698.016, 343.802 699.253, 345.032 " />
            <path fill="none" stroke-width="3.0" stroke-linecap="butt" stroke-opacity="1.0" stroke="rgb(0, 0, 0)" stroke-linejoin="miter" d=" M 699.253, 345.032 700.194, 346.339 700.840, 347.722 701.196, 349.179 701.261, 350.708 701.135, 351.727 700.865, 352.774 700.457, 353.850 699.921, 354.956 699.263, 356.093 698.493, 357.262 697.617, 358.464 696.644, 359.700 695.582, 360.972 694.438, 362.280 693.220, 363.626 691.937, 365.010 685.097, 372.305 678.258, 379.601 671.419, 386.896 664.580, 394.192 657.741, 401.487 650.901, 408.783 644.599, 415.505 638.873, 421.614 632.034, 428.909 625.195, 436.205 618.356, 443.500 611.517, 450.796 604.677, 458.091 602.503, 460.411 601.293, 461.413 600.169, 462.352 599.121, 463.224 598.141, 464.026 597.218, 464.753 596.344, 465.403 595.509, 465.971 594.703, 466.454 593.918, 466.848 593.144, 467.149 592.372, 467.354 591.591, 467.459 590.927, 467.468 590.290, 467.402 589.685, 467.254 589.118, 467.020 588.596, 466.696 588.126, 466.276 587.713, 465.756 587.365, 465.130 " />
            <path fill="none" stroke-width="3.0" stroke-linecap="butt" stroke-opacity="1.0" stroke="rgb(0, 0, 0)" stroke-linejoin="miter" d=" M 505.853, 360.541 507.058, 363.605 507.876, 367.124 508.353, 371.141 508.533, 375.698 508.632, 385.697 508.731, 395.697 508.830, 405.696 508.929, 415.696 509.028, 425.695 509.127, 435.695 509.226, 445.694 509.325, 455.694 509.424, 465.693 509.522, 475.693 509.621, 485.693 509.720, 495.692 509.819, 505.692 509.918, 515.691 510.017, 525.691 510.116, 535.690 510.215, 545.690 510.314, 555.689 510.413, 565.689 510.434, 567.793 510.380, 571.637 510.106, 575.046 509.561, 578.066 508.697, 580.740 507.462, 583.111 505.807, 585.221 503.683, 587.112 501.038, 588.827 497.822, 590.407 493.984, 591.892 489.473, 593.326 484.237, 594.748 482.541, 595.211 480.978, 595.730 479.551, 596.306 478.263, 596.941 477.119, 597.635 476.121, 598.389 475.271, 599.204 474.575, 600.081 474.033, 601.022 473.651, 602.027 473.429, 603.097 473.373, 604.233 473.534, 605.096 473.959, 605.926 474.616, 606.711 475.474, 607.443 476.501, 608.112 477.667, 608.708 478.941, 609.222 480.292, 609.645 481.689, 609.966 483.101, 610.177 484.498, 610.267 485.849, 610.228 493.087, 609.561 499.690, 608.811 505.734, 608.000 511.293, 607.147 516.440, 606.275 521.249, 605.404 525.790, 604.555 530.137, 603.749 534.361, 603.006 538.532, 602.349 542.722, 601.799 547.000, 601.375 551.251, 601.091 555.550, 600.910 559.931, 600.808 564.429, 600.760 569.077, 600.743 573.911, 600.732 578.963, 600.703 584.268, 600.631 589.860, 600.492 595.772, 600.263 602.039, 599.919 608.694, 599.437 610.103, 599.268 611.524, 598.990 612.932, 598.613 614.303, 598.142 615.610, 597.586 616.829, 596.953 617.934, 596.248 618.900, 595.480 619.701, 594.655 620.313, 593.782 620.709, 592.867 620.865, 591.918 620.784, 590.743 620.489, 589.717 616.342, 580.618 612.195, 571.518 608.049, 562.418 603.902, 553.318 599.755, 544.219 595.609, 535.119 591.462, 526.019 589.828, 522.434 589.369, 521.596 588.753, 520.871 587.997, 520.247 587.122, 519.709 586.147, 519.247 585.515, 519.008 " />
            <path fill="none" stroke-width="3.0" stroke-linecap="butt" stroke-opacity="1.0" stroke="rgb(0, 0, 0)" stroke-linejoin="miter" d=" M 625.298, 513.108 625.202, 513.144 622.652, 513.961 619.833, 514.739 618.689, 515.124 617.629, 515.565 616.654, 516.061 615.767, 516.616 614.971, 517.228 614.270, 517.900 613.665, 518.633 613.159, 519.427 612.756, 520.283 612.457, 521.202 612.265, 522.186 612.184, 523.234 612.244, 524.016 612.452, 524.738 616.818, 533.735 621.183, 542.732 625.548, 551.728 629.914, 560.725 634.279, 569.722 638.645, 578.719 643.010, 587.716 645.074, 591.969 645.436, 592.670 645.924, 593.300 646.520, 593.857 647.207, 594.338 647.968, 594.742 648.784, 595.065 649.638, 595.306 650.513, 595.461 651.391, 595.528 652.254, 595.505 657.181, 595.066 661.991, 594.570 666.711, 594.029 671.367, 593.453 675.985, 592.854 680.592, 592.243 685.212, 591.631 689.872, 591.030 694.597, 590.449 699.413, 589.901 704.344, 589.397 709.416, 588.947 716.118, 588.455 722.771, 588.059 729.378, 587.740 735.941, 587.479 742.462, 587.259 748.945, 587.059 755.391, 586.862 761.804, 586.649 768.187, 586.401 774.543, 586.100 780.876, 585.727 787.189, 585.264 789.872, 584.984 792.338, 584.604 794.586, 584.132 796.615, 583.576 798.422, 582.943 800.007, 582.243 801.366, 581.483 802.498, 580.670 803.401, 579.812 804.074, 578.919 804.512, 577.996 804.715, 577.053 804.662, 575.898 804.307, 574.897 803.688, 574.034 802.845, 573.295 801.814, 572.666 800.634, 572.131 799.343, 571.675 797.981, 571.285 796.584, 570.944 795.193, 570.638 793.844, 570.352 792.578, 570.071 787.530, 568.993 782.912, 567.768 778.686, 566.403 774.817, 564.903 771.267, 563.273 767.999, 561.517 764.976, 559.642 762.161, 557.653 759.516, 555.554 757.004, 553.352 754.586, 551.051 752.224, 548.657 745.309, 541.433 738.394, 534.209 731.479, 526.985 724.564, 519.762 717.649, 512.538 710.734, 505.314 703.819, 498.090 696.904, 490.866 689.989, 483.643 683.074, 476.419 676.159, 469.195 669.245, 461.971 662.330, 454.747 655.415, 447.523 654.344, 446.405 653.363, 445.302 652.568, 444.173 " />
            <path fill="none" stroke-width="3.0" stroke-linecap="butt" stroke-opacity="1.0" stroke="rgb(0, 0, 0)" stroke-linejoin="miter" d=" M 587.705, 573.091 587.016, 570.712 586.566, 568.016 586.283, 564.967 586.097, 561.532 585.887, 555.619 585.726, 549.693 585.610, 543.751 585.535, 537.790 585.496, 531.809 585.493, 529.726 585.489, 525.803 585.509, 519.772 585.515, 519.008 585.553, 513.712 585.616, 507.620 585.693, 501.495 585.780, 495.333 585.872, 489.131 585.934, 488.038 586.081, 487.041 586.308, 486.138 586.608, 485.330 586.975, 484.614 587.403, 483.991 587.885, 483.459 588.416, 483.018 588.989, 482.665 589.598, 482.402 590.237, 482.226 590.899, 482.136 591.691, 482.125 592.500, 482.200 593.326, 482.364 594.169, 482.617 595.028, 482.962 595.904, 483.399 596.797, 483.929 597.705, 484.555 598.630, 485.277 599.571, 486.097 600.528, 487.015 601.500, 488.034 608.384, 495.287 615.268, 502.540 622.152, 509.794 625.298, 513.108 632.182, 520.362 637.728, 526.206 644.612, 533.459 651.496, 540.712 658.380, 547.965 665.264, 555.219 665.767, 555.749 666.850, 556.921 667.842, 558.068 668.742, 559.191 669.549, 560.291 670.261, 561.371 670.877, 562.431 " />
            <path fill="none" stroke-width="3.0" stroke-linecap="butt" stroke-opacity="1.0" stroke="rgb(0, 0, 0)" stroke-linejoin="miter" d=" M 670.877, 562.431 671.395, 563.474 671.815, 564.501 672.134, 565.513 672.351, 566.512 672.465, 567.499 672.475, 568.477 672.205, 569.734 671.717, 570.957 671.004, 572.147 670.057, 573.302 668.871, 574.422 667.437, 575.506 665.749, 576.553 663.798, 577.564 661.578, 578.537 659.080, 579.471 656.297, 580.367 653.221, 581.224 651.972, 581.646 650.813, 582.126 649.747, 582.665 648.776, 583.265 647.903, 583.927 647.132, 584.651 646.465, 585.439 645.906, 586.292 645.457, 587.210 645.121, 588.194 644.901, 589.246 644.800, 590.366 644.856, 591.200 645.074, 591.969 " />
            <path fill="none" stroke-width="3.0" stroke-linecap="butt" stroke-opacity="1.0" stroke="rgb(0, 0, 0)" stroke-linejoin="miter" d=" M 620.489, 589.717 619.999, 588.827 619.336, 588.058 618.520, 587.398 617.574, 586.832 616.518, 586.348 615.372, 585.930 614.160, 585.566 612.901, 585.241 611.616, 584.943 610.328, 584.657 605.184, 583.632 600.840, 582.552 597.227, 581.384 594.277, 580.095 591.920, 578.654 590.086, 577.029 588.705, 575.185 587.705, 573.091 " />
            <path fill="none" stroke-width="3.0" stroke-linecap="butt" stroke-opacity="1.0" stroke="rgb(0, 0, 0)" stroke-linejoin="miter" d=" M 626.766, 324.610 621.058, 316.399 615.350, 308.189 609.641, 299.978 603.933, 291.767 598.225, 283.557 593.039, 276.097 592.507, 275.551 591.885, 275.097 591.176, 274.735 590.382, 274.465 589.506, 274.287 588.552, 274.201 587.522, 274.207 582.772, 274.471 577.546, 274.817 571.943, 275.228 566.061, 275.688 560.000, 276.180 553.860, 276.689 547.739, 277.197 541.739, 277.687 535.960, 278.143 530.502, 278.548 525.468, 278.886 520.958, 279.139 516.411, 279.318 511.463, 279.443 506.184, 279.525 500.645, 279.574 494.918, 279.603 489.075, 279.622 483.187, 279.643 477.328, 279.678 471.571, 279.736 465.990, 279.831 460.658, 279.973 455.652, 280.173 454.762, 280.269 453.856, 280.469 452.952, 280.766 452.070, 281.157 451.226, 281.635 450.440, 282.195 449.729, 282.832 449.111, 283.540 448.605, 284.313 448.230, 285.147 448.002, 286.036 447.940, 286.974 448.038, 288.208 448.258, 289.347 448.597, 290.393 452.184, 299.728 455.770, 309.062 459.356, 318.397 462.942, 327.732 466.529, 337.067 468.049, 341.025 " />
            <path fill="none" stroke-width="3.0" stroke-linecap="butt" stroke-opacity="1.0" stroke="rgb(0, 0, 0)" stroke-linejoin="miter" d=" M 818.125, 315.017 810.802, 308.207 803.479, 301.397 796.156, 294.587 788.833, 287.778 781.510, 280.968 774.187, 274.158 767.815, 268.232 766.999, 267.624 766.044, 267.108 764.970, 266.684 763.801, 266.352 762.556, 266.109 761.257, 265.956 759.927, 265.890 758.586, 265.912 750.353, 266.336 742.509, 266.784 734.999, 267.251 727.766, 267.731 720.753, 268.218 713.901, 268.706 707.153, 269.188 700.450, 269.661 693.734, 270.116 686.945, 270.549 680.024, 270.954 672.910, 271.325 662.922, 271.811 652.933, 272.296 642.945, 272.782 642.638, 272.797 641.778, 272.890 640.897, 273.086 640.014, 273.378 639.145, 273.761 638.308, 274.230 637.522, 274.780 636.805, 275.406 636.173, 276.101 635.644, 276.861 635.237, 277.681 634.969, 278.554 634.858, 279.476 634.883, 280.689 635.032, 281.809 635.299, 282.838 635.683, 283.778 636.180, 284.630 642.286, 292.549 648.392, 300.468 654.499, 308.387 656.016, 310.354 662.122, 318.273 668.228, 326.193 669.705, 328.108 673.930, 333.587 " />
            <path fill="none" stroke-width="3.0" stroke-linecap="butt" stroke-opacity="1.0" stroke="rgb(0, 0, 0)" stroke-linejoin="miter" d=" M 656.016, 310.354 655.241, 311.258 654.143, 312.496 652.985, 313.769 646.215, 321.130 639.446, 328.490 632.676, 335.850 625.907, 343.211 619.138, 350.571 612.368, 357.931 605.599, 365.292 598.829, 372.652 592.060, 380.012 587.898, 384.538 " />
            <path fill="none" stroke-width="3.0" stroke-linecap="butt" stroke-opacity="1.0" stroke="rgb(0, 0, 0)" stroke-linejoin="miter" d=" M 804.307, 574.897 798.574, 566.703 792.840, 558.510 787.107, 550.317 781.374, 542.124 775.640, 533.930 769.907, 525.737 764.174, 517.544 758.891, 509.994 758.308, 509.181 757.519, 508.482 756.559, 507.883 755.463, 507.373 754.267, 506.936 753.005, 506.559 751.712, 506.228 750.425, 505.931 749.177, 505.653 748.006, 505.380 743.337, 504.330 739.063, 503.147 735.149, 501.836 731.563, 500.400 728.270, 498.846 725.235, 497.177 722.426, 495.398 719.806, 493.514 717.343, 491.530 715.000, 489.449 712.743, 487.278 710.538, 485.020 703.656, 477.764 696.774, 470.509 689.892, 463.254 683.010, 455.999 676.128, 448.744 669.246, 441.488 662.364, 434.233 658.140, 429.780 " />
            <path fill="none" stroke-width="3.0" stroke-linecap="butt" stroke-opacity="1.0" stroke="rgb(0, 0, 0)" stroke-linejoin="miter" d=" M 486.099, 348.791 486.267, 358.790 486.435, 368.788 486.603, 378.787 486.771, 388.785 486.939, 398.784 487.107, 408.783 487.275, 418.781 487.443, 428.780 487.611, 438.778 487.779, 448.777 487.947, 458.776 488.115, 468.774 488.283, 478.773 488.451, 488.771 488.619, 498.770 488.657, 501.070 488.634, 504.660 488.405, 507.844 487.926, 510.661 487.151, 513.154 486.035, 515.360 484.532, 517.320 482.597, 519.072 480.184, 520.655 477.246, 522.106 473.737, 523.466 469.612, 524.770 464.822, 526.059 463.270, 526.478 461.840, 526.951 460.536, 527.479 459.360, 528.062 458.315, 528.702 457.404, 529.399 456.631, 530.155 455.998, 530.970 455.507, 531.846 455.162, 532.783 454.965, 533.782 454.919, 534.845 455.073, 535.654 457.642, 545.318 460.211, 554.982 462.780, 564.647 465.350, 574.311 467.919, 583.975 470.488, 593.640 473.058, 603.304 473.534, 605.096 " />
        </g>
    </g>
</svg>
