<?xml version='1.0' encoding='ascii'?>
<svg xmlns="http://www.w3.org/2000/svg" version="1.1" width="1080" height="1080">
    <g id="View Layer_LineSet" xmlns:inkscape="http://www.inkscape.org/namespaces/inkscape" inkscape:groupmode="lineset" inkscape:label="View Layer_LineSet">
        <g xmlns:inkscape="http://www.inkscape.org/namespaces/inkscape" inkscape:groupmode="layer" id="strokes" inkscape:label="strokes">
            <path fill="none" stroke-width="3.0" stroke-linecap="butt" stroke-opacity="1.0" stroke="rgb(0, 0, 0)" stroke-linejoin="miter" d=" M 593.809, 459.555 593.415, 459.058 593.082, 458.453 592.874, 457.890 592.817, 457.736 592.626, 456.901 592.514, 455.943 592.489, 454.857 592.658, 444.858 592.827, 434.860 592.996, 424.861 593.166, 414.863 593.335, 404.864 593.504, 394.866 593.673, 384.867 593.842, 374.868 593.999, 365.619 594.172, 361.418 594.577, 357.653 594.925, 355.954 595.270, 354.273 596.307, 351.224 597.742, 348.455 599.632, 345.911 602.031, 343.540 604.993, 341.287 608.572, 339.099 609.981, 338.377 612.823, 336.920 617.797, 334.697 623.548, 332.376 624.846, 331.799 626.049, 331.218 627.153, 330.619 628.157, 329.987 629.057, 329.308 629.852, 328.570 630.538, 327.758 631.113, 326.857 631.574, 325.855 631.919, 324.737 632.145, 323.489 632.249, 322.096 632.224, 321.018 632.090, 320.043 631.847, 319.172 631.499, 318.405 631.050, 317.740 630.502, 317.179 629.858, 316.721 629.122, 316.365 628.894, 316.295 628.295, 316.112 627.383, 315.961 626.386, 315.913 625.310, 315.966 620.337, 316.466 614.862, 317.077 608.985, 317.776 602.809, 318.540 596.439, 319.349 589.978, 320.179 583.531, 321.009 577.205, 321.815 571.106, 322.574 565.341, 323.265 560.018, 323.864 555.247, 324.347 550.434, 324.753 545.192, 325.119 539.596, 325.455 533.718, 325.768 527.635, 326.068 521.422, 326.364 515.156, 326.664 508.913, 326.977 502.773, 327.312 496.814, 327.678 491.116, 328.084 490.488, 328.137 485.759, 328.538 484.806, 328.684 483.835, 328.944 482.865, 329.310 481.916, 329.775 481.009, 330.334 480.161, 330.979 479.394, 331.704 478.726, 332.501 478.177, 333.365 477.767, 334.287 477.515, 335.262 477.440, 336.283 477.534, 337.616 477.759, 338.841 478.113, 339.959 478.592, 340.973 479.192, 341.885 479.910, 342.697 480.743, 343.410 481.687, 344.027 482.740, 344.551 483.897, 344.982 485.156, 345.323 486.513, 345.576 492.327, 346.402 497.394, 347.345 501.763, 348.451 505.483, 349.765 508.600, 351.329 511.160, 353.189 513.208, 355.388 " />
            <path fill="none" stroke-width="3.0" stroke-linecap="butt" stroke-opacity="1.0" stroke="rgb(0, 0, 0)" stroke-linejoin="miter" d=" M 657.010, 436.899 656.081, 435.854 655.329, 434.775 655.227, 434.580 654.753, 433.669 654.353, 432.542 654.130, 431.399 654.084, 430.246 654.215, 429.090 654.522, 427.936 655.005, 426.790 655.665, 425.659 656.502, 424.548 657.514, 423.464 663.956, 417.023 670.304, 410.525 676.578, 403.998 682.794, 397.467 688.972, 390.962 695.129, 384.508 701.282, 378.136 707.448, 371.872 713.644, 365.747 719.887, 359.789 726.192, 354.028 732.576, 348.494 736.759, 345.081 741.120, 341.737 745.681, 338.477 750.463, 335.318 755.488, 332.274 760.776, 329.359 766.348, 326.591 772.225, 323.983 778.424, 321.550 784.967, 319.309 791.871, 317.274 799.154, 315.460 800.471, 315.079 801.864, 314.613 803.297, 314.063 804.738, 313.425 806.150, 312.700 807.501, 311.886 808.757, 310.981 809.882, 309.984 810.844, 308.894 811.608, 307.709 812.139, 306.427 812.404, 305.047 812.374, 304.004 812.116, 303.073 811.650, 302.252 810.998, 301.539 810.182, 300.932 809.222, 300.429 808.142, 300.028 806.961, 299.727 805.703, 299.525 804.389, 299.420 803.040, 299.409 801.678, 299.490 793.307, 300.298 785.320, 301.116 777.662, 301.940 770.277, 302.767 763.107, 303.592 756.094, 304.412 749.179, 305.224 742.303, 306.023 735.406, 306.806 728.426, 307.569 721.302, 308.309 713.972, 309.022 704.015, 309.954 694.059, 310.887 684.102, 311.819 682.681, 311.952 681.790, 312.091 680.875, 312.340 679.955, 312.691 679.049, 313.140 678.176, 313.679 677.353, 314.302 676.600, 315.002 676.151, 315.523 675.935, 315.773 675.376, 316.609 674.942, 317.503 674.652, 318.448 674.523, 319.438 674.532, 320.731 674.669, 321.920 674.932, 323.006 675.316, 323.992 675.819, 324.878 676.437, 325.668 677.167, 326.363 678.006, 326.965 678.951, 327.476 679.998, 327.898 681.145, 328.234 682.387, 328.484 685.574, 328.988 688.464, 329.592 691.061, 330.294 693.366, 331.092 695.383, 331.984 697.113, 332.968 698.559, 334.043 " />
            <path fill="none" stroke-width="3.0" stroke-linecap="butt" stroke-opacity="1.0" stroke="rgb(0, 0, 0)" stroke-linejoin="miter" d=" M 698.559, 334.043 699.723, 335.206 700.608, 336.456 701.215, 337.792 701.547, 339.211 701.606, 340.712 701.485, 341.719 701.228, 342.759 700.841, 343.832 700.333, 344.940 699.710, 346.083 698.981, 347.262 698.152, 348.477 697.231, 349.730 696.226, 351.022 695.144, 352.353 693.991, 353.723 692.777, 355.134 686.214, 362.680 679.651, 370.225 673.089, 377.770 666.526, 385.315 659.963, 392.861 653.401, 400.406 646.838, 407.951 640.275, 415.496 638.675, 417.336 638.540, 417.492 631.977, 425.037 625.414, 432.583 618.852, 440.128 612.289, 447.673 607.585, 453.082 606.425, 454.130 605.348, 455.111 604.344, 456.023 603.404, 456.863 602.519, 457.626 601.681, 458.310 600.880, 458.911 600.108, 459.427 599.356, 459.854 598.614, 460.188 597.874, 460.427 597.126, 460.567 596.490, 460.607 595.880, 460.570 595.300, 460.452 594.758, 460.246 594.259, 459.949 593.809, 459.555 " />
            <path fill="none" stroke-width="3.0" stroke-linecap="butt" stroke-opacity="1.0" stroke="rgb(0, 0, 0)" stroke-linejoin="miter" d=" M 513.208, 355.388 514.790, 357.969 515.950, 360.976 516.734, 364.450 517.185, 368.434 517.349, 372.968 517.420, 382.968 517.491, 392.967 517.562, 402.967 517.633, 412.967 517.704, 422.967 517.776, 432.966 517.847, 442.966 517.918, 452.966 517.989, 462.966 518.060, 472.965 518.131, 482.965 518.203, 492.965 518.274, 502.965 518.345, 512.964 518.416, 522.964 518.487, 532.964 518.558, 542.964 518.629, 552.963 518.711, 564.380 518.649, 568.216 518.375, 571.631 517.840, 574.672 516.995, 577.386 515.793, 579.819 514.184, 582.015 512.119, 584.019 509.549, 585.876 506.425, 587.631 502.695, 589.328 498.309, 591.010 493.216, 592.723 491.565, 593.281 490.043, 593.887 488.653, 594.543 487.399, 595.249 486.283, 596.007 485.309, 596.817 484.480, 597.680 483.800, 598.596 483.270, 599.567 482.895, 600.594 482.676, 601.676 482.618, 602.816 482.774, 603.670 483.185, 604.475 483.823, 605.223 484.656, 605.906 485.655, 606.517 486.788, 607.046 488.027, 607.488 489.340, 607.833 490.698, 608.075 492.071, 608.205 493.430, 608.216 494.744, 608.099 501.779, 607.021 508.191, 605.898 514.056, 604.746 519.445, 603.581 524.432, 602.421 529.088, 601.281 533.482, 600.179 537.686, 599.132 541.767, 598.156 545.796, 597.268 549.839, 596.486 553.966, 595.825 558.063, 595.305 562.203, 594.885 566.421, 594.540 570.747, 594.242 575.216, 593.967 579.859, 593.687 584.710, 593.377 589.799, 593.011 595.160, 592.563 600.823, 592.008 606.822, 591.321 613.187, 590.475 614.533, 590.229 615.891, 589.876 617.237, 589.425 618.547, 588.883 619.797, 588.261 620.962, 587.566 622.019, 586.808 622.942, 585.995 623.709, 585.135 624.295, 584.237 624.675, 583.309 624.825, 582.361 624.751, 581.203 624.471, 580.204 624.006, 579.349 618.073, 571.300 612.140, 563.250 606.207, 555.200 600.274, 547.150 594.341, 539.101 591.202, 534.842 " />
            <path fill="none" stroke-width="3.0" stroke-linecap="butt" stroke-opacity="1.0" stroke="rgb(0, 0, 0)" stroke-linejoin="miter" d=" M 622.185, 496.801 621.584, 497.909 620.768, 499.013 619.739, 500.094 618.493, 501.151 617.021, 502.184 615.317, 503.194 613.375, 504.178 611.187, 505.138 608.747, 506.073 606.047, 506.984 604.952, 507.422 603.936, 507.910 603.003, 508.451 602.154, 509.044 601.393, 509.691 600.723, 510.392 600.145, 511.148 599.662, 511.960 599.278, 512.828 598.995, 513.754 598.815, 514.738 598.740, 515.782 598.801, 516.553 599.003, 517.258 599.332, 517.894 605.411, 525.835 611.489, 533.775 617.568, 541.716 623.647, 549.656 629.725, 557.596 635.804, 565.537 641.883, 573.477 648.227, 581.764 648.690, 582.360 649.255, 582.878 649.908, 583.317 650.630, 583.674 651.405, 583.949 652.216, 584.139 653.047, 584.245 653.881, 584.263 654.701, 584.193 659.381, 583.490 663.947, 582.739 668.425, 581.948 672.839, 581.127 677.214, 580.285 681.575, 579.433 685.947, 578.580 690.354, 577.735 694.819, 576.909 699.367, 576.109 704.020, 575.347 708.803, 574.632 715.118, 573.788 721.380, 573.042 727.594, 572.374 733.760, 571.768 739.881, 571.203 745.961, 570.661 752.001, 570.124 758.005, 569.574 763.976, 568.991 769.916, 568.359 775.830, 567.658 781.720, 566.870 784.221, 566.454 786.521, 565.952 788.616, 565.372 790.507, 564.721 792.191, 564.007 793.667, 563.239 794.934, 562.424 795.989, 561.570 796.831, 560.685 797.458, 559.776 797.868, 558.852 798.058, 557.919 798.011, 556.794 797.682, 555.834 797.109, 555.023 796.325, 554.345 795.367, 553.784 794.270, 553.322 793.069, 552.944 791.801, 552.632 790.502, 552.372 789.206, 552.145 787.951, 551.935 786.771, 551.726 782.069, 550.933 777.763, 549.975 773.823, 548.857 770.212, 547.588 766.899, 546.175 763.848, 544.624 761.025, 542.943 758.396, 541.138 755.925, 539.217 753.577, 537.186 751.317, 535.054 749.110, 532.826 742.184, 525.612 735.258, 518.399 728.333, 511.185 721.407, 503.972 714.481, 496.758 707.555, 489.545 700.630, 482.331 693.704, 475.118 686.778, 467.904 679.852, 460.691 672.927, 453.477 666.001, 446.264 659.075, 439.050 657.010, 436.899 " />
            <path fill="none" stroke-width="3.0" stroke-linecap="butt" stroke-opacity="1.0" stroke="rgb(0, 0, 0)" stroke-linejoin="miter" d=" M 594.112, 567.525 593.158, 565.501 592.503, 563.179 592.078, 560.528 591.815, 557.519 591.644, 554.120 591.456, 548.267 591.316, 542.397 591.218, 536.508 591.202, 534.842 591.160, 530.600 591.137, 524.668 591.144, 518.712 591.178, 512.729 591.234, 506.716 591.308, 500.671 591.396, 494.592 591.493, 488.477 591.596, 482.322 591.658, 481.235 591.801, 480.239 592.021, 479.334 592.310, 478.518 592.664, 477.791 593.075, 477.152 593.539, 476.602 594.049, 476.139 594.599, 475.763 595.183, 475.473 595.795, 475.268 596.429, 475.148 597.188, 475.099 597.962, 475.136 598.753, 475.259 599.559, 475.470 600.381, 475.771 601.219, 476.162 602.072, 476.646 602.940, 477.223 603.823, 477.895 604.721, 478.662 605.635, 479.526 606.562, 480.489 613.479, 487.711 620.396, 494.933 622.185, 496.801 629.102, 504.023 636.018, 511.246 639.179, 514.545 646.095, 521.767 653.012, 528.989 659.929, 536.211 666.846, 543.434 667.612, 544.233 668.636, 545.334 669.574, 546.413 " />
            <path fill="none" stroke-width="3.0" stroke-linecap="butt" stroke-opacity="1.0" stroke="rgb(0, 0, 0)" stroke-linejoin="miter" d=" M 669.574, 546.413 670.424, 547.474 671.187, 548.517 671.859, 549.545 672.440, 550.558 672.929, 551.560 673.324, 552.550 673.624, 553.531 673.828, 554.505 673.934, 555.473 673.941, 556.437 673.683, 557.690 673.218, 558.923 672.539, 560.133 671.640, 561.323 670.514, 562.490 669.152, 563.635 667.549, 564.758 665.698, 565.859 663.589, 566.938 661.217, 567.994 658.573, 569.028 655.651, 570.038 654.464, 570.521 653.361, 571.058 652.347, 571.648 651.423, 572.293 650.592, 572.994 649.857, 573.751 649.222, 574.565 648.688, 575.437 648.259, 576.369 647.938, 577.359 647.726, 578.411 647.627, 579.523 647.679, 580.344 647.884, 581.092 648.227, 581.764 " />
            <path fill="none" stroke-width="3.0" stroke-linecap="butt" stroke-opacity="1.0" stroke="rgb(0, 0, 0)" stroke-linejoin="miter" d=" M 624.006, 579.349 623.375, 578.625 622.598, 578.016 621.696, 577.507 620.689, 577.084 619.597, 576.733 618.439, 576.438 617.238, 576.185 616.011, 575.959 614.781, 575.746 609.867, 575.010 605.715, 574.174 602.260, 573.212 599.439, 572.094 597.184, 570.792 595.431, 569.279 594.112, 567.525 " />
            <path fill="none" stroke-width="3.0" stroke-linecap="butt" stroke-opacity="1.0" stroke="rgb(0, 0, 0)" stroke-linejoin="miter" d=" M 630.502, 317.179 629.162, 315.982 621.706, 309.318 614.250, 302.654 606.794, 295.990 599.338, 289.326 591.882, 282.662 584.426, 275.998 578.924, 271.081 578.324, 270.651 577.640, 270.316 576.875, 270.074 576.032, 269.927 575.113, 269.873 574.121, 269.913 569.547, 270.332 564.511, 270.849 559.108, 271.443 553.433, 272.096 547.579, 272.788 541.643, 273.499 535.722, 274.209 529.911, 274.898 524.311, 275.547 519.017, 276.134 514.131, 276.640 509.750, 277.044 505.331, 277.377 500.518, 277.669 495.380, 277.929 489.984, 278.167 484.400, 278.390 478.698, 278.608 472.948, 278.829 467.222, 279.063 461.591, 279.317 456.127, 279.602 450.905, 279.926 445.997, 280.298 445.124, 280.424 444.236, 280.655 443.351, 280.984 442.486, 281.406 441.660, 281.913 440.890, 282.501 440.194, 283.163 439.590, 283.893 439.097, 284.686 438.730, 285.534 438.510, 286.432 438.452, 287.374 438.553, 288.606 438.773, 289.739 439.110, 290.775 439.560, 291.716 440.120, 292.564 446.329, 300.403 452.539, 308.241 458.749, 316.079 464.958, 323.918 471.168, 331.756 475.831, 337.643 479.192, 341.885 " />
            <path fill="none" stroke-width="3.0" stroke-linecap="butt" stroke-opacity="1.0" stroke="rgb(0, 0, 0)" stroke-linejoin="miter" d=" M 810.182, 300.932 801.846, 295.408 793.509, 289.885 785.173, 284.361 776.837, 278.838 768.501, 273.314 760.165, 267.791 751.829, 262.267 744.766, 257.588 743.867, 257.113 742.857, 256.732 741.757, 256.443 740.586, 256.245 739.365, 256.136 738.114, 256.114 736.854, 256.178 729.109, 256.856 721.724, 257.546 714.645, 258.245 707.820, 258.948 701.196, 259.651 694.719, 260.351 688.334, 261.043 681.985, 261.724 675.618, 262.390 669.176, 263.037 662.602, 263.661 655.838, 264.257 645.873, 265.101 635.909, 265.944 626.979, 266.699 626.158, 266.820 625.317, 267.042 624.474, 267.360 623.645, 267.767 622.847, 268.258 622.098, 268.828 621.414, 269.470 620.812, 270.178 620.309, 270.947 619.923, 271.770 619.670, 272.643 619.567, 273.558 619.596, 274.756 619.742, 275.859 620.002, 276.867 620.372, 277.783 620.850, 278.609 621.434, 279.346 622.119, 279.996 629.768, 286.438 637.416, 292.880 643.518, 298.020 651.167, 304.463 658.815, 310.905 660.880, 312.645 668.529, 319.087 676.177, 325.529 677.167, 326.363 " />
            <path fill="none" stroke-width="3.0" stroke-linecap="butt" stroke-opacity="1.0" stroke="rgb(0, 0, 0)" stroke-linejoin="miter" d=" M 643.518, 298.020 643.274, 298.483 642.619, 299.570 641.873, 300.690 641.042, 301.845 640.134, 303.034 639.155, 304.258 638.112, 305.519 637.011, 306.818 630.506, 314.413 629.162, 315.982 " />
            <path fill="none" stroke-width="3.0" stroke-linecap="butt" stroke-opacity="1.0" stroke="rgb(0, 0, 0)" stroke-linejoin="miter" d=" M 797.109, 555.023 790.080, 547.910 783.051, 540.797 776.023, 533.683 768.994, 526.570 761.966, 519.457 754.937, 512.343 747.908, 505.230 740.880, 498.117 737.534, 494.731 736.789, 494.083 735.884, 493.543 734.851, 493.094 733.723, 492.723 732.534, 492.414 731.316, 492.152 730.102, 491.922 728.927, 491.709 727.822, 491.497 723.419, 490.691 719.384, 489.734 715.688, 488.633 712.297, 487.395 709.181, 486.024 706.308, 484.528 703.646, 482.913 701.162, 481.185 698.825, 479.350 696.600, 477.414 694.456, 475.384 692.360, 473.265 685.435, 466.051 678.510, 458.836 671.585, 451.622 664.660, 444.408 657.736, 437.193 655.227, 434.580 " />
            <path fill="none" stroke-width="3.0" stroke-linecap="butt" stroke-opacity="1.0" stroke="rgb(0, 0, 0)" stroke-linejoin="miter" d=" M 475.831, 337.643 476.030, 347.641 476.230, 357.639 476.429, 367.637 476.628, 377.635 476.828, 387.633 477.027, 397.631 477.226, 407.629 477.426, 417.627 477.625, 427.625 477.824, 437.623 478.024, 447.621 478.223, 457.619 478.422, 467.617 478.622, 477.615 478.821, 487.613 479.020, 497.611 479.066, 499.883 479.055, 503.473 478.843, 506.666 478.385, 509.507 477.637, 512.038 476.554, 514.300 475.093, 516.336 473.208, 518.186 470.854, 519.891 467.986, 521.493 464.558, 523.033 460.524, 524.550 455.836, 526.086 454.317, 526.586 452.917, 527.134 451.640, 527.729 450.489, 528.374 449.467, 529.069 448.576, 529.815 447.820, 530.612 447.201, 531.462 446.723, 532.365 446.388, 533.321 446.198, 534.333 446.157, 535.400 446.310, 536.203 446.699, 536.963 451.454, 545.760 456.208, 554.558 460.963, 563.355 465.717, 572.153 470.472, 580.950 475.226, 589.748 479.981, 598.545 483.185, 604.475 " />
            <path fill="none" stroke-width="3.0" stroke-linecap="butt" stroke-opacity="1.0" stroke="rgb(0, 0, 0)" stroke-linejoin="miter" d=" M 609.981, 338.377 603.476, 345.972 596.970, 353.566 594.925, 355.954 " />
        </g>
    </g>
</svg>
