<?xml version='1.0' encoding='ascii'?>
<svg xmlns="http://www.w3.org/2000/svg" version="1.1" width="1080" height="1080">
    <g id="View Layer_LineSet" xmlns:inkscape="http://www.inkscape.org/namespaces/inkscape" inkscape:groupmode="lineset" inkscape:label="View Layer_LineSet">
        <g xmlns:inkscape="http://www.inkscape.org/namespaces/inkscape" inkscape:groupmode="layer" id="strokes" inkscape:label="strokes">
            <path fill="none" stroke-width="3.0" stroke-linecap="butt" stroke-opacity="1.0" stroke="rgb(0, 0, 0)" stroke-linejoin="miter" d=" M 596.464, 454.851 596.086, 454.370 595.767, 453.780 595.513, 453.075 595.330, 452.251 595.224, 451.303 595.201, 450.224 595.378, 440.225 595.556, 430.227 595.734, 420.228 595.912, 410.230 596.089, 400.231 596.267, 390.233 596.439, 380.553 596.617, 370.554 596.738, 363.704 596.778, 361.496 596.950, 357.318 597.344, 353.567 598.015, 350.190 599.016, 347.133 600.400, 344.345 602.219, 341.769 604.527, 339.351 607.375, 337.037 610.815, 334.772 614.898, 332.500 619.673, 330.167 625.191, 327.717 626.436, 327.113 627.589, 326.506 628.648, 325.883 629.611, 325.231 630.475, 324.536 631.237, 323.783 631.896, 322.960 632.448, 322.053 632.891, 321.048 633.223, 319.930 633.441, 318.687 633.542, 317.303 633.520, 316.234 633.392, 315.271 633.161, 314.413 632.829, 313.661 632.400, 313.013 631.875, 312.470 631.259, 312.031 630.554, 311.696 629.763, 311.466 628.888, 311.339 627.934, 311.315 626.902, 311.395 622.134, 312.013 616.881, 312.754 616.394, 312.826 611.240, 313.592 605.309, 314.504 599.188, 315.465 592.975, 316.450 586.772, 317.435 580.682, 318.394 574.806, 319.302 569.249, 320.133 564.116, 320.862 559.513, 321.463 554.867, 321.988 549.806, 322.484 544.399, 322.960 538.717, 323.420 532.833, 323.873 526.821, 324.325 520.753, 324.782 514.704, 325.253 508.751, 325.743 502.970, 326.260 497.439, 326.810 492.237, 327.400 491.311, 327.570 490.405, 327.843 490.367, 327.854 489.424, 328.244 488.502, 328.733 487.619, 329.315 486.794, 329.981 486.047, 330.724 485.397, 331.538 484.862, 332.415 484.462, 333.347 484.215, 334.328 484.141, 335.350 484.230, 336.679 484.447, 337.897 484.789, 339.005 485.253, 340.005 485.835, 340.901 486.532, 341.693 487.340, 342.384 488.257, 342.975 489.279, 343.470 490.402, 343.870 491.625, 344.178 492.942, 344.395 498.586, 345.067 503.502, 345.875 507.739, 346.864 511.344, 348.076 514.363, 349.554 516.841, 351.341 " />
            <path fill="none" stroke-width="3.0" stroke-linecap="butt" stroke-opacity="1.0" stroke="rgb(0, 0, 0)" stroke-linejoin="miter" d=" M 751.060, 528.374 748.839, 526.452 746.700, 524.426 744.611, 522.303 737.714, 515.063 730.816, 507.823 723.918, 500.582 717.577, 493.925 710.679, 486.685 705.851, 481.616 698.953, 474.376 692.056, 467.135 685.158, 459.895 678.261, 452.654 671.363, 445.414 664.466, 438.173 657.082, 430.422 656.195, 429.414 655.477, 428.368 654.928, 427.289 654.548, 426.184 654.336, 425.058 654.293, 423.917 654.420, 422.768 654.715, 421.615 655.179, 420.466 655.811, 419.325 656.612, 418.200 657.581, 417.095 663.743, 410.525 669.813, 403.906 675.808, 397.264 681.745, 390.624 687.641, 384.014 693.514, 377.461 699.379, 370.990 705.253, 364.632 711.152, 358.413 717.091, 352.362 723.086, 346.507 729.152, 340.879 733.124, 337.402 737.263, 333.991 741.590, 330.659 746.124, 327.423 750.886, 324.294 755.895, 321.290 761.170, 318.423 766.729, 315.708 772.590, 313.160 778.771, 310.794 785.290, 308.623 792.161, 306.661 793.403, 306.255 794.716, 305.763 796.068, 305.187 797.426, 304.525 798.758, 303.778 800.031, 302.945 801.215, 302.025 802.276, 301.018 803.183, 299.923 803.904, 298.740 804.405, 297.467 804.656, 296.104 804.629, 295.079 804.387, 294.170 803.949, 293.373 803.336, 292.687 802.568, 292.109 801.665, 291.637 800.648, 291.268 799.536, 291.000 798.351, 290.831 797.112, 290.758 795.841, 290.778 794.557, 290.890 786.663, 291.881 779.125, 292.874 771.892, 293.866 764.912, 294.854 758.130, 295.837 751.493, 296.812 744.944, 297.776 738.427, 298.728 731.886, 299.665 725.262, 300.585 718.498, 301.486 711.533, 302.366 701.607, 303.583 691.681, 304.800 681.746, 306.018 680.895, 306.177 680.023, 306.445 679.145, 306.815 678.281, 307.281 677.447, 307.836 676.662, 308.472 675.943, 309.184 675.307, 309.963 674.773, 310.804 674.358, 311.699 674.162, 312.365 674.080, 312.641 673.956, 313.624 673.963, 314.904 674.093, 316.077 674.342, 317.146 674.707, 318.112 675.185, 318.977 675.774, 319.743 676.470, 320.412 677.269, 320.987 678.169, 321.469 679.167, 321.861 680.260, 322.164 681.445, 322.380 684.481, 322.800 687.234, 323.325 689.707, 323.954 691.902, 324.685 693.821, 325.516 695.467, 326.446 " />
            <path fill="none" stroke-width="3.0" stroke-linecap="butt" stroke-opacity="1.0" stroke="rgb(0, 0, 0)" stroke-linejoin="miter" d=" M 695.467, 326.446 696.842, 327.472 697.949, 328.592 698.789, 329.806 699.365, 331.111 699.679, 332.505 699.733, 333.987 699.617, 334.985 699.371, 336.020 699.002, 337.091 698.517, 338.199 697.923, 339.345 697.227, 340.529 696.437, 341.752 695.559, 343.015 694.600, 344.318 693.568, 345.662 692.469, 347.048 691.310, 348.475 684.970, 356.208 678.629, 363.940 672.288, 371.673 665.947, 379.406 659.607, 387.139 653.266, 394.871 646.925, 402.604 640.585, 410.337 634.244, 418.070 627.903, 425.802 621.562, 433.535 615.222, 441.268 609.710, 447.990 608.595, 449.067 607.559, 450.075 606.593, 451.013 605.689, 451.876 604.838, 452.662 604.032, 453.367 603.262, 453.990 602.519, 454.527 601.795, 454.974 601.082, 455.330 600.370, 455.590 599.651, 455.753 599.040, 455.813 598.453, 455.796 597.896, 455.696 597.375, 455.509 596.896, 455.229 596.464, 454.851 " />
            <path fill="none" stroke-width="3.0" stroke-linecap="butt" stroke-opacity="1.0" stroke="rgb(0, 0, 0)" stroke-linejoin="miter" d=" M 516.841, 351.341 518.822, 353.480 520.351, 356.012 521.470, 358.980 522.224, 362.424 522.655, 366.384 522.806, 370.901 522.860, 380.901 522.914, 390.901 522.968, 400.901 523.022, 410.901 523.076, 420.901 523.130, 430.901 523.184, 440.900 523.238, 450.900 523.292, 460.900 523.346, 470.900 523.400, 480.900 523.454, 490.900 523.508, 500.900 523.562, 510.899 523.616, 520.899 523.670, 530.899 523.724, 540.899 523.778, 550.899 523.837, 561.795 523.772, 565.625 523.501, 569.042 522.978, 572.097 522.155, 574.837 520.987, 577.309 519.424, 579.561 517.420, 581.639 514.926, 583.589 511.894, 585.459 508.274, 587.295 504.016, 589.141 499.069, 591.046 497.464, 591.666 495.985, 592.330 494.634, 593.038 493.414, 593.792 492.329, 594.592 491.382, 595.439 490.575, 596.333 489.912, 597.275 489.396, 598.266 489.029, 599.307 488.816, 600.397 488.757, 601.539 488.907, 602.386 489.306, 603.175 489.924, 603.898 490.733, 604.549 491.702, 605.120 492.803, 605.606 494.006, 605.999 495.281, 606.293 496.600, 606.482 497.933, 606.558 499.252, 606.516 500.528, 606.349 507.358, 604.999 513.579, 603.629 519.266, 602.253 524.489, 600.882 529.320, 599.533 533.828, 598.217 538.081, 596.950 542.148, 595.745 546.095, 594.616 549.989, 593.578 553.896, 592.644 557.882, 591.829 561.837, 591.155 565.832, 590.580 569.900, 590.076 574.072, 589.616 578.379, 589.172 582.852, 588.718 587.522, 588.226 592.420, 587.670 597.577, 587.022 603.023, 586.257 608.787, 585.348 614.900, 584.269 616.193, 583.974 617.497, 583.572 618.789, 583.073 620.047, 582.487 621.247, 581.822 622.365, 581.089 623.380, 580.296 624.267, 579.454 625.003, 578.572 625.566, 577.658 625.932, 576.723 626.077, 575.777 626.008, 574.630 625.741, 573.648 625.296, 572.817 624.692, 572.121 617.826, 564.851 610.960, 557.580 604.094, 550.310 597.228, 543.039 594.001, 539.623 " />
            <path fill="none" stroke-width="3.0" stroke-linecap="butt" stroke-opacity="1.0" stroke="rgb(0, 0, 0)" stroke-linejoin="miter" d=" M 597.871, 563.864 596.604, 562.168 595.690, 560.191 595.063, 557.906 594.658, 555.285 594.409, 552.303 594.250, 548.930 594.077, 543.117 594.001, 539.623 593.950, 537.286 593.865, 531.435 593.817, 525.562 593.803, 519.666 593.806, 518.179 593.814, 515.441 593.818, 513.744 593.859, 507.794 593.910, 502.915 593.921, 501.815 594.001, 495.803 594.094, 489.757 594.197, 483.674 594.304, 477.552 594.365, 476.470 594.504, 475.476 594.717, 474.568 594.996, 473.747 595.337, 473.014 595.734, 472.366 596.180, 471.804 596.671, 471.327 597.200, 470.936 597.762, 470.629 598.351, 470.405 598.580, 470.353 598.961, 470.266 599.691, 470.193 600.435, 470.204 601.195, 470.301 601.969, 470.485 602.759, 470.758 603.563, 471.120 604.382, 471.573 605.215, 472.118 606.063, 472.757 606.925, 473.490 607.801, 474.319 " />
            <path fill="none" stroke-width="3.0" stroke-linecap="butt" stroke-opacity="1.0" stroke="rgb(0, 0, 0)" stroke-linejoin="miter" d=" M 607.801, 474.319 608.690, 475.246 615.594, 482.480 622.499, 489.714 629.403, 496.948 636.307, 504.182 643.211, 511.417 650.115, 518.651 657.019, 525.885 663.923, 533.119 667.071, 536.417 668.047, 537.471 668.941, 538.508 669.752, 539.528 670.479, 540.535 671.119, 541.529 671.672, 542.512 672.138, 543.486 672.514, 544.453 672.799, 545.415 672.992, 546.372 673.092, 547.327 673.097, 548.281 672.849, 549.531 672.404, 550.769 671.755, 551.992 670.895, 553.202 669.818, 554.399 668.517, 555.583 666.985, 556.754 665.215, 557.911 663.199, 559.057 660.931, 560.189 658.404, 561.310 655.608, 562.418 654.473, 562.940 653.418, 563.512 652.447, 564.134 651.562, 564.807 650.767, 565.532 650.063, 566.310 649.454, 567.141 648.942, 568.025 648.531, 568.965 648.222, 569.959 648.018, 571.010 647.922, 572.116 647.970, 572.929 648.166, 573.663 648.493, 574.317 648.935, 574.891 649.475, 575.383 650.099, 575.794 650.789, 576.121 651.530, 576.365 652.306, 576.524 653.100, 576.598 653.897, 576.585 654.682, 576.485 659.157, 575.615 663.521, 574.701 667.798, 573.751 672.014, 572.775 676.190, 571.781 680.352, 570.776 684.522, 569.771 688.723, 568.773 692.978, 567.791 697.310, 566.834 701.741, 565.910 706.292, 565.028 712.299, 563.963 718.252, 562.998 724.154, 562.113 730.009, 561.290 735.817, 560.510 741.582, 559.756 747.307, 559.007 752.994, 558.248 758.647, 557.458 764.267, 556.620 769.859, 555.717 775.427, 554.729 777.790, 554.230 779.962, 553.652 781.941, 553.006 783.727, 552.297 785.317, 551.534 786.711, 550.725 787.907, 549.877 788.904, 548.999 789.699, 548.097 790.292, 547.180 790.679, 546.255 790.860, 545.331 790.816, 544.224 790.508, 543.290 789.967, 542.512 789.229, 541.872 781.540, 535.479 773.851, 529.085 766.161, 522.692 758.472, 516.298 750.783, 509.904 743.094, 503.511 735.405, 497.117 727.716, 490.723 720.835, 485.002 719.971, 484.497 718.985, 484.088 717.910, 483.758 716.775, 483.492 715.613, 483.273 714.456, 483.085 713.335, 482.913 712.281, 482.740 708.079, 482.087 705.851, 481.616 " />
            <path fill="none" stroke-width="3.0" stroke-linecap="butt" stroke-opacity="1.0" stroke="rgb(0, 0, 0)" stroke-linejoin="miter" d=" M 789.229, 541.872 788.325, 541.353 787.291, 540.937 786.158, 540.607 784.962, 540.345 783.736, 540.134 782.513, 539.956 781.328, 539.794 780.215, 539.629 775.774, 539.013 771.707, 538.220 767.983, 537.257 764.571, 536.132 761.439, 534.855 758.554, 533.432 755.884, 531.872 753.397, 530.183 751.060, 528.374 " />
            <path fill="none" stroke-width="3.0" stroke-linecap="butt" stroke-opacity="1.0" stroke="rgb(0, 0, 0)" stroke-linejoin="miter" d=" M 624.692, 572.121 623.948, 571.545 623.083, 571.073 622.118, 570.690 621.070, 570.382 619.960, 570.132 618.807, 569.925 617.631, 569.746 616.451, 569.579 611.734, 569.029 607.747, 568.352 604.429, 567.522 601.719, 566.515 599.554, 565.304 597.871, 563.864 " />
            <path fill="none" stroke-width="3.0" stroke-linecap="butt" stroke-opacity="1.0" stroke="rgb(0, 0, 0)" stroke-linejoin="miter" d=" M 631.259, 312.031 623.062, 306.304 622.179, 305.687 613.982, 299.960 605.784, 294.232 597.587, 288.505 589.389, 282.778 581.192, 277.050 572.995, 271.323 568.103, 267.905 567.440, 267.587 566.700, 267.364 565.884, 267.237 564.995, 267.204 564.036, 267.266 559.611, 267.787 554.738, 268.415 549.507, 269.130 544.009, 269.909 538.336, 270.732 532.579, 271.576 526.834, 272.419 521.193, 273.239 515.752, 274.015 510.608, 274.722 505.856, 275.340 501.594, 275.845 497.293, 276.279 492.606, 276.682 487.600, 277.061 482.340, 277.423 476.894, 277.776 471.329, 278.126 465.715, 278.481 460.121, 278.848 454.617, 279.234 449.274, 279.646 444.164, 280.092 439.359, 280.579 438.505, 280.726 437.636, 280.978 436.770, 281.328 435.924, 281.771 435.116, 282.298 434.363, 282.905 433.683, 283.585 433.093, 284.330 432.611, 285.135 432.255, 285.994 432.041, 286.898 431.987, 287.843 432.089, 289.074 432.308, 290.204 432.640, 291.234 433.084, 292.165 433.635, 293.001 434.291, 293.742 441.658, 300.504 449.025, 307.267 456.392, 314.029 463.759, 320.791 468.419, 325.067 475.786, 331.829 483.153, 338.591 486.532, 341.693 " />
            <path fill="none" stroke-width="3.0" stroke-linecap="butt" stroke-opacity="1.0" stroke="rgb(0, 0, 0)" stroke-linejoin="miter" d=" M 802.568, 292.109 793.790, 287.319 785.012, 282.529 776.234, 277.739 767.456, 272.948 758.678, 268.158 749.900, 263.368 741.122, 258.578 732.344, 253.787 727.736, 251.273 726.878, 250.824 725.916, 250.470 724.868, 250.208 723.753, 250.038 722.590, 249.957 721.398, 249.962 720.198, 250.053 712.821, 250.890 705.781, 251.732 699.029, 252.576 692.515, 253.420 686.189, 254.260 679.998, 255.094 673.893, 255.919 667.818, 256.733 661.722, 257.532 655.550, 258.315 649.248, 259.078 642.760, 259.819 632.820, 260.918 622.881, 262.016 615.030, 262.884 614.240, 263.022 613.431, 263.261 612.620, 263.595 611.823, 264.018 611.056, 264.524 610.336, 265.106 609.679, 265.759 609.102, 266.475 608.620, 267.250 608.250, 268.076 608.009, 268.948 607.912, 269.860 607.944, 271.048 608.087, 272.139 608.340, 273.134 608.700, 274.036 609.163, 274.844 609.727, 275.563 610.388, 276.193 611.145, 276.736 619.456, 282.297 627.767, 287.859 632.120, 290.772 640.430, 296.334 648.741, 301.896 651.603, 303.811 659.914, 309.373 668.225, 314.935 676.535, 320.496 677.269, 320.987 " />
            <path fill="none" stroke-width="3.0" stroke-linecap="butt" stroke-opacity="1.0" stroke="rgb(0, 0, 0)" stroke-linejoin="miter" d=" M 632.120, 290.772 632.077, 290.965 631.754, 291.957 631.323, 292.982 630.791, 294.042 630.165, 295.135 629.451, 296.264 628.655, 297.429 627.786, 298.630 626.848, 299.869 625.848, 301.145 624.794, 302.459 622.179, 305.687 " />
            <path fill="none" stroke-width="3.0" stroke-linecap="butt" stroke-opacity="1.0" stroke="rgb(0, 0, 0)" stroke-linejoin="miter" d=" M 468.419, 325.067 468.640, 335.065 468.862, 345.062 469.083, 355.060 469.305, 365.057 469.526, 375.055 469.748, 385.053 469.969, 395.050 470.190, 405.048 470.412, 415.045 470.633, 425.043 470.855, 435.040 471.076, 445.038 471.298, 455.035 471.519, 465.033 471.741, 475.031 471.962, 485.028 472.184, 495.026 472.280, 499.356 472.279, 502.947 472.080, 506.148 471.641, 509.005 470.917, 511.562 469.866, 513.862 468.444, 515.948 466.607, 517.865 464.312, 519.653 461.513, 521.356 458.166, 523.017 454.224, 524.677 449.642, 526.380 448.156, 526.934 446.787, 527.532 445.539, 528.173 444.414, 528.860 443.414, 529.592 442.544, 530.370 441.806, 531.196 441.202, 532.069 440.736, 532.990 440.410, 533.961 440.227, 534.981 440.189, 536.051 440.341, 536.850 440.725, 537.597 446.678, 545.633 452.630, 553.668 458.583, 561.703 464.536, 569.739 470.488, 577.774 476.441, 585.809 482.394, 593.845 488.346, 601.880 489.306, 603.175 " />
            <path fill="none" stroke-width="3.0" stroke-linecap="butt" stroke-opacity="1.0" stroke="rgb(0, 0, 0)" stroke-linejoin="miter" d=" M 598.580, 470.353 605.497, 477.575 605.789, 477.881 606.726, 478.887 607.585, 479.875 608.365, 480.848 609.066, 481.805 609.687, 482.750 610.225, 483.684 610.681, 484.607 611.053, 485.523 611.339, 486.431 611.539, 487.334 611.652, 488.234 611.675, 489.131 611.467, 490.303 611.073, 491.460 610.488, 492.600 609.704, 493.724 608.717, 494.832 607.519, 495.924 606.103, 496.999 604.464, 498.059 602.595, 499.103 600.489, 500.131 598.138, 501.142 595.537, 502.138 594.481, 502.611 593.910, 502.915 " />
            <path fill="none" stroke-width="3.0" stroke-linecap="butt" stroke-opacity="1.0" stroke="rgb(0, 0, 0)" stroke-linejoin="miter" d=" M 593.806, 518.179 600.777, 525.350 607.747, 532.520 614.717, 539.691 621.688, 546.861 628.658, 554.032 635.628, 561.202 642.598, 568.372 648.935, 574.891 " />
        </g>
    </g>
</svg>
