<?xml version='1.0' encoding='ascii'?>
<svg xmlns="http://www.w3.org/2000/svg" version="1.1" width="1080" height="1080">
    <g id="View Layer_LineSet" xmlns:inkscape="http://www.inkscape.org/namespaces/inkscape" inkscape:groupmode="lineset" inkscape:label="View Layer_LineSet">
        <g xmlns:inkscape="http://www.inkscape.org/namespaces/inkscape" inkscape:groupmode="layer" id="strokes" inkscape:label="strokes">
            <path fill="none" stroke-width="3.0" stroke-linecap="butt" stroke-opacity="1.0" stroke="rgb(0, 0, 0)" stroke-linejoin="miter" d=" M 598.945, 447.913 598.546, 447.559 598.197, 447.100 597.902, 446.530 597.669, 445.844 597.501, 445.037 597.404, 444.102 597.385, 443.034 597.569, 433.036 597.753, 423.038 597.938, 413.040 598.122, 403.041 598.250, 396.108 598.434, 386.110 598.618, 376.112 598.803, 366.114 598.987, 356.115 599.006, 355.104 599.172, 350.961 599.544, 347.231 600.172, 343.862 601.103, 340.797 602.388, 337.983 604.076, 335.363 606.214, 332.882 608.851, 330.483 612.033, 328.111 615.807, 325.709 620.218, 323.222 625.310, 320.593 626.459, 319.949 627.523, 319.306 628.500, 318.651 629.388, 317.971 630.184, 317.252 630.888, 316.481 631.495, 315.644 632.005, 314.727 632.415, 313.718 632.723, 312.603 632.925, 311.367 633.021, 309.997 633.003, 308.943 632.887, 307.997 632.675, 307.159 632.371, 306.428 631.977, 305.804 631.495, 305.287 630.928, 304.876 630.279, 304.572 629.551, 304.373 628.746, 304.279 627.866, 304.291 626.915, 304.407 622.519, 305.192 617.672, 306.116 612.463, 307.152 606.982, 308.272 601.319, 309.448 595.567, 310.653 593.416, 311.104 589.819, 311.859 584.170, 313.035 578.715, 314.154 573.553, 315.186 568.781, 316.101 564.498, 316.870 560.173, 317.566 555.457, 318.250 550.416, 318.926 545.115, 319.599 539.621, 320.271 534.002, 320.949 528.326, 321.635 522.663, 322.333 517.084, 323.048 511.663, 323.784 506.471, 324.544 501.584, 325.332 500.713, 325.537 499.826, 325.857 498.939, 326.282 498.071, 326.805 497.240, 327.419 496.463, 328.116 495.759, 328.886 495.146, 329.724 495.126, 329.759 494.641, 330.619 494.263, 331.565 494.029, 332.553 493.957, 333.576 494.038, 334.899 494.240, 336.106 494.559, 337.198 494.993, 338.179 495.538, 339.049 496.192, 339.812 496.951, 340.469 497.811, 341.023 498.771, 341.477 499.826, 341.831 500.974, 342.090 502.212, 342.254 507.511, 342.701 512.122, 343.312 516.094, 344.129 519.470, 345.193 522.143, 346.473 522.295, 346.545 " />
            <path fill="none" stroke-width="3.0" stroke-linecap="butt" stroke-opacity="1.0" stroke="rgb(0, 0, 0)" stroke-linejoin="miter" d=" M 744.361, 515.607 742.112, 514.080 739.997, 512.427 737.988, 510.656 736.053, 508.779 734.163, 506.805 727.372, 499.463 720.582, 492.122 714.435, 485.477 707.645, 478.136 700.855, 470.795 694.065, 463.453 687.274, 456.112 680.484, 448.771 673.694, 441.430 666.904, 434.089 660.113, 426.748 654.466, 420.642 653.654, 419.688 652.997, 418.688 652.494, 417.649 652.147, 416.576 651.955, 415.475 651.917, 414.352 652.035, 413.212 652.308, 412.062 652.736, 410.908 653.318, 409.756 654.055, 408.611 654.946, 407.479 660.610, 400.735 666.184, 393.952 671.684, 387.156 677.126, 380.371 682.527, 373.623 687.901, 366.936 693.263, 360.338 698.629, 353.855 704.012, 347.514 709.428, 341.341 714.889, 335.364 720.409, 329.612 724.020, 326.052 727.781, 322.553 731.710, 319.127 735.825, 315.789 740.142, 312.550 744.680, 309.425 749.454, 306.428 754.482, 303.572 759.778, 300.870 765.358, 298.336 771.237, 295.984 777.427, 293.826 778.545, 293.385 779.728, 292.859 780.945, 292.249 782.167, 291.555 783.366, 290.780 784.512, 289.922 785.578, 288.983 786.533, 287.964 787.349, 286.864 787.998, 285.685 788.451, 284.427 788.678, 283.089 788.656, 282.090 788.439, 281.212 788.047, 280.450 787.497, 279.802 786.807, 279.265 785.996, 278.835 785.082, 278.510 784.083, 278.287 783.018, 278.163 781.904, 278.134 780.760, 278.197 779.606, 278.350 772.497, 279.588 765.702, 280.817 759.176, 282.036 752.871, 283.243 746.739, 284.440 740.732, 285.625 734.799, 286.797 728.890, 287.958 722.954, 289.105 716.937, 290.241 710.786, 291.363 704.446, 292.473 694.590, 294.160 684.733, 295.846 677.265, 297.124 676.487, 297.311 675.688, 297.606 674.885, 298.001 674.094, 298.491 673.330, 299.067 672.611, 299.721 671.952, 300.447 671.369, 301.237 670.879, 302.084 670.498, 302.980 670.241, 303.918 670.126, 304.890 670.130, 306.150 670.214, 306.973 670.247, 307.300 670.473, 308.342 670.806, 309.279 671.243, 310.113 671.780, 310.846 672.415, 311.479 673.146, 312.015 673.969, 312.457 674.881, 312.805 675.880, 313.063 676.963, 313.232 679.738, 313.532 682.253, 313.947 684.510, 314.474 686.513, 315.111 688.264, 315.857 " />
            <path fill="none" stroke-width="3.0" stroke-linecap="butt" stroke-opacity="1.0" stroke="rgb(0, 0, 0)" stroke-linejoin="miter" d=" M 688.264, 315.857 689.765, 316.709 691.018, 317.667 692.026, 318.727 692.791, 319.888 693.314, 321.148 693.598, 322.506 693.645, 323.961 693.538, 324.946 693.311, 325.972 692.973, 327.038 692.529, 328.146 691.985, 329.294 691.349, 330.485 690.626, 331.717 689.822, 332.992 688.945, 334.310 688.001, 335.671 686.995, 337.076 685.935, 338.524 679.991, 346.565 674.046, 354.607 668.102, 362.648 662.157, 370.689 656.213, 378.731 650.269, 386.772 644.324, 394.813 638.380, 402.855 632.435, 410.896 626.491, 418.937 620.546, 426.979 614.602, 435.020 610.810, 440.150 609.778, 441.267 608.818, 442.313 607.924, 443.286 607.087, 444.182 606.298, 445.000 605.552, 445.736 604.838, 446.388 604.150, 446.954 603.480, 447.431 602.819, 447.817 602.160, 448.108 601.495, 448.303 600.929, 448.391 600.386, 448.401 599.871, 448.329 599.389, 448.168 598.945, 447.913 " />
            <path fill="none" stroke-width="3.0" stroke-linecap="butt" stroke-opacity="1.0" stroke="rgb(0, 0, 0)" stroke-linejoin="miter" d=" M 522.295, 346.545 524.612, 348.226 526.462, 350.276 527.888, 352.735 528.929, 355.644 529.628, 359.041 530.023, 362.966 530.156, 367.455 530.187, 377.455 530.218, 387.455 530.242, 395.502 530.261, 401.656 530.292, 411.656 530.323, 421.656 530.354, 431.656 530.385, 441.656 530.416, 451.656 530.447, 461.656 530.477, 471.656 530.508, 481.656 530.539, 491.656 530.568, 500.995 530.569, 501.447 530.600, 511.447 530.631, 521.447 530.662, 531.447 530.693, 541.447 530.724, 551.446 530.742, 557.482 530.674, 561.300 530.414, 564.720 529.918, 567.792 529.143, 570.567 528.044, 573.096 526.577, 575.428 524.696, 577.612 522.355, 579.697 519.509, 581.734 516.111, 583.770 512.112, 585.855 507.464, 588.039 505.956, 588.750 504.564, 589.497 503.293, 590.282 502.145, 591.105 501.124, 591.966 500.231, 592.866 499.471, 593.806 498.845, 594.785 498.358, 595.805 498.011, 596.866 497.808, 597.967 497.750, 599.110 497.889, 599.948 498.263, 600.713 498.843, 601.399 499.602, 602.002 500.513, 602.516 501.547, 602.936 502.676, 603.259 503.874, 603.478 505.113, 603.589 506.366, 603.587 507.605, 603.468 508.803, 603.227 515.216, 601.482 521.053, 599.753 526.383, 598.051 531.276, 596.383 535.798, 594.760 540.014, 593.190 543.990, 591.684 547.790, 590.251 551.475, 588.902 555.109, 587.647 558.752, 586.495 562.466, 585.458 566.150, 584.564 569.869, 583.766 573.653, 583.034 577.530, 582.341 581.531, 581.657 585.684, 580.954 590.018, 580.202 594.559, 579.375 599.337, 578.443 604.379, 577.379 609.712, 576.155 615.363, 574.744 616.557, 574.380 617.762, 573.910 618.956, 573.344 620.118, 572.693 621.227, 571.969 622.260, 571.181 623.197, 570.341 624.017, 569.459 624.698, 568.545 625.219, 567.611 625.558, 566.666 625.693, 565.722 625.631, 564.591 625.387, 563.635 624.978, 562.838 624.422, 562.183 623.737, 561.654 615.817, 555.548 607.897, 549.443 599.978, 543.337 596.315, 540.513 " />
            <path fill="none" stroke-width="3.0" stroke-linecap="butt" stroke-opacity="1.0" stroke="rgb(0, 0, 0)" stroke-linejoin="miter" d=" M 601.207, 556.814 599.651, 555.479 598.481, 553.868 597.638, 551.958 597.062, 549.727 596.691, 547.153 596.466, 544.211 596.325, 540.877 596.315, 540.513 596.175, 535.125 596.068, 529.353 596.021, 525.351 596.000, 523.559 595.966, 517.742 595.964, 511.900 595.989, 506.031 596.009, 503.609 596.037, 500.134 596.106, 494.206 596.191, 488.245 596.288, 482.251 596.394, 476.219 596.505, 470.149 596.563, 469.074 596.694, 468.082 596.892, 467.172 597.153, 466.346 597.470, 465.603 597.838, 464.942 598.253, 464.364 598.708, 463.868 599.199, 463.455 599.719, 463.124 600.265, 462.875 600.830, 462.707 601.505, 462.600 602.194, 462.575 602.897, 462.635 603.613, 462.780 604.343, 463.012 605.086, 463.332 605.843, 463.741 606.612, 464.241 " />
            <path fill="none" stroke-width="3.0" stroke-linecap="butt" stroke-opacity="1.0" stroke="rgb(0, 0, 0)" stroke-linejoin="miter" d=" M 606.612, 464.241 607.395, 464.832 608.190, 465.517 608.999, 466.295 609.819, 467.169 616.641, 474.482 623.462, 481.794 630.283, 489.106 637.105, 496.418 643.926, 503.730 650.748, 511.043 657.569, 518.355 663.451, 524.661 664.345, 525.649 665.163, 526.624 665.904, 527.587 666.568, 528.541 667.153, 529.487 667.658, 530.427 668.083, 531.363 668.426, 532.296 668.685, 533.228 668.861, 534.161 668.951, 535.097 668.954, 536.037 668.725, 537.283 668.315, 538.525 667.718, 539.766 666.929, 541.004 665.940, 542.241 664.745, 543.478 663.339, 544.714 661.714, 545.950 659.864, 547.188 657.781, 548.427 655.460, 549.668 652.891, 550.912 651.848, 551.489 650.878, 552.111 649.985, 552.777 649.171, 553.490 648.439, 554.249 647.791, 555.054 647.230, 555.908 646.758, 556.809 646.378, 557.759 646.092, 558.757 645.903, 559.805 645.813, 560.903 645.856, 561.703 646.035, 562.417 646.334, 563.045 646.739, 563.587 647.235, 564.043 647.807, 564.414 648.441, 564.700 649.122, 564.899 649.834, 565.014 650.564, 565.043 651.296, 564.986 652.017, 564.844 656.127, 563.740 660.132, 562.599 664.056, 561.428 667.921, 560.235 671.748, 559.027 675.559, 557.811 679.375, 556.594 683.217, 555.383 687.107, 554.186 691.064, 553.010 695.108, 551.862 699.261, 550.749 704.735, 549.380 710.157, 548.112 715.528, 546.926 720.851, 545.806 726.127, 544.731 731.360, 543.683 736.552, 542.645 741.705, 541.599 746.823, 540.526 751.909, 539.409 756.964, 538.229 761.993, 536.970 764.127, 536.357 766.088, 535.678 767.874, 534.942 769.485, 534.155 770.920, 533.326 772.178, 532.462 773.257, 531.571 774.156, 530.661 774.874, 529.738 775.409, 528.811 775.759, 527.887 775.923, 526.974 775.886, 525.895 775.609, 524.999 775.123, 524.266 774.459, 523.679 766.022, 518.310 757.586, 512.940 749.150, 507.571 740.714, 502.202 732.277, 496.832 723.841, 491.463 715.405, 486.094 714.435, 485.477 " />
            <path fill="none" stroke-width="3.0" stroke-linecap="butt" stroke-opacity="1.0" stroke="rgb(0, 0, 0)" stroke-linejoin="miter" d=" M 774.459, 523.679 773.645, 523.218 772.714, 522.865 771.694, 522.600 770.616, 522.406 769.510, 522.263 768.408, 522.152 767.340, 522.054 766.335, 521.951 762.329, 521.577 758.658, 521.010 755.296, 520.259 752.213, 519.334 749.382, 518.244 746.775, 516.999 744.361, 515.607 " />
            <path fill="none" stroke-width="3.0" stroke-linecap="butt" stroke-opacity="1.0" stroke="rgb(0, 0, 0)" stroke-linejoin="miter" d=" M 623.737, 561.654 622.940, 561.235 622.050, 560.910 621.084, 560.662 620.060, 560.475 618.996, 560.334 617.910, 560.221 616.821, 560.121 612.465, 559.835 608.781, 559.384 605.714, 558.744 603.208, 557.895 601.207, 556.814 " />
            <path fill="none" stroke-width="3.0" stroke-linecap="butt" stroke-opacity="1.0" stroke="rgb(0, 0, 0)" stroke-linejoin="miter" d=" M 630.928, 304.876 624.696, 301.702 615.786, 297.163 606.903, 292.639 597.992, 288.100 589.082, 283.561 580.171, 279.022 571.260, 274.483 562.350, 269.945 553.439, 265.406 551.070, 264.199 550.448, 263.906 549.752, 263.710 548.985, 263.611 548.151, 263.609 547.252, 263.703 543.100, 264.371 538.525, 265.162 533.610, 266.051 528.440, 267.014 523.101, 268.027 517.680, 269.065 512.265, 270.103 506.943, 271.116 501.807, 272.077 496.946, 272.961 492.452, 273.743 488.420, 274.395 484.347, 274.979 479.905, 275.545 475.157, 276.099 470.165, 276.646 464.992, 277.190 459.702, 277.736 454.361, 278.289 449.034, 278.854 443.789, 279.435 438.694, 280.038 433.817, 280.666 429.229, 281.325 428.413, 281.503 427.584, 281.786 426.757, 282.168 425.950, 282.642 425.180, 283.200 424.463, 283.835 423.815, 284.541 423.255, 285.310 422.797, 286.135 422.460, 287.008 422.259, 287.923 422.212, 288.872 422.315, 290.104 422.529, 291.229 422.852, 292.250 423.281, 293.168 423.812, 293.986 424.443, 294.705 425.171, 295.328 425.993, 295.857 434.458, 301.181 442.923, 306.505 451.388, 311.828 456.620, 315.118 465.085, 320.442 473.550, 325.766 482.015, 331.089 490.480, 336.413 497.811, 341.023 " />
            <path fill="none" stroke-width="3.0" stroke-linecap="butt" stroke-opacity="1.0" stroke="rgb(0, 0, 0)" stroke-linejoin="miter" d=" M 785.996, 278.835 776.772, 274.974 767.548, 271.112 758.324, 267.250 749.099, 263.388 739.875, 259.526 730.651, 255.664 721.427, 251.803 712.203, 247.941 702.978, 244.079 698.228, 242.090 697.344, 241.773 696.381, 241.551 695.358, 241.419 694.291, 241.376 693.198, 241.420 692.097, 241.547 685.328, 242.606 678.861, 243.660 672.653, 244.708 666.659, 245.749 660.831, 246.781 655.124, 247.804 649.490, 248.816 643.880, 249.817 638.245, 250.805 632.535, 251.780 626.699, 252.741 620.684, 253.687 610.800, 255.203 600.915, 256.719 594.916, 257.639 594.180, 257.802 593.428, 258.066 592.673, 258.424 591.932, 258.869 591.220, 259.395 590.552, 259.996 589.942, 260.664 589.407, 261.393 588.962, 262.176 588.621, 263.007 588.400, 263.878 588.314, 264.784 588.349, 265.960 588.488, 267.035 588.728, 268.012 589.068, 268.892 589.504, 269.677 590.033, 270.369 590.653, 270.970 591.361, 271.481 592.155, 271.905 601.115, 276.346 610.075, 280.787 611.019, 281.255 619.979, 285.696 628.938, 290.137 633.318, 292.308 642.278, 296.749 651.237, 301.190 660.197, 305.631 669.157, 310.072 673.969, 312.457 " />
            <path fill="none" stroke-width="3.0" stroke-linecap="butt" stroke-opacity="1.0" stroke="rgb(0, 0, 0)" stroke-linejoin="miter" d=" M 611.019, 281.255 611.099, 281.591 611.180, 282.951 611.102, 283.871 610.912, 284.827 610.616, 285.819 610.221, 286.848 609.731, 287.914 609.154, 289.017 608.495, 290.159 607.762, 291.339 606.958, 292.558 606.903, 292.639 " />
            <path fill="none" stroke-width="3.0" stroke-linecap="butt" stroke-opacity="1.0" stroke="rgb(0, 0, 0)" stroke-linejoin="miter" d=" M 456.620, 315.118 456.829, 316.798 457.048, 320.985 457.305, 330.982 457.561, 340.979 457.817, 350.975 458.074, 360.972 458.330, 370.969 458.586, 380.966 458.843, 390.962 459.099, 400.959 459.355, 410.956 459.611, 420.952 459.868, 430.949 460.124, 440.946 460.380, 450.943 460.637, 460.939 460.893, 470.936 461.149, 480.933 461.406, 490.929 461.613, 499.016 461.629, 502.609 461.454, 505.823 461.049, 508.705 460.372, 511.302 459.382, 513.659 458.038, 515.823 456.298, 517.838 454.120, 519.751 451.461, 521.605 448.277, 523.446 444.526, 525.320 440.160, 527.272 438.744, 527.907 437.440, 528.579 436.251, 529.290 435.179, 530.039 434.227, 530.827 433.399, 531.654 432.697, 532.522 432.124, 533.431 431.683, 534.380 431.375, 535.371 431.205, 536.405 431.174, 537.481 431.323, 538.274 431.693, 539.003 432.257, 539.663 439.590, 546.462 446.924, 553.261 454.257, 560.060 461.590, 566.859 468.923, 573.658 476.256, 580.457 483.589, 587.256 490.922, 594.055 498.843, 601.399 " />
            <path fill="none" stroke-width="3.0" stroke-linecap="butt" stroke-opacity="1.0" stroke="rgb(0, 0, 0)" stroke-linejoin="miter" d=" M 596.021, 525.351 604.000, 531.379 611.979, 537.407 619.958, 543.435 627.936, 549.463 635.915, 555.491 643.894, 561.519 647.235, 564.043 " />
        </g>
    </g>
</svg>
