<?xml version='1.0' encoding='ascii'?>
<svg xmlns="http://www.w3.org/2000/svg" version="1.1" width="1080" height="1080">
    <g id="View Layer_LineSet" xmlns:inkscape="http://www.inkscape.org/namespaces/inkscape" inkscape:groupmode="lineset" inkscape:label="View Layer_LineSet">
        <g xmlns:inkscape="http://www.inkscape.org/namespaces/inkscape" inkscape:groupmode="layer" id="strokes" inkscape:label="strokes">
            <path fill="none" stroke-width="3.0" stroke-linecap="butt" stroke-opacity="1.0" stroke="rgb(0, 0, 0)" stroke-linejoin="miter" d=" M 599.087, 445.433 598.701, 445.086 598.362, 444.634 598.077, 444.071 597.851, 443.392 597.689, 442.590 597.596, 441.659 597.578, 440.595 597.762, 430.597 597.947, 420.599 598.132, 410.601 598.297, 401.638 598.482, 391.640 598.667, 381.642 598.852, 371.643 599.036, 361.645 599.197, 352.936 599.361, 348.805 599.724, 345.083 600.334, 341.717 601.238, 338.651 602.485, 335.829 604.122, 333.196 606.195, 330.695 608.751, 328.270 611.835, 325.865 615.491, 323.423 619.764, 320.887 624.695, 318.203 625.807, 317.547 626.838, 316.893 627.783, 316.229 628.643, 315.540 629.415, 314.813 630.096, 314.036 630.684, 313.195 631.178, 312.276 631.575, 311.266 631.873, 310.151 632.070, 308.918 632.164, 307.554 632.147, 306.504 632.035, 305.564 631.831, 304.732 631.537, 304.008 631.155, 303.392 630.689, 302.883 630.141, 302.481 629.514, 302.186 628.809, 301.997 628.029, 301.914 627.178, 301.937 626.258, 302.064 622.002, 302.901 617.309, 303.883 612.263, 304.980 606.953, 306.166 601.465, 307.410 595.889, 308.684 590.315, 309.958 585.003, 311.166 584.836, 311.203 579.544, 312.389 574.534, 313.484 569.902, 314.459 565.743, 315.281 561.544, 316.031 556.964, 316.774 552.066, 317.514 546.914, 318.254 541.574, 318.997 536.110, 319.746 530.590, 320.505 525.080, 321.276 519.652, 322.063 514.375, 322.869 509.320, 323.696 504.560, 324.547 503.712, 324.764 502.847, 325.095 501.983, 325.532 501.137, 326.066 500.327, 326.690 499.570, 327.396 498.884, 328.176 498.286, 329.020 497.793, 329.922 497.601, 330.418 497.424, 330.872 497.195, 331.862 497.125, 332.885 497.203, 334.206 497.399, 335.409 497.709, 336.496 498.132, 337.470 498.662, 338.332 499.299, 339.085 500.037, 339.732 500.875, 340.274 501.810, 340.714 502.838, 341.054 503.956, 341.296 505.161, 341.443 510.320, 341.817 514.810, 342.365 516.861, 342.769 518.675, 343.127 521.960, 344.143 524.708, 345.455 " />
            <path fill="none" stroke-width="3.0" stroke-linecap="butt" stroke-opacity="1.0" stroke="rgb(0, 0, 0)" stroke-linejoin="miter" d=" M 739.508, 510.326 737.344, 508.849 735.310, 507.244 733.376, 505.520 731.514, 503.689 729.695, 501.761 722.961, 494.368 716.797, 487.602 710.063, 480.209 703.329, 472.816 696.595, 465.424 689.861, 458.031 683.127, 450.638 676.393, 443.245 669.659, 435.853 662.925, 428.460 656.191, 421.067 652.846, 417.395 652.061, 416.458 651.427, 415.473 650.941, 414.446 650.606, 413.383 650.421, 412.290 650.385, 411.173 650.500, 410.037 650.764, 408.889 651.178, 407.734 651.742, 406.578 652.455, 405.427 653.317, 404.287 658.795, 397.490 664.183, 390.659 669.500, 383.817 674.759, 376.988 679.975, 370.199 685.165, 363.473 690.343, 356.838 695.522, 350.318 700.716, 343.941 705.940, 337.733 711.207, 331.721 716.529, 325.932 720.010, 322.349 723.634, 318.824 727.419, 315.370 731.382, 312.001 735.539, 308.730 739.907, 305.570 744.503, 302.534 749.340, 299.636 754.435, 296.888 759.801, 294.305 765.452, 291.898 771.400, 289.681 772.475, 289.229 773.611, 288.693 774.780, 288.073 775.955, 287.371 777.106, 286.587 778.208, 285.722 779.231, 284.778 780.149, 283.755 780.934, 282.655 781.557, 281.478 781.992, 280.224 782.211, 278.894 782.190, 277.904 781.982, 277.036 781.606, 276.285 781.078, 275.649 780.416, 275.124 779.638, 274.708 778.760, 274.396 777.801, 274.187 776.777, 274.076 775.708, 274.060 774.609, 274.137 773.500, 274.302 766.670, 275.615 760.139, 276.915 753.864, 278.202 747.799, 279.476 741.900, 280.738 736.119, 281.986 730.407, 283.223 724.718, 284.446 718.999, 285.658 713.202, 286.859 707.273, 288.050 701.161, 289.230 691.336, 291.088 681.510, 292.945 674.933, 294.188 674.182, 294.384 673.411, 294.687 672.636, 295.091 671.871, 295.587 671.134, 296.169 670.439, 296.829 669.802, 297.560 669.239, 298.353 668.765, 299.201 668.396, 300.097 668.148, 301.033 668.036, 302.002 668.040, 303.255 668.152, 304.397 668.262, 304.919 668.370, 305.432 668.691, 306.360 669.112, 307.183 669.630, 307.905 670.244, 308.527 670.949, 309.051 671.743, 309.480 672.624, 309.815 673.588, 310.058 674.634, 310.212 677.313, 310.476 679.741, 310.856 681.919, 311.351 683.852, 311.959 685.541, 312.678 " />
            <path fill="none" stroke-width="3.0" stroke-linecap="butt" stroke-opacity="1.0" stroke="rgb(0, 0, 0)" stroke-linejoin="miter" d=" M 685.541, 312.678 686.989, 313.507 688.197, 314.442 689.169, 315.483 689.907, 316.628 690.411, 317.874 690.685, 319.221 690.729, 320.666 690.625, 321.647 690.406, 322.670 690.079, 323.735 689.650, 324.841 689.125, 325.990 688.510, 327.182 687.812, 328.417 687.036, 329.696 686.189, 331.018 685.277, 332.383 684.306, 333.793 683.283, 335.248 677.489, 343.398 671.695, 351.548 665.901, 359.699 660.107, 367.849 654.313, 376.000 648.519, 384.150 642.725, 392.301 636.931, 400.451 631.137, 408.602 625.343, 416.752 619.549, 424.902 613.755, 433.053 610.589, 437.506 609.589, 438.636 608.659, 439.693 607.792, 440.677 606.980, 441.583 606.215, 442.411 605.491, 443.157 604.800, 443.818 604.133, 444.393 603.483, 444.879 602.842, 445.274 602.203, 445.575 601.558, 445.780 601.010, 445.877 600.484, 445.896 599.984, 445.832 599.517, 445.680 599.087, 445.433 " />
            <path fill="none" stroke-width="3.0" stroke-linecap="butt" stroke-opacity="1.0" stroke="rgb(0, 0, 0)" stroke-linejoin="miter" d=" M 524.708, 345.455 526.961, 347.101 528.759, 349.122 530.145, 351.558 531.156, 354.447 531.833, 357.829 532.215, 361.741 532.342, 366.221 532.366, 376.221 532.388, 385.332 532.412, 395.332 532.435, 404.796 532.458, 414.796 532.460, 415.613 532.466, 417.872 532.490, 427.872 532.514, 437.872 532.538, 447.872 532.562, 457.872 532.586, 467.872 532.610, 477.872 532.634, 487.872 532.658, 497.872 532.667, 501.495 532.676, 505.286 532.700, 515.286 532.724, 525.286 532.748, 535.286 532.772, 545.286 532.796, 555.286 532.797, 555.937 532.728, 559.750 532.473, 563.170 531.989, 566.247 531.234, 569.034 530.163, 571.580 528.734, 573.937 526.902, 576.155 524.624, 578.283 521.853, 580.373 518.544, 582.473 514.650, 584.635 510.122, 586.908 508.653, 587.648 507.297, 588.422 506.059, 589.232 504.940, 590.077 503.944, 590.957 503.074, 591.875 502.333, 592.829 501.723, 593.820 501.247, 594.849 500.909, 595.916 500.710, 597.021 500.653, 598.164 500.788, 598.999 501.152, 599.756 501.716, 600.430 502.456, 601.017 503.342, 601.512 504.349, 601.912 505.449, 602.211 506.616, 602.406 507.823, 602.492 509.043, 602.466 510.250, 602.322 511.417, 602.056 517.662, 600.184 523.344, 598.341 528.532, 596.534 533.292, 594.771 537.691, 593.061 541.793, 591.410 545.659, 589.828 549.353, 588.323 552.935, 586.904 556.466, 585.579 560.007, 584.359 563.615, 583.251 567.192, 582.287 570.804, 581.418 574.477, 580.614 578.241, 579.847 582.124, 579.087 586.154, 578.305 590.357, 577.471 594.762, 576.558 599.395, 575.536 604.283, 574.378 609.451, 573.055 614.926, 571.541 616.083, 571.155 617.251, 570.663 618.407, 570.076 619.533, 569.406 620.607, 568.663 621.608, 567.858 622.516, 567.003 623.310, 566.108 623.970, 565.185 624.475, 564.244 624.803, 563.297 624.935, 562.353 624.876, 561.228 624.640, 560.281 624.244, 559.494 623.706, 558.852 623.043, 558.338 614.849, 552.605 606.656, 546.872 598.462, 541.140 596.563, 539.811 " />
            <path fill="none" stroke-width="3.0" stroke-linecap="butt" stroke-opacity="1.0" stroke="rgb(0, 0, 0)" stroke-linejoin="miter" d=" M 601.219, 553.940 599.712, 552.639 598.579, 551.054 597.763, 549.167 597.205, 546.954 596.847, 544.394 596.630, 541.465 596.563, 539.811 596.495, 538.144 596.354, 532.413 596.253, 526.661 596.249, 526.237 596.190, 520.886 596.161, 515.088 596.161, 509.264 596.189, 503.413 596.227, 498.988 596.239, 497.534 596.309, 491.623 596.395, 485.680 596.493, 479.703 596.599, 473.689 596.709, 467.636 596.766, 466.564 596.894, 465.573 597.087, 464.663 597.339, 463.835 597.647, 463.089 598.005, 462.424 598.407, 461.841 598.849, 461.339 599.324, 460.919 599.829, 460.581 600.358, 460.323 600.906, 460.147 601.560, 460.029 602.228, 459.993 602.909, 460.041 603.603, 460.174 604.311, 460.393 605.031, 460.699 605.763, 461.095 " />
            <path fill="none" stroke-width="3.0" stroke-linecap="butt" stroke-opacity="1.0" stroke="rgb(0, 0, 0)" stroke-linejoin="miter" d=" M 605.763, 461.095 606.509, 461.580 607.267, 462.156 608.037, 462.825 608.820, 463.588 609.615, 464.445 616.388, 471.802 623.162, 479.158 629.936, 486.514 636.709, 493.871 643.483, 501.227 650.257, 508.584 657.030, 515.940 661.477, 520.770 662.340, 521.737 663.130, 522.692 663.845, 523.638 664.486, 524.575 665.051, 525.506 665.539, 526.432 665.949, 527.356 666.279, 528.278 666.530, 529.201 666.699, 530.126 666.785, 531.056 666.788, 531.991 666.566, 533.235 666.169, 534.479 665.592, 535.724 664.829, 536.971 663.872, 538.221 662.718, 539.473 661.358, 540.729 659.787, 541.990 657.998, 543.256 655.985, 544.528 653.740, 545.807 651.257, 547.093 650.247, 547.687 649.309, 548.324 648.445, 549.004 647.658, 549.729 646.950, 550.498 646.323, 551.312 645.779, 552.172 645.323, 553.078 644.955, 554.031 644.678, 555.031 644.494, 556.078 644.407, 557.173 644.448, 557.968 644.620, 558.676 644.909, 559.295 645.301, 559.827 645.780, 560.273 646.334, 560.631 646.946, 560.903 647.604, 561.089 648.293, 561.189 648.999, 561.204 649.707, 561.134 650.404, 560.979 654.378, 559.802 658.250, 558.590 662.043, 557.351 665.778, 556.091 669.475, 554.816 673.156, 553.534 676.842, 552.252 680.552, 550.975 684.307, 549.712 688.127, 548.468 692.030, 547.251 696.036, 546.068 701.318, 544.604 706.546, 543.243 711.724, 541.966 716.854, 540.753 721.938, 539.588 726.979, 538.451 731.979, 537.324 736.941, 536.190 741.867, 535.031 746.761, 533.828 751.625, 532.565 756.462, 531.223 758.514, 530.575 760.399, 529.866 762.117, 529.102 763.666, 528.292 765.046, 527.444 766.255, 526.563 767.292, 525.660 768.157, 524.740 768.847, 523.811 769.362, 522.881 769.699, 521.958 769.857, 521.049 769.821, 519.979 769.555, 519.094 769.089, 518.376 768.451, 517.805 759.818, 512.757 751.186, 507.710 742.553, 502.662 733.920, 497.614 725.288, 492.567 716.797, 487.602 " />
            <path fill="none" stroke-width="3.0" stroke-linecap="butt" stroke-opacity="1.0" stroke="rgb(0, 0, 0)" stroke-linejoin="miter" d=" M 768.451, 517.805 767.669, 517.362 766.774, 517.028 765.794, 516.784 764.758, 516.610 763.695, 516.488 762.636, 516.397 761.609, 516.319 760.643, 516.235 756.792, 515.935 753.262, 515.437 750.028, 514.752 747.062, 513.888 744.339, 512.856 741.831, 511.665 739.508, 510.326 " />
            <path fill="none" stroke-width="3.0" stroke-linecap="butt" stroke-opacity="1.0" stroke="rgb(0, 0, 0)" stroke-linejoin="miter" d=" M 623.043, 558.338 622.272, 557.936 621.410, 557.628 620.475, 557.400 619.483, 557.233 618.453, 557.113 617.402, 557.021 616.346, 556.941 612.127, 556.739 608.558, 556.359 605.586, 555.779 603.159, 554.980 601.219, 553.940 " />
            <path fill="none" stroke-width="3.0" stroke-linecap="butt" stroke-opacity="1.0" stroke="rgb(0, 0, 0)" stroke-linejoin="miter" d=" M 629.514, 302.186 620.437, 297.989 618.715, 297.192 609.638, 292.995 600.600, 288.815 591.523, 284.618 582.446, 280.421 573.370, 276.224 564.293, 272.026 555.217, 267.829 546.140, 263.632 544.353, 262.805 543.674, 262.618 542.927, 262.528 542.113, 262.536 541.236, 262.640 537.188, 263.355 532.726, 264.198 527.932, 265.144 522.889, 266.166 517.679, 267.241 512.387, 268.342 507.099, 269.443 501.902, 270.518 496.884, 271.539 492.134, 272.481 487.742, 273.316 483.799, 274.016 479.816, 274.648 475.472, 275.268 470.827, 275.879 465.941, 276.486 460.878, 277.092 455.698, 277.702 450.467, 278.320 445.249, 278.950 440.109, 279.595 435.115, 280.260 430.334, 280.948 425.835, 281.664 425.035, 281.852 424.221, 282.146 423.411, 282.538 422.620, 283.022 421.865, 283.590 421.163, 284.235 420.529, 284.950 419.980, 285.726 419.532, 286.558 419.203, 287.437 419.008, 288.355 418.963, 289.306 419.066, 290.538 419.278, 291.662 419.597, 292.680 420.019, 293.593 420.541, 294.406 421.161, 295.118 421.877, 295.733 422.684, 296.252 431.398, 301.158 440.112, 306.064 448.826, 310.970 452.468, 313.020 461.181, 317.926 469.895, 322.832 478.609, 327.738 487.323, 332.644 496.037, 337.550 500.875, 340.274 " />
            <path fill="none" stroke-width="3.0" stroke-linecap="butt" stroke-opacity="1.0" stroke="rgb(0, 0, 0)" stroke-linejoin="miter" d=" M 779.638, 274.708 770.305, 271.116 760.972, 267.525 751.640, 263.933 742.307, 260.341 732.974, 256.750 723.641, 253.158 714.309, 249.566 704.976, 245.975 695.643, 242.383 687.870, 239.392 687.014, 239.086 686.081, 238.875 685.090, 238.756 684.057, 238.726 683.000, 238.781 681.934, 238.920 675.382, 240.048 669.120, 241.168 663.107, 242.280 657.298, 243.382 651.651, 244.475 646.118, 245.556 640.655, 246.627 635.213, 247.687 629.745, 248.734 624.203, 249.770 618.537, 250.793 612.696, 251.805 602.836, 253.471 592.975, 255.138 587.650, 256.038 586.935, 256.209 586.203, 256.481 585.470, 256.846 584.750, 257.299 584.058, 257.832 583.408, 258.438 582.817, 259.111 582.297, 259.844 581.865, 260.630 581.535, 261.463 581.321, 262.334 581.239, 263.238 581.276, 264.410 581.413, 265.481 581.649, 266.451 581.981, 267.325 582.406, 268.102 582.922, 268.786 583.527, 269.377 584.217, 269.879 584.990, 270.292 594.103, 274.409 603.142, 278.492 612.255, 282.608 621.368, 286.725 626.177, 288.897 635.290, 293.013 644.404, 297.130 653.517, 301.247 662.630, 305.363 671.743, 309.480 " />
            <path fill="none" stroke-width="3.0" stroke-linecap="butt" stroke-opacity="1.0" stroke="rgb(0, 0, 0)" stroke-linejoin="miter" d=" M 603.142, 278.492 603.431, 279.719 603.512, 281.073 603.438, 281.991 603.255, 282.946 602.969, 283.938 602.587, 284.968 602.113, 286.036 601.554, 287.143 600.916, 288.289 600.600, 288.815 " />
            <path fill="none" stroke-width="3.0" stroke-linecap="butt" stroke-opacity="1.0" stroke="rgb(0, 0, 0)" stroke-linejoin="miter" d=" M 452.468, 313.020 452.498, 313.153 452.951, 316.812 453.173, 320.998 453.441, 330.995 453.710, 340.991 453.978, 350.987 454.246, 360.984 454.514, 370.980 454.783, 380.977 455.051, 390.973 455.319, 400.969 455.588, 410.966 455.856, 420.962 456.124, 430.959 456.392, 440.955 456.661, 450.951 456.929, 460.948 457.197, 470.944 457.465, 480.941 457.734, 490.937 457.951, 499.032 457.973, 502.627 457.807, 505.845 457.415, 508.736 456.756, 511.347 455.791, 513.723 454.478, 515.912 452.776, 517.960 450.646, 519.913 448.043, 521.817 444.927, 523.718 441.252, 525.662 436.976, 527.696 435.588, 528.358 434.310, 529.055 433.145, 529.788 432.095, 530.557 431.163, 531.364 430.352, 532.208 429.665, 533.090 429.105, 534.010 428.673, 534.969 428.373, 535.967 428.208, 537.005 428.179, 538.083 428.327, 538.874 428.691, 539.597 429.246, 540.247 436.939, 546.636 444.632, 553.025 452.325, 559.414 460.019, 565.802 467.712, 572.191 475.405, 578.580 483.098, 584.968 490.791, 591.357 498.484, 597.746 501.716, 600.430 " />
            <path fill="none" stroke-width="3.0" stroke-linecap="butt" stroke-opacity="1.0" stroke="rgb(0, 0, 0)" stroke-linejoin="miter" d=" M 596.249, 526.237 604.490, 531.901 612.732, 537.564 620.974, 543.227 629.216, 548.891 637.458, 554.554 645.780, 560.273 " />
        </g>
    </g>
</svg>
