<?xml version='1.0' encoding='ascii'?>
<svg xmlns="http://www.w3.org/2000/svg" version="1.1" width="1080" height="1080">
    <g id="View Layer_LineSet" xmlns:inkscape="http://www.inkscape.org/namespaces/inkscape" inkscape:groupmode="lineset" inkscape:label="View Layer_LineSet">
        <g xmlns:inkscape="http://www.inkscape.org/namespaces/inkscape" inkscape:groupmode="layer" id="strokes" inkscape:label="strokes">
            <path fill="none" stroke-width="3.0" stroke-linecap="butt" stroke-opacity="1.0" stroke="rgb(0, 0, 0)" stroke-linejoin="miter" d=" M 598.921, 440.676 598.522, 440.445 598.162, 440.113 597.847, 439.675 597.583, 439.124 597.372, 438.456 597.222, 437.665 597.137, 436.744 597.121, 435.687 597.304, 425.689 597.487, 415.691 597.527, 413.480 597.710, 403.481 597.893, 393.483 598.076, 383.485 598.259, 373.486 598.442, 363.488 598.625, 353.490 598.715, 348.575 598.872, 344.468 599.213, 340.763 599.784, 337.404 600.629, 334.335 601.792, 331.500 603.317, 328.843 605.249, 326.307 607.628, 323.833 610.498, 321.366 613.899, 318.849 617.872, 316.224 622.454, 313.435 623.487, 312.756 624.444, 312.082 625.323, 311.399 626.121, 310.694 626.838, 309.954 627.471, 309.167 628.018, 308.318 628.477, 307.394 628.846, 306.383 629.124, 305.271 629.308, 304.044 629.396, 302.688 629.381, 301.648 629.278, 300.719 629.089, 299.899 628.817, 299.189 628.464, 298.587 628.032, 298.094 627.524, 297.710 626.942, 297.433 626.288, 297.263 625.565, 297.200 624.774, 297.243 623.920, 297.392 619.967, 298.328 615.607, 299.417 610.916, 300.631 605.977, 301.940 600.870, 303.312 595.679, 304.716 590.486, 306.122 585.379, 307.497 580.444, 308.809 575.769, 310.025 571.444, 311.111 567.561, 312.034 567.350, 312.080 563.637, 312.888 559.356, 313.744 554.777, 314.606 549.957, 315.474 544.958, 316.351 539.841, 317.238 534.668, 318.136 529.503, 319.047 524.411, 319.972 519.458, 320.912 514.711, 321.869 510.239, 322.842 509.442, 323.080 508.629, 323.433 507.816, 323.891 507.021, 324.446 506.259, 325.090 505.546, 325.815 504.901, 326.610 504.337, 327.469 503.873, 328.381 503.525, 329.339 503.309, 330.334 503.241, 331.356 503.242, 331.375 503.313, 332.672 503.496, 333.868 503.787, 334.945 504.183, 335.905 504.681, 336.751 505.278, 337.486 505.972, 338.111 506.759, 338.629 507.637, 339.043 508.602, 339.355 509.653, 339.567 510.785, 339.681 515.630, 339.915 519.845, 340.341 523.471, 340.996 526.552, 341.921 " />
            <path fill="none" stroke-width="3.0" stroke-linecap="butt" stroke-opacity="1.0" stroke="rgb(0, 0, 0)" stroke-linejoin="miter" d=" M 730.444, 501.285 728.312, 500.043 726.326, 498.660 724.458, 497.146 722.682, 495.511 720.973, 493.768 719.302, 491.926 714.427, 486.355 707.843, 478.829 701.258, 471.303 694.673, 463.778 688.088, 456.252 681.503, 448.726 674.918, 441.200 668.334, 433.674 661.749, 426.148 655.164, 418.622 648.466, 410.967 647.741, 410.062 647.154, 409.105 646.705, 408.103 646.395, 407.060 646.225, 405.983 646.193, 404.877 646.300, 403.748 646.546, 402.602 646.931, 401.446 647.454, 400.284 648.115, 399.123 648.914, 397.968 653.991, 391.075 658.984, 384.155 663.906, 377.229 668.773, 370.323 673.598, 363.460 678.396, 356.665 683.180, 349.962 687.962, 343.378 692.757, 336.937 697.575, 330.666 702.430, 324.591 707.334, 318.738 710.539, 315.112 713.875, 311.541 717.358, 308.037 721.003, 304.615 724.825, 301.285 728.838, 298.060 733.059, 294.955 737.499, 291.980 742.173, 289.149 747.093, 286.474 752.271, 283.969 757.719, 281.644 758.703, 281.174 759.743, 280.620 760.813, 279.982 761.888, 279.262 762.942, 278.463 763.951, 277.586 764.887, 276.633 765.727, 275.605 766.445, 274.504 767.017, 273.331 767.415, 272.087 767.616, 270.774 767.597, 269.800 767.408, 268.950 767.065, 268.220 766.583, 267.607 765.978, 267.106 765.266, 266.714 764.464, 266.427 763.586, 266.243 762.651, 266.157 761.672, 266.167 760.667, 266.267 759.652, 266.456 753.399, 267.905 747.416, 269.337 741.664, 270.750 736.101, 272.147 730.687, 273.528 725.378, 274.895 720.130, 276.248 714.899, 277.589 709.639, 278.921 704.303, 280.244 698.844, 281.560 693.212, 282.872 683.464, 285.100 673.715, 287.327 669.007, 288.403 668.313, 288.615 667.600, 288.933 666.883, 289.352 666.176, 289.861 665.494, 290.455 664.851, 291.125 664.261, 291.863 663.740, 292.662 663.301, 293.513 662.960, 294.409 662.730, 295.341 662.625, 296.302 662.628, 297.541 662.730, 298.669 662.931, 299.687 663.189, 300.483 663.227, 300.598 663.615, 301.402 664.094, 302.104 664.660, 302.704 665.312, 303.205 666.046, 303.609 666.859, 303.918 667.750, 304.135 668.716, 304.262 671.191, 304.455 673.433, 304.771 675.444, 305.206 677.228, 305.759 " />
            <path fill="none" stroke-width="3.0" stroke-linecap="butt" stroke-opacity="1.0" stroke="rgb(0, 0, 0)" stroke-linejoin="miter" d=" M 677.228, 305.759 678.786, 306.428 680.122, 307.211 681.236, 308.105 682.132, 309.110 682.812, 310.223 683.276, 311.442 683.527, 312.766 683.567, 314.194 683.470, 315.166 683.267, 316.183 682.965, 317.244 682.568, 318.349 682.083, 319.498 681.514, 320.692 680.869, 321.931 680.152, 323.215 679.369, 324.544 678.526, 325.918 677.629, 327.338 676.682, 328.803 671.219, 337.178 665.756, 345.554 660.293, 353.930 654.829, 362.305 649.366, 370.681 643.903, 379.057 638.439, 387.433 632.976, 395.808 627.513, 404.184 622.050, 412.560 616.586, 420.935 611.123, 429.311 609.232, 432.211 608.300, 433.363 607.434, 434.443 606.627, 435.446 605.871, 436.372 605.159, 437.218 604.484, 437.981 603.840, 438.660 603.219, 439.252 602.614, 439.756 602.017, 440.168 601.422, 440.487 600.822, 440.711 600.311, 440.825 599.821, 440.860 599.356, 440.813 598.921, 440.676 " />
            <path fill="none" stroke-width="3.0" stroke-linecap="butt" stroke-opacity="1.0" stroke="rgb(0, 0, 0)" stroke-linejoin="miter" d=" M 526.552, 341.921 529.128, 343.154 531.238, 344.733 532.922, 346.699 534.218, 349.088 535.162, 351.939 535.793, 355.290 536.147, 359.177 536.160, 359.690 536.261, 363.637 536.273, 373.637 536.284, 383.637 536.296, 393.637 536.308, 403.637 536.314, 409.129 536.326, 419.129 536.328, 420.659 536.339, 430.659 536.341, 432.344 536.353, 442.344 536.365, 452.344 536.377, 462.344 536.388, 472.344 536.400, 482.344 536.412, 492.344 536.424, 502.801 536.433, 510.620 536.445, 520.620 536.457, 530.620 536.468, 540.620 536.480, 550.620 536.482, 552.700 536.414, 556.505 536.171, 559.923 535.714, 563.010 535.002, 565.816 533.996, 568.396 532.653, 570.801 530.933, 573.082 528.794, 575.293 526.192, 577.484 523.084, 579.707 519.426, 582.015 515.171, 584.460 513.789, 585.256 512.515, 586.082 511.350, 586.938 510.298, 587.826 509.361, 588.744 508.542, 589.694 507.844, 590.676 507.269, 591.690 506.821, 592.736 506.501, 593.815 506.313, 594.926 506.258, 596.070 506.384, 596.898 506.725, 597.640 507.256, 598.290 507.950, 598.847 508.783, 599.307 509.729, 599.666 510.763, 599.921 511.859, 600.069 512.993, 600.107 514.139, 600.032 515.273, 599.840 516.370, 599.529 522.237, 597.413 527.571, 595.350 532.439, 593.343 536.904, 591.398 541.029, 589.520 544.872, 587.714 548.494, 585.986 551.953, 584.343 555.306, 582.790 558.610, 581.334 561.922, 579.982 565.295, 578.740 568.639, 577.642 572.013, 576.638 575.443, 575.697 578.957, 574.790 582.580, 573.885 586.339, 572.952 590.258, 571.963 594.364, 570.886 598.680, 569.694 603.231, 568.358 608.042, 566.848 613.135, 565.136 614.212, 564.709 615.297, 564.177 616.373, 563.550 617.420, 562.842 618.418, 562.064 619.350, 561.228 620.194, 560.345 620.933, 559.427 621.547, 558.486 622.016, 557.533 622.322, 556.581 622.446, 555.640 622.392, 554.525 622.173, 553.594 621.806, 552.828 621.307, 552.210 620.692, 551.725 612.044, 546.704 603.395, 541.683 596.248, 537.533 " />
            <path fill="none" stroke-width="3.0" stroke-linecap="butt" stroke-opacity="1.0" stroke="rgb(0, 0, 0)" stroke-linejoin="miter" d=" M 600.400, 548.167 598.997, 546.930 597.944, 545.398 597.186, 543.552 596.669, 541.373 596.338, 538.843 596.248, 537.533 596.139, 535.940 596.016, 532.645 595.890, 526.955 595.884, 526.574 595.802, 521.242 595.749, 515.506 595.728, 509.746 595.734, 503.959 595.765, 498.144 595.818, 492.300 595.855, 489.248 595.889, 486.425 595.975, 480.517 596.072, 474.575 596.176, 468.596 596.285, 462.579 596.340, 461.512 596.459, 460.523 596.640, 459.613 596.876, 458.782 597.163, 458.030 597.497, 457.358 597.872, 456.766 598.284, 456.253 598.727, 455.821 599.198, 455.468 599.690, 455.195 600.200, 455.002 600.810, 454.864 601.431, 454.806 602.065, 454.832 602.711, 454.941 603.369, 455.136 604.039, 455.417 " />
            <path fill="none" stroke-width="3.0" stroke-linecap="butt" stroke-opacity="1.0" stroke="rgb(0, 0, 0)" stroke-linejoin="miter" d=" M 604.039, 455.417 604.720, 455.786 605.413, 456.243 606.118, 456.791 606.834, 457.430 607.561, 458.162 608.299, 458.987 614.941, 466.463 621.583, 473.938 628.225, 481.414 634.867, 488.890 641.509, 496.365 648.151, 503.841 654.793, 511.317 656.364, 513.085 657.161, 514.012 657.891, 514.931 658.553, 515.842 659.145, 516.748 659.667, 517.650 660.117, 518.550 660.495, 519.450 660.800, 520.352 661.031, 521.257 661.187, 522.167 661.266, 523.084 661.268, 524.010 661.061, 525.250 660.693, 526.496 660.158, 527.750 659.451, 529.013 658.565, 530.285 657.495, 531.567 656.236, 532.860 654.781, 534.166 653.124, 535.485 651.258, 536.818 649.178, 538.167 646.877, 539.533 645.941, 540.158 645.071, 540.824 644.270, 541.530 643.540, 542.277 642.882, 543.065 642.300, 543.896 641.796, 544.768 641.372, 545.683 641.030, 546.642 640.773, 547.643 640.602, 548.688 640.519, 549.777 640.557, 550.564 640.716, 551.259 640.983, 551.862 641.346, 552.375 641.790, 552.799 642.302, 553.134 642.870, 553.381 643.480, 553.540 644.118, 553.614 644.772, 553.603 645.428, 553.507 646.074, 553.327 649.756, 552.013 653.343, 550.668 656.855, 549.300 660.312, 547.914 663.733, 546.516 667.138, 545.111 670.545, 543.706 673.975, 542.307 677.444, 540.919 680.971, 539.549 684.575, 538.203 688.272, 536.887 693.143, 535.249 697.963, 533.714 702.734, 532.265 707.458, 530.882 712.138, 529.548 716.776, 528.245 721.373, 526.953 725.934, 525.657 730.459, 524.337 734.953, 522.976 739.417, 521.557 743.854, 520.063 745.736, 519.352 747.465, 518.586 749.039, 517.773 750.459, 516.920 751.724, 516.035 752.833, 515.125 753.784, 514.198 754.576, 513.261 755.209, 512.322 755.681, 511.388 755.990, 510.466 756.136, 509.565 756.104, 508.512 755.861, 507.649 755.435, 506.958 754.850, 506.418 754.135, 506.008 745.173, 501.572 736.210, 497.137 727.248, 492.701 718.286, 488.265 714.427, 486.355 " />
            <path fill="none" stroke-width="3.0" stroke-linecap="butt" stroke-opacity="1.0" stroke="rgb(0, 0, 0)" stroke-linejoin="miter" d=" M 754.135, 506.008 753.315, 505.710 752.418, 505.503 751.469, 505.368 750.495, 505.284 749.524, 505.232 748.583, 505.191 747.699, 505.141 744.168, 504.979 740.931, 504.610 737.965, 504.046 735.245, 503.297 732.746, 502.373 730.444, 501.285 " />
            <path fill="none" stroke-width="3.0" stroke-linecap="butt" stroke-opacity="1.0" stroke="rgb(0, 0, 0)" stroke-linejoin="miter" d=" M 620.692, 551.725 619.976, 551.354 619.175, 551.081 618.306, 550.889 617.385, 550.761 616.428, 550.679 615.451, 550.627 614.470, 550.587 610.547, 550.543 607.227, 550.298 604.463, 549.832 602.204, 549.129 600.400, 548.167 " />
            <path fill="none" stroke-width="3.0" stroke-linecap="butt" stroke-opacity="1.0" stroke="rgb(0, 0, 0)" stroke-linejoin="miter" d=" M 626.942, 297.433 617.606, 293.849 608.270, 290.265 605.056, 289.031 595.721, 285.447 586.322, 281.839 576.986, 278.256 567.650, 274.672 558.315, 271.088 548.979, 267.504 539.643, 263.920 531.558, 260.816 530.916, 260.645 530.210, 260.573 529.442, 260.600 528.614, 260.724 524.793, 261.531 520.580, 262.475 516.051, 263.529 511.284, 264.667 506.357, 265.861 501.350, 267.084 496.345, 268.308 491.422, 269.503 486.667, 270.643 482.163, 271.696 477.997, 272.635 474.256, 273.429 470.474, 274.156 466.347, 274.879 461.932, 275.602 457.287, 276.326 452.470, 277.055 447.539, 277.790 442.557, 278.535 437.585, 279.292 432.685, 280.063 427.922, 280.850 423.360, 281.656 419.065, 282.483 418.302, 282.691 417.526, 283.005 416.753, 283.419 415.999, 283.923 415.279, 284.511 414.610, 285.175 414.007, 285.907 413.485, 286.699 413.060, 287.544 412.749, 288.433 412.565, 289.359 412.526, 290.313 412.629, 291.546 412.836, 292.667 413.144, 293.680 413.551, 294.585 414.054, 295.386 414.649, 296.085 415.335, 296.683 416.109, 297.184 416.967, 297.588 426.062, 301.746 435.156, 305.904 443.796, 309.854 452.890, 314.012 461.985, 318.171 471.079, 322.329 480.174, 326.487 489.268, 330.645 498.363, 334.803 505.836, 338.220 507.637, 339.043 " />
            <path fill="none" stroke-width="3.0" stroke-linecap="butt" stroke-opacity="1.0" stroke="rgb(0, 0, 0)" stroke-linejoin="miter" d=" M 764.464, 266.427 754.956, 263.328 745.449, 260.228 735.941, 257.128 726.434, 254.028 716.927, 250.928 707.419, 247.828 697.912, 244.729 688.404, 241.629 678.897, 238.529 669.390, 235.429 665.210, 234.066 664.341, 233.878 663.418, 233.781 662.456, 233.773 661.472, 233.851 660.479, 234.012 654.379, 235.271 648.547, 236.516 642.942, 237.749 637.525, 238.968 632.255, 240.175 627.089, 241.370 621.986, 242.552 616.899, 243.724 611.786, 244.885 606.600, 246.036 601.295, 247.179 595.823, 248.314 586.023, 250.304 576.223, 252.295 572.323, 253.087 571.652, 253.273 570.965, 253.560 570.277, 253.940 569.602, 254.406 568.953, 254.952 568.344, 255.570 567.790, 256.253 567.305, 256.994 566.901, 257.785 566.594, 258.620 566.396, 259.492 566.322, 260.393 566.361, 261.558 566.494, 262.619 566.720, 263.579 567.035, 264.440 567.438, 265.203 567.927, 265.871 568.497, 266.445 569.148, 266.928 569.877, 267.321 570.681, 267.626 580.037, 271.157 586.231, 273.494 595.587, 277.024 604.943, 280.555 610.463, 282.638 619.819, 286.168 629.175, 289.698 638.531, 293.229 647.887, 296.759 657.243, 300.290 666.859, 303.918 " />
            <path fill="none" stroke-width="3.0" stroke-linecap="butt" stroke-opacity="1.0" stroke="rgb(0, 0, 0)" stroke-linejoin="miter" d=" M 586.231, 273.494 586.463, 273.846 586.954, 275.002 587.239, 276.253 587.320, 277.597 587.254, 278.510 587.086, 279.463 586.822, 280.455 586.466, 281.488 586.322, 281.839 " />
            <path fill="none" stroke-width="3.0" stroke-linecap="butt" stroke-opacity="1.0" stroke="rgb(0, 0, 0)" stroke-linejoin="miter" d=" M 443.796, 309.854 443.923, 310.200 444.622, 313.353 445.067, 317.004 445.295, 321.188 445.587, 331.184 445.880, 341.180 446.172, 351.176 446.465, 361.171 446.758, 371.167 447.050, 381.163 447.343, 391.159 447.635, 401.154 447.928, 411.150 448.221, 421.146 448.513, 431.141 448.806, 441.137 449.099, 451.133 449.391, 461.128 449.684, 471.124 449.976, 481.120 450.269, 491.116 450.508, 499.273 450.542, 502.871 450.396, 506.099 450.033, 509.008 449.416, 511.645 448.504, 514.059 447.261, 516.299 445.648, 518.411 443.624, 520.444 441.150, 522.446 438.185, 524.464 434.687, 526.546 430.613, 528.741 429.291, 529.456 428.073, 530.201 426.963, 530.979 425.963, 531.789 425.076, 532.632 424.305, 533.509 423.652, 534.418 423.120, 535.362 422.711, 536.339 422.428, 537.351 422.274, 538.398 422.251, 539.480 422.395, 540.268 422.745, 540.980 423.278, 541.611 423.967, 542.158 432.256, 547.753 440.544, 553.348 448.833, 558.943 457.121, 564.537 465.410, 570.132 473.698, 575.727 481.987, 581.322 490.275, 586.916 498.564, 592.511 506.852, 598.106 507.950, 598.847 " />
            <path fill="none" stroke-width="3.0" stroke-linecap="butt" stroke-opacity="1.0" stroke="rgb(0, 0, 0)" stroke-linejoin="miter" d=" M 595.884, 526.574 604.564, 531.540 613.244, 536.507 621.923, 541.473 630.603, 546.439 639.282, 551.406 642.302, 553.134 " />
        </g>
    </g>
</svg>
