<?xml version='1.0' encoding='ascii'?>
<svg xmlns="http://www.w3.org/2000/svg" version="1.1" width="1080" height="1080">
    <g id="View Layer_LineSet" xmlns:inkscape="http://www.inkscape.org/namespaces/inkscape" inkscape:groupmode="lineset" inkscape:label="View Layer_LineSet">
        <g xmlns:inkscape="http://www.inkscape.org/namespaces/inkscape" inkscape:groupmode="layer" id="strokes" inkscape:label="strokes">
            <path fill="none" stroke-width="3.0" stroke-linecap="butt" stroke-opacity="1.0" stroke="rgb(0, 0, 0)" stroke-linejoin="miter" d=" M 597.160, 435.677 596.793, 435.460 596.463, 435.142 596.174, 434.717 595.931, 434.178 595.739, 433.521 595.602, 432.740 595.524, 431.827 595.510, 430.779 595.582, 426.756 595.759, 416.757 595.937, 406.759 596.114, 396.760 596.292, 386.762 596.469, 376.764 596.647, 366.765 596.825, 356.767 597.002, 346.768 597.047, 344.215 597.195, 340.133 597.511, 336.444 598.038, 333.094 598.816, 330.025 599.886, 327.180 601.288, 324.502 603.062, 321.934 605.247, 319.417 607.881, 316.895 611.002, 314.309 614.645, 311.604 618.845, 308.722 619.792, 308.022 620.669, 307.329 621.474, 306.630 622.206, 305.911 622.862, 305.159 623.442, 304.362 623.944, 303.507 624.365, 302.580 624.704, 301.568 624.959, 300.458 625.128, 299.237 625.209, 297.892 625.197, 296.861 625.103, 295.942 624.931, 295.134 624.683, 294.436 624.360, 293.849 623.965, 293.371 623.500, 293.002 622.967, 292.742 622.369, 292.589 621.707, 292.545 620.983, 292.607 620.200, 292.776 616.579, 293.801 612.583, 294.989 608.282, 296.309 603.751, 297.730 599.064, 299.219 594.296, 300.743 589.526, 302.269 584.831, 303.763 580.292, 305.191 575.990, 306.517 572.009, 307.706 568.433, 308.723 564.818, 309.671 560.873, 310.632 556.651, 311.607 552.205, 312.594 549.284, 313.228 547.592, 313.595 542.867, 314.610 538.088, 315.638 533.314, 316.678 528.605, 317.732 524.022, 318.797 519.628, 319.874 515.487, 320.961 514.748, 321.219 513.995, 321.592 513.242, 322.070 512.504, 322.645 511.797, 323.308 511.137, 324.049 510.537, 324.859 510.015, 325.731 509.584, 326.653 509.260, 327.618 509.059, 328.616 508.995, 329.638 509.061, 330.949 509.149, 331.575 509.229, 332.137 509.497, 333.203 509.863, 334.150 510.324, 334.981 510.877, 335.698 511.519, 336.303 512.248, 336.799 513.060, 337.188 513.954, 337.473 514.927, 337.656 515.976, 337.740 520.462, 337.843 524.362, 338.154 527.716, 338.709 530.564, 339.548 " />
            <path fill="none" stroke-width="3.0" stroke-linecap="butt" stroke-opacity="1.0" stroke="rgb(0, 0, 0)" stroke-linejoin="miter" d=" M 719.195, 492.357 717.109, 491.362 715.177, 490.210 713.376, 488.912 711.683, 487.480 710.074, 485.927 708.524, 484.263 707.009, 482.501 706.360, 481.718 699.982, 474.016 693.604, 466.314 687.226, 458.612 680.848, 450.910 674.470, 443.208 668.092, 435.506 661.714, 427.804 655.336, 420.102 648.958, 412.400 642.564, 404.678 641.902, 403.804 641.366, 402.873 640.957, 401.893 640.675, 400.869 640.520, 399.807 640.492, 398.712 640.591, 397.591 640.816, 396.448 641.169, 395.291 641.648, 394.124 642.253, 392.954 642.984, 391.787 647.627, 384.811 652.190, 377.813 656.686, 370.817 661.130, 363.844 665.534, 356.919 669.911, 350.065 674.272, 343.306 678.630, 336.668 682.997, 330.174 687.384, 323.851 691.801, 317.723 696.260, 311.817 699.173, 308.155 702.204, 304.545 705.367, 301.000 708.676, 297.532 712.145, 294.152 715.786, 290.873 719.612, 287.707 723.636, 284.666 727.869, 281.763 732.323, 279.010 737.008, 276.418 741.935, 274.000 742.825, 273.514 743.765, 272.943 744.732, 272.290 745.704, 271.556 746.656, 270.745 747.568, 269.858 748.414, 268.897 749.173, 267.866 749.823, 266.765 750.339, 265.597 750.700, 264.363 750.882, 263.065 750.866, 262.107 750.695, 261.275 750.386, 260.564 749.951, 259.970 749.405, 259.491 748.762, 259.121 748.038, 258.857 747.246, 258.696 746.400, 258.633 745.516, 258.664 744.608, 258.786 743.691, 258.995 738.038, 260.565 732.626, 262.112 727.420, 263.637 722.383, 265.143 717.477, 266.630 712.664, 268.101 707.904, 269.558 703.157, 271.004 698.381, 272.442 693.533, 273.873 688.571, 275.302 683.450, 276.732 673.806, 279.377 664.162, 282.022 661.404, 282.778 660.771, 283.004 660.121, 283.336 659.467, 283.767 658.822, 284.289 658.199, 284.893 657.612, 285.571 657.074, 286.316 656.598, 287.119 656.197, 287.972 655.885, 288.866 655.674, 289.795 655.578, 290.748 655.579, 291.975 655.672, 293.089 655.854, 294.092 656.124, 294.985 656.478, 295.772 656.526, 295.849 656.914, 296.454 657.430, 297.034 658.024, 297.514 658.693, 297.896 659.434, 298.182 660.247, 298.374 661.127, 298.476 663.383, 298.606 665.426, 298.862 667.259, 299.243 668.883, 299.746 " />
            <path fill="none" stroke-width="3.0" stroke-linecap="butt" stroke-opacity="1.0" stroke="rgb(0, 0, 0)" stroke-linejoin="miter" d=" M 668.883, 299.746 670.303, 300.369 671.518, 301.109 672.533, 301.966 673.348, 302.937 673.965, 304.021 674.387, 305.215 674.615, 306.518 674.650, 307.928 674.561, 308.892 674.376, 309.902 674.100, 310.959 673.738, 312.062 673.295, 313.211 672.777, 314.406 672.188, 315.648 671.534, 316.936 670.820, 318.270 670.051, 319.651 669.233, 321.078 668.370, 322.551 663.279, 331.159 658.189, 339.766 653.098, 348.373 648.008, 356.981 642.917, 365.588 637.827, 374.196 632.736, 382.803 627.646, 391.410 622.555, 400.018 617.465, 408.625 612.374, 417.232 607.284, 425.840 606.629, 426.947 605.774, 428.121 604.978, 429.219 604.236, 430.241 603.542, 431.184 602.888, 432.046 602.268, 432.825 601.677, 433.520 601.106, 434.127 600.550, 434.646 600.002, 435.075 599.456, 435.411 598.904, 435.652 598.435, 435.781 597.985, 435.832 597.559, 435.799 597.160, 435.677 " />
            <path fill="none" stroke-width="3.0" stroke-linecap="butt" stroke-opacity="1.0" stroke="rgb(0, 0, 0)" stroke-linejoin="miter" d=" M 530.564, 339.548 532.862, 340.667 532.944, 340.707 534.893, 342.224 536.448, 344.136 537.643, 346.481 538.513, 349.295 539.093, 352.615 539.416, 356.478 539.517, 360.917 539.519, 370.917 539.520, 380.917 539.522, 390.917 539.523, 400.917 539.525, 410.917 539.525, 411.534 539.526, 421.534 539.527, 423.541 539.528, 433.541 539.530, 443.541 539.530, 448.165 539.532, 458.165 539.533, 468.165 539.535, 478.165 539.536, 488.165 539.537, 490.877 539.538, 499.182 539.539, 507.649 539.540, 513.737 539.542, 523.737 539.543, 533.737 539.545, 543.737 539.546, 549.290 539.478, 553.085 539.251, 556.502 538.826, 559.595 538.166, 562.420 537.233, 565.030 535.990, 567.478 534.397, 569.819 532.417, 572.105 530.008, 574.390 527.131, 576.728 523.743, 579.172 519.801, 581.777 518.521, 582.625 517.340, 583.499 516.260, 584.399 515.284, 585.326 514.415, 586.280 513.655, 587.260 513.007, 588.268 512.474, 589.302 512.057, 590.364 511.760, 591.454 511.584, 592.571 511.533, 593.715 511.649, 594.537 511.964, 595.263 512.455, 595.892 513.098, 596.420 513.869, 596.846 514.746, 597.166 515.703, 597.380 516.719, 597.484 517.769, 597.477 518.831, 597.357 519.881, 597.120 520.897, 596.766 526.330, 594.422 531.267, 592.153 535.771, 589.960 539.900, 587.846 543.711, 585.812 547.263, 583.862 550.608, 582.000 553.801, 580.229 556.896, 578.552 559.945, 576.974 562.999, 575.500 566.109, 574.133 569.191, 572.912 572.299, 571.783 575.458, 570.716 578.693, 569.678 582.028, 568.640 585.486, 567.569 589.090, 566.436 592.864, 565.210 596.830, 563.861 601.010, 562.361 605.426, 560.679 610.100, 558.787 611.087, 558.322 612.083, 557.753 613.070, 557.090 614.031, 556.348 614.946, 555.538 615.801, 554.673 616.575, 553.765 617.253, 552.826 617.816, 551.870 618.247, 550.907 618.529, 549.950 618.643, 549.011 618.594, 547.907 618.394, 546.991 618.059, 546.244 617.602, 545.650 617.038, 545.191 616.382, 544.849 607.382, 540.492 598.381, 536.135 594.840, 534.421 " />
            <path fill="none" stroke-width="3.0" stroke-linecap="butt" stroke-opacity="1.0" stroke="rgb(0, 0, 0)" stroke-linejoin="miter" d=" M 600.083, 543.296 598.427, 542.407 597.140, 541.230 596.174, 539.746 595.479, 537.940 595.006, 535.794 594.840, 534.421 594.704, 533.291 594.524, 530.414 594.414, 527.145 594.382, 525.486 594.303, 521.495 594.227, 515.822 594.183, 510.124 594.168, 504.401 594.179, 498.650 594.213, 492.872 594.266, 487.063 594.336, 481.224 594.363, 479.323 594.420, 475.351 594.514, 469.444 594.615, 463.501 594.720, 457.520 594.771, 456.457 594.882, 455.471 595.048, 454.561 595.266, 453.728 595.531, 452.972 595.837, 452.294 596.182, 451.693 596.561, 451.171 596.969, 450.727 597.401, 450.361 597.853, 450.074 598.322, 449.866 598.881, 449.708 599.452, 449.632 600.034, 449.636 600.627, 449.724 601.230, 449.896 601.845, 450.154 " />
            <path fill="none" stroke-width="3.0" stroke-linecap="butt" stroke-opacity="1.0" stroke="rgb(0, 0, 0)" stroke-linejoin="miter" d=" M 601.845, 450.154 602.470, 450.498 603.106, 450.930 603.752, 451.451 604.408, 452.062 605.075, 452.765 605.752, 453.560 612.204, 461.200 618.657, 468.839 625.110, 476.479 631.563, 484.118 638.016, 491.758 644.469, 499.397 649.701, 505.591 650.428, 506.482 651.094, 507.367 651.697, 508.246 652.237, 509.122 652.713, 509.998 653.123, 510.873 653.468, 511.751 653.746, 512.634 653.955, 513.522 654.097, 514.418 654.168, 515.324 654.169, 516.241 653.980, 517.476 653.643, 518.724 653.154, 519.985 652.507, 521.261 651.697, 522.552 650.720, 523.861 649.569, 525.187 648.239, 526.533 646.724, 527.900 645.019, 529.289 643.118, 530.701 641.013, 532.138 640.157, 532.792 639.362, 533.483 638.629, 534.212 637.960, 534.980 637.359, 535.785 636.826, 536.630 636.364, 537.513 635.975, 538.436 635.662, 539.399 635.426, 540.401 635.268, 541.444 635.192, 542.526 635.226, 543.305 635.371, 543.988 635.615, 544.577 635.946, 545.072 636.352, 545.476 636.820, 545.789 637.339, 546.013 637.897, 546.149 638.480, 546.198 639.078, 546.163 639.678, 546.043 640.268, 545.842 643.635, 544.402 646.913, 542.938 650.122, 541.453 653.279, 539.953 656.402, 538.443 659.510, 536.927 662.619, 535.412 665.747, 533.902 668.910, 532.402 672.125, 530.919 675.408, 529.457 678.775, 528.022 683.209, 526.226 687.595, 524.535 691.934, 522.931 696.228, 521.396 700.480, 519.911 704.692, 518.459 708.865, 517.020 713.003, 515.579 717.107, 514.116 721.181, 512.615 725.226, 511.058 729.245, 509.428 730.949, 508.660 732.514, 507.845 733.940, 506.988 735.226, 506.097 736.370, 505.180 737.373, 504.245 738.234, 503.298 738.952, 502.346 739.525, 501.398 739.952, 500.461 740.232, 499.542 740.364, 498.649 740.336, 497.612 740.117, 496.770 739.732, 496.103 739.204, 495.590 738.557, 495.211 729.334, 491.346 720.112, 487.481 710.889, 483.616 706.360, 481.718 " />
            <path fill="none" stroke-width="3.0" stroke-linecap="butt" stroke-opacity="1.0" stroke="rgb(0, 0, 0)" stroke-linejoin="miter" d=" M 738.557, 495.211 737.816, 494.945 737.004, 494.772 736.146, 494.671 735.265, 494.622 734.387, 494.603 733.535, 494.595 732.735, 494.576 729.539, 494.537 726.609, 494.285 723.922, 493.830 721.458, 493.184 719.195, 492.357 " />
            <path fill="none" stroke-width="3.0" stroke-linecap="butt" stroke-opacity="1.0" stroke="rgb(0, 0, 0)" stroke-linejoin="miter" d=" M 616.382, 544.849 615.649, 544.608 614.853, 544.449 614.009, 544.356 613.131, 544.310 612.235, 544.295 611.336, 544.292 607.738, 544.392 604.692, 544.272 602.156, 543.912 600.083, 543.296 " />
            <path fill="none" stroke-width="3.0" stroke-linecap="butt" stroke-opacity="1.0" stroke="rgb(0, 0, 0)" stroke-linejoin="miter" d=" M 622.967, 292.742 613.443, 289.692 603.920, 286.643 594.396, 283.594 589.248, 281.946 579.725, 278.896 570.201, 275.847 569.940, 275.763 560.416, 272.714 550.893, 269.665 541.369, 266.615 531.845, 263.566 522.321, 260.517 518.011, 259.137 517.411, 258.981 516.751, 258.926 516.033, 258.970 515.259, 259.113 511.690, 260.007 507.753, 261.047 503.520, 262.205 499.062, 263.452 494.452, 264.760 489.765, 266.099 485.077, 267.440 480.465, 268.751 476.006, 270.003 471.782, 271.163 467.873, 272.201 464.360, 273.085 460.808, 273.903 456.930, 274.726 452.779, 275.555 448.409, 276.393 443.875, 277.239 439.233, 278.095 434.540, 278.962 429.853, 279.841 425.233, 280.734 420.739, 281.639 416.433, 282.559 412.379, 283.494 411.658, 283.721 410.925, 284.055 410.196, 284.489 409.486, 285.013 408.808, 285.621 408.178, 286.303 407.610, 287.052 407.120, 287.859 406.722, 288.717 406.431, 289.617 406.261, 290.550 406.228, 291.509 406.331, 292.742 406.531, 293.862 406.827, 294.870 407.215, 295.768 407.694, 296.559 408.260, 297.244 408.911, 297.827 409.644, 298.309 410.458, 298.692 419.820, 302.205 429.183, 305.718 434.970, 307.889 444.332, 311.402 453.695, 314.915 463.058, 318.428 472.420, 321.940 481.783, 325.453 491.146, 328.966 494.172, 330.102 503.534, 333.614 513.060, 337.188 " />
            <path fill="none" stroke-width="3.0" stroke-linecap="butt" stroke-opacity="1.0" stroke="rgb(0, 0, 0)" stroke-linejoin="miter" d=" M 748.038, 258.857 738.399, 256.195 728.760, 253.532 719.121, 250.869 709.482, 248.207 699.843, 245.544 690.204, 242.881 680.565, 240.218 670.926, 237.556 661.287, 234.893 651.648, 232.230 641.966, 229.556 641.164, 229.388 640.312, 229.312 639.425, 229.325 638.517, 229.424 637.602, 229.604 631.979, 230.983 626.598, 232.345 621.425, 233.689 616.423, 235.017 611.554, 236.329 606.779, 237.628 602.058, 238.915 597.352, 240.191 592.618, 241.457 587.814, 242.716 582.897, 243.970 577.822, 245.221 568.102, 247.572 558.383, 249.922 555.997, 250.499 555.372, 250.700 554.734, 251.001 554.096, 251.395 553.469, 251.874 552.867, 252.432 552.303, 253.061 551.791, 253.753 551.341, 254.502 550.969, 255.299 550.686, 256.137 550.506, 257.009 550.441, 257.907 550.482, 259.066 550.611, 260.119 550.825, 261.069 551.123, 261.918 551.501, 262.668 551.959, 263.321 552.493, 263.880 553.101, 264.345 553.781, 264.719 554.531, 265.004 564.065, 268.019 568.163, 269.315 577.697, 272.331 587.232, 275.346 593.019, 277.176 602.553, 280.192 612.088, 283.207 621.622, 286.223 631.157, 289.238 640.691, 292.254 650.226, 295.269 659.434, 298.182 " />
            <path fill="none" stroke-width="3.0" stroke-linecap="butt" stroke-opacity="1.0" stroke="rgb(0, 0, 0)" stroke-linejoin="miter" d=" M 568.163, 269.315 568.584, 269.780 569.237, 270.817 569.698, 271.954 569.968, 273.191 570.050, 274.525 569.993, 275.435 569.940, 275.763 " />
            <path fill="none" stroke-width="3.0" stroke-linecap="butt" stroke-opacity="1.0" stroke="rgb(0, 0, 0)" stroke-linejoin="miter" d=" M 434.970, 307.889 435.015, 307.970 435.959, 310.639 436.632, 313.778 437.066, 317.423 437.298, 321.608 437.616, 331.603 437.933, 341.598 438.250, 351.593 438.568, 361.588 438.885, 371.583 439.202, 381.578 439.520, 391.573 439.837, 401.568 440.154, 411.562 440.472, 421.557 440.789, 431.552 441.106, 441.547 441.424, 451.542 441.741, 461.537 442.058, 471.532 442.376, 481.527 442.693, 491.522 442.956, 499.803 443.003, 503.406 442.879, 506.645 442.550, 509.571 441.978, 512.235 441.129, 514.686 439.967, 516.975 438.455, 519.150 436.555, 521.261 434.230, 523.357 431.441, 525.489 428.148, 527.705 424.311, 530.056 423.066, 530.821 421.919, 531.614 420.873, 532.436 419.932, 533.286 419.098, 534.164 418.372, 535.071 417.759, 536.008 417.260, 536.974 416.878, 537.970 416.615, 538.996 416.474, 540.052 416.456, 541.138 416.595, 541.923 416.930, 542.624 417.436, 543.237 418.089, 543.760 426.836, 548.608 435.582, 553.456 444.328, 558.304 453.075, 563.151 461.821, 567.999 470.568, 572.847 479.314, 577.695 488.060, 582.543 496.807, 587.390 505.553, 592.238 513.098, 596.420 " />
            <path fill="none" stroke-width="3.0" stroke-linecap="butt" stroke-opacity="1.0" stroke="rgb(0, 0, 0)" stroke-linejoin="miter" d=" M 594.382, 525.486 603.402, 529.802 612.423, 534.117 621.444, 538.433 630.465, 542.748 636.820, 545.789 " />
        </g>
    </g>
</svg>
