<?xml version='1.0' encoding='ascii'?>
<svg xmlns="http://www.w3.org/2000/svg" version="1.1" width="1080" height="1080">
    <g id="View Layer_LineSet" xmlns:inkscape="http://www.inkscape.org/namespaces/inkscape" inkscape:groupmode="lineset" inkscape:label="View Layer_LineSet">
        <g xmlns:inkscape="http://www.inkscape.org/namespaces/inkscape" inkscape:groupmode="layer" id="strokes" inkscape:label="strokes">
            <path fill="none" stroke-width="3.0" stroke-linecap="butt" stroke-opacity="1.0" stroke="rgb(0, 0, 0)" stroke-linejoin="miter" d=" M 590.384, 425.989 590.065, 425.893 589.772, 425.700 589.508, 425.405 589.278, 425.003 589.084, 424.486 588.931, 423.849 588.822, 423.085 588.761, 422.190 588.751, 421.155 588.906, 411.157 589.062, 401.158 589.217, 391.159 589.373, 381.160 589.528, 371.161 589.684, 361.163 589.839, 351.164 589.995, 341.165 590.080, 335.674 590.203, 331.640 590.460, 327.987 590.885, 324.657 591.511, 321.593 592.369, 318.735 593.493, 316.027 594.914, 313.409 596.662, 310.824 598.767, 308.212 601.260, 305.516 604.168, 302.679 607.518, 299.643 608.273, 298.910 608.972, 298.187 609.614, 297.461 610.197, 296.720 610.721, 295.950 611.183, 295.139 611.583, 294.274 611.919, 293.343 612.190, 292.332 612.394, 291.229 612.530, 290.021 612.596, 288.693 612.587, 287.681 612.514, 286.781 612.378, 285.995 612.181, 285.320 611.924, 284.757 611.611, 284.305 611.241, 283.964 610.817, 283.732 610.341, 283.610 609.814, 283.596 609.238, 283.690 608.615, 283.892 605.729, 285.066 602.542, 286.419 599.110, 287.918 595.491, 289.527 591.744, 291.211 587.929, 292.936 584.108, 294.664 580.345, 296.359 576.703, 297.983 573.250, 299.496 570.051, 300.860 567.175, 302.035 564.266, 303.145 561.089, 304.285 557.687, 305.451 554.102, 306.642 550.378, 307.856 546.561, 309.090 542.697, 310.341 538.833, 311.605 535.019, 312.880 531.303, 314.162 527.737, 315.446 524.374, 316.730 523.773, 317.023 523.161, 317.431 522.548, 317.943 521.948, 318.551 521.373, 319.244 520.835, 320.014 520.347, 320.849 519.921, 321.741 519.569, 322.680 519.305, 323.656 519.140, 324.658 519.086, 325.677 519.138, 326.977 519.273, 328.150 519.490, 329.197 519.776, 330.089 519.786, 330.120 520.159, 330.923 520.608, 331.608 521.129, 332.177 521.721, 332.633 522.381, 332.978 523.107, 333.216 523.896, 333.348 524.748, 333.378 528.390, 333.253 531.552, 333.363 534.270, 333.744 " />
            <path fill="none" stroke-width="3.0" stroke-linecap="butt" stroke-opacity="1.0" stroke="rgb(0, 0, 0)" stroke-linejoin="miter" d=" M 688.323, 474.729 686.554, 474.065 684.922, 473.225 683.411, 472.221 682.003, 471.067 680.678, 469.775 680.209, 469.248 679.418, 468.359 678.205, 466.830 677.019, 465.203 671.281, 457.013 665.543, 448.823 659.806, 440.632 654.068, 432.442 648.330, 424.252 642.593, 416.062 636.855, 407.872 631.117, 399.682 626.271, 392.764 625.746, 391.941 625.322, 391.057 624.999, 390.117 624.776, 389.127 624.654, 388.091 624.633, 387.017 624.712, 385.910 624.892, 384.775 625.173, 383.618 625.554, 382.446 626.036, 381.264 626.617, 380.077 630.305, 372.975 633.926, 365.862 637.492, 358.759 641.012, 351.690 644.499, 344.675 647.960, 337.737 651.406, 330.899 654.847, 324.185 658.292, 317.618 661.749, 311.222 665.227, 305.021 668.734, 299.040 671.024, 295.327 673.405, 291.662 675.888, 288.056 678.484, 284.521 681.203, 281.067 684.054, 277.706 687.049, 274.449 690.196, 271.308 693.503, 268.294 696.980, 265.418 700.635, 262.693 704.473, 260.127 705.166, 259.617 705.898, 259.021 706.651, 258.345 707.408, 257.590 708.149, 256.760 708.859, 255.859 709.518, 254.890 710.109, 253.855 710.614, 252.758 711.016, 251.600 711.298, 250.386 711.440, 249.118 711.428, 248.188 711.297, 247.386 711.056, 246.708 710.719, 246.149 710.295, 245.706 709.796, 245.374 709.233, 245.148 708.617, 245.023 707.959, 244.997 707.272, 245.064 706.565, 245.221 705.851, 245.462 701.449, 247.225 697.230, 248.957 693.167, 250.661 689.233, 252.341 685.397, 253.998 681.631, 255.637 677.903, 257.263 674.181, 258.878 670.434, 260.487 666.627, 262.095 662.727, 263.707 658.697, 265.328 649.400, 269.012 641.308, 272.218 640.807, 272.468 640.293, 272.823 639.776, 273.274 639.266, 273.814 638.773, 274.434 638.308, 275.125 637.882, 275.879 637.504, 276.688 637.186, 277.542 636.938, 278.433 636.771, 279.353 636.694, 280.292 636.694, 281.495 636.766, 282.583 636.909, 283.558 637.121, 284.422 637.401, 285.177 637.745, 285.826 638.152, 286.371 638.167, 286.384 638.621, 286.814 639.150, 287.157 639.736, 287.404 640.378, 287.555 641.074, 287.614 642.856, 287.638 644.469, 287.796 645.916, 288.084 " />
            <path fill="none" stroke-width="3.0" stroke-linecap="butt" stroke-opacity="1.0" stroke="rgb(0, 0, 0)" stroke-linejoin="miter" d=" M 534.270, 333.744 536.576, 334.432 538.502, 335.460 540.078, 336.866 541.333, 338.683 542.297, 340.947 542.997, 343.693 543.461, 346.956 543.718, 350.769 543.794, 355.166 543.782, 365.166 543.770, 375.166 543.758, 385.166 543.746, 395.166 543.734, 405.166 543.726, 412.563 543.714, 422.563 543.711, 425.117 543.699, 435.117 543.687, 445.117 543.675, 455.117 543.663, 465.117 543.652, 475.116 543.640, 485.116 543.628, 495.116 543.616, 505.116 543.615, 506.069 543.608, 511.728 543.604, 515.578 543.592, 525.578 543.580, 535.578 543.572, 542.075 543.513, 545.848 543.324, 549.256 542.976, 552.358 542.438, 555.210 541.680, 557.869 540.670, 560.390 539.378, 562.830 537.771, 565.245 535.816, 567.692 533.479, 570.225 530.727, 572.904 527.523, 575.785 526.483, 576.723 525.522, 577.680 524.643, 578.656 523.848, 579.651 523.141, 580.665 522.521, 581.697 521.993, 582.748 521.558, 583.818 521.218, 584.906 520.974, 586.013 520.830, 587.139 520.786, 588.282 520.880, 589.092 521.135, 589.791 521.534, 590.380 522.056, 590.858 522.683, 591.224 523.395, 591.477 524.173, 591.617 524.998, 591.645 525.852, 591.559 526.714, 591.359 527.568, 591.045 528.394, 590.616 532.806, 587.878 536.812, 585.253 540.464, 582.739 543.809, 580.333 546.894, 578.032 549.767, 575.835 552.472, 573.742 555.052, 571.751 557.551, 569.863 560.011, 568.077 562.474, 566.394 564.980, 564.815 567.462, 563.383 569.964, 562.041 572.505, 560.757 575.105, 559.498 577.784, 558.231 580.560, 556.925 583.452, 555.548 586.477, 554.067 589.654, 552.453 593.001, 550.675 596.534, 548.703 600.269, 546.507 601.058, 545.980 601.854, 545.348 602.642, 544.626 603.409, 543.826 604.141, 542.964 604.823, 542.051 605.442, 541.102 605.984, 540.130 606.434, 539.147 606.778, 538.168 607.004, 537.206 607.096, 536.273 607.058, 535.188 606.900, 534.299 606.633, 533.586 606.270, 533.032 605.821, 532.619 605.298, 532.327 595.813, 529.160 588.566, 526.740 " />
            <path fill="none" stroke-width="3.0" stroke-linecap="butt" stroke-opacity="1.0" stroke="rgb(0, 0, 0)" stroke-linejoin="miter" d=" M 645.916, 288.084 647.197, 288.502 648.316, 289.047 649.275, 289.716 650.074, 290.508 650.716, 291.421 651.202, 292.453 651.533, 293.603 651.711, 294.867 651.738, 296.247 651.667, 297.194 651.520, 298.192 651.301, 299.239 651.014, 300.336 650.664, 301.481 650.255, 302.676 649.789, 303.920 649.272, 305.212 648.708, 306.552 648.100, 307.941 647.453, 309.378 646.770, 310.862 642.561, 319.933 638.351, 329.004 634.142, 338.075 629.933, 347.146 625.724, 356.217 621.514, 365.288 617.305, 374.359 613.096, 383.430 608.886, 392.501 604.677, 401.572 600.468, 410.643 597.645, 416.726 596.960, 417.933 596.323, 419.063 595.730, 420.114 595.174, 421.084 594.650, 421.973 594.154, 422.778 593.680, 423.497 593.223, 424.130 592.778, 424.675 592.340, 425.130 591.902, 425.494 591.461, 425.764 591.086, 425.919 590.726, 425.996 590.384, 425.989 " />
            <path fill="none" stroke-width="3.0" stroke-linecap="butt" stroke-opacity="1.0" stroke="rgb(0, 0, 0)" stroke-linejoin="miter" d=" M 592.281, 531.920 590.957, 531.157 589.929, 530.083 589.157, 528.685 588.603, 526.949 588.566, 526.740 588.227, 524.862 587.988, 522.411 587.905, 520.741 587.847, 519.582 587.763, 516.360 587.680, 510.788 587.626, 505.190 587.597, 499.567 587.592, 493.916 587.607, 488.237 587.641, 482.529 587.691, 476.791 587.753, 471.021 587.827, 465.218 587.909, 459.380 587.965, 455.637 587.997, 453.507 588.088, 447.596 588.130, 446.544 588.220, 445.564 588.296, 445.049 588.354, 444.656 588.529, 443.820 588.742, 443.058 588.755, 443.020 588.988, 442.370 589.265, 441.756 589.568, 441.218 589.895, 440.755 590.241, 440.368 590.604, 440.057 590.979, 439.823 591.427, 439.634 591.883, 439.524 592.348, 439.494 592.822, 439.544 593.305, 439.678 " />
            <path fill="none" stroke-width="3.0" stroke-linecap="butt" stroke-opacity="1.0" stroke="rgb(0, 0, 0)" stroke-linejoin="miter" d=" M 593.305, 439.678 593.796, 439.894 594.295, 440.196 594.803, 440.584 595.318, 441.059 595.842, 441.622 596.374, 442.275 596.914, 443.018 598.403, 445.084 601.119, 448.854 606.965, 456.966 612.812, 465.080 618.658, 473.193 624.504, 481.306 630.351, 489.419 631.826, 491.466 632.402, 492.294 632.928, 493.119 633.405, 493.944 633.832, 494.769 634.208, 495.598 634.532, 496.431 634.804, 497.271 635.023, 498.119 635.189, 498.978 635.300, 499.848 635.355, 500.733 635.355, 501.634 635.204, 502.859 634.936, 504.107 634.547, 505.378 634.034, 506.674 633.391, 507.996 632.615, 509.346 631.702, 510.726 630.647, 512.138 629.444, 513.582 628.091, 515.062 626.581, 516.578 624.909, 518.133 624.229, 518.833 623.596, 519.567 623.014, 520.334 622.482, 521.133 622.003, 521.967 621.579, 522.834 621.211, 523.734 620.902, 524.669 620.651, 525.637 620.463, 526.640 620.337, 527.676 620.275, 528.746 620.301, 529.510 620.415, 530.173 620.609, 530.735 620.871, 531.200 621.193, 531.569 621.565, 531.844 621.977, 532.029 622.420, 532.124 622.883, 532.133 623.358, 532.057 623.835, 531.898 624.304, 531.659 626.977, 530.013 629.579, 528.349 632.124, 526.670 634.626, 524.981 637.101, 523.286 639.562, 521.587 642.022, 519.890 644.495, 518.197 646.996, 516.514 649.535, 514.843 652.127, 513.190 654.783, 511.559 658.278, 509.505 661.733, 507.558 665.147, 505.702 668.524, 503.917 671.864, 502.185 675.171, 500.489 678.444, 498.810 681.688, 497.132 684.902, 495.437 688.090, 493.708 691.254, 491.927 694.395, 490.078 695.726, 489.221 696.948, 488.325 698.061, 487.398 699.064, 486.448 699.958, 485.481 700.741, 484.505 701.413, 483.528 701.973, 482.555 702.420, 481.596 702.754, 480.656 702.973, 479.743 703.076, 478.864 703.055, 477.855 702.885, 477.049 702.585, 476.424 702.174, 475.957 701.671, 475.629 701.093, 475.417 691.503, 472.584 681.912, 469.751 680.209, 469.248 " />
            <path fill="none" stroke-width="3.0" stroke-linecap="butt" stroke-opacity="1.0" stroke="rgb(0, 0, 0)" stroke-linejoin="miter" d=" M 701.093, 475.417 700.460, 475.299 699.791, 475.255 699.104, 475.262 698.419, 475.300 697.755, 475.345 697.130, 475.377 694.636, 475.540 692.347, 475.479 690.249, 475.204 688.323, 474.729 " />
            <path fill="none" stroke-width="3.0" stroke-linecap="butt" stroke-opacity="1.0" stroke="rgb(0, 0, 0)" stroke-linejoin="miter" d=" M 605.298, 532.327 604.713, 532.140 604.078, 532.039 603.405, 532.005 602.705, 532.020 601.990, 532.067 601.272, 532.126 598.399, 532.474 595.966, 532.565 593.938, 532.385 592.281, 531.920 " />
            <path fill="none" stroke-width="3.0" stroke-linecap="butt" stroke-opacity="1.0" stroke="rgb(0, 0, 0)" stroke-linejoin="miter" d=" M 610.341, 283.610 600.577, 281.453 590.812, 279.295 581.047, 277.138 571.283, 274.981 561.518, 272.824 552.104, 270.744 542.339, 268.587 532.575, 266.430 531.989, 266.300 522.224, 264.143 512.460, 261.986 502.695, 259.829 492.930, 257.671 488.470, 256.686 487.914, 256.660 487.311, 256.736 486.663, 256.914 483.670, 257.964 480.367, 259.178 476.812, 260.523 473.066, 261.969 469.190, 263.484 465.245, 265.034 461.295, 266.588 457.406, 268.110 453.643, 269.567 450.075, 270.923 446.769, 272.143 443.796, 273.191 440.787, 274.176 437.499, 275.181 433.976, 276.207 430.264, 277.251 426.409, 278.313 422.459, 279.392 418.461, 280.484 414.465, 281.590 410.523, 282.706 406.685, 283.831 403.006, 284.962 399.539, 286.097 398.922, 286.361 398.297, 286.732 397.676, 287.204 397.071, 287.766 396.495, 288.410 395.961, 289.128 395.481, 289.909 395.068, 290.746 394.735, 291.629 394.494, 292.549 394.357, 293.497 394.338, 294.464 394.438, 295.701 394.621, 296.819 394.885, 297.819 395.227, 298.704 395.645, 299.477 396.138, 300.140 396.702, 300.694 397.337, 301.143 398.038, 301.489 398.805, 301.733 408.499, 304.189 417.276, 306.412 426.970, 308.867 436.664, 311.322 446.358, 313.777 456.051, 316.233 465.745, 318.688 469.393, 319.612 479.087, 322.067 488.781, 324.522 498.475, 326.977 506.220, 328.939 515.914, 331.394 518.463, 332.040 523.107, 333.216 " />
            <path fill="none" stroke-width="3.0" stroke-linecap="butt" stroke-opacity="1.0" stroke="rgb(0, 0, 0)" stroke-linejoin="miter" d=" M 708.617, 245.023 698.801, 243.111 688.986, 241.198 679.171, 239.285 669.355, 237.373 659.540, 235.460 649.724, 233.547 639.909, 231.635 630.094, 229.722 620.278, 227.810 610.463, 225.897 600.648, 223.984 590.944, 222.093 590.245, 222.054 589.516, 222.103 588.772, 222.237 588.023, 222.452 583.416, 224.041 579.004, 225.603 574.759, 227.142 570.649, 228.660 566.646, 230.158 562.717, 231.640 558.828, 233.109 554.948, 234.568 551.042, 236.020 547.073, 237.470 543.007, 238.920 538.807, 240.375 529.341, 243.602 520.692, 246.551 520.173, 246.777 519.644, 247.104 519.115, 247.523 518.596, 248.026 518.100, 248.606 517.635, 249.255 517.214, 249.964 516.846, 250.727 516.543, 251.535 516.315, 252.380 516.174, 253.253 516.128, 254.148 516.174, 255.296 516.291, 256.337 516.480, 257.270 516.736, 258.100 517.060, 258.828 517.448, 259.456 517.899, 259.986 518.411, 260.420 518.983, 260.761 519.611, 261.010 520.295, 261.170 529.312, 263.152 539.079, 265.298 548.846, 267.444 553.608, 268.490 563.375, 270.636 573.142, 272.782 582.909, 274.928 592.676, 277.074 602.443, 279.220 612.210, 281.366 621.977, 283.512 631.744, 285.658 640.378, 287.555 " />
            <path fill="none" stroke-width="3.0" stroke-linecap="butt" stroke-opacity="1.0" stroke="rgb(0, 0, 0)" stroke-linejoin="miter" d=" M 529.312, 263.152 529.779, 263.450 530.654, 264.226 531.368, 265.114 531.922, 266.112 531.989, 266.300 " />
            <path fill="none" stroke-width="3.0" stroke-linecap="butt" stroke-opacity="1.0" stroke="rgb(0, 0, 0)" stroke-linejoin="miter" d=" M 417.276, 306.412 418.058, 307.412 419.149, 309.592 419.981, 312.225 420.586, 315.343 420.992, 318.981 421.231, 323.171 421.598, 333.164 421.965, 343.157 422.332, 353.151 422.699, 363.144 423.066, 373.137 423.433, 383.130 423.800, 393.124 424.168, 403.117 424.535, 413.110 424.902, 423.104 425.269, 433.097 425.636, 443.090 426.003, 453.083 426.370, 463.077 426.737, 473.070 427.104, 483.063 427.471, 493.056 427.792, 501.779 427.867, 505.394 427.793, 508.655 427.540, 511.617 427.079, 514.333 426.379, 516.855 425.409, 519.236 424.140, 521.529 422.539, 523.785 420.573, 526.058 418.211, 528.401 415.417, 530.866 412.157, 533.507 411.098, 534.368 410.124, 535.249 409.237, 536.151 408.439, 537.075 407.732, 538.020 407.120, 538.986 406.603, 539.974 406.185, 540.983 405.867, 542.014 405.652, 543.067 405.541, 544.140 405.536, 545.236 405.663, 546.016 405.957, 546.697 406.396, 547.278 406.962, 547.756 407.633, 548.131 416.997, 551.639 426.362, 555.146 435.727, 558.654 445.091, 562.161 454.456, 565.669 463.821, 569.177 473.185, 572.684 482.550, 576.192 491.915, 579.699 501.279, 583.207 510.644, 586.714 520.009, 590.222 522.683, 591.224 " />
            <path fill="none" stroke-width="3.0" stroke-linecap="butt" stroke-opacity="1.0" stroke="rgb(0, 0, 0)" stroke-linejoin="miter" d=" M 587.905, 520.741 597.397, 523.886 606.890, 527.031 616.383, 530.176 621.977, 532.029 " />
        </g>
    </g>
</svg>
