<?xml version='1.0' encoding='ascii'?>
<svg xmlns="http://www.w3.org/2000/svg" version="1.1" width="1080" height="1080">
    <g id="View Layer_LineSet" xmlns:inkscape="http://www.inkscape.org/namespaces/inkscape" inkscape:groupmode="lineset" inkscape:label="View Layer_LineSet">
        <g xmlns:inkscape="http://www.inkscape.org/namespaces/inkscape" inkscape:groupmode="layer" id="strokes" inkscape:label="strokes">
            <path fill="none" stroke-width="3.0" stroke-linecap="butt" stroke-opacity="1.0" stroke="rgb(0, 0, 0)" stroke-linejoin="miter" d=" M 585.013, 421.293 584.737, 421.207 584.484, 421.024 584.256, 420.740 584.057, 420.346 583.890, 419.839 583.758, 419.210 583.664, 418.455 583.612, 417.567 583.604, 416.540 583.743, 406.541 583.881, 396.542 584.020, 386.543 584.159, 376.544 584.298, 366.545 584.437, 356.546 584.576, 346.547 584.715, 336.547 584.784, 331.579 584.891, 327.570 585.114, 323.935 585.483, 320.616 586.024, 317.557 586.767, 314.697 587.738, 311.979 588.965, 309.345 590.474, 306.734 592.292, 304.089 594.444, 301.351 596.953, 298.464 599.842, 295.370 600.493, 294.625 601.096, 293.890 601.649, 293.154 602.152, 292.404 602.604, 291.628 603.002, 290.812 603.347, 289.945 603.637, 289.013 603.871, 288.004 604.047, 286.904 604.165, 285.702 604.222, 284.384 604.215, 283.379 604.152, 282.489 604.035, 281.712 603.865, 281.047 603.645, 280.495 603.375, 280.054 603.056, 279.724 602.691, 279.504 602.281, 279.393 601.827, 279.392 601.330, 279.499 600.793, 279.714 598.305, 280.947 595.556, 282.365 592.595, 283.933 589.472, 285.616 586.237, 287.378 582.942, 289.182 579.641, 290.991 576.388, 292.765 573.239, 294.467 570.252, 296.055 567.484, 297.488 564.995, 298.727 562.477, 299.902 559.726, 301.113 556.779, 302.356 553.672, 303.630 550.445, 304.930 547.135, 306.252 543.783, 307.593 540.430, 308.948 537.118, 310.313 533.891, 311.683 530.794, 313.052 527.870, 314.415 527.349, 314.723 526.816, 315.144 526.283, 315.671 525.762, 316.291 525.261, 316.997 524.793, 317.777 524.368, 318.623 523.997, 319.523 523.691, 320.467 523.461, 321.446 523.317, 322.449 523.270, 323.466 523.314, 324.761 523.431, 325.926 523.619, 326.964 523.876, 327.877 524.172, 328.596 524.201, 328.667 524.590, 329.338 525.043, 329.891 525.557, 330.331 526.130, 330.658 526.761, 330.876 527.448, 330.987 528.188, 330.995 531.352, 330.775 534.099, 330.803 536.459, 331.112 " />
            <path fill="none" stroke-width="3.0" stroke-linecap="butt" stroke-opacity="1.0" stroke="rgb(0, 0, 0)" stroke-linejoin="miter" d=" M 670.836, 466.947 669.188, 466.539 667.674, 465.940 666.278, 465.162 664.985, 464.218 663.780, 463.121 663.444, 462.755 662.646, 461.886 661.567, 460.524 660.529, 459.051 659.513, 457.479 654.243, 448.980 648.973, 440.482 643.702, 431.983 638.432, 423.485 633.162, 414.986 627.891, 406.488 622.621, 397.990 617.351, 389.491 615.963, 387.254 615.512, 386.453 615.147, 385.589 614.869, 384.666 614.678, 383.690 614.573, 382.667 614.555, 381.602 614.624, 380.501 614.779, 379.370 615.022, 378.215 615.350, 377.042 615.765, 375.856 616.265, 374.663 619.440, 367.518 622.557, 360.366 625.625, 353.230 628.654, 346.129 631.651, 339.086 634.626, 332.123 637.587, 325.262 640.542, 318.526 643.500, 311.938 646.467, 305.521 649.450, 299.299 652.458, 293.295 654.422, 289.567 656.462, 285.885 658.590, 282.260 660.813, 278.703 663.141, 275.224 665.583, 271.835 668.146, 268.547 670.838, 265.371 673.667, 262.318 676.639, 259.398 679.762, 256.624 683.042, 254.006 683.633, 253.486 684.258, 252.882 684.902, 252.197 685.548, 251.435 686.181, 250.600 686.787, 249.694 687.349, 248.723 687.854, 247.688 688.286, 246.594 688.629, 245.443 688.870, 244.238 688.992, 242.983 688.982, 242.064 688.869, 241.276 688.664, 240.612 688.376, 240.068 688.015, 239.639 687.589, 239.321 687.108, 239.110 686.582, 239.001 686.021, 238.989 685.434, 239.070 684.831, 239.240 684.221, 239.493 680.461, 241.329 676.857, 243.131 673.384, 244.902 670.019, 246.647 666.737, 248.369 663.514, 250.072 660.323, 251.761 657.135, 253.440 653.925, 255.115 650.662, 256.791 647.318, 258.473 643.862, 260.167 634.858, 264.519 628.931, 267.384 628.501, 267.643 628.060, 268.006 627.615, 268.465 627.176, 269.011 626.752, 269.637 626.353, 270.332 625.986, 271.089 625.661, 271.899 625.388, 272.753 625.175, 273.641 625.030, 274.557 624.964, 275.489 624.963, 276.681 625.025, 277.757 625.148, 278.720 625.330, 279.571 625.570, 280.313 625.865, 280.948 626.216, 281.478 626.542, 281.824 626.619, 281.906 627.073, 282.234 627.576, 282.464 628.128, 282.599 628.726, 282.641 630.257, 282.623 631.643, 282.741 " />
            <path fill="none" stroke-width="3.0" stroke-linecap="butt" stroke-opacity="1.0" stroke="rgb(0, 0, 0)" stroke-linejoin="miter" d=" M 631.643, 282.741 632.885, 282.993 633.986, 283.377 634.946, 283.890 635.769, 284.530 636.455, 285.296 637.006, 286.184 637.422, 287.195 637.707, 288.325 637.859, 289.573 637.882, 290.938 637.820, 291.878 637.694, 292.870 637.506, 293.912 637.260, 295.005 636.959, 296.148 636.606, 297.341 636.207, 298.584 635.762, 299.876 635.277, 301.218 634.755, 302.608 634.199, 304.047 633.612, 305.534 629.914, 314.825 626.216, 324.116 622.517, 333.407 618.819, 342.698 615.121, 351.989 611.423, 361.280 607.724, 370.571 604.026, 379.862 600.328, 389.153 596.630, 398.444 592.932, 407.735 591.284, 411.873 590.693, 413.092 590.143, 414.234 589.630, 415.295 589.150, 416.276 588.698, 417.174 588.269, 417.989 587.860, 418.718 587.465, 419.361 587.080, 419.915 586.702, 420.380 586.324, 420.755 585.943, 421.037 585.619, 421.202 585.308, 421.290 585.013, 421.293 " />
            <path fill="none" stroke-width="3.0" stroke-linecap="butt" stroke-opacity="1.0" stroke="rgb(0, 0, 0)" stroke-linejoin="miter" d=" M 536.459, 331.112 538.461, 331.736 540.132, 332.710 541.499, 334.068 542.587, 335.845 543.422, 338.074 544.028, 340.789 544.430, 344.025 544.651, 347.815 544.714, 352.190 544.700, 362.190 544.685, 372.190 544.670, 382.190 544.656, 392.190 544.641, 402.190 544.627, 411.814 544.612, 421.814 544.608, 424.505 544.593, 434.505 544.579, 444.505 544.564, 454.505 544.549, 464.505 544.534, 474.505 544.520, 484.505 544.505, 494.505 544.490, 504.505 544.486, 507.198 544.480, 511.855 544.475, 514.963 544.460, 524.963 544.446, 534.963 544.441, 538.339 544.387, 542.099 544.222, 545.501 543.919, 548.604 543.451, 551.465 542.792, 554.142 541.914, 556.692 540.791, 559.171 539.395, 561.637 537.696, 564.148 535.666, 566.761 533.273, 569.534 530.488, 572.528 529.583, 573.503 528.747, 574.493 527.983, 575.500 527.292, 576.522 526.676, 577.559 526.137, 578.613 525.677, 579.681 525.298, 580.765 525.001, 581.863 524.789, 582.977 524.663, 584.105 524.625, 585.247 524.705, 586.051 524.927, 586.739 525.274, 587.311 525.728, 587.767 526.272, 588.108 526.891, 588.333 527.568, 588.443 528.285, 588.439 529.027, 588.320 529.778, 588.088 530.520, 587.741 531.237, 587.282 535.073, 584.383 538.553, 581.613 541.725, 578.969 544.629, 576.444 547.307, 574.035 549.800, 571.739 552.146, 569.552 554.384, 567.473 556.551, 565.499 558.683, 563.630 560.817, 561.863 562.989, 560.198 565.138, 558.681 567.304, 557.253 569.504, 555.882 571.755, 554.534 574.072, 553.175 576.473, 551.774 578.974, 550.299 581.589, 548.716 584.335, 546.996 587.226, 545.107 590.278, 543.019 593.503, 540.702 594.184, 540.150 594.870, 539.494 595.551, 538.748 596.213, 537.926 596.845, 537.043 597.433, 536.112 597.968, 535.147 598.435, 534.162 598.824, 533.170 599.121, 532.186 599.316, 531.222 599.395, 530.292 599.363, 529.216 599.227, 528.339 598.998, 527.640 598.684, 527.103 598.297, 526.708 597.846, 526.437 597.342, 526.272 587.695, 523.641 583.678, 522.545 " />
            <path fill="none" stroke-width="3.0" stroke-linecap="butt" stroke-opacity="1.0" stroke="rgb(0, 0, 0)" stroke-linejoin="miter" d=" M 588.043, 526.896 586.612, 526.493 585.469, 525.782 584.581, 524.751 583.915, 523.388 583.678, 522.545 583.436, 521.682 583.112, 519.621 582.943, 517.618 582.907, 517.193 582.786, 514.386 582.714, 511.187 582.645, 505.651 582.601, 500.089 582.578, 494.501 582.575, 488.885 582.591, 483.240 582.622, 477.566 582.667, 471.861 582.723, 466.124 582.789, 460.354 582.862, 454.550 582.940, 448.711 582.984, 445.515 583.016, 443.204 583.021, 442.834 583.058, 441.788 583.136, 440.810 583.252, 439.904 583.404, 439.068 583.588, 438.304 583.801, 437.612 584.040, 436.994 584.302, 436.449 584.585, 435.979 584.884, 435.584 585.197, 435.264 585.521, 435.020 585.908, 434.819 586.302, 434.695 586.704, 434.650 587.113, 434.686 " />
            <path fill="none" stroke-width="3.0" stroke-linecap="butt" stroke-opacity="1.0" stroke="rgb(0, 0, 0)" stroke-linejoin="miter" d=" M 587.113, 434.686 587.530, 434.803 587.953, 435.004 588.384, 435.288 588.823, 435.657 589.268, 436.113 589.720, 436.656 590.179, 437.288 590.644, 438.010 595.989, 446.358 597.757, 449.119 603.149, 457.541 608.541, 465.963 613.933, 474.384 619.326, 482.806 620.712, 484.972 621.207, 485.774 621.660, 486.575 622.070, 487.376 622.437, 488.181 622.760, 488.990 623.038, 489.805 623.272, 490.629 623.460, 491.463 623.602, 492.308 623.697, 493.168 623.745, 494.044 623.745, 494.937 623.614, 496.157 623.383, 497.403 623.049, 498.677 622.606, 499.979 622.053, 501.313 621.386, 502.679 620.599, 504.079 619.691, 505.515 618.656, 506.989 617.490, 508.503 616.190, 510.059 614.750, 511.660 614.165, 512.379 613.620, 513.128 613.118, 513.909 612.660, 514.722 612.247, 515.565 611.882, 516.440 611.565, 517.347 611.298, 518.285 611.082, 519.255 610.919, 520.256 610.810, 521.289 610.757, 522.354 610.779, 523.111 610.877, 523.764 611.044, 524.316 611.270, 524.768 611.547, 525.123 611.867, 525.383 612.222, 525.552 612.603, 525.631 613.002, 525.623 613.411, 525.530 613.821, 525.356 614.225, 525.102 616.527, 523.375 618.767, 521.632 620.957, 519.878 623.111, 518.116 625.239, 516.348 627.355, 514.578 629.471, 512.810 631.597, 511.046 633.745, 509.291 635.927, 507.548 638.153, 505.821 640.434, 504.114 643.435, 501.959 646.399, 499.914 649.328, 497.959 652.224, 496.077 655.088, 494.250 657.921, 492.460 660.726, 490.689 663.504, 488.920 666.256, 487.135 668.985, 485.318 671.691, 483.452 674.378, 481.520 675.516, 480.628 676.562, 479.702 677.513, 478.749 678.371, 477.777 679.135, 476.792 679.804, 475.801 680.379, 474.813 680.857, 473.834 681.240, 472.870 681.525, 471.930 681.713, 471.021 681.801, 470.149 681.783, 469.153 681.638, 468.362 681.382, 467.753 681.031, 467.306 680.601, 466.997 680.107, 466.806 670.390, 464.444 663.444, 462.755 " />
            <path fill="none" stroke-width="3.0" stroke-linecap="butt" stroke-opacity="1.0" stroke="rgb(0, 0, 0)" stroke-linejoin="miter" d=" M 680.107, 466.806 679.567, 466.711 678.995, 466.688 678.408, 466.718 677.822, 466.777 677.254, 466.843 676.720, 466.895 674.588, 467.137 672.631, 467.151 670.836, 466.947 " />
            <path fill="none" stroke-width="3.0" stroke-linecap="butt" stroke-opacity="1.0" stroke="rgb(0, 0, 0)" stroke-linejoin="miter" d=" M 597.342, 526.272 596.795, 526.194 596.214, 526.184 595.610, 526.224 594.993, 526.295 594.373, 526.380 591.894, 526.827 589.793, 527.003 588.043, 526.896 " />
            <path fill="none" stroke-width="3.0" stroke-linecap="butt" stroke-opacity="1.0" stroke="rgb(0, 0, 0)" stroke-linejoin="miter" d=" M 602.281, 279.393 592.440, 277.618 582.599, 275.842 572.758, 274.066 562.917, 272.290 553.076, 270.515 543.234, 268.739 533.393, 266.963 531.216, 266.570 521.375, 264.794 511.534, 263.019 511.115, 262.943 501.274, 261.167 491.433, 259.391 481.592, 257.616 473.217, 256.105 472.721, 256.092 472.182, 256.182 471.603, 256.374 468.933, 257.493 465.985, 258.782 462.813, 260.210 459.468, 261.744 456.006, 263.349 452.481, 264.993 448.951, 266.640 445.473, 268.256 442.107, 269.803 438.913, 271.246 435.953, 272.547 433.290, 273.667 430.594, 274.726 427.646, 275.813 424.486, 276.925 421.155, 278.062 417.694, 279.220 414.146, 280.397 410.554, 281.590 406.963, 282.797 403.418, 284.013 399.967, 285.237 396.657, 286.462 393.536, 287.687 392.982, 287.967 392.421, 288.356 391.863, 288.844 391.321, 289.424 390.805, 290.085 390.328, 290.818 389.900, 291.615 389.532, 292.465 389.237, 293.360 389.024, 294.290 388.907, 295.245 388.896, 296.217 388.994, 297.457 389.166, 298.574 389.410, 299.572 389.724, 300.452 390.107, 301.217 390.555, 301.870 391.068, 302.412 391.643, 302.847 392.278, 303.176 392.971, 303.402 402.767, 305.413 408.868, 306.666 418.664, 308.678 428.460, 310.689 438.255, 312.701 448.051, 314.713 456.459, 316.439 466.255, 318.451 476.051, 320.462 485.846, 322.474 491.294, 323.593 501.090, 325.604 502.590, 325.912 512.385, 327.924 522.181, 329.935 526.761, 330.876 " />
            <path fill="none" stroke-width="3.0" stroke-linecap="butt" stroke-opacity="1.0" stroke="rgb(0, 0, 0)" stroke-linejoin="miter" d=" M 686.582, 239.001 676.709, 237.417 666.835, 235.833 656.961, 234.250 647.087, 232.666 637.214, 231.082 627.340, 229.498 617.466, 227.915 607.592, 226.331 597.718, 224.747 587.845, 223.163 577.971, 221.580 568.097, 219.996 564.149, 219.363 563.529, 219.338 562.885, 219.402 562.227, 219.551 561.565, 219.781 557.497, 221.458 553.598, 223.107 549.846, 224.728 546.212, 226.326 542.671, 227.903 539.194, 229.464 535.752, 231.010 532.316, 232.548 528.855, 234.080 525.338, 235.611 521.732, 237.145 518.005, 238.689 508.746, 242.465 501.915, 245.251 501.454, 245.489 500.985, 245.826 500.516, 246.256 500.057, 246.770 499.618, 247.360 499.208, 248.018 498.837, 248.735 498.514, 249.505 498.249, 250.318 498.051, 251.166 497.930, 252.041 497.895, 252.935 497.943, 254.080 498.054, 255.115 498.228, 256.043 498.462, 256.865 498.755, 257.583 499.105, 258.201 499.511, 258.719 499.970, 259.141 500.481, 259.468 501.043, 259.702 501.653, 259.846 508.985, 261.165 518.827, 262.935 528.669, 264.706 531.977, 265.301 541.819, 267.072 551.661, 268.842 561.503, 270.613 571.345, 272.384 581.187, 274.154 591.029, 275.925 600.871, 277.696 610.713, 279.466 620.555, 281.237 628.128, 282.599 " />
            <path fill="none" stroke-width="3.0" stroke-linecap="butt" stroke-opacity="1.0" stroke="rgb(0, 0, 0)" stroke-linejoin="miter" d=" M 508.985, 261.165 509.187, 261.262 510.116, 261.899 510.900, 262.652 511.115, 262.943 " />
            <path fill="none" stroke-width="3.0" stroke-linecap="butt" stroke-opacity="1.0" stroke="rgb(0, 0, 0)" stroke-linejoin="miter" d=" M 408.868, 306.666 409.106, 306.873 410.359, 308.605 411.354, 310.764 412.120, 313.383 412.683, 316.494 413.072, 320.132 413.313, 324.327 413.704, 334.319 414.096, 344.311 414.488, 354.304 414.879, 364.296 415.271, 374.288 415.663, 384.281 416.054, 394.273 416.446, 404.265 416.838, 414.258 417.229, 424.250 417.621, 434.242 418.013, 444.235 418.405, 454.227 418.796, 464.219 419.188, 474.212 419.580, 484.204 419.971, 494.196 420.326, 503.239 420.416, 506.862 420.370, 510.136 420.161, 513.116 419.762, 515.856 419.148, 518.411 418.290, 520.834 417.162, 523.180 415.735, 525.502 413.980, 527.855 411.867, 530.292 409.366, 532.869 406.445, 535.642 405.496, 536.544 404.624, 537.465 403.830, 538.404 403.116, 539.361 402.485, 540.336 401.939, 541.330 401.479, 542.341 401.108, 543.370 400.828, 544.417 400.641, 545.482 400.547, 546.564 400.550, 547.664 400.669, 548.443 400.938, 549.115 401.338, 549.682 401.851, 550.141 402.458, 550.492 403.142, 550.735 412.710, 553.642 422.278, 556.549 431.846, 559.456 441.414, 562.363 450.982, 565.270 460.551, 568.177 470.119, 571.084 479.687, 573.991 489.255, 576.898 498.823, 579.805 508.391, 582.712 517.959, 585.619 526.891, 588.333 " />
            <path fill="none" stroke-width="3.0" stroke-linecap="butt" stroke-opacity="1.0" stroke="rgb(0, 0, 0)" stroke-linejoin="miter" d=" M 582.943, 517.618 592.595, 520.233 602.247, 522.849 611.899, 525.464 612.222, 525.552 " />
        </g>
    </g>
</svg>
