<?xml version='1.0' encoding='ascii'?>
<svg xmlns="http://www.w3.org/2000/svg" version="1.1" width="1080" height="1080">
    <g id="View Layer_LineSet" xmlns:inkscape="http://www.inkscape.org/namespaces/inkscape" inkscape:groupmode="lineset" inkscape:label="View Layer_LineSet">
        <g xmlns:inkscape="http://www.inkscape.org/namespaces/inkscape" inkscape:groupmode="layer" id="strokes" inkscape:label="strokes">
            <path fill="none" stroke-width="3.0" stroke-linecap="butt" stroke-opacity="1.0" stroke="rgb(0, 0, 0)" stroke-linejoin="miter" d=" M 578.481, 416.803 578.251, 416.725 578.040, 416.551 577.850, 416.274 577.684, 415.889 577.544, 415.390 577.434, 414.769 577.356, 414.021 577.312, 413.140 577.305, 412.119 577.424, 402.120 577.543, 392.121 577.661, 382.121 577.780, 372.122 577.898, 362.123 578.017, 352.124 578.136, 342.124 578.254, 332.125 578.307, 327.660 578.398, 323.673 578.585, 320.056 578.893, 316.750 579.346, 313.697 579.966, 310.838 580.778, 308.115 581.803, 305.468 583.063, 302.838 584.581, 300.168 586.377, 297.398 588.470, 294.472 590.881, 291.332 591.424, 290.577 591.926, 289.834 592.388, 289.090 592.807, 288.334 593.184, 287.553 593.517, 286.734 593.804, 285.865 594.046, 284.933 594.241, 283.926 594.388, 282.831 594.486, 281.635 594.534, 280.326 594.528, 279.329 594.476, 278.446 594.379, 277.678 594.238, 277.022 594.054, 276.479 593.829, 276.047 593.563, 275.727 593.259, 275.517 592.917, 275.416 592.538, 275.425 592.124, 275.543 591.676, 275.769 589.602, 277.049 587.308, 278.519 584.838, 280.144 582.230, 281.888 579.529, 283.713 576.777, 285.581 574.019, 287.455 571.301, 289.294 568.669, 291.059 566.170, 292.707 563.855, 294.198 561.773, 295.488 559.666, 296.716 557.363, 297.986 554.895, 299.294 552.293, 300.635 549.589, 302.006 546.815, 303.401 544.005, 304.817 541.194, 306.247 538.416, 307.686 535.708, 309.128 533.108, 310.568 530.653, 311.997 530.215, 312.316 529.768, 312.750 529.320, 313.287 528.882, 313.918 528.461, 314.633 528.068, 315.423 527.711, 316.275 527.399, 317.181 527.142, 318.130 526.948, 319.111 526.827, 320.114 526.787, 321.129 526.824, 322.418 526.922, 323.576 527.079, 324.605 527.295, 325.508 527.567, 326.288 527.812, 326.781 527.894, 326.946 528.274, 327.486 528.706, 327.911 529.188, 328.222 529.717, 328.424 530.294, 328.517 530.915, 328.506 533.572, 328.207 535.877, 328.165 537.857, 328.413 " />
            <path fill="none" stroke-width="3.0" stroke-linecap="butt" stroke-opacity="1.0" stroke="rgb(0, 0, 0)" stroke-linejoin="miter" d=" M 649.872, 459.484 648.507, 459.131 647.252, 458.585 646.095, 457.858 645.023, 456.963 644.608, 456.528 644.024, 455.915 643.084, 454.727 642.190, 453.412 641.329, 451.985 640.487, 450.459 635.807, 441.622 631.128, 432.784 626.449, 423.946 621.769, 415.109 617.090, 406.271 612.411, 397.433 607.731, 388.596 604.300, 382.116 603.925, 381.334 603.621, 380.486 603.390, 379.578 603.230, 378.615 603.143, 377.602 603.128, 376.546 603.186, 375.452 603.316, 374.326 603.517, 373.173 603.791, 372.000 604.137, 370.811 604.554, 369.614 607.198, 362.439 609.794, 355.262 612.348, 348.104 614.868, 340.984 617.361, 333.925 619.835, 326.947 622.297, 320.073 624.754, 313.325 627.211, 306.725 629.675, 300.297 632.153, 294.063 634.650, 288.047 636.279, 284.310 637.972, 280.618 639.737, 276.980 641.581, 273.408 643.512, 269.913 645.536, 266.505 647.660, 263.194 649.890, 259.993 652.233, 256.911 654.695, 253.959 657.280, 251.148 659.994, 248.488 660.483, 247.962 661.000, 247.351 661.533, 246.661 662.067, 245.893 662.591, 245.054 663.092, 244.147 663.557, 243.174 663.975, 242.141 664.332, 241.050 664.616, 239.905 664.815, 238.709 664.915, 237.466 664.907, 236.558 664.815, 235.781 664.645, 235.129 664.407, 234.597 664.108, 234.181 663.756, 233.876 663.358, 233.677 662.924, 233.580 662.459, 233.580 661.974, 233.672 661.475, 233.852 660.971, 234.115 657.859, 236.008 654.876, 237.865 652.000, 239.690 649.213, 241.486 646.494, 243.259 643.823, 245.013 641.177, 246.752 638.534, 248.482 635.871, 250.209 633.163, 251.938 630.387, 253.676 627.517, 255.429 618.953, 260.591 615.109, 262.907 614.752, 263.173 614.384, 263.543 614.014, 264.008 613.649, 264.559 613.297, 265.189 612.964, 265.887 612.659, 266.646 612.389, 267.456 612.161, 268.309 611.984, 269.195 611.864, 270.105 611.808, 271.031 611.808, 272.213 611.859, 273.279 611.961, 274.230 612.112, 275.070 612.312, 275.800 612.557, 276.423 612.849, 276.941 613.184, 277.356 613.347, 277.493 613.561, 277.671 613.980, 277.888 614.439, 278.009 614.936, 278.037 616.210, 277.984 617.362, 278.070 " />
            <path fill="none" stroke-width="3.0" stroke-linecap="butt" stroke-opacity="1.0" stroke="rgb(0, 0, 0)" stroke-linejoin="miter" d=" M 617.362, 278.070 618.394, 278.291 619.309, 278.646 620.108, 279.133 620.791, 279.748 621.361, 280.491 621.819, 281.360 622.165, 282.351 622.401, 283.465 622.528, 284.698 622.546, 286.050 622.495, 286.983 622.390, 287.969 622.234, 289.006 622.029, 290.094 621.779, 291.234 621.486, 292.425 621.153, 293.666 620.784, 294.957 620.381, 296.298 619.946, 297.689 619.484, 299.128 618.996, 300.616 615.855, 310.110 612.715, 319.604 609.574, 329.098 606.434, 338.592 603.293, 348.086 600.153, 357.580 597.012, 367.074 593.872, 376.568 590.731, 386.063 587.591, 395.557 584.450, 405.051 583.720, 407.259 583.226, 408.488 582.767, 409.637 582.338, 410.707 581.937, 411.695 581.559, 412.601 581.201, 413.423 580.859, 414.160 580.530, 414.810 580.208, 415.372 579.892, 415.846 579.576, 416.229 579.258, 416.521 578.987, 416.694 578.728, 416.790 578.481, 416.803 " />
            <path fill="none" stroke-width="3.0" stroke-linecap="butt" stroke-opacity="1.0" stroke="rgb(0, 0, 0)" stroke-linejoin="miter" d=" M 537.857, 328.413 539.536, 328.985 540.938, 329.912 542.083, 331.230 542.996, 332.971 543.695, 335.168 544.203, 337.856 544.539, 341.067 544.723, 344.834 544.775, 349.188 544.760, 359.188 544.745, 369.188 544.730, 379.188 544.716, 389.188 544.701, 399.188 544.686, 409.188 544.684, 410.479 544.669, 420.479 544.665, 423.257 544.650, 433.257 544.644, 437.020 544.642, 438.887 544.627, 448.887 544.612, 458.887 544.597, 468.887 544.582, 478.887 544.567, 488.887 544.552, 498.887 544.540, 507.247 544.534, 511.105 544.530, 513.704 544.515, 523.704 544.500, 533.704 544.499, 534.567 544.454, 538.314 544.314, 541.709 544.059, 544.811 543.666, 547.678 543.112, 550.368 542.376, 552.940 541.433, 555.451 540.260, 557.958 538.834, 560.522 537.130, 563.199 535.121, 566.051 532.781, 569.137 532.021, 570.142 531.319, 571.160 530.676, 572.191 530.096, 573.236 529.578, 574.293 529.125, 575.363 528.738, 576.446 528.419, 577.540 528.170, 578.647 527.992, 579.765 527.885, 580.895 527.853, 582.035 527.920, 582.834 528.106, 583.512 528.397, 584.069 528.779, 584.507 529.236, 584.826 529.756, 585.028 530.325, 585.112 530.927, 585.081 531.550, 584.935 532.181, 584.675 532.804, 584.302 533.407, 583.817 536.627, 580.784 539.550, 577.895 542.211, 575.142 544.648, 572.520 546.894, 570.022 548.985, 567.643 550.951, 565.380 552.827, 563.228 554.643, 561.184 556.429, 559.245 558.217, 557.409 560.036, 555.674 561.835, 554.087 563.648, 552.588 565.489, 551.145 567.372, 549.723 569.311, 548.289 571.319, 546.810 573.410, 545.254 575.596, 543.588 577.891, 541.780 580.306, 539.800 582.855, 537.617 585.548, 535.202 586.116, 534.629 586.690, 533.953 587.258, 533.188 587.811, 532.348 588.338, 531.449 588.829, 530.503 589.275, 529.526 589.665, 528.531 589.990, 527.532 590.238, 526.544 590.401, 525.579 590.467, 524.653 590.441, 523.585 590.327, 522.718 590.136, 522.032 589.875, 521.509 589.552, 521.130 589.176, 520.876 588.755, 520.729 578.984, 518.603 577.536, 518.287 " />
            <path fill="none" stroke-width="3.0" stroke-linecap="butt" stroke-opacity="1.0" stroke="rgb(0, 0, 0)" stroke-linejoin="miter" d=" M 580.992, 521.669 579.797, 521.317 578.842, 520.649 578.100, 519.655 577.544, 518.323 577.536, 518.287 577.145, 516.643 576.874, 514.605 576.848, 514.241 576.703, 512.198 576.603, 509.411 576.544, 506.232 576.487, 500.731 576.451, 495.203 576.433, 489.647 576.432, 484.064 576.446, 478.452 576.473, 472.810 576.512, 467.137 576.560, 461.432 576.616, 455.695 576.678, 449.923 576.733, 445.168 576.745, 444.116 576.754, 443.286 576.813, 438.272 576.844, 437.230 576.910, 436.257 577.007, 435.352 577.134, 434.517 577.288, 433.752 577.466, 433.058 577.666, 432.436 577.885, 431.887 578.121, 431.411 578.371, 431.009 578.633, 430.682 578.903, 430.430 579.226, 430.218 579.555, 430.083 579.891, 430.027 580.233, 430.050 " />
            <path fill="none" stroke-width="3.0" stroke-linecap="butt" stroke-opacity="1.0" stroke="rgb(0, 0, 0)" stroke-linejoin="miter" d=" M 580.233, 430.050 580.581, 430.154 580.935, 430.340 581.294, 430.610 581.660, 430.964 582.032, 431.403 582.409, 431.930 582.792, 432.544 583.181, 433.246 587.989, 442.015 590.116, 445.894 591.280, 448.016 596.089, 456.784 600.897, 465.552 605.705, 474.320 608.240, 478.941 608.652, 479.721 609.028, 480.501 609.370, 481.284 609.675, 482.070 609.944, 482.862 610.176, 483.662 610.370, 484.472 610.526, 485.293 610.644, 486.128 610.724, 486.978 610.763, 487.845 610.763, 488.731 610.654, 489.946 610.462, 491.190 610.183, 492.465 609.815, 493.772 609.354, 495.114 608.798, 496.491 608.143, 497.907 607.386, 499.362 606.524, 500.860 605.554, 502.402 604.470, 503.990 603.271, 505.627 602.783, 506.360 602.329, 507.123 601.911, 507.915 601.529, 508.737 601.185, 509.588 600.880, 510.469 600.616, 511.380 600.393, 512.321 600.213, 513.291 600.077, 514.291 599.987, 515.320 599.942, 516.379 599.960, 517.130 600.042, 517.776 600.181, 518.317 600.369, 518.758 600.600, 519.101 600.867, 519.349 601.162, 519.504 601.480, 519.570 601.812, 519.548 602.153, 519.443 602.495, 519.256 602.831, 518.990 604.749, 517.196 606.615, 515.390 608.439, 513.575 610.232, 511.753 612.003, 509.927 613.765, 508.099 615.525, 506.274 617.294, 504.453 619.081, 502.641 620.895, 500.839 622.746, 499.053 624.642, 497.284 627.135, 495.049 629.598, 492.924 632.030, 490.890 634.434, 488.930 636.811, 487.026 639.163, 485.161 641.489, 483.315 643.793, 481.473 646.075, 479.617 648.337, 477.730 650.580, 475.796 652.806, 473.797 653.749, 472.878 654.614, 471.928 655.403, 470.955 656.113, 469.965 656.746, 468.966 657.300, 467.965 657.775, 466.969 658.172, 465.984 658.488, 465.019 658.725, 464.080 658.880, 463.174 658.953, 462.309 658.939, 461.324 658.819, 460.545 658.607, 459.951 658.316, 459.519 657.960, 459.228 657.551, 459.054 647.737, 457.139 644.608, 456.528 " />
            <path fill="none" stroke-width="3.0" stroke-linecap="butt" stroke-opacity="1.0" stroke="rgb(0, 0, 0)" stroke-linejoin="miter" d=" M 657.551, 459.054 657.104, 458.976 656.630, 458.972 656.144, 459.020 655.659, 459.096 655.189, 459.180 654.747, 459.248 652.981, 459.554 651.359, 459.629 649.872, 459.484 " />
            <path fill="none" stroke-width="3.0" stroke-linecap="butt" stroke-opacity="1.0" stroke="rgb(0, 0, 0)" stroke-linejoin="miter" d=" M 588.755, 520.729 588.298, 520.670 587.813, 520.680 587.309, 520.741 586.794, 520.833 586.277, 520.938 584.207, 521.467 582.453, 521.715 580.992, 521.669 " />
            <path fill="none" stroke-width="3.0" stroke-linecap="butt" stroke-opacity="1.0" stroke="rgb(0, 0, 0)" stroke-linejoin="miter" d=" M 592.917, 275.416 583.019, 273.991 573.121, 272.566 563.223, 271.141 553.325, 269.715 543.427, 268.290 533.530, 266.865 523.632, 265.440 513.734, 264.015 509.058, 263.341 499.160, 261.916 489.305, 260.497 479.407, 259.072 469.510, 257.646 459.612, 256.221 457.582, 255.929 457.148, 255.927 456.678, 256.030 456.174, 256.235 453.848, 257.415 451.281, 258.773 448.517, 260.274 445.602, 261.886 442.584, 263.573 439.511, 265.300 436.431, 267.032 433.397, 268.731 430.458, 270.360 427.669, 271.881 425.083, 273.254 422.756, 274.440 420.398, 275.565 417.819, 276.724 415.053, 277.915 412.136, 279.135 409.105, 280.379 405.996, 281.645 402.847, 282.929 399.698, 284.226 396.589, 285.533 393.560, 286.845 390.655, 288.156 387.917, 289.462 387.431, 289.757 386.939, 290.161 386.451, 290.666 385.978, 291.261 385.529, 291.937 385.113, 292.686 384.742, 293.497 384.424, 294.360 384.170, 295.266 383.990, 296.205 383.894, 297.168 383.891, 298.143 383.986, 299.386 384.146, 300.504 384.368, 301.500 384.651, 302.377 384.994, 303.135 385.394, 303.779 385.849, 304.311 386.359, 304.733 386.921, 305.047 387.533, 305.257 397.403, 306.865 400.803, 307.419 410.673, 309.027 420.542, 310.635 430.412, 312.244 440.282, 313.852 443.297, 314.343 453.167, 315.951 463.036, 317.559 472.906, 319.167 475.067, 319.519 484.937, 321.127 485.171, 321.166 495.041, 322.774 504.911, 324.382 514.781, 325.990 524.651, 327.598 529.717, 328.424 " />
            <path fill="none" stroke-width="3.0" stroke-linecap="butt" stroke-opacity="1.0" stroke="rgb(0, 0, 0)" stroke-linejoin="miter" d=" M 662.924, 233.580 653.005, 232.303 643.087, 231.025 633.169, 229.748 623.251, 228.471 613.333, 227.193 603.415, 225.916 593.497, 224.639 583.579, 223.362 573.661, 222.084 563.743, 220.807 553.825, 219.530 543.906, 218.253 536.408, 217.287 535.871, 217.275 535.314, 217.352 534.745, 217.514 534.174, 217.757 530.661, 219.512 527.295, 221.235 524.053, 222.930 520.914, 224.599 517.853, 226.246 514.846, 227.875 511.869, 229.490 508.896, 231.097 505.901, 232.699 502.855, 234.302 499.731, 235.911 496.501, 237.532 487.538, 241.966 482.542, 244.437 482.142, 244.685 481.735, 245.032 481.330, 245.472 480.934, 245.995 480.556, 246.594 480.203, 247.261 479.885, 247.986 479.609, 248.762 479.384, 249.579 479.218, 250.431 479.119, 251.308 479.095, 252.202 479.145, 253.344 479.250, 254.376 479.408, 255.298 479.618, 256.114 479.878, 256.826 480.188, 257.434 480.545, 257.943 480.948, 258.354 481.396, 258.668 481.887, 258.889 482.420, 259.019 488.213, 259.852 498.111, 261.276 508.009, 262.700 509.290, 262.884 519.188, 264.308 529.086, 265.732 538.984, 267.155 548.882, 268.579 558.781, 270.003 568.679, 271.427 578.577, 272.851 588.475, 274.274 598.373, 275.698 608.271, 277.122 614.439, 278.009 " />
            <path fill="none" stroke-width="3.0" stroke-linecap="butt" stroke-opacity="1.0" stroke="rgb(0, 0, 0)" stroke-linejoin="miter" d=" M 488.213, 259.852 488.992, 260.261 489.305, 260.497 " />
            <path fill="none" stroke-width="3.0" stroke-linecap="butt" stroke-opacity="1.0" stroke="rgb(0, 0, 0)" stroke-linejoin="miter" d=" M 400.803, 307.419 401.757, 308.332 402.871, 310.039 403.762, 312.179 404.454, 314.787 404.971, 317.894 405.339, 321.533 405.581, 325.735 405.997, 335.727 406.413, 345.718 406.829, 355.709 407.244, 365.701 407.660, 375.692 408.076, 385.684 408.491, 395.675 408.907, 405.666 409.323, 415.658 409.739, 425.649 410.154, 435.640 410.570, 445.632 410.986, 455.623 411.401, 465.614 411.817, 475.606 412.233, 485.597 412.649, 495.588 413.041, 505.018 413.146, 508.650 413.130, 511.936 412.968, 514.933 412.638, 517.697 412.116, 520.283 411.381, 522.745 410.406, 525.140 409.169, 527.522 407.643, 529.947 405.803, 532.470 403.623, 535.149 401.074, 538.040 400.246, 538.981 399.485, 539.938 398.793, 540.910 398.172, 541.897 397.624, 542.900 397.150, 543.918 396.753, 544.951 396.434, 545.998 396.195, 547.060 396.038, 548.136 395.963, 549.227 395.974, 550.332 396.084, 551.109 396.326, 551.775 396.682, 552.329 397.136, 552.770 397.673, 553.100 398.277, 553.319 407.998, 555.663 417.719, 558.008 427.441, 560.352 437.162, 562.697 446.883, 565.041 456.605, 567.386 466.326, 569.730 476.047, 572.075 485.768, 574.419 495.490, 576.764 505.211, 579.108 514.932, 581.453 524.654, 583.797 529.756, 585.028 " />
            <path fill="none" stroke-width="3.0" stroke-linecap="butt" stroke-opacity="1.0" stroke="rgb(0, 0, 0)" stroke-linejoin="miter" d=" M 576.848, 514.241 586.622, 516.357 596.396, 518.472 601.162, 519.504 " />
        </g>
    </g>
</svg>
