<?xml version='1.0' encoding='ascii'?>
<svg xmlns="http://www.w3.org/2000/svg" version="1.1" width="1080" height="1080">
    <g id="View Layer_LineSet" xmlns:inkscape="http://www.inkscape.org/namespaces/inkscape" inkscape:groupmode="lineset" inkscape:label="View Layer_LineSet">
        <g xmlns:inkscape="http://www.inkscape.org/namespaces/inkscape" inkscape:groupmode="layer" id="strokes" inkscape:label="strokes">
            <path fill="none" stroke-width="3.0" stroke-linecap="butt" stroke-opacity="1.0" stroke="rgb(0, 0, 0)" stroke-linejoin="miter" d=" M 570.831, 412.564 570.648, 412.493 570.480, 412.326 570.328, 412.057 570.196, 411.679 570.085, 411.186 569.997, 410.572 569.935, 409.830 569.900, 408.955 569.895, 407.941 569.990, 397.941 570.085, 387.942 570.180, 377.942 570.275, 367.942 570.370, 357.943 570.464, 347.943 570.559, 337.944 570.654, 327.944 570.692, 323.956 570.764, 319.992 570.913, 316.392 571.159, 313.099 571.519, 310.054 572.013, 307.199 572.659, 304.474 573.474, 301.820 574.478, 299.178 575.685, 296.490 577.114, 293.697 578.779, 290.743 580.696, 287.571 581.128, 286.809 581.527, 286.059 581.894, 285.311 582.228, 284.551 582.527, 283.766 582.792, 282.946 583.020, 282.076 583.213, 281.146 583.367, 280.141 583.484, 279.051 583.562, 277.861 583.601, 276.559 583.596, 275.569 583.554, 274.694 583.477, 273.933 583.365, 273.285 583.219, 272.750 583.040, 272.326 582.829, 272.013 582.802, 271.991 582.587, 271.811 582.315, 271.719 582.014, 271.736 581.685, 271.862 581.677, 271.867 581.328, 272.096 579.678, 273.412 577.855, 274.923 575.889, 276.591 573.815, 278.380 571.665, 280.253 569.474, 282.170 567.278, 284.093 565.112, 285.982 563.015, 287.795 561.024, 289.490 559.179, 291.025 557.519, 292.355 555.839, 293.624 554.002, 294.939 552.033, 296.296 549.957, 297.690 547.799, 299.115 545.585, 300.568 543.341, 302.041 541.095, 303.529 538.876, 305.026 536.712, 306.525 534.634, 308.019 532.671, 309.501 532.321, 309.829 531.963, 310.270 531.605, 310.816 531.255, 311.455 530.918, 312.178 530.604, 312.973 530.318, 313.831 530.069, 314.740 529.863, 315.691 529.708, 316.673 529.611, 317.676 529.579, 318.687 529.608, 319.971 529.687, 321.122 529.813, 322.144 529.985, 323.038 530.203, 323.808 530.464, 324.456 530.606, 324.703 530.768, 324.985 531.113, 325.398 531.498, 325.696 531.922, 325.884 532.383, 325.964 532.880, 325.937 535.004, 325.576 536.846, 325.478 " />
            <path fill="none" stroke-width="3.0" stroke-linecap="butt" stroke-opacity="1.0" stroke="rgb(0, 0, 0)" stroke-linejoin="miter" d=" M 627.497, 452.872 626.417, 452.563 625.424, 452.059 624.509, 451.372 623.892, 450.751 623.660, 450.518 622.869, 449.508 622.125, 448.358 621.417, 447.081 620.735, 445.691 620.068, 444.203 616.120, 435.015 612.172, 425.827 608.225, 416.640 604.277, 407.452 600.329, 398.264 596.381, 389.076 592.434, 379.888 591.364, 377.399 591.066, 376.633 590.825, 375.799 590.641, 374.903 590.514, 373.951 590.445, 372.948 590.433, 371.899 590.479, 370.812 590.582, 369.690 590.742, 368.540 590.959, 367.368 591.234, 366.179 591.565, 364.980 593.665, 357.789 595.726, 350.599 597.753, 343.430 599.752, 336.303 601.730, 329.237 603.693, 322.255 605.645, 315.378 607.592, 308.627 609.539, 302.025 611.492, 295.595 613.455, 289.359 615.432, 283.340 616.722, 279.600 618.063, 275.903 619.460, 272.260 620.919, 268.681 622.447, 265.176 624.048, 261.757 625.728, 258.433 627.492, 255.215 629.345, 252.114 631.291, 249.140 633.334, 246.304 635.478, 243.615 635.865, 243.084 636.274, 242.469 636.694, 241.775 637.116, 241.005 637.530, 240.163 637.926, 239.255 638.293, 238.283 638.623, 237.252 638.905, 236.165 639.129, 235.026 639.286, 233.839 639.365, 232.606 639.359, 231.708 639.286, 230.940 639.152, 230.298 638.964, 229.777 638.727, 229.371 638.449, 229.076 638.135, 228.887 637.792, 228.799 637.425, 228.808 637.041, 228.909 636.647, 229.097 636.249, 229.367 633.791, 231.302 631.432, 233.200 629.159, 235.064 626.955, 236.899 624.804, 238.709 622.691, 240.500 620.597, 242.276 618.505, 244.044 616.396, 245.810 614.252, 247.579 612.053, 249.359 609.779, 251.156 601.894, 257.306 599.940, 258.831 599.656, 259.102 599.365, 259.477 599.071, 259.945 598.781, 260.500 598.502, 261.132 598.238, 261.832 597.996, 262.591 597.781, 263.401 597.601, 264.252 597.460, 265.135 597.365, 266.041 597.321, 266.960 597.320, 268.133 597.361, 269.190 597.442, 270.132 597.562, 270.962 597.720, 271.682 597.916, 272.294 598.147, 272.802 598.413, 273.207 598.690, 273.488 598.712, 273.511 599.045, 273.717 599.409, 273.827 599.803, 273.844 600.814, 273.764 601.728, 273.824 " />
            <path fill="none" stroke-width="3.0" stroke-linecap="butt" stroke-opacity="1.0" stroke="rgb(0, 0, 0)" stroke-linejoin="miter" d=" M 536.846, 325.478 538.429, 325.678 539.770, 326.206 540.890, 327.096 541.805, 328.380 542.534, 330.091 543.092, 332.262 543.497, 334.925 543.766, 338.113 543.913, 341.858 543.954, 346.192 543.942, 356.192 543.930, 366.192 543.917, 376.192 543.905, 386.192 543.893, 396.192 543.880, 406.192 543.877, 408.696 543.865, 418.696 543.861, 421.530 543.849, 431.530 543.840, 438.704 543.838, 440.251 543.826, 450.251 543.814, 460.251 543.801, 470.251 543.789, 480.251 543.777, 490.251 543.764, 500.251 543.757, 506.456 543.753, 509.679 543.750, 511.883 543.738, 521.883 543.727, 530.799 543.690, 534.534 543.579, 537.921 543.375, 541.019 543.061, 543.888 542.618, 546.587 542.029, 549.174 541.276, 551.708 540.339, 554.247 539.199, 556.850 537.836, 559.577 536.230, 562.489 534.359, 565.646 533.751, 566.675 533.189, 567.714 532.675, 568.765 532.211, 569.827 531.796, 570.899 531.434, 571.982 531.125, 573.075 530.870, 574.177 530.670, 575.289 530.527, 576.410 530.442, 577.540 530.416, 578.678 530.470, 579.472 530.619, 580.142 530.851, 580.687 531.156, 581.110 531.523, 581.412 531.939, 581.594 532.393, 581.658 532.875, 581.605 533.374, 581.438 533.878, 581.156 534.376, 580.762 534.859, 580.257 537.434, 577.120 539.770, 574.137 541.897, 571.300 543.844, 568.602 545.639, 566.034 547.308, 563.592 548.879, 561.270 550.376, 559.061 551.826, 556.963 553.252, 554.971 554.678, 553.082 556.129, 551.292 557.565, 549.650 559.011, 548.097 560.479, 546.598 561.980, 545.119 563.526, 543.626 565.126, 542.086 566.792, 540.467 568.534, 538.736 570.362, 536.861 572.285, 534.810 574.314, 532.554 576.458, 530.063 576.910, 529.474 577.367, 528.783 577.819, 528.004 578.259, 527.151 578.678, 526.239 579.069, 525.283 579.424, 524.296 579.734, 523.294 579.992, 522.291 580.190, 521.300 580.319, 520.336 580.372, 519.413 580.351, 518.353 580.261, 517.494 580.109, 516.819 579.901, 516.307 579.644, 515.941 579.344, 515.701 579.010, 515.569 570.278, 514.110 " />
            <path fill="none" stroke-width="3.0" stroke-linecap="butt" stroke-opacity="1.0" stroke="rgb(0, 0, 0)" stroke-linejoin="miter" d=" M 601.728, 273.824 602.547, 274.021 603.273, 274.354 603.906, 274.819 604.448, 275.415 604.900, 276.139 605.263, 276.990 605.538, 277.966 605.725, 279.066 605.825, 280.286 605.840, 281.627 605.800, 282.553 605.716, 283.533 605.592, 284.565 605.430, 285.649 605.232, 286.785 604.999, 287.973 604.736, 289.211 604.443, 290.500 604.123, 291.839 603.779, 293.228 603.412, 294.667 603.025, 296.154 600.487, 305.826 597.948, 315.499 595.410, 325.171 592.871, 334.843 590.333, 344.516 587.794, 354.188 585.256, 363.861 582.717, 373.533 580.178, 383.206 577.640, 392.878 575.001, 402.932 574.608, 404.166 574.243, 405.322 573.902, 406.397 573.582, 407.391 573.282, 408.302 572.997, 409.129 572.724, 409.870 572.462, 410.526 572.206, 411.094 571.954, 411.573 571.703, 411.963 571.450, 412.262 571.234, 412.442 571.027, 412.545 570.831, 412.564 " />
            <path fill="none" stroke-width="3.0" stroke-linecap="butt" stroke-opacity="1.0" stroke="rgb(0, 0, 0)" stroke-linejoin="miter" d=" M 572.831, 516.757 571.879, 516.446 571.119, 515.813 570.528, 514.848 570.278, 514.110 570.085, 513.542 569.767, 511.884 569.648, 510.762 569.552, 509.866 569.416, 507.477 569.336, 504.709 569.289, 501.549 569.243, 496.079 569.214, 490.583 569.200, 485.058 569.199, 479.506 569.211, 473.924 569.232, 468.312 569.263, 462.670 569.301, 456.995 569.346, 451.288 569.396, 445.547 569.409, 444.109 569.423, 442.554 569.448, 439.771 569.503, 433.958 569.528, 432.921 569.580, 431.951 569.657, 431.049 569.758, 430.215 569.881, 429.450 570.023, 428.755 570.182, 428.131 570.357, 427.578 570.544, 427.098 570.743, 426.692 570.952, 426.359 571.167, 426.100 571.424, 425.880 571.687, 425.737 571.954, 425.671 572.226, 425.685 " />
            <path fill="none" stroke-width="3.0" stroke-linecap="butt" stroke-opacity="1.0" stroke="rgb(0, 0, 0)" stroke-linejoin="miter" d=" M 572.226, 425.685 572.503, 425.778 572.785, 425.953 573.071, 426.211 573.362, 426.552 573.658, 426.979 573.958, 427.491 574.263, 428.090 574.572, 428.778 578.647, 437.910 581.532, 444.376 582.279, 446.050 586.354, 455.183 590.429, 464.315 594.497, 473.433 594.824, 474.195 595.124, 474.958 595.395, 475.724 595.637, 476.496 595.851, 477.274 596.035, 478.061 596.189, 478.859 596.313, 479.670 596.407, 480.495 596.470, 481.337 596.502, 482.196 596.501, 483.076 596.415, 484.287 596.262, 485.528 596.041, 486.803 595.749, 488.112 595.383, 489.459 594.941, 490.844 594.421, 492.270 593.820, 493.740 593.136, 495.254 592.365, 496.817 591.504, 498.429 590.551, 500.093 590.164, 500.837 589.803, 501.609 589.470, 502.409 589.167, 503.238 588.894, 504.095 588.652, 504.980 588.442, 505.894 588.265, 506.835 588.122, 507.805 588.014, 508.803 587.941, 509.829 587.906, 510.882 587.921, 511.628 587.986, 512.266 588.096, 512.800 588.245, 513.232 588.429, 513.565 588.641, 513.803 588.876, 513.947 589.128, 514.002 589.393, 513.970 589.663, 513.854 589.935, 513.657 590.202, 513.382 591.726, 511.538 593.208, 509.684 594.657, 507.822 596.081, 505.955 597.487, 504.084 598.885, 502.213 600.283, 500.345 601.686, 498.481 603.104, 496.625 604.544, 494.779 606.011, 492.948 607.515, 491.133 609.492, 488.836 611.444, 486.650 613.372, 484.557 615.277, 482.538 617.160, 480.576 619.022, 478.653 620.865, 476.751 622.688, 474.854 624.494, 472.944 626.284, 471.004 628.059, 469.018 629.820, 466.970 630.565, 466.030 631.250, 465.063 631.873, 464.074 632.435, 463.072 632.935, 462.063 633.373, 461.055 633.749, 460.053 634.062, 459.066 634.312, 458.100 634.499, 457.163 634.622, 456.261 634.680, 455.401 634.668, 454.425 634.573, 453.658 634.405, 453.076 634.176, 452.656 633.894, 452.378 633.571, 452.218 633.217, 452.154 623.892, 450.751 " />
            <path fill="none" stroke-width="3.0" stroke-linecap="butt" stroke-opacity="1.0" stroke="rgb(0, 0, 0)" stroke-linejoin="miter" d=" M 633.217, 452.154 632.842, 452.164 632.458, 452.226 632.075, 452.316 631.703, 452.413 631.353, 452.493 629.956, 452.850 628.674, 452.972 627.497, 452.872 " />
            <path fill="none" stroke-width="3.0" stroke-linecap="butt" stroke-opacity="1.0" stroke="rgb(0, 0, 0)" stroke-linejoin="miter" d=" M 579.010, 515.569 578.646, 515.525 578.260, 515.551 577.859, 515.628 577.450, 515.736 577.038, 515.857 575.391, 516.451 573.995, 516.755 572.831, 516.757 " />
            <path fill="none" stroke-width="3.0" stroke-linecap="butt" stroke-opacity="1.0" stroke="rgb(0, 0, 0)" stroke-linejoin="miter" d=" M 582.315, 271.719 572.375, 270.621 562.436, 269.522 552.496, 268.424 542.557, 267.325 532.617, 266.227 522.678, 265.128 512.738, 264.030 502.799, 262.931 492.859, 261.833 485.820, 261.055 475.881, 259.957 465.955, 258.859 464.452, 258.693 461.905, 258.412 451.965, 257.313 442.026, 256.215 441.681, 256.177 441.313, 256.185 440.916, 256.298 440.490, 256.515 438.530, 257.748 436.366, 259.165 434.036, 260.730 431.578, 262.410 429.033, 264.168 426.440, 265.968 423.842, 267.774 421.280, 269.546 418.799, 271.246 416.443, 272.835 414.258, 274.271 412.290, 275.514 410.295, 276.697 408.112, 277.920 405.771, 279.180 403.300, 280.471 400.731, 281.791 398.096, 283.135 395.426, 284.498 392.755, 285.875 390.117, 287.261 387.547, 288.650 385.082, 290.037 382.759, 291.414 382.346, 291.722 381.931, 292.140 381.519, 292.658 381.120, 293.268 380.743, 293.958 380.395, 294.720 380.085, 295.543 379.822, 296.418 379.613, 297.335 379.467, 298.283 379.393, 299.252 379.399, 300.233 379.491, 301.479 379.637, 302.598 379.835, 303.593 380.084, 304.467 380.383, 305.221 380.730, 305.858 381.123, 306.381 381.561, 306.792 382.043, 307.094 382.567, 307.289 383.132, 307.381 393.055, 308.616 393.407, 308.660 403.330, 309.896 413.254, 311.131 423.177, 312.367 430.015, 313.218 439.939, 314.454 449.862, 315.689 457.809, 316.679 466.521, 317.763 476.444, 318.999 486.367, 320.234 496.291, 321.470 506.214, 322.705 516.137, 323.941 526.061, 325.176 532.383, 325.964 " />
            <path fill="none" stroke-width="3.0" stroke-linecap="butt" stroke-opacity="1.0" stroke="rgb(0, 0, 0)" stroke-linejoin="miter" d=" M 637.792, 228.799 627.841, 227.811 617.890, 226.822 607.938, 225.834 597.987, 224.846 588.036, 223.858 578.085, 222.869 568.134, 221.881 558.183, 220.893 548.232, 219.905 538.281, 218.916 528.330, 217.928 518.379, 216.940 507.864, 215.896 507.413, 215.895 506.945, 215.983 506.468, 216.156 505.990, 216.409 503.051, 218.231 500.234, 220.019 497.521, 221.776 494.893, 223.506 492.329, 225.213 489.811, 226.901 487.317, 228.576 484.825, 230.242 482.314, 231.905 479.759, 233.570 477.139, 235.244 474.427, 236.932 465.905, 242.164 462.699, 244.132 462.363, 244.389 462.022, 244.745 461.683, 245.193 461.353, 245.725 461.039, 246.332 460.746, 247.006 460.484, 247.738 460.257, 248.520 460.074, 249.343 459.941, 250.198 459.865, 251.077 459.852, 251.971 459.905, 253.113 460.002, 254.142 460.144, 255.061 460.328, 255.872 460.555, 256.578 460.822, 257.180 461.128, 257.680 461.472, 258.082 461.854, 258.386 461.905, 258.412 " />
            <path fill="none" stroke-width="3.0" stroke-linecap="butt" stroke-opacity="1.0" stroke="rgb(0, 0, 0)" stroke-linejoin="miter" d=" M 393.407, 308.660 393.544, 308.748 394.716, 310.024 395.680, 311.709 396.457, 313.835 397.069, 316.435 397.536, 319.540 397.881, 323.183 398.123, 327.395 398.562, 337.385 399.001, 347.376 399.440, 357.366 399.879, 367.357 400.318, 377.347 400.757, 387.337 401.196, 397.328 401.635, 407.318 402.074, 417.308 402.513, 427.299 402.952, 437.289 403.391, 447.279 403.830, 457.270 404.269, 467.260 404.708, 477.251 405.147, 487.241 405.586, 497.231 406.020, 507.114 406.141, 510.756 406.155, 514.055 406.043, 517.069 405.786, 519.854 405.365, 522.468 404.760, 524.966 403.952, 527.404 402.919, 529.839 401.641, 532.328 400.097, 534.927 398.263, 537.695 396.117, 540.690 395.420, 541.665 394.780, 542.654 394.198, 543.655 393.678, 544.670 393.219, 545.697 392.825, 546.736 392.495, 547.788 392.232, 548.852 392.038, 549.928 391.913, 551.015 391.859, 552.113 391.877, 553.222 391.978, 554.000 392.190, 554.659 392.498, 555.203 392.889, 555.630 393.350, 555.941 393.866, 556.139 403.700, 557.952 413.534, 559.765 423.369, 561.578 433.203, 563.391 443.037, 565.204 452.871, 567.017 462.706, 568.830 472.540, 570.643 482.374, 572.456 492.208, 574.269 502.043, 576.082 511.877, 577.896 521.711, 579.709 531.939, 581.594 " />
            <path fill="none" stroke-width="3.0" stroke-linecap="butt" stroke-opacity="1.0" stroke="rgb(0, 0, 0)" stroke-linejoin="miter" d=" M 569.648, 510.762 579.512, 512.403 589.128, 514.002 " />
            <path fill="none" stroke-width="3.0" stroke-linecap="butt" stroke-opacity="1.0" stroke="rgb(0, 0, 0)" stroke-linejoin="miter" d=" M 582.802, 271.991 592.741, 273.090 599.409, 273.827 " />
        </g>
    </g>
</svg>
