<?xml version='1.0' encoding='ascii'?>
<svg xmlns="http://www.w3.org/2000/svg" version="1.1" width="1080" height="1080">
    <g id="View Layer_LineSet" xmlns:inkscape="http://www.inkscape.org/namespaces/inkscape" inkscape:groupmode="lineset" inkscape:label="View Layer_LineSet">
        <g xmlns:inkscape="http://www.inkscape.org/namespaces/inkscape" inkscape:groupmode="layer" id="strokes" inkscape:label="strokes">
            <path fill="none" stroke-width="3.0" stroke-linecap="butt" stroke-opacity="1.0" stroke="rgb(0, 0, 0)" stroke-linejoin="miter" d=" M 566.604, 410.553 566.444, 410.485 566.298, 410.321 566.166, 410.055 566.051, 409.679 565.954, 409.189 565.878, 408.578 565.824, 407.840 565.793, 406.968 565.789, 405.956 565.870, 395.956 565.952, 385.957 566.034, 375.957 566.116, 365.957 566.198, 355.958 566.280, 345.958 566.362, 335.958 566.443, 325.959 566.474, 322.197 566.536, 318.244 566.666, 314.653 566.879, 311.367 567.192, 308.326 567.621, 305.473 568.182, 302.749 568.891, 300.093 569.763, 297.448 570.813, 294.754 572.055, 291.954 573.502, 288.990 575.168, 285.806 575.543, 285.041 575.891, 284.290 576.209, 283.540 576.499, 282.778 576.759, 281.993 576.989, 281.172 577.188, 280.303 577.355, 279.373 577.489, 278.370 577.591, 277.282 577.658, 276.095 577.691, 274.798 577.687, 273.811 577.651, 272.939 577.584, 272.181 577.486, 271.537 577.359, 271.005 577.203, 270.584 577.185, 270.553 577.047, 270.321 577.020, 270.275 576.810, 270.076 576.573, 269.987 576.312, 270.008 576.026, 270.136 575.923, 270.215 575.716, 270.373 575.677, 270.410 574.282, 271.704 572.697, 273.229 570.988, 274.914 569.185, 276.720 567.316, 278.611 565.411, 280.547 563.501, 282.489 561.618, 284.397 559.794, 286.228 558.062, 287.941 556.457, 289.492 555.012, 290.838 553.550, 292.123 551.952, 293.455 550.239, 294.831 548.432, 296.245 546.554, 297.692 544.626, 299.167 542.673, 300.663 540.717, 302.174 538.785, 303.693 536.900, 305.214 535.090, 306.729 533.381, 308.231 533.075, 308.562 532.764, 309.007 532.452, 309.556 532.147, 310.198 531.854, 310.923 531.580, 311.720 531.331, 312.580 531.114, 313.491 530.935, 314.442 530.799, 315.424 530.715, 316.426 530.687, 317.436 530.713, 318.716 530.781, 319.865 530.891, 320.883 531.041, 321.773 531.231, 322.539 531.459, 323.183 531.647, 323.555 531.724, 323.707 532.025, 324.114 532.360, 324.408 532.729, 324.590 533.131, 324.664 533.563, 324.632 535.413, 324.245 537.018, 324.125 " />
            <path fill="none" stroke-width="3.0" stroke-linecap="butt" stroke-opacity="1.0" stroke="rgb(0, 0, 0)" stroke-linejoin="miter" d=" M 615.826, 449.902 614.890, 449.611 614.028, 449.123 613.233, 448.453 612.910, 448.085 612.497, 447.614 611.811, 446.620 611.165, 445.486 610.550, 444.224 609.958, 442.850 609.379, 441.377 605.853, 432.020 602.327, 422.662 598.801, 413.304 595.275, 403.947 591.749, 394.589 588.223, 385.231 584.448, 375.214 584.189, 374.454 583.979, 373.626 583.820, 372.735 583.709, 371.788 583.649, 370.789 583.639, 369.744 583.678, 368.659 583.768, 367.540 583.907, 366.392 584.096, 365.221 584.334, 364.032 584.621, 362.832 586.445, 355.638 588.234, 348.446 589.994, 341.277 591.730, 334.149 593.447, 327.085 595.150, 320.104 596.844, 313.229 598.534, 306.481 600.224, 299.881 601.918, 293.453 603.621, 287.219 605.336, 281.202 606.455, 277.462 607.618, 273.766 608.830, 270.122 610.095, 266.542 611.420, 263.035 612.809, 259.613 614.266, 256.285 615.795, 253.063 617.402, 249.955 619.089, 246.974 620.860, 244.130 622.719, 241.431 623.054, 240.899 623.409, 240.283 623.773, 239.587 624.139, 238.816 624.497, 237.974 624.840, 237.066 625.159, 236.095 625.444, 235.065 625.689, 233.980 625.883, 232.844 626.019, 231.661 626.087, 230.433 626.082, 229.539 626.018, 228.776 625.902, 228.138 625.739, 227.621 625.534, 227.219 625.292, 226.928 625.020, 226.743 624.723, 226.659 624.405, 226.672 624.072, 226.776 623.730, 226.967 623.385, 227.240 621.254, 229.190 619.209, 231.103 617.238, 232.982 615.327, 234.831 613.462, 236.655 611.629, 238.460 609.812, 240.250 607.997, 242.032 606.168, 243.812 604.307, 245.596 602.399, 247.392 600.426, 249.205 593.019, 255.924 591.884, 256.954 591.638, 257.227 591.385, 257.604 591.130, 258.074 590.878, 258.630 590.635, 259.263 590.406, 259.963 590.196, 260.722 590.010, 261.531 589.854, 262.380 589.731, 263.262 589.648, 264.165 589.611, 265.082 589.610, 266.251 589.646, 267.303 589.716, 268.241 589.821, 269.067 589.958, 269.782 590.128, 270.391 590.328, 270.894 590.560, 271.294 590.820, 271.594 590.871, 271.630 591.109, 271.796 591.425, 271.902 591.767, 271.914 592.645, 271.823 593.438, 271.873 " />
            <path fill="none" stroke-width="3.0" stroke-linecap="butt" stroke-opacity="1.0" stroke="rgb(0, 0, 0)" stroke-linejoin="miter" d=" M 537.018, 324.125 538.397, 324.305 539.565, 324.816 540.540, 325.690 541.337, 326.960 541.972, 328.659 542.458, 330.818 542.811, 333.470 543.045, 336.648 543.173, 340.382 543.210, 344.706 543.200, 354.706 543.190, 364.706 543.180, 374.706 543.170, 384.706 543.160, 394.706 543.150, 404.706 543.147, 407.672 543.137, 417.672 543.134, 420.523 543.124, 430.523 543.115, 439.073 543.114, 440.493 543.104, 450.493 543.094, 460.493 543.084, 470.493 543.074, 480.493 543.064, 490.493 543.054, 500.493 543.049, 505.797 543.046, 508.760 543.044, 510.804 543.034, 520.804 543.026, 528.930 542.994, 532.658 542.897, 536.040 542.720, 539.136 542.446, 542.005 542.061, 544.707 541.549, 547.299 540.893, 549.841 540.077, 552.391 539.084, 555.010 537.897, 557.756 536.498, 560.691 534.869, 563.876 534.339, 564.913 533.849, 565.961 533.402, 567.019 532.997, 568.087 532.636, 569.165 532.320, 570.253 532.051, 571.349 531.829, 572.454 531.655, 573.568 531.530, 574.690 531.456, 575.820 531.434, 576.957 531.481, 577.748 531.610, 578.414 531.813, 578.954 532.079, 579.371 532.398, 579.666 532.761, 579.840 533.157, 579.896 533.577, 579.835 534.011, 579.658 534.450, 579.368 534.885, 578.966 535.305, 578.453 537.548, 575.275 539.583, 572.256 541.435, 569.386 543.131, 566.658 544.693, 564.064 546.147, 561.597 547.514, 559.252 548.818, 557.022 550.079, 554.903 551.320, 552.890 552.562, 550.980 553.825, 549.169 555.074, 547.506 556.332, 545.931 557.610, 544.410 558.916, 542.909 560.261, 541.393 561.653, 539.830 563.102, 538.187 564.617, 536.430 566.207, 534.529 567.880, 532.451 569.644, 530.167 571.508, 527.646 571.901, 527.051 572.298, 526.354 572.691, 525.569 573.073, 524.711 573.438, 523.795 573.778, 522.835 574.086, 521.846 574.356, 520.841 574.580, 519.836 574.752, 518.845 574.864, 517.881 574.910, 516.960 574.891, 515.903 574.813, 515.048 574.681, 514.377 574.500, 513.871 574.276, 513.510 574.016, 513.276 573.725, 513.149 566.202, 512.073 " />
            <path fill="none" stroke-width="3.0" stroke-linecap="butt" stroke-opacity="1.0" stroke="rgb(0, 0, 0)" stroke-linejoin="miter" d=" M 593.438, 271.873 594.150, 272.061 594.780, 272.384 595.330, 272.841 595.801, 273.428 596.193, 274.145 596.508, 274.989 596.747, 275.959 596.910, 277.051 596.997, 278.266 597.010, 279.602 596.975, 280.525 596.903, 281.502 596.795, 282.532 596.654, 283.614 596.482, 284.748 596.281, 285.933 596.052, 287.170 595.798, 288.458 595.521, 289.796 595.222, 291.183 594.904, 292.620 594.568, 294.106 592.346, 303.856 590.123, 313.606 587.901, 323.356 585.679, 333.106 583.456, 342.856 581.234, 352.606 579.012, 362.356 576.790, 372.106 574.567, 381.856 572.345, 391.606 570.229, 400.890 569.887, 402.127 569.569, 403.284 569.273, 404.361 568.995, 405.356 568.734, 406.268 568.486, 407.097 568.250, 407.841 568.021, 408.498 567.799, 409.068 567.580, 409.550 567.362, 409.942 567.141, 410.244 566.954, 410.426 566.774, 410.532 566.604, 410.553 " />
            <path fill="none" stroke-width="3.0" stroke-linecap="butt" stroke-opacity="1.0" stroke="rgb(0, 0, 0)" stroke-linejoin="miter" d=" M 568.352, 514.435 567.525, 514.141 566.864, 513.523 566.350, 512.570 566.202, 512.073 565.964, 511.274 565.688, 509.625 565.631, 509.014 565.500, 507.616 565.381, 505.236 565.311, 502.476 565.270, 499.325 565.230, 493.870 565.205, 488.388 565.192, 482.878 565.190, 477.340 565.200, 471.773 565.218, 466.175 565.244, 460.547 565.277, 454.887 565.315, 449.195 565.358, 443.468 565.359, 443.372 565.370, 441.947 565.403, 437.706 565.450, 431.908 565.472, 430.874 565.517, 429.906 565.584, 429.005 565.672, 428.171 565.778, 427.407 565.902, 426.712 566.040, 426.087 566.192, 425.534 566.355, 425.052 566.529, 424.644 566.710, 424.309 566.897, 424.048 567.121, 423.825 567.349, 423.678 567.581, 423.609 567.818, 423.618 " />
            <path fill="none" stroke-width="3.0" stroke-linecap="butt" stroke-opacity="1.0" stroke="rgb(0, 0, 0)" stroke-linejoin="miter" d=" M 567.818, 423.618 568.058, 423.707 568.303, 423.878 568.553, 424.131 568.806, 424.467 569.063, 424.888 569.324, 425.394 569.589, 425.988 569.858, 426.669 573.506, 435.980 576.401, 443.371 576.991, 444.877 580.638, 454.188 584.285, 463.499 587.181, 470.892 587.465, 471.646 587.725, 472.402 587.961, 473.162 588.172, 473.927 588.357, 474.700 588.517, 475.481 588.651, 476.274 588.759, 477.081 588.841, 477.902 588.896, 478.739 588.923, 479.596 588.923, 480.473 588.848, 481.681 588.716, 482.920 588.523, 484.194 588.270, 485.504 587.952, 486.852 587.569, 488.240 587.117, 489.670 586.595, 491.145 586.001, 492.666 585.331, 494.235 584.583, 495.856 583.755, 497.530 583.419, 498.278 583.105, 499.054 582.816, 499.857 582.553, 500.688 582.315, 501.547 582.105, 502.434 581.923, 503.348 581.769, 504.289 581.645, 505.259 581.551, 506.255 581.488, 507.279 581.458, 508.330 581.470, 509.073 581.527, 509.709 581.623, 510.239 581.753, 510.667 581.913, 510.997 582.097, 511.230 582.301, 511.370 582.520, 511.420 582.750, 511.384 582.985, 511.264 583.221, 511.063 583.454, 510.785 584.778, 508.921 586.065, 507.049 587.323, 505.169 588.560, 503.285 589.782, 501.397 590.996, 499.510 592.210, 497.625 593.429, 495.745 594.660, 493.872 595.909, 492.010 597.184, 490.161 598.489, 488.328 600.206, 486.009 601.900, 483.800 603.573, 481.684 605.227, 479.642 606.861, 477.658 608.476, 475.713 610.075, 473.790 611.657, 471.871 613.224, 469.941 614.776, 467.981 616.316, 465.976 617.843, 463.908 618.489, 462.961 619.083, 461.987 619.623, 460.993 620.110, 459.987 620.544, 458.974 620.924, 457.963 621.250, 456.960 621.521, 455.972 621.738, 455.007 621.900, 454.070 622.006, 453.170 622.056, 452.313 622.046, 451.342 621.963, 450.579 621.818, 450.001 621.619, 449.587 621.374, 449.314 621.094, 449.160 620.787, 449.102 612.910, 448.085 " />
            <path fill="none" stroke-width="3.0" stroke-linecap="butt" stroke-opacity="1.0" stroke="rgb(0, 0, 0)" stroke-linejoin="miter" d=" M 620.787, 449.102 620.462, 449.117 620.129, 449.184 619.797, 449.280 619.474, 449.382 619.171, 449.467 617.959, 449.843 616.847, 449.984 615.826, 449.902 " />
            <path fill="none" stroke-width="3.0" stroke-linecap="butt" stroke-opacity="1.0" stroke="rgb(0, 0, 0)" stroke-linejoin="miter" d=" M 573.725, 513.149 573.409, 513.111 573.074, 513.144 572.725, 513.227 572.369, 513.342 572.011, 513.469 570.578, 514.089 569.364, 514.414 568.352, 514.435 " />
            <path fill="none" stroke-width="3.0" stroke-linecap="butt" stroke-opacity="1.0" stroke="rgb(0, 0, 0)" stroke-linejoin="miter" d=" M 576.573, 269.987 566.618, 269.045 556.662, 268.103 546.707, 267.161 536.751, 266.219 526.796, 265.277 516.840, 264.335 506.885, 263.393 496.929, 262.451 486.974, 261.508 477.018, 260.566 473.877, 260.269 463.922, 259.327 453.966, 258.385 451.627, 258.164 441.671, 257.221 433.669, 256.464 433.335, 256.476 432.976, 256.594 432.591, 256.816 430.821, 258.073 428.867, 259.515 426.763, 261.109 424.544, 262.819 422.245, 264.608 419.903, 266.441 417.556, 268.279 415.241, 270.083 412.999, 271.815 410.870, 273.433 408.894, 274.898 407.115, 276.166 405.311, 277.375 403.336, 278.626 401.216, 279.915 398.980, 281.238 396.654, 282.591 394.268, 283.969 391.850, 285.367 389.431, 286.779 387.042, 288.200 384.714, 289.624 382.482, 291.044 380.377, 292.453 380.004, 292.766 379.628, 293.190 379.257, 293.715 378.897, 294.331 378.558, 295.027 378.246, 295.795 377.968, 296.625 377.733, 297.505 377.548, 298.426 377.421, 299.378 377.359, 300.351 377.369, 301.334 377.459, 302.582 377.598, 303.702 377.783, 304.697 378.014, 305.570 378.290, 306.322 378.608, 306.956 378.968, 307.475 379.369, 307.882 379.808, 308.178 380.286, 308.368 380.799, 308.452 389.872, 309.418 399.816, 310.476 409.760, 311.534 419.704, 312.593 423.366, 312.982 433.310, 314.041 443.254, 315.099 448.879, 315.698 456.829, 316.544 466.773, 317.602 476.717, 318.660 486.661, 319.718 496.605, 320.777 506.549, 321.835 516.492, 322.893 526.436, 323.951 533.131, 324.664 " />
            <path fill="none" stroke-width="3.0" stroke-linecap="butt" stroke-opacity="1.0" stroke="rgb(0, 0, 0)" stroke-linejoin="miter" d=" M 624.723, 226.659 614.759, 225.810 604.795, 224.961 594.831, 224.112 584.867, 223.263 574.903, 222.414 564.939, 221.565 554.975, 220.716 545.011, 219.868 535.047, 219.019 525.083, 218.170 515.120, 217.321 505.156, 216.472 495.192, 215.623 493.338, 215.465 492.931, 215.469 492.509, 215.562 492.079, 215.740 491.648, 215.998 489.002, 217.849 486.466, 219.665 484.024, 221.449 481.657, 223.205 479.349, 224.939 477.082, 226.653 474.835, 228.354 472.591, 230.046 470.328, 231.735 468.026, 233.428 465.664, 235.129 463.220, 236.847 455.001, 242.543 452.643, 244.177 452.341, 244.437 452.034, 244.798 451.729, 245.250 451.433, 245.786 451.152, 246.396 450.891, 247.074 450.657, 247.809 450.456, 248.594 450.294, 249.419 450.178, 250.276 450.114, 251.156 450.107, 252.051 450.160, 253.192 450.254, 254.221 450.387, 255.139 450.559, 255.948 450.767, 256.651 451.012, 257.250 451.292, 257.748 451.606, 258.145 451.627, 258.164 " />
            <path fill="none" stroke-width="3.0" stroke-linecap="butt" stroke-opacity="1.0" stroke="rgb(0, 0, 0)" stroke-linejoin="miter" d=" M 389.872, 309.418 390.267, 309.691 391.339, 310.955 392.223, 312.631 392.940, 314.751 393.509, 317.349 393.950, 320.455 394.282, 324.101 394.524, 328.318 394.975, 338.308 395.425, 348.297 395.875, 358.287 396.325, 368.277 396.775, 378.267 397.226, 388.257 397.676, 398.247 398.126, 408.237 398.576, 418.226 399.026, 428.216 399.477, 438.206 399.927, 448.196 400.377, 458.186 400.827, 468.176 401.277, 478.166 401.728, 488.155 402.178, 498.145 402.634, 508.279 402.763, 511.925 402.793, 515.231 402.708, 518.253 402.489, 521.049 402.120, 523.675 401.584, 526.189 400.863, 528.647 399.938, 531.106 398.790, 533.623 397.401, 536.256 395.750, 539.064 393.817, 542.105 393.188, 543.095 392.612, 544.098 392.089, 545.112 391.622, 546.139 391.210, 547.177 390.857, 548.226 390.563, 549.287 390.330, 550.358 390.159, 551.440 390.051, 552.532 390.008, 553.634 390.030, 554.745 390.126, 555.522 390.322, 556.180 390.605, 556.719 390.962, 557.139 391.382, 557.443 391.852, 557.631 401.730, 559.188 411.608, 560.745 421.486, 562.302 431.365, 563.859 441.243, 565.416 451.121, 566.973 460.999, 568.530 470.877, 570.087 480.755, 571.644 490.633, 573.201 500.511, 574.757 510.389, 576.314 520.267, 577.871 530.145, 579.428 532.761, 579.840 " />
            <path fill="none" stroke-width="3.0" stroke-linecap="butt" stroke-opacity="1.0" stroke="rgb(0, 0, 0)" stroke-linejoin="miter" d=" M 565.631, 509.014 575.531, 510.425 582.520, 511.420 " />
            <path fill="none" stroke-width="3.0" stroke-linecap="butt" stroke-opacity="1.0" stroke="rgb(0, 0, 0)" stroke-linejoin="miter" d=" M 577.185, 270.553 587.140, 271.496 591.425, 271.902 " />
        </g>
    </g>
</svg>
