<?xml version='1.0' encoding='ascii'?>
<svg xmlns="http://www.w3.org/2000/svg" version="1.1" width="1080" height="1080">
    <g id="View Layer_LineSet" xmlns:inkscape="http://www.inkscape.org/namespaces/inkscape" inkscape:groupmode="lineset" inkscape:label="View Layer_LineSet">
        <g xmlns:inkscape="http://www.inkscape.org/namespaces/inkscape" inkscape:groupmode="layer" id="strokes" inkscape:label="strokes">
            <path fill="none" stroke-width="3.0" stroke-linecap="butt" stroke-opacity="1.0" stroke="rgb(0, 0, 0)" stroke-linejoin="miter" d=" M 541.787, 401.794 541.749, 401.733 541.714, 401.576 541.683, 401.318 541.655, 400.952 541.632, 400.472 541.613, 399.871 541.599, 399.143 541.591, 398.282 541.588, 397.283 541.593, 387.283 541.598, 377.283 541.603, 367.283 541.608, 357.283 541.613, 347.283 541.618, 337.283 541.623, 327.283 541.628, 317.283 541.630, 314.515 541.639, 310.609 541.664, 307.059 541.710, 303.807 541.779, 300.794 541.876, 297.964 542.004, 295.255 542.167, 292.611 542.369, 289.971 542.612, 287.279 542.901, 284.476 543.237, 281.505 543.624, 278.311 543.711, 277.545 543.792, 276.793 543.866, 276.043 543.933, 275.283 543.993, 274.500 544.046, 273.683 544.091, 272.820 544.129, 271.897 544.160, 270.904 544.182, 269.827 544.196, 268.654 544.202, 267.373 544.200, 266.400 544.190, 265.541 544.173, 264.796 544.149, 264.163 544.141, 264.033 544.134, 263.913 544.118, 263.642 544.081, 263.232 544.038, 262.932 543.988, 262.742 543.932, 262.662 543.871, 262.690 543.804, 262.826 543.731, 263.069 543.525, 263.900 543.496, 264.020 543.396, 264.425 543.025, 265.978 542.625, 267.693 542.203, 269.531 541.766, 271.454 541.320, 273.424 540.872, 275.401 540.431, 277.344 540.004, 279.209 539.598, 280.956 539.222, 282.538 538.883, 283.913 538.540, 285.229 538.165, 286.597 537.762, 288.011 537.338, 289.467 536.896, 290.957 536.443, 292.477 535.984, 294.019 535.524, 295.577 535.069, 297.143 534.626, 298.709 534.200, 300.267 533.797, 301.808 533.726, 302.146 533.653, 302.597 533.580, 303.150 533.508, 303.796 533.440, 304.523 533.376, 305.321 533.319, 306.180 533.268, 307.089 533.227, 308.036 533.197, 309.013 533.178, 310.007 533.173, 311.007 533.181, 312.274 533.199, 313.408 533.226, 314.412 533.263, 315.289 533.309, 316.040 533.364, 316.670 533.427, 317.180 533.465, 317.387 533.499, 317.573 533.579, 317.852 533.666, 318.020 533.761, 318.079 533.864, 318.032 534.301, 317.587 534.680, 317.414 " />
            <path fill="none" stroke-width="3.0" stroke-linecap="butt" stroke-opacity="1.0" stroke="rgb(0, 0, 0)" stroke-linejoin="miter" d=" M 553.646, 438.673 553.407, 438.635 553.187, 438.387 552.985, 437.942 552.881, 437.594 552.798, 437.315 552.624, 436.519 552.462, 435.568 552.309, 434.476 552.163, 433.258 552.022, 431.928 551.884, 430.500 550.963, 420.542 550.041, 410.585 549.120, 400.628 548.199, 390.670 547.277, 380.713 546.356, 370.755 545.936, 366.217 545.874, 365.476 545.823, 364.667 545.784, 363.794 545.757, 362.863 545.742, 361.880 545.738, 360.849 545.745, 359.777 545.765, 358.669 545.796, 357.531 545.838, 356.369 545.893, 355.188 545.959, 353.993 546.377, 346.830 546.787, 339.673 547.190, 332.540 547.587, 325.452 547.980, 318.429 548.370, 311.491 548.757, 304.658 549.144, 297.953 549.530, 291.396 549.918, 285.010 550.308, 278.816 550.702, 272.837 550.958, 269.120 551.226, 265.445 551.504, 261.822 551.795, 258.260 552.100, 254.769 552.420, 251.360 552.757, 248.042 553.110, 244.827 553.481, 241.724 553.872, 238.743 554.282, 235.895 554.712, 233.189 554.790, 232.656 554.872, 232.040 554.956, 231.345 555.040, 230.577 555.123, 229.740 555.202, 228.837 555.275, 227.873 555.340, 226.853 555.395, 225.780 555.439, 224.658 555.469, 223.490 555.483, 222.282 555.481, 221.403 555.465, 220.655 555.437, 220.031 555.398, 219.527 555.349, 219.137 555.292, 218.858 555.229, 218.683 555.159, 218.609 555.085, 218.630 555.007, 218.741 554.927, 218.939 554.847, 219.217 554.352, 221.193 553.876, 223.130 553.418, 225.032 552.973, 226.904 552.540, 228.751 552.113, 230.578 551.690, 232.391 551.268, 234.196 550.842, 236.000 550.409, 237.809 549.964, 239.632 549.504, 241.474 547.511, 249.356 547.454, 249.633 547.395, 250.011 547.336, 250.482 547.277, 251.037 547.221, 251.668 547.169, 252.365 547.120, 253.119 547.078, 253.921 547.042, 254.763 547.015, 255.636 546.997, 256.529 546.989, 257.434 546.991, 258.586 547.001, 259.622 547.018, 260.544 547.044, 261.354 547.078, 262.056 547.118, 262.650 547.166, 263.140 547.221, 263.528 547.283, 263.815 547.341, 263.979 547.351, 264.005 547.425, 264.100 547.505, 264.102 547.711, 263.986 " />
            <path fill="none" stroke-width="3.0" stroke-linecap="butt" stroke-opacity="1.0" stroke="rgb(0, 0, 0)" stroke-linejoin="miter" d=" M 547.711, 263.986 547.898, 264.011 548.065, 264.174 548.213, 264.474 548.343, 264.907 548.454, 265.472 548.547, 266.166 548.623, 266.988 548.680, 267.936 548.720, 269.008 548.742, 270.202 548.747, 271.517 548.740, 272.428 548.725, 273.393 548.701, 274.411 548.669, 275.481 548.631, 276.604 548.585, 277.778 548.533, 279.004 548.476, 280.281 548.412, 281.608 548.344, 282.985 548.272, 284.411 548.195, 285.886 547.672, 295.872 547.148, 305.859 546.625, 315.845 546.101, 325.831 545.578, 335.817 545.054, 345.804 544.531, 355.790 544.007, 365.776 543.484, 375.763 542.960, 385.749 542.627, 392.105 542.548, 393.340 542.475, 394.495 542.407, 395.571 542.343, 396.565 542.283, 397.477 542.225, 398.305 542.171, 399.049 542.118, 399.707 542.066, 400.279 542.015, 400.764 541.965, 401.160 541.913, 401.467 541.869, 401.655 541.827, 401.766 541.787, 401.794 " />
            <path fill="none" stroke-width="3.0" stroke-linecap="butt" stroke-opacity="1.0" stroke="rgb(0, 0, 0)" stroke-linejoin="miter" d=" M 534.680, 317.414 535.006, 317.546 535.283, 318.011 535.515, 318.843 535.705, 320.073 535.858, 321.731 535.976, 323.850 536.063, 326.461 536.122, 329.596 536.158, 333.286 536.173, 337.561 536.185, 347.561 536.197, 357.561 536.208, 367.561 536.220, 377.561 536.232, 387.561 536.244, 397.561 536.249, 401.647 536.261, 411.647 536.264, 414.499 536.276, 424.499 536.288, 434.499 536.291, 437.128 536.292, 438.185 536.304, 448.185 536.316, 458.185 536.328, 468.185 536.340, 478.185 536.352, 488.185 536.364, 498.185 536.367, 500.497 536.369, 502.650 536.371, 504.227 536.383, 514.227 536.390, 519.935 536.387, 523.630 536.369, 526.985 536.332, 530.061 536.271, 532.917 536.184, 535.611 536.066, 538.205 535.915, 540.755 535.725, 543.322 535.494, 545.966 535.217, 548.745 534.890, 551.723 534.509, 554.960 534.385, 556.015 534.271, 557.078 534.166, 558.150 534.072, 559.229 533.988, 560.316 533.915, 561.410 533.852, 562.510 533.801, 563.618 533.762, 564.731 533.734, 565.850 533.718, 566.974 533.714, 568.102 533.726, 568.885 533.758, 569.539 533.807, 570.065 533.870, 570.465 533.946, 570.741 534.032, 570.896 534.126, 570.931 534.226, 570.849 534.328, 570.652 534.432, 570.342 534.534, 569.922 534.633, 569.392 535.159, 566.129 535.636, 563.034 536.071, 560.098 536.468, 557.311 536.834, 554.664 537.174, 552.148 537.494, 549.757 537.799, 547.485 538.094, 545.325 538.384, 543.272 538.675, 541.320 538.970, 539.466 539.263, 537.759 539.558, 536.140 539.857, 534.573 540.163, 533.024 540.478, 531.460 540.805, 529.847 541.144, 528.152 541.499, 526.342 541.871, 524.386 542.262, 522.252 542.675, 519.910 543.110, 517.330 543.202, 516.724 543.295, 516.016 543.386, 515.222 543.475, 514.356 543.560, 513.433 543.638, 512.468 543.709, 511.475 543.771, 510.470 543.823, 509.466 543.862, 508.478 543.887, 507.520 543.896, 506.607 543.891, 505.564 543.871, 504.722 543.839, 504.065 543.795, 503.573 543.742, 503.226 543.681, 503.006 543.612, 502.895 543.537, 502.872 541.895, 502.821 " />
            <path fill="none" stroke-width="3.0" stroke-linecap="butt" stroke-opacity="1.0" stroke="rgb(0, 0, 0)" stroke-linejoin="miter" d=" M 542.348, 504.413 542.152, 504.160 541.996, 503.578 541.895, 502.821 541.873, 502.659 541.781, 501.395 541.750, 500.663 541.713, 499.778 541.666, 497.799 541.634, 495.450 541.614, 492.724 541.600, 489.609 541.583, 484.216 541.569, 478.796 541.558, 473.348 541.549, 467.872 541.544, 462.367 541.540, 456.831 541.538, 451.266 541.538, 445.669 541.539, 440.039 541.539, 438.333 541.539, 437.275 541.540, 434.376 541.543, 428.679 541.546, 422.945 541.549, 421.922 541.558, 420.964 541.573, 420.070 541.593, 419.243 541.617, 418.483 541.645, 417.791 541.676, 417.168 541.711, 416.615 541.749, 416.133 541.789, 415.722 541.831, 415.383 541.875, 415.118 541.928, 414.889 541.981, 414.735 542.036, 414.657 542.092, 414.657 " />
            <path fill="none" stroke-width="3.0" stroke-linecap="butt" stroke-opacity="1.0" stroke="rgb(0, 0, 0)" stroke-linejoin="miter" d=" M 542.092, 414.657 542.148, 414.735 542.206, 414.894 542.266, 415.134 542.326, 415.456 542.387, 415.861 542.449, 416.351 542.512, 416.927 542.577, 417.589 543.536, 427.543 544.482, 437.358 544.584, 438.418 545.543, 448.372 546.503, 458.326 546.717, 460.549 546.785, 461.282 546.847, 462.017 546.904, 462.757 546.954, 463.503 546.999, 464.258 547.038, 465.023 547.070, 465.800 547.097, 466.591 547.117, 467.398 547.131, 468.223 547.139, 469.068 547.140, 469.934 547.124, 471.129 547.095, 472.359 547.052, 473.625 546.994, 474.930 546.921, 476.275 546.833, 477.662 546.729, 479.095 546.609, 480.574 546.471, 482.102 546.316, 483.682 546.142, 485.316 545.950, 487.007 545.872, 487.761 545.799, 488.541 545.732, 489.348 545.672, 490.181 545.617, 491.040 545.569, 491.925 545.527, 492.836 545.493, 493.773 545.465, 494.737 545.444, 495.725 545.431, 496.740 545.425, 497.779 545.429, 498.513 545.443, 499.139 545.467, 499.658 545.498, 500.075 545.536, 500.393 545.580, 500.615 545.628, 500.745 545.680, 500.785 545.734, 500.738 545.789, 500.609 545.844, 500.400 545.898, 500.114 546.207, 498.213 546.507, 496.305 546.800, 494.391 547.088, 492.474 547.372, 490.556 547.655, 488.638 547.937, 486.722 548.221, 484.812 548.508, 482.909 548.798, 481.015 549.095, 479.134 549.399, 477.268 549.798, 474.904 550.192, 472.650 550.582, 470.490 550.967, 468.404 551.347, 466.376 551.723, 464.388 552.095, 462.423 552.463, 460.464 552.827, 458.494 553.188, 456.496 553.545, 454.454 553.900, 452.352 554.050, 451.391 554.188, 450.406 554.313, 449.404 554.425, 448.392 554.525, 447.377 554.612, 446.365 554.687, 445.363 554.749, 444.378 554.799, 443.418 554.835, 442.489 554.859, 441.598 554.869, 440.752 554.865, 439.795 554.845, 439.047 554.810, 438.485 554.763, 438.085 554.705, 437.826 554.639, 437.686 554.567, 437.641 552.881, 437.594 " />
            <path fill="none" stroke-width="3.0" stroke-linecap="butt" stroke-opacity="1.0" stroke="rgb(0, 0, 0)" stroke-linejoin="miter" d=" M 543.537, 502.872 543.458, 502.919 543.376, 503.017 543.293, 503.147 543.209, 503.289 542.872, 503.968 542.586, 504.346 542.348, 504.413 " />
            <path fill="none" stroke-width="3.0" stroke-linecap="butt" stroke-opacity="1.0" stroke="rgb(0, 0, 0)" stroke-linejoin="miter" d=" M 554.567, 437.641 554.491, 437.670 554.414, 437.750 554.336, 437.858 554.260, 437.972 554.190, 438.068 553.907, 438.489 553.646, 438.673 " />
            <path fill="none" stroke-width="3.0" stroke-linecap="butt" stroke-opacity="1.0" stroke="rgb(0, 0, 0)" stroke-linejoin="miter" d=" M 543.932, 262.662 533.934, 262.457 523.936, 262.253 513.938, 262.048 503.941, 261.843 493.943, 261.639 483.945, 261.434 473.947, 261.229 463.949, 261.025 453.951, 260.820 443.953, 260.615 433.955, 260.411 423.957, 260.206 413.959, 260.001 411.942, 259.960 401.944, 259.755 401.447, 259.745 393.659, 259.586 393.511, 259.612 393.354, 259.745 393.188, 259.984 392.435, 261.323 391.604, 262.856 390.711, 264.549 389.769, 266.364 388.794, 268.264 387.800, 270.209 386.803, 272.161 385.820, 274.079 384.867, 275.921 383.960, 277.645 383.118, 279.207 382.357, 280.563 381.584, 281.861 380.734, 283.209 379.821, 284.602 378.855, 286.036 377.850, 287.504 376.818, 289.000 375.772, 290.519 374.725, 292.053 373.692, 293.595 372.686, 295.137 371.722, 296.672 370.815, 298.192 370.657, 298.525 370.500, 298.971 370.348, 299.519 370.205, 300.158 370.073, 300.878 369.955, 301.670 369.855, 302.521 369.776, 303.423 369.720, 304.364 369.692, 305.333 369.693, 306.320 369.728, 307.315 369.806, 308.574 369.903, 309.702 370.017, 310.700 370.148, 311.573 370.295, 312.321 370.458, 312.949 370.636, 313.458 370.829, 313.851 371.037, 314.131 371.258, 314.301 371.492, 314.363 375.269, 314.449 385.266, 314.678 390.660, 314.802 400.657, 315.031 402.522, 315.073 406.155, 315.156 416.152, 315.385 426.149, 315.614 436.147, 315.843 446.144, 316.072 456.141, 316.301 466.139, 316.530 476.136, 316.759 486.134, 316.988 496.131, 317.217 506.128, 317.446 516.126, 317.675 526.123, 317.904 533.761, 318.079 " />
            <path fill="none" stroke-width="3.0" stroke-linecap="butt" stroke-opacity="1.0" stroke="rgb(0, 0, 0)" stroke-linejoin="miter" d=" M 555.159, 218.609 545.161, 218.424 535.162, 218.238 525.164, 218.053 515.166, 217.868 505.167, 217.682 495.169, 217.497 485.171, 217.312 475.173, 217.126 465.174, 216.941 455.176, 216.756 445.178, 216.570 435.179, 216.385 425.181, 216.200 418.962, 216.084 418.782, 216.103 418.598, 216.212 418.413, 216.406 418.230, 216.680 417.114, 218.633 416.046, 220.548 415.017, 222.428 414.021, 224.278 413.050, 226.103 412.095, 227.909 411.150, 229.701 410.204, 231.485 409.250, 233.267 408.278, 235.055 407.280, 236.855 406.245, 238.675 401.757, 246.458 401.630, 246.731 401.504, 247.106 401.382, 247.572 401.266, 248.123 401.159, 248.748 401.063, 249.440 400.981, 250.189 400.915, 250.986 400.868, 251.822 400.842, 252.689 400.840, 253.576 400.865, 254.476 400.923, 255.622 400.995, 256.653 401.083, 257.570 401.183, 258.377 401.298, 259.076 401.425, 259.668 401.447, 259.745 " />
            <path fill="none" stroke-width="3.0" stroke-linecap="butt" stroke-opacity="1.0" stroke="rgb(0, 0, 0)" stroke-linejoin="miter" d=" M 375.269, 314.449 375.797, 315.180 376.318, 316.409 376.767, 318.062 377.154, 320.173 377.489, 322.772 377.782, 325.891 378.042, 329.560 378.279, 333.811 378.780, 343.798 379.281, 353.786 379.782, 363.773 380.284, 373.761 380.785, 383.748 381.286, 393.735 381.787, 403.723 382.288, 413.710 382.790, 423.698 383.291, 433.685 383.792, 443.673 384.293, 453.660 384.794, 463.647 385.296, 473.635 385.797, 483.622 386.298, 493.610 386.799, 503.597 387.382, 515.209 387.550, 518.885 387.664, 522.222 387.717, 525.281 387.704, 528.120 387.618, 530.797 387.454, 533.372 387.204, 535.903 386.863, 538.448 386.424, 541.067 385.880, 543.820 385.224, 546.767 384.447, 549.970 384.194, 551.014 383.966, 552.066 383.761, 553.127 383.582, 554.196 383.429, 555.274 383.302, 556.359 383.202, 557.451 383.130, 558.550 383.085, 559.656 383.070, 560.768 383.084, 561.885 383.128, 563.008 383.195, 563.788 383.303, 564.440 383.446, 564.965 383.620, 565.366 383.818, 565.645 384.035, 565.803 384.265, 565.843 394.260, 566.182 404.254, 566.522 414.248, 566.861 424.242, 567.200 434.237, 567.540 444.231, 567.879 454.225, 568.218 464.219, 568.558 474.214, 568.897 484.208, 569.236 494.202, 569.576 504.196, 569.915 514.190, 570.254 524.185, 570.594 534.126, 570.931 " />
            <path fill="none" stroke-width="3.0" stroke-linecap="butt" stroke-opacity="1.0" stroke="rgb(0, 0, 0)" stroke-linejoin="miter" d=" M 541.750, 500.663 545.680, 500.785 " />
            <path fill="none" stroke-width="3.0" stroke-linecap="butt" stroke-opacity="1.0" stroke="rgb(0, 0, 0)" stroke-linejoin="miter" d=" M 544.141, 264.033 547.505, 264.102 " />
        </g>
    </g>
</svg>
