<?xml version='1.0' encoding='ascii'?>
<svg xmlns="http://www.w3.org/2000/svg" version="1.1" width="1080" height="1080">
    <g id="View Layer_LineSet" xmlns:inkscape="http://www.inkscape.org/namespaces/inkscape" inkscape:groupmode="lineset" inkscape:label="View Layer_LineSet">
        <g xmlns:inkscape="http://www.inkscape.org/namespaces/inkscape" inkscape:groupmode="layer" id="strokes" inkscape:label="strokes">
            <path fill="none" stroke-width="3.0" stroke-linecap="butt" stroke-opacity="1.0" stroke="rgb(0, 0, 0)" stroke-linejoin="miter" d=" M 536.160, 400.333 536.147, 400.272 536.135, 400.116 536.124, 399.858 536.113, 399.493 536.105, 399.013 536.097, 398.413 536.091, 397.687 536.087, 396.828 536.085, 395.830 536.073, 385.830 536.060, 375.830 536.048, 365.830 536.035, 355.830 536.023, 345.830 536.011, 335.830 535.998, 325.830 535.986, 315.830 535.983, 313.229 535.980, 309.331 535.984, 305.788 535.995, 302.543 536.015, 299.538 536.045, 296.713 536.086, 294.011 536.139, 291.372 536.205, 288.738 536.286, 286.052 536.382, 283.255 536.495, 280.292 536.625, 277.105 536.654, 276.341 536.681, 275.590 536.705, 274.842 536.728, 274.083 536.747, 273.303 536.765, 272.488 536.779, 271.626 536.791, 270.706 536.800, 269.714 536.806, 268.640 536.810, 267.470 536.810, 266.191 536.808, 265.220 536.803, 264.363 536.796, 263.619 536.787, 262.988 536.786, 262.926 536.783, 262.810 536.776, 262.468 536.762, 262.059 536.747, 261.760 536.729, 261.570 536.710, 261.490 536.688, 261.518 536.665, 261.653 536.640, 261.895 536.563, 262.809 536.553, 262.924 536.526, 263.248 536.399, 264.797 536.262, 266.507 536.118, 268.341 535.969, 270.259 535.817, 272.225 535.664, 274.196 535.514, 276.134 535.368, 277.995 535.229, 279.737 535.101, 281.315 534.985, 282.687 534.868, 283.999 534.739, 285.363 534.601, 286.774 534.456, 288.226 534.305, 289.712 534.149, 291.228 533.992, 292.766 533.834, 294.319 533.678, 295.881 533.526, 297.443 533.381, 298.997 533.243, 300.534 533.219, 300.872 533.194, 301.321 533.169, 301.873 533.145, 302.517 533.123, 303.242 533.102, 304.039 533.083, 304.896 533.067, 305.802 533.054, 306.748 533.045, 307.723 533.039, 308.714 533.039, 309.713 533.044, 310.977 533.051, 312.109 533.062, 313.110 533.076, 313.985 533.093, 314.735 533.113, 315.363 533.136, 315.872 533.151, 316.106 533.162, 316.265 533.190, 316.544 533.220, 316.711 533.253, 316.770 533.289, 316.724 533.440, 316.281 533.572, 316.109 " />
            <path fill="none" stroke-width="3.0" stroke-linecap="butt" stroke-opacity="1.0" stroke="rgb(0, 0, 0)" stroke-linejoin="miter" d=" M 540.334, 437.170 540.251, 437.132 540.174, 436.883 540.103, 436.439 540.071, 436.137 540.037, 435.813 539.976, 435.017 539.918, 434.068 539.863, 432.978 539.811, 431.761 539.760, 430.433 539.710, 429.008 539.374, 419.014 539.038, 409.019 538.702, 399.025 538.366, 389.031 538.030, 379.036 537.693, 369.042 537.552, 364.835 537.529, 364.096 537.511, 363.288 537.496, 362.417 537.485, 361.488 537.478, 360.506 537.476, 359.478 537.477, 358.408 537.482, 357.302 537.491, 356.167 537.504, 355.006 537.521, 353.828 537.543, 352.636 537.678, 345.488 537.810, 338.346 537.940, 331.228 538.068, 324.156 538.195, 317.147 538.320, 310.224 538.445, 303.406 538.570, 296.715 538.695, 290.173 538.821, 283.801 538.948, 277.621 539.076, 271.655 539.160, 267.946 539.248, 264.280 539.340, 260.664 539.436, 257.110 539.537, 253.628 539.643, 250.226 539.755, 246.916 539.874, 243.709 539.998, 240.613 540.130, 237.639 540.268, 234.797 540.414, 232.098 540.440, 231.566 540.468, 230.952 540.496, 230.259 540.524, 229.492 540.552, 228.657 540.578, 227.756 540.602, 226.795 540.623, 225.777 540.641, 224.706 540.654, 223.586 540.663, 222.422 540.667, 221.215 540.664, 220.339 540.658, 219.592 540.647, 218.970 540.633, 218.466 540.615, 218.078 540.595, 217.799 540.573, 217.625 540.548, 217.550 540.523, 217.571 540.496, 217.682 540.469, 217.879 540.441, 218.156 540.272, 220.127 540.109, 222.060 539.953, 223.957 539.801, 225.824 539.653, 227.666 539.507, 229.488 539.363, 231.297 539.218, 233.097 539.073, 234.897 538.925, 236.702 538.773, 238.519 538.616, 240.357 537.934, 248.219 537.915, 248.495 537.895, 248.872 537.875, 249.342 537.856, 249.896 537.837, 250.525 537.820, 251.220 537.804, 251.973 537.790, 252.773 537.779, 253.614 537.771, 254.484 537.766, 255.375 537.764, 256.278 537.767, 257.427 537.771, 258.461 537.779, 259.381 537.789, 260.190 537.802, 260.890 537.817, 261.484 537.834, 261.973 537.854, 262.359 537.875, 262.646 537.897, 262.817 537.899, 262.836 537.925, 262.931 537.953, 262.933 538.025, 262.818 " />
            <path fill="none" stroke-width="3.0" stroke-linecap="butt" stroke-opacity="1.0" stroke="rgb(0, 0, 0)" stroke-linejoin="miter" d=" M 538.025, 262.818 538.089, 262.843 538.148, 263.006 538.200, 263.305 538.245, 263.738 538.285, 264.302 538.318, 264.995 538.346, 265.815 538.367, 266.761 538.382, 267.830 538.392, 269.022 538.395, 270.334 538.394, 271.244 538.390, 272.206 538.383, 273.222 538.374, 274.290 538.362, 275.410 538.348, 276.582 538.331, 277.805 538.313, 279.079 538.293, 280.403 538.271, 281.777 538.248, 283.200 538.224, 284.672 538.055, 294.671 537.887, 304.669 537.719, 314.668 537.550, 324.666 537.382, 334.665 537.213, 344.664 537.045, 354.662 536.877, 364.661 536.708, 374.659 536.540, 384.658 536.439, 390.665 536.413, 391.897 536.389, 393.051 536.367, 394.124 536.346, 395.116 536.327, 396.026 536.308, 396.852 536.290, 397.594 536.272, 398.252 536.255, 398.822 536.238, 399.306 536.221, 399.701 536.204, 400.007 536.189, 400.195 536.174, 400.305 536.160, 400.333 " />
            <path fill="none" stroke-width="3.0" stroke-linecap="butt" stroke-opacity="1.0" stroke="rgb(0, 0, 0)" stroke-linejoin="miter" d=" M 533.572, 316.109 533.685, 316.241 533.782, 316.706 533.864, 317.537 533.932, 318.764 533.987, 320.419 534.031, 322.534 534.065, 325.140 534.090, 328.268 534.108, 331.951 534.119, 336.217 534.137, 346.217 534.155, 356.217 534.174, 366.217 534.192, 376.217 534.210, 386.217 534.228, 396.217 534.236, 400.318 534.254, 410.318 534.259, 413.155 534.278, 423.155 534.296, 433.155 534.301, 436.088 534.303, 437.119 534.321, 447.119 534.340, 457.119 534.358, 467.119 534.376, 477.119 534.394, 487.119 534.413, 497.119 534.416, 499.119 534.420, 501.204 534.423, 502.743 534.441, 512.743 534.451, 518.242 534.456, 521.930 534.454, 525.279 534.445, 528.349 534.428, 531.200 534.402, 533.890 534.365, 536.478 534.316, 539.024 534.253, 541.586 534.177, 544.224 534.084, 546.998 533.975, 549.969 533.847, 553.200 533.805, 554.253 533.767, 555.314 533.732, 556.383 533.701, 557.460 533.673, 558.545 533.650, 559.637 533.629, 560.735 533.613, 561.840 533.601, 562.952 533.593, 564.068 533.589, 565.190 533.589, 566.317 533.595, 567.099 533.607, 567.751 533.624, 568.276 533.647, 568.676 533.674, 568.952 533.704, 569.107 533.737, 569.142 533.771, 569.061 533.806, 568.864 533.842, 568.555 533.877, 568.136 533.910, 567.608 534.089, 564.351 534.250, 561.263 534.397, 558.333 534.531, 555.552 534.655, 552.910 534.769, 550.400 534.877, 548.015 534.980, 545.747 535.079, 543.591 535.177, 541.542 535.276, 539.595 535.376, 537.745 535.475, 536.042 535.575, 534.426 535.677, 532.863 535.781, 531.318 535.889, 529.757 536.000, 528.148 536.115, 526.456 536.236, 524.651 536.363, 522.699 536.496, 520.570 536.636, 518.233 536.783, 515.659 536.814, 515.054 536.846, 514.348 536.876, 513.555 536.906, 512.691 536.934, 511.770 536.960, 510.807 536.983, 509.816 537.003, 508.813 537.020, 507.811 537.032, 506.825 537.039, 505.869 537.041, 504.957 537.038, 503.915 537.030, 503.076 537.018, 502.419 537.002, 501.928 536.983, 501.582 536.961, 501.362 536.937, 501.251 536.911, 501.228 536.343, 501.222 " />
            <path fill="none" stroke-width="3.0" stroke-linecap="butt" stroke-opacity="1.0" stroke="rgb(0, 0, 0)" stroke-linejoin="miter" d=" M 536.500, 502.763 536.432, 502.510 536.377, 501.929 536.343, 501.222 536.333, 501.011 536.299, 499.749 536.289, 499.137 536.273, 498.134 536.254, 496.159 536.240, 493.814 536.229, 491.092 536.219, 487.984 536.206, 482.601 536.193, 477.190 536.182, 471.752 536.171, 466.286 536.161, 460.791 536.152, 455.266 536.144, 449.710 536.136, 444.124 536.128, 438.505 536.126, 437.134 536.125, 436.104 536.121, 432.853 536.113, 427.166 536.106, 421.443 536.106, 420.423 536.108, 419.466 536.112, 418.574 536.117, 417.748 536.125, 416.990 536.133, 416.299 536.144, 415.677 536.155, 415.125 536.167, 414.644 536.181, 414.234 536.195, 413.897 536.210, 413.632 536.228, 413.403 536.246, 413.250 536.265, 413.172 536.284, 413.172 " />
            <path fill="none" stroke-width="3.0" stroke-linecap="butt" stroke-opacity="1.0" stroke="rgb(0, 0, 0)" stroke-linejoin="miter" d=" M 536.284, 413.172 536.304, 413.251 536.325, 413.409 536.346, 413.648 536.367, 413.970 536.389, 414.375 536.411, 414.864 536.434, 415.439 536.457, 416.100 536.807, 426.094 537.157, 436.112 537.193, 437.144 537.542, 447.137 537.892, 457.131 537.957, 458.989 537.981, 459.721 538.004, 460.455 538.025, 461.193 538.043, 461.939 538.060, 462.692 538.074, 463.456 538.087, 464.232 538.097, 465.021 538.105, 465.827 538.112, 466.650 538.115, 467.493 538.117, 468.358 538.113, 469.551 538.105, 470.779 538.091, 472.043 538.073, 473.345 538.050, 474.687 538.021, 476.072 537.987, 477.501 537.947, 478.977 537.902, 480.502 537.850, 482.079 537.792, 483.710 537.727, 485.397 537.701, 486.150 537.677, 486.928 537.655, 487.733 537.635, 488.564 537.617, 489.422 537.602, 490.305 537.589, 491.215 537.578, 492.150 537.570, 493.112 537.564, 494.099 537.561, 495.111 537.560, 496.149 537.563, 496.882 537.569, 497.506 537.577, 498.025 537.589, 498.441 537.602, 498.759 537.618, 498.980 537.635, 499.110 537.653, 499.150 537.672, 499.103 537.691, 498.974 537.710, 498.766 537.728, 498.481 537.833, 496.584 537.934, 494.680 538.033, 492.771 538.131, 490.858 538.227, 488.943 538.322, 487.030 538.418, 485.118 538.514, 483.212 538.611, 481.313 538.709, 479.423 538.809, 477.547 538.912, 475.685 539.048, 473.325 539.182, 471.077 539.314, 468.921 539.445, 466.841 539.574, 464.817 539.702, 462.834 539.828, 460.873 539.954, 458.918 540.077, 456.953 540.200, 454.959 540.321, 452.922 540.442, 450.825 540.492, 449.866 540.539, 448.883 540.581, 447.884 540.618, 446.873 540.652, 445.860 540.681, 444.850 540.705, 443.850 540.726, 442.868 540.741, 441.909 540.753, 440.982 540.760, 440.092 540.762, 439.248 540.759, 438.293 540.751, 437.546 540.738, 436.985 540.721, 436.586 540.701, 436.327 540.678, 436.187 540.653, 436.142 540.071, 436.137 " />
            <path fill="none" stroke-width="3.0" stroke-linecap="butt" stroke-opacity="1.0" stroke="rgb(0, 0, 0)" stroke-linejoin="miter" d=" M 536.911, 501.228 536.884, 501.275 536.856, 501.372 536.827, 501.502 536.798, 501.644 536.682, 502.320 536.583, 502.696 536.500, 502.763 " />
            <path fill="none" stroke-width="3.0" stroke-linecap="butt" stroke-opacity="1.0" stroke="rgb(0, 0, 0)" stroke-linejoin="miter" d=" M 540.653, 436.142 540.626, 436.171 540.599, 436.250 540.573, 436.358 540.547, 436.471 540.522, 436.568 540.424, 436.987 540.334, 437.170 " />
            <path fill="none" stroke-width="3.0" stroke-linecap="butt" stroke-opacity="1.0" stroke="rgb(0, 0, 0)" stroke-linejoin="miter" d=" M 536.710, 261.490 526.710, 261.428 516.710, 261.366 506.710, 261.303 496.710, 261.241 486.710, 261.179 476.711, 261.117 466.711, 261.055 456.711, 260.993 446.711, 260.931 436.711, 260.869 426.712, 260.807 416.712, 260.744 406.712, 260.682 399.327, 260.636 391.538, 260.588 385.792, 260.552 385.682, 260.579 385.568, 260.714 385.449, 260.955 384.910, 262.302 384.318, 263.846 383.681, 265.549 383.010, 267.376 382.315, 269.287 381.607, 271.245 380.898, 273.209 380.197, 275.139 379.518, 276.992 378.872, 278.727 378.270, 280.300 377.727, 281.666 377.173, 282.972 376.563, 284.331 375.907, 285.735 375.213, 287.180 374.489, 288.660 373.747, 290.168 372.994, 291.699 372.241, 293.245 371.498, 294.799 370.775, 296.354 370.084, 297.901 369.434, 299.432 369.321, 299.768 369.211, 300.216 369.107, 300.766 369.010, 301.408 368.922, 302.131 368.846, 302.926 368.784, 303.780 368.738, 304.685 368.710, 305.629 368.703, 306.601 368.718, 307.591 368.757, 308.587 368.833, 309.849 368.920, 310.979 369.019, 311.979 369.128, 312.852 369.247, 313.602 369.377, 314.229 369.516, 314.738 369.664, 315.130 369.822, 315.409 369.988, 315.577 370.162, 315.638 372.939, 315.657 382.938, 315.726 384.340, 315.736 393.137, 315.797 395.828, 315.816 405.827, 315.885 415.827, 315.955 425.827, 316.024 435.827, 316.094 445.826, 316.163 455.826, 316.233 465.826, 316.302 475.826, 316.372 485.825, 316.441 495.825, 316.510 505.825, 316.580 515.825, 316.649 525.824, 316.719 533.253, 316.770 " />
            <path fill="none" stroke-width="3.0" stroke-linecap="butt" stroke-opacity="1.0" stroke="rgb(0, 0, 0)" stroke-linejoin="miter" d=" M 540.548, 217.550 530.549, 217.494 520.549, 217.438 510.549, 217.382 500.549, 217.325 490.549, 217.269 480.549, 217.213 470.550, 217.156 460.550, 217.100 450.550, 217.044 440.550, 216.988 430.550, 216.931 420.550, 216.875 410.551, 216.819 403.885, 216.781 403.752, 216.801 403.618, 216.912 403.484, 217.107 403.353, 217.384 402.556, 219.348 401.793, 221.273 401.059, 223.163 400.349, 225.024 399.657, 226.859 398.977, 228.675 398.303, 230.477 397.629, 232.271 396.949, 234.064 396.256, 235.862 395.543, 237.673 394.803, 239.504 391.595, 247.336 391.505, 247.610 391.417, 247.987 391.334, 248.455 391.256, 249.008 391.185, 249.635 391.124, 250.329 391.074, 251.080 391.036, 251.879 391.013, 252.717 391.006, 253.586 391.017, 254.475 391.048, 255.377 391.107, 256.524 391.175, 257.556 391.252, 258.475 391.338, 259.283 391.433, 259.982 391.535, 260.575 391.538, 260.588 " />
            <path fill="none" stroke-width="3.0" stroke-linecap="butt" stroke-opacity="1.0" stroke="rgb(0, 0, 0)" stroke-linejoin="miter" d=" M 372.939, 315.657 373.359, 316.420 373.762, 317.647 374.117, 319.301 374.433, 321.413 374.718, 324.015 374.978, 327.139 375.222, 330.815 375.457, 335.074 375.967, 345.061 376.477, 355.048 376.987, 365.035 377.498, 375.022 378.008, 385.009 378.518, 394.996 379.028, 404.983 379.538, 414.969 380.048, 424.956 380.558, 434.943 381.069, 444.930 381.579, 454.917 382.089, 464.904 382.599, 474.891 383.109, 484.878 383.619, 494.865 384.129, 504.852 384.639, 514.839 384.740, 516.801 384.916, 520.483 385.047, 523.827 385.129, 526.892 385.159, 529.737 385.133, 532.422 385.048, 535.005 384.899, 537.544 384.683, 540.100 384.395, 542.730 384.031, 545.496 383.587, 548.458 383.057, 551.679 382.885, 552.728 382.730, 553.786 382.594, 554.852 382.477, 555.926 382.378, 557.008 382.300, 558.097 382.241, 559.193 382.203, 560.296 382.186, 561.404 382.190, 562.519 382.216, 563.639 382.264, 564.764 382.325, 565.545 382.414, 566.197 382.527, 566.722 382.661, 567.122 382.812, 567.398 382.975, 567.554 383.146, 567.591 393.145, 567.694 403.145, 567.797 413.144, 567.900 423.144, 568.003 433.143, 568.106 443.142, 568.209 453.142, 568.312 463.141, 568.415 473.141, 568.518 483.140, 568.621 493.140, 568.724 503.139, 568.827 513.139, 568.930 523.138, 569.033 533.737, 569.142 " />
            <path fill="none" stroke-width="3.0" stroke-linecap="butt" stroke-opacity="1.0" stroke="rgb(0, 0, 0)" stroke-linejoin="miter" d=" M 536.289, 499.137 537.653, 499.150 " />
            <path fill="none" stroke-width="3.0" stroke-linecap="butt" stroke-opacity="1.0" stroke="rgb(0, 0, 0)" stroke-linejoin="miter" d=" M 536.786, 262.926 537.953, 262.933 " />
        </g>
    </g>
</svg>
