<?xml version='1.0' encoding='ascii'?>
<svg xmlns="http://www.w3.org/2000/svg" version="1.1" width="1080" height="1080">
    <g id="View Layer_LineSet" xmlns:inkscape="http://www.inkscape.org/namespaces/inkscape" inkscape:groupmode="lineset" inkscape:label="View Layer_LineSet">
        <g xmlns:inkscape="http://www.inkscape.org/namespaces/inkscape" inkscape:groupmode="layer" id="strokes" inkscape:label="strokes">
            <path fill="none" stroke-width="3.0" stroke-linecap="butt" stroke-opacity="1.0" stroke="rgb(0, 0, 0)" stroke-linejoin="miter" d=" M 366.067, 320.306 366.390, 320.468 366.775, 320.901 366.862, 320.945 376.846, 320.375 386.830, 319.806 396.814, 319.236 406.798, 318.667 416.781, 318.097 426.765, 317.528 436.749, 316.958 446.733, 316.389 456.716, 315.819 466.700, 315.250 476.684, 314.680 486.668, 314.111 497.338, 313.502 500.676, 313.312 510.660, 312.742 511.569, 312.690 521.553, 312.121 525.671, 311.886 529.119, 311.689 529.330, 311.620 529.524, 311.444 529.699, 311.159 529.856, 310.762 529.993, 310.250 530.111, 309.622 530.207, 308.873 530.283, 308.001 530.336, 307.005 530.367, 305.881 530.375, 304.627 530.356, 303.638 530.307, 302.656 530.231, 301.694 530.133, 300.760 530.014, 299.867 529.879, 299.023 529.731, 298.241 529.574, 297.529 529.410, 296.898 529.243, 296.358 529.077, 295.920 528.914, 295.594 528.007, 294.112 527.046, 292.616 526.046, 291.114 525.021, 289.613 523.984, 288.120 522.948, 286.642 521.926, 285.186 520.930, 283.757 519.972, 282.361 519.063, 281.002 518.215, 279.687 517.440, 278.420 516.673, 277.094 515.821, 275.565 514.901, 273.877 513.933, 272.073 512.933, 270.195 511.919, 268.282 510.908, 266.375 509.915, 264.513 508.958, 262.734 508.052, 261.076 507.211, 259.573 506.450, 258.263 506.286, 258.029 506.135, 257.901 505.997, 257.880 498.854, 258.244 489.197, 258.736 479.210, 259.246 469.223, 259.755 459.236, 260.264 449.249, 260.773 439.262, 261.282 429.275, 261.792 419.287, 262.301 409.300, 262.810 399.313, 263.319 389.326, 263.828 379.339, 264.337 369.352, 264.847 359.365, 265.356 355.394, 265.558 355.353, 265.641 355.322, 265.833 355.303, 266.135 355.295, 266.548 355.297, 266.845 355.297, 266.965 355.298, 267.073 355.313, 267.710 355.341, 268.460 355.380, 269.324 355.432, 270.302 355.508, 271.590 355.585, 272.768 355.663, 273.850 355.743, 274.848 355.825, 275.774 355.911, 276.641 356.000, 277.461 356.093, 278.246 356.190, 279.008 356.293, 279.760 356.401, 280.514 356.516, 281.282 357.013, 284.481 357.455, 287.457 357.849, 290.266 358.199, 292.965 358.512, 295.612 358.793, 298.265 359.049, 300.984 359.286, 303.826 359.510, 306.851 359.728, 310.118 359.945, 313.685 360.169, 317.611 360.723, 327.595 361.278, 337.580 361.832, 347.564 362.387, 357.549 362.941, 367.534 363.495, 377.518 364.050, 387.503 364.604, 397.488 364.787, 400.779 364.840, 401.783 364.881, 402.648 364.910, 403.380 364.927, 403.984 364.935, 404.468 364.932, 404.837 364.920, 405.097 364.900, 405.256 364.873, 405.318 " />
            <path fill="none" stroke-width="3.0" stroke-linecap="butt" stroke-opacity="1.0" stroke="rgb(0, 0, 0)" stroke-linejoin="miter" d=" M 498.854, 258.244 498.866, 258.188 498.952, 257.594 499.022, 256.895 499.073, 256.088 499.106, 255.172 499.121, 254.143 499.116, 253.000 499.092, 252.103 499.045, 251.219 498.977, 250.357 498.891, 249.525 498.789, 248.733 498.676, 247.989 498.552, 247.303 498.422, 246.683 498.287, 246.138 498.151, 245.677 498.016, 245.307 497.886, 245.039 493.361, 237.411 492.315, 235.626 491.304, 233.860 490.319, 232.105 489.349, 230.355 488.388, 228.602 487.425, 226.842 486.454, 225.068 485.467, 223.275 484.454, 221.457 483.411, 219.610 482.328, 217.729 481.201, 215.812 481.018, 215.543 480.838, 215.354 480.662, 215.251 480.495, 215.237 470.506, 215.698 460.517, 216.159 450.527, 216.620 440.538, 217.081 430.549, 217.542 420.559, 218.004 410.570, 218.465 400.580, 218.926 390.591, 219.387 380.602, 219.848 370.612, 220.310 360.623, 220.771 350.634, 221.232 343.666, 221.554 343.613, 221.630 343.569, 221.807 343.538, 222.090 343.519, 222.483 343.515, 222.991 343.526, 223.620 343.555, 224.373 343.601, 225.257 343.680, 226.473 343.770, 227.647 343.868, 228.775 343.973, 229.853 344.084, 230.878 344.198, 231.845 344.313, 232.752 344.428, 233.592 344.540, 234.363 344.649, 235.059 344.751, 235.677 344.844, 236.211 345.351, 238.922 345.848, 241.777 346.337, 244.765 346.816, 247.876 347.287, 251.101 347.749, 254.429 348.203, 257.849 348.648, 261.352 349.087, 264.926 349.518, 268.563 349.943, 272.251 350.361, 275.982 351.018, 281.984 351.684, 288.201 352.359, 294.611 353.042, 301.193 353.733, 307.923 354.432, 314.781 355.139, 321.744 355.853, 328.793 356.574, 335.905 357.302, 343.062 358.037, 350.243 358.780, 357.429 358.900, 358.628 359.011, 359.813 359.110, 360.980 359.199, 362.123 359.276, 363.236 359.342, 364.313 359.396, 365.349 359.438, 366.338 359.467, 367.274 359.483, 368.153 359.486, 368.968 359.476, 369.714 359.267, 379.712 359.058, 389.710 358.849, 399.708 358.641, 409.706 358.432, 419.703 358.223, 429.701 358.122, 434.544 358.087, 435.984 358.045, 437.326 357.992, 438.557 357.926, 439.660 357.844, 440.622 357.745, 441.429 357.689, 441.728 357.625, 442.067 357.482, 442.522 357.314, 442.780 357.119, 442.828 " />
            <path fill="none" stroke-width="3.0" stroke-linecap="butt" stroke-opacity="1.0" stroke="rgb(0, 0, 0)" stroke-linejoin="miter" d=" M 370.376, 506.823 369.024, 506.927 368.964, 506.953 368.913, 507.068 368.874, 507.292 368.850, 507.642 368.841, 508.138 368.851, 508.800 368.881, 509.646 368.934, 510.694 368.993, 511.611 369.066, 512.572 369.153, 513.562 369.251, 514.569 369.358, 515.576 369.472, 516.570 369.590, 517.535 369.711, 518.459 369.832, 519.325 369.952, 520.118 370.067, 520.825 370.176, 521.430 370.679, 524.003 371.149, 526.337 371.590, 528.462 372.005, 530.411 372.398, 532.212 372.772, 533.900 373.130, 535.505 373.476, 537.062 373.815, 538.603 374.148, 540.163 374.481, 541.776 374.817, 543.476 375.163, 545.325 375.511, 547.271 375.864, 549.320 376.227, 551.475 376.604, 553.742 377.000, 556.128 377.419, 558.638 377.867, 561.278 378.349, 564.058 378.869, 566.985 379.433, 570.069 380.048, 573.320 380.159, 573.847 380.266, 574.264 380.369, 574.571 380.464, 574.764 380.550, 574.841 390.515, 573.998 400.479, 573.154 410.443, 572.310 420.408, 571.467 430.372, 570.623 440.337, 569.780 450.301, 568.936 460.265, 568.093 470.230, 567.249 480.194, 566.405 490.158, 565.562 500.123, 564.718 510.087, 563.875 520.051, 563.031 530.231, 562.169 530.440, 562.119 530.631, 561.951 530.798, 561.664 530.937, 561.257 531.042, 560.728 531.107, 560.075 531.129, 559.297 531.112, 558.179 531.068, 557.068 530.997, 555.963 530.900, 554.866 530.778, 553.777 530.631, 552.696 530.459, 551.624 530.264, 550.560 530.045, 549.506 529.804, 548.461 529.541, 547.426 529.256, 546.401 528.382, 543.253 527.630, 540.354 526.991, 537.643 526.455, 535.059 526.013, 532.544 525.656, 530.040 525.374, 527.487 525.159, 524.829 525.002, 522.007 524.894, 518.963 524.828, 515.640 524.796, 511.977 524.746, 501.977 524.696, 491.977 524.646, 481.977 524.596, 471.977 524.546, 461.978 524.496, 451.978 524.446, 441.978 524.396, 431.978 524.346, 421.978 524.296, 411.978 524.246, 401.978 524.196, 391.979 524.146, 381.979 524.096, 371.979 524.046, 361.979 523.996, 351.979 523.947, 341.979 523.893, 331.248 523.893, 327.013 523.945, 323.356 524.054, 320.245 524.228, 317.650 524.475, 315.539 524.802, 313.880 525.217, 312.642 525.671, 311.886 " />
            <path fill="none" stroke-width="3.0" stroke-linecap="butt" stroke-opacity="1.0" stroke="rgb(0, 0, 0)" stroke-linejoin="miter" d=" M 366.862, 320.945 366.938, 320.882 367.001, 320.711 367.051, 320.428 367.068, 320.249 367.088, 320.031 367.113, 319.517 367.123, 318.883 367.119, 318.127 367.101, 317.245 367.068, 316.236 367.020, 315.096 366.956, 313.823 366.897, 312.818 366.827, 311.820 366.747, 310.841 366.661, 309.890 366.569, 308.978 366.474, 308.117 366.377, 307.318 366.281, 306.589 366.186, 305.943 366.095, 305.390 366.010, 304.939 365.932, 304.602 365.515, 303.065 365.077, 301.513 364.624, 299.953 364.162, 298.393 363.696, 296.842 363.232, 295.307 362.773, 293.793 362.326, 292.308 361.895, 290.858 361.485, 289.449 361.099, 288.086 360.743, 286.773 360.387, 285.402 359.988, 283.822 359.556, 282.079 359.100, 280.216 358.628, 278.277 358.149, 276.303 357.672, 274.335 357.204, 272.414 356.753, 270.578 356.328, 268.866 355.935, 267.315 355.837, 266.938 355.806, 266.819 355.583, 265.961 355.510, 265.719 355.447, 265.585 355.394, 265.558 " />
            <path fill="none" stroke-width="3.0" stroke-linecap="butt" stroke-opacity="1.0" stroke="rgb(0, 0, 0)" stroke-linejoin="miter" d=" M 352.344, 266.996 352.520, 267.107 352.587, 267.103 352.643, 267.005 352.649, 266.981 352.689, 266.812 352.724, 266.521 352.747, 266.130 352.760, 265.636 352.761, 265.037 352.749, 264.331 352.726, 263.515 352.689, 262.587 352.640, 261.546 352.578, 260.387 352.521, 259.478 352.457, 258.580 352.386, 257.704 352.310, 256.858 352.230, 256.052 352.148, 255.295 352.066, 254.596 351.985, 253.963 351.906, 253.406 351.831, 252.934 351.761, 252.556 351.698, 252.279 349.613, 244.407 349.131, 242.566 348.662, 240.745 348.203, 238.936 347.751, 237.133 347.301, 235.329 346.851, 233.516 346.396, 231.689 345.935, 229.843 345.463, 227.971 344.978, 226.069 344.478, 224.133 343.958, 222.157 343.876, 221.879 343.799, 221.683 343.729, 221.573 343.666, 221.554 " />
            <path fill="none" stroke-width="3.0" stroke-linecap="butt" stroke-opacity="1.0" stroke="rgb(0, 0, 0)" stroke-linejoin="miter" d=" M 364.873, 405.318 364.838, 405.292 364.797, 405.181 364.750, 404.994 364.691, 404.688 364.627, 404.292 364.558, 403.807 364.484, 403.234 364.404, 402.574 364.317, 401.829 364.224, 400.999 364.124, 400.085 364.016, 399.088 363.900, 398.010 363.776, 396.852 363.642, 395.614 362.663, 385.662 361.684, 375.710 360.705, 365.758 359.726, 355.806 358.747, 345.854 357.768, 335.902 356.789, 325.950 355.810, 315.998 354.831, 306.046 353.852, 296.094 353.157, 289.031 353.012, 287.550 352.873, 286.118 352.741, 284.736 352.615, 283.403 352.496, 282.121 352.385, 280.890 352.283, 279.710 352.188, 278.582 352.103, 277.507 352.027, 276.484 351.961, 275.514 351.905, 274.599 351.836, 273.276 351.788, 272.074 351.762, 270.995 351.756, 270.041 351.773, 269.212 351.812, 268.511 351.872, 267.940 351.956, 267.501 352.062, 267.196 352.191, 267.026 352.344, 266.996 " />
            <path fill="none" stroke-width="3.0" stroke-linecap="butt" stroke-opacity="1.0" stroke="rgb(0, 0, 0)" stroke-linejoin="miter" d=" M 380.550, 574.841 380.626, 574.801 380.688, 574.642 380.736, 574.361 380.766, 573.957 380.777, 573.427 380.767, 572.769 380.734, 571.983 380.668, 570.850 380.593, 569.723 380.508, 568.602 380.414, 567.486 380.310, 566.377 380.198, 565.275 380.077, 564.181 379.948, 563.094 379.811, 562.015 379.665, 560.944 379.512, 559.882 379.352, 558.830 378.858, 555.597 378.424, 552.623 378.042, 549.846 377.705, 547.203 377.407, 544.634 377.141, 542.081 376.901, 539.483 376.680, 536.781 376.472, 533.917 376.271, 530.831 376.070, 527.463 375.864, 523.754 375.324, 513.769 375.014, 508.043 374.929, 506.471 374.813, 504.331 374.272, 494.345 373.732, 484.360 373.191, 474.375 372.651, 464.389 372.111, 454.404 371.570, 444.418 371.430, 441.823 371.373, 440.770 370.832, 430.784 370.292, 420.799 370.136, 417.928 369.596, 407.943 369.438, 405.016 368.897, 395.031 368.357, 385.046 367.816, 375.060 367.276, 365.075 366.735, 355.090 366.195, 345.104 365.951, 340.593 365.726, 336.298 365.551, 332.590 365.427, 329.438 365.354, 326.812 365.335, 324.680 365.369, 323.009 365.458, 321.768 365.603, 320.925 365.805, 320.448 366.067, 320.306 " />
            <path fill="none" stroke-width="3.0" stroke-linecap="butt" stroke-opacity="1.0" stroke="rgb(0, 0, 0)" stroke-linejoin="miter" d=" M 365.333, 418.253 365.379, 418.251 365.429, 418.327 365.481, 418.480 365.537, 418.708 365.588, 418.973 365.642, 419.311 365.698, 419.723 365.756, 420.206 365.815, 420.760 365.876, 421.385 365.937, 422.079 365.999, 422.841 366.061, 423.672 366.123, 424.569 366.183, 425.532 366.243, 426.559 366.563, 432.319 366.880, 438.042 367.048, 441.073 367.106, 442.127 367.195, 443.731 367.507, 449.386 367.817, 455.008 368.124, 460.599 368.427, 466.159 368.727, 471.689 369.023, 477.190 369.316, 482.663 369.604, 488.107 369.889, 493.524 370.049, 496.653 370.183, 499.392 370.287, 501.752 370.358, 503.742 370.377, 504.672 370.392, 505.369 370.385, 506.643 370.376, 506.823 370.335, 507.571 370.238, 508.162 370.091, 508.424 " />
            <path fill="none" stroke-width="3.0" stroke-linecap="butt" stroke-opacity="1.0" stroke="rgb(0, 0, 0)" stroke-linejoin="miter" d=" M 357.689, 441.728 356.300, 441.826 356.243, 441.873 356.197, 442.017 356.163, 442.280 356.146, 442.683 356.149, 443.250 356.173, 444.003 356.223, 444.964 356.279, 445.815 356.348, 446.710 356.429, 447.642 356.523, 448.606 356.629, 449.593 356.746, 450.597 356.875, 451.611 357.014, 452.628 357.163, 453.641 357.322, 454.644 357.490, 455.628 357.667, 456.588 358.077, 458.687 358.485, 460.725 358.894, 462.719 359.304, 464.685 359.717, 466.639 360.133, 468.599 360.554, 470.582 360.980, 472.605 361.414, 474.685 361.855, 476.841 362.306, 479.089 362.767, 481.449 363.121, 483.312 363.470, 485.190 363.815, 487.080 364.157, 488.981 364.497, 490.888 364.836, 492.801 365.176, 494.716 365.517, 496.632 365.861, 498.546 366.209, 500.456 366.562, 502.360 366.923, 504.257 366.983, 504.541 367.040, 504.749 367.093, 504.877 367.140, 504.921 367.181, 504.879 367.213, 504.747 367.237, 504.522 367.251, 504.201 367.253, 503.781 367.244, 503.258 367.221, 502.629 367.184, 501.892 367.122, 500.847 367.054, 499.829 366.983, 498.836 366.906, 497.870 366.826, 496.930 366.741, 496.016 366.652, 495.129 366.559, 494.268 366.463, 493.434 366.363, 492.627 366.260, 491.846 366.154, 491.092 365.902, 489.401 365.668, 487.766 365.452, 486.185 365.254, 484.656 365.073, 483.174 364.907, 481.740 364.758, 480.349 364.623, 479.001 364.503, 477.693 364.397, 476.422 364.305, 475.187 364.226, 473.987 364.179, 473.117 364.138, 472.268 364.104, 471.439 364.076, 470.627 364.055, 469.831 364.039, 469.049 364.028, 468.278 364.023, 467.518 364.024, 466.766 364.029, 466.021 364.040, 465.279 364.056, 464.541 364.296, 454.543 364.535, 444.546 364.589, 442.303 364.615, 441.243 364.854, 431.246 365.095, 421.217 365.112, 420.549 365.132, 419.969 365.156, 419.474 365.184, 419.064 365.216, 418.738 365.252, 418.495 365.291, 418.334 365.333, 418.253 " />
            <path fill="none" stroke-width="3.0" stroke-linecap="butt" stroke-opacity="1.0" stroke="rgb(0, 0, 0)" stroke-linejoin="miter" d=" M 370.091, 508.424 369.890, 508.367 369.634, 507.999 369.318, 507.332 369.241, 507.193 369.165, 507.066 369.092, 506.971 369.024, 506.927 " />
            <path fill="none" stroke-width="3.0" stroke-linecap="butt" stroke-opacity="1.0" stroke="rgb(0, 0, 0)" stroke-linejoin="miter" d=" M 357.119, 442.828 356.893, 442.652 356.636, 442.240 356.572, 442.146 356.504, 442.035 356.433, 441.929 356.365, 441.852 356.300, 441.826 " />
            <path fill="none" stroke-width="3.0" stroke-linecap="butt" stroke-opacity="1.0" stroke="rgb(0, 0, 0)" stroke-linejoin="miter" d=" M 352.520, 267.107 355.297, 266.965 " />
            <path fill="none" stroke-width="3.0" stroke-linecap="butt" stroke-opacity="1.0" stroke="rgb(0, 0, 0)" stroke-linejoin="miter" d=" M 367.140, 504.921 370.377, 504.672 " />
        </g>
    </g>
</svg>
