<?xml version='1.0' encoding='ascii'?>
<svg xmlns="http://www.w3.org/2000/svg" version="1.1" width="1080" height="1080">
    <g id="View Layer_LineSet" xmlns:inkscape="http://www.inkscape.org/namespaces/inkscape" inkscape:groupmode="lineset" inkscape:label="View Layer_LineSet">
        <g xmlns:inkscape="http://www.inkscape.org/namespaces/inkscape" inkscape:groupmode="layer" id="strokes" inkscape:label="strokes">
            <path fill="none" stroke-width="3.0" stroke-linecap="butt" stroke-opacity="1.0" stroke="rgb(0, 0, 0)" stroke-linejoin="miter" d=" M 365.159, 321.695 365.737, 321.845 366.417, 322.266 366.573, 322.306 376.546, 321.573 386.519, 320.840 396.492, 320.107 406.465, 319.374 416.438, 318.642 426.412, 317.909 436.385, 317.176 446.358, 316.443 456.331, 315.710 466.304, 314.977 476.277, 314.244 486.869, 313.466 491.145, 313.152 501.118, 312.419 505.071, 312.128 515.044, 311.395 523.116, 310.802 527.571, 310.475 527.842, 310.401 528.090, 310.221 528.315, 309.932 528.516, 309.532 528.692, 309.018 528.843, 308.388 528.967, 307.638 529.064, 306.767 529.133, 305.771 529.173, 304.649 529.184, 303.397 529.160, 302.410 529.097, 301.432 529.001, 300.473 528.875, 299.543 528.724, 298.654 528.551, 297.816 528.362, 297.038 528.160, 296.331 527.951, 295.705 527.738, 295.170 527.525, 294.737 527.317, 294.415 526.155, 292.956 524.924, 291.485 523.644, 290.008 522.331, 288.533 521.002, 287.066 519.675, 285.615 518.365, 284.183 517.089, 282.779 515.861, 281.406 514.697, 280.070 513.611, 278.776 512.616, 277.528 511.634, 276.220 510.542, 274.712 509.363, 273.047 508.121, 271.266 506.839, 269.412 505.539, 267.523 504.243, 265.641 502.970, 263.802 501.743, 262.046 500.580, 260.408 499.501, 258.925 498.526, 257.632 498.315, 257.402 498.121, 257.278 497.944, 257.259 488.747, 257.863 478.768, 258.518 476.406, 258.673 466.427, 259.328 456.449, 259.983 446.470, 260.638 436.492, 261.293 426.513, 261.948 416.535, 262.603 406.556, 263.258 396.578, 263.913 386.599, 264.568 376.621, 265.223 366.642, 265.878 356.663, 266.532 348.161, 267.091 348.082, 267.175 348.018, 267.369 347.970, 267.673 347.937, 268.089 347.931, 268.287 347.927, 268.415 347.921, 268.616 347.921, 269.255 347.938, 270.008 347.972, 270.874 348.024, 271.855 348.106, 273.147 348.194, 274.328 348.289, 275.413 348.391, 276.412 348.501, 277.340 348.618, 278.208 348.744, 279.028 348.879, 279.814 349.023, 280.576 349.177, 281.328 349.341, 282.082 349.515, 282.849 350.279, 286.046 350.954, 289.020 351.546, 291.828 352.065, 294.527 352.518, 297.175 352.913, 299.830 353.260, 302.551 353.567, 305.398 353.843, 308.429 354.096, 311.703 354.337, 315.279 354.573, 319.214 355.145, 329.198 355.716, 339.181 356.288, 349.165 356.860, 359.148 357.432, 369.132 358.004, 379.116 358.576, 389.099 359.148, 399.083 359.348, 402.589 359.402, 403.596 359.438, 404.463 359.459, 405.197 359.464, 405.804 359.457, 406.289 359.436, 406.660 359.404, 406.923 359.360, 407.083 359.307, 407.147 " />
            <path fill="none" stroke-width="3.0" stroke-linecap="butt" stroke-opacity="1.0" stroke="rgb(0, 0, 0)" stroke-linejoin="miter" d=" M 488.747, 257.863 488.786, 257.718 488.897, 257.123 488.987, 256.423 489.053, 255.615 489.096, 254.699 489.115, 253.670 489.109, 252.529 489.079, 251.633 489.019, 250.750 488.932, 249.889 488.822, 249.060 488.692, 248.271 488.547, 247.530 488.388, 246.847 488.221, 246.230 488.049, 245.688 487.874, 245.230 487.701, 244.863 487.533, 244.597 481.722, 237.066 480.380, 235.303 479.081, 233.558 477.815, 231.823 476.570, 230.092 475.334, 228.359 474.098, 226.619 472.850, 224.864 471.580, 223.090 470.279, 221.292 468.938, 219.466 467.546, 217.606 466.096, 215.710 465.861, 215.445 465.629, 215.259 465.404, 215.159 465.189, 215.148 455.207, 215.741 445.224, 216.334 435.242, 216.927 425.259, 217.520 415.277, 218.113 405.295, 218.706 395.312, 219.299 385.330, 219.891 375.347, 220.484 365.365, 221.077 355.383, 221.670 345.400, 222.263 335.418, 222.856 328.757, 223.252 328.656, 223.330 328.570, 223.510 328.500, 223.795 328.449, 224.191 328.420, 224.702 328.413, 225.333 328.432, 226.090 328.478, 226.977 328.568, 228.197 328.680, 229.374 328.810, 230.505 328.955, 231.585 329.112, 232.612 329.277, 233.581 329.447, 234.488 329.619, 235.330 329.790, 236.101 329.957, 236.798 330.115, 237.415 330.263, 237.949 331.066, 240.658 331.846, 243.512 332.604, 246.499 333.341, 249.611 334.056, 252.837 334.752, 256.167 335.428, 259.590 336.087, 263.095 336.728, 266.673 337.354, 270.314 337.966, 274.006 338.564, 277.741 339.497, 283.751 340.437, 289.976 341.385, 296.394 342.341, 302.984 343.305, 309.723 344.277, 316.589 345.258, 323.561 346.249, 330.618 347.250, 337.738 348.263, 344.902 349.286, 352.090 350.323, 359.282 350.490, 360.481 350.639, 361.668 350.769, 362.837 350.881, 363.982 350.973, 365.097 351.046, 366.177 351.098, 367.216 351.131, 368.208 351.143, 369.148 351.134, 370.030 351.105, 370.849 351.054, 371.600 350.248, 381.568 349.443, 391.535 348.637, 401.503 347.831, 411.470 347.026, 421.438 346.220, 431.405 345.781, 436.834 345.656, 438.285 345.520, 439.637 345.370, 440.876 345.202, 441.989 345.013, 442.960 344.797, 443.777 344.707, 444.014 344.551, 444.424 344.272, 444.888 343.956, 445.155 343.598, 445.213 " />
            <path fill="none" stroke-width="3.0" stroke-linecap="butt" stroke-opacity="1.0" stroke="rgb(0, 0, 0)" stroke-linejoin="miter" d=" M 364.903, 508.823 362.436, 509.069 362.326, 509.098 362.229, 509.216 362.149, 509.443 362.089, 509.796 362.053, 510.296 362.042, 510.960 362.060, 511.809 362.111, 512.860 362.177, 513.779 362.269, 514.741 362.384, 515.732 362.518, 516.738 362.668, 517.745 362.831, 518.738 363.004, 519.703 363.184, 520.624 363.366, 521.488 363.548, 522.280 363.727, 522.985 363.899, 523.587 364.699, 526.146 365.451, 528.467 366.159, 530.580 366.828, 532.516 367.462, 534.306 368.067, 535.982 368.648, 537.576 369.209, 539.122 369.755, 540.652 370.293, 542.202 370.826, 543.805 371.362, 545.495 371.910, 547.334 372.456, 549.271 373.007, 551.310 373.572, 553.456 374.157, 555.714 374.772, 558.089 375.424, 560.588 376.122, 563.217 376.874, 565.983 377.691, 568.895 378.580, 571.962 379.553, 575.194 379.731, 575.717 379.908, 576.130 380.080, 576.432 380.245, 576.621 380.398, 576.694 390.339, 575.609 400.280, 574.525 410.221, 573.440 420.162, 572.356 430.103, 571.271 440.044, 570.187 449.985, 569.103 459.926, 568.018 469.867, 566.934 479.808, 565.849 489.749, 564.765 499.690, 563.680 509.631, 562.596 519.572, 561.512 528.878, 560.497 529.146, 560.439 529.390, 560.265 529.604, 559.973 529.782, 559.561 529.917, 559.029 530.001, 558.375 530.029, 557.597 530.008, 556.482 529.952, 555.373 529.861, 554.273 529.738, 553.181 529.582, 552.098 529.394, 551.024 529.174, 549.959 528.925, 548.904 528.645, 547.859 528.336, 546.824 528.000, 545.799 527.636, 544.785 526.516, 541.672 525.554, 538.803 524.737, 536.117 524.052, 533.555 523.486, 531.059 523.029, 528.570 522.669, 526.030 522.394, 523.383 522.194, 520.570 522.058, 517.534 521.976, 514.217 521.935, 510.560 521.876, 500.560 521.816, 490.560 521.757, 480.561 521.698, 470.561 521.638, 460.561 521.579, 450.561 521.520, 440.561 521.461, 430.561 521.401, 420.562 521.342, 410.562 521.283, 400.562 521.223, 390.562 521.164, 380.562 521.105, 370.562 521.045, 360.563 520.986, 350.563 520.927, 340.563 520.865, 330.125 520.867, 325.897 520.935, 322.245 521.077, 319.136 521.302, 316.541 521.619, 314.428 522.039, 312.764 522.571, 311.518 523.116, 310.802 " />
            <path fill="none" stroke-width="3.0" stroke-linecap="butt" stroke-opacity="1.0" stroke="rgb(0, 0, 0)" stroke-linejoin="miter" d=" M 366.573, 322.306 366.712, 322.240 366.834, 322.066 366.937, 321.780 366.984, 321.561 367.022, 321.380 367.088, 320.862 367.135, 320.225 367.161, 319.466 367.166, 318.581 367.150, 317.569 367.112, 316.426 367.052, 315.151 366.987, 314.144 366.903, 313.145 366.802, 312.164 366.686, 311.212 366.559, 310.300 366.424, 309.439 366.283, 308.640 366.140, 307.912 365.996, 307.267 365.855, 306.714 365.720, 306.265 365.593, 305.929 364.903, 304.402 364.176, 302.859 363.423, 301.310 362.652, 299.760 361.874, 298.220 361.098, 296.694 360.332, 295.191 359.585, 293.716 358.865, 292.276 358.181, 290.875 357.541, 289.520 356.951, 288.214 356.365, 286.849 355.710, 285.277 355.001, 283.541 354.254, 281.686 353.481, 279.755 352.697, 277.789 351.916, 275.829 351.149, 273.915 350.411, 272.087 349.713, 270.382 349.067, 268.837 348.859, 268.354 348.806, 268.230 348.486, 267.489 348.364, 267.248 348.255, 267.115 348.161, 267.091 " />
            <path fill="none" stroke-width="3.0" stroke-linecap="butt" stroke-opacity="1.0" stroke="rgb(0, 0, 0)" stroke-linejoin="miter" d=" M 342.557, 268.641 342.873, 268.746 342.994, 268.740 343.100, 268.640 343.117, 268.604 343.192, 268.444 343.268, 268.151 343.328, 267.757 343.372, 267.260 343.400, 266.658 343.410, 265.949 343.402, 265.130 343.377, 264.199 343.332, 263.153 343.269, 261.992 343.206, 261.079 343.128, 260.179 343.037, 259.301 342.935, 258.454 342.826, 257.647 342.710, 256.889 342.591, 256.189 342.471, 255.556 342.352, 254.999 342.236, 254.527 342.126, 254.149 342.023, 253.873 338.577, 246.031 337.779, 244.197 337.006, 242.382 336.251, 240.580 335.507, 238.782 334.768, 236.983 334.028, 235.175 333.281, 233.354 332.523, 231.512 331.746, 229.646 330.947, 227.750 330.121, 225.819 329.261, 223.849 329.125, 223.572 328.993, 223.377 328.870, 223.269 328.757, 223.252 " />
            <path fill="none" stroke-width="3.0" stroke-linecap="butt" stroke-opacity="1.0" stroke="rgb(0, 0, 0)" stroke-linejoin="miter" d=" M 359.307, 407.147 359.246, 407.122 359.176, 407.013 359.099, 406.827 359.005, 406.521 358.906, 406.126 358.802, 405.642 358.692, 405.070 358.575, 404.410 358.451, 403.665 358.318, 402.835 358.175, 401.921 358.023, 400.924 357.859, 399.846 357.684, 398.688 357.495, 397.449 356.156, 387.539 354.817, 377.630 353.478, 367.720 352.139, 357.810 350.800, 347.900 349.461, 337.990 348.122, 328.080 346.783, 318.170 345.444, 308.260 344.105, 298.350 343.079, 290.757 342.880, 289.274 342.689, 287.840 342.508, 286.455 342.337, 285.120 342.178, 283.836 342.030, 282.603 341.894, 281.421 341.772, 280.290 341.664, 279.212 341.570, 278.187 341.492, 277.215 341.429, 276.297 341.362, 274.970 341.327, 273.764 341.326, 272.680 341.358, 271.721 341.424, 270.888 341.525, 270.182 341.660, 269.606 341.830, 269.161 342.036, 268.851 342.278, 268.677 342.557, 268.641 " />
            <path fill="none" stroke-width="3.0" stroke-linecap="butt" stroke-opacity="1.0" stroke="rgb(0, 0, 0)" stroke-linejoin="miter" d=" M 380.398, 576.694 380.536, 576.649 380.656, 576.486 380.754, 576.201 380.827, 575.793 380.870, 575.259 380.880, 574.600 380.854, 573.811 380.784, 572.677 380.696, 571.549 380.591, 570.427 380.469, 569.311 380.329, 568.203 380.174, 567.102 380.002, 566.009 379.815, 564.924 379.612, 563.848 379.395, 562.780 379.164, 561.722 378.918, 560.673 378.164, 557.453 377.506, 554.489 376.934, 551.719 376.438, 549.081 376.008, 546.517 375.637, 543.966 375.313, 541.368 375.030, 538.665 374.777, 535.799 374.546, 532.708 374.328, 529.335 374.114, 525.620 373.568, 515.635 373.239, 509.628 373.150, 508.004 373.028, 505.771 372.482, 495.786 371.935, 485.800 371.388, 475.815 370.842, 465.830 370.295, 455.845 369.749, 445.860 369.585, 442.866 369.525, 441.776 368.979, 431.791 368.432, 421.806 368.299, 419.365 367.752, 409.380 367.591, 406.441 367.045, 396.456 366.498, 386.471 365.952, 376.486 365.405, 366.501 364.859, 356.516 364.312, 346.531 364.068, 342.075 363.847, 337.769 363.691, 334.052 363.602, 330.892 363.584, 328.257 363.640, 326.116 363.774, 324.437 363.989, 323.187 364.289, 322.335 364.677, 321.848 365.159, 321.695 " />
            <path fill="none" stroke-width="3.0" stroke-linecap="butt" stroke-opacity="1.0" stroke="rgb(0, 0, 0)" stroke-linejoin="miter" d=" M 359.583, 420.124 359.666, 420.120 359.753, 420.194 359.842, 420.345 359.933, 420.572 360.014, 420.836 360.097, 421.174 360.180, 421.585 360.264, 422.067 360.348, 422.622 360.431, 423.247 360.513, 423.941 360.592, 424.705 360.668, 425.537 360.741, 426.435 360.810, 427.400 360.873, 428.430 361.204, 434.203 361.532, 439.940 361.677, 442.484 361.739, 443.575 361.857, 445.642 362.179, 451.310 362.497, 456.945 362.811, 462.549 363.120, 468.122 363.425, 473.665 363.724, 479.179 364.018, 484.665 364.305, 490.122 364.586, 495.552 364.742, 498.688 364.867, 501.435 364.953, 503.801 364.995, 505.797 364.991, 506.567 364.986, 507.431 364.919, 508.712 364.903, 508.823 364.788, 509.647 364.586, 510.246 364.307, 510.518 " />
            <path fill="none" stroke-width="3.0" stroke-linecap="butt" stroke-opacity="1.0" stroke="rgb(0, 0, 0)" stroke-linejoin="miter" d=" M 344.707, 444.014 342.154, 444.244 342.049, 444.294 341.958, 444.441 341.886, 444.707 341.838, 445.113 341.817, 445.684 341.829, 446.440 341.878, 447.404 341.942, 448.257 342.028, 449.154 342.136, 450.088 342.265, 451.052 342.415, 452.040 342.584, 453.045 342.773, 454.058 342.982, 455.075 343.209, 456.086 343.454, 457.087 343.717, 458.069 343.997, 459.025 344.650, 461.117 345.304, 463.147 345.961, 465.132 346.621, 467.089 347.285, 469.034 347.956, 470.984 348.635, 472.958 349.322, 474.971 350.019, 477.041 350.727, 479.186 351.448, 481.425 352.183, 483.774 352.745, 485.629 353.298, 487.500 353.842, 489.383 354.381, 491.277 354.915, 493.178 355.448, 495.084 355.982, 496.992 356.518, 498.901 357.059, 500.807 357.608, 502.709 358.167, 504.605 358.738, 506.494 358.836, 506.777 358.931, 506.983 359.021, 507.108 359.105, 507.150 359.180, 507.106 359.245, 506.972 359.298, 506.744 359.337, 506.421 359.360, 505.998 359.365, 505.473 359.351, 504.842 359.315, 504.102 359.247, 503.056 359.170, 502.035 359.083, 501.041 358.986, 500.074 358.880, 499.133 358.766, 498.219 358.643, 497.331 358.513, 496.471 358.374, 495.637 358.228, 494.830 358.074, 494.050 357.914, 493.298 357.529, 491.611 357.176, 489.979 356.853, 488.401 356.560, 486.873 356.294, 485.393 356.057, 483.959 355.845, 482.569 355.660, 481.220 355.499, 479.910 355.361, 478.638 355.247, 477.402 355.155, 476.198 355.108, 475.326 355.071, 474.475 355.046, 473.643 355.030, 472.828 355.025, 472.029 355.030, 471.243 355.044, 470.469 355.068, 469.705 355.102, 468.949 355.145, 468.199 355.196, 467.453 355.256, 466.710 356.117, 456.747 356.977, 446.784 357.219, 443.983 357.315, 442.877 358.175, 432.914 359.022, 423.114 359.081, 422.442 359.143, 421.858 359.208, 421.359 359.277, 420.946 359.349, 420.617 359.424, 420.372 359.502, 420.207 359.583, 420.124 " />
            <path fill="none" stroke-width="3.0" stroke-linecap="butt" stroke-opacity="1.0" stroke="rgb(0, 0, 0)" stroke-linejoin="miter" d=" M 364.307, 510.518 363.946, 510.470 363.496, 510.115 362.953, 509.461 362.819, 509.325 362.686, 509.201 362.557, 509.109 362.436, 509.069 " />
            <path fill="none" stroke-width="3.0" stroke-linecap="butt" stroke-opacity="1.0" stroke="rgb(0, 0, 0)" stroke-linejoin="miter" d=" M 343.598, 445.213 343.197, 445.047 342.747, 444.645 342.635, 444.553 342.515, 444.444 342.392, 444.341 342.270, 444.267 342.154, 444.244 " />
            <path fill="none" stroke-width="3.0" stroke-linecap="butt" stroke-opacity="1.0" stroke="rgb(0, 0, 0)" stroke-linejoin="miter" d=" M 342.994, 268.740 347.927, 268.415 " />
            <path fill="none" stroke-width="3.0" stroke-linecap="butt" stroke-opacity="1.0" stroke="rgb(0, 0, 0)" stroke-linejoin="miter" d=" M 359.105, 507.150 364.991, 506.567 " />
        </g>
    </g>
</svg>
