<?xml version='1.0' encoding='ascii'?>
<svg xmlns="http://www.w3.org/2000/svg" version="1.1" width="1080" height="1080">
    <g id="View Layer_LineSet" xmlns:inkscape="http://www.inkscape.org/namespaces/inkscape" inkscape:groupmode="lineset" inkscape:label="View Layer_LineSet">
        <g xmlns:inkscape="http://www.inkscape.org/namespaces/inkscape" inkscape:groupmode="layer" id="strokes" inkscape:label="strokes">
            <path fill="none" stroke-width="3.0" stroke-linecap="butt" stroke-opacity="1.0" stroke="rgb(0, 0, 0)" stroke-linejoin="miter" d=" M 364.011, 324.518 365.102, 324.632 366.375, 325.012 366.669, 325.042 376.612, 323.973 386.554, 322.904 396.497, 321.835 406.440, 320.766 416.382, 319.697 426.325, 318.628 436.268, 317.558 446.210, 316.489 456.153, 315.420 465.892, 314.373 471.988, 313.718 481.930, 312.648 491.707, 311.597 501.650, 310.528 511.593, 309.459 517.345, 308.840 523.885, 308.137 524.272, 308.051 524.626, 307.860 524.948, 307.561 525.235, 307.154 525.487, 306.633 525.702, 305.998 525.879, 305.246 526.018, 304.373 526.117, 303.378 526.175, 302.258 526.191, 301.010 526.157, 300.028 526.069, 299.057 525.932, 298.106 525.752, 297.186 525.537, 296.307 525.291, 295.479 525.021, 294.713 524.734, 294.018 524.435, 293.404 524.131, 292.881 523.827, 292.459 523.531, 292.147 521.872, 290.747 520.116, 289.337 518.287, 287.923 516.412, 286.512 514.514, 285.109 512.618, 283.721 510.746, 282.353 508.922, 281.009 507.166, 279.694 505.501, 278.414 503.947, 277.171 502.525, 275.969 501.119, 274.708 499.556, 273.251 497.869, 271.641 496.092, 269.918 494.256, 268.123 492.394, 266.294 490.536, 264.471 488.713, 262.690 486.954, 260.989 485.286, 259.403 483.740, 257.967 482.341, 256.717 482.039, 256.497 481.761, 256.380 481.507, 256.369 471.552, 257.323 468.185, 257.646 458.230, 258.600 450.744, 259.318 440.790, 260.272 430.835, 261.226 420.881, 262.180 410.926, 263.134 400.972, 264.089 391.018, 265.043 381.063, 265.997 371.109, 266.951 361.155, 267.905 351.200, 268.859 341.246, 269.813 334.274, 270.482 334.119, 270.571 333.988, 270.771 333.881, 271.081 333.822, 271.384 333.799, 271.502 333.795, 271.540 333.742, 272.035 333.712, 272.681 333.708, 273.440 333.731, 274.313 333.783, 275.300 333.877, 276.599 333.988, 277.786 334.117, 278.876 334.263, 279.879 334.427, 280.809 334.610, 281.678 334.810, 282.499 335.029, 283.284 335.268, 284.045 335.525, 284.795 335.801, 285.546 336.097, 286.310 337.400, 289.491 338.542, 292.452 339.536, 295.250 340.395, 297.943 341.131, 300.587 341.757, 303.242 342.287, 305.967 342.734, 308.821 343.114, 311.863 343.439, 315.151 343.724, 318.744 343.984, 322.701 344.589, 332.682 345.195, 342.664 345.800, 352.646 346.405, 362.627 347.010, 372.609 347.615, 382.591 348.220, 392.572 348.825, 402.554 349.066, 406.524 349.118, 407.537 349.146, 408.410 349.150, 409.149 349.132, 409.761 349.093, 410.252 349.036, 410.628 348.962, 410.895 348.872, 411.060 348.768, 411.129 " />
            <path fill="none" stroke-width="3.0" stroke-linecap="butt" stroke-opacity="1.0" stroke="rgb(0, 0, 0)" stroke-linejoin="miter" d=" M 468.185, 257.646 468.351, 257.216 468.511, 256.616 468.640, 255.912 468.737, 255.102 468.799, 254.184 468.827, 253.156 468.819, 252.014 468.776, 251.120 468.690, 250.240 468.566, 249.383 468.408, 248.559 468.222, 247.775 468.013, 247.041 467.786, 246.364 467.546, 245.754 467.298, 245.220 467.048, 244.769 466.799, 244.409 466.558, 244.151 459.025, 237.574 458.203, 236.856 456.271, 235.147 454.402, 233.453 452.579, 231.769 450.787, 230.087 449.007, 228.402 447.226, 226.708 445.429, 225.001 443.599, 223.275 441.724, 221.526 439.790, 219.750 437.783, 217.942 435.692, 216.099 435.353, 215.842 435.018, 215.666 434.693, 215.574 434.383, 215.571 424.420, 216.434 414.457, 217.296 404.494, 218.158 394.532, 219.020 384.569, 219.883 374.606, 220.745 364.643, 221.607 354.681, 222.469 344.718, 223.332 334.755, 224.194 324.792, 225.056 314.830, 225.918 304.867, 226.781 299.298, 227.262 299.101, 227.347 298.927, 227.534 298.780, 227.826 298.663, 228.229 298.581, 228.747 298.538, 229.386 298.537, 230.151 298.582, 231.046 298.696, 232.275 298.854, 233.459 299.048, 234.596 299.273, 235.682 299.523, 236.712 299.792, 237.683 300.075, 238.592 300.364, 239.433 300.654, 240.204 300.939, 240.899 301.213, 241.515 301.469, 242.047 302.877, 244.743 304.233, 247.586 305.539, 250.565 306.798, 253.671 308.011, 256.892 309.181, 260.219 310.310, 263.641 311.400, 267.147 312.454, 270.727 313.475, 274.370 314.466, 278.067 315.430, 281.807 316.922, 287.825 318.419, 294.060 319.920, 300.489 321.427, 307.089 322.943, 313.839 324.468, 320.715 326.006, 327.696 327.557, 334.761 329.125, 341.889 330.711, 349.058 332.318, 356.250 333.948, 363.443 334.209, 364.643 334.436, 365.832 334.628, 367.003 334.786, 368.152 334.908, 369.272 334.994, 370.358 335.045, 371.403 335.059, 372.403 335.037, 373.352 334.978, 374.244 334.882, 375.074 334.748, 375.836 332.794, 385.643 330.839, 395.450 328.885, 405.257 326.930, 415.064 324.976, 424.871 323.021, 434.678 321.527, 442.176 321.216, 443.653 320.892, 445.031 320.545, 446.297 320.171, 447.436 319.761, 448.434 319.309, 449.278 319.294, 449.297 318.808, 449.952 318.252, 450.444 317.634, 450.740 " />
            <path fill="none" stroke-width="3.0" stroke-linecap="butt" stroke-opacity="1.0" stroke="rgb(0, 0, 0)" stroke-linejoin="miter" d=" M 354.580, 513.109 349.819, 513.800 349.607, 513.840 349.417, 513.968 349.254, 514.204 349.123, 514.566 349.028, 515.074 348.976, 515.746 348.970, 516.602 349.015, 517.660 349.097, 518.582 349.226, 519.545 349.397, 520.537 349.604, 521.541 349.842, 522.545 350.105, 523.534 350.388, 524.493 350.685, 525.408 350.991, 526.264 351.300, 527.048 351.607, 527.743 351.906, 528.336 353.305, 530.849 354.624, 533.126 355.870, 535.196 357.050, 537.090 358.172, 538.840 359.242, 540.477 360.270, 542.034 361.263, 543.543 362.229, 545.039 363.176, 546.554 364.114, 548.123 365.050, 549.780 366.004, 551.586 366.949, 553.490 367.899, 555.497 368.869, 557.610 369.873, 559.834 370.927, 562.174 372.045, 564.634 373.245, 567.221 374.541, 569.941 375.951, 572.801 377.493, 575.811 379.185, 578.978 379.497, 579.489 379.813, 579.888 380.126, 580.176 380.429, 580.351 380.716, 580.410 390.591, 578.833 400.466, 577.256 410.341, 575.679 420.216, 574.102 430.091, 572.525 439.966, 570.948 449.840, 569.371 459.715, 567.794 469.590, 566.217 479.465, 564.640 489.340, 563.063 499.215, 561.486 509.090, 559.909 518.965, 558.332 525.620, 557.269 526.003, 557.193 526.352, 557.002 526.658, 556.696 526.912, 556.273 527.104, 555.734 527.225, 555.075 527.265, 554.298 527.235, 553.187 527.156, 552.086 527.028, 550.996 526.852, 549.916 526.630, 548.846 526.362, 547.788 526.049, 546.742 525.693, 545.707 525.294, 544.684 524.854, 543.673 524.374, 542.674 523.855, 541.688 522.257, 538.660 520.885, 535.864 519.718, 533.240 518.740, 530.731 517.933, 528.279 517.281, 525.826 516.768, 523.317 516.377, 520.694 516.093, 517.901 515.900, 514.882 515.783, 511.578 515.727, 507.933 515.648, 497.933 515.568, 487.934 515.488, 477.934 515.409, 467.934 515.329, 457.935 515.249, 447.935 515.170, 437.935 515.090, 427.935 515.011, 417.936 514.931, 407.936 514.851, 397.936 514.772, 387.937 514.692, 377.937 514.612, 367.937 514.533, 357.938 514.453, 347.938 514.374, 337.938 514.295, 328.044 514.301, 323.828 514.399, 320.183 514.603, 317.077 514.926, 314.479 515.381, 312.357 515.982, 310.679 516.743, 309.412 517.345, 308.840 " />
            <path fill="none" stroke-width="3.0" stroke-linecap="butt" stroke-opacity="1.0" stroke="rgb(0, 0, 0)" stroke-linejoin="miter" d=" M 366.669, 325.042 366.936, 324.967 367.176, 324.783 367.386, 324.488 367.541, 324.139 367.567, 324.080 367.718, 323.554 367.836, 322.909 367.922, 322.142 367.975, 321.250 367.993, 320.231 367.976, 319.082 367.922, 317.801 367.848, 316.790 367.736, 315.789 367.590, 314.807 367.417, 313.855 367.220, 312.944 367.004, 312.085 366.775, 311.289 366.537, 310.564 366.295, 309.923 366.054, 309.375 365.819, 308.931 365.594, 308.600 364.356, 307.105 363.048, 305.595 361.690, 304.080 360.300, 302.567 358.895, 301.062 357.491, 299.572 356.106, 298.103 354.756, 296.662 353.456, 295.254 352.222, 293.883 351.068, 292.555 350.008, 291.274 348.957, 289.933 347.786, 288.386 346.520, 286.678 345.185, 284.852 343.806, 282.949 342.408, 281.012 341.012, 279.081 339.644, 277.195 338.324, 275.393 337.075, 273.713 335.919, 272.192 335.293, 271.396 335.181, 271.253 334.875, 270.865 334.653, 270.629 334.452, 270.501 334.274, 270.482 " />
            <path fill="none" stroke-width="3.0" stroke-linecap="butt" stroke-opacity="1.0" stroke="rgb(0, 0, 0)" stroke-linejoin="miter" d=" M 323.501, 272.375 324.100, 272.463 324.331, 272.449 324.539, 272.342 324.606, 272.269 324.723, 272.139 324.883, 271.838 325.017, 271.436 325.125, 270.932 325.207, 270.322 325.260, 269.605 325.285, 268.778 325.281, 267.839 325.247, 266.786 325.183, 265.616 325.106, 264.698 325.001, 263.794 324.869, 262.912 324.716, 262.062 324.546, 261.253 324.362, 260.494 324.168, 259.794 323.969, 259.161 323.768, 258.606 323.570, 258.136 323.378, 257.760 323.196, 257.487 316.988, 249.758 315.553, 247.949 314.162, 246.158 312.805, 244.378 311.468, 242.602 310.141, 240.823 308.813, 239.036 307.473, 237.236 306.109, 235.415 304.714, 233.570 303.276, 231.695 301.786, 229.786 300.236, 227.840 299.987, 227.568 299.745, 227.377 299.514, 227.274 299.298, 227.262 " />
            <path fill="none" stroke-width="3.0" stroke-linecap="butt" stroke-opacity="1.0" stroke="rgb(0, 0, 0)" stroke-linejoin="miter" d=" M 348.768, 411.129 348.651, 411.108 348.524, 411.003 348.387, 410.821 348.221, 410.520 348.052, 410.129 347.877, 409.648 347.695, 409.078 347.505, 408.421 347.304, 407.678 347.091, 406.850 346.863, 405.938 346.621, 404.943 346.361, 403.867 346.082, 402.710 345.783, 401.474 343.734, 391.686 341.685, 381.898 339.636, 372.110 337.587, 362.322 335.538, 352.535 333.489, 342.747 331.440, 332.959 329.391, 323.171 327.342, 313.383 325.293, 303.595 323.429, 294.688 323.120, 293.201 322.825, 291.764 322.546, 290.376 322.285, 289.037 322.042, 287.749 321.819, 286.512 321.617, 285.326 321.438, 284.191 321.283, 283.108 321.154, 282.078 321.051, 281.101 320.976, 280.176 320.911, 278.839 320.904, 277.623 320.953, 276.528 321.061, 275.557 321.228, 274.711 321.454, 273.992 321.740, 273.402 322.087, 272.943 322.496, 272.617 322.967, 272.427 323.501, 272.375 " />
            <path fill="none" stroke-width="3.0" stroke-linecap="butt" stroke-opacity="1.0" stroke="rgb(0, 0, 0)" stroke-linejoin="miter" d=" M 380.716, 580.410 380.981, 580.352 381.216, 580.175 381.416, 579.878 381.573, 579.460 381.680, 578.918 381.731, 578.251 381.719, 577.459 381.641, 576.322 381.529, 575.192 381.383, 574.070 381.204, 572.957 380.993, 571.852 380.750, 570.757 380.477, 569.671 380.174, 568.594 379.841, 567.528 379.480, 566.471 379.092, 565.426 378.676, 564.391 377.399, 561.213 376.292, 558.285 375.338, 555.544 374.523, 552.929 373.831, 550.382 373.247, 547.842 372.758, 545.251 372.348, 542.550 372.005, 539.681 371.715, 536.584 371.463, 533.201 371.236, 529.471 370.680, 519.487 370.297, 512.626 370.198, 510.840 370.057, 508.320 369.500, 498.336 368.944, 488.351 368.387, 478.367 367.830, 468.382 367.274, 458.398 366.717, 448.413 366.488, 444.307 366.421, 443.103 365.864, 433.119 365.307, 423.134 365.250, 422.101 364.693, 412.116 364.529, 409.167 363.972, 399.182 363.415, 389.198 362.859, 379.213 362.302, 369.229 361.745, 359.244 361.189, 349.260 360.959, 345.136 360.745, 340.810 360.626, 337.072 360.609, 333.891 360.701, 331.236 360.911, 329.074 361.247, 327.372 361.716, 326.098 362.327, 325.219 363.089, 324.703 364.011, 324.518 " />
            <path fill="none" stroke-width="3.0" stroke-linecap="butt" stroke-opacity="1.0" stroke="rgb(0, 0, 0)" stroke-linejoin="miter" d=" M 348.667, 424.209 348.826, 424.199 348.987, 424.267 349.150, 424.413 349.313, 424.635 349.454, 424.895 349.595, 425.230 349.735, 425.638 349.872, 426.119 350.005, 426.672 350.133, 427.297 350.255, 427.992 350.369, 428.756 350.474, 429.590 350.570, 430.492 350.654, 431.460 350.725, 432.495 351.076, 438.297 351.425, 444.063 351.485, 445.066 351.557, 446.273 351.769, 449.794 352.109, 455.491 352.443, 461.155 352.771, 466.787 353.092, 472.389 353.405, 477.960 353.710, 483.503 354.005, 489.017 354.289, 494.503 354.563, 499.962 354.709, 503.115 354.814, 505.878 354.865, 508.260 354.849, 510.272 354.834, 510.524 354.752, 511.923 354.580, 513.109 354.563, 513.222 354.268, 514.178 353.855, 514.801 353.312, 515.099 " />
            <path fill="none" stroke-width="3.0" stroke-linecap="butt" stroke-opacity="1.0" stroke="rgb(0, 0, 0)" stroke-linejoin="miter" d=" M 319.294, 449.297 314.232, 449.963 314.027, 450.022 313.846, 450.178 313.696, 450.453 313.584, 450.868 313.517, 451.447 313.504, 452.211 313.550, 453.184 313.631, 454.041 313.753, 454.942 313.914, 455.879 314.114, 456.844 314.352, 457.832 314.628, 458.835 314.941, 459.845 315.290, 460.857 315.676, 461.862 316.096, 462.855 316.552, 463.827 317.042, 464.772 318.189, 466.834 319.341, 468.834 320.500, 470.789 321.667, 472.714 322.844, 474.626 324.032, 476.544 325.232, 478.483 326.447, 480.461 327.679, 482.497 328.928, 484.607 330.196, 486.809 331.485, 489.123 332.470, 490.951 333.434, 492.795 334.382, 494.653 335.318, 496.521 336.247, 498.397 337.172, 500.278 338.097, 502.160 339.028, 504.043 339.968, 505.923 340.923, 507.798 341.898, 509.665 342.896, 511.524 343.068, 511.801 343.239, 512.001 343.405, 512.120 343.562, 512.155 343.708, 512.104 343.838, 511.962 343.950, 511.728 344.040, 511.397 344.104, 510.968 344.140, 510.437 344.143, 509.801 344.111, 509.057 344.032, 508.005 343.933, 506.981 343.815, 505.984 343.677, 505.014 343.522, 504.073 343.348, 503.159 343.157, 502.272 342.949, 501.414 342.725, 500.584 342.485, 499.781 342.230, 499.006 341.961, 498.259 341.309, 496.588 340.714, 494.969 340.174, 493.402 339.688, 491.882 339.253, 490.409 338.869, 488.980 338.533, 487.593 338.244, 486.245 338.000, 484.935 337.800, 483.661 337.642, 482.421 337.525, 481.213 337.476, 480.335 337.447, 479.477 337.438, 478.638 337.448, 477.816 337.477, 477.009 337.524, 476.215 337.589, 475.431 337.672, 474.657 337.772, 473.890 337.890, 473.129 338.024, 472.371 338.175, 471.614 340.223, 461.826 342.272, 452.038 343.249, 447.367 343.511, 446.114 345.560, 436.326 347.455, 427.272 347.599, 426.589 347.746, 425.994 347.895, 425.486 348.045, 425.063 348.198, 424.726 348.353, 424.472 348.509, 424.300 348.667, 424.209 " />
            <path fill="none" stroke-width="3.0" stroke-linecap="butt" stroke-opacity="1.0" stroke="rgb(0, 0, 0)" stroke-linejoin="miter" d=" M 317.634, 450.740 316.947, 450.827 316.187, 450.691 315.346, 450.321 315.136, 450.237 314.912, 450.136 314.682, 450.042 314.453, 449.977 314.232, 449.963 " />
            <path fill="none" stroke-width="3.0" stroke-linecap="butt" stroke-opacity="1.0" stroke="rgb(0, 0, 0)" stroke-linejoin="miter" d=" M 353.312, 515.099 352.626, 515.084 351.787, 514.764 350.784, 514.151 350.535, 514.025 350.288, 513.912 350.047, 513.831 349.819, 513.800 " />
            <path fill="none" stroke-width="3.0" stroke-linecap="butt" stroke-opacity="1.0" stroke="rgb(0, 0, 0)" stroke-linejoin="miter" d=" M 324.331, 272.449 333.795, 271.540 " />
            <path fill="none" stroke-width="3.0" stroke-linecap="butt" stroke-opacity="1.0" stroke="rgb(0, 0, 0)" stroke-linejoin="miter" d=" M 343.562, 512.155 353.459, 510.723 354.834, 510.524 " />
        </g>
    </g>
</svg>
