<?xml version='1.0' encoding='ascii'?>
<svg xmlns="http://www.w3.org/2000/svg" version="1.1" width="1080" height="1080">
    <g id="View Layer_LineSet" xmlns:inkscape="http://www.inkscape.org/namespaces/inkscape" inkscape:groupmode="lineset" inkscape:label="View Layer_LineSet">
        <g xmlns:inkscape="http://www.inkscape.org/namespaces/inkscape" inkscape:groupmode="layer" id="strokes" inkscape:label="strokes">
            <path fill="none" stroke-width="3.0" stroke-linecap="butt" stroke-opacity="1.0" stroke="rgb(0, 0, 0)" stroke-linejoin="miter" d=" M 363.788, 327.375 365.391, 327.435 367.252, 327.754 367.685, 327.770 377.583, 326.346 387.481, 324.923 397.379, 323.499 407.277, 322.075 417.175, 320.652 427.073, 319.228 436.972, 317.805 445.134, 316.630 452.944, 315.507 462.842, 314.084 472.741, 312.660 477.961, 311.909 487.859, 310.486 497.757, 309.062 507.655, 307.638 510.651, 307.207 519.447, 305.942 519.944, 305.840 520.400, 305.635 520.814, 305.324 521.183, 304.906 521.507, 304.377 521.784, 303.735 522.012, 302.978 522.191, 302.102 522.318, 301.107 522.393, 299.988 522.413, 298.745 522.370, 297.767 522.257, 296.803 522.080, 295.861 521.850, 294.952 521.572, 294.085 521.256, 293.270 520.910, 292.518 520.540, 291.837 520.156, 291.237 519.764, 290.729 519.374, 290.320 518.993, 290.022 516.858, 288.693 514.598, 287.358 512.244, 286.023 509.829, 284.691 507.384, 283.369 504.940, 282.060 502.528, 280.770 500.175, 279.502 497.911, 278.260 495.763, 277.048 493.758, 275.869 491.922, 274.726 490.107, 273.522 488.088, 272.129 485.909, 270.588 483.613, 268.936 481.241, 267.214 478.833, 265.460 476.431, 263.710 474.073, 262.000 471.796, 260.368 469.638, 258.846 467.636, 257.470 465.824, 256.274 465.433, 256.065 465.073, 255.959 464.744, 255.957 454.825, 257.225 447.154, 258.206 437.235, 259.474 427.315, 260.741 425.208, 261.011 415.289, 262.279 405.369, 263.547 395.450, 264.814 385.531, 266.082 375.611, 267.350 365.692, 268.618 355.773, 269.886 345.854, 271.154 335.934, 272.422 326.015, 273.689 321.295, 274.293 321.063, 274.390 320.864, 274.598 320.820, 274.681 320.698, 274.915 320.698, 274.916 320.566, 275.345 320.468, 275.886 320.407, 276.539 320.382, 277.305 320.394, 278.185 320.445, 279.180 320.551, 280.487 320.685, 281.681 320.848, 282.775 321.039, 283.782 321.258, 284.713 321.505, 285.582 321.781, 286.402 322.086, 287.184 322.418, 287.942 322.779, 288.687 323.169, 289.432 323.587, 290.190 325.432, 293.340 327.045, 296.276 328.443, 299.053 329.644, 301.730 330.663, 304.364 331.520, 307.014 332.234, 309.738 332.822, 312.596 333.305, 315.647 333.702, 318.949 334.032, 322.561 334.315, 326.540 334.951, 336.520 335.586, 346.500 336.222, 356.480 336.857, 366.460 337.493, 376.439 338.129, 386.419 338.764, 396.399 339.400, 406.379 339.685, 410.857 339.737, 411.876 339.755, 412.755 339.742, 413.501 339.700, 414.120 339.631, 414.617 339.537, 415.000 339.421, 415.274 339.284, 415.446 339.128, 415.521 " />
            <path fill="none" stroke-width="3.0" stroke-linecap="butt" stroke-opacity="1.0" stroke="rgb(0, 0, 0)" stroke-linejoin="miter" d=" M 447.154, 258.206 447.433, 257.811 447.683, 257.305 447.892, 256.698 448.059, 255.989 448.184, 255.174 448.266, 254.253 448.302, 253.222 448.292, 252.080 448.237, 251.187 448.125, 250.309 447.964, 249.456 447.759, 248.637 447.518, 247.859 447.247, 247.132 446.952, 246.463 446.641, 245.862 446.319, 245.336 445.993, 244.894 445.671, 244.543 445.358, 244.293 436.953, 238.875 434.502, 237.296 431.990, 235.654 429.559, 234.024 427.188, 232.402 424.854, 230.781 422.538, 229.156 420.219, 227.522 417.877, 225.874 415.493, 224.208 413.049, 222.520 410.527, 220.806 407.910, 219.063 405.181, 217.287 404.739, 217.041 404.302, 216.876 403.878, 216.795 403.473, 216.803 393.538, 217.946 383.604, 219.089 373.669, 220.231 363.735, 221.374 353.800, 222.517 343.866, 223.660 333.931, 224.803 323.997, 225.945 314.062, 227.088 304.128, 228.231 294.193, 229.374 284.259, 230.516 274.324, 231.659 270.507, 232.098 270.212, 232.193 269.948, 232.388 269.721, 232.690 269.537, 233.103 269.402, 233.632 269.321, 234.281 269.299, 235.055 269.344, 235.959 269.482, 237.199 269.686, 238.393 269.946, 239.536 270.253, 240.625 270.599, 241.658 270.974, 242.631 271.371, 243.539 271.780, 244.379 272.192, 245.147 272.598, 245.839 272.990, 246.451 273.357, 246.979 275.382, 249.648 277.326, 252.468 279.192, 255.427 280.984, 258.516 282.704, 261.723 284.357, 265.039 285.946, 268.451 287.475, 271.950 288.949, 275.525 290.372, 279.165 291.748, 282.859 293.083, 286.598 295.144, 292.615 297.204, 298.850 299.266, 305.280 301.333, 311.882 303.407, 318.632 305.493, 325.508 307.592, 332.488 309.710, 339.550 311.850, 346.673 314.015, 353.836 316.211, 361.018 318.441, 368.199 318.796, 369.397 319.101, 370.586 319.356, 371.759 319.559, 372.911 319.711, 374.036 319.812, 375.128 319.860, 376.181 319.856, 377.191 319.798, 378.151 319.688, 379.055 319.525, 379.898 319.308, 380.676 316.314, 390.217 313.321, 399.758 310.327, 409.300 307.334, 418.841 304.340, 428.383 301.346, 437.924 298.353, 447.466 298.020, 448.528 297.521, 450.042 297.003, 451.457 296.457, 452.760 295.872, 453.936 295.238, 454.971 294.829, 455.491 294.545, 455.853 293.784, 456.567 292.946, 457.100 292.020, 457.438 " />
            <path fill="none" stroke-width="3.0" stroke-linecap="butt" stroke-opacity="1.0" stroke="rgb(0, 0, 0)" stroke-linejoin="miter" d=" M 345.199, 517.718 337.755, 519.162 337.471, 519.304 337.224, 519.553 337.021, 519.928 336.869, 520.447 336.774, 521.130 336.744, 521.994 336.784, 523.060 336.882, 523.985 337.048, 524.950 337.275, 525.939 337.555, 526.940 337.881, 527.937 338.244, 528.917 338.637, 529.866 339.053, 530.770 339.482, 531.614 339.919, 532.384 340.354, 533.065 340.780, 533.643 342.781, 536.083 344.670, 538.290 346.456, 540.293 348.148, 542.122 349.757, 543.810 351.294, 545.387 352.769, 546.885 354.194, 548.338 355.579, 549.779 356.937, 551.240 358.279, 552.757 359.616, 554.362 360.974, 556.115 362.317, 557.968 363.665, 559.924 365.038, 561.986 366.460, 564.156 367.951, 566.439 369.534, 568.838 371.233, 571.359 373.070, 574.006 375.071, 576.786 377.261, 579.706 379.667, 582.773 380.112, 583.265 380.566, 583.644 381.018, 583.911 381.459, 584.064 381.880, 584.102 382.270, 584.025 392.049, 581.934 401.828, 579.844 411.607, 577.754 421.387, 575.664 431.166, 573.574 440.945, 571.484 450.724, 569.394 460.503, 567.304 470.282, 565.214 480.061, 563.124 489.841, 561.034 499.620, 558.944 509.399, 556.854 519.178, 554.764 522.151, 554.128 522.601, 553.917 522.995, 553.592 523.322, 553.155 523.569, 552.605 523.724, 551.941 523.776, 551.164 523.738, 550.058 523.636, 548.965 523.471, 547.885 523.245, 546.819 522.959, 545.766 522.614, 544.728 522.212, 543.703 521.754, 542.693 521.241, 541.697 520.675, 540.716 520.057, 539.749 519.389, 538.797 517.333, 535.874 515.565, 533.168 514.063, 530.621 512.804, 528.177 511.765, 525.778 510.925, 523.370 510.264, 520.896 509.760, 518.302 509.394, 515.532 509.146, 512.530 508.996, 509.240 508.924, 505.605 508.822, 495.606 508.721, 485.606 508.619, 475.607 508.517, 465.607 508.415, 455.608 508.313, 445.608 508.211, 435.609 508.109, 425.609 508.008, 415.610 507.906, 405.610 507.804, 395.611 507.702, 385.611 507.600, 375.612 507.498, 365.612 507.396, 355.613 507.295, 345.613 507.193, 335.614 507.097, 326.200 507.105, 321.995 507.232, 318.355 507.495, 315.249 507.912, 312.644 508.498, 310.508 509.273, 308.808 510.253, 307.513 510.651, 307.207 " />
            <path fill="none" stroke-width="3.0" stroke-linecap="butt" stroke-opacity="1.0" stroke="rgb(0, 0, 0)" stroke-linejoin="miter" d=" M 367.685, 327.770 368.080, 327.681 368.436, 327.484 368.754, 327.176 369.030, 326.756 369.092, 326.613 369.264, 326.219 369.455, 325.564 369.600, 324.787 369.700, 323.887 369.753, 322.860 369.757, 321.704 369.711, 320.417 369.627, 319.403 369.487, 318.400 369.298, 317.418 369.067, 316.469 368.800, 315.561 368.505, 314.707 368.188, 313.916 367.856, 313.198 367.517, 312.564 367.177, 312.024 366.842, 311.588 366.520, 311.266 364.736, 309.820 362.851, 308.363 360.891, 306.902 358.882, 305.444 356.851, 303.995 354.822, 302.560 352.820, 301.146 350.867, 299.758 348.987, 298.399 347.202, 297.076 345.534, 295.791 344.004, 294.550 342.488, 293.246 340.799, 291.741 338.975, 290.077 337.051, 288.297 335.064, 286.441 333.048, 284.551 331.036, 282.667 329.062, 280.826 327.158, 279.068 325.355, 277.429 323.684, 275.945 322.249, 274.716 322.174, 274.653 322.001, 274.530 321.851, 274.425 321.558, 274.304 321.295, 274.293 " />
            <path fill="none" stroke-width="3.0" stroke-linecap="butt" stroke-opacity="1.0" stroke="rgb(0, 0, 0)" stroke-linejoin="miter" d=" M 304.503, 276.768 305.297, 276.691 306.182, 276.753 306.525, 276.729 306.836, 276.611 307.056, 276.442 307.114, 276.398 307.358, 276.086 307.567, 275.674 307.740, 275.160 307.876, 274.540 307.974, 273.813 308.032, 272.976 308.050, 272.028 308.027, 270.965 307.961, 269.786 307.872, 268.862 307.738, 267.952 307.566, 267.067 307.361, 266.215 307.129, 265.405 306.876, 264.646 306.607, 263.947 306.328, 263.317 306.045, 262.764 305.763, 262.298 305.488, 261.927 305.225, 261.659 297.559, 255.238 296.218, 254.116 294.134, 252.348 292.116, 250.596 290.146, 248.854 288.207, 247.114 286.282, 245.372 284.354, 243.620 282.409, 241.854 280.429, 240.069 278.402, 238.260 276.311, 236.422 274.144, 234.551 271.888, 232.644 271.524, 232.379 271.169, 232.196 270.828, 232.101 270.507, 232.098 " />
            <path fill="none" stroke-width="3.0" stroke-linecap="butt" stroke-opacity="1.0" stroke="rgb(0, 0, 0)" stroke-linejoin="miter" d=" M 382.270, 584.025 382.620, 583.829 382.920, 583.516 383.161, 583.082 383.332, 582.529 383.424, 581.854 383.427, 581.056 383.341, 579.916 383.204, 578.787 383.018, 577.668 382.784, 576.559 382.502, 575.462 382.173, 574.376 381.799, 573.302 381.381, 572.240 380.919, 571.189 380.416, 570.152 379.872, 569.126 379.288, 568.114 377.491, 565.004 375.938, 562.133 374.606, 559.439 373.473, 556.863 372.520, 554.345 371.726, 551.826 371.072, 549.250 370.538, 546.556 370.107, 543.688 369.758, 540.587 369.473, 537.194 369.234, 533.451 368.670, 523.467 368.209, 515.318 368.094, 513.281 367.927, 510.330 367.363, 500.346 366.799, 490.362 366.235, 480.378 365.671, 470.394 365.107, 460.410 364.543, 450.425 364.225, 444.788 364.145, 443.374 363.581, 433.390 363.083, 424.582 362.519, 414.598 362.354, 411.661 361.790, 401.677 361.226, 391.693 360.661, 381.709 360.098, 371.725 359.533, 361.741 358.969, 351.757 358.774, 348.300 358.569, 343.952 358.489, 340.192 358.544, 336.988 358.747, 334.308 359.111, 332.119 359.648, 330.387 360.371, 329.080 361.292, 328.165 362.427, 327.607 363.788, 327.375 " />
            <path fill="none" stroke-width="3.0" stroke-linecap="butt" stroke-opacity="1.0" stroke="rgb(0, 0, 0)" stroke-linejoin="miter" d=" M 339.128, 415.521 338.957, 415.507 338.771, 415.409 338.574, 415.233 338.337, 414.939 338.097, 414.553 337.851, 414.078 337.597, 413.514 337.333, 412.862 337.055, 412.123 336.761, 411.300 336.449, 410.392 336.116, 409.402 335.760, 408.330 335.377, 407.179 334.967, 405.948 332.231, 396.330 329.495, 386.711 326.760, 377.093 324.024, 367.474 321.288, 357.856 318.552, 348.237 315.816, 338.619 313.081, 329.000 310.345, 319.382 307.609, 309.763 304.618, 299.248 304.198, 297.760 303.798, 296.321 303.420, 294.930 303.067, 293.590 302.740, 292.299 302.441, 291.059 302.172, 289.869 301.936, 288.730 301.734, 287.643 301.568, 286.607 301.441, 285.624 301.354, 284.692 301.292, 283.344 301.311, 282.114 301.413, 281.006 301.598, 280.019 301.867, 279.156 302.221, 278.419 302.660, 277.810 303.186, 277.330 303.800, 276.982 304.503, 276.768 " />
            <path fill="none" stroke-width="3.0" stroke-linecap="butt" stroke-opacity="1.0" stroke="rgb(0, 0, 0)" stroke-linejoin="miter" d=" M 338.647, 428.729 338.882, 428.709 339.118, 428.769 339.354, 428.906 339.590, 429.121 339.792, 429.375 339.991, 429.704 340.187, 430.108 340.377, 430.585 340.559, 431.135 340.732, 431.758 340.894, 432.452 341.043, 433.217 341.178, 434.052 341.295, 434.956 341.395, 435.929 341.474, 436.969 341.845, 442.803 342.125, 447.224 342.212, 448.601 342.215, 448.644 342.575, 454.364 342.931, 460.092 343.281, 465.788 343.621, 471.451 343.953, 477.084 344.273, 482.687 344.581, 488.261 344.876, 493.807 345.157, 499.326 345.422, 504.817 345.557, 507.990 345.642, 510.772 345.657, 513.173 345.602, 514.639 345.582, 515.205 345.398, 516.877 345.199, 517.718 345.086, 518.201 344.626, 519.187 344.001, 519.843 343.191, 520.182 " />
            <path fill="none" stroke-width="3.0" stroke-linecap="butt" stroke-opacity="1.0" stroke="rgb(0, 0, 0)" stroke-linejoin="miter" d=" M 294.829, 455.491 286.987, 456.862 286.682, 456.935 286.408, 457.105 286.178, 457.392 286.001, 457.820 285.887, 458.410 285.847, 459.185 285.891, 460.167 285.990, 461.031 286.147, 461.936 286.363, 462.874 286.635, 463.840 286.964, 464.825 287.348, 465.823 287.787, 466.827 288.280, 467.829 288.826, 468.823 289.426, 469.802 290.077, 470.757 290.781, 471.683 292.432, 473.698 294.092, 475.650 295.762, 477.554 297.445, 479.428 299.142, 481.288 300.855, 483.152 302.586, 485.037 304.337, 486.960 306.111, 488.939 307.908, 490.992 309.732, 493.137 311.583, 495.393 312.994, 497.177 314.375, 498.978 315.732, 500.794 317.070, 502.621 318.397, 504.456 319.717, 506.295 321.039, 508.137 322.368, 509.978 323.711, 511.815 325.076, 513.645 326.469, 515.467 327.898, 517.277 328.146, 517.546 328.393, 517.736 328.635, 517.845 328.867, 517.870 329.084, 517.808 329.280, 517.656 329.451, 517.412 329.592, 517.072 329.698, 516.634 329.764, 516.095 329.786, 515.452 329.757, 514.702 329.667, 513.645 329.547, 512.616 329.398, 511.617 329.219, 510.647 329.013, 509.706 328.779, 508.794 328.519, 507.912 328.234, 507.058 327.923, 506.234 327.589, 505.439 327.233, 504.673 326.854, 503.936 325.932, 502.290 325.093, 500.694 324.335, 499.146 323.655, 497.642 323.050, 496.182 322.517, 494.763 322.056, 493.383 321.662, 492.040 321.335, 490.732 321.071, 489.457 320.869, 488.213 320.726, 487.000 320.677, 486.115 320.657, 485.251 320.664, 484.403 320.700, 483.572 320.763, 482.754 320.853, 481.948 320.969, 481.152 321.112, 480.364 321.280, 479.582 321.473, 478.805 321.691, 478.030 321.933, 477.256 325.044, 467.752 328.154, 458.248 330.633, 450.673 331.133, 449.145 334.243, 439.641 336.779, 431.893 337.010, 431.195 337.241, 430.585 337.474, 430.064 337.707, 429.628 337.941, 429.278 338.176, 429.013 338.411, 428.830 338.647, 428.729 " />
            <path fill="none" stroke-width="3.0" stroke-linecap="butt" stroke-opacity="1.0" stroke="rgb(0, 0, 0)" stroke-linejoin="miter" d=" M 292.020, 457.438 290.999, 457.568 289.873, 457.479 288.633, 457.156 288.324, 457.084 287.993, 456.996 287.654, 456.915 287.315, 456.863 286.987, 456.862 " />
            <path fill="none" stroke-width="3.0" stroke-linecap="butt" stroke-opacity="1.0" stroke="rgb(0, 0, 0)" stroke-linejoin="miter" d=" M 343.191, 520.182 342.180, 520.212 340.950, 519.947 339.485, 519.396 339.120, 519.286 338.758, 519.189 338.405, 519.123 338.068, 519.107 337.755, 519.162 " />
            <path fill="none" stroke-width="3.0" stroke-linecap="butt" stroke-opacity="1.0" stroke="rgb(0, 0, 0)" stroke-linejoin="miter" d=" M 306.525, 276.729 316.444, 275.459 320.698, 274.915 " />
            <path fill="none" stroke-width="3.0" stroke-linecap="butt" stroke-opacity="1.0" stroke="rgb(0, 0, 0)" stroke-linejoin="miter" d=" M 328.867, 517.870 338.686, 515.975 345.602, 514.639 " />
        </g>
    </g>
</svg>
