<?xml version='1.0' encoding='ascii'?>
<svg xmlns="http://www.w3.org/2000/svg" version="1.1" width="1080" height="1080">
    <g id="View Layer_LineSet" xmlns:inkscape="http://www.inkscape.org/namespaces/inkscape" inkscape:groupmode="lineset" inkscape:label="View Layer_LineSet">
        <g xmlns:inkscape="http://www.inkscape.org/namespaces/inkscape" inkscape:groupmode="layer" id="strokes" inkscape:label="strokes">
            <path fill="none" stroke-width="3.0" stroke-linecap="butt" stroke-opacity="1.0" stroke="rgb(0, 0, 0)" stroke-linejoin="miter" d=" M 362.724, 330.525 364.518, 330.231 366.624, 330.219 369.064, 330.458 369.631, 330.455 379.467, 328.650 389.303, 326.846 399.139, 325.042 408.975, 323.237 418.810, 321.433 424.947, 320.307 434.327, 318.586 444.163, 316.782 453.998, 314.978 463.963, 313.150 473.799, 311.345 483.635, 309.541 493.471, 307.737 503.046, 305.980 512.882, 304.176 514.307, 303.914 514.909, 303.793 515.461, 303.570 515.962, 303.244 516.409, 302.813 516.800, 302.273 517.135, 301.622 517.411, 300.859 517.627, 299.979 517.781, 298.982 517.871, 297.865 517.895, 296.624 517.843, 295.652 517.705, 294.695 517.492, 293.763 517.213, 292.866 516.877, 292.012 516.494, 291.213 516.075, 290.476 515.627, 289.811 515.162, 289.228 514.688, 288.736 514.215, 288.343 513.753, 288.060 511.169, 286.817 508.431, 285.572 505.578, 284.328 502.651, 283.091 499.686, 281.864 496.722, 280.650 493.794, 279.452 490.938, 278.274 488.188, 277.119 485.579, 275.988 483.142, 274.885 480.910, 273.811 478.703, 272.675 476.248, 271.358 473.597, 269.898 470.802, 268.331 467.914, 266.697 464.982, 265.030 462.055, 263.367 459.180, 261.743 456.404, 260.191 453.773, 258.747 451.330, 257.442 449.119, 256.309 448.642, 256.113 448.202, 256.021 447.800, 256.031 437.929, 257.633 428.059, 259.236 419.558, 260.616 409.687, 262.218 400.080, 263.777 390.209, 265.380 380.339, 266.982 370.468, 268.585 360.597, 270.187 350.726, 271.789 340.855, 273.392 330.985, 274.994 321.114, 276.596 311.243, 278.199 309.385, 278.500 309.077, 278.609 308.809, 278.826 308.584, 279.154 308.401, 279.593 308.263, 280.143 308.170, 280.805 308.124, 281.581 308.125, 282.469 308.176, 283.472 308.293, 284.788 308.450, 285.989 308.646, 287.088 308.882, 288.097 309.155, 289.029 309.468, 289.897 309.819, 290.713 310.208, 291.491 310.635, 292.242 311.100, 292.980 311.603, 293.716 312.143, 294.464 314.529, 297.569 316.611, 300.466 318.412, 303.211 319.953, 305.863 321.255, 308.478 322.342, 311.116 323.237, 313.836 323.965, 316.695 324.551, 319.753 325.018, 323.069 325.392, 326.700 325.697, 330.704 326.360, 340.682 327.023, 350.660 327.686, 360.638 328.349, 370.616 329.012, 380.594 329.675, 390.572 330.338, 400.550 331.000, 410.529 331.334, 415.553 331.385, 416.579 331.395, 417.466 331.365, 418.219 331.298, 418.846 331.199, 419.352 331.068, 419.743 330.909, 420.026 330.726, 420.206 330.519, 420.291 " />
            <path fill="none" stroke-width="3.0" stroke-linecap="butt" stroke-opacity="1.0" stroke="rgb(0, 0, 0)" stroke-linejoin="miter" d=" M 287.087, 281.684 288.142, 281.573 289.315, 281.600 289.770, 281.561 299.641, 279.959 309.512, 278.357 319.383, 276.755 329.254, 275.153 339.124, 273.551 348.995, 271.949 358.866, 270.347 368.737, 268.745 378.608, 267.143 388.479, 265.542 398.349, 263.940 400.022, 263.668 409.893, 262.066 419.867, 260.447 424.957, 259.621 425.445, 259.481 425.889, 259.250 426.288, 258.926 426.641, 258.507 426.946, 257.991 427.201, 257.375 427.407, 256.658 427.560, 255.837 427.659, 254.911 427.703, 253.877 427.691, 252.732 427.624, 251.839 427.487, 250.963 427.289, 250.114 427.039, 249.300 426.744, 248.529 426.411, 247.810 426.051, 247.150 425.669, 246.558 425.276, 246.042 424.877, 245.610 424.482, 245.270 424.099, 245.030 415.152, 240.564 410.796, 238.389 407.715, 236.828 404.732, 235.276 401.821, 233.729 398.955, 232.180 396.110, 230.627 393.260, 229.065 390.381, 227.488 387.449, 225.895 384.443, 224.281 381.339, 222.642 378.117, 220.977 374.756, 219.281 374.212, 219.049 373.673, 218.897 373.150, 218.829 372.651, 218.851 362.755, 220.290 352.859, 221.729 342.963, 223.168 333.067, 224.608 323.171, 226.047 313.276, 227.486 303.380, 228.925 293.484, 230.364 283.588, 231.803 273.692, 233.243 263.796, 234.682 253.900, 236.121 244.004, 237.560 242.624, 237.761 242.228, 237.867 241.872, 238.076 241.564, 238.390 241.312, 238.816 241.122, 239.357 241.002, 240.018 240.960, 240.804 241.004, 241.720 241.167, 242.973 241.417, 244.176 241.744, 245.325 242.135, 246.419 242.578, 247.453 243.062, 248.425 243.576, 249.331 244.106, 250.168 244.643, 250.931 245.173, 251.617 245.684, 252.223 246.166, 252.744 248.819, 255.373 251.361, 258.156 253.797, 261.083 256.130, 264.144 258.366, 267.326 260.509, 270.620 262.565, 274.014 264.540, 277.497 266.439, 281.058 268.268, 284.687 270.034, 288.371 271.744, 292.102 274.379, 298.109 277.009, 304.334 279.637, 310.754 282.267, 317.346 284.904, 324.086 287.552, 330.951 290.217, 337.918 292.904, 344.965 295.618, 352.071 298.364, 359.213 301.149, 366.371 303.979, 373.524 304.429, 374.718 304.812, 375.905 305.129, 377.079 305.379, 378.233 305.561, 379.363 305.675, 380.462 305.720, 381.525 305.697, 382.546 305.605, 383.519 305.443, 384.438 305.212, 385.299 304.911, 386.095 301.025, 395.309 297.139, 404.523 293.253, 413.738 289.368, 422.952 285.482, 432.166 281.596, 441.380 277.710, 450.594 275.481, 455.879 274.792, 457.440 274.079, 458.903 273.330, 460.253 272.531, 461.478 271.725, 462.493 271.669, 462.563 270.733, 463.495 269.708, 464.261 268.583, 464.848 267.345, 465.243 " />
            <path fill="none" stroke-width="3.0" stroke-linecap="butt" stroke-opacity="1.0" stroke="rgb(0, 0, 0)" stroke-linejoin="miter" d=" M 419.558, 260.616 419.773, 260.485 419.867, 260.447 " />
            <path fill="none" stroke-width="3.0" stroke-linecap="butt" stroke-opacity="1.0" stroke="rgb(0, 0, 0)" stroke-linejoin="miter" d=" M 336.953, 522.556 327.243, 524.948 326.918, 525.028 326.541, 525.189 326.211, 525.456 325.936, 525.847 325.726, 526.381 325.589, 527.077 325.533, 527.952 325.569, 529.026 325.681, 529.955 325.884, 530.919 326.167, 531.905 326.520, 532.898 326.933, 533.886 327.396, 534.854 327.899, 535.788 328.433, 536.675 328.986, 537.501 329.549, 538.252 330.112, 538.913 330.664, 539.470 333.265, 541.810 335.720, 543.921 338.042, 545.831 340.242, 547.572 342.336, 549.175 344.335, 550.670 346.254, 552.089 348.106, 553.465 349.907, 554.831 351.670, 556.219 353.411, 557.664 355.144, 559.198 356.902, 560.879 358.638, 562.662 360.378, 564.549 362.149, 566.539 363.982, 568.635 365.904, 570.840 367.944, 573.156 370.133, 575.586 372.502, 578.134 375.083, 580.805 377.909, 583.602 381.014, 586.533 381.590, 586.999 382.179, 587.351 382.768, 587.590 383.344, 587.715 383.895, 587.726 384.408, 587.622 394.055, 584.990 403.703, 582.359 413.350, 579.727 422.998, 577.095 432.645, 574.464 442.293, 571.832 451.940, 569.200 461.588, 566.569 471.235, 563.937 480.883, 561.305 490.531, 558.674 500.178, 556.042 509.826, 553.410 517.636, 551.280 518.180, 551.042 518.657, 550.696 519.052, 550.241 519.351, 549.678 519.539, 549.007 519.602, 548.228 519.555, 547.127 519.431, 546.043 519.232, 544.976 518.958, 543.925 518.612, 542.892 518.194, 541.876 517.707, 540.877 517.152, 539.896 516.531, 538.932 515.845, 537.985 515.097, 537.056 514.288, 536.144 511.796, 533.345 509.655, 530.745 507.834, 528.288 506.306, 525.919 505.046, 523.583 504.028, 521.226 503.225, 518.794 502.614, 516.232 502.169, 513.486 501.868, 510.503 501.685, 507.226 501.597, 503.601 501.472, 493.602 501.346, 483.603 501.220, 473.604 501.094, 463.605 500.969, 453.605 500.843, 443.606 500.717, 433.607 500.591, 423.608 500.465, 413.609 500.340, 403.609 500.214, 393.610 500.088, 383.611 499.962, 373.612 499.836, 363.612 499.711, 353.613 499.585, 343.614 499.459, 333.615 499.346, 324.614 499.355, 320.417 499.509, 316.780 499.827, 313.669 500.332, 311.053 501.043, 308.899 501.981, 307.173 503.046, 305.980 " />
            <path fill="none" stroke-width="3.0" stroke-linecap="butt" stroke-opacity="1.0" stroke="rgb(0, 0, 0)" stroke-linejoin="miter" d=" M 369.631, 330.455 370.152, 330.348 370.624, 330.133 371.046, 329.810 371.416, 329.374 371.698, 328.883 371.732, 328.824 371.994, 328.156 372.198, 327.368 372.345, 326.457 372.431, 325.422 372.456, 324.258 372.418, 322.964 372.325, 321.948 372.158, 320.945 371.927, 319.965 371.640, 319.019 371.305, 318.118 370.932, 317.271 370.529, 316.489 370.106, 315.781 369.671, 315.157 369.233, 314.628 368.801, 314.204 368.383, 313.894 366.064, 312.515 363.611, 311.129 361.059, 309.742 358.443, 308.359 355.795, 306.986 353.150, 305.628 350.537, 304.288 347.990, 302.971 345.537, 301.682 343.207, 300.423 341.031, 299.198 339.035, 298.010 337.058, 296.760 334.856, 295.312 332.478, 293.710 329.969, 291.993 327.378, 290.203 324.747, 288.379 322.122, 286.560 319.545, 284.783 317.058, 283.085 314.702, 281.503 312.517, 280.073 310.543, 278.829 310.119, 278.611 309.733, 278.502 309.385, 278.500 " />
            <path fill="none" stroke-width="3.0" stroke-linecap="butt" stroke-opacity="1.0" stroke="rgb(0, 0, 0)" stroke-linejoin="miter" d=" M 289.770, 281.561 290.185, 281.430 290.558, 281.203 290.657, 281.105 290.887, 280.878 291.172, 280.453 291.410, 279.925 291.601, 279.293 291.744, 278.554 291.836, 277.705 291.876, 276.745 291.863, 275.672 291.797, 274.482 291.694, 273.551 291.532, 272.637 291.320, 271.748 291.063, 270.895 290.769, 270.085 290.446, 269.327 290.102, 268.631 289.742, 268.005 289.376, 267.457 289.010, 266.997 288.652, 266.632 288.308, 266.371 279.791, 261.130 276.479, 259.092 273.739, 257.383 271.087, 255.688 268.497, 253.999 265.948, 252.312 263.416, 250.620 260.881, 248.919 258.320, 247.204 255.715, 245.470 253.045, 243.713 250.290, 241.928 247.433, 240.113 244.456, 238.263 243.976, 238.008 243.506, 237.835 243.052, 237.752 242.624, 237.761 " />
            <path fill="none" stroke-width="3.0" stroke-linecap="butt" stroke-opacity="1.0" stroke="rgb(0, 0, 0)" stroke-linejoin="miter" d=" M 330.519, 420.291 330.293, 420.285 330.050, 420.196 329.792, 420.028 329.484, 419.744 329.174, 419.367 328.858, 418.900 328.532, 418.344 328.194, 417.699 327.840, 416.968 327.466, 416.152 327.069, 415.252 326.646, 414.269 326.194, 413.205 325.709, 412.062 325.188, 410.841 321.799, 401.433 318.409, 392.025 315.020, 382.617 311.631, 373.208 308.241, 363.800 304.852, 354.392 301.462, 344.984 298.073, 335.576 294.683, 326.168 291.294, 316.760 287.905, 307.352 286.848, 304.420 286.317, 302.933 285.811, 301.494 285.333, 300.103 284.888, 298.762 284.476, 297.469 284.100, 296.227 283.764, 295.034 283.470, 293.892 283.221, 292.800 283.019, 291.759 282.867, 290.769 282.768, 289.830 282.709, 288.468 282.757, 287.223 282.911, 286.097 283.174, 285.091 283.546, 284.207 284.028, 283.447 284.622, 282.812 285.329, 282.306 286.150, 281.929 287.087, 281.684 " />
            <path fill="none" stroke-width="3.0" stroke-linecap="butt" stroke-opacity="1.0" stroke="rgb(0, 0, 0)" stroke-linejoin="miter" d=" M 384.408, 587.622 384.870, 587.402 385.270, 587.067 385.593, 586.615 385.827, 586.046 385.959, 585.360 385.976, 584.557 385.882, 583.416 385.723, 582.287 385.498, 581.173 385.209, 580.072 384.858, 578.986 384.445, 577.914 383.973, 576.857 383.442, 575.814 382.855, 574.787 382.212, 573.775 381.515, 572.777 380.766, 571.795 378.461, 568.780 376.471, 565.988 374.767, 563.360 373.324, 560.836 372.115, 558.360 371.115, 555.873 370.300, 553.318 369.644, 550.638 369.126, 547.776 368.720, 544.673 368.404, 541.272 368.153, 537.514 367.585, 527.531 367.019, 517.584 366.882, 515.181 366.681, 511.640 366.112, 501.657 365.544, 491.673 364.976, 481.689 364.407, 471.705 363.839, 461.721 363.271, 451.737 362.834, 444.065 362.737, 442.361 362.168, 432.377 361.846, 426.704 361.277, 416.720 361.112, 413.825 360.544, 403.841 359.976, 393.857 359.407, 383.873 358.839, 373.890 358.271, 363.906 357.702, 353.922 357.566, 351.534 357.372, 347.163 357.330, 343.379 357.457, 340.148 357.771, 337.439 358.287, 335.218 359.023, 333.449 359.996, 332.101 361.223, 331.137 362.724, 330.525 " />
            <path fill="none" stroke-width="3.0" stroke-linecap="butt" stroke-opacity="1.0" stroke="rgb(0, 0, 0)" stroke-linejoin="miter" d=" M 329.656, 433.650 329.967, 433.617 330.278, 433.665 330.587, 433.791 330.894, 433.995 331.156, 434.241 331.414, 434.562 331.665, 434.959 331.908, 435.431 332.139, 435.977 332.357, 436.596 332.559, 437.288 332.743, 438.052 332.905, 438.888 333.045, 439.795 333.159, 440.771 333.246, 441.816 333.635, 447.686 333.707, 448.782 333.821, 450.499 334.020, 453.518 334.400, 459.315 334.772, 465.077 335.134, 470.807 335.487, 476.505 335.827, 482.172 336.153, 487.809 336.464, 493.418 336.758, 498.999 337.033, 504.553 337.289, 510.081 337.412, 513.276 337.476, 516.079 337.454, 518.502 337.434, 518.811 337.320, 520.557 337.049, 522.257 336.953, 522.556 336.614, 523.613 335.991, 524.635 335.154, 525.337 334.080, 525.727 " />
            <path fill="none" stroke-width="3.0" stroke-linecap="butt" stroke-opacity="1.0" stroke="rgb(0, 0, 0)" stroke-linejoin="miter" d=" M 271.725, 462.493 261.961, 464.652 260.654, 464.942 260.245, 465.033 259.878, 465.220 259.566, 465.524 259.323, 465.968 259.161, 466.573 259.094, 467.362 259.136, 468.355 259.252, 469.226 259.446, 470.134 259.717, 471.074 260.063, 472.038 260.483, 473.019 260.977, 474.009 261.544, 475.002 262.184, 475.990 262.894, 476.967 263.675, 477.925 264.526, 478.857 265.446, 479.755 267.609, 481.703 269.784, 483.586 271.972, 485.420 274.177, 487.221 276.401, 489.008 278.646, 490.797 280.914, 492.605 283.207, 494.451 285.528, 496.351 287.879, 498.325 290.262, 500.389 292.679, 502.563 294.520, 504.285 296.321, 506.027 298.088, 507.783 299.831, 509.552 301.557, 511.330 303.276, 513.112 304.995, 514.895 306.723, 516.677 308.471, 518.454 310.246, 520.223 312.058, 521.980 313.918, 523.724 314.242, 523.980 314.566, 524.158 314.884, 524.253 315.190, 524.264 315.478, 524.188 315.740, 524.023 315.971, 523.766 316.163, 523.413 316.311, 522.964 316.408, 522.415 316.447, 521.764 316.422, 521.008 316.322, 519.944 316.181, 518.912 316.000, 517.911 315.781, 516.941 315.524, 516.002 315.231, 515.095 314.902, 514.218 314.539, 513.372 314.143, 512.558 313.715, 511.774 313.256, 511.021 312.767, 510.299 311.575, 508.690 310.493, 507.126 309.516, 505.605 308.641, 504.125 307.865, 502.684 307.185, 501.280 306.598, 499.912 306.100, 498.576 305.689, 497.273 305.361, 495.999 305.115, 494.753 304.947, 493.533 304.897, 492.642 304.885, 491.768 304.910, 490.911 304.972, 490.068 305.069, 489.237 305.202, 488.416 305.370, 487.605 305.573, 486.799 305.809, 485.999 306.078, 485.202 306.380, 484.406 306.715, 483.609 310.724, 474.448 314.732, 465.287 318.741, 456.125 319.847, 453.599 320.695, 451.660 324.704, 442.499 327.135, 436.944 327.451, 436.227 327.768, 435.599 328.084, 435.060 328.400, 434.608 328.715, 434.242 329.029, 433.961 329.343, 433.764 329.656, 433.650 " />
            <path fill="none" stroke-width="3.0" stroke-linecap="butt" stroke-opacity="1.0" stroke="rgb(0, 0, 0)" stroke-linejoin="miter" d=" M 267.345, 465.243 265.984, 465.432 264.486, 465.405 262.841, 465.147 262.430, 465.091 261.992, 465.021 261.540, 464.958 261.090, 464.924 260.654, 464.942 " />
            <path fill="none" stroke-width="3.0" stroke-linecap="butt" stroke-opacity="1.0" stroke="rgb(0, 0, 0)" stroke-linejoin="miter" d=" M 334.080, 525.727 332.744, 525.820 331.125, 525.627 329.199, 525.160 328.720, 525.071 328.243, 524.995 327.778, 524.950 327.334, 524.955 326.918, 525.028 " />
            <path fill="none" stroke-width="3.0" stroke-linecap="butt" stroke-opacity="1.0" stroke="rgb(0, 0, 0)" stroke-linejoin="miter" d=" M 315.190, 524.264 324.903, 521.883 334.615, 519.502 337.434, 518.811 " />
        </g>
    </g>
</svg>
