<?xml version='1.0' encoding='ascii'?>
<svg xmlns="http://www.w3.org/2000/svg" version="1.1" width="1080" height="1080">
    <g id="View Layer_LineSet" xmlns:inkscape="http://www.inkscape.org/namespaces/inkscape" inkscape:groupmode="lineset" inkscape:label="View Layer_LineSet">
        <g xmlns:inkscape="http://www.inkscape.org/namespaces/inkscape" inkscape:groupmode="layer" id="strokes" inkscape:label="strokes">
            <path fill="none" stroke-width="3.0" stroke-linecap="butt" stroke-opacity="1.0" stroke="rgb(0, 0, 0)" stroke-linejoin="miter" d=" M 365.008, 334.851 367.424, 334.436 370.253, 334.286 373.523, 334.367 374.285, 334.326 374.985, 334.184 384.681, 331.736 394.377, 329.289 396.615, 328.724 406.311, 326.277 407.978, 325.856 417.674, 323.408 427.370, 320.961 437.066, 318.514 442.803, 317.065 452.499, 314.618 462.195, 312.171 471.891, 309.723 481.587, 307.276 490.230, 305.094 499.926, 302.647 506.157, 301.074 506.841, 300.820 507.461, 300.467 508.014, 300.012 508.498, 299.452 508.913, 298.785 509.254, 298.008 509.520, 297.120 509.710, 296.119 509.820, 295.001 509.849, 293.765 509.784, 292.800 509.613, 291.855 509.348, 290.939 509.002, 290.061 508.585, 289.231 508.111, 288.456 507.590, 287.746 507.036, 287.109 506.459, 286.555 505.872, 286.091 505.286, 285.727 504.714, 285.471 501.510, 284.377 498.114, 283.289 494.573, 282.209 490.937, 281.139 487.253, 280.079 483.567, 279.033 479.924, 278.000 476.367, 276.982 472.941, 275.979 469.688, 274.994 466.648, 274.025 463.862, 273.074 461.106, 272.060 458.038, 270.877 454.724, 269.561 451.227, 268.145 447.612, 266.666 443.939, 265.156 440.270, 263.648 436.664, 262.175 433.181, 260.770 429.875, 259.462 426.805, 258.284 424.026, 257.265 423.426, 257.094 422.872, 257.025 422.368, 257.056 412.604, 259.217 402.840, 261.377 393.076, 263.538 383.920, 265.564 374.156, 267.724 364.392, 269.885 363.800, 270.016 354.036, 272.176 344.272, 274.337 334.508, 276.497 324.744, 278.657 314.981, 280.818 305.217, 282.978 295.453, 285.139 293.870, 285.489 293.448, 285.617 293.080, 285.855 292.767, 286.202 292.510, 286.659 292.311, 287.226 292.171, 287.906 292.093, 288.696 292.078, 289.600 292.127, 290.616 292.261, 291.947 292.451, 293.159 292.696, 294.263 292.997, 295.275 293.352, 296.205 293.760, 297.069 294.222, 297.877 294.736, 298.643 295.302, 299.381 295.921, 300.102 296.590, 300.819 297.310, 301.546 300.494, 304.552 303.269, 307.364 305.662, 310.040 307.703, 312.635 309.419, 315.208 310.844, 317.816 312.006, 320.519 312.938, 323.375 313.673, 326.441 314.242, 329.776 314.678, 333.437 315.014, 337.480 315.711, 347.456 316.409, 357.432 317.106, 367.407 317.803, 377.383 318.500, 387.359 319.198, 397.334 319.895, 407.310 320.592, 417.286 321.005, 423.192 321.054, 424.229 321.050, 425.128 320.994, 425.895 320.892, 426.536 320.747, 427.057 320.563, 427.464 320.342, 427.764 320.090, 427.961 319.808, 428.063 " />
            <path fill="none" stroke-width="3.0" stroke-linecap="butt" stroke-opacity="1.0" stroke="rgb(0, 0, 0)" stroke-linejoin="miter" d=" M 263.372, 290.079 264.817, 289.902 266.422, 289.858 267.045, 289.791 276.811, 287.637 286.576, 285.483 296.341, 283.330 306.107, 281.176 315.872, 279.022 325.637, 276.869 335.403, 274.715 345.168, 272.561 354.933, 270.408 362.869, 268.658 372.635, 266.504 382.400, 264.350 386.029, 263.550 393.566, 261.888 394.182, 261.720 394.743, 261.464 395.247, 261.116 395.693, 260.676 396.078, 260.140 396.401, 259.507 396.660, 258.775 396.853, 257.942 396.978, 257.005 397.034, 255.962 397.018, 254.812 396.932, 253.917 396.759, 253.044 396.508, 252.200 396.191, 251.395 395.818, 250.635 395.398, 249.929 394.942, 249.284 394.460, 248.709 393.961, 248.210 393.457, 247.797 392.958, 247.475 392.473, 247.254 383.052, 243.901 375.623, 241.258 371.713, 239.844 367.925, 238.432 364.225, 237.021 360.581, 235.606 356.961, 234.183 353.332, 232.751 349.664, 231.305 345.926, 229.844 342.090, 228.364 338.128, 226.864 334.011, 225.341 329.714, 223.794 329.017, 223.586 328.329, 223.459 327.660, 223.417 327.021, 223.463 317.208, 225.389 307.395, 227.315 297.583, 229.241 287.770, 231.167 277.957, 233.093 268.144, 235.019 258.332, 236.945 248.519, 238.871 238.706, 240.797 228.893, 242.723 219.080, 244.649 209.268, 246.575 203.065, 247.792 202.516, 247.923 202.019, 248.157 201.587, 248.497 201.229, 248.947 200.955, 249.512 200.776, 250.196 200.702, 251.004 200.744, 251.940 200.944, 253.215 201.267, 254.433 201.696, 255.593 202.214, 256.691 202.807, 257.726 203.457, 258.694 204.149, 259.592 204.866, 260.419 205.593, 261.170 206.312, 261.842 207.007, 262.433 207.662, 262.939 211.275, 265.477 214.730, 268.179 218.033, 271.032 221.190, 274.025 224.209, 277.148 227.096, 280.389 229.860, 283.735 232.509, 287.176 235.051, 290.700 237.494, 294.295 239.849, 297.951 242.124, 301.655 245.625, 307.624 249.111, 313.812 252.588, 320.196 256.064, 326.751 259.543, 333.452 263.034, 340.277 266.543, 347.200 270.079, 354.200 273.648, 361.252 277.259, 368.336 280.920, 375.429 284.639, 382.509 285.229, 383.692 285.729, 384.872 286.138, 386.044 286.456, 387.201 286.682, 388.337 286.815, 389.448 286.857, 390.526 286.805, 391.567 286.660, 392.564 286.422, 393.512 286.089, 394.405 285.663, 395.238 280.732, 403.937 275.800, 412.636 270.868, 421.336 265.937, 430.035 261.005, 438.734 256.073, 447.434 251.141, 456.133 246.210, 464.832 243.999, 468.731 243.021, 470.385 242.012, 471.939 240.955, 473.383 240.298, 474.154 239.832, 474.702 238.626, 475.883 237.319, 476.916 235.894, 477.786 234.333, 478.481 " />
            <path fill="none" stroke-width="3.0" stroke-linecap="butt" stroke-opacity="1.0" stroke="rgb(0, 0, 0)" stroke-linejoin="miter" d=" M 383.920, 265.564 384.261, 265.060 385.022, 264.273 385.937, 263.598 386.029, 263.550 " />
            <path fill="none" stroke-width="3.0" stroke-linecap="butt" stroke-opacity="1.0" stroke="rgb(0, 0, 0)" stroke-linejoin="miter" d=" M 326.898, 530.039 317.419, 533.227 312.885, 534.753 312.369, 534.950 311.916, 535.252 311.535, 535.674 311.239, 536.236 311.040, 536.955 310.948, 537.850 310.975, 538.939 311.109, 539.873 311.366, 540.835 311.731, 541.811 312.191, 542.788 312.732, 543.754 313.342, 544.696 314.007, 545.599 314.713, 546.452 315.447, 547.240 316.197, 547.951 316.947, 548.571 317.686, 549.086 321.167, 551.223 324.452, 553.139 327.559, 554.864 330.504, 556.427 333.305, 557.858 335.979, 559.188 338.545, 560.448 341.021, 561.671 343.426, 562.887 345.780, 564.128 348.100, 565.429 350.408, 566.820 352.745, 568.358 355.050, 570.000 357.357, 571.746 359.704, 573.593 362.130, 575.541 364.673, 577.589 367.372, 579.738 370.267, 581.987 373.401, 584.336 376.814, 586.787 380.551, 589.342 384.658, 592.003 385.421, 592.418 386.204, 592.717 386.988, 592.901 387.757, 592.971 388.495, 592.929 389.184, 592.774 398.545, 589.256 407.906, 585.739 417.267, 582.221 426.628, 578.704 435.989, 575.187 445.350, 571.669 454.711, 568.152 464.072, 564.634 473.432, 561.117 482.793, 557.600 492.154, 554.082 501.515, 550.565 509.733, 547.477 510.406, 547.193 510.996, 546.807 511.486, 546.320 511.856, 545.733 512.088, 545.048 512.164, 544.266 512.106, 543.173 511.952, 542.103 511.704, 541.056 511.364, 540.033 510.935, 539.032 510.417, 538.055 509.813, 537.101 509.125, 536.169 508.354, 535.261 507.504, 534.375 506.576, 533.512 505.572, 532.672 502.481, 530.089 499.822, 527.675 497.561, 525.376 495.663, 523.140 494.096, 520.913 492.829, 518.645 491.830, 516.283 491.068, 513.775 490.514, 511.070 490.137, 508.116 489.907, 504.859 489.796, 501.247 489.631, 491.249 489.467, 481.250 489.303, 471.251 489.139, 461.253 488.974, 451.254 488.810, 441.255 488.646, 431.257 488.481, 421.258 488.317, 411.260 488.153, 401.261 487.988, 391.262 487.824, 381.264 487.660, 371.265 487.495, 361.266 487.331, 351.268 487.167, 341.269 487.003, 331.270 486.863, 322.751 486.871, 318.563 487.059, 314.924 487.453, 311.802 488.078, 309.162 488.960, 306.971 490.125, 305.194 490.230, 305.094 " />
            <path fill="none" stroke-width="3.0" stroke-linecap="butt" stroke-opacity="1.0" stroke="rgb(0, 0, 0)" stroke-linejoin="miter" d=" M 374.985, 334.184 375.623, 333.937 376.195, 333.582 376.699, 333.118 377.134, 332.542 377.498, 331.851 377.553, 331.696 377.787, 331.042 378.001, 330.114 378.137, 329.063 378.192, 327.888 378.165, 326.585 378.061, 325.565 377.857, 324.563 377.565, 323.590 377.198, 322.654 376.766, 321.766 376.282, 320.935 375.756, 320.171 375.202, 319.484 374.630, 318.882 374.053, 318.376 373.481, 317.975 372.927, 317.689 369.840, 316.444 366.572, 315.200 363.169, 313.960 359.676, 312.729 356.140, 311.508 352.604, 310.301 349.110, 309.110 345.701, 307.937 342.416, 306.786 339.297, 305.656 336.380, 304.552 333.707, 303.473 331.058, 302.329 328.108, 300.998 324.921, 299.521 321.558, 297.935 318.081, 296.279 314.550, 294.590 311.024, 292.904 307.560, 291.257 304.215, 289.684 301.044, 288.220 298.101, 286.898 295.439, 285.753 294.867, 285.557 294.343, 285.469 293.870, 285.489 " />
            <path fill="none" stroke-width="3.0" stroke-linecap="butt" stroke-opacity="1.0" stroke="rgb(0, 0, 0)" stroke-linejoin="miter" d=" M 267.045, 289.791 267.615, 289.631 268.130, 289.377 268.586, 289.026 268.692, 288.907 268.984, 288.576 269.321, 288.024 269.594, 287.369 269.803, 286.607 269.946, 285.737 270.020, 284.757 270.024, 283.664 269.956, 282.456 269.834, 281.513 269.632, 280.592 269.358, 279.700 269.024, 278.846 268.638, 278.038 268.212, 277.285 267.754, 276.596 267.275, 275.979 266.785, 275.443 266.294, 274.995 265.810, 274.645 265.346, 274.400 256.122, 270.536 249.282, 267.670 245.556, 266.085 241.947, 264.508 238.422, 262.933 234.949, 261.356 231.499, 259.773 228.042, 258.179 224.549, 256.572 220.992, 254.946 217.344, 253.300 213.577, 251.629 209.668, 249.931 205.590, 248.204 204.931, 247.969 204.284, 247.819 203.658, 247.759 203.065, 247.792 " />
            <path fill="none" stroke-width="3.0" stroke-linecap="butt" stroke-opacity="1.0" stroke="rgb(0, 0, 0)" stroke-linejoin="miter" d=" M 319.808, 428.063 319.502, 428.075 319.174, 428.003 318.828, 427.853 318.416, 427.588 318.003, 427.230 317.583, 426.780 317.153, 426.240 316.706, 425.612 316.240, 424.897 315.749, 424.097 315.229, 423.213 314.674, 422.248 314.081, 421.203 313.446, 420.079 312.762, 418.878 308.472, 409.845 304.181, 400.813 299.890, 391.780 295.599, 382.747 291.308, 373.715 287.017, 364.682 282.726, 355.649 278.436, 346.617 274.145, 337.584 269.854, 328.552 265.563, 319.519 262.595, 313.272 261.897, 311.789 261.233, 310.354 260.607, 308.966 260.022, 307.627 259.484, 306.335 258.994, 305.091 258.558, 303.896 258.178, 302.749 257.858, 301.651 257.602, 300.602 257.413, 299.602 257.296, 298.651 257.242, 297.265 257.332, 295.992 257.566, 294.834 257.946, 293.792 258.473, 292.868 259.149, 292.063 259.975, 291.380 260.953, 290.820 262.085, 290.386 263.372, 290.079 " />
            <path fill="none" stroke-width="3.0" stroke-linecap="butt" stroke-opacity="1.0" stroke="rgb(0, 0, 0)" stroke-linejoin="miter" d=" M 389.184, 592.774 389.807, 592.507 390.348, 592.130 390.789, 591.642 391.113, 591.045 391.303, 590.340 391.341, 589.528 391.238, 588.384 391.046, 587.260 390.766, 586.156 390.400, 585.073 389.950, 584.010 389.418, 582.967 388.806, 581.945 388.115, 580.943 387.348, 579.962 386.506, 579.001 385.592, 578.060 384.607, 577.139 381.575, 574.312 378.959, 571.679 376.724, 569.183 374.835, 566.768 373.259, 564.378 371.964, 561.957 370.917, 559.450 370.089, 556.800 369.447, 553.953 368.961, 550.852 368.601, 547.441 368.337, 543.664 367.768, 533.680 367.199, 523.696 366.978, 519.814 366.795, 516.618 366.522, 511.824 365.953, 501.840 365.385, 491.857 364.816, 481.873 364.247, 471.889 363.678, 461.905 363.109, 451.921 362.540, 441.938 361.971, 431.954 361.797, 428.891 361.228, 418.907 361.071, 416.145 360.502, 406.161 359.933, 396.177 359.364, 386.193 358.795, 376.210 358.226, 366.226 357.668, 356.432 357.490, 352.025 357.506, 348.202 357.740, 344.927 358.214, 342.167 358.951, 339.887 359.975, 338.051 361.310, 336.623 362.979, 335.569 365.008, 334.851 " />
            <path fill="none" stroke-width="3.0" stroke-linecap="butt" stroke-opacity="1.0" stroke="rgb(0, 0, 0)" stroke-linejoin="miter" d=" M 318.378, 441.693 318.801, 441.635 319.221, 441.658 319.637, 441.762 320.050, 441.945 320.400, 442.174 320.744, 442.480 321.076, 442.863 321.396, 443.322 321.699, 443.858 321.982, 444.469 322.242, 445.156 322.476, 445.917 322.680, 446.752 322.852, 447.661 322.988, 448.642 323.058, 449.409 323.084, 449.696 323.231, 451.801 323.498, 455.622 323.906, 461.510 324.307, 467.363 324.699, 473.181 325.079, 478.965 325.446, 484.719 325.796, 490.441 326.128, 496.135 326.440, 501.801 326.730, 507.440 326.995, 513.054 327.234, 518.642 327.339, 521.874 327.371, 524.713 327.365, 524.907 327.294, 527.174 327.073, 529.273 326.898, 530.039 326.672, 531.023 326.057, 532.438 325.194, 533.533 324.047, 534.320 " />
            <path fill="none" stroke-width="3.0" stroke-linecap="butt" stroke-opacity="1.0" stroke="rgb(0, 0, 0)" stroke-linejoin="miter" d=" M 240.298, 474.154 230.717, 477.019 222.842, 479.374 222.332, 479.596 221.895, 479.935 221.550, 480.410 221.315, 481.043 221.207, 481.857 221.244, 482.871 221.387, 483.753 221.637, 484.667 221.991, 485.607 222.449, 486.565 223.010, 487.533 223.672, 488.505 224.434, 489.474 225.295, 490.431 226.255, 491.371 227.312, 492.284 228.466, 493.165 229.716, 494.005 232.656, 495.813 235.612, 497.552 238.587, 499.238 241.583, 500.889 244.604, 502.522 247.652, 504.155 250.730, 505.805 253.840, 507.490 256.985, 509.227 260.168, 511.036 263.391, 512.934 266.657, 514.939 269.143, 516.533 271.571, 518.150 273.953, 519.784 276.300, 521.433 278.623, 523.091 280.934, 524.753 283.245, 526.417 285.569, 528.077 287.917, 529.730 290.302, 531.371 292.737, 532.997 295.236, 534.604 295.671, 534.836 296.109, 534.987 296.541, 535.055 296.957, 535.039 297.350, 534.935 297.710, 534.743 298.029, 534.460 298.299, 534.084 298.509, 533.614 298.651, 533.046 298.717, 532.380 298.697, 531.613 298.582, 530.540 298.410, 529.502 298.184, 528.499 297.905, 527.532 297.573, 526.599 297.192, 525.702 296.762, 524.839 296.284, 524.011 295.761, 523.217 295.193, 522.458 294.583, 521.732 293.932, 521.040 292.340, 519.508 290.895, 518.011 289.593, 516.549 288.430, 515.119 287.401, 513.720 286.501, 512.350 285.727, 511.008 285.074, 509.691 284.538, 508.399 284.117, 507.129 283.806, 505.882 283.601, 504.654 283.550, 503.750 283.550, 502.861 283.601, 501.985 283.702, 501.121 283.852, 500.266 284.049, 499.418 284.295, 498.576 284.586, 497.739 284.924, 496.903 285.307, 496.068 285.735, 495.231 286.207, 494.391 291.248, 485.754 296.288, 477.118 301.329, 468.481 306.370, 459.844 308.480, 456.228 310.220, 453.247 314.895, 445.238 315.338, 444.484 315.780, 443.822 316.219, 443.249 316.656, 442.765 317.091, 442.368 317.523, 442.058 317.952, 441.834 318.378, 441.693 " />
            <path fill="none" stroke-width="3.0" stroke-linecap="butt" stroke-opacity="1.0" stroke="rgb(0, 0, 0)" stroke-linejoin="miter" d=" M 234.333, 478.481 232.622, 478.989 230.743, 479.298 228.680, 479.396 226.418, 479.271 225.853, 479.249 225.250, 479.214 224.629, 479.187 224.009, 479.191 223.407, 479.246 222.842, 479.374 " />
            <path fill="none" stroke-width="3.0" stroke-linecap="butt" stroke-opacity="1.0" stroke="rgb(0, 0, 0)" stroke-linejoin="miter" d=" M 324.047, 534.320 322.584, 534.814 320.772, 535.029 318.580, 534.979 315.978, 534.680 315.329, 534.633 314.684, 534.598 314.053, 534.595 313.450, 534.640 312.885, 534.753 " />
            <path fill="none" stroke-width="3.0" stroke-linecap="butt" stroke-opacity="1.0" stroke="rgb(0, 0, 0)" stroke-linejoin="miter" d=" M 297.350, 534.935 306.835, 531.766 316.319, 528.598 325.804, 525.429 327.365, 524.907 " />
        </g>
    </g>
</svg>
