<?xml version='1.0' encoding='ascii'?>
<svg xmlns="http://www.w3.org/2000/svg" version="1.1" width="1080" height="1080">
    <g id="View Layer_LineSet" xmlns:inkscape="http://www.inkscape.org/namespaces/inkscape" inkscape:groupmode="lineset" inkscape:label="View Layer_LineSet">
        <g xmlns:inkscape="http://www.inkscape.org/namespaces/inkscape" inkscape:groupmode="layer" id="strokes" inkscape:label="strokes">
            <path fill="none" stroke-width="3.0" stroke-linecap="butt" stroke-opacity="1.0" stroke="rgb(0, 0, 0)" stroke-linejoin="miter" d=" M 367.757, 337.648 370.561, 337.134 373.840, 336.872 377.628, 336.823 378.510, 336.753 379.322, 336.582 379.715, 336.461 389.272, 333.517 392.057, 332.659 401.614, 329.715 411.171, 326.771 420.728, 323.827 428.801, 321.340 438.358, 318.396 447.915, 315.452 457.471, 312.508 467.028, 309.564 476.585, 306.620 480.972, 305.268 490.529, 302.324 499.622, 299.523 500.384, 299.246 501.075, 298.871 501.691, 298.397 502.230, 297.821 502.691, 297.141 503.071, 296.355 503.367, 295.460 503.578, 294.454 503.700, 293.335 503.732, 292.101 503.658, 291.140 503.466, 290.204 503.171, 289.299 502.784, 288.436 502.319, 287.622 501.790, 286.865 501.209, 286.175 500.591, 285.559 499.947, 285.026 499.292, 284.584 498.639, 284.241 498.000, 284.005 494.426, 283.024 490.635, 282.055 486.682, 281.098 482.620, 280.154 478.501, 279.222 474.379, 278.302 470.302, 277.394 466.321, 276.498 462.484, 275.612 458.837, 274.737 455.429, 273.871 452.305, 273.014 449.213, 272.092 445.769, 271.012 442.047, 269.805 438.118, 268.506 434.054, 267.145 429.923, 265.755 425.795, 264.366 421.735, 263.010 417.811, 261.716 414.087, 260.514 410.625, 259.433 407.490, 258.503 406.813, 258.351 406.189, 258.299 405.620, 258.348 395.960, 260.933 386.300, 263.518 376.640, 266.103 366.980, 268.689 361.116, 270.258 351.456, 272.843 341.795, 275.429 341.018, 275.637 331.358, 278.222 321.698, 280.807 312.038, 283.392 302.378, 285.978 292.718, 288.563 285.315, 290.544 284.819, 290.689 284.386, 290.943 284.015, 291.305 283.710, 291.777 283.471, 292.358 283.302, 293.050 283.203, 293.853 283.176, 294.768 283.223, 295.794 283.368, 297.136 283.579, 298.354 283.856, 299.463 284.199, 300.475 284.606, 301.403 285.076, 302.261 285.609, 303.061 286.204, 303.817 286.861, 304.542 287.578, 305.248 288.355, 305.949 289.191, 306.657 292.890, 309.577 296.110, 312.315 298.884, 314.928 301.245, 317.473 303.228, 320.007 304.868, 322.588 306.200, 325.274 307.263, 328.122 308.092, 331.191 308.725, 334.537 309.200, 338.218 309.555, 342.289 310.270, 352.264 310.985, 362.238 311.700, 372.213 312.416, 382.187 313.131, 392.161 313.846, 402.136 314.561, 412.110 315.276, 422.085 315.744, 428.610 315.792, 429.655 315.778, 430.564 315.706, 431.341 315.581, 431.993 315.407, 432.526 315.188, 432.946 314.928, 433.259 314.631, 433.470 314.301, 433.586 " />
            <path fill="none" stroke-width="3.0" stroke-linecap="butt" stroke-opacity="1.0" stroke="rgb(0, 0, 0)" stroke-linejoin="miter" d=" M 247.948, 296.666 249.466, 296.308 251.168, 296.076 253.056, 295.971 253.790, 295.881 263.454, 293.310 273.118, 290.740 282.782, 288.169 292.446, 285.599 302.110, 283.028 311.774, 280.458 321.438, 277.887 331.102, 275.317 339.147, 273.177 348.811, 270.607 358.475, 268.036 363.644, 266.661 373.064, 264.156 373.761, 263.967 374.397, 263.690 374.968, 263.324 375.472, 262.866 375.908, 262.315 376.273, 261.668 376.566, 260.924 376.784, 260.079 376.925, 259.133 376.987, 258.083 376.969, 256.927 376.871, 256.030 376.674, 255.158 376.391, 254.318 376.031, 253.518 375.608, 252.767 375.132, 252.070 374.615, 251.437 374.068, 250.874 373.504, 250.389 372.933, 249.989 372.367, 249.682 371.817, 249.475 362.206, 246.714 352.702, 243.984 348.259, 242.685 343.953, 241.384 339.745, 240.080 335.599, 238.769 331.477, 237.450 327.343, 236.120 323.162, 234.777 318.900, 233.420 314.524, 232.047 310.001, 230.656 305.299, 229.246 300.388, 227.817 299.591, 227.628 298.804, 227.521 298.039, 227.499 297.309, 227.566 296.626, 227.726 286.891, 230.015 277.157, 232.305 267.423, 234.594 257.688, 236.883 247.954, 239.173 238.219, 241.462 228.485, 243.752 218.751, 246.042 209.016, 248.331 199.282, 250.620 189.547, 252.910 179.813, 255.199 177.952, 255.637 177.360, 255.892 176.844, 256.252 176.414, 256.723 176.083, 257.308 175.864, 258.011 175.769, 258.836 175.809, 259.788 176.034, 261.079 176.405, 262.308 176.903, 263.474 177.508, 264.574 178.202, 265.607 178.964, 266.570 179.777, 267.461 180.620, 268.277 181.474, 269.016 182.320, 269.675 183.139, 270.253 183.911, 270.745 188.172, 273.200 192.241, 275.826 196.126, 278.611 199.836, 281.542 203.378, 284.609 206.763, 287.798 209.999, 291.099 213.097, 294.498 216.067, 297.984 218.919, 301.546 221.664, 305.170 224.314, 308.846 228.388, 314.772 232.440, 320.920 236.478, 327.263 240.509, 333.776 244.543, 340.435 248.587, 347.215 252.650, 354.092 256.740, 361.041 260.868, 368.039 265.043, 375.064 269.274, 382.091 273.572, 389.100 274.252, 390.273 274.827, 391.446 275.296, 392.614 275.658, 393.772 275.912, 394.912 276.058, 396.031 276.096, 397.121 276.026, 398.177 275.846, 399.193 275.558, 400.163 275.160, 401.082 274.652, 401.945 269.202, 410.329 263.752, 418.713 258.302, 427.098 252.852, 435.482 247.403, 443.867 241.953, 452.251 236.503, 460.636 231.053, 469.020 225.603, 477.404 224.913, 478.465 223.742, 480.195 222.536, 481.826 222.091, 482.361 221.274, 483.346 219.935, 484.743 218.498, 486.006 216.943, 487.122 215.250, 488.079 213.399, 488.866 " />
            <path fill="none" stroke-width="3.0" stroke-linecap="butt" stroke-opacity="1.0" stroke="rgb(0, 0, 0)" stroke-linejoin="miter" d=" M 361.116, 270.258 361.314, 269.610 361.830, 268.582 362.518, 267.659 363.380, 266.842 363.644, 266.661 " />
            <path fill="none" stroke-width="3.0" stroke-linecap="butt" stroke-opacity="1.0" stroke="rgb(0, 0, 0)" stroke-linejoin="miter" d=" M 321.895, 534.956 312.634, 538.729 304.605, 542.000 304.072, 542.329 303.623, 542.777 303.271, 543.362 303.031, 544.100 302.915, 545.010 302.936, 546.110 303.085, 547.047 303.376, 548.006 303.794, 548.973 304.322, 549.936 304.946, 550.883 305.650, 551.801 306.418, 552.678 307.236, 553.501 308.087, 554.258 308.955, 554.935 309.827, 555.520 310.685, 555.999 314.730, 557.966 318.547, 559.718 322.156, 561.287 325.576, 562.700 328.828, 563.988 331.932, 565.181 334.909, 566.309 337.782, 567.403 340.570, 568.494 343.297, 569.614 345.984, 570.795 348.655, 572.067 351.358, 573.486 354.020, 575.011 356.685, 576.639 359.394, 578.367 362.192, 580.191 365.124, 582.110 368.235, 584.119 371.572, 586.218 375.182, 588.403 379.115, 590.674 383.419, 593.029 388.147, 595.467 389.027, 595.840 389.929, 596.095 390.834, 596.234 391.723, 596.260 392.576, 596.174 393.375, 595.978 394.098, 595.674 403.186, 591.502 412.275, 587.330 421.363, 583.159 430.451, 578.987 439.539, 574.815 448.628, 570.644 457.716, 566.472 466.804, 562.300 475.893, 558.128 484.981, 553.957 494.069, 549.785 503.157, 545.613 504.550, 544.974 505.208, 544.557 505.753, 544.045 506.165, 543.439 506.423, 542.743 506.508, 541.959 506.442, 540.871 506.269, 539.811 505.992, 538.779 505.613, 537.775 505.133, 536.799 504.555, 535.851 503.881, 534.930 503.113, 534.036 502.254, 533.169 501.305, 532.329 500.269, 531.515 499.149, 530.728 495.698, 528.309 492.729, 526.035 490.202, 523.855 488.081, 521.718 486.329, 519.573 484.911, 517.371 483.793, 515.061 482.940, 512.594 482.318, 509.918 481.895, 506.984 481.636, 503.740 481.508, 500.135 481.317, 490.137 481.125, 480.138 480.934, 470.140 480.743, 460.142 480.551, 450.144 480.360, 440.146 480.169, 430.148 479.977, 420.149 479.786, 410.151 479.595, 400.153 479.403, 390.155 479.212, 380.157 479.020, 370.159 478.829, 360.160 478.638, 350.162 478.446, 340.164 478.255, 330.166 478.096, 321.870 478.102, 317.685 478.310, 314.043 478.748, 310.909 479.445, 308.249 480.429, 306.028 480.972, 305.268 " />
            <path fill="none" stroke-width="3.0" stroke-linecap="butt" stroke-opacity="1.0" stroke="rgb(0, 0, 0)" stroke-linejoin="miter" d=" M 379.322, 336.582 380.062, 336.308 380.728, 335.929 381.316, 335.443 381.825, 334.846 382.252, 334.137 382.595, 333.313 382.658, 333.078 382.850, 332.371 383.017, 331.309 383.092, 330.125 383.073, 328.816 382.961, 327.794 382.734, 326.795 382.406, 325.828 381.989, 324.901 381.498, 324.025 380.945, 323.208 380.344, 322.460 379.709, 321.790 379.052, 321.207 378.388, 320.720 377.730, 320.339 377.091, 320.072 373.527, 318.938 369.751, 317.811 365.817, 316.693 361.777, 315.586 357.685, 314.491 353.590, 313.409 349.542, 312.342 345.590, 311.289 341.781, 310.252 338.162, 309.231 334.778, 308.227 331.674, 307.239 328.600, 306.184 325.175, 304.952 321.473, 303.580 317.565, 302.104 313.523, 300.561 309.416, 298.986 305.313, 297.412 301.280, 295.875 297.384, 294.408 293.688, 293.044 290.256, 291.815 287.150, 290.754 286.482, 290.577 285.869, 290.507 285.315, 290.544 " />
            <path fill="none" stroke-width="3.0" stroke-linecap="butt" stroke-opacity="1.0" stroke="rgb(0, 0, 0)" stroke-linejoin="miter" d=" M 253.790, 295.881 254.461, 295.698 255.069, 295.422 255.609, 295.049 256.081, 294.578 256.143, 294.490 256.482, 294.007 256.810, 293.333 257.063, 292.553 257.239, 291.667 257.335, 290.670 257.351, 289.563 257.282, 288.341 257.148, 287.391 256.919, 286.465 256.606, 285.570 256.221, 284.717 255.775, 283.912 255.281, 283.165 254.750, 282.483 254.192, 281.875 253.621, 281.349 253.047, 280.913 252.482, 280.575 251.938, 280.343 242.447, 277.194 233.086, 274.088 228.707, 272.611 224.463, 271.136 220.317, 269.661 216.231, 268.180 212.169, 266.692 208.097, 265.193 203.981, 263.680 199.787, 262.150 195.482, 260.601 191.036, 259.031 186.418, 257.437 181.598, 255.819 180.818, 255.602 180.051, 255.471 179.310, 255.431 178.606, 255.485 177.952, 255.637 " />
            <path fill="none" stroke-width="3.0" stroke-linecap="butt" stroke-opacity="1.0" stroke="rgb(0, 0, 0)" stroke-linejoin="miter" d=" M 394.098, 595.674 394.727, 595.263 395.241, 594.746 395.621, 594.127 395.847, 593.407 395.898, 592.588 395.790, 591.444 395.578, 590.325 395.264, 589.231 394.852, 588.162 394.341, 587.119 393.736, 586.101 393.037, 585.108 392.248, 584.140 391.370, 583.197 390.405, 582.278 389.356, 581.384 388.225, 580.514 384.743, 577.842 381.738, 575.341 379.172, 572.956 377.006, 570.632 375.202, 568.314 373.723, 565.949 372.534, 563.482 371.598, 560.860 370.880, 558.029 370.345, 554.933 369.959, 551.517 369.687, 547.727 369.122, 537.743 368.557, 527.759 368.134, 520.285 367.903, 516.212 367.567, 510.271 367.002, 500.287 366.437, 490.303 365.871, 480.319 365.306, 470.335 364.741, 460.351 364.176, 450.367 363.611, 440.383 363.046, 430.398 362.987, 429.364 362.422, 419.380 362.275, 416.786 361.710, 406.802 361.145, 396.818 360.579, 386.834 360.014, 376.850 359.449, 366.866 359.042, 359.671 358.875, 355.240 358.930, 351.389 359.232, 348.082 359.808, 345.284 360.684, 342.958 361.890, 341.068 363.451, 339.578 365.397, 338.450 367.757, 337.648 " />
            <path fill="none" stroke-width="3.0" stroke-linecap="butt" stroke-opacity="1.0" stroke="rgb(0, 0, 0)" stroke-linejoin="miter" d=" M 314.301, 433.586 313.943, 433.613 313.561, 433.555 313.159, 433.420 312.681, 433.171 312.201, 432.829 311.715, 432.394 311.217, 431.868 310.702, 431.254 310.164, 430.554 309.598, 429.768 308.999, 428.900 308.360, 427.950 307.677, 426.921 306.945, 425.814 306.158, 424.632 301.326, 415.877 296.494, 407.122 291.662, 398.367 286.830, 389.612 281.998, 380.856 277.166, 372.101 272.335, 363.346 267.503, 354.591 262.671, 345.836 257.839, 337.081 253.007, 328.326 248.330, 319.851 247.522, 318.374 246.754, 316.945 246.030, 315.562 245.355, 314.225 244.734, 312.936 244.169, 311.693 243.667, 310.498 243.230, 309.349 242.864, 308.247 242.572, 307.193 242.360, 306.186 242.231, 305.225 242.181, 303.822 242.299, 302.528 242.586, 301.345 243.043, 300.274 243.673, 299.317 244.476, 298.475 245.455, 297.752 246.612, 297.148 247.948, 296.666 " />
            <path fill="none" stroke-width="3.0" stroke-linecap="butt" stroke-opacity="1.0" stroke="rgb(0, 0, 0)" stroke-linejoin="miter" d=" M 312.004, 447.587 312.503, 447.424 312.998, 447.345 313.488, 447.349 313.973, 447.434 314.453, 447.599 314.860, 447.813 315.258, 448.106 315.643, 448.477 316.011, 448.926 316.360, 449.453 316.685, 450.057 316.931, 450.622 316.982, 450.737 317.225, 451.431 317.247, 451.495 317.478, 452.329 317.670, 453.239 317.819, 454.224 317.922, 455.284 318.348, 461.249 318.671, 465.783 318.770, 467.177 319.183, 473.068 319.586, 478.925 319.975, 484.749 320.348, 490.542 320.704, 496.304 321.038, 502.038 321.349, 507.745 321.634, 513.426 321.891, 519.082 322.116, 524.714 322.209, 527.973 322.211, 528.593 322.219, 530.839 322.107, 533.330 321.895, 534.956 321.829, 535.461 321.345, 537.251 320.615, 538.714 319.596, 539.867 318.251, 540.725 " />
            <path fill="none" stroke-width="3.0" stroke-linecap="butt" stroke-opacity="1.0" stroke="rgb(0, 0, 0)" stroke-linejoin="miter" d=" M 222.091, 482.361 212.679, 485.738 203.266, 489.115 199.792, 490.362 199.186, 490.614 198.666, 490.981 198.252, 491.482 197.967, 492.139 197.831, 492.973 197.866, 494.003 198.027, 494.893 198.313, 495.811 198.724, 496.749 199.257, 497.700 199.912, 498.657 200.686, 499.612 201.579, 500.558 202.589, 501.487 203.717, 502.393 204.959, 503.268 206.316, 504.103 207.788, 504.893 211.248, 506.578 214.726, 508.191 218.226, 509.749 221.750, 511.269 225.301, 512.770 228.883, 514.268 232.498, 515.781 236.150, 517.327 239.841, 518.924 243.574, 520.590 247.351, 522.344 251.177, 524.204 254.086, 525.688 256.926, 527.197 259.711, 528.727 262.454, 530.272 265.168, 531.827 267.867, 533.388 270.565, 534.948 273.277, 536.504 276.016, 538.051 278.799, 539.584 281.639, 541.097 284.552, 542.587 285.061, 542.798 285.572, 542.927 286.077, 542.973 286.566, 542.933 287.027, 542.807 287.451, 542.593 287.827, 542.289 288.146, 541.894 288.397, 541.406 288.569, 540.823 288.652, 540.145 288.637, 539.370 288.512, 538.290 288.320, 537.249 288.065, 536.246 287.747, 535.282 287.368, 534.356 286.929, 533.468 286.433, 532.618 285.881, 531.805 285.276, 531.030 284.618, 530.291 283.909, 529.590 283.152, 528.924 281.301, 527.458 279.621, 526.020 278.109, 524.609 276.757, 523.223 275.563, 521.860 274.520, 520.520 273.624, 519.201 272.871, 517.902 272.255, 516.621 271.772, 515.357 271.419, 514.109 271.190, 512.876 271.139, 511.963 271.148, 511.062 271.216, 510.172 271.342, 509.290 271.526, 508.416 271.766, 507.547 272.062, 506.682 272.413, 505.818 272.817, 504.954 273.275, 504.088 273.785, 503.218 274.346, 502.342 279.887, 494.017 285.427, 485.692 290.968, 477.367 296.508, 469.043 302.049, 460.718 305.390, 455.698 308.209, 451.462 308.401, 451.173 308.927, 450.390 309.449, 449.699 309.967, 449.100 310.482, 448.590 310.993, 448.168 311.501, 447.834 312.004, 447.587 " />
            <path fill="none" stroke-width="3.0" stroke-linecap="butt" stroke-opacity="1.0" stroke="rgb(0, 0, 0)" stroke-linejoin="miter" d=" M 213.399, 488.866 211.370, 489.470 209.145, 489.880 206.703, 490.086 204.028, 490.074 203.358, 490.081 202.645, 490.076 201.910, 490.080 201.176, 490.116 200.462, 490.203 199.792, 490.362 " />
            <path fill="none" stroke-width="3.0" stroke-linecap="butt" stroke-opacity="1.0" stroke="rgb(0, 0, 0)" stroke-linejoin="miter" d=" M 318.251, 540.725 316.538, 541.304 314.421, 541.620 311.862, 541.690 308.824, 541.529 308.067, 541.517 307.313, 541.517 306.576, 541.548 305.871, 541.627 305.209, 541.772 304.605, 542.000 " />
            <path fill="none" stroke-width="3.0" stroke-linecap="butt" stroke-opacity="1.0" stroke="rgb(0, 0, 0)" stroke-linejoin="miter" d=" M 287.027, 542.807 296.299, 539.061 305.571, 535.316 314.843, 531.570 322.211, 528.593 " />
        </g>
    </g>
</svg>
