<?xml version='1.0' encoding='ascii'?>
<svg xmlns="http://www.w3.org/2000/svg" version="1.1" width="1080" height="1080">
    <g id="View Layer_LineSet" xmlns:inkscape="http://www.inkscape.org/namespaces/inkscape" inkscape:groupmode="lineset" inkscape:label="View Layer_LineSet">
        <g xmlns:inkscape="http://www.inkscape.org/namespaces/inkscape" inkscape:groupmode="layer" id="strokes" inkscape:label="strokes">
            <path fill="none" stroke-width="3.0" stroke-linecap="butt" stroke-opacity="1.0" stroke="rgb(0, 0, 0)" stroke-linejoin="miter" d=" M 366.976, 339.855 369.493, 339.006 370.612, 338.793 372.481, 338.438 375.974, 338.114 380.006, 337.995 380.945, 337.907 381.810, 337.720 384.769, 336.714 394.236, 333.495 403.704, 330.276 413.172, 327.056 421.889, 324.092 431.357, 320.872 440.825, 317.653 450.292, 314.433 459.760, 311.214 469.227, 307.994 476.048, 305.675 485.516, 302.456 494.983, 299.236 496.172, 298.832 496.970, 298.542 497.693, 298.156 498.338, 297.672 498.903, 297.087 499.386, 296.400 499.783, 295.608 500.093, 294.709 500.313, 293.701 500.440, 292.581 500.473, 291.347 500.395, 290.389 500.194, 289.457 499.884, 288.559 499.479, 287.703 498.991, 286.897 498.437, 286.150 497.828, 285.470 497.180, 284.865 496.506, 284.343 495.819, 283.912 495.135, 283.580 494.465, 283.355 490.720, 282.434 486.746, 281.529 482.601, 280.638 478.341, 279.760 474.021, 278.896 469.695, 278.044 465.416, 277.203 461.236, 276.371 457.206, 275.548 453.376, 274.732 449.795, 273.921 446.512, 273.114 443.261, 272.242 439.640, 271.216 435.726, 270.069 431.593, 268.831 427.316, 267.534 422.969, 266.208 418.622, 264.883 414.347, 263.589 410.213, 262.355 406.289, 261.210 402.641, 260.182 399.336, 259.299 398.623, 259.158 397.965, 259.116 397.364, 259.173 396.824, 259.331 387.229, 262.149 377.635, 264.968 368.040, 267.786 358.445, 270.605 350.112, 273.053 340.518, 275.872 330.923, 278.690 330.193, 278.905 320.599, 281.724 311.004, 284.542 301.410, 287.361 291.815, 290.179 282.221, 292.998 281.095, 293.329 280.630, 293.591 280.232, 293.962 279.903, 294.442 279.645, 295.031 279.460, 295.730 279.351, 296.539 279.319, 297.460 279.365, 298.491 279.515, 299.838 279.736, 301.060 280.029, 302.170 280.392, 303.182 280.824, 304.109 281.324, 304.963 281.892, 305.759 282.526, 306.509 283.226, 307.226 283.992, 307.924 284.821, 308.615 285.714, 309.312 289.662, 312.183 293.098, 314.878 296.056, 317.456 298.573, 319.972 300.684, 322.483 302.427, 325.048 303.842, 327.723 304.967, 330.567 305.842, 333.636 306.506, 336.988 306.999, 340.678 307.362, 344.764 308.085, 354.737 308.807, 364.711 309.530, 374.685 310.252, 384.659 310.975, 394.633 311.697, 404.607 312.420, 414.581 313.142, 424.555 313.638, 431.396 313.685, 432.446 313.666, 433.359 313.586, 434.142 313.450, 434.801 313.262, 435.340 313.026, 435.767 312.747, 436.087 312.428, 436.306 " />
            <path fill="none" stroke-width="3.0" stroke-linecap="butt" stroke-opacity="1.0" stroke="rgb(0, 0, 0)" stroke-linejoin="miter" d=" M 241.529, 299.983 243.160, 299.596 244.988, 299.332 247.015, 299.195 247.804, 299.090 248.525, 298.895 258.126, 296.097 267.726, 293.298 277.327, 290.500 286.927, 287.702 296.528, 284.904 306.128, 282.106 315.729, 279.307 325.329, 276.509 327.714, 275.814 337.315, 273.016 346.915, 270.218 352.538, 268.579 362.138, 265.781 363.743, 265.313 364.414, 265.025 365.017, 264.649 365.550, 264.182 366.010, 263.622 366.396, 262.967 366.705, 262.215 366.935, 261.365 367.084, 260.413 367.149, 259.359 367.129, 258.200 367.025, 257.301 366.817, 256.430 366.517, 255.592 366.138, 254.795 365.690, 254.048 365.187, 253.356 364.640, 252.729 364.063, 252.173 363.466, 251.695 362.863, 251.303 362.265, 251.004 361.684, 250.805 352.001, 248.306 342.319, 245.807 341.470, 245.588 336.768, 244.351 332.210, 243.111 327.755, 241.865 323.363, 240.611 318.995, 239.348 314.614, 238.074 310.182, 236.788 305.663, 235.488 301.021, 234.174 296.222, 232.843 291.231, 231.496 286.017, 230.131 285.171, 229.953 284.336, 229.857 283.523, 229.847 282.747, 229.925 282.022, 230.095 272.336, 232.582 262.650, 235.068 252.964, 237.555 243.278, 240.041 233.592, 242.527 223.906, 245.014 214.220, 247.500 204.534, 249.987 194.848, 252.473 185.163, 254.960 175.477, 257.446 166.353, 259.788 165.713, 260.055 165.154, 260.427 164.688, 260.909 164.329, 261.505 164.090, 262.218 163.983, 263.053 164.023, 264.013 164.261, 265.313 164.656, 266.548 165.188, 267.716 165.837, 268.817 166.581, 269.849 167.399, 270.808 168.272, 271.694 169.178, 272.504 170.097, 273.236 171.007, 273.888 171.888, 274.456 172.719, 274.940 177.303, 277.348 181.679, 279.929 185.855, 282.674 189.840, 285.568 193.644, 288.601 197.276, 291.760 200.747, 295.032 204.068, 298.406 207.250, 301.870 210.305, 305.410 213.244, 309.015 216.080, 312.673 220.436, 318.573 224.768, 324.695 229.082, 331.012 233.388, 337.500 237.695, 344.132 242.010, 350.884 246.345, 357.731 250.708, 364.649 255.109, 371.614 259.559, 378.602 264.069, 385.591 268.649, 392.557 269.374, 393.723 269.986, 394.892 270.483, 396.058 270.866, 397.215 271.134, 398.358 271.287, 399.481 271.323, 400.577 271.243, 401.641 271.047, 402.667 270.734, 403.650 270.303, 404.583 269.756, 405.462 264.093, 413.704 258.431, 421.947 252.769, 430.189 247.107, 438.432 241.444, 446.674 235.782, 454.917 230.120, 463.159 224.458, 471.402 218.795, 479.644 216.034, 483.665 214.766, 485.436 213.970, 486.458 213.462, 487.110 212.098, 488.673 210.651, 490.115 209.100, 491.423 207.422, 492.586 205.596, 493.592 203.600, 494.430 " />
            <path fill="none" stroke-width="3.0" stroke-linecap="butt" stroke-opacity="1.0" stroke="rgb(0, 0, 0)" stroke-linejoin="miter" d=" M 350.112, 273.053 350.223, 272.315 350.588, 271.176 351.133, 270.136 351.861, 269.199 352.538, 268.579 " />
            <path fill="none" stroke-width="3.0" stroke-linecap="butt" stroke-opacity="1.0" stroke="rgb(0, 0, 0)" stroke-linejoin="miter" d=" M 319.907, 537.325 310.779, 541.410 301.652, 545.495 301.275, 545.664 300.704, 546.009 300.222, 546.471 299.843, 547.068 299.583, 547.817 299.455, 548.735 299.474, 549.840 299.629, 550.779 299.937, 551.736 300.380, 552.698 300.942, 553.652 301.605, 554.589 302.355, 555.494 303.173, 556.355 304.044, 557.161 304.952, 557.900 305.878, 558.558 306.808, 559.123 307.724, 559.583 312.042, 561.453 316.116, 563.114 319.967, 564.595 323.616, 565.924 327.085, 567.132 330.396, 568.248 333.571, 569.302 336.633, 570.324 339.605, 571.346 342.511, 572.398 345.373, 573.512 348.217, 574.718 351.095, 576.070 353.929, 577.529 356.763, 579.092 359.645, 580.754 362.620, 582.510 365.737, 584.356 369.044, 586.288 372.590, 588.303 376.427, 590.397 380.604, 592.567 385.177, 594.811 390.198, 597.127 391.133, 597.476 392.091, 597.707 393.054, 597.822 393.999, 597.824 394.907, 597.714 395.757, 597.495 396.527, 597.170 405.447, 592.648 414.366, 588.126 423.285, 583.604 432.204, 579.082 441.123, 574.560 450.042, 570.038 458.962, 565.516 467.881, 560.994 476.800, 556.472 485.719, 551.950 494.638, 547.428 501.445, 543.977 502.134, 543.544 502.705, 543.018 503.136, 542.402 503.406, 541.700 503.494, 540.915 503.424, 539.829 503.243, 538.774 502.953, 537.750 502.555, 536.757 502.052, 535.793 501.446, 534.860 500.740, 533.956 499.935, 533.082 499.034, 532.237 498.040, 531.421 496.954, 530.634 495.780, 529.875 492.163, 527.543 489.049, 525.344 486.399, 523.226 484.174, 521.142 482.336, 519.040 480.848, 516.873 479.674, 514.591 478.778, 512.144 478.125, 509.483 477.679, 506.559 477.406, 503.322 477.271, 499.720 477.066, 489.722 476.860, 479.724 476.655, 469.726 476.450, 459.728 476.245, 449.730 476.040, 439.732 475.834, 429.734 475.629, 419.736 475.424, 409.739 475.219, 399.741 475.014, 389.743 474.809, 379.745 474.603, 369.747 474.398, 359.749 474.193, 349.751 473.988, 339.753 473.783, 329.755 473.614, 321.542 473.619, 317.358 473.835, 313.712 474.293, 310.571 475.023, 307.899 476.048, 305.675 " />
            <path fill="none" stroke-width="3.0" stroke-linecap="butt" stroke-opacity="1.0" stroke="rgb(0, 0, 0)" stroke-linejoin="miter" d=" M 381.810, 337.720 382.599, 337.432 383.308, 337.040 383.936, 336.541 384.373, 336.053 384.480, 335.934 384.937, 335.215 385.305, 334.382 385.539, 333.576 385.581, 333.433 385.762, 332.365 385.846, 331.177 385.831, 329.865 385.716, 328.843 385.479, 327.845 385.133, 326.881 384.693, 325.960 384.173, 325.090 383.588, 324.281 382.952, 323.542 382.278, 322.882 381.582, 322.310 380.877, 321.834 380.178, 321.464 379.499, 321.207 375.710, 320.134 374.705, 319.869 371.693, 319.072 367.508, 318.022 363.209, 316.984 358.852, 315.959 354.491, 314.947 350.180, 313.948 345.969, 312.962 341.910, 311.989 338.052, 311.029 334.445, 310.080 331.135, 309.143 327.857, 308.138 324.204, 306.961 320.254, 305.648 316.084, 304.234 311.770, 302.755 307.385, 301.243 303.004, 299.734 298.696, 298.259 294.532, 296.852 290.582, 295.544 286.913, 294.368 283.591, 293.354 282.876, 293.187 282.221, 293.127 281.626, 293.174 281.095, 293.329 " />
            <path fill="none" stroke-width="3.0" stroke-linecap="butt" stroke-opacity="1.0" stroke="rgb(0, 0, 0)" stroke-linejoin="miter" d=" M 248.525, 298.895 249.178, 298.606 249.760, 298.222 250.268, 297.739 250.550, 297.359 250.701, 297.157 251.055, 296.472 251.330, 295.683 251.522, 294.788 251.630, 293.783 251.651, 292.668 251.582, 291.439 251.442, 290.484 251.199, 289.556 250.867, 288.661 250.458, 287.808 249.983, 287.006 249.455, 286.262 248.888, 285.584 248.292, 284.981 247.681, 284.461 247.067, 284.032 246.462, 283.701 245.878, 283.477 236.289, 280.640 226.700, 277.802 225.652, 277.492 220.951, 276.077 216.394, 274.662 211.939, 273.243 207.549, 271.818 203.183, 270.385 198.806, 268.940 194.379, 267.481 189.867, 266.006 185.235, 264.514 180.450, 263.002 175.477, 261.469 170.285, 259.913 169.445, 259.706 168.618, 259.587 167.818, 259.558 167.059, 259.624 166.353, 259.788 " />
            <path fill="none" stroke-width="3.0" stroke-linecap="butt" stroke-opacity="1.0" stroke="rgb(0, 0, 0)" stroke-linejoin="miter" d=" M 312.428, 436.306 312.076, 436.430 311.693, 436.464 311.285, 436.415 310.855, 436.288 310.345, 436.049 309.833, 435.715 309.316, 435.288 308.785, 434.771 308.237, 434.166 307.664, 433.473 307.062, 432.696 306.424, 431.836 305.745, 430.895 305.019, 429.875 304.240, 428.779 303.403, 427.608 298.319, 418.996 293.236, 410.385 288.152, 401.773 283.069, 393.162 277.985, 384.550 272.902, 375.939 267.818, 367.327 262.735, 358.716 257.651, 350.104 252.568, 341.493 247.484, 332.881 241.845, 323.327 240.983, 321.855 240.164, 320.429 239.392, 319.049 238.673, 317.715 238.011, 316.427 237.409, 315.186 236.874, 313.991 236.410, 312.841 236.021, 311.738 235.712, 310.681 235.488, 309.670 235.354, 308.705 235.305, 307.293 235.437, 305.987 235.750, 304.790 236.246, 303.703 236.926, 302.728 237.793, 301.866 238.847, 301.121 240.092, 300.492 241.529, 299.983 " />
            <path fill="none" stroke-width="3.0" stroke-linecap="butt" stroke-opacity="1.0" stroke="rgb(0, 0, 0)" stroke-linejoin="miter" d=" M 396.527, 597.170 397.198, 596.740 397.746, 596.208 398.153, 595.577 398.396, 594.849 398.453, 594.026 398.342, 592.882 398.121, 591.765 397.792, 590.677 397.358, 589.617 396.819, 588.585 396.179, 587.581 395.440, 586.604 394.604, 585.655 393.674, 584.733 392.651, 583.838 391.539, 582.970 390.339, 582.128 386.644, 579.542 383.457, 577.115 380.735, 574.791 378.438, 572.517 376.526, 570.240 374.960, 567.907 373.703, 565.463 372.716, 562.857 371.962, 560.035 371.405, 556.942 371.007, 553.525 370.732, 549.729 370.170, 539.745 369.608, 529.761 369.062, 520.067 368.802, 515.441 368.429, 508.814 367.867, 498.830 367.305, 488.845 366.743, 478.861 366.181, 468.877 365.618, 458.893 365.056, 448.909 364.494, 438.924 363.946, 429.189 363.384, 419.205 363.245, 416.742 362.683, 406.757 362.121, 396.773 361.559, 386.789 360.997, 376.805 360.435, 366.821 360.122, 361.267 359.962, 356.825 360.035, 352.959 360.370, 349.635 360.995, 346.816 361.938, 344.466 363.230, 342.548 364.899, 341.023 366.976, 339.855 " />
            <path fill="none" stroke-width="3.0" stroke-linecap="butt" stroke-opacity="1.0" stroke="rgb(0, 0, 0)" stroke-linejoin="miter" d=" M 309.564, 450.554 310.098, 450.380 310.627, 450.289 311.151, 450.282 311.670, 450.357 312.183, 450.511 312.617, 450.718 313.041, 451.003 313.132, 451.084 313.451, 451.367 313.843, 451.810 314.214, 452.331 314.558, 452.931 314.873, 453.609 315.154, 454.364 315.397, 455.197 315.599, 456.107 315.754, 457.093 315.860, 458.156 316.293, 464.142 316.720, 470.090 316.933, 473.109 317.138, 476.001 317.545, 481.878 317.938, 487.722 318.314, 493.535 318.671, 499.318 319.006, 505.073 319.316, 510.801 319.598, 516.504 319.850, 522.182 320.069, 527.837 320.132, 530.226 320.155, 531.110 320.155, 533.990 320.024, 536.496 319.907, 537.325 319.719, 538.646 319.195, 540.457 318.409, 541.947 317.316, 543.131 315.874, 544.029 " />
            <path fill="none" stroke-width="3.0" stroke-linecap="butt" stroke-opacity="1.0" stroke="rgb(0, 0, 0)" stroke-linejoin="miter" d=" M 213.970, 486.458 204.659, 490.108 195.349, 493.757 188.936, 496.270 188.282, 496.539 187.720, 496.922 187.273, 497.438 186.962, 498.108 186.813, 498.953 186.846, 499.992 187.016, 500.886 187.321, 501.806 187.759, 502.742 188.330, 503.689 189.031, 504.639 189.862, 505.584 190.820, 506.516 191.905, 507.429 193.116, 508.315 194.451, 509.167 195.910, 509.977 197.491, 510.737 201.211, 512.351 204.949, 513.892 208.710, 515.376 212.496, 516.822 216.311, 518.246 220.158, 519.667 224.039, 521.102 227.959, 522.569 231.920, 524.086 235.924, 525.671 239.976, 527.343 244.077, 529.120 247.194, 530.541 250.238, 531.989 253.221, 533.459 256.158, 534.945 259.064, 536.442 261.953, 537.944 264.840, 539.446 267.742, 540.943 270.673, 542.429 273.649, 543.900 276.687, 545.350 279.803, 546.774 280.347, 546.973 280.895, 547.090 281.436, 547.123 281.959, 547.070 282.453, 546.931 282.908, 546.705 283.313, 546.389 283.656, 545.983 283.926, 545.485 284.113, 544.895 284.205, 544.210 284.192, 543.431 284.062, 542.347 283.861, 541.304 283.592, 540.302 283.255, 539.340 282.852, 538.418 282.386, 537.536 281.858, 536.693 281.270, 535.889 280.624, 535.124 279.922, 534.398 279.166, 533.710 278.358, 533.060 276.379, 531.631 274.585, 530.227 272.970, 528.844 271.527, 527.483 270.252, 526.142 269.139, 524.819 268.184, 523.514 267.381, 522.225 266.726, 520.951 266.213, 519.690 265.839, 518.443 265.599, 517.207 265.548, 516.289 265.561, 515.382 265.638, 514.484 265.777, 513.593 265.977, 512.709 266.238, 511.828 266.559, 510.949 266.938, 510.071 267.376, 509.191 267.870, 508.308 268.420, 507.419 269.026, 506.524 274.768, 498.337 280.510, 490.150 286.253, 481.963 291.995, 473.776 297.738, 465.589 303.480, 457.403 305.697, 454.242 305.748, 454.170 306.233, 453.484 306.262, 453.443 306.823, 452.736 307.380, 452.121 307.933, 451.597 308.481, 451.162 309.025, 450.815 309.564, 450.554 " />
            <path fill="none" stroke-width="3.0" stroke-linecap="butt" stroke-opacity="1.0" stroke="rgb(0, 0, 0)" stroke-linejoin="miter" d=" M 203.600, 494.430 201.413, 495.089 199.014, 495.557 196.384, 495.823 193.502, 495.877 192.780, 495.900 192.012, 495.912 191.220, 495.934 190.429, 495.988 189.660, 496.093 188.936, 496.270 " />
            <path fill="none" stroke-width="3.0" stroke-linecap="butt" stroke-opacity="1.0" stroke="rgb(0, 0, 0)" stroke-linejoin="miter" d=" M 315.874, 544.029 314.041, 544.655 311.776, 545.028 309.039, 545.164 305.791, 545.081 304.981, 545.088 304.175, 545.108 303.387, 545.158 302.631, 545.256 301.923, 545.418 301.275, 545.664 " />
            <path fill="none" stroke-width="3.0" stroke-linecap="butt" stroke-opacity="1.0" stroke="rgb(0, 0, 0)" stroke-linejoin="miter" d=" M 282.453, 546.931 291.595, 542.878 300.737, 538.825 309.879, 534.772 319.021, 530.719 320.132, 530.226 " />
        </g>
    </g>
</svg>
