<?xml version='1.0' encoding='ascii'?>
<svg xmlns="http://www.w3.org/2000/svg" version="1.1" width="1080" height="1080">
    <g id="View Layer_LineSet" xmlns:inkscape="http://www.inkscape.org/namespaces/inkscape" inkscape:groupmode="lineset" inkscape:label="View Layer_LineSet">
        <g xmlns:inkscape="http://www.inkscape.org/namespaces/inkscape" inkscape:groupmode="layer" id="strokes" inkscape:label="strokes">
            <path fill="none" stroke-width="3.0" stroke-linecap="butt" stroke-opacity="1.0" stroke="rgb(0, 0, 0)" stroke-linejoin="miter" d=" M 368.798, 341.230 371.465, 340.331 374.630, 339.706 376.895, 339.467 378.326, 339.316 382.592, 339.122 383.586, 339.017 384.501, 338.814 385.337, 338.510 394.698, 334.993 404.059, 331.477 413.420, 327.960 415.065, 327.342 424.426, 323.825 433.788, 320.308 443.149, 316.791 452.510, 313.274 461.871, 309.757 471.200, 306.253 480.561, 302.736 489.922, 299.219 493.444, 297.896 494.198, 297.498 494.871, 297.003 495.460, 296.410 495.962, 295.715 496.376, 294.917 496.699, 294.014 496.928, 293.003 497.060, 291.882 497.093, 290.649 497.012, 289.693 496.802, 288.765 496.478, 287.873 496.055, 287.024 495.547, 286.228 494.968, 285.491 494.333, 284.822 493.657, 284.228 492.953, 283.717 492.237, 283.298 491.523, 282.977 490.825, 282.763 486.918, 281.904 482.771, 281.064 478.445, 280.241 473.997, 279.433 469.486, 278.640 464.967, 277.858 460.495, 277.086 456.126, 276.322 451.913, 275.563 447.908, 274.808 444.162, 274.055 440.727, 273.300 437.325, 272.479 433.535, 271.511 429.436, 270.425 425.108, 269.251 420.627, 268.021 416.071, 266.762 411.515, 265.504 407.033, 264.275 402.697, 263.104 398.580, 262.018 394.752, 261.045 391.283, 260.212 390.534, 260.082 389.844, 260.050 389.213, 260.117 388.646, 260.283 379.128, 263.352 369.611, 266.421 360.093, 269.490 350.576, 272.558 341.058, 275.627 339.453, 276.145 329.935, 279.214 320.418, 282.283 319.768, 282.492 310.250, 285.561 300.733, 288.630 291.215, 291.699 281.698, 294.767 277.787, 296.028 277.290, 296.300 276.865, 296.680 276.513, 297.168 276.236, 297.766 276.037, 298.472 275.918, 299.288 275.880, 300.214 275.926, 301.252 276.080, 302.604 276.312, 303.829 276.619, 304.941 277.001, 305.953 277.458, 306.877 277.988, 307.728 278.589, 308.519 279.262, 309.262 280.005, 309.971 280.817, 310.659 281.697, 311.340 282.645, 312.025 286.837, 314.842 290.483, 317.492 293.621, 320.031 296.288, 322.515 298.524, 325.002 300.369, 327.549 301.863, 330.212 303.049, 333.050 303.967, 336.119 304.660, 339.476 305.172, 343.176 305.543, 347.276 306.271, 357.249 307.000, 367.222 307.729, 377.196 308.457, 387.169 309.186, 397.143 309.915, 407.116 310.643, 417.089 311.372, 427.063 311.895, 434.225 311.941, 435.279 311.918, 436.197 311.831, 436.986 311.684, 437.650 311.482, 438.197 311.229, 438.631 310.931, 438.959 310.592, 439.186 " />
            <path fill="none" stroke-width="3.0" stroke-linecap="butt" stroke-opacity="1.0" stroke="rgb(0, 0, 0)" stroke-linejoin="miter" d=" M 235.575, 303.410 237.318, 302.992 239.271, 302.694 241.435, 302.520 242.277, 302.402 243.047, 302.192 252.574, 299.151 262.100, 296.109 271.626, 293.068 281.152, 290.026 290.679, 286.985 300.205, 283.943 309.731, 280.902 316.598, 278.709 326.124, 275.668 335.650, 272.627 341.548, 270.743 351.075, 267.702 353.882, 266.806 354.588, 266.506 355.222, 266.119 355.783, 265.642 356.267, 265.072 356.672, 264.409 356.997, 263.650 357.238, 262.793 357.394, 261.836 357.463, 260.777 357.441, 259.614 357.332, 258.714 357.113, 257.843 356.797, 257.006 356.397, 256.213 355.926, 255.470 355.397, 254.784 354.821, 254.163 354.214, 253.614 353.586, 253.143 352.951, 252.759 352.321, 252.468 351.710, 252.277 341.968, 250.022 332.225, 247.767 330.424, 247.350 325.468, 246.180 320.662, 245.003 315.964, 243.819 311.330, 242.626 306.722, 241.422 302.097, 240.208 297.418, 238.982 292.645, 237.742 287.741, 236.490 282.669, 235.223 277.393, 233.942 271.879, 232.646 270.985, 232.479 270.101, 232.395 269.241, 232.397 268.421, 232.487 267.653, 232.669 258.024, 235.365 248.394, 238.060 238.764, 240.756 229.134, 243.451 219.504, 246.147 209.874, 248.842 200.244, 251.538 190.615, 254.234 180.985, 256.929 171.355, 259.625 161.725, 262.320 155.259, 264.130 154.572, 264.410 153.970, 264.795 153.468, 265.289 153.081, 265.897 152.821, 266.621 152.703, 267.466 152.742, 268.435 152.992, 269.743 153.412, 270.984 153.979, 272.156 154.671, 273.257 155.465, 274.286 156.340, 275.241 157.273, 276.122 158.242, 276.924 159.225, 277.648 160.199, 278.291 161.142, 278.851 162.031, 279.326 166.939, 281.680 171.621, 284.212 176.086, 286.912 180.346, 289.765 184.409, 292.761 188.287, 295.885 191.992, 299.127 195.534, 302.473 198.927, 305.910 202.182, 309.426 205.313, 313.010 208.332, 316.647 212.969, 322.517 217.577, 328.609 222.164, 334.897 226.741, 341.354 231.316, 347.956 235.899, 354.676 240.500, 361.490 245.131, 368.373 249.801, 375.300 254.522, 382.248 259.304, 389.193 264.161, 396.112 264.929, 397.270 265.577, 398.434 266.103, 399.598 266.507, 400.755 266.788, 401.900 266.946, 403.026 266.981, 404.129 266.892, 405.201 266.679, 406.239 266.341, 407.234 265.879, 408.183 265.292, 409.078 259.446, 417.191 253.599, 425.304 247.752, 433.416 241.905, 441.529 236.058, 449.641 230.211, 457.754 224.364, 465.867 218.518, 473.979 212.671, 482.092 207.638, 489.075 206.616, 490.438 206.275, 490.892 204.873, 492.611 203.408, 494.221 201.854, 495.710 200.189, 497.067 198.388, 498.280 196.430, 499.340 " />
            <path fill="none" stroke-width="3.0" stroke-linecap="butt" stroke-opacity="1.0" stroke="rgb(0, 0, 0)" stroke-linejoin="miter" d=" M 339.453, 276.145 339.458, 275.298 339.653, 274.051 340.037, 272.901 340.611, 271.849 341.377, 270.896 341.548, 270.743 " />
            <path fill="none" stroke-width="3.0" stroke-linecap="butt" stroke-opacity="1.0" stroke="rgb(0, 0, 0)" stroke-linejoin="miter" d=" M 318.304, 539.589 309.330, 544.001 300.356, 548.414 298.334, 549.408 297.725, 549.770 297.210, 550.247 296.806, 550.857 296.526, 551.617 296.387, 552.544 296.403, 553.655 296.565, 554.596 296.888, 555.550 297.356, 556.506 297.950, 557.452 298.652, 558.376 299.446, 559.267 300.314, 560.112 301.237, 560.900 302.199, 561.619 303.182, 562.256 304.169, 562.800 305.141, 563.238 309.724, 565.005 314.048, 566.568 318.134, 567.955 322.005, 569.195 325.684, 570.318 329.195, 571.351 332.561, 572.326 335.807, 573.272 338.957, 574.220 342.035, 575.199 345.068, 576.241 348.079, 577.377 351.125, 578.658 354.123, 580.047 357.121, 581.541 360.168, 583.131 363.314, 584.814 366.609, 586.583 370.104, 588.432 373.851, 590.358 377.904, 592.355 382.316, 594.419 387.145, 596.545 392.447, 598.731 393.433, 599.055 394.446, 599.261 395.463, 599.350 396.463, 599.325 397.423, 599.190 398.321, 598.948 399.137, 598.601 407.860, 593.711 416.583, 588.822 425.307, 583.933 434.030, 579.043 442.753, 574.154 451.476, 569.265 460.200, 564.376 468.923, 559.486 477.646, 554.597 486.369, 549.708 495.092, 544.818 498.234, 543.057 498.952, 542.607 499.547, 542.067 499.996, 541.441 500.277, 540.733 500.369, 539.946 500.296, 538.863 500.106, 537.813 499.803, 536.797 499.387, 535.814 498.862, 534.864 498.230, 533.946 497.493, 533.060 496.654, 532.207 495.714, 531.385 494.676, 530.594 493.544, 529.834 492.319, 529.104 488.544, 526.862 485.294, 524.739 482.527, 522.687 480.204, 520.657 478.284, 518.600 476.730, 516.469 475.503, 514.215 474.566, 511.789 473.883, 509.144 473.416, 506.231 473.129, 502.999 472.986, 499.400 472.767, 489.402 472.548, 479.404 472.328, 469.407 472.109, 459.409 471.890, 449.412 471.671, 439.414 471.452, 429.416 471.233, 419.419 471.013, 409.421 470.794, 399.424 470.575, 389.426 470.356, 379.428 470.137, 369.431 469.918, 359.433 469.698, 349.436 469.479, 339.438 469.260, 329.440 469.081, 321.289 469.084, 317.105 469.308, 313.455 469.785, 310.307 470.546, 307.623 471.200, 306.253 " />
            <path fill="none" stroke-width="3.0" stroke-linecap="butt" stroke-opacity="1.0" stroke="rgb(0, 0, 0)" stroke-linejoin="miter" d=" M 385.337, 338.510 386.088, 338.104 386.754, 337.592 387.331, 336.973 387.817, 336.244 388.209, 335.402 388.504, 334.446 388.616, 333.832 388.699, 333.372 388.793, 332.179 388.782, 330.864 388.663, 329.842 388.416, 328.846 388.054, 327.886 387.592, 326.971 387.046, 326.108 386.430, 325.308 385.760, 324.579 385.050, 323.929 384.315, 323.367 383.572, 322.903 382.834, 322.544 382.116, 322.300 378.111, 321.292 373.866, 320.299 369.439, 319.320 364.892, 318.356 363.323, 318.033 360.281, 317.405 355.665, 316.467 351.100, 315.541 346.641, 314.626 342.340, 313.722 338.252, 312.826 334.429, 311.937 330.921, 311.055 327.445, 310.102 323.571, 308.984 319.382, 307.735 314.959, 306.387 310.380, 304.976 305.726, 303.533 301.074, 302.092 296.498, 300.684 292.075, 299.341 287.877, 298.094 283.976, 296.974 280.444, 296.011 279.684, 295.856 278.986, 295.806 278.353, 295.864 277.787, 296.028 " />
            <path fill="none" stroke-width="3.0" stroke-linecap="butt" stroke-opacity="1.0" stroke="rgb(0, 0, 0)" stroke-linejoin="miter" d=" M 243.047, 302.192 243.745, 301.890 244.367, 301.493 244.911, 300.998 245.375, 300.404 245.452, 300.264 245.756, 299.709 246.052, 298.910 246.261, 298.004 246.379, 296.991 246.406, 295.867 246.337, 294.631 246.191, 293.673 245.936, 292.742 245.585, 291.846 245.151, 290.994 244.647, 290.195 244.087, 289.454 243.484, 288.782 242.851, 288.185 242.201, 287.671 241.547, 287.249 240.902, 286.926 240.280, 286.710 230.610, 284.160 220.941, 281.611 218.700, 281.019 213.680, 279.671 208.812, 278.320 204.052, 276.963 199.360, 275.599 194.693, 274.225 190.012, 272.839 185.277, 271.440 180.449, 270.026 175.491, 268.596 170.367, 267.147 165.041, 265.680 159.478, 264.193 158.577, 263.998 157.691, 263.891 156.832, 263.875 156.017, 263.953 155.259, 264.130 " />
            <path fill="none" stroke-width="3.0" stroke-linecap="butt" stroke-opacity="1.0" stroke="rgb(0, 0, 0)" stroke-linejoin="miter" d=" M 310.592, 439.186 310.217, 439.318 309.810, 439.361 309.376, 439.321 308.920, 439.203 308.379, 438.973 307.836, 438.649 307.287, 438.232 306.726, 437.723 306.145, 437.126 305.539, 436.443 304.901, 435.675 304.227, 434.824 303.508, 433.893 302.740, 432.883 301.916, 431.798 301.030, 430.639 295.707, 422.173 290.385, 413.707 285.063, 405.241 279.741, 396.775 274.418, 388.309 269.096, 379.843 263.774, 371.377 258.451, 362.911 253.129, 354.445 247.807, 345.979 242.485, 337.513 237.162, 329.047 235.825, 326.920 234.910, 325.452 234.041, 324.030 233.223, 322.654 232.460, 321.323 231.757, 320.038 231.120, 318.798 230.553, 317.603 230.061, 316.454 229.650, 315.349 229.324, 314.290 229.088, 313.275 228.948, 312.305 228.902, 310.883 229.047, 309.565 229.386, 308.353 229.920, 307.250 230.650, 306.255 231.579, 305.372 232.708, 304.603 234.039, 303.948 235.575, 303.410 " />
            <path fill="none" stroke-width="3.0" stroke-linecap="butt" stroke-opacity="1.0" stroke="rgb(0, 0, 0)" stroke-linejoin="miter" d=" M 399.137, 598.601 399.847, 598.151 400.429, 597.603 400.860, 596.959 401.119, 596.223 401.183, 595.396 401.070, 594.252 400.841, 593.139 400.497, 592.057 400.041, 591.006 399.476, 589.986 398.803, 588.996 398.025, 588.037 397.145, 587.107 396.165, 586.208 395.087, 585.338 393.914, 584.497 392.649, 583.686 388.751, 581.192 385.389, 578.842 382.518, 576.584 380.095, 574.364 378.081, 572.130 376.432, 569.830 375.110, 567.412 374.075, 564.823 373.287, 562.011 372.708, 558.922 372.299, 555.504 372.022, 551.702 371.464, 541.718 370.906, 531.733 370.348, 521.749 370.220, 519.469 369.926, 514.207 369.512, 506.794 368.953, 496.809 368.395, 486.825 368.190, 483.149 367.631, 473.165 367.109, 463.816 366.551, 453.832 365.992, 443.847 365.434, 433.863 365.144, 428.675 364.586, 418.691 364.457, 416.384 363.899, 406.400 363.341, 396.415 362.782, 386.431 362.224, 376.447 361.666, 366.462 361.464, 362.841 361.310, 358.387 361.402, 354.507 361.768, 351.166 362.439, 348.326 363.447, 345.950 364.822, 344.001 366.595, 342.440 368.798, 341.230 " />
            <path fill="none" stroke-width="3.0" stroke-linecap="butt" stroke-opacity="1.0" stroke="rgb(0, 0, 0)" stroke-linejoin="miter" d=" M 307.496, 453.573 308.064, 453.385 308.627, 453.282 309.184, 453.263 309.735, 453.326 310.279, 453.470 310.740, 453.668 311.189, 453.945 311.624, 454.302 312.039, 454.739 312.431, 455.254 312.795, 455.849 313.127, 456.523 313.423, 457.276 313.678, 458.108 313.889, 459.018 314.050, 460.006 314.159, 461.072 314.597, 467.078 315.028, 473.046 315.451, 478.978 315.491, 479.554 315.862, 484.875 316.259, 490.740 316.637, 496.573 316.995, 502.377 317.330, 508.153 317.638, 513.903 317.917, 519.627 318.164, 525.328 318.376, 531.006 318.392, 531.663 318.455, 534.294 318.445, 537.188 318.304, 539.589 318.297, 539.711 317.965, 541.879 317.402, 543.713 316.561, 545.230 315.395, 546.450 313.860, 547.388 " />
            <path fill="none" stroke-width="3.0" stroke-linecap="butt" stroke-opacity="1.0" stroke="rgb(0, 0, 0)" stroke-linejoin="miter" d=" M 206.616, 490.438 197.422, 494.371 188.228, 498.304 179.033, 502.237 177.873, 502.733 177.269, 503.133 176.787, 503.665 176.452, 504.349 176.288, 505.205 176.320, 506.254 176.498, 507.153 176.822, 508.073 177.288, 509.008 177.897, 509.951 178.645, 510.892 179.531, 511.825 180.555, 512.743 181.714, 513.638 183.008, 514.503 184.435, 515.330 185.995, 516.111 187.686, 516.839 191.663, 518.376 195.660, 519.838 199.681, 521.242 203.727, 522.607 207.804, 523.948 211.913, 525.285 216.059, 526.635 220.244, 528.015 224.471, 529.445 228.744, 530.942 233.065, 532.525 237.438, 534.213 240.762, 535.566 244.005, 536.948 247.183, 538.353 250.312, 539.775 253.406, 541.208 256.482, 542.647 259.555, 544.086 262.643, 545.519 265.762, 546.941 268.929, 548.345 272.160, 549.726 275.475, 551.079 276.053, 551.266 276.636, 551.369 277.212, 551.388 277.770, 551.321 278.297, 551.169 278.782, 550.929 279.214, 550.601 279.581, 550.184 279.871, 549.676 280.072, 549.077 280.173, 548.385 280.161, 547.601 280.027, 546.514 279.817, 545.470 279.533, 544.468 279.178, 543.508 278.753, 542.591 278.260, 541.715 277.701, 540.880 277.077, 540.086 276.392, 539.333 275.647, 538.620 274.844, 537.946 273.986, 537.312 271.883, 535.924 269.977, 534.556 268.260, 533.205 266.728, 531.871 265.374, 530.553 264.193, 529.249 263.179, 527.959 262.328, 526.681 261.634, 525.415 261.093, 524.158 260.698, 522.911 260.447, 521.673 260.396, 520.750 260.413, 519.836 260.498, 518.930 260.650, 518.030 260.867, 517.134 261.149, 516.241 261.494, 515.348 261.901, 514.454 262.371, 513.558 262.901, 512.656 263.491, 511.748 264.139, 510.832 270.055, 502.770 275.971, 494.707 281.888, 486.645 287.804, 478.583 293.720, 470.520 299.636, 462.458 303.372, 457.367 303.975, 456.551 304.574, 455.828 305.168, 455.197 305.758, 454.657 306.342, 454.208 306.922, 453.846 307.496, 453.573 " />
            <path fill="none" stroke-width="3.0" stroke-linecap="butt" stroke-opacity="1.0" stroke="rgb(0, 0, 0)" stroke-linejoin="miter" d=" M 196.430, 499.340 194.289, 500.234 191.945, 500.951 189.375, 501.482 186.556, 501.814 183.469, 501.938 182.696, 501.978 181.872, 502.009 181.024, 502.051 180.175, 502.124 179.350, 502.249 178.575, 502.445 177.873, 502.733 " />
            <path fill="none" stroke-width="3.0" stroke-linecap="butt" stroke-opacity="1.0" stroke="rgb(0, 0, 0)" stroke-linejoin="miter" d=" M 313.860, 547.388 311.910, 548.065 309.502, 548.498 306.592, 548.705 303.139, 548.705 302.277, 548.734 301.420, 548.774 300.582, 548.845 299.778, 548.963 299.024, 549.145 298.334, 549.408 " />
            <path fill="none" stroke-width="3.0" stroke-linecap="butt" stroke-opacity="1.0" stroke="rgb(0, 0, 0)" stroke-linejoin="miter" d=" M 278.297, 551.169 287.289, 546.794 296.281, 542.419 305.274, 538.045 314.266, 533.670 318.392, 531.663 " />
        </g>
    </g>
</svg>
