<?xml version='1.0' encoding='ascii'?>
<svg xmlns="http://www.w3.org/2000/svg" version="1.1" width="1080" height="1080">
    <g id="View Layer_LineSet" xmlns:inkscape="http://www.inkscape.org/namespaces/inkscape" inkscape:groupmode="lineset" inkscape:label="View Layer_LineSet">
        <g xmlns:inkscape="http://www.inkscape.org/namespaces/inkscape" inkscape:groupmode="layer" id="strokes" inkscape:label="strokes">
            <path fill="none" stroke-width="3.0" stroke-linecap="butt" stroke-opacity="1.0" stroke="rgb(0, 0, 0)" stroke-linejoin="miter" d=" M 370.858, 342.570 373.669, 341.620 377.001, 340.934 380.892, 340.475 385.380, 340.202 386.425, 340.078 387.389, 339.858 388.268, 339.538 397.501, 335.698 406.735, 331.859 408.351, 331.186 417.585, 327.347 426.818, 323.507 436.052, 319.667 445.285, 315.828 454.519, 311.988 463.752, 308.148 466.160, 307.147 475.393, 303.307 484.627, 299.468 489.818, 297.309 490.600, 296.899 491.298, 296.393 491.910, 295.790 492.431, 295.088 492.861, 294.284 493.195, 293.376 493.432, 292.362 493.569, 291.240 493.603, 290.007 493.517, 289.054 493.299, 288.130 492.962, 287.244 492.522, 286.403 491.994, 285.615 491.393, 284.888 490.733, 284.230 490.031, 283.648 489.300, 283.149 488.556, 282.741 487.814, 282.433 487.089, 282.230 483.030, 281.435 478.721, 280.662 474.224, 279.909 469.600, 279.174 464.908, 278.453 460.207, 277.744 455.554, 277.043 451.006, 276.349 446.619, 275.658 442.447, 274.967 438.544, 274.273 434.965, 273.572 431.419, 272.805 427.467, 271.895 423.193, 270.873 418.678, 269.767 414.003, 268.605 409.247, 267.416 404.490, 266.227 399.809, 265.066 395.280, 263.961 390.977, 262.937 386.976, 262.021 383.350, 261.240 382.567, 261.121 381.844, 261.100 381.185, 261.177 380.592, 261.353 371.166, 264.691 361.739, 268.030 352.313, 271.368 342.887, 274.706 333.461, 278.045 329.199, 279.554 319.773, 282.893 310.346, 286.231 309.836, 286.412 300.410, 289.750 290.984, 293.089 281.558, 296.427 274.910, 298.782 274.383, 299.064 273.931, 299.453 273.556, 299.951 273.261, 300.556 273.048, 301.270 272.919, 302.093 272.875, 303.026 272.921, 304.069 273.079, 305.427 273.320, 306.656 273.642, 307.769 274.044, 308.780 274.524, 309.702 275.082, 310.549 275.717, 311.334 276.426, 312.070 277.211, 312.770 278.068, 313.448 278.998, 314.117 280.000, 314.790 284.428, 317.549 288.278, 320.149 291.589, 322.646 294.402, 325.096 296.759, 327.557 298.702, 330.083 300.273, 332.734 301.517, 335.565 302.478, 338.633 303.199, 341.995 303.727, 345.705 304.106, 349.818 304.839, 359.791 305.573, 369.764 306.307, 379.737 307.040, 389.711 307.774, 399.684 308.508, 409.657 309.241, 419.630 309.975, 429.603 310.350, 434.696 310.526, 437.087 310.571, 438.145 310.543, 439.069 310.448, 439.864 310.290, 440.535 310.075, 441.089 309.807, 441.531 309.491, 441.867 309.132, 442.103 " />
            <path fill="none" stroke-width="3.0" stroke-linecap="butt" stroke-opacity="1.0" stroke="rgb(0, 0, 0)" stroke-linejoin="miter" d=" M 228.478, 307.508 230.112, 306.940 231.965, 306.488 234.039, 306.155 236.338, 305.942 237.232, 305.808 238.051, 305.583 247.490, 302.281 256.929, 298.978 266.367, 295.676 275.806, 292.373 285.245, 289.070 294.684, 285.768 304.123, 282.465 305.856, 281.859 315.295, 278.556 324.734, 275.254 330.762, 273.145 340.200, 269.842 344.200, 268.443 344.940, 268.131 345.605, 267.732 346.192, 267.244 346.699, 266.665 347.124, 265.993 347.463, 265.226 347.716, 264.362 347.879, 263.399 347.951, 262.335 347.927, 261.168 347.812, 260.266 347.582, 259.395 347.251, 258.560 346.832, 257.770 346.338, 257.032 345.783, 256.352 345.180, 255.737 344.542, 255.195 343.884, 254.732 343.218, 254.356 342.558, 254.074 341.918, 253.892 332.125, 251.865 322.333, 249.838 319.586, 249.269 314.382, 248.168 309.335, 247.059 304.398, 245.940 299.528, 244.810 294.683, 243.670 289.819, 242.518 284.897, 241.355 279.874, 240.180 274.712, 238.993 269.371, 237.794 263.814, 236.583 258.003, 235.360 257.060, 235.206 256.128, 235.134 255.223, 235.148 254.358, 235.251 253.549, 235.446 243.984, 238.365 234.420, 241.283 224.855, 244.202 215.291, 247.120 205.726, 250.039 196.161, 252.958 186.597, 255.876 177.032, 258.795 167.468, 261.714 157.903, 264.632 148.338, 267.551 144.709, 268.659 143.974, 268.952 143.330, 269.351 142.793, 269.858 142.376, 270.478 142.096, 271.214 141.968, 272.069 142.006, 273.047 142.268, 274.365 142.712, 275.612 143.313, 276.786 144.048, 277.887 144.893, 278.914 145.824, 279.864 146.817, 280.738 147.849, 281.533 148.896, 282.248 149.933, 282.881 150.938, 283.431 151.885, 283.895 157.115, 286.191 162.101, 288.670 166.855, 291.320 171.387, 294.128 175.708, 297.082 179.830, 300.169 183.765, 303.376 187.527, 306.690 191.127, 310.098 194.581, 313.588 197.901, 317.147 201.101, 320.761 206.014, 326.597 210.894, 332.655 215.750, 338.910 220.592, 345.333 225.431, 351.901 230.277, 358.585 235.141, 365.361 240.033, 372.205 244.966, 379.090 249.951, 385.993 255.000, 392.889 260.126, 399.756 260.937, 400.907 261.619, 402.065 262.173, 403.225 262.597, 404.382 262.892, 405.528 263.056, 406.659 263.089, 407.768 262.991, 408.850 262.761, 409.898 262.400, 410.907 261.906, 411.872 261.281, 412.786 255.275, 420.781 249.269, 428.776 243.263, 436.772 237.257, 444.767 231.251, 452.763 225.245, 460.758 219.239, 468.754 213.232, 476.749 207.226, 484.744 201.220, 492.740 200.135, 494.185 199.756, 494.689 198.300, 496.554 196.801, 498.322 195.235, 499.981 193.575, 501.520 191.797, 502.930 189.876, 504.198 187.785, 505.314 " />
            <path fill="none" stroke-width="3.0" stroke-linecap="butt" stroke-opacity="1.0" stroke="rgb(0, 0, 0)" stroke-linejoin="miter" d=" M 329.199, 279.554 329.179, 279.461 329.070, 278.547 329.078, 277.200 329.283, 275.945 329.685, 274.784 330.287, 273.718 330.762, 273.145 " />
            <path fill="none" stroke-width="3.0" stroke-linecap="butt" stroke-opacity="1.0" stroke="rgb(0, 0, 0)" stroke-linejoin="miter" d=" M 317.012, 541.752 308.215, 546.508 299.419, 551.264 295.795, 553.223 295.149, 553.603 294.603, 554.096 294.173, 554.720 293.874, 555.492 293.724, 556.428 293.736, 557.545 293.905, 558.487 294.244, 559.439 294.735, 560.388 295.361, 561.324 296.101, 562.235 296.937, 563.111 297.852, 563.938 298.826, 564.707 299.842, 565.405 300.879, 566.020 301.921, 566.541 302.947, 566.957 307.787, 568.614 312.352, 570.072 316.665, 571.360 320.751, 572.504 324.633, 573.535 328.337, 574.482 331.887, 575.372 335.310, 576.237 338.630, 577.106 341.875, 578.009 345.070, 578.975 348.242, 580.036 351.449, 581.241 354.605, 582.557 357.760, 583.976 360.965, 585.492 364.274, 587.096 367.738, 588.784 371.412, 590.546 375.351, 592.378 379.610, 594.272 384.246, 596.223 389.318, 598.226 394.886, 600.273 395.922, 600.572 396.986, 600.750 398.055, 600.812 399.106, 600.760 400.115, 600.599 401.061, 600.332 401.919, 599.961 410.415, 594.687 418.910, 589.412 427.406, 584.138 435.902, 578.863 444.398, 573.588 452.894, 568.314 461.389, 563.039 469.885, 557.765 478.381, 552.490 486.877, 547.216 494.926, 542.218 495.671, 541.751 496.288, 541.196 496.754, 540.559 497.046, 539.845 497.140, 539.056 497.064, 537.975 496.866, 536.931 496.551, 535.923 496.119, 534.950 495.574, 534.013 494.917, 533.112 494.151, 532.245 493.279, 531.412 492.302, 530.613 491.224, 529.848 490.048, 529.116 488.775, 528.416 484.853, 526.267 481.474, 524.223 478.598, 522.239 476.181, 520.264 474.184, 518.254 472.567, 516.160 471.290, 513.934 470.315, 511.531 469.602, 508.901 469.115, 505.998 468.815, 502.772 468.665, 499.175 468.431, 489.178 468.198, 479.181 467.965, 469.184 467.732, 459.186 467.498, 449.189 467.265, 439.192 467.032, 429.195 466.798, 419.197 466.565, 409.200 466.332, 399.203 466.099, 389.205 465.865, 379.208 465.632, 369.211 465.399, 359.214 465.166, 349.216 464.932, 339.219 464.699, 329.222 464.510, 321.111 464.510, 316.927 464.742, 313.273 465.236, 310.116 466.026, 307.419 466.160, 307.147 " />
            <path fill="none" stroke-width="3.0" stroke-linecap="butt" stroke-opacity="1.0" stroke="rgb(0, 0, 0)" stroke-linejoin="miter" d=" M 388.268, 339.538 389.060, 339.117 389.761, 338.592 390.370, 337.961 390.883, 337.221 391.298, 336.370 391.611, 335.406 391.820, 334.326 391.857, 333.904 391.923, 333.129 391.915, 331.811 391.794, 330.789 391.537, 329.795 391.160, 328.839 390.677, 327.930 390.106, 327.075 389.461, 326.284 388.759, 325.565 388.014, 324.926 387.244, 324.377 386.464, 323.925 385.688, 323.578 384.934, 323.346 380.725, 322.406 376.261, 321.486 371.606, 320.584 366.821, 319.697 361.969, 318.825 357.110, 317.965 352.396, 317.133 352.302, 317.117 347.604, 316.277 343.073, 315.444 338.765, 314.617 334.734, 313.791 331.035, 312.967 327.369, 312.071 323.283, 311.016 318.864, 309.834 314.196, 308.557 309.363, 307.218 304.448, 305.849 299.534, 304.480 294.700, 303.143 290.024, 301.869 285.586, 300.687 281.461, 299.627 277.724, 298.719 276.919, 298.576 276.180, 298.538 275.510, 298.607 274.910, 298.782 " />
            <path fill="none" stroke-width="3.0" stroke-linecap="butt" stroke-opacity="1.0" stroke="rgb(0, 0, 0)" stroke-linejoin="miter" d=" M 238.051, 305.583 238.793, 305.267 239.454, 304.856 240.034, 304.349 240.528, 303.743 240.844, 303.193 240.935, 303.036 241.252, 302.226 241.476, 301.310 241.606, 300.288 241.637, 299.156 241.569, 297.912 241.417, 296.949 241.150, 296.016 240.780, 295.120 240.323, 294.269 239.791, 293.472 239.199, 292.736 238.561, 292.069 237.891, 291.479 237.202, 290.972 236.509, 290.558 235.826, 290.244 235.166, 290.037 225.431, 287.753 215.695, 285.470 212.255, 284.663 206.921, 283.387 201.746, 282.105 196.686, 280.816 191.695, 279.517 186.730, 278.208 181.748, 276.886 176.708, 275.552 171.567, 274.204 166.285, 272.840 160.825, 271.461 155.146, 270.066 149.214, 268.654 148.253, 268.471 147.307, 268.377 146.390, 268.375 145.519, 268.467 144.709, 268.659 " />
            <path fill="none" stroke-width="3.0" stroke-linecap="butt" stroke-opacity="1.0" stroke="rgb(0, 0, 0)" stroke-linejoin="miter" d=" M 309.132, 442.103 308.735, 442.244 308.304, 442.296 307.846, 442.265 307.364, 442.156 306.792, 441.937 306.220, 441.623 305.641, 441.215 305.049, 440.717 304.437, 440.129 303.799, 439.455 303.127, 438.697 302.417, 437.856 301.660, 436.935 300.851, 435.937 299.983, 434.864 299.050, 433.717 293.502, 425.398 287.954, 417.078 282.405, 408.758 276.857, 400.439 271.309, 392.119 265.760, 383.800 260.212, 375.480 254.664, 367.160 249.115, 358.841 243.567, 350.521 238.019, 342.201 232.470, 333.882 230.295, 330.621 229.329, 329.159 228.411, 327.742 227.546, 326.370 226.740, 325.043 225.997, 323.760 225.325, 322.522 224.726, 321.329 224.208, 320.179 223.775, 319.074 223.432, 318.012 223.185, 316.993 223.040, 316.018 222.996, 314.586 223.155, 313.255 223.519, 312.028 224.090, 310.907 224.870, 309.892 225.859, 308.986 227.061, 308.191 228.478, 307.508 " />
            <path fill="none" stroke-width="3.0" stroke-linecap="butt" stroke-opacity="1.0" stroke="rgb(0, 0, 0)" stroke-linejoin="miter" d=" M 401.919, 599.961 402.666, 599.492 403.279, 598.927 403.735, 598.269 404.010, 597.524 404.080, 596.694 403.965, 595.549 403.727, 594.440 403.369, 593.365 402.894, 592.323 402.303, 591.316 401.599, 590.342 400.785, 589.401 399.863, 588.493 398.836, 587.617 397.706, 586.774 396.476, 585.962 395.148, 585.182 391.058, 582.785 387.530, 580.517 384.517, 578.328 381.976, 576.165 379.863, 573.978 378.136, 571.714 376.753, 569.322 375.671, 566.752 374.852, 563.951 374.252, 560.867 373.833, 557.448 373.554, 553.640 373.001, 543.656 372.447, 533.671 371.894, 523.686 371.601, 518.415 371.269, 512.419 370.809, 504.122 370.256, 494.137 370.189, 492.930 369.635, 482.945 369.082, 472.960 368.528, 462.975 368.019, 453.783 367.465, 443.798 366.912, 433.813 366.576, 427.754 366.022, 417.769 365.905, 415.650 365.352, 405.666 364.798, 395.681 364.245, 385.696 363.691, 375.712 363.138, 365.727 363.063, 364.388 362.917, 359.922 363.026, 356.028 363.423, 352.668 364.139, 349.806 365.208, 347.404 366.662, 345.423 368.535, 343.825 369.790, 343.146 370.858, 342.570 " />
            <path fill="none" stroke-width="3.0" stroke-linecap="butt" stroke-opacity="1.0" stroke="rgb(0, 0, 0)" stroke-linejoin="miter" d=" M 305.202, 456.921 305.810, 456.633 306.411, 456.432 307.007, 456.316 307.595, 456.284 308.177, 456.336 308.753, 456.468 309.238, 456.657 309.712, 456.925 310.171, 457.274 310.608, 457.704 311.020, 458.213 311.403, 458.803 311.752, 459.473 312.062, 460.223 312.329, 461.053 312.548, 461.963 312.716, 462.953 312.827, 464.022 313.269, 470.049 313.705, 476.037 314.132, 481.990 314.383, 485.568 314.546, 487.908 314.945, 493.793 315.326, 499.647 315.684, 505.472 316.018, 511.269 316.324, 517.041 316.600, 522.788 316.841, 528.511 316.998, 532.869 317.046, 534.213 317.119, 537.516 317.098, 540.426 317.012, 541.752 316.934, 542.965 316.575, 545.153 315.974, 547.010 315.080, 548.557 313.845, 549.812 312.219, 550.795 " />
            <path fill="none" stroke-width="3.0" stroke-linecap="butt" stroke-opacity="1.0" stroke="rgb(0, 0, 0)" stroke-linejoin="miter" d=" M 200.135, 494.185 191.073, 498.415 182.012, 502.645 172.950, 506.875 167.993, 509.189 167.348, 509.607 166.832, 510.156 166.472, 510.855 166.294, 511.723 166.324, 512.781 166.512, 513.685 166.853, 514.607 167.348, 515.540 167.993, 516.476 168.788, 517.409 169.730, 518.329 170.818, 519.231 172.051, 520.106 173.428, 520.948 174.947, 521.747 176.606, 522.498 178.407, 523.191 182.640, 524.644 186.894, 526.020 191.171, 527.338 195.475, 528.614 199.810, 529.866 204.179, 531.112 208.585, 532.370 213.032, 533.657 217.523, 534.993 222.060, 536.396 226.648, 537.883 231.288, 539.473 234.813, 540.753 238.253, 542.063 241.622, 543.399 244.938, 544.752 248.217, 546.117 251.476, 547.489 254.732, 548.860 258.002, 550.224 261.304, 551.575 264.657, 552.908 268.078, 554.216 271.585, 555.493 272.198, 555.665 272.815, 555.754 273.425, 555.758 274.016, 555.677 274.575, 555.510 275.090, 555.256 275.549, 554.915 275.939, 554.485 276.248, 553.967 276.463, 553.359 276.572, 552.660 276.562, 551.871 276.423, 550.781 276.205, 549.735 275.908, 548.734 275.535, 547.777 275.087, 546.864 274.568, 545.995 273.979, 545.169 273.321, 544.386 272.598, 543.645 271.811, 542.946 270.962, 542.289 270.055, 541.672 267.831, 540.328 265.815, 538.998 264.000, 537.682 262.380, 536.377 260.949, 535.084 259.701, 533.801 258.631, 532.527 257.733, 531.261 257.001, 530.003 256.431, 528.751 256.017, 527.505 255.754, 526.264 255.704, 525.336 255.725, 524.415 255.819, 523.501 255.983, 522.591 256.216, 521.683 256.518, 520.777 256.887, 519.869 257.322, 518.959 257.823, 518.045 258.388, 517.124 259.017, 516.195 259.708, 515.257 265.772, 507.305 271.836, 499.354 277.900, 491.402 283.964, 483.451 290.028, 475.499 296.092, 467.547 301.436, 460.540 302.077, 459.706 302.713, 458.966 303.343, 458.319 303.969, 457.763 304.588, 457.297 305.202, 456.921 " />
            <path fill="none" stroke-width="3.0" stroke-linecap="butt" stroke-opacity="1.0" stroke="rgb(0, 0, 0)" stroke-linejoin="miter" d=" M 187.785, 505.314 185.502, 506.268 183.002, 507.049 180.261, 507.646 177.256, 508.050 173.964, 508.250 173.139, 508.309 172.261, 508.360 171.356, 508.423 170.451, 508.518 169.571, 508.664 168.743, 508.881 167.993, 509.189 " />
            <path fill="none" stroke-width="3.0" stroke-linecap="butt" stroke-opacity="1.0" stroke="rgb(0, 0, 0)" stroke-linejoin="miter" d=" M 312.219, 550.795 310.156, 551.526 307.608, 552.023 304.531, 552.305 300.880, 552.393 299.968, 552.444 299.061, 552.507 298.174, 552.600 297.323, 552.739 296.525, 552.941 295.795, 553.223 " />
            <path fill="none" stroke-width="3.0" stroke-linecap="butt" stroke-opacity="1.0" stroke="rgb(0, 0, 0)" stroke-linejoin="miter" d=" M 275.090, 555.256 283.910, 550.544 292.731, 545.832 301.551, 541.120 310.371, 536.409 316.998, 532.869 " />
        </g>
    </g>
</svg>
