<?xml version='1.0' encoding='ascii'?>
<svg xmlns="http://www.w3.org/2000/svg" version="1.1" width="1080" height="1080">
    <g id="View Layer_LineSet" xmlns:inkscape="http://www.inkscape.org/namespaces/inkscape" inkscape:groupmode="lineset" inkscape:label="View Layer_LineSet">
        <g xmlns:inkscape="http://www.inkscape.org/namespaces/inkscape" inkscape:groupmode="layer" id="strokes" inkscape:label="strokes">
            <path fill="none" stroke-width="3.0" stroke-linecap="butt" stroke-opacity="1.0" stroke="rgb(0, 0, 0)" stroke-linejoin="miter" d=" M 373.151, 343.871 376.097, 342.866 379.589, 342.118 383.663, 341.586 388.360, 341.230 389.454, 341.087 390.463, 340.849 391.384, 340.513 400.463, 336.321 401.771, 335.717 410.850, 331.525 419.929, 327.333 429.008, 323.141 438.087, 318.950 447.166, 314.758 456.245, 310.566 461.172, 308.291 470.251, 304.100 479.330, 299.908 486.100, 296.782 486.910, 296.359 487.631, 295.843 488.263, 295.230 488.802, 294.519 489.246, 293.709 489.591, 292.796 489.836, 291.779 489.976, 290.655 490.011, 289.423 489.922, 288.472 489.696, 287.552 489.347, 286.672 488.892, 285.839 488.345, 285.061 487.722, 284.344 487.040, 283.697 486.313, 283.126 485.556, 282.640 484.787, 282.244 484.019, 281.948 483.269, 281.757 479.068, 281.028 474.607, 280.324 469.951, 279.644 465.161, 278.982 460.299, 278.336 455.427, 277.702 450.603, 277.076 445.886, 276.453 441.335, 275.832 437.006, 275.206 432.956, 274.573 429.240, 273.929 425.557, 273.217 421.453, 272.368 417.012, 271.412 412.319, 270.375 407.459, 269.285 402.513, 268.168 397.565, 267.052 392.693, 265.962 387.979, 264.924 383.499, 263.965 379.332, 263.109 375.554, 262.382 374.738, 262.274 373.986, 262.264 373.299, 262.352 372.681, 262.537 363.363, 266.168 354.046, 269.799 344.728, 273.429 335.410, 277.060 326.093, 280.691 319.490, 283.263 310.173, 286.894 300.855, 290.525 300.468, 290.676 291.150, 294.306 281.833, 297.937 272.478, 301.582 271.922, 301.875 271.444, 302.274 271.048, 302.781 270.735, 303.395 270.507, 304.117 270.368, 304.948 270.320, 305.887 270.364, 306.935 270.527, 308.299 270.777, 309.531 271.113, 310.645 271.533, 311.656 272.036, 312.575 272.622, 313.417 273.288, 314.196 274.034, 314.924 274.858, 315.615 275.760, 316.282 276.738, 316.939 277.791, 317.598 282.447, 320.296 286.494, 322.843 289.973, 325.295 292.927, 327.709 295.400, 330.140 297.436, 332.645 299.081, 335.282 300.381, 338.105 301.382, 341.172 302.131, 344.537 302.674, 348.257 303.060, 352.385 303.797, 362.358 304.535, 372.330 305.272, 382.303 306.010, 392.276 306.747, 402.249 307.485, 412.221 308.222, 422.194 308.561, 426.778 309.299, 436.750 309.537, 439.975 309.581, 441.038 309.549, 441.967 309.447, 442.768 309.279, 443.446 309.051, 444.008 308.767, 444.458 308.434, 444.803 308.055, 445.047 " />
            <path fill="none" stroke-width="3.0" stroke-linecap="butt" stroke-opacity="1.0" stroke="rgb(0, 0, 0)" stroke-linejoin="miter" d=" M 223.433, 311.166 225.162, 310.565 227.122, 310.077 229.316, 309.705 231.746, 309.451 232.691, 309.301 233.557, 309.061 242.893, 305.477 252.229, 301.892 261.564, 298.308 270.900, 294.724 280.235, 291.140 289.571, 287.556 295.534, 285.266 304.870, 281.682 314.205, 278.098 320.137, 275.820 329.473, 272.236 334.720, 270.221 335.493, 269.897 336.187, 269.486 336.800, 268.987 337.329, 268.397 337.772, 267.716 338.126, 266.940 338.390, 266.069 338.560, 265.099 338.634, 264.030 338.609, 262.859 338.488, 261.955 338.248, 261.084 337.902, 260.251 337.463, 259.465 336.947, 258.731 336.367, 258.056 335.737, 257.448 335.071, 256.914 334.383, 256.460 333.688, 256.092 332.998, 255.819 332.329, 255.646 322.495, 253.833 312.660, 252.020 308.981, 251.342 303.536, 250.314 298.252, 249.276 293.083, 248.225 287.982, 247.162 282.905, 246.088 277.807, 245.003 272.646, 243.906 267.378, 242.799 261.961, 241.681 256.356, 240.554 250.521, 239.417 244.418, 238.272 243.428, 238.130 242.449, 238.072 241.497, 238.099 240.589, 238.216 239.739, 238.424 230.251, 241.582 220.762, 244.739 211.274, 247.897 201.786, 251.055 192.297, 254.213 182.809, 257.370 173.321, 260.528 163.832, 263.686 154.344, 266.844 144.856, 270.001 134.742, 273.367 133.960, 273.675 133.274, 274.088 132.701, 274.610 132.256, 275.243 131.956, 275.991 131.816, 276.857 131.853, 277.845 132.128, 279.173 132.596, 280.425 133.231, 281.602 134.009, 282.702 134.903, 283.726 135.890, 284.671 136.943, 285.537 138.037, 286.324 139.148, 287.028 140.249, 287.651 141.315, 288.189 142.320, 288.643 147.869, 290.875 153.157, 293.295 158.196, 295.891 162.997, 298.649 167.573, 301.558 171.936, 304.603 176.099, 307.772 180.077, 311.051 183.883, 314.427 187.532, 317.888 191.038, 321.419 194.417, 325.008 199.601, 330.805 204.748, 336.826 209.867, 343.043 214.970, 349.429 220.067, 355.957 225.169, 362.602 230.288, 369.336 235.436, 376.136 240.625, 382.975 245.867, 389.828 251.176, 396.672 256.563, 403.481 257.415, 404.623 258.131, 405.775 258.712, 406.932 259.156, 408.087 259.463, 409.235 259.632, 410.370 259.663, 411.486 259.556, 412.577 259.311, 413.637 258.926, 414.661 258.403, 415.642 257.740, 416.575 251.598, 424.466 245.456, 432.358 239.314, 440.249 233.171, 448.140 227.029, 456.032 220.887, 463.923 214.745, 471.814 208.602, 479.706 202.460, 487.597 196.318, 495.488 194.737, 497.519 192.421, 500.495 190.871, 502.413 189.277, 504.232 187.612, 505.944 185.847, 507.537 183.958, 509.002 181.916, 510.328 179.696, 511.505 " />
            <path fill="none" stroke-width="3.0" stroke-linecap="butt" stroke-opacity="1.0" stroke="rgb(0, 0, 0)" stroke-linejoin="miter" d=" M 319.490, 283.263 319.244, 282.483 319.028, 281.529 318.914, 280.612 318.922, 279.259 319.135, 277.995 319.555, 276.822 320.137, 275.820 " />
            <path fill="none" stroke-width="3.0" stroke-linecap="butt" stroke-opacity="1.0" stroke="rgb(0, 0, 0)" stroke-linejoin="miter" d=" M 316.120, 543.722 307.529, 548.839 298.937, 553.955 292.987, 557.498 292.411, 558.008 291.956, 558.647 291.640, 559.431 291.478, 560.377 291.488, 561.500 291.662, 562.444 292.016, 563.392 292.531, 564.334 293.186, 565.260 293.963, 566.157 294.841, 567.016 295.801, 567.825 296.824, 568.573 297.891, 569.248 298.981, 569.840 300.075, 570.337 301.154, 570.729 306.242, 572.269 311.039, 573.616 315.570, 574.798 319.862, 575.842 323.938, 576.776 327.827, 577.630 331.554, 578.432 335.146, 579.211 338.630, 579.997 342.033, 580.818 345.383, 581.705 348.708, 582.686 352.069, 583.812 355.375, 585.049 358.679, 586.391 362.035, 587.827 365.498, 589.350 369.123, 590.951 372.967, 592.622 377.087, 594.355 381.541, 596.142 386.389, 597.974 391.691, 599.846 397.509, 601.750 398.592, 602.021 399.704, 602.171 400.822, 602.204 401.921, 602.124 402.977, 601.935 403.966, 601.642 404.864, 601.247 405.647, 600.757 413.878, 595.078 422.109, 589.399 430.341, 583.721 438.572, 578.042 446.803, 572.363 455.034, 566.685 463.265, 561.006 471.497, 555.327 479.728, 549.649 487.959, 543.970 492.300, 540.975 492.938, 540.406 493.420, 539.758 493.721, 539.036 493.818, 538.245 493.738, 537.167 493.534, 536.128 493.207, 535.128 492.760, 534.167 492.195, 533.244 491.515, 532.358 490.722, 531.510 489.819, 530.699 488.809, 529.924 487.693, 529.185 486.476, 528.482 485.158, 527.813 481.098, 525.759 477.599, 523.797 474.620, 521.881 472.116, 519.965 470.047, 518.002 468.371, 515.946 467.047, 513.750 466.035, 511.369 465.296, 508.755 464.789, 505.862 464.477, 502.642 464.318, 499.047 464.071, 489.050 463.823, 479.053 463.576, 469.056 463.328, 459.060 463.081, 449.063 462.833, 439.066 462.586, 429.069 462.339, 419.072 462.091, 409.075 461.844, 399.078 461.596, 389.081 461.349, 379.084 461.101, 369.087 460.854, 359.090 460.606, 349.093 460.359, 339.096 460.111, 329.099 459.911, 321.010 459.909, 316.824 460.147, 313.166 460.657, 310.000 461.172, 308.291 " />
            <path fill="none" stroke-width="3.0" stroke-linecap="butt" stroke-opacity="1.0" stroke="rgb(0, 0, 0)" stroke-linejoin="miter" d=" M 391.384, 340.513 392.213, 340.076 392.949, 339.537 393.588, 338.893 394.127, 338.142 394.563, 337.282 394.894, 336.310 395.116, 335.224 395.226, 334.022 395.225, 333.772 395.222, 332.702 395.099, 331.680 394.833, 330.688 394.441, 329.737 393.940, 328.834 393.345, 327.988 392.672, 327.206 391.940, 326.498 391.163, 325.871 390.359, 325.334 389.544, 324.895 388.734, 324.561 387.946, 324.341 383.544, 323.474 378.874, 322.630 374.002, 321.807 368.993, 321.002 363.912, 320.213 358.822, 319.436 353.784, 318.669 348.859, 317.908 344.108, 317.152 341.740, 316.756 339.590, 316.396 335.361, 315.638 331.480, 314.874 327.633, 314.039 323.344, 313.050 318.704, 311.939 313.801, 310.737 308.724, 309.475 303.559, 308.183 298.393, 306.892 293.309, 305.631 288.391, 304.430 283.721, 303.317 279.378, 302.321 275.444, 301.471 274.596, 301.340 273.818, 301.315 273.111, 301.396 272.478, 301.582 " />
            <path fill="none" stroke-width="3.0" stroke-linecap="butt" stroke-opacity="1.0" stroke="rgb(0, 0, 0)" stroke-linejoin="miter" d=" M 233.557, 309.061 234.342, 308.729 235.043, 308.304 235.656, 307.783 236.181, 307.164 236.613, 306.445 236.770, 306.063 236.950, 305.623 237.190, 304.698 237.330, 303.665 237.368, 302.525 237.299, 301.273 237.142, 300.306 236.863, 299.371 236.475, 298.474 235.994, 297.626 235.435, 296.832 234.812, 296.100 234.140, 295.439 233.434, 294.855 232.708, 294.357 231.977, 293.951 231.256, 293.646 230.560, 293.449 220.769, 291.413 210.978, 289.378 206.345, 288.415 200.702, 287.217 195.227, 286.010 189.870, 284.793 184.586, 283.565 179.327, 282.325 174.048, 281.074 168.705, 279.809 163.254, 278.532 157.653, 277.242 151.859, 275.938 145.831, 274.620 139.531, 273.289 138.511, 273.121 137.505, 273.041 136.531, 273.053 135.605, 273.161 134.742, 273.367 " />
            <path fill="none" stroke-width="3.0" stroke-linecap="butt" stroke-opacity="1.0" stroke="rgb(0, 0, 0)" stroke-linejoin="miter" d=" M 308.055, 445.047 307.637, 445.198 307.185, 445.259 306.702, 445.238 306.196, 445.139 305.595, 444.932 304.994, 444.628 304.387, 444.231 303.765, 443.743 303.123, 443.165 302.454, 442.502 301.750, 441.754 301.004, 440.924 300.211, 440.015 299.363, 439.029 298.453, 437.968 297.475, 436.835 291.713, 428.662 285.951, 420.489 280.189, 412.315 274.428, 404.142 268.666, 395.969 262.904, 387.795 257.143, 379.622 251.381, 371.449 245.619, 363.276 239.857, 355.102 234.096, 346.929 228.334, 338.756 225.279, 334.422 224.262, 332.967 223.296, 331.556 222.386, 330.189 221.538, 328.866 220.757, 327.587 220.049, 326.351 219.421, 325.159 218.876, 324.010 218.422, 322.903 218.063, 321.839 217.805, 320.817 217.654, 319.837 217.612, 318.394 217.785, 317.050 218.174, 315.807 218.782, 314.667 219.609, 313.631 220.659, 312.701 221.933, 311.878 223.433, 311.166 " />
            <path fill="none" stroke-width="3.0" stroke-linecap="butt" stroke-opacity="1.0" stroke="rgb(0, 0, 0)" stroke-linejoin="miter" d=" M 405.647, 600.757 406.290, 600.174 406.768, 599.502 407.058, 598.748 407.133, 597.914 407.016, 596.770 406.771, 595.664 406.401, 594.596 405.907, 593.565 405.292, 592.571 404.560, 591.613 403.711, 590.691 402.750, 589.806 401.679, 588.955 400.500, 588.140 399.216, 587.359 397.829, 586.611 393.558, 584.316 389.873, 582.135 386.727, 580.019 384.074, 577.916 381.869, 575.777 380.067, 573.551 378.626, 571.188 377.502, 568.637 376.652, 565.848 376.034, 562.769 375.605, 559.350 375.324, 555.537 374.777, 545.552 374.229, 535.567 373.681, 525.582 373.199, 516.808 372.823, 509.954 372.275, 499.969 371.727, 489.984 371.179, 479.999 370.631, 470.014 370.083, 460.029 369.535, 450.044 369.220, 444.305 368.672, 434.320 368.233, 426.311 367.685, 416.326 367.583, 414.460 367.035, 404.475 366.487, 394.490 365.939, 384.505 365.391, 374.520 364.918, 365.902 364.778, 361.425 364.904, 357.516 365.331, 354.138 366.072, 351.322 366.090, 351.253 367.218, 348.824 368.747, 346.810 370.713, 345.172 373.151, 343.871 " />
            <path fill="none" stroke-width="3.0" stroke-linecap="butt" stroke-opacity="1.0" stroke="rgb(0, 0, 0)" stroke-linejoin="miter" d=" M 303.875, 460.031 304.515, 459.728 305.148, 459.512 305.775, 459.382 306.394, 459.337 307.007, 459.376 307.611, 459.496 308.121, 459.675 308.619, 459.934 309.100, 460.275 309.559, 460.697 309.991, 461.200 310.391, 461.784 310.756, 462.450 311.080, 463.197 311.358, 464.025 311.586, 464.935 311.759, 465.926 311.872, 466.998 312.318, 473.046 312.758, 479.055 313.188, 485.028 313.605, 490.967 313.635, 491.401 314.006, 496.873 314.387, 502.748 314.746, 508.594 315.079, 514.413 315.383, 520.207 315.654, 525.976 315.890, 531.723 315.960, 533.758 316.088, 537.450 316.154, 540.767 316.123, 543.693 316.120, 543.722 315.942, 546.249 315.558, 548.457 314.920, 550.339 313.975, 551.917 312.672, 553.210 " />
            <path fill="none" stroke-width="3.0" stroke-linecap="butt" stroke-opacity="1.0" stroke="rgb(0, 0, 0)" stroke-linejoin="miter" d=" M 194.737, 497.519 185.828, 502.060 176.918, 506.601 168.009, 511.142 159.099, 515.683 158.681, 515.896 157.994, 516.335 157.444, 516.902 157.060, 517.616 156.868, 518.498 156.896, 519.566 157.092, 520.474 157.452, 521.397 157.974, 522.328 158.656, 523.258 159.497, 524.180 160.494, 525.087 161.647, 525.971 162.953, 526.825 164.411, 527.640 166.021, 528.410 167.780, 529.127 169.688, 529.783 174.175, 531.145 178.682, 532.430 183.213, 533.653 187.772, 534.834 192.362, 535.990 196.987, 537.138 201.650, 538.297 206.354, 539.485 211.103, 540.719 215.900, 542.020 220.748, 543.404 225.650, 544.890 229.373, 546.091 233.005, 547.325 236.561, 548.586 240.061, 549.866 243.520, 551.158 246.957, 552.457 250.390, 553.755 253.838, 555.046 257.319, 556.322 260.852, 557.579 264.457, 558.808 268.152, 560.003 268.797, 560.161 269.448, 560.235 270.091, 560.224 270.714, 560.127 271.304, 559.944 271.848, 559.675 272.333, 559.320 272.746, 558.878 273.073, 558.348 273.302, 557.730 273.419, 557.025 273.411, 556.231 273.268, 555.136 273.041, 554.089 272.732, 553.089 272.341, 552.136 271.872, 551.229 271.328, 550.367 270.709, 549.550 270.018, 548.779 269.258, 548.051 268.430, 547.367 267.537, 546.727 266.582, 546.129 264.241, 544.832 262.119, 543.544 260.208, 542.264 258.503, 540.991 256.997, 539.724 255.684, 538.463 254.559, 537.207 253.615, 535.954 252.847, 534.705 252.249, 533.459 251.816, 532.214 251.542, 530.971 251.492, 530.037 251.518, 529.109 251.619, 528.186 251.795, 527.265 252.044, 526.346 252.366, 525.425 252.758, 524.502 253.221, 523.575 253.753, 522.642 254.352, 521.701 255.019, 520.750 255.751, 519.788 261.940, 511.933 268.129, 504.078 274.318, 496.224 280.506, 488.369 286.695, 480.514 292.884, 472.659 299.073, 464.804 299.901, 463.754 300.578, 462.901 301.249, 462.142 301.915, 461.477 302.574, 460.904 303.228, 460.423 303.875, 460.031 " />
            <path fill="none" stroke-width="3.0" stroke-linecap="butt" stroke-opacity="1.0" stroke="rgb(0, 0, 0)" stroke-linejoin="miter" d=" M 179.696, 511.505 177.272, 512.523 174.617, 513.372 171.707, 514.041 168.517, 514.522 165.022, 514.803 164.147, 514.883 163.215, 514.956 162.254, 515.042 161.292, 515.159 160.358, 515.328 159.478, 515.567 158.681, 515.896 " />
            <path fill="none" stroke-width="3.0" stroke-linecap="butt" stroke-opacity="1.0" stroke="rgb(0, 0, 0)" stroke-linejoin="miter" d=" M 312.672, 553.210 310.960, 554.240 308.787, 555.026 306.106, 555.591 302.867, 555.954 299.024, 556.135 298.065, 556.210 297.110, 556.296 296.176, 556.412 295.280, 556.573 294.439, 556.797 293.669, 557.100 292.987, 557.498 " />
            <path fill="none" stroke-width="3.0" stroke-linecap="butt" stroke-opacity="1.0" stroke="rgb(0, 0, 0)" stroke-linejoin="miter" d=" M 271.848, 559.675 280.470, 554.610 289.092, 549.544 297.714, 544.478 306.336, 539.413 314.958, 534.347 315.960, 533.758 " />
        </g>
    </g>
</svg>
