<?xml version='1.0' encoding='ascii'?>
<svg xmlns="http://www.w3.org/2000/svg" version="1.1" width="1080" height="1080">
    <g id="View Layer_LineSet" xmlns:inkscape="http://www.inkscape.org/namespaces/inkscape" inkscape:groupmode="lineset" inkscape:label="View Layer_LineSet">
        <g xmlns:inkscape="http://www.inkscape.org/namespaces/inkscape" inkscape:groupmode="layer" id="strokes" inkscape:label="strokes">
            <path fill="none" stroke-width="3.0" stroke-linecap="butt" stroke-opacity="1.0" stroke="rgb(0, 0, 0)" stroke-linejoin="miter" d=" M 382.599, 353.054 384.946, 351.199 387.845, 349.642 391.336, 348.336 395.463, 347.240 400.269, 346.306 405.797, 345.492 407.084, 345.242 408.271, 344.903 409.357, 344.475 410.336, 343.954 411.206, 343.338 418.770, 336.797 426.333, 330.255 433.897, 323.713 436.921, 321.097 444.485, 314.555 452.048, 308.014 459.612, 301.472 467.175, 294.930 468.237, 294.012 468.947, 293.347 469.552, 292.592 470.049, 291.745 470.435, 290.805 470.706, 289.769 470.860, 288.636 470.895, 287.404 470.791, 286.462 470.532, 285.563 470.136, 284.714 469.619, 283.921 469.000, 283.190 468.296, 282.526 467.523, 281.937 466.701, 281.428 465.846, 281.005 464.976, 280.674 464.108, 280.442 463.260, 280.314 458.510, 279.933 453.459, 279.600 448.179, 279.305 442.738, 279.040 437.207, 278.796 431.654, 278.565 426.148, 278.337 420.755, 278.104 415.544, 277.857 410.579, 277.587 405.926, 277.287 401.651, 276.946 397.410, 276.534 392.676, 276.020 387.546, 275.423 382.117, 274.765 376.485, 274.065 370.744, 273.345 364.990, 272.624 359.316, 271.922 353.816, 271.259 348.582, 270.656 343.706, 270.130 339.279, 269.703 338.322, 269.662 337.440, 269.714 336.635, 269.859 335.910, 270.099 335.269, 270.433 326.961, 275.999 318.653, 281.566 310.346, 287.132 302.038, 292.698 293.730, 298.264 285.422, 303.830 280.929, 306.841 272.621, 312.407 266.715, 316.364 266.124, 316.821 265.631, 317.381 265.239, 318.044 264.951, 318.810 264.911, 318.998 264.768, 319.680 264.695, 320.654 264.735, 321.732 264.914, 323.124 265.203, 324.371 265.598, 325.490 266.097, 326.492 266.700, 327.393 267.405, 328.206 268.209, 328.946 269.111, 329.625 270.109, 330.259 271.202, 330.860 272.387, 331.443 273.664, 332.022 279.309, 334.353 280.548, 334.918 284.204, 336.585 288.403, 338.771 291.959, 340.965 294.928, 343.223 297.364, 345.598 299.321, 348.144 300.857, 350.915 302.027, 353.964 302.886, 357.345 303.063, 358.440 303.492, 361.108 303.900, 365.307 304.638, 375.280 305.376, 385.253 305.921, 392.621 306.659, 402.594 307.397, 412.567 308.135, 422.539 308.872, 432.512 309.610, 442.485 310.348, 452.458 310.500, 454.507 310.538, 455.593 310.486, 456.550 310.351, 457.384 310.138, 458.100 309.854, 458.703 309.505, 459.199 309.097, 459.592 " />
            <path fill="none" stroke-width="3.0" stroke-linecap="butt" stroke-opacity="1.0" stroke="rgb(0, 0, 0)" stroke-linejoin="miter" d=" M 203.230, 332.468 204.830, 331.488 206.710, 330.601 208.871, 329.809 211.318, 329.112 214.051, 328.515 217.073, 328.017 218.249, 327.769 219.328, 327.437 220.307, 327.017 221.182, 326.508 229.584, 321.086 237.987, 315.664 246.389, 310.241 251.900, 306.685 260.303, 301.263 268.705, 295.841 272.349, 293.490 280.751, 288.067 289.153, 282.645 292.850, 280.260 293.576, 279.696 294.203, 279.047 294.727, 278.312 295.146, 277.487 295.456, 276.572 295.654, 275.565 295.738, 274.464 295.705, 273.267 295.559, 272.352 295.271, 271.479 294.857, 270.655 294.334, 269.886 293.718, 269.177 293.027, 268.534 292.277, 267.964 291.484, 267.472 290.665, 267.063 289.836, 266.744 289.016, 266.521 288.219, 266.399 278.258, 265.510 268.298, 264.620 260.316, 263.908 253.775, 263.300 247.416, 262.665 241.183, 262.008 235.022, 261.332 228.879, 260.640 222.699, 259.937 216.431, 259.227 210.022, 258.513 203.420, 257.799 196.574, 257.089 189.434, 256.387 181.950, 255.697 180.735, 255.631 179.532, 255.650 178.364, 255.757 177.248, 255.953 176.204, 256.240 175.252, 256.618 166.420, 261.309 157.588, 265.999 148.756, 270.689 139.925, 275.379 131.093, 280.069 122.261, 284.759 113.429, 289.450 104.597, 294.140 95.765, 298.830 94.035, 299.749 93.146, 300.249 92.400, 300.854 91.817, 301.565 91.419, 302.384 91.225, 303.314 91.257, 304.355 91.590, 305.734 92.172, 307.015 92.971, 308.200 93.954, 309.291 95.089, 310.288 96.342, 311.194 97.682, 312.010 99.076, 312.737 100.491, 313.376 101.894, 313.929 103.253, 314.397 104.536, 314.780 111.610, 316.606 118.335, 318.652 124.726, 320.903 130.800, 323.344 136.575, 325.961 142.068, 328.737 147.299, 331.659 152.284, 334.710 157.045, 337.876 161.599, 341.141 165.967, 344.490 170.168, 347.909 176.600, 353.450 182.969, 359.218 189.291, 365.184 195.577, 371.316 201.843, 377.588 208.104, 383.968 214.372, 390.430 220.665, 396.944 226.996, 403.483 233.382, 410.019 239.838, 416.526 246.380, 422.978 247.413, 424.064 248.278, 425.176 248.976, 426.308 249.505, 427.454 249.866, 428.608 250.058, 429.763 250.080, 430.915 249.932, 432.057 249.615, 433.182 249.127, 434.286 248.468, 435.362 247.639, 436.405 241.098, 443.970 234.558, 451.534 228.017, 459.099 221.477, 466.663 214.937, 474.228 208.396, 481.793 201.856, 489.357 200.191, 491.282 193.590, 498.917 187.050, 506.482 180.509, 514.047 173.969, 521.611 167.428, 529.176 164.973, 532.015 162.988, 534.235 160.948, 536.359 158.818, 538.381 156.563, 540.293 " />
            <path fill="none" stroke-width="3.0" stroke-linecap="butt" stroke-opacity="1.0" stroke="rgb(0, 0, 0)" stroke-linejoin="miter" d=" M 280.929, 306.841 280.609, 306.474 279.484, 305.175 278.415, 303.913 277.410, 302.687 276.475, 301.497 275.617, 300.342 274.841, 299.221 274.155, 298.133 273.565, 297.078 273.079, 296.055 272.701, 295.063 272.440, 294.101 272.349, 293.490 " />
            <path fill="none" stroke-width="3.0" stroke-linecap="butt" stroke-opacity="1.0" stroke="rgb(0, 0, 0)" stroke-linejoin="miter" d=" M 316.894, 548.300 309.942, 555.488 302.990, 562.677 296.039, 569.865 289.087, 577.054 288.046, 578.131 287.483, 578.853 287.086, 579.706 286.876, 580.703 286.872, 581.861 287.070, 582.809 287.488, 583.737 288.101, 584.636 288.886, 585.498 289.818, 586.313 290.874, 587.074 292.030, 587.772 293.264, 588.398 294.550, 588.942 295.867, 589.398 297.189, 589.755 298.493, 590.005 304.642, 590.868 310.430, 591.573 315.890, 592.144 321.054, 592.607 325.954, 592.988 330.621, 593.312 335.088, 593.606 339.388, 593.895 343.553, 594.205 347.616, 594.563 351.610, 594.994 355.567, 595.526 359.562, 596.199 363.484, 596.993 367.398, 597.892 371.368, 598.880 375.459, 599.940 379.737, 601.055 384.267, 602.208 389.116, 603.383 394.352, 604.563 400.043, 605.733 406.258, 606.875 413.068, 607.974 414.335, 608.095 415.638, 608.088 416.947, 607.962 418.236, 607.725 419.476, 607.383 420.638, 606.945 421.695, 606.419 422.618, 605.811 423.377, 605.131 429.468, 597.200 435.559, 589.269 441.650, 581.338 447.741, 573.407 453.832, 565.476 459.923, 557.545 466.014, 549.614 472.105, 541.683 475.155, 537.712 475.695, 537.003 476.031, 536.244 476.138, 535.442 476.044, 534.375 475.809, 533.362 475.437, 532.404 474.930, 531.500 474.290, 530.648 473.520, 529.849 472.624, 529.101 471.603, 528.403 470.460, 527.755 469.199, 527.156 467.821, 526.605 466.331, 526.101 461.734, 524.552 457.768, 523.024 454.385, 521.475 451.539, 519.865 449.183, 518.153 447.272, 516.298 445.759, 514.258 444.600, 511.993 443.750, 509.461 443.163, 506.619 442.796, 503.424 442.602, 499.835 442.284, 489.840 441.965, 479.845 441.647, 469.850 441.328, 459.855 441.010, 449.860 440.691, 439.865 440.373, 429.870 440.054, 419.875 439.736, 409.881 439.417, 399.886 439.099, 389.891 438.780, 379.896 438.462, 369.901 438.143, 359.906 437.825, 349.911 437.506, 339.916 437.188, 329.921 436.924, 321.633 436.921, 321.097 " />
            <path fill="none" stroke-width="3.0" stroke-linecap="butt" stroke-opacity="1.0" stroke="rgb(0, 0, 0)" stroke-linejoin="miter" d=" M 314.553, 504.278 313.437, 503.778 311.517, 502.789 309.825, 501.776 308.355, 500.739 307.101, 499.680 306.056, 498.597 305.213, 497.491 304.567, 496.363 304.112, 495.212 303.840, 494.039 303.815, 493.135 303.879, 492.227 304.029, 491.311 304.266, 490.388 304.587, 489.456 304.992, 488.512 305.478, 487.556 306.046, 486.585 306.694, 485.600 307.420, 484.597 308.223, 483.575 309.102, 482.534 312.310, 478.845 " />
            <path fill="none" stroke-width="3.0" stroke-linecap="butt" stroke-opacity="1.0" stroke="rgb(0, 0, 0)" stroke-linejoin="miter" d=" M 200.191, 491.282 199.314, 491.455 198.155, 491.713 197.027, 492.019 195.961, 492.387 194.990, 492.832 194.147, 493.370 186.416, 499.714 178.686, 506.057 170.956, 512.401 163.226, 518.745 155.496, 525.089 147.765, 531.433 140.035, 537.777 132.305, 544.120 124.575, 550.464 121.021, 553.381 120.310, 554.056 119.807, 554.864 119.548, 555.822 119.568, 556.946 119.804, 557.878 120.250, 558.803 120.902, 559.712 121.759, 560.599 122.818, 561.455 124.077, 562.272 125.534, 563.043 127.187, 563.761 129.034, 564.416 131.073, 565.002 133.303, 565.510 135.721, 565.933 141.404, 566.736 147.105, 567.453 152.828, 568.102 158.577, 568.701 164.357, 569.268 170.171, 569.821 176.022, 570.380 181.916, 570.962 187.855, 571.585 193.843, 572.270 199.883, 573.033 205.979, 573.895 210.601, 574.623 215.101, 575.398 219.503, 576.210 223.827, 577.049 228.097, 577.905 232.333, 578.771 236.560, 579.635 240.800, 580.488 245.075, 581.321 249.410, 582.125 253.828, 582.889 258.352, 583.605 259.142, 583.677 259.940, 583.661 260.730, 583.558 261.496, 583.370 262.223, 583.098 262.894, 582.743 263.493, 582.307 270.540, 575.211 277.586, 568.115 284.633, 561.020 291.679, 553.924 298.726, 546.829 305.772, 539.733 312.819, 532.637 316.099, 529.334 " />
            <path fill="none" stroke-width="3.0" stroke-linecap="butt" stroke-opacity="1.0" stroke="rgb(0, 0, 0)" stroke-linejoin="miter" d=" M 411.206, 343.338 411.964, 342.627 412.606, 341.817 413.129, 340.906 413.529, 339.893 413.804, 338.775 413.950, 337.551 413.963, 336.218 413.832, 335.198 413.533, 334.222 413.087, 333.299 412.510, 332.434 411.824, 331.635 411.046, 330.909 410.196, 330.263 409.886, 330.070 409.293, 329.702 408.356, 329.235 407.405, 328.867 406.458, 328.606 405.535, 328.458 400.371, 327.993 394.883, 327.576 389.147, 327.198 383.239, 326.851 377.235, 326.526 371.208, 326.214 365.234, 325.906 359.384, 325.594 353.731, 325.269 348.346, 324.923 343.299, 324.546 338.662, 324.131 334.060, 323.639 328.923, 323.030 323.357, 322.328 317.467, 321.557 311.357, 320.739 305.130, 319.898 298.890, 319.055 292.738, 318.235 290.658, 317.964 286.776, 317.458 281.105, 316.749 275.822, 316.128 271.029, 315.619 269.994, 315.563 269.043, 315.610 268.177, 315.759 267.400, 316.010 266.715, 316.364 " />
            <path fill="none" stroke-width="3.0" stroke-linecap="butt" stroke-opacity="1.0" stroke="rgb(0, 0, 0)" stroke-linejoin="miter" d=" M 221.182, 326.508 221.951, 325.908 222.610, 325.215 223.157, 324.427 223.587, 323.542 223.898, 322.558 224.087, 321.473 224.150, 320.286 224.092, 319.145 224.084, 318.993 223.904, 318.004 223.571, 317.059 223.104, 316.165 222.520, 315.329 221.839, 314.557 221.077, 313.856 220.253, 313.232 219.385, 312.692 218.492, 312.242 217.591, 311.889 216.700, 311.639 215.838, 311.498 205.887, 310.512 195.935, 309.525 185.704, 308.511 178.644, 307.785 171.781, 307.032 165.054, 306.257 158.406, 305.462 151.777, 304.651 145.111, 303.827 138.351, 302.994 131.440, 302.157 124.324, 301.317 116.948, 300.480 109.257, 299.648 101.200, 298.825 99.892, 298.741 98.602, 298.750 97.350, 298.853 96.158, 299.052 95.046, 299.350 94.035, 299.749 " />
            <path fill="none" stroke-width="3.0" stroke-linecap="butt" stroke-opacity="1.0" stroke="rgb(0, 0, 0)" stroke-linejoin="miter" d=" M 309.097, 459.592 308.636, 459.888 308.128, 460.092 307.579, 460.209 306.996, 460.244 306.385, 460.203 305.660, 460.061 304.937, 459.820 304.207, 459.484 303.461, 459.056 302.691, 458.539 301.889, 457.936 301.046, 457.250 300.155, 456.485 299.205, 455.644 298.190, 454.730 297.101, 453.746 295.930, 452.696 289.282, 445.225 282.634, 437.755 275.987, 430.284 269.339, 422.814 262.692, 415.343 256.044, 407.873 249.396, 400.402 242.749, 392.931 236.101, 385.461 229.454, 377.990 222.806, 370.520 216.158, 363.049 208.661, 354.624 207.417, 353.212 206.234, 351.840 205.121, 350.508 204.083, 349.216 203.129, 347.962 202.265, 346.745 201.499, 345.566 200.837, 344.423 200.286, 343.315 199.854, 342.242 199.548, 341.203 199.374, 340.196 199.344, 338.697 199.579, 337.280 200.084, 335.946 200.859, 334.699 201.907, 333.539 203.230, 332.468 " />
            <path fill="none" stroke-width="3.0" stroke-linecap="butt" stroke-opacity="1.0" stroke="rgb(0, 0, 0)" stroke-linejoin="miter" d=" M 423.377, 605.131 423.946, 604.385 424.294, 603.581 424.394, 602.727 424.272, 601.588 424.000, 600.505 423.581, 599.477 423.017, 598.504 422.311, 597.586 421.466, 596.720 420.485, 595.908 419.371, 595.147 418.127, 594.437 416.756, 593.777 415.261, 593.166 413.645, 592.604 408.661, 590.876 404.357, 589.181 400.682, 587.473 397.584, 585.710 395.012, 583.845 392.916, 581.835 391.247, 579.635 389.953, 577.199 388.986, 574.483 388.297, 571.441 387.837, 568.026 387.556, 564.190 387.048, 554.203 386.539, 544.216 386.030, 534.229 385.521, 524.242 385.012, 514.255 384.504, 504.268 383.995, 494.281 383.486, 484.294 382.977, 474.307 382.468, 464.320 381.959, 454.333 381.451, 444.346 380.942, 434.359 380.433, 424.372 379.924, 414.385 379.415, 404.398 378.907, 394.411 378.398, 384.424 377.806, 372.816 377.701, 368.283 377.904, 364.301 378.455, 360.829 379.394, 357.825 380.762, 355.248 382.599, 353.054 " />
            <path fill="none" stroke-width="3.0" stroke-linecap="butt" stroke-opacity="1.0" stroke="rgb(0, 0, 0)" stroke-linejoin="miter" d=" M 300.967, 477.505 301.775, 476.836 302.573, 476.262 303.363, 475.781 304.143, 475.392 304.913, 475.093 305.674, 474.884 306.424, 474.763 307.165, 474.728 307.895, 474.779 308.510, 474.901 309.108, 475.107 309.685, 475.398 310.233, 475.776 310.749, 476.240 311.225, 476.791 311.656, 477.430 312.037, 478.157 312.310, 478.845 312.361, 478.974 312.624, 479.880 312.819, 480.875 312.941, 481.962 313.395, 488.114 313.841, 494.227 314.277, 500.304 314.553, 504.278 314.697, 506.346 315.098, 512.356 315.476, 518.337 315.509, 518.911 315.826, 524.290 316.099, 529.334 316.146, 530.219 316.432, 536.125 316.678, 542.011 316.882, 547.878 316.894, 548.300 317.040, 553.728 317.073, 557.125 316.995, 560.132 316.740, 562.780 316.246, 565.100 315.449, 567.120 314.286, 568.870 " />
            <path fill="none" stroke-width="3.0" stroke-linecap="butt" stroke-opacity="1.0" stroke="rgb(0, 0, 0)" stroke-linejoin="miter" d=" M 263.493, 582.307 264.006, 581.791 264.414, 581.196 264.704, 580.525 264.857, 579.779 264.859, 578.958 264.701, 577.846 264.437, 576.795 264.072, 575.804 263.607, 574.872 263.046, 573.999 262.390, 573.183 261.642, 572.424 260.806, 571.722 259.883, 571.075 258.877, 570.482 257.790, 569.943 256.625, 569.457 253.767, 568.438 251.175, 567.398 248.841, 566.336 246.759, 565.252 244.922, 564.147 243.321, 563.020 241.951, 561.871 240.805, 560.702 239.875, 559.511 239.155, 558.299 238.639, 557.066 238.319, 555.813 238.270, 554.850 238.316, 553.883 238.455, 552.911 238.686, 551.931 239.007, 550.942 239.417, 549.943 239.916, 548.932 240.500, 547.907 241.170, 546.866 241.924, 545.809 242.760, 544.733 243.677, 543.636 250.209, 536.064 256.741, 528.492 263.273, 520.920 269.805, 513.348 276.336, 505.776 282.868, 498.204 289.400, 490.632 295.932, 483.060 298.492, 480.092 299.325, 479.132 300.150, 478.270 300.967, 477.505 " />
            <path fill="none" stroke-width="3.0" stroke-linecap="butt" stroke-opacity="1.0" stroke="rgb(0, 0, 0)" stroke-linejoin="miter" d=" M 156.563, 540.293 154.150, 542.089 151.545, 543.761 148.714, 545.302 145.624, 546.705 142.241, 547.962 138.534, 549.067 134.468, 550.013 130.013, 550.792 128.896, 550.997 127.707, 551.203 126.480, 551.426 125.251, 551.683 124.056, 551.990 122.929, 552.365 121.905, 552.823 121.021, 553.381 " />
            <path fill="none" stroke-width="3.0" stroke-linecap="butt" stroke-opacity="1.0" stroke="rgb(0, 0, 0)" stroke-linejoin="miter" d=" M 314.286, 568.870 312.693, 570.377 310.608, 571.672 307.968, 572.781 304.713, 573.733 300.781, 574.556 296.115, 575.278 294.948, 575.488 293.786, 575.710 292.649, 575.959 291.557, 576.251 290.530, 576.599 289.590, 577.018 288.755, 577.524 288.046, 578.131 " />
        </g>
    </g>
</svg>
