<?xml version='1.0' encoding='ascii'?>
<svg xmlns="http://www.w3.org/2000/svg" version="1.1" width="1080" height="1080">
    <g id="View Layer_LineSet" xmlns:inkscape="http://www.inkscape.org/namespaces/inkscape" inkscape:groupmode="lineset" inkscape:label="View Layer_LineSet">
        <g xmlns:inkscape="http://www.inkscape.org/namespaces/inkscape" inkscape:groupmode="layer" id="strokes" inkscape:label="strokes">
            <path fill="none" stroke-width="3.0" stroke-linecap="butt" stroke-opacity="1.0" stroke="rgb(0, 0, 0)" stroke-linejoin="miter" d=" M 385.994, 354.136 388.397, 352.235 391.363, 350.623 394.934, 349.253 399.153, 348.081 404.063, 347.061 409.710, 346.149 411.024, 345.876 412.237, 345.516 413.346, 345.067 414.346, 344.528 415.236, 343.897 416.010, 343.171 423.004, 336.023 429.997, 328.875 432.551, 326.264 439.544, 319.116 446.537, 311.968 453.531, 304.820 460.524, 297.672 464.941, 293.157 465.554, 292.393 466.058, 291.538 466.449, 290.592 466.724, 289.552 466.880, 288.417 466.913, 287.184 466.807, 286.244 466.544, 285.349 466.140, 284.506 465.615, 283.721 464.986, 282.999 464.270, 282.347 463.485, 281.769 462.649, 281.273 461.780, 280.863 460.896, 280.546 460.014, 280.326 459.152, 280.211 454.325, 279.904 449.191, 279.648 443.822, 279.434 438.288, 279.252 432.660, 279.093 427.008, 278.946 421.402, 278.803 415.909, 278.652 410.599, 278.484 405.538, 278.290 400.794, 278.061 396.435, 277.785 392.108, 277.437 387.277, 276.994 382.041, 276.474 376.497, 275.897 370.744, 275.281 364.878, 274.646 358.996, 274.011 353.194, 273.393 347.568, 272.811 342.211, 272.284 337.220, 271.831 332.687, 271.469 331.708, 271.442 330.804, 271.508 329.980, 271.666 329.238, 271.918 328.581, 272.263 320.641, 278.342 312.701, 284.421 304.760, 290.499 296.820, 296.578 288.880, 302.657 280.939, 308.736 275.645, 312.789 267.705, 318.868 267.153, 319.290 266.544, 319.760 266.035, 320.331 265.630, 321.005 265.331, 321.781 265.141, 322.659 265.064, 323.640 265.102, 324.724 265.284, 326.122 265.578, 327.372 265.982, 328.491 266.495, 329.491 267.114, 330.387 267.838, 331.193 268.664, 331.923 269.591, 332.591 270.618, 333.212 271.742, 333.798 272.961, 334.364 274.275, 334.924 280.080, 337.171 285.112, 339.331 289.427, 341.456 293.080, 343.600 296.127, 345.817 298.626, 348.162 300.633, 350.686 302.206, 353.444 303.401, 356.488 304.277, 359.870 304.891, 363.642 305.302, 367.854 305.522, 370.847 306.256, 380.820 306.663, 386.344 307.397, 396.317 308.131, 406.290 308.865, 416.263 309.599, 426.236 310.333, 436.209 311.067, 446.182 311.801, 456.155 311.891, 457.369 311.927, 458.459 311.872, 459.423 311.732, 460.264 311.512, 460.988 311.219, 461.600 310.859, 462.106 " />
            <path fill="none" stroke-width="3.0" stroke-linecap="butt" stroke-opacity="1.0" stroke="rgb(0, 0, 0)" stroke-linejoin="miter" d=" M 201.597, 336.591 203.254, 335.576 205.200, 334.649 207.436, 333.812 209.967, 333.069 212.793, 332.419 215.917, 331.865 217.133, 331.596 218.248, 331.242 219.260, 330.802 220.165, 330.274 228.236, 324.371 236.308, 318.467 244.379, 312.563 245.194, 311.967 253.265, 306.063 261.336, 300.159 264.371, 297.939 272.443, 292.035 280.514, 286.131 285.083, 282.789 285.829, 282.211 286.472, 281.549 287.010, 280.801 287.439, 279.966 287.756, 279.041 287.960, 278.025 288.045, 276.916 288.010, 275.713 287.860, 274.795 287.563, 273.922 287.137, 273.100 286.600, 272.334 285.967, 271.631 285.257, 270.995 284.486, 270.433 283.671, 269.950 282.829, 269.551 281.978, 269.243 281.135, 269.031 280.316, 268.920 270.343, 268.195 260.369, 267.470 251.625, 266.834 244.892, 266.321 238.343, 265.777 231.922, 265.209 225.572, 264.620 219.238, 264.015 212.864, 263.399 206.396, 262.777 199.780, 262.152 192.962, 261.531 185.890, 260.917 178.510, 260.315 170.771, 259.729 169.513, 259.681 168.270, 259.718 167.061, 259.844 165.907, 260.058 164.827, 260.363 163.842, 260.759 162.973, 261.249 154.364, 266.338 145.756, 271.427 137.148, 276.516 128.540, 281.605 119.931, 286.694 111.323, 291.783 102.715, 296.872 94.107, 301.961 87.428, 305.909 86.650, 306.534 86.041, 307.263 85.624, 308.098 85.420, 309.042 85.451, 310.095 85.795, 311.484 86.398, 312.770 87.227, 313.956 88.249, 315.043 89.428, 316.033 90.731, 316.929 92.124, 317.732 93.573, 318.444 95.044, 319.067 96.504, 319.602 97.917, 320.052 99.251, 320.418 106.607, 322.145 113.596, 324.099 120.235, 326.266 126.541, 328.630 132.534, 331.174 138.231, 333.885 143.654, 336.745 148.820, 339.739 153.751, 342.852 158.467, 346.069 162.988, 349.372 167.334, 352.748 173.986, 358.225 180.570, 363.929 187.101, 369.831 193.593, 375.901 200.061, 382.108 206.521, 388.422 212.986, 394.816 219.473, 401.260 225.998, 407.725 232.576, 414.185 239.225, 420.611 245.960, 426.976 247.022, 428.049 247.912, 429.151 248.629, 430.277 249.173, 431.420 249.542, 432.574 249.737, 433.734 249.758, 434.893 249.603, 436.046 249.273, 437.186 248.767, 438.307 248.086, 439.404 247.228, 440.471 240.655, 448.007 234.081, 455.543 227.508, 463.079 220.934, 470.615 214.361, 478.151 207.787, 485.686 201.214, 493.222 199.800, 494.843 193.226, 502.379 187.918, 508.464 181.345, 516.000 174.771, 523.536 168.198, 531.071 161.527, 538.719 159.463, 541.008 157.342, 543.202 155.128, 545.295 " />
            <path fill="none" stroke-width="3.0" stroke-linecap="butt" stroke-opacity="1.0" stroke="rgb(0, 0, 0)" stroke-linejoin="miter" d=" M 275.645, 312.789 272.526, 309.351 271.368, 308.062 270.269, 306.810 269.235, 305.593 268.273, 304.411 267.389, 303.262 266.591, 302.147 265.885, 301.064 265.278, 300.012 264.777, 298.990 264.388, 297.998 264.371, 297.939 " />
            <path fill="none" stroke-width="3.0" stroke-linecap="butt" stroke-opacity="1.0" stroke="rgb(0, 0, 0)" stroke-linejoin="miter" d=" M 318.114, 547.119 311.667, 554.764 305.220, 562.408 298.773, 570.052 292.326, 577.697 288.540, 582.185 287.960, 582.926 287.550, 583.794 287.331, 584.803 287.324, 585.967 287.527, 586.916 287.955, 587.839 288.583, 588.728 289.389, 589.575 290.346, 590.372 291.431, 591.110 292.619, 591.783 293.886, 592.380 295.208, 592.896 296.561, 593.320 297.919, 593.645 299.260, 593.863 305.578, 594.575 311.525, 595.136 317.133, 595.571 322.434, 595.905 327.463, 596.162 332.252, 596.369 336.834, 596.549 341.243, 596.730 345.513, 596.935 349.678, 597.190 353.770, 597.522 357.823, 597.954 361.914, 598.527 365.929, 599.224 369.934, 600.027 373.995, 600.916 378.179, 601.874 382.553, 602.882 387.184, 603.922 392.139, 604.976 397.489, 606.025 403.301, 607.050 409.647, 608.035 416.596, 608.960 417.890, 609.048 419.219, 609.007 420.555, 608.847 421.871, 608.576 423.137, 608.202 424.324, 607.733 425.403, 607.179 426.345, 606.547 427.122, 605.845 427.703, 605.083 433.141, 596.691 438.579, 588.299 444.017, 579.907 449.455, 571.514 454.893, 563.122 460.331, 554.730 465.769, 546.338 471.206, 537.946 472.008, 536.709 472.349, 535.941 472.457, 535.136 472.360, 534.071 472.121, 533.064 471.742, 532.115 471.226, 531.222 470.576, 530.385 469.794, 529.604 468.882, 528.876 467.845, 528.202 466.684, 527.580 465.402, 527.010 464.002, 526.490 462.488, 526.020 457.815, 524.577 453.783, 523.139 450.342, 521.667 447.447, 520.121 445.050, 518.461 443.104, 516.648 441.563, 514.641 440.383, 512.400 439.515, 509.883 438.916, 507.051 438.539, 503.862 438.339, 500.272 438.007, 490.278 437.674, 480.283 437.342, 470.289 437.009, 460.294 436.677, 450.300 436.344, 440.305 436.012, 430.311 435.680, 420.316 435.347, 410.322 435.015, 400.327 434.682, 390.333 434.350, 380.338 434.017, 370.344 433.685, 360.349 433.352, 350.355 433.020, 340.361 432.687, 330.366 432.551, 326.264 " />
            <path fill="none" stroke-width="3.0" stroke-linecap="butt" stroke-opacity="1.0" stroke="rgb(0, 0, 0)" stroke-linejoin="miter" d=" M 316.188, 510.855 315.900, 510.696 314.872, 510.225 313.767, 509.807 311.053, 508.946 308.593, 508.054 306.382, 507.133 304.411, 506.181 302.674, 505.201 301.165, 504.192 299.877, 503.155 298.804, 502.089 297.938, 500.997 297.274, 499.876 296.806, 498.729 296.526, 497.556 296.500, 496.648 296.564, 495.733 296.718, 494.809 296.961, 493.876 297.290, 492.931 297.704, 491.973 298.203, 491.000 298.785, 490.012 299.448, 489.007 300.193, 487.982 301.016, 486.938 301.918, 485.871 308.482, 478.327 308.951, 477.788 " />
            <path fill="none" stroke-width="3.0" stroke-linecap="butt" stroke-opacity="1.0" stroke="rgb(0, 0, 0)" stroke-linejoin="miter" d=" M 199.800, 494.843 196.645, 495.671 192.313, 496.566 191.226, 496.800 190.069, 497.037 188.875, 497.292 187.678, 497.579 186.512, 497.913 185.411, 498.308 184.408, 498.779 183.536, 499.340 176.164, 506.096 168.791, 512.852 161.418, 519.608 154.045, 526.364 146.672, 533.120 139.299, 539.875 131.927, 546.631 124.554, 553.387 117.181, 560.143 115.838, 561.374 115.097, 562.074 114.573, 562.903 114.301, 563.879 114.319, 565.015 114.562, 565.951 115.023, 566.875 115.699, 567.779 116.588, 568.654 117.688, 569.494 118.995, 570.289 120.508, 571.033 122.225, 571.717 124.143, 572.333 126.261, 572.875 128.576, 573.333 131.088, 573.700 136.989, 574.370 142.907, 574.952 148.845, 575.464 154.809, 575.926 160.802, 576.354 166.828, 576.767 172.892, 577.184 178.996, 577.624 185.145, 578.105 191.343, 578.645 197.592, 579.264 203.896, 579.980 208.673, 580.598 213.324, 581.266 217.871, 581.974 222.337, 582.711 226.745, 583.467 231.118, 584.232 235.480, 584.996 239.854, 585.749 244.263, 586.480 248.733, 587.180 253.287, 587.838 257.950, 588.444 258.764, 588.497 259.586, 588.460 260.400, 588.337 261.190, 588.128 261.940, 587.835 262.632, 587.461 263.251, 587.007 263.780, 586.474 270.344, 578.930 276.908, 571.386 283.472, 563.842 290.036, 556.297 296.600, 548.753 303.164, 541.209 309.728, 533.665 316.291, 526.120 317.086, 525.207 " />
            <path fill="none" stroke-width="3.0" stroke-linecap="butt" stroke-opacity="1.0" stroke="rgb(0, 0, 0)" stroke-linejoin="miter" d=" M 416.010, 343.171 416.667, 342.349 417.203, 341.428 417.613, 340.406 417.896, 339.282 418.047, 338.054 418.063, 336.718 417.932, 335.699 417.629, 334.727 417.175, 333.810 416.589, 332.954 415.890, 332.165 415.097, 331.452 414.231, 330.818 413.311, 330.272 412.356, 329.820 411.385, 329.468 411.060, 329.385 410.419, 329.222 409.477, 329.090 404.206, 328.712 398.600, 328.387 392.740, 328.106 386.702, 327.858 380.563, 327.634 374.399, 327.423 368.286, 327.216 362.298, 327.002 356.509, 326.772 350.993, 326.516 345.822, 326.223 341.070, 325.885 336.352, 325.468 331.084, 324.944 325.374, 324.333 319.330, 323.658 313.057, 322.939 306.663, 322.198 300.252, 321.457 293.930, 320.735 287.800, 320.055 281.966, 319.436 281.647, 319.405 276.531, 318.901 271.598, 318.468 270.532, 318.430 269.552, 318.493 268.660, 318.657 267.859, 318.923 267.153, 319.290 " />
            <path fill="none" stroke-width="3.0" stroke-linecap="butt" stroke-opacity="1.0" stroke="rgb(0, 0, 0)" stroke-linejoin="miter" d=" M 220.165, 330.274 220.961, 329.657 221.643, 328.947 222.209, 328.144 222.656, 327.245 222.980, 326.249 223.177, 325.153 223.245, 323.955 223.180, 322.654 222.995, 321.660 222.848, 321.252 222.654, 320.714 222.173, 319.821 221.573, 318.988 220.870, 318.222 220.085, 317.528 219.235, 316.913 218.340, 316.383 217.418, 315.945 216.488, 315.604 215.568, 315.367 214.678, 315.240 204.710, 314.437 194.742, 313.633 184.775, 312.830 183.517, 312.728 176.208, 312.113 169.100, 311.467 162.130, 310.796 155.238, 310.103 148.364, 309.394 141.448, 308.672 134.431, 307.942 127.256, 307.209 119.863, 306.478 112.197, 305.752 104.200, 305.037 95.817, 304.337 94.456, 304.274 93.113, 304.303 91.809, 304.428 90.567, 304.649 89.408, 304.969 88.355, 305.388 87.428, 305.909 " />
            <path fill="none" stroke-width="3.0" stroke-linecap="butt" stroke-opacity="1.0" stroke="rgb(0, 0, 0)" stroke-linejoin="miter" d=" M 310.859, 462.106 310.439, 462.510 309.964, 462.817 309.442, 463.033 308.878, 463.162 308.279, 463.210 307.651, 463.181 306.907, 463.054 306.164, 462.827 305.414, 462.505 304.649, 462.091 303.859, 461.587 303.036, 460.998 302.171, 460.326 301.256, 459.576 300.282, 458.751 299.241, 457.853 298.123, 456.887 296.921, 455.856 290.130, 448.515 283.339, 441.175 276.548, 433.834 269.758, 426.493 262.967, 419.153 256.176, 411.812 249.385, 404.471 242.594, 397.131 235.804, 389.790 229.013, 382.449 222.222, 375.109 215.431, 367.768 208.641, 360.427 207.163, 358.831 205.880, 357.429 204.660, 356.068 203.512, 354.745 202.442, 353.461 201.458, 352.213 200.568, 351.002 199.777, 349.827 199.095, 348.686 198.528, 347.579 198.084, 346.504 197.769, 345.462 197.592, 344.450 197.564, 342.939 197.811, 341.506 198.336, 340.153 199.140, 338.881 200.227, 337.694 201.597, 336.591 " />
            <path fill="none" stroke-width="3.0" stroke-linecap="butt" stroke-opacity="1.0" stroke="rgb(0, 0, 0)" stroke-linejoin="miter" d=" M 427.703, 605.083 428.060, 604.269 428.163, 603.411 428.042, 602.273 427.766, 601.195 427.341, 600.177 426.767, 599.217 426.049, 598.315 425.189, 597.470 424.190, 596.680 423.055, 595.946 421.787, 595.267 420.389, 594.641 418.865, 594.067 417.217, 593.544 412.133, 591.940 407.741, 590.350 403.991, 588.731 400.830, 587.041 398.206, 585.237 396.068, 583.274 394.366, 581.110 393.049, 578.700 392.066, 576.001 391.368, 572.968 390.904, 569.554 390.626, 565.716 390.127, 555.728 389.628, 545.740 389.129, 535.753 388.630, 525.765 388.131, 515.778 387.633, 505.790 387.134, 495.803 386.635, 485.815 386.136, 475.828 385.637, 465.840 385.138, 455.853 384.639, 445.865 384.141, 435.877 383.642, 425.890 383.143, 415.902 382.644, 405.915 382.145, 395.927 381.646, 385.940 381.052, 374.036 380.954, 369.493 381.169, 365.497 381.740, 362.005 382.706, 358.977 384.111, 356.368 385.994, 354.136 " />
            <path fill="none" stroke-width="3.0" stroke-linecap="butt" stroke-opacity="1.0" stroke="rgb(0, 0, 0)" stroke-linejoin="miter" d=" M 300.354, 482.362 301.205, 481.478 302.046, 480.691 302.877, 480.001 303.699, 479.406 304.512, 478.905 305.314, 478.496 306.107, 478.180 306.889, 477.953 307.660, 477.815 308.421, 477.764 308.951, 477.788 309.171, 477.799 309.802, 477.908 310.417, 478.102 311.008, 478.382 311.571, 478.750 312.100, 479.205 312.588, 479.748 313.029, 480.381 313.419, 481.104 313.750, 481.917 314.018, 482.822 314.216, 483.818 314.339, 484.907 314.792, 491.080 315.238, 497.213 315.672, 503.310 316.090, 509.372 316.188, 510.855 316.489, 515.403 316.865, 521.405 316.961, 523.062 317.086, 525.207 317.212, 527.379 317.528, 533.330 317.808, 539.258 318.049, 545.167 318.114, 547.119 318.246, 551.058 318.396, 556.934 318.422, 560.346 318.335, 563.370 318.068, 566.038 317.556, 568.381 316.733, 570.431 315.535, 572.219 " />
            <path fill="none" stroke-width="3.0" stroke-linecap="butt" stroke-opacity="1.0" stroke="rgb(0, 0, 0)" stroke-linejoin="miter" d=" M 263.780, 586.474 264.203, 585.866 264.502, 585.183 264.662, 584.427 264.666, 583.601 264.505, 582.486 264.236, 581.434 263.862, 580.446 263.385, 579.519 262.808, 578.654 262.134, 577.849 261.365, 577.104 260.505, 576.418 259.556, 575.789 258.520, 575.218 257.401, 574.702 256.201, 574.241 253.256, 573.287 250.585, 572.304 248.181, 571.292 246.036, 570.252 244.143, 569.184 242.494, 568.088 241.083, 566.965 239.903, 565.815 238.946, 564.638 238.205, 563.435 237.675, 562.206 237.348, 560.951 237.300, 559.982 237.349, 559.007 237.495, 558.024 237.735, 557.031 238.069, 556.027 238.495, 555.011 239.011, 553.980 239.617, 552.933 240.310, 551.869 241.090, 550.785 241.956, 549.681 242.905, 548.554 249.459, 541.002 256.013, 533.449 262.568, 525.897 269.122, 518.344 275.676, 510.792 282.231, 503.239 288.785, 495.687 295.340, 488.134 299.495, 483.345 300.354, 482.362 " />
            <path fill="none" stroke-width="3.0" stroke-linecap="butt" stroke-opacity="1.0" stroke="rgb(0, 0, 0)" stroke-linejoin="miter" d=" M 155.128, 545.295 152.785, 547.281 150.277, 549.153 147.570, 550.905 144.628, 552.531 141.417, 554.023 137.901, 555.376 134.048, 556.583 129.823, 557.639 125.192, 558.535 124.031, 558.770 122.794, 559.007 121.518, 559.263 120.240, 559.553 118.997, 559.893 117.824, 560.299 116.759, 560.787 115.838, 561.374 " />
            <path fill="none" stroke-width="3.0" stroke-linecap="butt" stroke-opacity="1.0" stroke="rgb(0, 0, 0)" stroke-linejoin="miter" d=" M 315.535, 572.219 313.895, 573.774 311.750, 575.127 309.036, 576.307 305.689, 577.346 301.646, 578.271 296.846, 579.114 295.646, 579.354 294.450, 579.607 293.280, 579.886 292.157, 580.206 291.100, 580.582 290.131, 581.028 289.271, 581.557 288.540, 582.185 " />
        </g>
    </g>
</svg>
