<?xml version='1.0' encoding='ascii'?>
<svg xmlns="http://www.w3.org/2000/svg" version="1.1" width="1080" height="1080">
    <g id="View Layer_LineSet" xmlns:inkscape="http://www.inkscape.org/namespaces/inkscape" inkscape:groupmode="lineset" inkscape:label="View Layer_LineSet">
        <g xmlns:inkscape="http://www.inkscape.org/namespaces/inkscape" inkscape:groupmode="layer" id="strokes" inkscape:label="strokes">
            <path fill="none" stroke-width="3.0" stroke-linecap="butt" stroke-opacity="1.0" stroke="rgb(0, 0, 0)" stroke-linejoin="miter" d=" M 404.217, 375.301 404.489, 371.226 405.135, 367.624 406.200, 364.448 407.727, 361.651 408.278, 360.983 409.760, 359.185 412.344, 357.001 415.522, 355.049 419.337, 353.280 423.832, 351.644 429.052, 350.091 435.040, 348.570 436.432, 348.156 437.718, 347.665 438.893, 347.096 439.955, 346.447 440.901, 345.718 441.725, 344.905 442.427, 344.008 443.001, 343.025 443.444, 341.954 443.753, 340.794 443.924, 339.542 443.955, 338.197 443.728, 328.199 443.502, 318.202 443.275, 308.204 443.048, 298.207 442.822, 288.209 442.798, 287.149 442.681, 286.217 442.401, 285.345 441.975, 284.538 441.422, 283.799 440.761, 283.134 440.010, 282.546 439.187, 282.040 438.311, 281.619 437.402, 281.288 436.476, 281.052 435.553, 280.913 434.652, 280.877 429.599, 281.014 424.215, 281.232 418.574, 281.514 412.747, 281.844 406.810, 282.206 400.834, 282.585 394.894, 282.962 389.062, 283.323 383.411, 283.650 378.016, 283.928 372.948, 284.140 368.283, 284.270 363.644, 284.324 358.455, 284.328 352.820, 284.292 346.842, 284.227 340.624, 284.143 334.270, 284.049 327.884, 283.955 321.571, 283.872 315.435, 283.810 309.582, 283.778 304.117, 283.787 299.145, 283.846 298.070, 283.911 297.078, 284.064 296.174, 284.306 295.361, 284.636 294.641, 285.053 294.018, 285.559 293.495, 286.153 293.074, 286.834 292.761, 287.602 290.052, 297.228 287.344, 306.855 284.635, 316.481 281.927, 326.107 279.218, 335.733 278.281, 339.063 278.059, 339.994 277.961, 341.019 277.992, 342.138 278.179, 343.567 278.494, 344.831 278.934, 345.946 279.495, 346.927 280.177, 347.788 280.977, 348.544 281.891, 349.211 282.919, 349.802 284.058, 350.332 285.306, 350.816 286.660, 351.268 288.117, 351.704 294.555, 353.392 300.121, 355.070 304.882, 356.788 308.902, 358.597 312.248, 360.545 314.982, 362.683 317.169, 365.059 318.873, 367.722 320.157, 370.721 321.085, 374.102 321.720, 377.913 322.125, 382.200 322.810, 392.176 323.495, 402.153 324.180, 412.129 324.258, 413.270 324.943, 423.246 325.627, 433.223 325.896, 437.132 326.580, 447.108 327.265, 457.085 327.950, 467.061 328.390, 473.476 328.419, 474.592 328.348, 475.591 " />
            <path fill="none" stroke-width="3.0" stroke-linecap="butt" stroke-opacity="1.0" stroke="rgb(0, 0, 0)" stroke-linejoin="miter" d=" M 201.518, 367.119 202.137, 365.638 203.076, 364.211 204.338, 362.840 205.923, 361.528 207.835, 360.275 210.076, 359.083 212.647, 357.955 215.550, 356.892 218.787, 355.895 222.359, 354.967 223.748, 354.549 225.023, 354.055 226.164, 353.491 226.181, 353.483 227.218, 352.830 228.131, 352.096 228.916, 351.279 229.570, 350.377 230.088, 349.388 233.500, 339.988 236.240, 332.438 239.651, 323.038 243.063, 313.637 246.474, 304.237 249.101, 297.000 249.450, 296.010 249.671, 294.936 249.760, 293.778 249.714, 292.533 249.541, 291.596 249.204, 290.720 248.724, 289.909 248.119, 289.167 247.408, 288.498 246.610, 287.907 245.745, 287.398 244.831, 286.976 243.887, 286.643 242.933, 286.406 241.988, 286.267 241.071, 286.231 231.072, 286.418 221.074, 286.606 211.076, 286.794 208.742, 286.838 201.102, 286.956 193.652, 287.025 186.328, 287.056 179.067, 287.059 171.805, 287.043 164.479, 287.020 157.027, 286.998 149.384, 286.990 141.487, 287.004 133.272, 287.051 124.676, 287.141 115.635, 287.285 114.163, 287.358 112.708, 287.521 111.292, 287.773 109.941, 288.115 108.677, 288.546 107.524, 289.065 106.507, 289.672 105.647, 290.367 104.970, 291.147 99.478, 299.504 93.987, 307.861 88.495, 316.219 83.003, 324.576 77.511, 332.933 72.020, 341.290 70.640, 343.390 70.128, 344.334 69.870, 345.370 69.893, 346.499 70.288, 347.952 70.995, 349.266 71.976, 350.445 73.188, 351.497 74.590, 352.426 76.141, 353.239 77.800, 353.942 79.527, 354.540 81.281, 355.040 83.021, 355.448 84.706, 355.768 86.296, 356.008 95.052, 357.016 103.342, 358.307 111.192, 359.860 118.625, 361.657 125.668, 363.678 132.345, 365.905 138.681, 368.318 144.703, 370.898 150.435, 373.625 155.904, 376.482 161.134, 379.449 166.152, 382.507 173.810, 387.506 181.368, 392.739 188.843, 398.174 196.252, 403.776 203.613, 409.511 210.944, 415.347 218.263, 421.249 225.589, 427.187 232.938, 433.128 240.330, 439.041 241.491, 439.953 247.783, 444.895 255.316, 450.660 256.501, 451.640 257.492, 452.672 258.287, 453.751 258.886, 454.870 259.288, 456.023 259.495, 457.205 259.504, 458.409 259.317, 459.629 " />
            <path fill="none" stroke-width="3.0" stroke-linecap="butt" stroke-opacity="1.0" stroke="rgb(0, 0, 0)" stroke-linejoin="miter" d=" M 332.448, 526.616 329.974, 527.699 325.889, 529.171 321.033, 530.675 319.817, 531.080 318.605, 531.497 317.418, 531.935 316.276, 532.407 315.201, 532.923 314.214, 533.494 313.335, 534.131 312.586, 534.845 311.987, 535.646 311.559, 536.545 311.323, 537.553 309.726, 547.425 308.129, 557.296 306.531, 567.168 304.934, 577.039 303.337, 586.911 301.739, 596.783 300.142, 606.654 299.830, 608.584 299.809, 609.790 300.024, 610.740 300.489, 611.627 301.177, 612.447 302.062, 613.194 303.116, 613.865 304.311, 614.455 305.622, 614.959 307.020, 615.374 308.479, 615.694 309.972, 615.915 311.473, 616.032 312.954, 616.042 319.926, 615.761 326.474, 615.385 332.635, 614.934 338.449, 614.429 343.953, 613.891 349.185, 613.339 354.182, 612.795 358.983, 612.279 363.623, 611.811 368.141, 611.412 372.572, 611.103 376.954, 610.904 381.367, 610.843 385.690, 610.920 389.995, 611.106 394.353, 611.371 398.835, 611.687 403.513, 612.023 408.457, 612.350 413.740, 612.640 419.431, 612.862 425.603, 612.987 432.327, 612.987 439.674, 612.832 441.040, 612.719 442.445, 612.470 443.858, 612.099 445.249, 611.620 446.587, 611.045 447.843, 610.387 448.986, 609.659 449.985, 608.875 450.810, 608.047 451.429, 607.189 451.813, 606.313 451.930, 605.433 451.680, 595.436 451.430, 585.439 451.180, 575.442 450.930, 565.445 450.679, 555.449 450.429, 545.452 450.170, 535.087 450.062, 534.032 449.807, 533.056 449.407, 532.156 448.864, 531.333 448.181, 530.584 447.361, 529.909 446.406, 529.305 445.320, 528.773 444.105, 528.310 442.764, 527.916 441.300, 527.589 439.715, 527.327 434.819, 526.526 430.585, 525.639 426.967, 524.635 423.916, 523.479 421.385, 522.139 419.326, 520.580 417.692, 518.768 416.433, 516.669 415.503, 514.249 414.854, 511.473 414.436, 508.305 414.203, 504.709 413.791, 494.718 413.379, 484.726 412.967, 474.735 412.555, 464.743 412.143, 454.752 411.731, 444.760 411.320, 434.769 410.908, 424.777 410.496, 414.786 410.084, 404.794 409.672, 394.803 409.260, 384.811 408.848, 374.820 408.436, 364.828 408.278, 360.983 " />
            <path fill="none" stroke-width="3.0" stroke-linecap="butt" stroke-opacity="1.0" stroke="rgb(0, 0, 0)" stroke-linejoin="miter" d=" M 324.258, 413.270 323.960, 413.058 322.765, 412.216 315.413, 405.438 308.061, 398.659 300.709, 391.880 293.357, 385.102 286.005, 378.323 278.654, 371.544 271.302, 364.766 263.950, 357.987 256.598, 351.208 249.246, 344.430 241.894, 337.651 236.240, 332.438 " />
            <path fill="none" stroke-width="3.0" stroke-linecap="butt" stroke-opacity="1.0" stroke="rgb(0, 0, 0)" stroke-linejoin="miter" d=" M 241.491, 439.953 235.015, 447.573 228.540, 455.193 222.064, 462.813 215.588, 470.433 209.112, 478.053 202.636, 485.673 196.161, 493.293 189.685, 500.912 183.209, 508.532 181.374, 510.691 179.134, 513.254 176.831, 515.733 174.428, 518.129 171.887, 520.440 169.170, 522.664 166.238, 524.801 163.054, 526.850 159.579, 528.809 155.776, 530.677 151.605, 532.453 147.029, 534.136 142.010, 535.725 140.750, 536.134 139.407, 536.557 138.021, 537.004 136.632, 537.486 135.277, 538.013 133.998, 538.596 132.833, 539.245 131.821, 539.971 131.002, 540.784 130.415, 541.693 126.678, 550.969 122.941, 560.244 119.204, 569.520 115.467, 578.795 111.730, 588.071 107.993, 597.346 104.256, 606.622 101.410, 613.688 101.074, 614.778 101.080, 615.993 101.358, 616.956 101.894, 617.869 102.688, 618.724 103.734, 619.513 105.030, 620.228 106.574, 620.860 108.361, 621.403 110.390, 621.847 112.658, 622.185 115.161, 622.408 117.897, 622.509 120.864, 622.480 127.825, 622.207 134.790, 621.838 141.764, 621.392 148.751, 620.888 155.757, 620.346 162.784, 619.784 169.838, 619.221 176.922, 618.677 184.040, 618.169 191.195, 617.718 198.392, 617.343 205.631, 617.062 211.105, 616.928 216.424, 616.868 221.613, 616.867 226.701, 616.910 231.713, 616.982 236.676, 617.069 241.618, 617.157 246.566, 617.231 251.546, 617.276 256.585, 617.279 261.711, 617.224 266.950, 617.098 267.865, 617.021 268.789, 616.849 269.705, 616.589 270.595, 616.243 271.439, 615.817 272.221, 615.315 272.920, 614.743 273.520, 614.103 274.000, 613.402 274.344, 612.643 274.532, 611.832 276.419, 602.011 278.305, 592.191 280.192, 582.370 282.078, 572.550 283.965, 562.730 285.851, 552.909 287.738, 543.089 288.233, 540.508 288.249, 539.705 288.101, 538.645 287.841, 537.662 287.473, 536.756 286.999, 535.925 286.427, 535.177 " />
            <path fill="none" stroke-width="3.0" stroke-linecap="butt" stroke-opacity="1.0" stroke="rgb(0, 0, 0)" stroke-linejoin="miter" d=" M 443.955, 338.197 443.826, 337.184 443.517, 336.237 443.048, 335.361 442.438, 334.561 441.708, 333.839 440.880, 333.202 439.972, 332.654 439.005, 332.199 438.001, 331.842 436.979, 331.587 435.961, 331.439 434.966, 331.402 429.389, 331.563 423.446, 331.813 417.218, 332.133 410.787, 332.507 407.113, 332.736 406.221, 332.791 404.232, 332.915 397.635, 333.341 391.077, 333.766 384.638, 334.172 378.400, 334.542 372.442, 334.858 366.847, 335.101 361.695, 335.254 356.572, 335.323 350.842, 335.340 344.618, 335.316 338.015, 335.260 331.146, 335.184 324.127, 335.097 317.072, 335.012 310.097, 334.937 303.318, 334.884 296.851, 334.864 290.812, 334.887 285.319, 334.964 284.131, 335.037 283.036, 335.206 282.038, 335.471 281.140, 335.832 280.347, 336.288 279.661, 336.839 279.085, 337.486 278.624, 338.227 278.281, 339.063 " />
            <path fill="none" stroke-width="3.0" stroke-linecap="butt" stroke-opacity="1.0" stroke="rgb(0, 0, 0)" stroke-linejoin="miter" d=" M 230.088, 349.388 230.468, 348.311 230.706, 347.144 230.797, 345.885 230.738, 344.532 230.540, 343.514 230.163, 342.562 229.627, 341.681 228.954, 340.876 228.163, 340.151 227.278, 339.510 226.318, 338.959 225.305, 338.502 224.259, 338.143 223.203, 337.887 222.157, 337.738 221.143, 337.701 213.265, 337.865 203.267, 338.072 193.269, 338.279 185.401, 338.443 176.954, 338.590 168.715, 338.684 160.614, 338.736 152.582, 338.757 144.549, 338.758 136.445, 338.751 128.200, 338.746 119.744, 338.756 111.006, 338.791 101.916, 338.862 92.404, 338.982 82.399, 339.161 80.771, 339.244 79.162, 339.425 77.599, 339.704 76.107, 340.079 74.713, 340.551 73.443, 341.119 72.323, 341.781 71.380, 342.539 70.640, 343.390 " />
            <path fill="none" stroke-width="3.0" stroke-linecap="butt" stroke-opacity="1.0" stroke="rgb(0, 0, 0)" stroke-linejoin="miter" d=" M 328.348, 475.591 328.184, 476.475 327.934, 477.249 327.605, 477.918 327.204, 478.486 326.737, 478.958 326.212, 479.338 325.635, 479.630 325.013, 479.838 324.353, 479.967 323.661, 480.022 322.843, 479.991 322.027, 479.857 321.205, 479.626 320.365, 479.301 319.500, 478.888 318.598, 478.391 317.652, 477.815 316.650, 477.164 315.584, 476.442 314.443, 475.656 313.219, 474.808 311.901, 473.905 304.461, 467.223 297.021, 460.542 289.581, 453.860 282.140, 447.179 274.700, 440.497 267.260, 433.816 266.238, 432.898 258.797, 426.216 255.603, 423.348 248.163, 416.666 240.722, 409.984 233.282, 403.303 225.842, 396.622 218.402, 389.940 212.035, 384.222 210.582, 382.903 209.201, 381.617 207.901, 380.363 206.689, 379.140 205.576, 377.945 204.569, 376.777 203.676, 375.634 202.906, 374.515 202.268, 373.417 201.771, 372.340 201.422, 371.280 201.230, 370.238 201.216, 368.653 201.518, 367.119 " />
            <path fill="none" stroke-width="3.0" stroke-linecap="butt" stroke-opacity="1.0" stroke="rgb(0, 0, 0)" stroke-linejoin="miter" d=" M 451.930, 605.433 451.814, 604.305 451.535, 603.261 451.097, 602.301 450.503, 601.421 449.755, 600.623 448.858, 599.903 447.813, 599.261 446.624, 598.696 445.293, 598.205 443.825, 597.788 442.221, 597.443 440.485, 597.169 435.123, 596.329 430.486, 595.396 426.523, 594.334 423.180, 593.109 420.407, 591.683 418.151, 590.021 416.359, 588.087 414.979, 585.844 413.959, 583.255 413.245, 580.284 412.786, 576.891 412.528, 573.039 412.101, 563.048 411.674, 553.057 411.247, 543.066 410.820, 533.075 410.393, 523.084 409.966, 513.093 409.539, 503.102 409.113, 493.111 408.686, 483.121 408.259, 473.130 407.832, 463.139 407.405, 453.148 406.978, 443.157 406.551, 433.166 406.124, 423.175 405.697, 413.184 405.270, 403.194 404.844, 393.203 404.417, 383.212 404.275, 379.896 404.217, 375.301 " />
            <path fill="none" stroke-width="3.0" stroke-linecap="butt" stroke-opacity="1.0" stroke="rgb(0, 0, 0)" stroke-linejoin="miter" d=" M 259.317, 459.629 258.932, 460.860 258.349, 462.094 257.568, 463.327 256.589, 464.552 250.069, 472.134 243.549, 479.716 237.029, 487.298 230.509, 494.881 223.989, 502.463 217.469, 510.045 210.949, 517.627 204.430, 525.210 197.910, 532.792 191.390, 540.374 184.870, 547.956 178.350, 555.538 171.830, 563.121 165.310, 570.703 158.790, 578.285 157.073, 580.281 154.634, 583.037 152.127, 585.704 149.509, 588.282 146.740, 590.768 143.776, 593.162 140.576, 595.463 137.099, 597.669 133.302, 599.781 129.143, 601.796 124.581, 603.714 119.574, 605.533 114.079, 607.254 112.699, 607.696 111.229, 608.154 109.712, 608.638 108.191, 609.159 106.710, 609.729 105.311, 610.358 104.038, 611.058 102.935, 611.838 102.045, 612.712 101.410, 613.688 " />
            <path fill="none" stroke-width="3.0" stroke-linecap="butt" stroke-opacity="1.0" stroke="rgb(0, 0, 0)" stroke-linejoin="miter" d=" M 244.219, 588.628 244.503, 587.553 244.893, 586.451 245.387, 585.322 245.984, 584.164 246.681, 582.975 247.479, 581.755 248.374, 580.502 249.366, 579.214 250.452, 577.890 256.894, 570.242 263.336, 562.593 269.778, 554.944 276.220, 547.296 277.748, 545.482 284.190, 537.833 286.427, 535.177 292.869, 527.528 299.311, 519.879 305.753, 512.231 312.195, 504.582 314.442, 501.914 315.402, 500.781 316.351, 499.752 317.288, 498.825 318.213, 497.998 319.127, 497.272 320.029, 496.644 320.918, 496.114 321.795, 495.678 322.659, 495.338 323.510, 495.090 324.349, 494.933 325.174, 494.867 325.868, 494.892 326.542, 495.008 327.189, 495.216 327.804, 495.517 328.380, 495.913 328.911, 496.405 329.389, 496.996 329.810, 497.686 330.165, 498.477 330.449, 499.371 330.656, 500.369 330.779, 501.472 331.209, 507.758 331.631, 514.005 332.041, 520.214 332.434, 526.390 332.448, 526.616 332.807, 532.536 333.153, 538.655 333.436, 544.116 333.469, 544.750 333.751, 550.824 333.993, 556.880 334.193, 562.922 334.345, 568.953 334.445, 574.975 334.437, 578.481 334.308, 581.605 333.986, 584.391 " />
            <path fill="none" stroke-width="3.0" stroke-linecap="butt" stroke-opacity="1.0" stroke="rgb(0, 0, 0)" stroke-linejoin="miter" d=" M 333.986, 584.391 333.398, 586.882 332.472, 589.119 331.135, 591.145 329.316, 593.001 326.942, 594.730 323.940, 596.372 320.238, 597.968 315.765, 599.559 310.447, 601.187 309.115, 601.625 307.788, 602.075 306.488, 602.549 305.239, 603.059 304.062, 603.615 302.982, 604.230 302.021, 604.915 301.203, 605.681 300.549, 606.540 300.084, 607.504 299.830, 608.584 " />
            <path fill="none" stroke-width="3.0" stroke-linecap="butt" stroke-opacity="1.0" stroke="rgb(0, 0, 0)" stroke-linejoin="miter" d=" M 274.532, 611.832 274.546, 610.972 274.378, 609.838 274.089, 608.787 273.680, 607.819 273.156, 606.932 272.519, 606.124 271.772, 605.395 270.918, 604.742 269.959, 604.165 268.900, 603.663 267.743, 603.233 266.491, 602.875 265.147, 602.586 261.844, 602.062 258.846, 601.463 256.147, 600.791 253.737, 600.048 251.611, 599.235 249.760, 598.353 248.177, 597.405 246.854, 596.391 245.785, 595.313 244.960, 594.173 244.374, 592.972 244.018, 591.711 243.975, 590.706 244.042, 589.679 244.219, 588.628 " />
        </g>
    </g>
</svg>
