<?xml version='1.0' encoding='ascii'?>
<svg xmlns="http://www.w3.org/2000/svg" version="1.1" width="1080" height="1080">
    <g id="View Layer_LineSet" xmlns:inkscape="http://www.inkscape.org/namespaces/inkscape" inkscape:groupmode="lineset" inkscape:label="View Layer_LineSet">
        <g xmlns:inkscape="http://www.inkscape.org/namespaces/inkscape" inkscape:groupmode="layer" id="strokes" inkscape:label="strokes">
            <path fill="none" stroke-width="3.0" stroke-linecap="butt" stroke-opacity="1.0" stroke="rgb(0, 0, 0)" stroke-linejoin="miter" d=" M 416.894, 577.776 416.641, 573.923 416.228, 563.931 415.814, 553.940 415.401, 543.948 415.356, 542.852 414.942, 532.861 414.529, 522.870 414.418, 520.172 414.004, 510.181 413.591, 500.189 413.178, 490.198 412.765, 480.206 412.351, 470.215 411.938, 460.223 411.525, 450.232 411.111, 440.241 410.698, 430.249 410.285, 420.258 409.872, 410.266 409.458, 400.275 409.045, 390.283 408.645, 380.604 408.593, 376.002 408.871, 371.915 409.522, 368.296 410.591, 365.097 412.122, 362.269 414.159, 359.765 416.746, 357.534 419.926, 355.526 423.742, 353.690 428.237, 351.977 433.454, 350.336 439.436, 348.714 440.827, 348.276 442.111, 347.764 443.285, 347.175 444.346, 346.509 445.291, 345.763 446.115, 344.936 446.816, 344.027 447.390, 343.034 447.834, 341.956 448.144, 340.789 448.317, 339.534 448.349, 338.188 448.222, 337.177 446.382, 327.348 444.541, 317.518 442.701, 307.689 440.860, 297.860 439.019, 288.031 438.718, 286.420 438.437, 285.551 438.010, 284.750 437.457, 284.019 436.795, 283.363 436.044, 282.786 435.221, 282.291 434.346, 281.883 433.436, 281.565 432.510, 281.341 431.588, 281.216 430.687, 281.193 425.636, 281.404 420.252, 281.700 414.608, 282.065 408.778, 282.481 402.835, 282.931 396.851, 283.398 390.900, 283.863 385.056, 284.310 379.392, 284.721 373.982, 285.079 368.899, 285.367 364.217, 285.566 359.561, 285.688 354.352, 285.768 348.693, 285.816 342.686, 285.839 336.437, 285.846 330.048, 285.845 323.625, 285.846 317.273, 285.856 311.097, 285.883 305.203, 285.938 299.698, 286.027 294.689, 286.160 293.605, 286.241 292.606, 286.410 291.695, 286.666 290.875, 287.010 290.150, 287.441 289.523, 287.958 288.996, 288.562 288.573, 289.253 288.258, 290.031 288.052, 290.894 286.883, 300.826 285.715, 310.757 284.546, 320.688 283.377, 330.620 282.208, 340.551 281.955, 342.706 281.855, 343.738 281.883, 344.863 282.071, 346.296 282.386, 347.562 282.827, 348.676 283.392, 349.653 284.078, 350.507 284.883, 351.254 285.804, 351.909 286.839, 352.485 287.986, 352.999 289.242, 353.465 290.605, 353.897 292.073, 354.311 298.555, 355.899 304.156, 357.491 308.946, 359.137 312.989, 360.885 316.352, 362.786 319.099, 364.886 321.295, 367.235 323.004, 369.880 324.291, 372.869 325.219, 376.249 325.853, 380.065 326.254, 384.362 326.926, 394.340 327.599, 404.317 328.271, 414.294 328.674, 420.272 329.346, 430.249 329.616, 434.249 330.288, 444.226 330.960, 454.203 331.633, 464.181 332.305, 474.158 332.422, 475.902 332.450, 477.023 " />
            <path fill="none" stroke-width="3.0" stroke-linecap="butt" stroke-opacity="1.0" stroke="rgb(0, 0, 0)" stroke-linejoin="miter" d=" M 204.582, 371.307 205.212, 369.803 206.165, 368.349 207.444, 366.946 209.052, 365.596 210.989, 364.300 213.259, 363.061 215.863, 361.881 218.802, 360.760 222.078, 359.701 223.466, 359.318 225.693, 358.705 227.098, 358.261 228.388, 357.742 229.560, 357.146 230.610, 356.471 231.534, 355.716 232.329, 354.880 232.991, 353.961 233.517, 352.956 233.902, 351.865 234.144, 350.686 236.123, 340.884 236.200, 340.503 238.179, 330.701 240.158, 320.899 242.137, 311.097 244.116, 301.294 244.770, 298.056 244.859, 296.889 244.811, 295.637 244.634, 294.696 244.293, 293.819 243.807, 293.010 243.195, 292.272 242.475, 291.609 241.668, 291.027 240.793, 290.527 239.868, 290.115 238.913, 289.795 237.949, 289.570 236.992, 289.444 236.065, 289.421 226.070, 289.756 216.076, 290.090 206.082, 290.424 203.341, 290.516 195.598, 290.749 188.044, 290.931 180.615, 291.071 173.246, 291.183 165.873, 291.276 158.433, 291.362 150.860, 291.452 143.089, 291.558 135.057, 291.691 126.698, 291.862 117.946, 292.082 108.736, 292.364 107.236, 292.459 105.753, 292.646 104.311, 292.923 102.934, 293.289 101.646, 293.744 100.472, 294.286 99.435, 294.915 98.559, 295.630 97.870, 296.429 97.390, 297.313 92.953, 306.275 88.517, 315.237 84.080, 324.199 79.644, 333.161 75.207, 342.123 71.038, 350.544 70.774, 351.597 70.795, 352.738 71.195, 354.203 71.916, 355.520 72.914, 356.696 74.149, 357.739 75.578, 358.655 77.160, 359.451 78.852, 360.134 80.613, 360.710 82.401, 361.186 84.175, 361.568 85.893, 361.863 87.513, 362.079 96.438, 362.948 104.883, 364.110 112.875, 365.544 120.439, 367.232 127.602, 369.152 134.389, 371.285 140.828, 373.611 146.943, 376.110 152.763, 378.763 158.312, 381.549 163.618, 384.451 168.707, 387.447 176.469, 392.352 184.125, 397.494 191.694, 402.838 199.192, 408.349 206.639, 413.993 214.052, 419.736 221.449, 425.545 228.850, 431.386 236.271, 437.228 240.048, 440.168 243.733, 443.038 251.253, 448.785 258.850, 454.438 260.045, 455.401 261.043, 456.420 261.844, 457.489 262.447, 458.604 262.852, 459.756 263.058, 460.941 263.066, 462.153 " />
            <path fill="none" stroke-width="3.0" stroke-linecap="butt" stroke-opacity="1.0" stroke="rgb(0, 0, 0)" stroke-linejoin="miter" d=" M 328.674, 420.272 328.618, 420.271 327.872, 420.158 327.120, 419.954 326.353, 419.664 325.563, 419.291 324.739, 418.841 323.875, 418.318 322.960, 417.726 321.986, 417.069 320.945, 416.353 319.827, 415.581 318.624, 414.758 311.194, 408.065 303.764, 401.371 296.335, 394.678 288.905, 387.985 281.475, 381.291 274.046, 374.598 266.616, 367.905 259.186, 361.212 251.757, 354.518 244.327, 347.825 236.200, 340.503 " />
            <path fill="none" stroke-width="3.0" stroke-linecap="butt" stroke-opacity="1.0" stroke="rgb(0, 0, 0)" stroke-linejoin="miter" d=" M 240.048, 440.168 233.622, 447.831 227.197, 455.494 220.772, 463.156 214.347, 470.819 207.922, 478.482 201.496, 486.144 195.071, 493.807 188.646, 501.470 182.221, 509.133 175.825, 516.760 173.553, 519.395 171.218, 521.948 168.780, 524.418 166.202, 526.806 163.445, 529.112 160.469, 531.334 157.235, 533.473 153.706, 535.529 149.841, 537.500 145.602, 539.388 140.950, 541.191 135.846, 542.909 134.564, 543.351 133.198, 543.808 131.788, 544.291 130.374, 544.810 128.996, 545.373 127.694, 545.992 126.508, 546.674 125.479, 547.430 124.646, 548.270 124.049, 549.203 123.729, 550.239 120.903, 559.831 118.077, 569.423 115.251, 579.015 112.424, 588.608 109.598, 598.200 106.772, 607.792 103.946, 617.385 102.153, 623.468 102.157, 624.697 102.439, 625.664 102.985, 626.574 103.791, 627.418 104.856, 628.190 106.176, 628.880 107.747, 629.481 109.567, 629.984 111.633, 630.382 113.942, 630.666 116.490, 630.829 119.276, 630.862 122.296, 630.758 129.380, 630.306 136.466, 629.757 143.557, 629.131 150.660, 628.447 157.778, 627.723 164.915, 626.979 172.076, 626.234 179.264, 625.507 186.484, 624.817 193.739, 624.183 201.031, 623.624 208.365, 623.160 213.907, 622.889 219.290, 622.696 224.541, 622.565 229.687, 622.481 234.755, 622.429 239.773, 622.393 244.767, 622.359 249.766, 622.310 254.796, 622.231 259.884, 622.109 265.058, 621.926 270.345, 621.669 271.267, 621.569 272.200, 621.373 273.125, 621.088 274.023, 620.718 274.875, 620.269 275.664, 619.744 276.370, 619.151 276.976, 618.493 277.462, 617.775 277.810, 617.003 278.000, 616.182 278.831, 606.217 279.662, 596.251 280.492, 586.286 281.323, 576.321 282.153, 566.355 282.984, 556.390 283.819, 546.374 " />
            <path fill="none" stroke-width="3.0" stroke-linecap="butt" stroke-opacity="1.0" stroke="rgb(0, 0, 0)" stroke-linejoin="miter" d=" M 336.098, 523.916 336.021, 524.036 334.350, 525.808 332.169, 527.469 329.412, 529.060 326.013, 530.621 321.904, 532.191 317.018, 533.809 315.795, 534.243 314.575, 534.689 313.380, 535.156 312.231, 535.656 311.150, 536.198 310.156, 536.794 309.272, 537.454 308.518, 538.188 307.916, 539.006 307.486, 539.920 307.250, 540.938 306.724, 550.924 306.199, 560.911 305.674, 570.897 305.149, 580.883 304.624, 590.869 304.099, 600.855 303.574, 610.842 303.498, 612.293 303.475, 613.506 303.690, 614.456 304.157, 615.336 304.849, 616.143 305.738, 616.872 306.798, 617.521 308.001, 618.084 309.319, 618.559 310.726, 618.941 312.194, 619.226 313.697, 619.411 315.206, 619.492 316.696, 619.465 323.710, 619.010 330.295, 618.471 336.489, 617.866 342.331, 617.215 347.860, 616.539 353.114, 615.856 358.131, 615.187 362.949, 614.551 367.605, 613.967 372.137, 613.456 376.580, 613.037 380.973, 612.731 385.395, 612.561 389.727, 612.532 394.039, 612.613 398.402, 612.772 402.889, 612.979 407.570, 613.201 412.517, 613.408 417.800, 613.568 423.491, 613.651 429.660, 613.626 436.378, 613.461 443.717, 613.126 445.080, 612.978 446.483, 612.695 447.894, 612.289 449.283, 611.775 450.620, 611.167 451.875, 610.478 453.016, 609.722 454.014, 608.913 454.838, 608.064 455.457, 607.190 455.841, 606.305 455.960, 605.421 455.844, 604.295 454.507, 594.385 453.170, 584.475 451.833, 574.564 450.496, 564.654 449.159, 554.744 447.821, 544.834 446.402, 534.315 446.146, 533.343 445.745, 532.451 445.201, 531.639 444.518, 530.905 443.698, 530.247 442.744, 529.664 441.658, 529.155 440.444, 528.718 439.103, 528.353 437.639, 528.057 436.055, 527.830 431.160, 527.135 426.926, 526.340 423.306, 525.414 420.252, 524.323 417.719, 523.035 415.657, 521.518 414.418, 520.172 " />
            <path fill="none" stroke-width="3.0" stroke-linecap="butt" stroke-opacity="1.0" stroke="rgb(0, 0, 0)" stroke-linejoin="miter" d=" M 448.222, 337.177 447.915, 336.235 447.448, 335.366 446.840, 334.575 446.113, 333.865 445.286, 333.241 444.381, 332.707 443.417, 332.267 442.414, 331.926 441.395, 331.687 440.378, 331.555 439.385, 331.534 433.815, 331.785 427.877, 332.131 421.652, 332.552 415.222, 333.029 408.665, 333.544 402.064, 334.077 395.498, 334.609 389.050, 335.121 382.800, 335.592 376.830, 336.005 371.221, 336.340 366.054, 336.577 360.915, 336.730 355.166, 336.841 348.918, 336.917 342.288, 336.969 335.388, 337.004 328.333, 337.031 321.241, 337.060 314.225, 337.099 307.404, 337.156 300.894, 337.241 294.812, 337.363 289.278, 337.530 288.081, 337.623 286.977, 337.811 285.971, 338.093 285.066, 338.471 284.266, 338.942 283.573, 339.508 282.993, 340.167 282.527, 340.920 282.180, 341.766 281.955, 342.706 " />
            <path fill="none" stroke-width="3.0" stroke-linecap="butt" stroke-opacity="1.0" stroke="rgb(0, 0, 0)" stroke-linejoin="miter" d=" M 234.144, 350.686 234.238, 349.417 234.181, 348.056 233.983, 347.034 233.603, 346.082 233.062, 345.204 232.382, 344.404 231.585, 343.687 230.690, 343.057 229.720, 342.518 228.697, 342.074 227.640, 341.730 226.572, 341.489 225.515, 341.356 224.489, 341.336 214.496, 341.705 211.837, 341.803 201.844, 342.172 191.851, 342.541 188.298, 342.672 179.733, 342.961 171.376, 343.192 163.154, 343.378 154.999, 343.532 146.839, 343.666 138.602, 343.793 130.218, 343.926 121.614, 344.076 112.720, 344.256 103.462, 344.479 93.769, 344.758 83.775, 345.099 83.568, 345.106 81.907, 345.217 80.265, 345.427 78.670, 345.735 77.147, 346.139 75.724, 346.640 74.427, 347.236 73.283, 347.925 72.319, 348.707 71.562, 349.580 71.038, 350.544 " />
            <path fill="none" stroke-width="3.0" stroke-linecap="butt" stroke-opacity="1.0" stroke="rgb(0, 0, 0)" stroke-linejoin="miter" d=" M 332.450, 477.023 332.377, 478.027 332.211, 478.918 331.958, 479.700 331.627, 480.379 331.223, 480.958 330.753, 481.441 330.225, 481.833 329.644, 482.139 329.019, 482.361 328.355, 482.504 327.659, 482.573 326.837, 482.559 326.017, 482.442 325.190, 482.226 324.347, 481.917 323.477, 481.520 322.571, 481.039 321.620, 480.480 320.613, 479.847 319.542, 479.144 318.396, 478.378 317.165, 477.551 315.841, 476.670 308.325, 470.074 300.808, 463.479 293.292, 456.883 285.776, 450.287 278.260, 443.691 270.743, 437.095 266.645, 433.499 259.129, 426.903 254.544, 422.880 247.028, 416.284 239.512, 409.688 231.995, 403.092 224.479, 396.496 216.963, 389.900 215.203, 388.356 213.735, 387.052 212.339, 385.782 211.025, 384.541 209.800, 383.330 208.675, 382.145 207.657, 380.986 206.755, 379.850 205.977, 378.736 205.333, 377.641 204.831, 376.564 204.479, 375.502 204.287, 374.455 204.275, 372.858 204.582, 371.307 " />
            <path fill="none" stroke-width="3.0" stroke-linecap="butt" stroke-opacity="1.0" stroke="rgb(0, 0, 0)" stroke-linejoin="miter" d=" M 263.066, 462.153 262.875, 463.384 262.485, 464.630 261.895, 465.884 261.105, 467.140 260.114, 468.393 253.641, 476.015 247.168, 483.637 240.694, 491.259 234.221, 498.881 227.748, 506.503 221.274, 514.125 214.801, 521.747 208.328, 529.369 201.854, 536.991 195.381, 544.613 188.908, 552.235 182.434, 559.857 175.961, 567.479 169.488, 575.101 163.014, 582.723 159.178, 587.240 156.696, 590.081 154.145, 592.834 151.482, 595.500 148.663, 598.078 145.647, 600.567 142.391, 602.969 138.852, 605.283 134.987, 607.510 130.754, 609.648 126.109, 611.698 121.010, 613.661 115.413, 615.536 114.008, 616.018 112.510, 616.517 110.964, 617.044 109.414, 617.609 107.904, 618.222 106.478, 618.893 105.180, 619.632 104.055, 620.449 103.146, 621.354 102.497, 622.357 102.153, 623.468 " />
            <path fill="none" stroke-width="3.0" stroke-linecap="butt" stroke-opacity="1.0" stroke="rgb(0, 0, 0)" stroke-linejoin="miter" d=" M 247.257, 594.629 247.437, 593.567 247.726, 592.477 248.121, 591.358 248.622, 590.210 249.227, 589.029 249.934, 587.816 250.741, 586.568 251.647, 585.285 252.650, 583.965 253.749, 582.607 260.136, 574.911 266.522, 567.216 272.908, 559.521 279.294, 551.826 283.819, 546.374 290.205, 538.679 296.591, 530.984 302.978, 523.289 309.364, 515.594 315.750, 507.899 318.357, 504.758 319.324, 503.599 320.280, 502.544 321.224, 501.593 322.156, 500.744 323.076, 499.995 323.983, 499.345 324.878, 498.793 325.760, 498.337 326.630, 497.977 327.486, 497.710 328.329, 497.535 329.159, 497.451 329.856, 497.462 330.534, 497.564 331.185, 497.759 331.802, 498.048 332.381, 498.434 332.913, 498.917 333.393, 499.500 333.815, 500.184 334.171, 500.971 334.455, 501.862 334.662, 502.860 334.784, 503.965 335.207, 510.269 335.622, 516.532 336.025, 522.758 336.098, 523.916 336.412, 528.951 336.777, 535.114 337.116, 541.251 337.373, 546.332 337.426, 547.364 337.700, 553.457 337.935, 559.533 338.127, 565.596 338.271, 571.648 338.364, 577.693 338.350, 581.214 " />
            <path fill="none" stroke-width="3.0" stroke-linecap="butt" stroke-opacity="1.0" stroke="rgb(0, 0, 0)" stroke-linejoin="miter" d=" M 338.350, 581.214 338.216, 584.354 337.889, 587.160 337.295, 589.675 336.361, 591.944 335.015, 594.010 333.184, 595.918 330.794, 597.712 327.774, 599.433 324.050, 601.126 319.548, 602.834 314.195, 604.598 312.854, 605.071 311.518, 605.556 310.209, 606.064 308.951, 606.607 307.766, 607.194 306.678, 607.839 305.709, 608.551 304.884, 609.341 304.225, 610.221 303.755, 611.201 303.498, 612.293 " />
            <path fill="none" stroke-width="3.0" stroke-linecap="butt" stroke-opacity="1.0" stroke="rgb(0, 0, 0)" stroke-linejoin="miter" d=" M 455.844, 604.295 455.568, 603.257 455.132, 602.306 454.540, 601.441 453.795, 600.660 452.901, 599.961 451.859, 599.344 450.673, 598.807 449.345, 598.348 447.880, 597.965 446.279, 597.659 444.547, 597.426 439.193, 596.714 434.562, 595.891 430.603, 594.923 427.265, 593.775 424.494, 592.413 422.241, 590.802 420.452, 588.908 419.075, 586.694 418.058, 584.125 417.349, 581.164 416.894, 577.776 " />
            <path fill="none" stroke-width="3.0" stroke-linecap="butt" stroke-opacity="1.0" stroke="rgb(0, 0, 0)" stroke-linejoin="miter" d=" M 278.000, 616.182 278.016, 615.317 277.848, 614.180 277.557, 613.130 277.147, 612.166 276.620, 611.286 275.978, 610.489 275.226, 609.774 274.365, 609.138 273.400, 608.582 272.332, 608.102 271.165, 607.697 269.903, 607.367 268.547, 607.110 265.214, 606.663 262.190, 606.133 259.465, 605.523 257.034, 604.834 254.888, 604.067 253.020, 603.224 251.423, 602.308 250.088, 601.319 249.009, 600.260 248.178, 599.132 247.588, 597.937 247.230, 596.676 247.188, 595.665 247.257, 594.629 " />
        </g>
    </g>
</svg>
