<?xml version='1.0' encoding='ascii'?>
<svg xmlns="http://www.w3.org/2000/svg" version="1.1" width="1080" height="1080">
    <g id="View Layer_LineSet" xmlns:inkscape="http://www.inkscape.org/namespaces/inkscape" inkscape:groupmode="lineset" inkscape:label="View Layer_LineSet">
        <g xmlns:inkscape="http://www.inkscape.org/namespaces/inkscape" inkscape:groupmode="layer" id="strokes" inkscape:label="strokes">
            <path fill="none" stroke-width="3.0" stroke-linecap="butt" stroke-opacity="1.0" stroke="rgb(0, 0, 0)" stroke-linejoin="miter" d=" M 421.546, 581.942 421.097, 578.558 420.849, 574.704 420.450, 564.712 420.051, 554.720 419.651, 544.728 419.613, 543.769 419.214, 533.777 418.903, 525.987 418.503, 515.995 418.104, 506.003 417.705, 496.011 417.305, 486.019 416.906, 476.027 416.507, 466.035 416.108, 456.043 415.708, 446.051 415.309, 436.059 414.910, 426.067 414.510, 416.075 414.111, 406.083 413.712, 396.091 413.312, 386.099 413.118, 381.230 413.072, 376.622 413.354, 372.523 414.008, 368.887 415.079, 365.665 416.609, 362.808 418.644, 360.266 421.226, 357.988 424.398, 355.924 428.203, 354.023 432.684, 352.234 437.883, 350.505 443.842, 348.784 445.228, 348.323 446.507, 347.789 447.677, 347.181 448.734, 346.497 449.674, 345.735 450.496, 344.895 451.195, 343.974 451.767, 342.971 452.210, 341.885 452.520, 340.713 452.694, 339.455 452.727, 338.108 452.602, 337.098 452.298, 336.161 448.967, 326.732 445.637, 317.303 442.307, 307.874 438.976, 298.445 435.646, 289.016 434.515, 285.815 434.089, 285.019 433.536, 284.295 432.876, 283.648 432.126, 283.081 431.305, 282.598 430.431, 282.202 429.523, 281.897 428.600, 281.687 427.680, 281.575 426.782, 281.565 421.743, 281.849 416.371, 282.223 410.738, 282.671 404.917, 283.172 398.980, 283.709 393.002, 284.263 387.054, 284.816 381.210, 285.350 375.545, 285.845 370.132, 286.283 365.044, 286.646 360.357, 286.914 355.695, 287.104 350.476, 287.261 344.804, 287.392 338.783, 287.503 332.516, 287.602 326.107, 287.695 319.660, 287.790 313.283, 287.893 307.080, 288.012 301.158, 288.153 295.626, 288.324 290.590, 288.532 289.500, 288.629 288.495, 288.814 287.580, 289.085 286.756, 289.442 286.027, 289.886 285.396, 290.416 284.867, 291.031 284.443, 291.732 284.126, 292.518 283.921, 293.389 283.829, 294.345 283.854, 295.385 284.313, 305.374 284.772, 315.364 285.231, 325.353 285.690, 335.343 286.149, 345.332 286.249, 347.512 286.435, 348.950 286.751, 350.218 287.192, 351.330 287.759, 352.302 288.447, 353.150 289.254, 353.887 290.179, 354.530 291.218, 355.093 292.369, 355.590 293.631, 356.037 295.000, 356.449 296.474, 356.839 302.980, 358.327 308.601, 359.833 313.405, 361.405 317.459, 363.093 320.829, 364.945 323.581, 367.008 325.780, 369.329 326.891, 371.034 327.491, 371.956 328.777, 374.935 329.703, 378.312 330.332, 382.133 " />
            <path fill="none" stroke-width="3.0" stroke-linecap="butt" stroke-opacity="1.0" stroke="rgb(0, 0, 0)" stroke-linejoin="miter" d=" M 208.033, 377.002 208.346, 375.434 208.983, 373.908 209.948, 372.426 211.241, 370.990 212.866, 369.602 214.823, 368.264 217.116, 366.977 219.744, 365.743 221.285, 365.131 222.711, 364.564 226.017, 363.442 229.664, 362.378 231.082, 361.907 232.384, 361.362 233.566, 360.742 234.625, 360.045 235.558, 359.270 236.360, 358.415 237.029, 357.478 237.560, 356.458 237.950, 355.353 238.196, 354.162 238.292, 352.882 238.408, 350.000 238.811, 340.008 239.214, 330.017 239.617, 320.025 240.020, 310.033 240.422, 300.068 240.372, 298.808 240.193, 297.863 239.848, 296.985 239.357, 296.178 238.738, 295.444 238.012, 294.788 237.197, 294.213 236.313, 293.724 235.380, 293.323 234.417, 293.014 233.443, 292.802 232.478, 292.689 231.542, 292.680 221.554, 293.161 211.565, 293.642 201.577, 294.122 198.491, 294.271 190.662, 294.622 183.019, 294.918 175.499, 295.171 168.038, 295.394 160.569, 295.598 153.028, 295.797 145.349, 296.002 137.467, 296.225 129.315, 296.480 120.827, 296.778 111.935, 297.133 102.574, 297.556 101.049, 297.675 99.541, 297.886 98.075, 298.188 96.675, 298.579 95.365, 299.058 94.171, 299.624 93.117, 300.276 92.227, 301.012 91.526, 301.831 91.039, 302.732 87.873, 312.217 84.707, 321.703 81.541, 331.188 78.374, 340.674 75.208, 350.159 73.007, 356.753 72.737, 357.823 72.757, 358.977 73.162, 360.451 73.893, 361.771 74.907, 362.945 76.162, 363.979 77.615, 364.881 79.222, 365.659 80.943, 366.321 82.733, 366.873 84.551, 367.323 86.354, 367.680 88.101, 367.949 89.748, 368.139 98.818, 368.864 107.396, 369.893 115.509, 371.205 123.183, 372.780 130.447, 374.595 137.327, 376.631 143.850, 378.867 150.044, 381.283 155.934, 383.858 161.550, 386.573 166.916, 389.406 172.061, 392.338 179.906, 397.146 187.640, 402.193 195.282, 407.443 202.849, 412.861 210.360, 418.411 217.834, 424.059 225.289, 429.771 232.743, 435.513 239.073, 440.375 240.216, 441.253 247.726, 446.958 255.291, 452.595 262.931, 458.135 264.133, 459.079 265.136, 460.085 265.940, 461.145 266.545, 462.254 266.951, 463.406 267.157, 464.594 " />
            <path fill="none" stroke-width="3.0" stroke-linecap="butt" stroke-opacity="1.0" stroke="rgb(0, 0, 0)" stroke-linejoin="miter" d=" M 326.891, 371.034 327.558, 381.012 328.226, 390.990 328.893, 400.967 329.561, 410.945 329.929, 416.448 329.955, 417.492 329.889, 418.428 329.738, 419.260 329.508, 419.992 329.206, 420.628 328.838, 421.172 328.410, 421.628 327.928, 422.000 327.398, 422.291 326.828, 422.506 326.222, 422.648 325.587, 422.721 324.837, 422.718 324.088, 422.618 323.334, 422.428 322.563, 422.150 321.769, 421.791 320.942, 421.354 320.074, 420.845 319.155, 420.267 318.176, 419.626 317.130, 418.925 316.006, 418.170 314.797, 417.366 307.297, 410.752 299.797, 404.138 292.297, 397.523 284.796, 390.909 277.296, 384.295 269.796, 377.681 262.296, 371.066 254.796, 364.452 247.296, 357.838 239.796, 351.224 238.408, 350.000 " />
            <path fill="none" stroke-width="3.0" stroke-linecap="butt" stroke-opacity="1.0" stroke="rgb(0, 0, 0)" stroke-linejoin="miter" d=" M 335.216, 500.120 335.354, 505.783 335.444, 511.443 335.435, 514.742 335.315, 517.687 335.018, 520.321 334.477, 522.687 333.624, 524.827 332.394, 526.784 330.719, 528.600 328.533, 530.317 325.768, 531.976 322.358, 533.618 318.235, 535.286 313.331, 537.020 312.102, 537.484 310.877, 537.958 309.678, 538.454 308.524, 538.982 307.438, 539.551 306.440, 540.172 305.553, 540.855 304.796, 541.610 304.192, 542.446 303.761, 543.373 303.525, 544.402 303.504, 545.543 304.071, 555.527 304.638, 565.510 305.205, 575.494 305.772, 585.478 306.339, 595.462 306.906, 605.446 307.473, 615.430 307.569, 617.117 307.783, 618.066 308.251, 618.939 308.944, 619.733 309.836, 620.444 310.899, 621.070 312.106, 621.607 313.428, 622.051 314.840, 622.401 316.312, 622.651 317.820, 622.800 319.334, 622.844 320.829, 622.781 327.865, 622.151 334.466, 621.447 340.674, 620.687 346.528, 619.890 352.066, 619.076 357.327, 618.262 362.349, 617.467 367.171, 616.711 371.829, 616.012 376.361, 615.389 380.804, 614.861 385.194, 614.446 389.614, 614.168 393.941, 614.034 398.247, 614.011 402.603, 614.064 407.081, 614.162 411.752, 614.271 416.687, 614.358 421.956, 614.390 427.629, 614.335 433.777, 614.159 440.471, 613.831 447.779, 613.318 449.137, 613.137 450.533, 612.819 451.939, 612.379 453.322, 611.831 454.653, 611.190 455.902, 610.470 457.039, 609.686 458.033, 608.852 458.854, 607.983 459.471, 607.094 459.855, 606.199 459.973, 605.312 459.860, 604.188 457.474, 594.476 455.088, 584.765 452.702, 575.054 450.317, 565.343 447.931, 555.632 445.545, 545.920 443.159, 536.209 442.782, 534.676 442.526, 533.709 442.125, 532.825 441.582, 532.024 440.900, 531.303 440.082, 530.662 439.129, 530.100 438.046, 529.614 436.835, 529.203 435.498, 528.867 434.038, 528.603 432.457, 528.410 427.574, 527.820 423.349, 527.117 419.735, 526.267 418.903, 525.987 " />
            <path fill="none" stroke-width="3.0" stroke-linecap="butt" stroke-opacity="1.0" stroke="rgb(0, 0, 0)" stroke-linejoin="miter" d=" M 239.073, 440.375 232.707, 448.086 226.340, 455.798 219.974, 463.510 213.608, 471.221 207.241, 478.933 200.875, 486.645 194.508, 494.356 188.142, 502.068 181.776, 509.780 175.409, 517.491 170.902, 522.951 168.604, 525.659 166.241, 528.287 163.774, 530.834 161.164, 533.302 158.372, 535.690 155.357, 538.000 152.081, 540.232 148.504, 542.386 144.586, 544.464 140.288, 546.465 135.569, 548.391 130.389, 550.243 129.088, 550.718 127.701, 551.211 126.270, 551.732 124.834, 552.288 123.435, 552.888 122.114, 553.543 120.910, 554.259 119.865, 555.047 119.020, 555.915 118.415, 556.872 118.090, 557.925 116.253, 567.755 114.417, 577.585 112.580, 587.415 110.743, 597.245 108.906, 607.075 107.069, 616.905 105.233, 626.734 104.221, 632.147 104.224, 633.389 104.508, 634.360 105.061, 635.266 105.879, 636.100 106.960, 636.853 108.299, 637.518 109.895, 638.086 111.743, 638.549 113.840, 638.899 116.184, 639.128 118.771, 639.228 121.599, 639.191 124.664, 639.009 131.853, 638.374 139.040, 637.641 146.231, 636.829 153.429, 635.959 160.640, 635.050 167.867, 634.120 175.116, 633.188 182.389, 632.275 189.690, 631.398 197.024, 630.578 204.392, 629.833 211.799, 629.182 217.394, 628.771 222.827, 628.442 228.125, 628.180 233.315, 627.968 238.424, 627.789 243.482, 627.628 248.514, 627.469 253.549, 627.296 258.615, 627.092 263.737, 626.843 268.944, 626.531 274.264, 626.141 275.192, 626.017 276.131, 625.798 277.061, 625.488 277.965, 625.093 278.823, 624.620 279.617, 624.073 280.328, 623.458 280.938, 622.782 281.427, 622.048 281.778, 621.263 281.971, 620.432 281.987, 619.562 281.731, 609.565 281.475, 599.568 281.219, 589.572 280.962, 579.575 280.706, 569.578 280.441, 559.250 " />
            <path fill="none" stroke-width="3.0" stroke-linecap="butt" stroke-opacity="1.0" stroke="rgb(0, 0, 0)" stroke-linejoin="miter" d=" M 452.298, 336.161 451.834, 335.299 451.230, 334.518 450.507, 333.819 449.685, 333.208 448.785, 332.688 447.826, 332.264 446.828, 331.938 445.814, 331.716 444.802, 331.600 443.813, 331.595 438.266, 331.934 432.351, 332.375 426.148, 332.896 419.737, 333.477 413.198, 334.097 406.611, 334.737 400.058, 335.375 393.620, 335.991 387.377, 336.564 381.411, 337.074 375.804, 337.500 370.638, 337.821 365.499, 338.057 359.746, 338.261 353.494, 338.439 346.855, 338.598 339.945, 338.745 332.876, 338.886 325.766, 339.030 325.239, 339.042 324.751, 339.052 318.731, 339.183 311.887, 339.351 305.353, 339.542 299.247, 339.763 293.689, 340.020 292.486, 340.133 291.377, 340.340 290.366, 340.640 289.456, 341.034 288.651, 341.521 287.955, 342.101 287.370, 342.773 286.901, 343.538 286.551, 344.394 286.324, 345.343 286.222, 346.382 286.249, 347.512 " />
            <path fill="none" stroke-width="3.0" stroke-linecap="butt" stroke-opacity="1.0" stroke="rgb(0, 0, 0)" stroke-linejoin="miter" d=" M 238.292, 352.882 238.236, 351.513 238.038, 350.487 237.656, 349.535 237.384, 349.097 237.113, 348.660 236.429, 347.866 235.626, 347.158 234.725, 346.538 234.100, 346.200 233.748, 346.011 232.717, 345.581 231.652, 345.252 230.576, 345.027 229.509, 344.911 228.475, 344.907 218.489, 345.438 210.855, 345.843 200.869, 346.374 191.939, 346.849 183.280, 347.281 174.827, 347.652 166.508, 347.976 158.252, 348.266 149.986, 348.537 141.639, 348.801 133.139, 349.074 124.412, 349.368 115.384, 349.698 105.983, 350.078 96.134, 350.521 86.147, 351.023 85.763, 351.042 84.074, 351.182 82.404, 351.422 80.780, 351.760 79.230, 352.195 77.781, 352.725 76.461, 353.349 75.296, 354.065 74.314, 354.873 73.542, 355.769 73.007, 356.753 " />
            <path fill="none" stroke-width="3.0" stroke-linecap="butt" stroke-opacity="1.0" stroke="rgb(0, 0, 0)" stroke-linejoin="miter" d=" M 330.332, 382.133 330.729, 386.441 331.388, 396.419 332.046, 406.397 332.705, 416.375 333.364, 426.354 334.023, 436.332 334.681, 446.310 335.340, 456.289 335.999, 466.267 336.658, 476.245 336.789, 478.233 336.815, 479.358 336.740, 480.367 336.573, 481.265 336.414, 481.759 336.319, 482.056 335.986, 482.744 335.580, 483.334 335.108, 483.829 334.609, 484.210 334.578, 484.234 333.996, 484.552 333.369, 484.788 332.703, 484.946 332.006, 485.029 331.182, 485.032 330.360, 484.930 329.531, 484.731 328.686, 484.438 327.815, 484.057 326.907, 483.593 325.954, 483.051 324.945, 482.435 323.872, 481.752 322.724, 481.005 321.491, 480.200 320.164, 479.342 312.580, 472.824 304.996, 466.305 297.413, 459.787 289.829, 453.269 282.245, 446.750 274.662, 440.232 266.864, 433.530 259.280, 427.011 253.913, 422.398 246.330, 415.880 238.746, 409.362 231.163, 402.843 223.579, 396.325 219.041, 392.424 217.561, 391.138 216.154, 389.882 214.830, 388.656 213.596, 387.457 212.461, 386.283 211.435, 385.133 210.526, 384.005 209.743, 382.895 209.094, 381.803 208.589, 380.727 208.235, 379.663 208.043, 378.611 208.033, 377.002 " />
            <path fill="none" stroke-width="3.0" stroke-linecap="butt" stroke-opacity="1.0" stroke="rgb(0, 0, 0)" stroke-linejoin="miter" d=" M 267.157, 464.594 267.163, 465.813 266.969, 467.056 266.575, 468.317 265.980, 469.590 265.183, 470.870 264.184, 472.150 257.768, 479.820 251.351, 487.490 244.934, 495.159 238.518, 502.829 232.101, 510.499 225.684, 518.169 219.268, 525.839 212.851, 533.509 206.434, 541.178 200.018, 548.848 193.601, 556.518 187.184, 564.188 180.768, 571.858 174.351, 579.528 167.934, 587.197 162.118, 594.149 159.601, 597.076 157.013, 599.917 154.311, 602.672 151.452, 605.343 148.392, 607.931 145.088, 610.436 141.497, 612.859 137.575, 615.203 133.278, 617.467 128.563, 619.654 123.385, 621.763 117.701, 623.797 116.273, 624.318 114.752, 624.860 113.181, 625.431 111.606, 626.041 110.071, 626.698 108.622, 627.412 107.302, 628.192 106.158, 629.046 105.233, 629.984 104.573, 631.015 104.221, 632.147 " />
            <path fill="none" stroke-width="3.0" stroke-linecap="butt" stroke-opacity="1.0" stroke="rgb(0, 0, 0)" stroke-linejoin="miter" d=" M 250.990, 600.534 251.062, 599.489 251.245, 598.415 251.537, 597.311 251.937, 596.176 252.443, 595.007 253.054, 593.804 253.767, 592.566 254.582, 591.291 255.496, 589.978 256.508, 588.625 257.617, 587.232 263.938, 579.483 270.258, 571.733 276.579, 563.984 280.441, 559.250 286.762, 551.501 293.083, 543.751 299.404, 536.002 305.724, 528.253 312.045, 520.504 318.366, 512.755 322.649, 507.504 323.621, 506.319 324.581, 505.240 325.529, 504.265 326.464, 503.392 327.388, 502.620 328.298, 501.948 329.197, 501.375 330.082, 500.899 330.954, 500.519 331.812, 500.233 332.658, 500.039 333.489, 499.938 334.188, 499.934 334.867, 500.023 335.216, 500.120 335.519, 500.205 336.138, 500.482 336.717, 500.857 337.250, 501.331 337.730, 501.906 338.151, 502.584 338.507, 503.367 338.791, 504.256 338.997, 505.253 " />
            <path fill="none" stroke-width="3.0" stroke-linecap="butt" stroke-opacity="1.0" stroke="rgb(0, 0, 0)" stroke-linejoin="miter" d=" M 338.997, 505.253 339.118, 506.360 339.533, 512.680 339.941, 518.959 340.337, 525.202 340.716, 531.411 341.073, 537.591 341.405, 543.745 341.707, 549.875 341.974, 555.987 342.201, 562.082 342.386, 568.164 342.522, 574.238 342.606, 580.304 342.588, 583.840 342.450, 586.997 342.118, 589.821 341.519, 592.360 340.581, 594.661 339.229, 596.768 337.392, 598.728 334.995, 600.586 331.965, 602.387 328.229, 604.177 323.712, 606.001 318.340, 607.904 316.994, 608.411 315.653, 608.931 314.338, 609.473 313.075, 610.049 311.885, 610.668 310.791, 611.342 309.819, 612.081 308.989, 612.896 308.326, 613.796 307.853, 614.793 307.593, 615.896 307.569, 617.117 " />
            <path fill="none" stroke-width="3.0" stroke-linecap="butt" stroke-opacity="1.0" stroke="rgb(0, 0, 0)" stroke-linejoin="miter" d=" M 459.860, 604.188 459.586, 603.156 459.154, 602.215 458.566, 601.363 457.826, 600.599 456.936, 599.922 455.900, 599.329 454.721, 598.819 453.400, 598.391 451.942, 598.044 450.349, 597.775 448.625, 597.583 443.295, 596.998 438.684, 596.284 434.741, 595.409 431.415, 594.339 428.656, 593.040 426.412, 591.480 424.631, 589.625 423.261, 587.440 422.250, 584.890 421.546, 581.942 " />
            <path fill="none" stroke-width="3.0" stroke-linecap="butt" stroke-opacity="1.0" stroke="rgb(0, 0, 0)" stroke-linejoin="miter" d=" M 281.987, 619.562 281.820, 618.422 281.530, 617.373 281.118, 616.413 280.589, 615.541 279.945, 614.755 279.190, 614.054 278.325, 613.436 277.355, 612.899 276.282, 612.442 275.109, 612.064 273.839, 611.763 272.476, 611.537 269.123, 611.168 266.080, 610.708 263.339, 610.160 260.893, 609.525 258.733, 608.806 256.854, 608.003 255.246, 607.119 253.904, 606.156 252.819, 605.116 251.983, 604.000 251.390, 602.811 251.032, 601.551 250.990, 600.534 " />
        </g>
    </g>
</svg>
