<?xml version='1.0' encoding='ascii'?>
<svg xmlns="http://www.w3.org/2000/svg" version="1.1" width="1080" height="1080">
    <g id="View Layer_LineSet" xmlns:inkscape="http://www.inkscape.org/namespaces/inkscape" inkscape:groupmode="lineset" inkscape:label="View Layer_LineSet">
        <g xmlns:inkscape="http://www.inkscape.org/namespaces/inkscape" inkscape:groupmode="layer" id="strokes" inkscape:label="strokes">
            <path fill="none" stroke-width="3.0" stroke-linecap="butt" stroke-opacity="1.0" stroke="rgb(0, 0, 0)" stroke-linejoin="miter" d=" M 426.520, 585.551 425.823, 582.614 425.380, 579.236 425.139, 575.382 424.754, 565.389 424.369, 555.397 423.984, 545.404 423.937, 544.182 423.552, 534.190 423.331, 528.471 422.946, 518.479 422.561, 508.486 422.176, 498.493 421.791, 488.501 421.406, 478.508 421.021, 468.516 420.636, 458.523 420.251, 448.530 419.866, 438.538 419.481, 428.545 419.096, 418.553 418.711, 408.560 418.326, 398.568 417.941, 388.575 417.679, 381.773 417.639, 377.159 417.924, 373.050 418.579, 369.397 419.647, 366.153 421.173, 363.266 423.199, 360.687 425.768, 358.363 428.923, 356.245 432.707, 354.280 437.161, 352.415 442.327, 350.600 448.246, 348.781 449.621, 348.297 450.892, 347.742 452.053, 347.115 453.103, 346.413 454.038, 345.636 454.854, 344.782 455.548, 343.850 456.118, 342.838 456.559, 341.744 456.868, 340.567 457.041, 339.306 457.076, 337.958 456.953, 336.950 456.652, 336.018 452.029, 327.150 447.406, 318.283 442.784, 309.416 438.161, 300.548 433.538, 291.681 430.646, 286.133 430.221, 285.343 429.670, 284.626 429.012, 283.988 428.265, 283.431 427.447, 282.959 426.577, 282.575 425.674, 282.283 424.755, 282.086 423.839, 281.987 422.944, 281.990 417.929, 282.346 412.580, 282.799 406.970, 283.328 401.171, 283.914 395.254, 284.538 389.294, 285.180 383.362, 285.820 377.532, 286.439 371.878, 287.018 366.474, 287.536 361.393, 287.973 356.711, 288.311 352.051, 288.570 346.835, 288.803 341.164, 289.017 335.141, 289.217 328.870, 289.408 322.454, 289.595 315.999, 289.784 309.610, 289.981 303.394, 290.191 297.458, 290.420 291.910, 290.672 286.858, 290.955 285.764, 291.069 284.757, 291.269 283.838, 291.555 283.012, 291.927 282.281, 292.383 281.649, 292.925 281.119, 293.552 280.694, 294.263 280.377, 295.058 280.172, 295.937 280.081, 296.899 280.108, 297.944 280.280, 299.273 282.336, 309.059 284.393, 318.845 286.449, 328.632 288.506, 338.418 290.562, 348.204 291.259, 351.520 291.573, 352.789 292.014, 353.899 292.580, 354.867 293.269, 355.708 294.077, 356.436 295.002, 357.066 296.042, 357.614 297.195, 358.095 298.458, 358.523 299.828, 358.914 301.304, 359.282 307.816, 360.669 313.439, 362.087 318.244, 363.586 322.297, 365.214 322.817, 365.492 325.665, 367.016 328.414, 369.041 330.609, 371.334 332.316, 373.943 333.598, 376.911 " />
            <path fill="none" stroke-width="3.0" stroke-linecap="butt" stroke-opacity="1.0" stroke="rgb(0, 0, 0)" stroke-linejoin="miter" d=" M 212.491, 382.693 212.483, 381.072 212.800, 379.486 213.444, 377.938 214.417, 376.429 215.721, 374.960 217.357, 373.534 219.329, 372.152 220.394, 371.536 221.637, 370.817 224.283, 369.530 227.269, 368.292 230.595, 367.106 234.263, 365.973 235.689, 365.475 236.999, 364.905 238.188, 364.260 239.253, 363.541 240.192, 362.745 240.999, 361.871 241.672, 360.916 242.065, 360.157 242.208, 359.881 242.601, 358.762 242.849, 357.559 242.948, 356.269 242.894, 354.892 241.677, 344.966 240.459, 335.041 239.242, 325.115 238.025, 315.190 236.807, 305.264 236.412, 302.038 236.230, 301.090 235.882, 300.211 235.387, 299.405 234.763, 298.676 234.032, 298.026 233.211, 297.460 232.321, 296.980 231.381, 296.590 230.411, 296.294 229.430, 296.094 228.459, 295.995 227.516, 296.000 217.536, 296.628 207.556, 297.255 197.575, 297.883 194.209, 298.094 186.309, 298.565 178.595, 298.978 171.001, 299.346 163.461, 299.682 155.912, 300.000 148.286, 300.314 140.517, 300.636 132.539, 300.980 124.284, 301.360 115.684, 301.789 106.671, 302.281 97.177, 302.850 95.630, 302.994 94.100, 303.230 92.612, 303.557 91.192, 303.974 89.863, 304.478 88.652, 305.068 87.582, 305.743 86.680, 306.501 85.969, 307.340 85.476, 308.258 85.223, 309.254 83.523, 319.109 81.823, 328.963 80.123, 338.818 78.422, 348.672 76.722, 358.526 75.773, 364.026 75.792, 365.193 76.201, 366.677 76.940, 368.000 77.968, 369.170 79.239, 370.194 80.712, 371.082 82.341, 371.842 84.085, 372.481 85.900, 373.009 87.743, 373.433 89.571, 373.762 91.341, 374.005 93.011, 374.168 102.201, 374.746 110.888, 375.638 119.099, 376.824 126.863, 378.281 134.208, 379.989 141.160, 381.925 147.750, 384.069 154.003, 386.399 159.949, 388.895 165.614, 391.534 171.026, 394.298 176.213, 397.164 184.118, 401.873 191.908, 406.822 199.600, 411.975 207.214, 417.296 214.769, 422.750 222.282, 428.300 229.773, 433.913 237.260, 439.554 238.575, 440.542 244.762, 445.190 252.299, 450.787 259.888, 456.313 267.548, 461.737 268.753, 462.663 269.758, 463.655 270.563, 464.706 271.169, 465.810 271.575, 466.960 271.780, 468.151 " />
            <path fill="none" stroke-width="3.0" stroke-linecap="butt" stroke-opacity="1.0" stroke="rgb(0, 0, 0)" stroke-linejoin="miter" d=" M 322.817, 365.492 323.496, 375.469 324.175, 385.446 324.854, 395.423 325.533, 405.400 326.212, 415.377 326.448, 418.833 326.475, 419.881 326.410, 420.822 326.260, 421.660 326.031, 422.399 325.730, 423.044 325.362, 423.597 324.934, 424.063 324.451, 424.446 323.922, 424.748 323.351, 424.975 322.744, 425.128 322.109, 425.213 321.357, 425.224 320.608, 425.138 319.852, 424.961 319.080, 424.696 318.284, 424.350 317.455, 423.927 316.585, 423.431 315.663, 422.868 314.682, 422.242 313.633, 421.557 312.507, 420.820 311.294, 420.034 303.730, 413.492 296.167, 406.950 288.603, 400.409 281.040, 393.867 273.477, 387.325 265.913, 380.783 258.350, 374.242 250.786, 367.700 243.223, 361.158 242.065, 360.157 " />
            <path fill="none" stroke-width="3.0" stroke-linecap="butt" stroke-opacity="1.0" stroke="rgb(0, 0, 0)" stroke-linejoin="miter" d=" M 331.912, 505.257 331.994, 508.444 332.091, 514.126 332.086, 517.440 331.971, 520.400 331.677, 523.051 331.138, 525.439 330.287, 527.607 329.058, 529.600 327.384, 531.460 325.198, 533.232 322.431, 534.958 319.018, 536.683 314.890, 538.449 309.978, 540.300 308.747, 540.792 307.521, 541.297 306.319, 541.822 305.163, 542.378 304.075, 542.974 303.076, 543.620 302.187, 544.326 301.429, 545.101 300.824, 545.955 300.393, 546.897 300.158, 547.937 300.139, 549.084 301.785, 558.947 303.431, 568.811 305.078, 578.674 306.724, 588.538 308.371, 598.401 310.017, 608.265 311.663, 618.128 312.078, 620.610 312.291, 621.559 312.757, 622.425 313.451, 623.206 314.342, 623.899 315.406, 624.501 316.612, 625.011 317.935, 625.426 319.347, 625.742 320.820, 625.958 322.328, 626.071 323.843, 626.078 325.338, 625.977 332.374, 625.172 338.974, 624.304 345.178, 623.389 351.025, 622.447 356.556, 621.495 361.809, 620.550 366.821, 619.631 371.632, 618.755 376.279, 617.941 380.798, 617.207 385.227, 616.569 389.603, 616.047 394.006, 615.662 398.316, 615.423 402.604, 615.296 406.941, 615.244 411.397, 615.234 416.045, 615.231 420.953, 615.199 426.192, 615.104 431.832, 614.912 437.942, 614.589 444.591, 614.099 451.849, 613.409 453.197, 613.196 454.583, 612.844 455.979, 612.370 457.352, 611.789 458.674, 611.115 459.914, 610.365 461.043, 609.553 462.030, 608.695 462.846, 607.806 463.459, 606.902 463.840, 605.997 463.959, 605.106 463.848, 603.985 463.577, 602.959 460.208, 593.544 456.839, 584.128 453.469, 574.713 450.100, 565.298 446.731, 555.882 443.362, 546.467 439.992, 537.052 438.954, 534.151 438.554, 533.275 438.013, 532.485 437.334, 531.778 436.519, 531.154 435.571, 530.611 434.493, 530.148 433.288, 529.764 431.957, 529.456 430.504, 529.223 428.931, 529.064 424.070, 528.579 423.331, 528.471 " />
            <path fill="none" stroke-width="3.0" stroke-linecap="butt" stroke-opacity="1.0" stroke="rgb(0, 0, 0)" stroke-linejoin="miter" d=" M 238.575, 440.542 232.276, 448.308 225.976, 456.075 219.677, 463.841 213.378, 471.608 207.078, 479.374 200.779, 487.141 194.480, 494.907 188.180, 502.674 181.881, 510.440 175.582, 518.207 169.283, 525.973 166.625, 529.250 164.305, 532.033 161.920, 534.737 159.429, 537.363 156.793, 539.911 153.972, 542.384 150.926, 544.783 147.614, 547.109 143.997, 549.365 140.034, 551.551 135.685, 553.670 130.909, 555.722 125.664, 557.710 124.346, 558.219 122.942, 558.749 121.492, 559.307 120.038, 559.902 118.621, 560.541 117.282, 561.232 116.063, 561.984 115.005, 562.804 114.149, 563.701 113.537, 564.682 113.209, 565.754 112.422, 575.723 111.636, 585.692 110.849, 595.661 110.062, 605.630 109.275, 615.599 108.489, 625.568 107.702, 635.537 107.288, 640.785 107.288, 642.041 107.575, 643.015 108.134, 643.918 108.961, 644.740 110.055, 645.475 111.410, 646.113 113.025, 646.646 114.896, 647.068 117.019, 647.368 119.392, 647.541 122.011, 647.576 124.873, 647.468 127.975, 647.207 135.248, 646.383 142.517, 645.461 149.786, 644.461 157.060, 643.402 164.344, 642.302 171.641, 641.182 178.956, 640.061 186.293, 638.958 193.656, 637.892 201.047, 636.882 208.470, 635.947 215.928, 635.107 221.561, 634.554 227.027, 634.088 232.356, 633.692 237.575, 633.350 242.711, 633.044 247.794, 632.757 252.850, 632.472 257.907, 632.173 262.992, 631.843 268.134, 631.465 273.360, 631.023 278.696, 630.499 279.627, 630.352 280.569, 630.108 281.502, 629.773 282.408, 629.354 283.269, 628.857 284.066, 628.288 284.780, 627.652 285.392, 626.956 285.884, 626.206 286.237, 625.408 286.431, 624.568 286.449, 623.692 285.107, 613.782 283.765, 603.873 282.424, 593.963 281.082, 584.054 279.740, 574.144 279.216, 570.276 " />
            <path fill="none" stroke-width="3.0" stroke-linecap="butt" stroke-opacity="1.0" stroke="rgb(0, 0, 0)" stroke-linejoin="miter" d=" M 456.652, 336.018 456.192, 335.163 455.594, 334.391 454.878, 333.703 454.063, 333.105 453.170, 332.600 452.218, 332.190 451.229, 331.880 450.222, 331.673 449.218, 331.573 448.236, 331.584 442.728, 332.011 436.853, 332.545 430.689, 333.165 424.316, 333.848 417.814, 334.573 411.262, 335.318 404.740, 336.061 398.330, 336.781 392.113, 337.455 386.169, 338.061 380.581, 338.578 375.431, 338.982 370.306, 339.302 364.568, 339.598 358.329, 339.877 351.702, 340.143 344.801, 340.401 337.740, 340.657 330.634, 340.915 323.819, 341.174 323.599, 341.182 321.169, 341.281 316.754, 341.461 310.215, 341.758 304.103, 342.078 298.537, 342.427 297.332, 342.560 296.221, 342.786 295.208, 343.104 294.296, 343.515 293.489, 344.017 292.790, 344.611 292.204, 345.296 291.733, 346.072 291.381, 346.939 291.152, 347.896 291.048, 348.942 291.074, 350.078 291.259, 351.520 " />
            <path fill="none" stroke-width="3.0" stroke-linecap="butt" stroke-opacity="1.0" stroke="rgb(0, 0, 0)" stroke-linejoin="miter" d=" M 242.894, 354.892 242.696, 353.863 242.314, 352.911 241.769, 352.039 241.082, 351.251 240.276, 350.551 239.372, 349.942 238.391, 349.428 237.355, 349.012 236.285, 348.697 235.203, 348.489 234.132, 348.389 233.092, 348.402 228.818, 348.699 218.842, 349.393 210.358, 349.982 200.382, 350.675 196.316, 350.958 187.590, 351.536 179.066, 352.049 170.673, 352.513 162.339, 352.943 153.992, 353.352 145.559, 353.758 136.966, 354.174 128.140, 354.615 119.005, 355.099 109.487, 355.638 99.509, 356.250 89.531, 356.915 88.996, 356.950 87.283, 357.120 85.589, 357.390 83.942, 357.759 82.369, 358.225 80.899, 358.785 79.559, 359.438 78.376, 360.182 77.378, 361.015 76.594, 361.935 76.050, 362.939 75.773, 364.026 " />
            <path fill="none" stroke-width="3.0" stroke-linecap="butt" stroke-opacity="1.0" stroke="rgb(0, 0, 0)" stroke-linejoin="miter" d=" M 333.598, 376.911 334.519, 380.286 335.143, 384.110 335.534, 388.428 336.178, 398.407 336.822, 408.387 337.466, 418.366 338.110, 428.345 338.754, 438.324 339.399, 448.304 340.043, 458.283 340.687, 468.262 341.331, 478.241 341.474, 480.462 341.498, 481.591 341.423, 482.605 341.254, 483.510 341.000, 484.309 340.666, 485.007 340.260, 485.607 339.788, 486.114 339.258, 486.531 338.754, 486.818 338.676, 486.862 338.049, 487.112 337.383, 487.284 336.687, 487.382 335.863, 487.401 335.041, 487.316 334.213, 487.133 333.369, 486.856 332.498, 486.491 331.591, 486.044 331.175, 485.814 330.639, 485.519 329.632, 484.921 328.559, 484.256 327.412, 483.530 326.180, 482.746 324.854, 481.912 317.212, 475.462 309.569, 469.013 301.927, 462.564 294.284, 456.115 286.642, 449.665 278.999, 443.216 271.357, 436.767 266.658, 432.801 259.016, 426.352 253.713, 421.878 246.071, 415.428 238.428, 408.979 230.786, 402.530 223.539, 396.415 222.052, 395.145 220.639, 393.905 219.308, 392.693 218.068, 391.507 216.928, 390.345 215.897, 389.205 214.983, 388.083 214.196, 386.979 213.545, 385.891 213.038, 384.815 212.683, 383.750 212.491, 382.693 " />
            <path fill="none" stroke-width="3.0" stroke-linecap="butt" stroke-opacity="1.0" stroke="rgb(0, 0, 0)" stroke-linejoin="miter" d=" M 271.780, 468.151 271.785, 469.377 271.588, 470.631 271.191, 471.907 270.592, 473.200 269.791, 474.504 268.787, 475.811 262.437, 483.536 256.087, 491.262 249.737, 498.987 243.387, 506.712 237.037, 514.437 230.687, 522.162 224.337, 529.887 217.987, 537.612 211.637, 545.337 205.287, 553.062 198.937, 560.787 192.587, 568.512 186.237, 576.237 179.887, 583.962 173.536, 591.687 167.186, 599.413 165.894, 600.984 163.349, 603.999 160.731, 606.928 157.998, 609.775 155.106, 612.540 152.011, 615.227 148.669, 617.837 145.036, 620.372 141.068, 622.835 136.720, 625.228 131.948, 627.553 126.706, 629.812 120.950, 632.008 119.504, 632.571 117.963, 633.156 116.372, 633.773 114.776, 634.428 113.221, 635.131 111.752, 635.888 110.414, 636.709 109.254, 637.602 108.316, 638.573 107.645, 639.632 107.288, 640.785 " />
            <path fill="none" stroke-width="3.0" stroke-linecap="butt" stroke-opacity="1.0" stroke="rgb(0, 0, 0)" stroke-linejoin="miter" d=" M 255.413, 606.319 255.373, 605.296 255.446, 604.243 255.631, 603.158 255.925, 602.039 256.329, 600.887 256.839, 599.698 257.453, 598.473 258.171, 597.210 258.991, 595.907 259.911, 594.564 260.929, 593.179 262.044, 591.750 268.289, 583.940 274.535, 576.131 279.216, 570.276 285.462, 562.467 291.707, 554.657 297.953, 546.847 304.198, 539.037 310.444, 531.227 316.690, 523.418 322.935, 515.608 327.304, 510.145 328.277, 508.934 329.238, 507.830 330.187, 506.831 331.124, 505.935 331.912, 505.257 332.048, 505.140 332.959, 504.447 333.858, 503.852 334.743, 503.356 335.615, 502.956 336.474, 502.651 337.319, 502.439 338.150, 502.319 338.849, 502.301 339.527, 502.376 340.178, 502.545 340.796, 502.811 341.374, 503.175 341.906, 503.640 342.385, 504.207 342.805, 504.879 343.159, 505.657 343.442, 506.544 " />
            <path fill="none" stroke-width="3.0" stroke-linecap="butt" stroke-opacity="1.0" stroke="rgb(0, 0, 0)" stroke-linejoin="miter" d=" M 343.442, 506.544 343.646, 507.540 343.766, 508.649 344.173, 514.984 344.572, 521.279 344.960, 527.537 345.331, 533.763 345.680, 539.958 346.004, 546.128 346.297, 552.276 346.556, 558.405 346.776, 564.518 346.953, 570.620 347.081, 576.714 347.158, 582.802 347.136, 586.352 346.994, 589.524 346.658, 592.367 346.057, 594.930 345.117, 597.262 343.764, 599.409 341.926, 601.421 339.528, 603.344 336.498, 605.225 332.761, 607.112 328.242, 609.052 322.867, 611.092 321.520, 611.634 320.177, 612.188 318.862, 612.765 317.596, 613.374 316.405, 614.025 315.310, 614.729 314.336, 615.495 313.504, 616.333 312.840, 617.254 312.365, 618.268 312.103, 619.383 312.078, 620.610 " />
            <path fill="none" stroke-width="3.0" stroke-linecap="butt" stroke-opacity="1.0" stroke="rgb(0, 0, 0)" stroke-linejoin="miter" d=" M 463.577, 602.959 463.149, 602.028 462.567, 601.190 461.834, 600.443 460.952, 599.786 459.925, 599.217 458.755, 598.735 457.445, 598.338 455.998, 598.025 454.418, 597.793 452.706, 597.642 447.416, 597.182 442.837, 596.576 438.921, 595.792 435.618, 594.799 432.878, 593.564 430.649, 592.054 428.881, 590.237 427.522, 588.081 426.520, 585.551 " />
            <path fill="none" stroke-width="3.0" stroke-linecap="butt" stroke-opacity="1.0" stroke="rgb(0, 0, 0)" stroke-linejoin="miter" d=" M 286.449, 623.692 286.283, 622.550 285.993, 621.502 285.582, 620.547 285.053, 619.683 284.408, 618.908 283.651, 618.221 282.785, 617.620 281.813, 617.103 280.738, 616.670 279.562, 616.318 278.289, 616.045 276.922, 615.851 273.559, 615.561 270.507, 615.173 267.757, 614.688 265.302, 614.108 263.136, 613.436 261.250, 612.673 259.637, 611.822 258.291, 610.885 257.202, 609.864 256.365, 608.762 255.771, 607.579 255.413, 606.319 " />
        </g>
    </g>
</svg>
