<?xml version='1.0' encoding='ascii'?>
<svg xmlns="http://www.w3.org/2000/svg" version="1.1" width="1080" height="1080">
    <g id="View Layer_LineSet" xmlns:inkscape="http://www.inkscape.org/namespaces/inkscape" inkscape:groupmode="lineset" inkscape:label="View Layer_LineSet">
        <g xmlns:inkscape="http://www.inkscape.org/namespaces/inkscape" inkscape:groupmode="layer" id="strokes" inkscape:label="strokes">
            <path fill="none" stroke-width="3.0" stroke-linecap="butt" stroke-opacity="1.0" stroke="rgb(0, 0, 0)" stroke-linejoin="miter" d=" M 436.210, 589.047 435.233, 586.557 434.557, 583.644 434.130, 580.276 433.902, 576.422 433.546, 566.429 433.190, 556.435 432.835, 546.441 432.479, 536.448 432.458, 535.860 432.102, 525.866 431.746, 515.873 431.390, 505.879 431.035, 495.885 430.679, 485.892 430.323, 475.898 429.967, 465.904 429.611, 455.911 429.255, 445.917 428.900, 435.923 428.544, 425.930 428.188, 415.936 427.832, 405.942 427.476, 395.949 427.121, 385.955 427.001, 382.606 426.972, 377.982 427.260, 373.854 427.910, 370.171 428.964, 366.884 430.465, 363.940 432.456, 361.289 434.978, 358.877 438.073, 356.653 441.781, 354.562 446.143, 352.552 451.198, 350.569 456.986, 348.560 458.331, 348.032 459.573, 347.436 460.709, 346.771 461.736, 346.036 462.650, 345.230 463.448, 344.350 464.128, 343.395 464.686, 342.365 465.118, 341.257 465.422, 340.070 465.594, 338.803 465.631, 337.454 465.513, 336.451 465.221, 335.527 464.775, 334.687 464.192, 333.933 457.640, 326.379 451.087, 318.825 444.535, 311.271 437.982, 303.717 431.429, 296.163 424.877, 288.609 422.134, 285.447 421.485, 284.826 420.749, 284.289 419.943, 283.839 419.086, 283.479 418.196, 283.211 417.291, 283.039 416.390, 282.966 415.509, 282.994 410.573, 283.494 405.305, 284.099 399.777, 284.789 394.058, 285.542 388.220, 286.337 382.334, 287.151 376.473, 287.965 370.709, 288.754 365.114, 289.498 359.763, 290.174 354.730, 290.761 350.088, 291.235 345.466, 291.631 340.289, 292.017 334.656, 292.396 328.671, 292.772 322.433, 293.145 316.048, 293.520 309.618, 293.899 303.250, 294.283 297.049, 294.677 291.123, 295.080 285.582, 295.498 280.532, 295.931 279.439, 296.078 278.432, 296.310 277.514, 296.626 276.689, 297.025 275.959, 297.509 275.328, 298.075 274.799, 298.724 274.376, 299.455 274.061, 300.269 273.858, 301.163 273.770, 302.139 273.799, 303.195 273.975, 304.534 274.268, 305.708 274.675, 306.733 279.452, 315.519 284.229, 324.304 289.006, 333.089 293.783, 341.874 298.561, 350.659 302.962, 358.752 303.522, 359.711 304.205, 360.537 305.007, 361.245 305.925, 361.851 306.958, 362.370 308.103, 362.817 309.358, 363.208 310.719, 363.557 312.184, 363.880 316.239, 364.622 318.649, 365.063 324.228, 366.308 328.991, 367.660 333.005, 369.166 336.339, 370.870 339.058, 372.818 341.228, 375.056 342.911, 377.626 " />
            <path fill="none" stroke-width="3.0" stroke-linecap="butt" stroke-opacity="1.0" stroke="rgb(0, 0, 0)" stroke-linejoin="miter" d=" M 223.960, 392.710 223.607, 391.642 223.416, 390.577 223.413, 388.933 223.735, 387.313 223.878, 386.965 224.386, 385.720 225.366, 384.156 226.678, 382.621 228.325, 381.119 230.306, 379.651 232.625, 378.218 235.282, 376.823 238.278, 375.467 241.614, 374.153 243.237, 373.592 245.291, 372.881 246.720, 372.329 248.032, 371.707 249.224, 371.015 250.293, 370.250 251.234, 369.412 252.044, 368.500 252.720, 367.511 253.258, 366.444 253.655, 365.299 253.906, 364.072 254.008, 362.763 253.957, 361.370 253.761, 360.335 253.381, 359.383 249.236, 350.283 245.091, 341.182 240.946, 332.082 236.801, 322.981 232.656, 313.881 229.435, 306.809 228.934, 306.007 228.305, 305.286 227.567, 304.649 226.740, 304.099 225.843, 303.639 224.896, 303.272 223.919, 303.000 222.931, 302.827 221.953, 302.755 221.004, 302.789 211.047, 303.713 201.090, 304.638 191.133, 305.563 187.409, 305.909 179.421, 306.624 171.614, 307.276 163.921, 307.879 156.277, 308.449 148.616, 309.001 140.871, 309.551 132.973, 310.114 124.855, 310.707 116.447, 311.346 107.679, 312.046 98.481, 312.823 88.781, 313.695 87.200, 313.889 85.636, 314.177 84.115, 314.557 82.663, 315.027 81.305, 315.583 80.066, 316.224 78.973, 316.947 78.052, 317.750 77.326, 318.630 76.823, 319.584 76.567, 320.611 76.584, 321.707 78.096, 331.592 79.608, 341.477 81.120, 351.362 82.631, 361.247 84.143, 371.132 85.113, 377.471 85.525, 378.975 86.276, 380.303 87.321, 381.463 88.615, 382.466 90.114, 383.323 91.773, 384.043 93.549, 384.636 95.397, 385.113 97.273, 385.482 99.134, 385.755 100.937, 385.942 102.637, 386.051 111.987, 386.321 120.815, 386.930 129.151, 387.854 137.024, 389.070 144.464, 390.555 151.501, 392.285 158.164, 394.237 164.482, 396.390 170.484, 398.720 176.199, 401.205 181.654, 403.823 186.878, 406.552 194.833, 411.055 202.664, 415.802 210.390, 420.755 218.030, 425.877 225.603, 431.132 233.127, 436.481 238.975, 440.701 240.623, 441.890 248.109, 447.323 255.604, 452.746 263.126, 458.124 270.695, 463.423 278.329, 468.611 279.528, 469.501 280.528, 470.464 281.329, 471.496 281.931, 472.588 " />
            <path fill="none" stroke-width="3.0" stroke-linecap="butt" stroke-opacity="1.0" stroke="rgb(0, 0, 0)" stroke-linejoin="miter" d=" M 316.239, 364.622 316.938, 374.597 317.637, 384.573 318.337, 394.549 319.036, 404.524 319.735, 414.500 320.384, 423.754 320.414, 424.810 320.352, 425.761 320.206, 426.613 319.980, 427.367 319.681, 428.029 319.316, 428.600 318.891, 429.086 318.413, 429.490 317.886, 429.815 317.318, 430.064 316.714, 430.242 316.082, 430.351 315.333, 430.389 314.586, 430.331 313.833, 430.180 313.063, 429.941 312.269, 429.621 311.442, 429.225 310.573, 428.756 309.653, 428.222 308.674, 427.626 307.626, 426.974 306.501, 426.271 305.289, 425.522 297.620, 419.104 289.951, 412.686 282.283, 406.268 274.614, 399.850 266.945, 393.432 259.276, 387.015 251.607, 380.597 243.938, 374.179 243.237, 373.592 " />
            <path fill="none" stroke-width="3.0" stroke-linecap="butt" stroke-opacity="1.0" stroke="rgb(0, 0, 0)" stroke-linejoin="miter" d=" M 238.975, 440.701 232.834, 448.593 226.694, 456.486 220.553, 464.379 214.413, 472.271 208.272, 480.164 202.132, 488.057 195.991, 495.949 189.851, 503.842 183.710, 511.735 177.570, 519.627 171.429, 527.520 165.289, 535.413 160.080, 542.109 157.733, 545.046 155.319, 547.906 152.798, 550.692 150.128, 553.406 147.269, 556.053 144.180, 558.635 140.820, 561.156 137.147, 563.620 133.122, 566.029 128.700, 568.389 123.841, 570.701 118.502, 572.970 117.160, 573.551 115.730, 574.157 114.253, 574.793 112.771, 575.468 111.327, 576.185 109.963, 576.953 108.721, 577.778 107.643, 578.665 106.772, 579.620 106.149, 580.651 105.817, 581.762 105.819, 582.960 107.199, 592.864 108.579, 602.768 109.959, 612.673 111.339, 622.577 112.719, 632.481 114.099, 642.386 115.479, 652.290 116.429, 659.104 116.718, 660.085 117.284, 660.979 118.123, 661.777 119.233, 662.471 120.609, 663.054 122.249, 663.517 124.149, 663.851 126.305, 664.050 128.715, 664.105 131.374, 664.008 134.279, 663.751 137.428, 663.327 144.806, 662.116 152.173, 660.807 159.535, 659.419 166.895, 657.972 174.259, 656.485 181.631, 654.977 189.014, 653.468 196.413, 651.978 203.831, 650.526 211.271, 649.130 218.737, 647.811 226.232, 646.587 231.887, 645.746 237.372, 645.002 242.715, 644.337 247.945, 643.731 253.089, 643.167 258.175, 642.625 263.233, 642.087 268.288, 641.535 273.369, 640.950 278.503, 640.315 283.718, 639.610 289.040, 638.819 289.969, 638.624 290.907, 638.331 291.838, 637.947 292.743, 637.479 293.602, 636.934 294.397, 636.319 295.109, 635.641 295.721, 634.908 296.212, 634.126 296.565, 633.302 296.761, 632.443 296.781, 631.556 296.618, 630.410 296.332, 629.365 292.948, 619.955 289.563, 610.545 286.179, 601.135 282.794, 591.725 281.625, 588.475 " />
            <path fill="none" stroke-width="3.0" stroke-linecap="butt" stroke-opacity="1.0" stroke="rgb(0, 0, 0)" stroke-linejoin="miter" d=" M 325.304, 531.235 324.510, 533.336 323.292, 535.399 321.631, 537.349 319.459, 539.231 318.927, 539.591 " />
            <path fill="none" stroke-width="3.0" stroke-linecap="butt" stroke-opacity="1.0" stroke="rgb(0, 0, 0)" stroke-linejoin="miter" d=" M 464.192, 333.933 463.494, 333.268 462.700, 332.695 461.829, 332.217 460.901, 331.836 459.936, 331.557 458.953, 331.381 457.972, 331.312 457.013, 331.353 451.630, 331.951 445.883, 332.668 439.850, 333.479 433.608, 334.361 427.234, 335.290 420.807, 336.241 414.405, 337.190 408.107, 338.113 401.994, 338.985 396.147, 339.781 390.646, 340.475 385.573, 341.044 380.522, 341.527 374.863, 342.007 368.706, 342.484 362.162, 342.962 355.341, 343.441 348.356, 343.923 341.322, 344.410 334.352, 344.902 327.564, 345.402 323.919, 345.688 321.076, 345.911 315.006, 346.429 314.964, 346.433 309.474, 346.959 308.276, 347.132 307.171, 347.396 306.163, 347.750 305.255, 348.193 304.451, 348.726 303.755, 349.349 303.170, 350.059 302.700, 350.858 302.348, 351.745 302.118, 352.718 302.012, 353.778 302.035, 354.924 302.215, 356.374 302.525, 357.645 302.962, 358.752 " />
            <path fill="none" stroke-width="3.0" stroke-linecap="butt" stroke-opacity="1.0" stroke="rgb(0, 0, 0)" stroke-linejoin="miter" d=" M 253.381, 359.383 252.838, 358.518 252.154, 357.743 251.349, 357.060 250.445, 356.473 249.464, 355.984 248.428, 355.597 247.358, 355.314 246.275, 355.138 245.202, 355.072 244.161, 355.119 234.213, 356.142 224.266, 357.166 223.681, 357.226 213.733, 358.249 210.941, 358.537 207.243, 358.917 198.459, 359.792 189.870, 360.595 181.406, 361.345 172.993, 362.058 164.558, 362.752 156.028, 363.445 147.328, 364.155 138.382, 364.900 129.114, 365.699 119.446, 366.568 109.490, 367.510 109.300, 367.528 99.349, 368.522 98.595, 368.597 96.850, 368.828 95.123, 369.162 93.444, 369.594 91.839, 370.123 90.339, 370.746 88.970, 371.459 87.762, 372.260 86.742, 373.146 85.939, 374.113 85.382, 375.158 85.097, 376.279 85.113, 377.471 " />
            <path fill="none" stroke-width="3.0" stroke-linecap="butt" stroke-opacity="1.0" stroke="rgb(0, 0, 0)" stroke-linejoin="miter" d=" M 342.911, 377.626 344.174, 380.573 345.078, 383.941 345.687, 387.771 346.064, 392.107 346.676, 402.088 347.288, 412.070 347.900, 422.051 348.511, 432.032 349.123, 442.014 349.735, 451.995 350.347, 461.976 350.958, 471.957 351.570, 481.939 351.732, 484.586 351.754, 485.722 351.677, 486.747 351.508, 487.666 351.254, 488.481 350.922, 489.197 350.519, 489.818 350.051, 490.347 349.526, 490.788 348.949, 491.146 348.328, 491.423 347.669, 491.623 346.979, 491.750 346.163, 491.802 345.350, 491.750 344.531, 491.599 344.190, 491.499 343.695, 491.354 342.834, 491.022 341.937, 490.607 340.995, 490.116 339.999, 489.554 338.938, 488.927 337.802, 488.241 336.584, 487.501 335.271, 486.712 327.536, 480.374 324.526, 477.907 316.792, 471.569 309.057, 465.230 301.322, 458.892 293.588, 452.553 285.853, 446.215 278.119, 439.876 270.384, 433.538 262.874, 427.383 255.140, 421.045 254.588, 420.593 246.854, 414.255 239.119, 407.916 234.468, 404.105 232.980, 402.870 231.565, 401.663 230.233, 400.481 228.992, 399.322 227.851, 398.184 226.819, 397.063 225.905, 395.958 225.118, 394.866 224.467, 393.784 223.960, 392.710 " />
            <path fill="none" stroke-width="3.0" stroke-linecap="butt" stroke-opacity="1.0" stroke="rgb(0, 0, 0)" stroke-linejoin="miter" d=" M 281.931, 472.588 282.332, 473.735 282.534, 474.932 282.536, 476.171 282.337, 477.447 281.938, 478.754 281.337, 480.085 280.535, 481.435 279.531, 482.798 273.344, 490.654 267.157, 498.510 260.969, 506.367 254.782, 514.223 248.595, 522.079 242.408, 529.935 236.221, 537.791 230.034, 545.647 223.846, 553.503 217.659, 561.360 211.472, 569.216 205.285, 577.072 199.098, 584.928 192.911, 592.784 186.723, 600.640 180.536, 608.496 175.934, 614.340 173.354, 617.532 170.702, 620.641 167.932, 623.673 165.001, 626.630 161.863, 629.518 158.475, 632.341 154.791, 635.104 150.765, 637.810 146.354, 640.465 141.510, 643.074 136.187, 645.640 130.339, 648.169 128.869, 648.816 127.302, 649.491 125.684, 650.200 124.061, 650.950 122.479, 651.745 120.984, 652.593 119.622, 653.499 118.440, 654.469 117.483, 655.509 116.799, 656.624 116.432, 657.821 116.429, 659.104 " />
            <path fill="none" stroke-width="3.0" stroke-linecap="butt" stroke-opacity="1.0" stroke="rgb(0, 0, 0)" stroke-linejoin="miter" d=" M 266.213, 616.732 265.858, 615.473 265.821, 614.439 265.897, 613.369 266.084, 612.261 266.381, 611.115 266.787, 609.928 267.300, 608.701 267.917, 607.431 268.638, 606.118 269.460, 604.760 270.382, 603.357 271.402, 601.906 272.519, 600.408 278.585, 592.458 281.625, 588.475 287.691, 580.525 293.758, 572.575 298.361, 566.543 302.496, 561.124 308.562, 553.175 314.628, 545.225 318.927, 539.591 324.993, 531.642 325.304, 531.235 331.370, 523.285 337.437, 515.335 337.634, 515.077 338.601, 513.816 339.556, 512.663 340.498, 511.616 341.428, 510.674 342.345, 509.835 343.249, 509.098 344.140, 508.462 345.018, 507.925 345.883, 507.486 346.733, 507.143 347.570, 506.895 348.393, 506.740 349.085, 506.693 349.756, 506.740 350.400, 506.884 351.010, 507.126 351.582, 507.469 352.107, 507.915 352.579, 508.467 352.993, 509.126 " />
            <path fill="none" stroke-width="3.0" stroke-linecap="butt" stroke-opacity="1.0" stroke="rgb(0, 0, 0)" stroke-linejoin="miter" d=" M 352.993, 509.126 353.342, 509.896 353.620, 510.777 353.819, 511.772 353.935, 512.884 354.323, 519.248 354.704, 525.571 355.073, 531.858 355.426, 538.112 355.757, 544.337 356.064, 550.537 356.340, 556.717 356.582, 562.878 356.786, 569.026 356.946, 575.164 357.060, 581.296 357.122, 587.425 357.091, 591.002 356.944, 594.203 356.606, 597.083 356.006, 599.693 355.070, 602.086 353.727, 604.313 351.904, 606.426 349.527, 608.476 346.523, 610.515 342.817, 612.594 338.336, 614.765 333.002, 617.079 331.665, 617.690 330.332, 618.313 329.026, 618.958 327.769, 619.633 326.585, 620.347 325.497, 621.109 324.527, 621.929 323.700, 622.816 323.038, 623.777 322.565, 624.823 322.302, 625.961 322.274, 627.201 322.483, 628.148 322.945, 629.000 323.631, 629.755 324.515, 630.411 325.569, 630.968 326.765, 631.424 328.077, 631.778 329.477, 632.029 330.938, 632.175 332.433, 632.216 333.935, 632.149 335.418, 631.975 342.393, 630.822 348.930, 629.628 355.071, 628.406 360.855, 627.175 366.323, 625.950 371.512, 624.746 376.461, 623.581 381.209, 622.469 385.791, 621.429 390.246, 620.474 394.609, 619.622 398.918, 618.889 403.250, 618.293 407.489, 617.848 411.703, 617.516 415.964, 617.259 420.340, 617.037 424.900, 616.813 429.714, 616.549 434.850, 616.206 440.375, 615.746 446.357, 615.133 452.863, 614.329 459.958, 613.296 461.275, 613.019 462.630, 612.602 463.994, 612.061 465.336, 611.415 466.628, 610.678 467.841, 609.869 468.944, 609.004 469.909, 608.099 470.707, 607.171 471.307, 606.238 471.681, 605.314 471.799, 604.418 471.693, 603.301 471.431, 602.287 471.015, 601.375 465.943, 592.757 460.871, 584.139 455.799, 575.520 450.727, 566.902 445.655, 558.284 440.583, 549.666 435.511, 541.047 432.458, 535.860 " />
            <path fill="none" stroke-width="3.0" stroke-linecap="butt" stroke-opacity="1.0" stroke="rgb(0, 0, 0)" stroke-linejoin="miter" d=" M 471.015, 601.375 470.449, 600.563 469.735, 599.850 468.876, 599.233 467.874, 598.712 466.733, 598.283 465.455, 597.947 464.043, 597.700 462.500, 597.541 460.828, 597.469 455.659, 597.252 451.183, 596.857 447.354, 596.252 444.124, 595.409 441.444, 594.298 439.265, 592.887 437.537, 591.147 436.210, 589.047 " />
            <path fill="none" stroke-width="3.0" stroke-linecap="butt" stroke-opacity="1.0" stroke="rgb(0, 0, 0)" stroke-linejoin="miter" d=" M 296.332, 629.365 295.925, 628.419 295.400, 627.571 294.760, 626.818 294.007, 626.160 293.146, 625.594 292.179, 625.119 291.108, 624.733 289.937, 624.433 288.669, 624.219 287.306, 624.089 283.954, 623.958 280.910, 623.712 278.167, 623.353 275.718, 622.885 273.557, 622.309 271.675, 621.627 270.066, 620.844 268.723, 619.960 267.638, 618.978 266.804, 617.901 266.213, 616.732 " />
            <path fill="none" stroke-width="3.0" stroke-linecap="butt" stroke-opacity="1.0" stroke="rgb(0, 0, 0)" stroke-linejoin="miter" d=" M 298.361, 566.543 302.007, 575.854 305.653, 585.166 309.299, 594.478 312.945, 603.789 316.591, 613.101 320.237, 622.413 322.483, 628.148 " />
        </g>
    </g>
</svg>
