<?xml version='1.0' encoding='ascii'?>
<svg xmlns="http://www.w3.org/2000/svg" version="1.1" width="1080" height="1080">
    <g id="View Layer_LineSet" xmlns:inkscape="http://www.inkscape.org/namespaces/inkscape" inkscape:groupmode="lineset" inkscape:label="View Layer_LineSet">
        <g xmlns:inkscape="http://www.inkscape.org/namespaces/inkscape" inkscape:groupmode="layer" id="strokes" inkscape:label="strokes">
            <path fill="none" stroke-width="3.0" stroke-linecap="butt" stroke-opacity="1.0" stroke="rgb(0, 0, 0)" stroke-linejoin="miter" d=" M 441.914, 591.444 440.608, 589.372 439.649, 586.901 438.985, 584.000 438.568, 580.638 438.346, 576.785 438.005, 566.791 437.664, 556.797 437.362, 547.953 437.022, 537.959 436.681, 527.965 436.340, 517.971 435.999, 507.976 435.658, 497.982 435.317, 487.988 434.976, 477.994 434.635, 468.000 434.294, 458.005 433.953, 448.011 433.612, 438.017 433.271, 428.023 432.930, 418.029 432.589, 408.035 432.248, 398.040 431.907, 388.046 431.731, 382.897 431.707, 378.269 431.995, 374.132 432.639, 370.435 433.681, 367.127 435.164, 364.156 437.128, 361.471 439.616, 359.017 442.667, 356.741 446.322, 354.590 450.619, 352.509 455.598, 350.445 461.297, 348.344 462.621, 347.795 463.844, 347.180 464.962, 346.498 465.972, 345.746 466.872, 344.925 467.659, 344.033 468.328, 343.068 468.878, 342.029 469.304, 340.915 469.605, 339.724 469.775, 338.454 469.812, 337.105 469.697, 336.103 469.411, 335.184 468.972, 334.351 468.400, 333.606 461.169, 326.700 453.937, 319.793 446.705, 312.887 439.473, 305.980 432.241, 299.074 425.009, 292.167 418.481, 285.933 417.839, 285.320 417.110, 284.793 416.313, 284.353 415.465, 284.005 414.585, 283.749 413.690, 283.590 412.798, 283.529 411.928, 283.570 407.046, 284.139 401.836, 284.819 396.365, 285.588 390.705, 286.423 384.926, 287.302 379.097, 288.201 373.290, 289.099 367.577, 289.973 362.031, 290.798 356.724, 291.553 351.731, 292.213 347.125, 292.755 342.537, 293.218 337.397, 293.679 331.803, 294.141 325.855, 294.603 319.656, 295.068 313.307, 295.537 306.912, 296.009 300.576, 296.487 294.404, 296.971 288.504, 297.463 282.984, 297.962 277.954, 298.470 276.865, 298.634 275.861, 298.882 274.947, 299.213 274.124, 299.627 273.398, 300.123 272.769, 300.702 272.243, 301.362 271.822, 302.104 271.510, 302.926 271.309, 303.829 271.222, 304.812 271.253, 305.873 271.430, 307.217 271.724, 308.394 272.131, 309.419 272.650, 310.306 278.467, 318.439 284.285, 326.573 290.102, 334.707 295.919, 342.841 301.737, 350.975 307.554, 359.109 309.603, 361.974 310.279, 362.792 311.075, 363.491 311.986, 364.084 313.011, 364.589 313.448, 364.754 314.147, 365.019 315.391, 365.391 316.741, 365.720 318.195, 366.020 324.608, 367.103 330.139, 368.261 334.859, 369.540 338.837, 370.986 342.139, 372.641 344.831, 374.552 346.978, 376.760 " />
            <path fill="none" stroke-width="3.0" stroke-linecap="butt" stroke-opacity="1.0" stroke="rgb(0, 0, 0)" stroke-linejoin="miter" d=" M 230.906, 397.563 230.402, 396.490 230.051, 395.421 229.862, 394.352 229.860, 392.697 230.184, 391.060 230.834, 389.445 231.813, 387.854 233.124, 386.287 234.767, 384.746 236.744, 383.235 239.057, 381.754 241.707, 380.305 243.572, 379.422 244.694, 378.891 248.020, 377.512 251.684, 376.171 253.108, 375.591 254.416, 374.944 255.604, 374.228 256.668, 373.441 257.606, 372.582 258.414, 371.651 259.088, 370.645 259.625, 369.563 260.021, 368.404 260.272, 367.166 260.376, 365.848 260.327, 364.448 260.133, 363.409 259.756, 362.458 259.216, 361.597 253.905, 353.124 248.593, 344.651 243.282, 336.179 237.970, 327.706 232.659, 319.233 227.347, 310.760 226.472, 309.364 225.842, 308.647 225.103, 308.017 224.275, 307.475 223.378, 307.025 222.431, 306.669 221.454, 306.410 220.466, 306.250 219.488, 306.193 218.539, 306.240 208.597, 307.316 198.655, 308.393 188.713, 309.469 184.916, 309.880 176.913, 310.720 169.086, 311.493 161.371, 312.216 153.701, 312.905 146.011, 313.576 138.232, 314.247 130.297, 314.935 122.136, 315.656 113.681, 316.427 104.859, 317.266 95.600, 318.191 85.830, 319.218 84.236, 319.439 82.661, 319.754 81.129, 320.161 79.665, 320.658 78.297, 321.241 77.050, 321.908 75.949, 322.656 75.021, 323.482 74.290, 324.383 73.784, 325.356 73.528, 326.398 73.547, 327.506 73.929, 328.903 76.966, 338.430 80.003, 347.958 83.040, 357.486 86.077, 367.013 89.114, 376.541 91.812, 385.002 92.565, 386.331 93.613, 387.486 94.913, 388.478 96.418, 389.319 98.085, 390.018 99.868, 390.587 101.724, 391.037 103.609, 391.378 105.478, 391.622 107.288, 391.779 108.995, 391.860 118.382, 391.973 127.240, 392.437 135.599, 393.227 143.490, 394.319 150.944, 395.689 157.990, 397.313 164.659, 399.167 170.980, 401.228 176.983, 403.473 182.695, 405.879 188.146, 408.423 193.365, 411.082 201.308, 415.478 209.124, 420.122 216.831, 424.972 224.448, 429.993 231.996, 435.145 239.492, 440.393 239.861, 440.655 246.956, 445.698 254.407, 451.025 261.864, 456.340 269.345, 461.606 276.869, 466.791 284.455, 471.860 285.647, 472.732 286.640, 473.681 287.435, 474.702 " />
            <path fill="none" stroke-width="3.0" stroke-linecap="butt" stroke-opacity="1.0" stroke="rgb(0, 0, 0)" stroke-linejoin="miter" d=" M 313.448, 364.754 314.156, 374.729 314.864, 384.704 315.572, 394.679 316.280, 404.654 316.988, 414.629 317.696, 424.604 317.815, 426.277 317.846, 427.337 317.786, 428.294 317.641, 429.152 317.418, 429.914 317.122, 430.584 316.760, 431.165 316.338, 431.661 315.863, 432.075 315.339, 432.411 314.775, 432.672 314.175, 432.861 313.546, 432.983 312.801, 433.035 312.058, 432.989 311.308, 432.851 310.543, 432.626 309.752, 432.319 308.929, 431.936 308.063, 431.481 307.147, 430.961 306.172, 430.380 305.128, 429.744 304.007, 429.058 302.801, 428.327 295.090, 421.960 287.379, 415.593 279.668, 409.226 271.957, 402.859 264.245, 396.492 256.534, 390.125 248.823, 383.757 243.572, 379.422 " />
            <path fill="none" stroke-width="3.0" stroke-linecap="butt" stroke-opacity="1.0" stroke="rgb(0, 0, 0)" stroke-linejoin="miter" d=" M 239.861, 440.655 233.812, 448.618 227.763, 456.581 221.715, 464.544 215.666, 472.508 209.617, 480.471 203.569, 488.434 197.520, 496.398 191.471, 504.361 185.423, 512.324 179.374, 520.287 173.325, 528.251 167.277, 536.214 161.228, 544.177 157.841, 548.636 155.490, 551.652 153.071, 554.591 150.543, 557.458 147.866, 560.257 144.998, 562.993 141.899, 565.669 138.527, 568.289 134.840, 570.859 130.797, 573.384 126.355, 575.866 121.472, 578.312 116.104, 580.726 114.754, 581.343 113.316, 581.988 111.831, 582.665 110.341, 583.380 108.889, 584.138 107.517, 584.945 106.267, 585.807 105.183, 586.728 104.308, 587.714 103.682, 588.770 103.350, 589.901 103.353, 591.112 105.785, 600.811 108.218, 610.511 110.651, 620.210 113.084, 629.910 115.517, 639.609 117.950, 649.309 120.382, 659.009 122.501, 667.454 122.789, 668.438 123.356, 669.326 124.198, 670.112 125.310, 670.785 126.691, 671.340 128.336, 671.766 130.242, 672.056 132.405, 672.203 134.821, 672.197 137.488, 672.032 140.402, 671.700 143.559, 671.192 150.955, 669.784 158.338, 668.278 165.712, 666.693 173.081, 665.048 180.451, 663.364 187.826, 661.660 195.209, 659.955 202.604, 658.270 210.015, 656.622 217.446, 655.032 224.899, 653.519 232.377, 652.102 238.017, 651.116 243.486, 650.233 248.811, 649.432 254.022, 648.695 259.146, 648.001 264.212, 647.332 269.246, 646.667 274.277, 645.989 279.333, 645.277 284.440, 644.513 289.625, 643.678 294.916, 642.753 295.839, 642.535 296.772, 642.217 297.698, 641.809 298.597, 641.316 299.451, 640.747 300.241, 640.110 300.950, 639.412 301.558, 638.660 302.048, 637.862 302.399, 637.025 302.595, 636.157 302.615, 635.265 302.455, 634.117 302.172, 633.073 301.768, 632.132 297.476, 623.100 293.183, 614.069 288.890, 605.037 284.698, 596.217 " />
            <path fill="none" stroke-width="3.0" stroke-linecap="butt" stroke-opacity="1.0" stroke="rgb(0, 0, 0)" stroke-linejoin="miter" d=" M 468.400, 333.606 467.714, 332.952 466.934, 332.391 466.077, 331.926 465.165, 331.560 464.215, 331.296 463.248, 331.135 462.283, 331.081 461.339, 331.136 456.040, 331.817 450.382, 332.621 444.440, 333.525 438.289, 334.504 432.007, 335.532 425.669, 336.583 419.354, 337.632 413.139, 338.654 407.105, 339.622 401.331, 340.510 395.898, 341.291 390.885, 341.941 385.893, 342.503 380.299, 343.072 374.210, 343.648 367.736, 344.229 360.986, 344.817 354.070, 345.410 347.103, 346.009 340.197, 346.613 333.469, 347.221 327.035, 347.834 325.110, 348.032 321.014, 348.451 315.524, 349.071 314.335, 349.263 313.238, 349.546 312.390, 349.860 312.237, 349.917 311.335, 350.377 310.537, 350.925 309.845, 351.561 309.264, 352.285 308.796, 353.095 308.446, 353.991 308.216, 354.972 308.110, 356.038 308.132, 357.189 308.309, 358.643 308.615, 359.914 309.047, 361.019 309.603, 361.974 " />
            <path fill="none" stroke-width="3.0" stroke-linecap="butt" stroke-opacity="1.0" stroke="rgb(0, 0, 0)" stroke-linejoin="miter" d=" M 259.216, 361.597 258.535, 360.828 257.735, 360.155 256.836, 359.578 255.860, 359.102 254.828, 358.729 253.762, 358.462 252.685, 358.302 251.616, 358.253 250.579, 358.318 240.650, 359.510 230.721, 360.702 222.149, 361.732 213.761, 362.739 212.114, 362.932 204.990, 363.764 196.409, 364.713 187.949, 365.607 179.535, 366.464 171.097, 367.302 162.558, 368.142 153.845, 369.002 144.881, 369.901 135.589, 370.860 125.891, 371.898 115.953, 373.009 115.708, 373.036 105.776, 374.199 104.958, 374.294 103.204, 374.557 101.469, 374.922 99.781, 375.388 98.169, 375.949 96.660, 376.603 95.284, 377.347 94.069, 378.177 93.043, 379.089 92.234, 380.080 91.672, 381.146 91.384, 382.284 91.399, 383.489 91.812, 385.002 " />
            <path fill="none" stroke-width="3.0" stroke-linecap="butt" stroke-opacity="1.0" stroke="rgb(0, 0, 0)" stroke-linejoin="miter" d=" M 346.978, 376.760 348.643, 379.311 349.890, 382.247 350.782, 385.611 351.382, 389.444 351.751, 393.788 352.345, 403.770 352.939, 413.753 353.533, 423.735 354.128, 433.717 354.722, 443.700 355.316, 453.682 355.910, 463.664 356.504, 473.647 357.098, 483.629 357.268, 486.470 357.288, 487.610 357.210, 488.640 357.042, 489.564 356.790, 490.387 356.461, 491.112 356.061, 491.743 355.597, 492.284 355.076, 492.737 354.505, 493.107 353.889, 493.397 353.236, 493.611 352.553, 493.752 351.745, 493.821 350.940, 493.785 350.129, 493.650 349.301, 493.421 348.448, 493.104 347.560, 492.706 346.628, 492.232 346.496, 492.160 345.641, 491.688 344.590, 491.080 343.466, 490.414 342.259, 489.695 340.959, 488.930 333.191, 482.632 325.424, 476.334 321.537, 473.183 313.769, 466.885 306.001, 460.587 298.233, 454.290 290.466, 447.992 282.698, 441.694 274.930, 435.396 267.162, 429.099 259.395, 422.801 257.107, 420.947 254.503, 418.835 246.735, 412.537 240.865, 407.778 239.383, 406.561 237.975, 405.371 236.648, 404.205 235.412, 403.060 234.276, 401.934 233.248, 400.823 232.338, 399.727 231.554, 398.641 230.906, 397.563 " />
            <path fill="none" stroke-width="3.0" stroke-linecap="butt" stroke-opacity="1.0" stroke="rgb(0, 0, 0)" stroke-linejoin="miter" d=" M 287.435, 474.702 288.032, 475.789 288.430, 476.934 288.629, 478.133 288.629, 479.379 288.431, 480.666 288.032, 481.987 287.433, 483.338 286.635, 484.711 285.635, 486.101 279.544, 494.032 273.453, 501.963 267.362, 509.894 261.271, 517.825 255.180, 525.756 249.089, 533.687 242.998, 541.618 236.907, 549.549 230.816, 557.480 224.726, 565.411 218.635, 573.342 212.544, 581.273 206.453, 589.204 200.362, 597.135 194.271, 605.066 188.180, 612.997 182.176, 620.814 179.592, 624.094 176.935, 627.294 174.160, 630.418 171.223, 633.473 168.079, 636.462 164.683, 639.393 160.991, 642.271 156.956, 645.100 152.533, 647.888 147.676, 650.640 142.337, 653.363 136.470, 656.061 134.995, 656.751 133.423, 657.471 131.799, 658.228 130.170, 659.025 128.582, 659.868 127.080, 660.762 125.713, 661.711 124.525, 662.721 123.563, 663.795 122.875, 664.939 122.505, 666.157 122.501, 667.454 " />
            <path fill="none" stroke-width="3.0" stroke-linecap="butt" stroke-opacity="1.0" stroke="rgb(0, 0, 0)" stroke-linejoin="miter" d=" M 272.241, 621.087 271.889, 619.828 271.853, 618.789 271.929, 617.711 272.117, 616.592 272.414, 615.432 272.819, 614.229 273.331, 612.982 273.946, 611.690 274.665, 610.352 275.484, 608.967 276.403, 607.534 277.419, 606.052 278.532, 604.519 284.494, 596.491 284.698, 596.217 290.660, 588.189 296.623, 580.161 299.952, 575.679 305.915, 567.651 308.866, 563.677 314.829, 555.649 320.791, 547.621 326.754, 539.593 332.716, 531.565 338.679, 523.537 343.271, 517.353 344.231, 516.068 345.178, 514.891 346.113, 513.821 347.035, 512.856 347.945, 511.995 348.841, 511.238 349.724, 510.581 350.594, 510.024 351.451, 509.566 352.294, 509.204 353.123, 508.938 353.938, 508.766 354.623, 508.705 355.287, 508.739 355.925, 508.870 356.529, 509.100 357.095, 509.433 357.614, 509.870 358.082, 510.414 " />
            <path fill="none" stroke-width="3.0" stroke-linecap="butt" stroke-opacity="1.0" stroke="rgb(0, 0, 0)" stroke-linejoin="miter" d=" M 358.082, 510.414 358.491, 511.067 358.835, 511.831 359.109, 512.710 359.306, 513.704 359.419, 514.817 359.797, 521.194 360.167, 527.531 360.526, 533.831 360.869, 540.098 361.191, 546.337 361.487, 552.551 361.755, 558.744 361.988, 564.921 362.183, 571.085 362.336, 577.240 362.442, 583.389 362.497, 589.538 362.463, 593.127 362.314, 596.343 361.977, 599.240 361.379, 601.873 360.451, 604.295 359.119, 606.561 357.311, 608.723 354.955, 610.836 351.978, 612.953 348.305, 615.127 343.862, 617.411 338.574, 619.859 337.248, 620.504 335.925, 621.162 334.629, 621.840 333.382, 622.547 332.208, 623.292 331.128, 624.084 330.166, 624.931 329.344, 625.840 328.687, 626.822 328.216, 627.883 327.954, 629.033 327.925, 630.279 328.131, 631.225 328.588, 632.070 329.268, 632.811 330.144, 633.450 331.189, 633.984 332.374, 634.413 333.675, 634.737 335.063, 634.955 336.511, 635.067 337.993, 635.072 339.483, 634.969 340.953, 634.759 347.865, 633.434 354.343, 632.079 360.425, 630.706 366.152, 629.333 371.564, 627.974 376.698, 626.643 381.594, 625.357 386.289, 624.130 390.819, 622.978 395.222, 621.917 399.534, 620.960 403.790, 620.124 408.069, 619.424 412.254, 618.879 416.414, 618.447 420.618, 618.090 424.935, 617.765 429.433, 617.434 434.180, 617.056 439.242, 616.593 444.687, 616.004 450.580, 615.250 456.987, 614.293 463.972, 613.095 465.269, 612.787 466.603, 612.338 467.945, 611.766 469.267, 611.087 470.538, 610.321 471.732, 609.484 472.818, 608.593 473.768, 607.665 474.553, 606.719 475.145, 605.771 475.513, 604.839 475.630, 603.940 475.527, 602.825 475.270, 601.817 474.862, 600.915 474.306, 600.116 468.526, 591.955 462.747, 583.795 456.967, 575.634 451.187, 567.474 445.408, 559.313 439.628, 551.152 437.362, 547.953 " />
            <path fill="none" stroke-width="3.0" stroke-linecap="butt" stroke-opacity="1.0" stroke="rgb(0, 0, 0)" stroke-linejoin="miter" d=" M 301.768, 632.132 301.248, 631.292 300.612, 630.551 299.866, 629.908 299.011, 629.359 298.050, 628.905 296.986, 628.542 295.823, 628.269 294.563, 628.084 293.209, 627.985 289.877, 627.933 286.851, 627.758 284.124, 627.463 281.690, 627.050 279.540, 626.522 277.669, 625.882 276.070, 625.131 274.735, 624.274 273.656, 623.312 272.827, 622.249 272.241, 621.087 " />
            <path fill="none" stroke-width="3.0" stroke-linecap="butt" stroke-opacity="1.0" stroke="rgb(0, 0, 0)" stroke-linejoin="miter" d=" M 474.306, 600.116 473.604, 599.419 472.760, 598.822 471.775, 598.323 470.653, 597.921 469.396, 597.613 468.007, 597.398 466.489, 597.275 464.844, 597.241 459.756, 597.142 455.350, 596.848 451.581, 596.331 448.400, 595.561 445.761, 594.509 443.615, 593.147 441.914, 591.444 " />
            <path fill="none" stroke-width="3.0" stroke-linecap="butt" stroke-opacity="1.0" stroke="rgb(0, 0, 0)" stroke-linejoin="miter" d=" M 299.952, 575.679 304.476, 584.597 309.001, 593.515 313.525, 602.433 318.049, 611.351 322.573, 620.269 327.097, 629.187 328.131, 631.225 " />
        </g>
    </g>
</svg>
