<?xml version='1.0' encoding='ascii'?>
<svg xmlns="http://www.w3.org/2000/svg" version="1.1" width="1080" height="1080">
    <g id="View Layer_LineSet" xmlns:inkscape="http://www.inkscape.org/namespaces/inkscape" inkscape:groupmode="lineset" inkscape:label="View Layer_LineSet">
        <g xmlns:inkscape="http://www.inkscape.org/namespaces/inkscape" inkscape:groupmode="layer" id="strokes" inkscape:label="strokes">
            <path fill="none" stroke-width="3.0" stroke-linecap="butt" stroke-opacity="1.0" stroke="rgb(0, 0, 0)" stroke-linejoin="miter" d=" M 450.696, 591.727 449.443, 589.709 448.524, 587.276 447.890, 584.399 447.494, 581.049 447.287, 577.198 446.976, 567.203 446.831, 562.541 446.520, 552.546 446.209, 542.550 445.898, 532.555 445.587, 522.560 445.276, 512.565 444.965, 502.570 444.654, 492.575 444.343, 482.579 444.031, 472.584 443.720, 462.589 443.409, 452.594 443.098, 442.599 442.787, 432.604 442.476, 422.609 442.165, 412.613 441.854, 402.618 441.543, 392.623 441.251, 383.228 441.235, 378.594 441.520, 374.440 442.146, 370.717 443.156, 367.371 444.588, 364.350 446.483, 361.599 448.881, 359.064 451.820, 356.691 455.339, 354.424 459.473, 352.209 464.260, 349.991 469.735, 347.715 471.007, 347.126 472.181, 346.473 473.255, 345.757 474.226, 344.975 475.091, 344.127 475.847, 343.211 476.491, 342.227 477.019, 341.172 477.430, 340.045 477.720, 338.846 477.886, 337.572 477.924, 336.222 477.815, 335.225 477.542, 334.315 477.123, 333.496 476.575, 332.768 475.919, 332.135 475.171, 331.598 466.985, 325.854 458.799, 320.109 450.614, 314.365 442.428, 308.621 434.242, 302.877 426.057, 297.133 417.871, 291.388 410.109, 285.941 409.334, 285.523 408.509, 285.196 407.654, 284.964 406.784, 284.828 405.918, 284.792 405.072, 284.856 400.331, 285.562 395.267, 286.388 389.948, 287.310 384.442, 288.305 378.815, 289.348 373.136, 290.414 367.475, 291.478 361.903, 292.516 356.490, 293.502 351.307, 294.409 346.427, 295.214 341.923, 295.889 337.434, 296.485 332.401, 297.094 326.921, 297.717 321.091, 298.352 315.010, 298.996 308.778, 299.649 302.496, 300.308 296.267, 300.971 290.195, 301.636 284.387, 302.301 278.950, 302.963 273.993, 303.621 272.919, 303.818 271.930, 304.097 271.029, 304.458 270.219, 304.900 269.504, 305.423 268.886, 306.026 268.369, 306.709 267.956, 307.471 267.650, 308.312 267.454, 309.231 267.372, 310.227 267.406, 311.300 267.585, 312.653 267.878, 313.835 268.283, 314.860 268.798, 315.741 269.421, 316.495 276.735, 323.315 284.049, 330.135 291.362, 336.955 298.676, 343.774 305.990, 350.594 307.898, 352.374 315.212, 359.194 322.525, 366.014 323.531, 366.951 324.306, 367.630 325.194, 368.200 326.193, 368.675 327.300, 369.073 328.514, 369.408 329.831, 369.696 331.248, 369.952 337.498, 370.836 342.884, 371.825 347.478, 372.961 351.347, 374.288 354.556, 375.847 357.171, 377.683 " />
            <path fill="none" stroke-width="3.0" stroke-linecap="butt" stroke-opacity="1.0" stroke="rgb(0, 0, 0)" stroke-linejoin="miter" d=" M 247.934, 407.942 247.040, 406.862 246.270, 405.789 245.634, 404.720 245.140, 403.651 244.797, 402.579 244.613, 401.503 244.615, 399.826 244.936, 398.158 245.580, 396.500 246.548, 394.855 247.842, 393.223 248.113, 392.954 249.463, 391.609 251.412, 390.012 253.692, 388.435 256.301, 386.880 259.242, 385.349 262.515, 383.844 266.119, 382.367 267.519, 381.733 268.805, 381.035 269.973, 380.272 271.020, 379.441 271.943, 378.542 272.738, 377.574 273.402, 376.535 273.931, 375.423 274.322, 374.238 274.572, 372.978 274.676, 371.642 274.630, 370.228 274.442, 369.184 274.074, 368.235 273.546, 367.381 272.879, 366.626 265.863, 359.500 258.847, 352.374 251.832, 345.248 244.816, 338.122 237.800, 330.996 230.784, 323.870 223.769, 316.744 222.483, 315.438 221.748, 314.821 220.925, 314.296 220.034, 313.866 219.093, 313.533 218.122, 313.299 217.141, 313.166 216.170, 313.136 215.229, 313.212 205.325, 314.600 195.422, 315.989 185.519, 317.377 181.796, 317.899 173.819, 318.990 166.011, 320.009 158.307, 320.975 150.642, 321.905 142.949, 322.820 135.161, 323.737 127.210, 324.676 119.025, 325.657 110.537, 326.699 101.672, 327.823 92.358, 329.049 82.519, 330.397 80.914, 330.671 79.327, 331.041 77.783, 331.504 76.309, 332.057 74.930, 332.695 73.674, 333.415 72.565, 334.214 71.631, 335.087 70.897, 336.031 70.389, 337.042 70.133, 338.116 70.155, 339.249 70.545, 340.665 71.246, 341.902 76.759, 350.245 82.273, 358.587 87.787, 366.930 93.301, 375.272 98.814, 383.615 104.328, 391.958 108.342, 398.030 109.388, 399.173 110.685, 400.141 112.188, 400.947 113.853, 401.604 115.634, 402.123 117.488, 402.518 119.371, 402.802 121.238, 402.986 123.045, 403.084 124.750, 403.108 134.118, 402.901 142.947, 403.069 151.271, 403.586 159.121, 404.427 166.528, 405.564 173.525, 406.973 180.141, 408.628 186.406, 410.505 192.351, 412.577 198.004, 414.822 203.395, 417.215 208.552, 419.731 216.396, 423.913 224.107, 428.346 231.703, 432.989 239.204, 437.804 242.915, 440.276 246.629, 442.751 253.998, 447.791 261.329, 452.887 268.641, 458.003 275.953, 463.100 283.283, 468.144 290.649, 473.100 292.109, 474.051 298.070, 477.932 299.235, 478.767 300.205, 479.688 " />
            <path fill="none" stroke-width="3.0" stroke-linecap="butt" stroke-opacity="1.0" stroke="rgb(0, 0, 0)" stroke-linejoin="miter" d=" M 307.898, 352.374 308.621, 362.348 309.343, 372.322 310.066, 382.296 310.788, 392.269 311.511, 402.243 312.233, 412.217 312.956, 422.191 313.624, 431.416 313.658, 432.485 313.602, 433.453 313.463, 434.323 313.246, 435.100 312.958, 435.787 312.604, 436.386 312.192, 436.902 311.726, 437.337 311.213, 437.695 310.659, 437.978 310.071, 438.191 309.453, 438.337 308.722, 438.416 307.992, 438.397 307.254, 438.285 306.501, 438.086 305.723, 437.804 304.913, 437.447 304.061, 437.019 303.159, 436.527 302.198, 435.976 301.170, 435.371 300.065, 434.719 298.876, 434.024 291.102, 427.735 283.328, 421.445 275.553, 415.155 267.779, 408.865 260.005, 402.575 252.231, 396.286 248.113, 392.954 " />
            <path fill="none" stroke-width="3.0" stroke-linecap="butt" stroke-opacity="1.0" stroke="rgb(0, 0, 0)" stroke-linejoin="miter" d=" M 242.915, 440.276 237.075, 448.394 231.236, 456.512 225.396, 464.629 219.556, 472.747 213.716, 480.865 207.877, 488.982 202.037, 497.100 196.197, 505.218 190.357, 513.336 184.517, 521.453 178.678, 529.571 172.838, 537.689 166.998, 545.806 161.158, 553.924 155.493, 561.799 153.151, 564.974 150.740, 568.074 148.219, 571.107 145.548, 574.077 142.685, 576.993 139.589, 579.858 136.218, 582.681 132.530, 585.467 128.483, 588.224 124.034, 590.958 119.139, 593.675 113.755, 596.384 112.401, 597.076 110.957, 597.799 109.466, 598.559 107.971, 599.357 106.513, 600.198 105.136, 601.086 103.882, 602.023 102.794, 603.014 101.916, 604.062 101.290, 605.170 100.959, 606.341 100.965, 607.578 101.239, 608.510 105.577, 617.520 109.915, 626.530 114.252, 635.541 118.590, 644.551 122.927, 653.561 127.265, 662.572 131.602, 671.582 135.940, 680.592 137.882, 684.626 138.445, 685.504 139.282, 686.263 140.391, 686.894 141.766, 687.389 143.405, 687.741 145.304, 687.941 147.459, 687.981 149.866, 687.854 152.523, 687.552 155.425, 687.066 158.568, 686.389 165.929, 684.584 173.270, 682.680 180.596, 680.697 187.911, 678.657 195.222, 676.578 202.531, 674.480 209.842, 672.382 217.159, 670.306 224.486, 668.268 231.825, 666.290 239.180, 664.391 246.553, 662.589 252.110, 661.315 257.495, 660.155 262.735, 659.085 267.860, 658.086 272.896, 657.136 277.871, 656.213 282.814, 655.298 287.750, 654.369 292.707, 653.406 297.712, 652.388 302.791, 651.296 307.971, 650.108 308.874, 649.843 309.788, 649.478 310.694, 649.021 311.574, 648.481 312.410, 647.866 313.184, 647.184 313.879, 646.445 314.475, 645.657 314.955, 644.828 315.300, 643.966 315.493, 643.081 315.514, 642.179 315.360, 641.027 315.085, 639.987 314.693, 639.056 314.185, 638.232 308.360, 630.104 302.534, 621.976 296.709, 613.848 293.757, 609.728 " />
            <path fill="none" stroke-width="3.0" stroke-linecap="butt" stroke-opacity="1.0" stroke="rgb(0, 0, 0)" stroke-linejoin="miter" d=" M 475.171, 331.598 474.350, 331.159 473.475, 330.820 472.564, 330.583 471.637, 330.452 470.711, 330.426 469.805, 330.510 464.716, 331.347 459.279, 332.321 453.565, 333.403 447.647, 334.566 441.597, 335.784 435.490, 337.027 429.401, 338.269 423.405, 339.481 417.578, 340.634 412.000, 341.701 406.746, 342.650 401.898, 343.455 397.066, 344.172 391.649, 344.915 385.749, 345.679 379.471, 346.463 372.920, 347.261 366.205, 348.071 359.433, 348.888 352.716, 349.710 346.167, 350.531 339.900, 351.348 334.030, 352.157 329.566, 352.820 328.675, 352.953 327.514, 353.184 326.444, 353.503 325.466, 353.909 324.585, 354.401 323.805, 354.978 323.129, 355.641 322.560, 356.389 322.101, 357.220 321.758, 358.135 321.531, 359.132 321.426, 360.210 321.445, 361.370 321.615, 362.830 321.912, 364.103 322.331, 365.203 322.872, 366.148 323.531, 366.951 " />
            <path fill="none" stroke-width="3.0" stroke-linecap="butt" stroke-opacity="1.0" stroke="rgb(0, 0, 0)" stroke-linejoin="miter" d=" M 272.879, 366.626 272.094, 365.970 271.213, 365.416 270.255, 364.966 269.243, 364.622 268.197, 364.385 267.138, 364.258 266.088, 364.243 265.069, 364.341 255.188, 365.883 245.308, 367.426 235.428, 368.968 228.805, 370.002 221.183, 371.166 220.144, 371.325 216.293, 371.889 211.663, 372.567 203.292, 373.750 194.960, 374.894 186.595, 376.022 178.124, 377.155 169.470, 378.316 160.559, 379.527 151.312, 380.810 141.650, 382.189 131.757, 383.648 131.493, 383.687 121.608, 385.199 120.758, 385.328 119.006, 385.655 117.271, 386.086 115.583, 386.617 113.970, 387.244 112.460, 387.962 111.082, 388.768 109.865, 389.655 108.836, 390.621 108.026, 391.660 107.461, 392.767 107.170, 393.938 107.182, 395.168 107.591, 396.699 108.342, 398.030 " />
            <path fill="none" stroke-width="3.0" stroke-linecap="butt" stroke-opacity="1.0" stroke="rgb(0, 0, 0)" stroke-linejoin="miter" d=" M 357.171, 377.683 359.254, 379.835 360.868, 382.348 362.075, 385.261 362.935, 388.616 363.510, 392.453 363.861, 396.810 364.418, 406.795 364.974, 416.779 365.531, 426.764 366.087, 436.748 366.644, 446.733 367.201, 456.717 367.757, 466.702 368.314, 476.686 368.871, 486.671 369.048, 489.857 369.066, 491.002 368.988, 492.042 368.823, 492.979 368.577, 493.816 368.256, 494.559 367.866, 495.209 367.415, 495.771 366.908, 496.248 366.352, 496.642 365.753, 496.958 365.119, 497.199 364.454, 497.368 363.669, 497.469 362.887, 497.465 362.098, 497.360 361.294, 497.162 360.466, 496.877 359.603, 496.511 358.697, 496.070 357.738, 495.561 356.718, 494.990 355.626, 494.363 354.453, 493.686 353.189, 492.966 345.382, 486.718 343.440, 485.164 335.632, 478.915 327.824, 472.667 320.017, 466.419 316.368, 463.499 308.560, 457.250 300.753, 451.002 292.945, 444.754 285.138, 438.505 277.330, 432.257 269.522, 426.009 261.715, 419.761 255.417, 414.720 253.961, 413.540 252.577, 412.384 251.274, 411.249 250.060, 410.132 248.943, 409.031 247.934, 407.942 " />
            <path fill="none" stroke-width="3.0" stroke-linecap="butt" stroke-opacity="1.0" stroke="rgb(0, 0, 0)" stroke-linejoin="miter" d=" M 300.205, 479.688 300.981, 480.689 301.563, 481.763 301.951, 482.905 302.143, 484.108 302.141, 485.366 301.944, 486.673 301.551, 488.023 300.963, 489.410 300.178, 490.828 299.197, 492.271 293.328, 500.368 287.459, 508.465 281.591, 516.562 275.722, 524.659 269.853, 532.756 263.985, 540.852 258.116, 548.949 252.247, 557.046 246.209, 565.378 243.787, 568.719 237.918, 576.816 232.050, 584.913 226.181, 593.009 220.312, 601.106 214.444, 609.203 208.575, 617.300 202.706, 625.397 197.024, 633.237 194.456, 636.694 191.816, 640.073 189.057, 643.383 186.138, 646.630 183.012, 649.823 179.635, 652.969 175.962, 656.076 171.948, 659.153 167.546, 662.207 162.710, 665.248 157.392, 668.284 151.545, 671.324 150.074, 672.100 148.506, 672.912 146.887, 673.764 145.262, 674.658 143.677, 675.596 142.178, 676.583 140.812, 677.619 139.626, 678.708 138.664, 679.852 137.975, 681.053 137.603, 682.314 137.596, 683.637 137.882, 684.626 " />
            <path fill="none" stroke-width="3.0" stroke-linecap="butt" stroke-opacity="1.0" stroke="rgb(0, 0, 0)" stroke-linejoin="miter" d=" M 286.376, 630.429 285.803, 629.281 285.460, 628.025 285.427, 626.976 285.504, 625.882 285.690, 624.742 285.984, 623.554 286.384, 622.319 286.888, 621.034 287.494, 619.699 288.201, 618.314 289.007, 616.876 289.911, 615.384 290.910, 613.839 292.004, 612.238 293.757, 609.728 299.483, 601.530 305.209, 593.332 306.377, 591.660 312.104, 583.462 317.830, 575.264 323.556, 567.066 324.654, 565.494 330.380, 557.296 336.106, 549.098 341.833, 540.900 347.559, 532.702 353.285, 524.504 355.386, 521.497 356.321, 520.164 357.245, 518.940 358.156, 517.825 359.055, 516.817 359.941, 515.914 360.814, 515.115 361.674, 514.418 362.520, 513.823 363.354, 513.327 364.174, 512.930 364.980, 512.629 365.772, 512.423 366.438, 512.334 367.083, 512.341 367.702, 512.447 368.289, 512.655 368.838, 512.967 369.341, 513.386 " />
            <path fill="none" stroke-width="3.0" stroke-linecap="butt" stroke-opacity="1.0" stroke="rgb(0, 0, 0)" stroke-linejoin="miter" d=" M 369.341, 513.386 369.794, 513.914 370.190, 514.555 370.524, 515.310 370.788, 516.183 370.977, 517.176 371.085, 518.291 371.440, 524.692 371.788, 531.051 372.125, 537.375 372.446, 543.666 372.747, 549.929 373.024, 556.168 373.272, 562.388 373.487, 568.592 373.665, 574.785 373.802, 580.971 373.893, 587.154 373.935, 593.337 373.896, 596.951 373.745, 600.193 373.412, 603.123 372.828, 605.799 371.922, 608.279 370.624, 610.620 368.864, 612.879 366.571, 615.113 363.673, 617.380 360.098, 619.738 355.773, 622.243 350.621, 624.954 349.329, 625.666 348.040, 626.390 346.776, 627.133 345.561, 627.904 344.415, 628.710 343.361, 629.559 342.422, 630.457 341.620, 631.412 340.977, 632.432 340.516, 633.525 340.259, 634.696 340.228, 635.954 340.428, 636.898 340.871, 637.728 341.533, 638.444 342.385, 639.046 343.402, 639.535 344.556, 639.912 345.822, 640.177 347.174, 640.331 348.584, 640.376 350.027, 640.311 351.477, 640.137 352.908, 639.855 359.637, 638.196 365.936, 636.526 371.847, 634.860 377.410, 633.210 382.663, 631.590 387.645, 630.012 392.392, 628.492 396.941, 627.041 401.330, 625.674 405.592, 624.404 409.764, 623.244 413.880, 622.209 418.015, 621.309 422.058, 620.570 426.074, 619.946 430.131, 619.395 434.295, 618.871 438.632, 618.334 443.206, 617.738 448.082, 617.042 453.323, 616.204 458.992, 615.181 465.151, 613.931 471.862, 612.415 473.107, 612.048 474.388, 611.538 475.677, 610.905 476.946, 610.167 478.168, 609.343 479.314, 608.452 480.357, 607.512 481.270, 606.542 482.025, 605.560 482.593, 604.586 482.948, 603.637 483.061, 602.733 482.964, 601.623 482.719, 600.627 482.330, 599.742 481.798, 598.968 474.873, 591.754 467.948, 584.540 461.023, 577.326 454.098, 570.111 446.831, 562.541 " />
            <path fill="none" stroke-width="3.0" stroke-linecap="butt" stroke-opacity="1.0" stroke="rgb(0, 0, 0)" stroke-linejoin="miter" d=" M 481.798, 598.968 481.126, 598.303 480.317, 597.743 479.374, 597.288 478.298, 596.935 477.093, 596.684 475.760, 596.531 474.303, 596.474 472.725, 596.513 467.840, 596.641 463.608, 596.543 459.985, 596.192 456.928, 595.563 454.392, 594.627 452.330, 593.357 450.696, 591.727 " />
            <path fill="none" stroke-width="3.0" stroke-linecap="butt" stroke-opacity="1.0" stroke="rgb(0, 0, 0)" stroke-linejoin="miter" d=" M 314.185, 638.232 313.566, 637.514 312.837, 636.899 312.002, 636.386 311.063, 635.972 310.024, 635.655 308.887, 635.434 307.654, 635.307 306.330, 635.271 303.069, 635.375 300.107, 635.341 297.437, 635.171 295.053, 634.868 292.948, 634.435 291.116, 633.876 289.549, 633.192 288.242, 632.388 287.186, 631.466 286.376, 630.429 " />
            <path fill="none" stroke-width="3.0" stroke-linecap="butt" stroke-opacity="1.0" stroke="rgb(0, 0, 0)" stroke-linejoin="miter" d=" M 306.377, 591.660 312.371, 599.665 318.365, 607.669 324.358, 615.674 330.352, 623.679 336.345, 631.684 340.871, 637.728 " />
        </g>
    </g>
</svg>
