<?xml version='1.0' encoding='ascii'?>
<svg xmlns="http://www.w3.org/2000/svg" version="1.1" width="1080" height="1080">
    <g id="View Layer_LineSet" xmlns:inkscape="http://www.inkscape.org/namespaces/inkscape" inkscape:groupmode="lineset" inkscape:label="View Layer_LineSet">
        <g xmlns:inkscape="http://www.inkscape.org/namespaces/inkscape" inkscape:groupmode="layer" id="strokes" inkscape:label="strokes">
            <path fill="none" stroke-width="3.0" stroke-linecap="butt" stroke-opacity="1.0" stroke="rgb(0, 0, 0)" stroke-linejoin="miter" d=" M 456.668, 593.311 455.074, 591.716 453.852, 589.724 452.956, 587.309 452.339, 584.444 451.955, 581.100 451.756, 577.251 451.457, 567.168 451.161, 557.172 450.865, 547.177 450.569, 537.181 450.273, 527.185 449.977, 517.190 449.681, 507.194 449.385, 497.199 449.088, 487.203 448.792, 477.207 448.496, 467.212 448.200, 457.216 447.904, 447.221 447.608, 437.225 447.312, 427.229 447.016, 417.234 446.720, 407.238 446.424, 397.242 446.128, 387.247 446.010, 383.270 445.998, 378.634 446.279, 374.474 446.894, 370.739 447.883, 367.375 449.284, 364.330 451.137, 361.548 453.481, 358.975 456.352, 356.555 459.788, 354.234 463.825, 351.956 468.498, 349.665 473.840, 347.306 475.080, 346.697 476.226, 346.027 477.274, 345.295 478.221, 344.499 479.065, 343.638 479.803, 342.711 480.431, 341.717 480.947, 340.655 481.349, 339.523 481.632, 338.320 481.794, 337.044 481.832, 335.695 481.727, 334.699 481.462, 333.794 481.054, 332.981 480.521, 332.262 479.881, 331.639 479.152, 331.113 470.634, 325.873 462.117, 320.634 453.599, 315.394 445.082, 310.155 436.565, 304.915 428.047, 299.676 419.530, 294.436 411.012, 289.197 406.761, 286.582 405.999, 286.173 405.189, 285.857 404.348, 285.636 403.493, 285.512 402.642, 285.487 401.812, 285.564 397.155, 286.335 392.181, 287.231 386.954, 288.228 381.541, 289.301 376.009, 290.424 370.424, 291.571 364.854, 292.716 359.370, 293.833 354.041, 294.897 348.937, 295.880 344.130, 296.755 339.692, 297.495 335.267, 298.155 330.306, 298.838 324.901, 299.540 319.150, 300.259 313.149, 300.991 306.996, 301.734 300.792, 302.485 294.638, 303.239 288.639, 303.993 282.897, 304.743 277.521, 305.486 272.617, 306.218 271.556, 306.432 270.577, 306.726 269.686, 307.102 268.885, 307.558 268.178, 308.094 267.568, 308.710 267.057, 309.404 266.649, 310.176 266.348, 311.026 266.156, 311.953 266.076, 312.956 266.112, 314.034 266.291, 315.393 266.584, 316.577 266.986, 317.601 267.498, 318.480 268.116, 319.229 268.838, 319.862 276.672, 326.077 284.506, 332.292 292.340, 338.508 300.174, 344.723 305.816, 349.199 313.649, 355.414 321.483, 361.630 329.317, 367.845 331.419, 369.512 332.291, 370.070 333.273, 370.531 334.362, 370.913 335.554, 371.230 336.848, 371.498 338.241, 371.732 344.381, 372.520 349.671, 373.426 354.181, 374.493 357.978, 375.762 361.127, 377.274 363.692, 379.073 " />
            <path fill="none" stroke-width="3.0" stroke-linecap="butt" stroke-opacity="1.0" stroke="rgb(0, 0, 0)" stroke-linejoin="miter" d=" M 258.235, 413.443 257.134, 412.354 256.139, 411.276 255.257, 410.205 254.498, 409.139 253.871, 408.074 253.384, 407.007 253.046, 405.935 252.866, 404.855 252.869, 403.168 253.188, 401.484 253.232, 401.370 253.826, 399.806 254.783, 398.134 256.062, 396.472 257.664, 394.820 259.590, 393.182 261.841, 391.559 264.418, 389.952 267.321, 388.364 270.551, 386.797 274.108, 385.252 275.489, 384.593 276.758, 383.870 277.911, 383.084 278.944, 382.232 279.855, 381.313 280.640, 380.327 281.295, 379.271 281.818, 378.146 282.205, 376.948 282.452, 375.678 282.555, 374.333 282.512, 372.912 282.328, 371.866 281.965, 370.918 281.445, 370.068 280.789, 369.319 273.179, 362.831 265.570, 356.343 257.960, 349.855 250.351, 343.367 242.741, 336.879 235.132, 330.390 227.522, 323.902 221.597, 318.850 220.867, 318.239 220.050, 317.723 219.164, 317.303 218.229, 316.981 217.266, 316.759 216.292, 316.640 215.328, 316.624 214.393, 316.714 204.514, 318.264 194.635, 319.814 184.756, 321.364 181.181, 321.925 173.248, 323.143 165.479, 324.285 157.810, 325.373 150.176, 326.425 142.512, 327.462 134.750, 328.503 126.821, 329.570 118.656, 330.683 110.183, 331.863 101.331, 333.131 92.026, 334.510 82.192, 336.021 80.587, 336.322 78.999, 336.720 77.456, 337.212 75.982, 337.793 74.604, 338.459 73.348, 339.207 72.240, 340.031 71.307, 340.928 70.573, 341.894 70.067, 342.924 69.812, 344.014 69.836, 345.159 70.228, 346.585 70.931, 347.825 77.361, 355.485 83.790, 363.144 90.219, 370.803 96.648, 378.463 103.077, 386.122 109.506, 393.781 115.936, 401.441 117.794, 403.655 118.834, 404.792 120.123, 405.747 121.618, 406.536 123.273, 407.170 125.044, 407.664 126.888, 408.032 128.759, 408.286 130.615, 408.441 132.412, 408.509 134.107, 408.504 143.417, 408.135 152.187, 408.154 160.451, 408.534 168.240, 409.249 175.587, 410.269 182.523, 411.570 189.079, 413.125 195.285, 414.909 201.172, 416.895 206.767, 419.059 212.102, 421.376 217.203, 423.821 224.959, 427.894 232.579, 432.221 240.082, 436.761 245.052, 439.922 247.489, 441.472 254.818, 446.316 262.088, 451.253 269.318, 456.246 276.526, 461.255 283.731, 466.245 290.951, 471.178 293.678, 472.999 298.204, 476.021 305.508, 480.736 306.654, 481.553 307.609, 482.459 " />
            <path fill="none" stroke-width="3.0" stroke-linecap="butt" stroke-opacity="1.0" stroke="rgb(0, 0, 0)" stroke-linejoin="miter" d=" M 305.816, 349.199 306.544, 359.173 307.272, 369.146 308.000, 379.120 308.729, 389.093 309.457, 399.066 310.185, 409.040 310.913, 419.013 311.642, 428.987 312.009, 434.019 312.045, 435.091 311.991, 436.064 311.855, 436.941 311.642, 437.726 311.359, 438.421 311.011, 439.029 310.604, 439.554 310.145, 440.000 309.639, 440.369 309.093, 440.664 308.512, 440.888 307.902, 441.045 307.180, 441.138 306.459, 441.132 305.730, 441.033 304.986, 440.846 304.217, 440.577 303.416, 440.233 302.574, 439.818 301.682, 439.340 300.731, 438.803 299.714, 438.214 298.622, 437.578 297.446, 436.901 289.651, 430.637 281.856, 424.373 274.061, 418.109 266.266, 411.845 258.471, 405.581 253.232, 401.370 " />
            <path fill="none" stroke-width="3.0" stroke-linecap="butt" stroke-opacity="1.0" stroke="rgb(0, 0, 0)" stroke-linejoin="miter" d=" M 245.052, 439.922 239.329, 448.123 233.607, 456.323 227.884, 464.524 222.161, 472.725 216.439, 480.926 210.716, 489.126 204.994, 497.327 199.271, 505.528 193.549, 513.729 187.826, 521.930 182.104, 530.130 176.381, 538.331 170.659, 546.532 164.936, 554.733 159.214, 562.933 155.399, 568.399 153.071, 571.654 150.674, 574.835 148.167, 577.951 145.509, 581.008 142.660, 584.014 139.578, 586.975 136.221, 589.900 132.547, 592.795 128.515, 595.669 124.080, 598.530 119.199, 601.385 113.828, 604.243 112.477, 604.973 111.037, 605.737 109.549, 606.538 108.056, 607.378 106.601, 608.261 105.227, 609.190 103.975, 610.166 102.890, 611.192 102.015, 612.271 101.391, 613.405 101.062, 614.596 101.070, 615.846 101.346, 616.782 106.503, 625.349 111.660, 633.917 116.818, 642.484 121.975, 651.052 127.132, 659.620 132.289, 668.187 137.447, 676.755 142.604, 685.322 146.865, 692.401 147.424, 693.273 148.255, 694.018 149.355, 694.628 150.721, 695.093 152.349, 695.408 154.234, 695.562 156.375, 695.549 158.766, 695.360 161.404, 694.989 164.285, 694.426 167.405, 693.665 174.710, 691.661 181.993, 689.558 189.259, 687.378 196.511, 685.140 203.755, 682.864 210.994, 680.571 218.233, 678.279 225.475, 676.008 232.723, 673.778 239.981, 671.608 247.251, 669.517 254.536, 667.526 260.025, 666.110 265.341, 664.812 270.514, 663.611 275.570, 662.482 280.538, 661.406 285.445, 660.360 290.318, 659.321 295.184, 658.270 300.068, 657.184 304.999, 656.042 310.001, 654.823 315.101, 653.506 315.990, 653.219 316.890, 652.831 317.782, 652.350 318.648, 651.786 319.472, 651.149 320.234, 650.446 320.918, 649.687 321.505, 648.881 321.978, 648.037 322.319, 647.164 322.509, 646.270 322.531, 645.364 322.380, 644.210 322.111, 643.172 321.726, 642.245 321.227, 641.430 314.778, 633.788 308.328, 626.146 301.879, 618.503 299.503, 615.688 " />
            <path fill="none" stroke-width="3.0" stroke-linecap="butt" stroke-opacity="1.0" stroke="rgb(0, 0, 0)" stroke-linejoin="miter" d=" M 479.152, 331.113 478.352, 330.686 477.499, 330.360 476.611, 330.138 475.707, 330.019 474.804, 330.008 473.921, 330.104 468.956, 331.017 463.651, 332.070 458.073, 333.237 452.294, 334.488 446.385, 335.796 440.418, 337.131 434.466, 338.465 428.603, 339.768 422.905, 341.010 417.446, 342.161 412.305, 343.192 407.559, 344.070 402.828, 344.862 397.522, 345.688 391.741, 346.544 385.588, 347.424 379.166, 348.324 372.580, 349.239 365.936, 350.162 359.344, 351.089 352.913, 352.013 346.757, 352.930 340.990, 353.831 335.727, 354.712 334.586, 354.963 333.533, 355.299 333.133, 355.475 332.572, 355.721 331.705, 356.229 330.938, 356.821 330.272, 357.497 329.712, 358.256 329.261, 359.097 328.922, 360.021 328.698, 361.025 328.594, 362.110 328.611, 363.273 328.778, 364.737 329.068, 366.009 329.480, 367.108 330.010, 368.047 330.657, 368.843 331.419, 369.512 " />
            <path fill="none" stroke-width="3.0" stroke-linecap="butt" stroke-opacity="1.0" stroke="rgb(0, 0, 0)" stroke-linejoin="miter" d=" M 280.789, 369.319 280.016, 368.673 279.147, 368.130 278.203, 367.693 277.205, 367.362 276.174, 367.141 275.130, 367.030 274.095, 367.031 273.089, 367.146 263.239, 368.871 253.389, 370.596 243.539, 372.322 237.279, 373.418 228.716, 374.888 221.717, 376.045 220.326, 376.275 219.279, 376.443 212.042, 377.601 203.793, 378.888 195.507, 380.160 187.112, 381.440 178.532, 382.750 169.692, 384.116 160.515, 385.562 150.921, 387.111 141.056, 388.752 140.829, 388.790 130.974, 390.483 130.157, 390.624 128.414, 390.982 126.689, 391.446 125.010, 392.010 123.405, 392.670 121.902, 393.420 120.531, 394.256 119.319, 395.173 118.294, 396.165 117.486, 397.228 116.923, 398.355 116.633, 399.543 116.643, 400.785 117.049, 402.324 117.794, 403.655 " />
            <path fill="none" stroke-width="3.0" stroke-linecap="butt" stroke-opacity="1.0" stroke="rgb(0, 0, 0)" stroke-linejoin="miter" d=" M 363.692, 379.073 365.734, 381.198 367.316, 383.691 368.497, 386.593 369.339, 389.943 369.900, 393.781 370.240, 398.145 370.777, 408.130 371.313, 418.116 371.850, 428.101 372.387, 438.087 372.924, 448.073 373.460, 458.058 373.997, 468.044 374.534, 478.029 375.071, 488.015 375.250, 491.352 375.266, 492.500 375.190, 493.544 375.027, 494.486 374.785, 495.331 374.469, 496.082 374.086, 496.742 373.643, 497.314 373.145, 497.801 372.600, 498.208 372.012, 498.536 371.389, 498.790 370.737, 498.973 369.967, 499.089 369.199, 499.100 368.426, 499.010 367.637, 498.827 366.824, 498.557 365.978, 498.207 365.089, 497.782 364.149, 497.290 363.148, 496.737 362.076, 496.129 360.926, 495.473 359.686, 494.775 351.873, 488.535 344.059, 482.294 336.245, 476.053 328.432, 469.812 321.115, 463.968 313.911, 458.214 306.098, 451.974 298.284, 445.733 290.470, 439.492 282.657, 433.251 274.843, 427.011 267.029, 420.770 263.519, 417.966 262.084, 416.804 260.719, 415.665 259.433, 414.545 258.235, 413.443 " />
            <path fill="none" stroke-width="3.0" stroke-linecap="butt" stroke-opacity="1.0" stroke="rgb(0, 0, 0)" stroke-linejoin="miter" d=" M 307.609, 482.459 308.372, 483.450 308.944, 484.518 309.324, 485.658 309.513, 486.863 309.510, 488.126 309.314, 489.443 308.927, 490.807 308.346, 492.212 307.572, 493.652 306.604, 495.120 300.862, 503.307 295.119, 511.494 289.377, 519.681 283.634, 527.868 277.892, 536.054 272.149, 544.241 266.407, 552.428 260.664, 560.615 254.922, 568.802 253.627, 570.647 248.152, 578.453 242.409, 586.640 236.666, 594.827 230.924, 603.014 225.181, 611.201 219.439, 619.387 213.696, 627.574 207.954, 635.761 205.582, 639.142 203.036, 642.686 200.417, 646.154 197.681, 649.555 194.785, 652.898 191.684, 656.191 188.334, 659.443 184.690, 662.664 180.706, 665.864 176.337, 669.051 171.536, 672.235 166.257, 675.428 160.449, 678.638 158.988, 679.457 157.430, 680.315 155.821, 681.215 154.206, 682.157 152.631, 683.143 151.142, 684.175 149.784, 685.255 148.604, 686.383 147.647, 687.562 146.961, 688.792 146.591, 690.074 146.582, 691.410 146.865, 692.401 " />
            <path fill="none" stroke-width="3.0" stroke-linecap="butt" stroke-opacity="1.0" stroke="rgb(0, 0, 0)" stroke-linejoin="miter" d=" M 294.649, 635.260 293.851, 634.236 293.287, 633.096 292.951, 631.841 292.919, 630.787 292.996, 629.685 293.181, 628.535 293.471, 627.334 293.866, 626.083 294.364, 624.780 294.963, 623.425 295.661, 622.015 296.456, 620.552 297.348, 619.032 298.334, 617.456 299.412, 615.822 299.503, 615.688 305.097, 607.399 310.691, 599.110 310.990, 598.667 316.584, 590.378 322.178, 582.089 327.772, 573.800 333.366, 565.511 333.630, 565.120 339.224, 556.831 344.818, 548.542 350.412, 540.253 356.006, 531.964 361.818, 523.353 362.737, 521.997 363.645, 520.751 364.540, 519.614 365.423, 518.585 366.293, 517.661 367.150, 516.843 367.995, 516.127 368.826, 515.513 369.644, 514.999 370.449, 514.584 371.240, 514.267 372.018, 514.044 372.671, 513.942 373.304, 513.936 373.911, 514.031 374.487, 514.227 375.024, 514.529 375.518, 514.940 " />
            <path fill="none" stroke-width="3.0" stroke-linecap="butt" stroke-opacity="1.0" stroke="rgb(0, 0, 0)" stroke-linejoin="miter" d=" M 375.518, 514.940 375.962, 515.461 376.350, 516.095 376.676, 516.846 376.934, 517.716 377.119, 518.707 377.224, 519.824 377.567, 526.234 377.903, 532.604 378.228, 538.938 378.538, 545.239 378.827, 551.513 379.094, 557.764 379.332, 563.996 379.537, 570.212 379.707, 576.419 379.836, 582.619 379.921, 588.816 379.957, 595.016 379.915, 598.640 379.764, 601.895 379.436, 604.840 378.860, 607.537 377.969, 610.044 376.694, 612.421 374.966, 614.726 372.715, 617.019 369.870, 619.359 366.360, 621.805 362.112, 624.417 357.052, 627.256 355.782, 627.999 354.516, 628.755 353.275, 629.531 352.080, 630.333 350.954, 631.168 349.918, 632.043 348.995, 632.967 348.206, 633.944 347.574, 634.983 347.120, 636.090 346.866, 637.272 346.834, 638.535 347.030, 639.479 347.465, 640.301 348.114, 641.004 348.951, 641.589 349.949, 642.056 351.083, 642.407 352.326, 642.643 353.653, 642.767 355.038, 642.778 356.456, 642.679 357.880, 642.471 359.285, 642.155 365.891, 640.333 372.074, 638.511 377.874, 636.703 383.331, 634.919 388.482, 633.173 393.365, 631.478 398.018, 629.844 402.476, 628.286 406.774, 626.815 410.948, 625.445 415.033, 624.187 419.061, 623.056 423.108, 622.061 427.063, 621.229 430.992, 620.513 434.959, 619.868 439.030, 619.250 443.268, 618.613 447.738, 617.914 452.501, 617.107 457.620, 616.150 463.155, 614.998 469.167, 613.610 475.714, 611.942 476.930, 611.547 478.179, 611.009 479.437, 610.347 480.675, 609.580 481.867, 608.729 482.985, 607.812 484.003, 606.849 484.893, 605.858 485.630, 604.860 486.185, 603.874 486.531, 602.917 486.642, 602.011 486.548, 600.903 486.311, 599.913 485.932, 599.037 485.414, 598.275 484.759, 597.624 477.380, 590.875 470.000, 584.127 462.621, 577.378 455.242, 570.629 451.457, 567.168 " />
            <path fill="none" stroke-width="3.0" stroke-linecap="butt" stroke-opacity="1.0" stroke="rgb(0, 0, 0)" stroke-linejoin="miter" d=" M 484.759, 597.624 483.971, 597.083 483.051, 596.648 482.003, 596.319 480.828, 596.094 479.529, 595.971 478.108, 595.946 476.568, 596.020 471.803, 596.255 467.674, 596.250 464.139, 595.980 461.156, 595.417 458.680, 594.536 456.668, 593.311 " />
            <path fill="none" stroke-width="3.0" stroke-linecap="butt" stroke-opacity="1.0" stroke="rgb(0, 0, 0)" stroke-linejoin="miter" d=" M 321.227, 641.430 320.618, 640.723 319.902, 640.122 319.080, 639.626 318.157, 639.232 317.135, 638.939 316.015, 638.743 314.803, 638.644 313.499, 638.638 310.289, 638.819 307.373, 638.854 304.744, 638.745 302.396, 638.496 300.323, 638.110 298.518, 637.591 296.975, 636.940 295.688, 636.162 294.649, 635.260 " />
            <path fill="none" stroke-width="3.0" stroke-linecap="butt" stroke-opacity="1.0" stroke="rgb(0, 0, 0)" stroke-linejoin="miter" d=" M 310.990, 598.667 317.580, 606.188 324.169, 613.710 330.759, 621.232 337.349, 628.754 343.938, 636.276 347.465, 640.301 " />
        </g>
    </g>
</svg>
