<?xml version='1.0' encoding='ascii'?>
<svg xmlns="http://www.w3.org/2000/svg" version="1.1" width="1080" height="1080">
    <g id="View Layer_LineSet" xmlns:inkscape="http://www.inkscape.org/namespaces/inkscape" inkscape:groupmode="lineset" inkscape:label="View Layer_LineSet">
        <g xmlns:inkscape="http://www.inkscape.org/namespaces/inkscape" inkscape:groupmode="layer" id="strokes" inkscape:label="strokes">
            <path fill="none" stroke-width="3.0" stroke-linecap="butt" stroke-opacity="1.0" stroke="rgb(0, 0, 0)" stroke-linejoin="miter" d=" M 465.239, 592.928 463.736, 591.399 462.584, 589.457 461.741, 587.077 461.162, 584.235 460.803, 580.904 460.621, 577.059 460.524, 573.449 460.258, 563.453 459.992, 553.456 459.725, 543.460 459.459, 533.463 459.193, 523.467 458.926, 513.470 458.660, 503.474 458.394, 493.478 458.127, 483.481 457.861, 473.485 457.595, 463.488 457.328, 453.492 457.062, 443.495 456.796, 433.499 456.529, 423.502 456.263, 413.506 455.997, 403.509 455.730, 393.513 455.453, 383.116 455.448, 378.477 455.720, 374.305 456.306, 370.549 457.245, 367.153 458.573, 364.063 460.328, 361.224 462.544, 358.580 465.259, 356.074 468.505, 353.651 472.317, 351.253 476.727, 348.825 481.765, 346.311 482.935, 345.666 484.015, 344.963 485.003, 344.201 485.896, 343.378 486.692, 342.494 487.388, 341.547 487.981, 340.536 488.469, 339.460 488.848, 338.318 489.116, 337.108 489.271, 335.829 489.308, 334.481 489.211, 333.490 488.962, 332.593 488.579, 331.793 488.078, 331.090 487.476, 330.486 486.790, 329.981 486.038, 329.578 477.044, 325.206 468.050, 320.834 459.057, 316.462 450.063, 312.090 441.069, 307.718 432.076, 303.346 423.082, 298.974 414.088, 294.602 405.095, 290.230 399.670, 287.593 398.893, 287.298 398.087, 287.098 397.268, 286.997 396.453, 286.994 395.658, 287.093 391.198, 287.991 386.431, 289.023 381.421, 290.164 376.229, 291.387 370.919, 292.664 365.556, 293.967 360.204, 295.269 354.932, 296.541 349.805, 297.756 344.891, 298.884 340.261, 299.896 335.984, 300.763 331.719, 301.549 326.932, 302.373 321.715, 303.229 316.159, 304.112 310.359, 305.017 304.408, 305.936 298.403, 306.865 292.443, 307.797 286.629, 308.726 281.061, 309.644 275.845, 310.545 271.085, 311.422 270.054, 311.668 269.104, 311.993 268.240, 312.398 267.463, 312.882 266.777, 313.444 266.186, 314.083 265.692, 314.799 265.299, 315.592 265.009, 316.460 264.825, 317.402 264.752, 318.419 264.790, 319.508 264.970, 320.877 265.258, 322.066 265.653, 323.090 266.154, 323.965 266.757, 324.704 267.461, 325.323 268.265, 325.836 276.834, 330.992 285.402, 336.147 293.971, 341.302 302.705, 346.557 311.274, 351.713 319.843, 356.868 328.411, 362.024 336.980, 367.179 345.549, 372.334 347.339, 373.411 348.277, 373.846 349.318, 374.196 350.458, 374.478 351.694, 374.707 353.026, 374.900 358.893, 375.502 363.945, 376.249 368.249, 377.181 371.870, 378.338 373.838, 379.271 374.872, 379.761 " />
            <path fill="none" stroke-width="3.0" stroke-linecap="butt" stroke-opacity="1.0" stroke="rgb(0, 0, 0)" stroke-linejoin="miter" d=" M 373.321, 497.955 365.525, 491.691 357.730, 485.427 349.935, 479.164 342.139, 472.900 334.344, 466.637 326.549, 460.373 318.753, 454.109 310.958, 447.846 307.912, 445.398 300.116, 439.134 292.321, 432.871 284.526, 426.607 281.224, 423.954 279.842, 422.828 278.528, 421.722 277.290, 420.634 276.137, 419.560 275.077, 418.496 274.119, 417.440 273.270, 416.387 272.540, 415.334 271.937, 414.278 271.469, 413.215 271.144, 412.142 270.972, 411.056 270.978, 409.351 271.289, 407.637 271.907, 405.919 272.833, 404.198 274.070, 402.475 275.617, 400.754 277.477, 399.035 279.650, 397.321 282.137, 395.614 284.937, 393.916 288.051, 392.229 291.478, 390.554 292.809, 389.844 294.031, 389.074 295.141, 388.243 296.137, 387.349 297.015, 386.393 297.772, 385.372 298.404, 384.286 298.909, 383.133 299.282, 381.912 299.522, 380.622 299.624, 379.261 299.585, 377.828 299.409, 376.778 299.062, 375.832 298.563, 374.990 297.933, 374.255 297.190, 373.626 288.748, 368.266 280.306, 362.906 271.864, 357.545 263.422, 352.185 254.980, 346.825 246.538, 341.465 238.096, 336.104 229.654, 330.744 220.706, 325.063 219.906, 324.563 219.039, 324.162 218.124, 323.863 217.182, 323.666 216.229, 323.573 215.287, 323.584 214.373, 323.702 204.553, 325.591 194.733, 327.479 184.913, 329.368 181.860, 329.955 174.076, 331.424 166.446, 332.813 158.908, 334.145 151.399, 335.440 143.853, 336.722 136.204, 338.013 128.384, 339.336 120.324, 340.713 111.953, 342.170 103.200, 343.729 93.988, 345.417 84.243, 347.257 82.652, 347.613 81.078, 348.068 79.548, 348.617 78.087, 349.256 76.722, 349.979 75.477, 350.781 74.380, 351.657 73.456, 352.603 72.731, 353.612 72.231, 354.681 71.982, 355.803 72.010, 356.972 72.404, 358.418 73.107, 359.664 74.076, 360.724 81.803, 367.072 89.529, 373.421 97.256, 379.769 104.982, 386.117 112.708, 392.466 120.435, 398.814 128.161, 405.163 135.888, 411.511 140.705, 415.469 141.965, 416.399 143.427, 417.152 145.045, 417.742 146.777, 418.186 148.580, 418.497 150.410, 418.693 152.224, 418.787 153.981, 418.796 155.637, 418.734 164.733, 418.044 173.292, 417.768 181.348, 417.876 188.935, 418.339 196.084, 419.128 202.828, 420.215 209.197, 421.571 215.222, 423.170 220.931, 424.985 226.356, 426.988 231.523, 429.154 236.462, 431.457 243.964, 435.317 249.610, 438.473 251.329, 439.434 258.574, 443.768 265.721, 448.275 272.786, 452.916 279.789, 457.649 286.748, 462.436 293.680, 467.237 297.849, 470.113 300.605, 472.015 307.539, 476.732 313.184, 480.479 314.499, 481.352 321.503, 485.839 322.601, 486.620 " />
            <path fill="none" stroke-width="3.0" stroke-linecap="butt" stroke-opacity="1.0" stroke="rgb(0, 0, 0)" stroke-linejoin="miter" d=" M 302.705, 346.557 302.885, 347.657 303.283, 351.744 304.020, 361.717 304.757, 371.689 305.493, 381.662 306.230, 391.635 306.967, 401.608 307.703, 411.581 308.440, 421.554 309.177, 431.526 309.747, 439.254 309.786, 440.335 309.738, 441.319 309.609, 442.209 309.406, 443.007 309.134, 443.718 308.800, 444.345 308.408, 444.889 307.966, 445.355 307.912, 445.398 " />
            <path fill="none" stroke-width="3.0" stroke-linecap="butt" stroke-opacity="1.0" stroke="rgb(0, 0, 0)" stroke-linejoin="miter" d=" M 249.610, 438.473 249.332, 439.569 248.829, 440.901 248.151, 442.268 247.296, 443.665 241.834, 452.042 236.372, 460.419 230.910, 468.795 225.448, 477.172 219.986, 485.548 214.524, 493.925 209.062, 502.301 203.600, 510.678 198.138, 519.055 192.677, 527.431 187.215, 535.808 181.753, 544.184 176.291, 552.561 170.829, 560.937 165.367, 569.314 159.905, 577.691 157.392, 581.544 155.112, 584.957 152.762, 588.300 150.304, 591.582 147.696, 594.812 144.899, 597.998 141.870, 601.151 138.570, 604.280 134.955, 607.394 130.985, 610.503 126.616, 613.619 121.803, 616.750 116.503, 619.908 115.170, 620.713 113.748, 621.558 112.279, 622.443 110.805, 623.369 109.368, 624.337 108.011, 625.347 106.776, 626.400 105.705, 627.497 104.842, 628.639 104.228, 629.825 103.906, 631.057 103.919, 632.333 104.195, 633.276 104.724, 634.100 111.234, 641.692 117.743, 649.283 124.252, 656.874 130.762, 664.466 137.271, 672.057 143.780, 679.648 150.290, 687.240 156.799, 694.831 163.308, 702.423 168.112, 708.025 168.922, 708.742 169.996, 709.308 171.328, 709.715 172.916, 709.954 174.756, 710.017 176.844, 709.898 179.176, 709.588 181.749, 709.079 184.559, 708.365 187.601, 707.437 194.720, 705.039 201.811, 702.545 208.880, 699.974 215.931, 697.348 222.968, 694.686 229.995, 692.007 237.016, 689.333 244.034, 686.682 251.053, 684.074 258.076, 681.529 265.105, 679.066 272.143, 676.704 277.441, 675.011 282.570, 673.447 287.557, 671.987 292.430, 670.609 297.215, 669.287 301.938, 667.999 306.626, 666.722 311.304, 665.432 315.999, 664.108 320.735, 662.725 325.538, 661.263 330.432, 659.698 331.285, 659.367 332.147, 658.933 333.003, 658.407 333.835, 657.799 334.625, 657.118 335.357, 656.374 336.014, 655.577 336.578, 654.737 337.032, 653.864 337.360, 652.968 337.543, 652.058 337.566, 651.144 337.423, 649.987 337.167, 648.953 336.799, 648.036 336.323, 647.237 335.740, 646.552 328.293, 639.878 320.846, 633.205 313.398, 626.531 313.133, 626.293 " />
            <path fill="none" stroke-width="3.0" stroke-linecap="butt" stroke-opacity="1.0" stroke="rgb(0, 0, 0)" stroke-linejoin="miter" d=" M 486.038, 329.578 485.235, 329.277 484.399, 329.079 483.547, 328.987 482.696, 329.001 481.864, 329.123 477.184, 330.175 472.179, 331.380 466.915, 332.706 461.457, 334.123 455.873, 335.601 450.230, 337.109 444.598, 338.617 439.047, 340.091 433.648, 341.502 428.473, 342.814 423.597, 343.998 419.093, 345.018 414.601, 345.951 409.560, 346.936 404.066, 347.965 398.214, 349.030 392.102, 350.124 385.829, 351.239 379.497, 352.364 373.210, 353.492 367.072, 354.615 361.193, 355.721 355.681, 356.801 350.648, 357.847 349.557, 358.133 348.549, 358.503 347.629, 358.958 346.799, 359.495 346.064, 360.114 345.426, 360.815 344.889, 361.596 344.721, 361.931 344.456, 362.457 344.130, 363.397 343.915, 364.415 343.813, 365.510 343.828, 366.682 343.985, 368.150 344.261, 369.423 344.653, 370.516 345.159, 371.445 345.777, 372.227 346.505, 372.877 347.339, 373.411 " />
            <path fill="none" stroke-width="3.0" stroke-linecap="butt" stroke-opacity="1.0" stroke="rgb(0, 0, 0)" stroke-linejoin="miter" d=" M 297.190, 373.626 296.355, 373.105 295.448, 372.693 294.488, 372.390 293.496, 372.199 292.491, 372.119 291.495, 372.152 290.526, 372.300 280.752, 374.410 270.977, 376.521 261.202, 378.631 255.973, 379.760 247.691, 381.519 239.569, 383.189 231.542, 384.795 223.542, 386.363 215.499, 387.917 207.342, 389.485 198.999, 391.091 190.394, 392.763 181.452, 394.529 172.095, 396.415 162.242, 398.452 152.460, 400.529 151.810, 400.667 150.105, 401.089 148.417, 401.618 146.773, 402.248 145.202, 402.972 143.730, 403.786 142.386, 404.683 141.198, 405.656 140.193, 406.701 139.400, 407.810 138.847, 408.977 138.560, 410.197 138.568, 411.461 138.962, 413.015 139.689, 414.346 140.705, 415.469 " />
            <path fill="none" stroke-width="3.0" stroke-linecap="butt" stroke-opacity="1.0" stroke="rgb(0, 0, 0)" stroke-linejoin="miter" d=" M 374.872, 379.761 377.315, 381.488 379.259, 383.560 380.762, 386.016 381.884, 388.894 382.681, 392.234 383.210, 396.072 383.528, 400.446 384.023, 410.434 384.518, 420.421 385.013, 430.409 385.508, 440.397 386.004, 450.385 386.499, 460.372 386.994, 470.360 387.489, 480.348 387.984, 490.335 388.163, 493.929 388.176, 495.082 388.102, 496.134 387.946, 497.087 387.714, 497.946 387.412, 498.712 387.046, 499.389 386.623, 499.981 386.148, 500.490 385.628, 500.919 385.067, 501.271 384.474, 501.550 383.852, 501.758 383.118, 501.904 382.386, 501.944 381.649, 501.883 380.897, 501.729 380.123, 501.488 379.317, 501.168 378.470, 500.775 377.574, 500.315 376.620, 499.797 375.599, 499.226 374.502, 498.610 373.321, 497.955 " />
            <path fill="none" stroke-width="3.0" stroke-linecap="butt" stroke-opacity="1.0" stroke="rgb(0, 0, 0)" stroke-linejoin="miter" d=" M 322.601, 486.620 323.516, 487.499 324.247, 488.469 324.793, 489.525 325.157, 490.660 325.336, 491.868 325.331, 493.143 325.141, 494.478 324.767, 495.868 324.208, 497.307 323.463, 498.788 322.532, 500.306 317.072, 508.683 315.175, 511.594 309.715, 519.971 304.255, 528.349 298.795, 536.727 293.335, 545.105 287.875, 553.483 282.415, 561.860 276.955, 570.238 271.495, 578.616 267.230, 585.159 261.770, 593.537 260.230, 595.900 254.770, 604.278 249.310, 612.655 243.850, 621.033 238.390, 629.411 232.930, 637.789 227.470, 646.166 224.818, 650.235 222.341, 653.948 219.793, 657.590 217.131, 661.169 214.312, 664.698 211.293, 668.187 208.031, 671.648 204.482, 675.093 200.602, 678.533 196.345, 681.980 191.665, 685.448 186.515, 688.948 180.849, 692.494 179.423, 693.398 177.902, 694.347 176.331, 695.341 174.753, 696.378 173.214, 697.459 171.759, 698.582 170.431, 699.747 169.277, 700.954 168.341, 702.200 167.669, 703.486 167.305, 704.809 167.294, 706.169 167.568, 707.165 168.112, 708.025 " />
            <path fill="none" stroke-width="3.0" stroke-linecap="butt" stroke-opacity="1.0" stroke="rgb(0, 0, 0)" stroke-linejoin="miter" d=" M 310.827, 642.223 310.062, 641.227 309.523, 640.100 309.201, 638.848 309.172, 637.786 309.248, 636.670 309.427, 635.499 309.709, 634.274 310.090, 632.993 310.571, 631.655 311.148, 630.260 311.821, 628.806 312.588, 627.292 313.133, 626.293 313.447, 625.718 314.397, 624.083 315.435, 622.386 320.736, 613.907 322.481, 611.116 327.782, 602.637 333.084, 594.158 338.385, 585.678 343.686, 577.199 348.987, 568.720 352.561, 563.002 357.863, 554.523 363.164, 546.044 368.465, 537.564 373.766, 529.085 375.311, 526.614 376.191, 525.214 377.058, 523.926 377.914, 522.747 378.757, 521.678 379.588, 520.716 380.406, 519.859 381.154, 519.162 381.213, 519.107 382.006, 518.458 382.786, 517.910 383.554, 517.461 384.309, 517.111 385.050, 516.858 385.672, 516.730 386.275, 516.700 386.854, 516.771 387.402, 516.947 387.913, 517.229 " />
            <path fill="none" stroke-width="3.0" stroke-linecap="butt" stroke-opacity="1.0" stroke="rgb(0, 0, 0)" stroke-linejoin="miter" d=" M 387.913, 517.229 388.383, 517.622 388.805, 518.129 389.173, 518.751 389.483, 519.493 389.728, 520.357 389.902, 521.347 390.001, 522.464 390.318, 528.892 390.628, 535.280 390.680, 536.376 390.751, 537.871 390.929, 541.632 391.214, 547.951 391.481, 554.244 391.725, 560.515 391.943, 566.767 392.129, 573.005 392.282, 579.235 392.396, 585.460 392.467, 591.685 392.492, 597.913 392.448, 601.557 392.299, 604.834 391.982, 607.809 391.430, 610.545 390.578, 613.103 389.360, 615.548 387.710, 617.941 385.562, 620.346 382.847, 622.824 379.496, 625.440 375.441, 628.257 370.608, 631.339 369.395, 632.144 368.184, 632.962 366.998, 633.798 365.855, 634.658 364.778, 635.550 363.788, 636.478 362.904, 637.449 362.149, 638.469 361.544, 639.544 361.108, 640.679 360.864, 641.880 360.832, 643.153 361.017, 644.094 361.432, 644.903 362.051, 645.581 362.849, 646.131 363.802, 646.556 364.885, 646.858 366.072, 647.039 367.340, 647.103 368.662, 647.051 370.015, 646.887 371.375, 646.613 372.717, 646.231 379.022, 644.097 384.919, 641.985 390.448, 639.904 395.646, 637.865 400.551, 635.879 405.198, 633.956 409.623, 632.108 413.861, 630.344 417.945, 628.676 421.910, 627.116 425.787, 625.673 429.610, 624.360 433.448, 623.183 437.197, 622.174 440.919, 621.283 444.677, 620.463 448.530, 619.664 452.541, 618.840 456.768, 617.943 461.271, 616.927 466.107, 615.745 471.335, 614.351 477.009, 612.700 483.185, 610.747 484.330, 610.300 485.509, 609.707 486.695, 608.991 487.862, 608.171 488.986, 607.269 490.040, 606.304 491.000, 605.298 491.840, 604.269 492.534, 603.240 493.058, 602.230 493.386, 601.260 493.491, 600.349 493.405, 599.246 493.182, 598.267 492.826, 597.408 492.339, 596.669 491.724, 596.046 483.625, 590.180 475.526, 584.314 467.427, 578.449 460.524, 573.449 " />
            <path fill="none" stroke-width="3.0" stroke-linecap="butt" stroke-opacity="1.0" stroke="rgb(0, 0, 0)" stroke-linejoin="miter" d=" M 491.724, 596.046 490.983, 595.538 490.117, 595.143 489.130, 594.859 488.023, 594.684 486.800, 594.616 485.461, 594.652 484.010, 594.791 479.518, 595.229 475.624, 595.400 472.289, 595.280 469.474, 594.844 467.138, 594.068 465.239, 592.928 " />
            <path fill="none" stroke-width="3.0" stroke-linecap="butt" stroke-opacity="1.0" stroke="rgb(0, 0, 0)" stroke-linejoin="miter" d=" M 335.740, 646.552 335.054, 645.979 334.268, 645.516 333.384, 645.161 332.404, 644.912 331.331, 644.765 330.169, 644.720 328.919, 644.774 325.839, 645.103 323.041, 645.271 320.517, 645.281 318.264, 645.138 316.274, 644.843 314.541, 644.400 313.060, 643.814 311.825, 643.087 310.827, 642.223 " />
            <path fill="none" stroke-width="3.0" stroke-linecap="butt" stroke-opacity="1.0" stroke="rgb(0, 0, 0)" stroke-linejoin="miter" d=" M 322.481, 611.116 330.022, 617.684 337.563, 624.252 345.103, 630.820 352.644, 637.388 360.185, 643.956 362.051, 645.581 " />
        </g>
    </g>
</svg>
