<?xml version='1.0' encoding='ascii'?>
<svg xmlns="http://www.w3.org/2000/svg" version="1.1" width="1080" height="1080">
    <g id="View Layer_LineSet" xmlns:inkscape="http://www.inkscape.org/namespaces/inkscape" inkscape:groupmode="lineset" inkscape:label="View Layer_LineSet">
        <g xmlns:inkscape="http://www.inkscape.org/namespaces/inkscape" inkscape:groupmode="layer" id="strokes" inkscape:label="strokes">
            <path fill="none" stroke-width="3.0" stroke-linecap="butt" stroke-opacity="1.0" stroke="rgb(0, 0, 0)" stroke-linejoin="miter" d=" M 475.360, 593.237 473.592, 592.174 472.192, 590.707 471.121, 588.811 470.337, 586.465 469.801, 583.644 469.470, 580.326 469.333, 577.158 469.304, 576.487 469.067, 566.489 468.830, 556.492 468.593, 546.495 468.355, 536.498 468.118, 526.501 467.881, 516.503 467.644, 506.506 467.407, 496.509 467.170, 486.512 466.932, 476.515 466.695, 466.518 466.458, 456.520 466.221, 446.523 465.984, 436.526 465.747, 426.529 465.509, 416.532 465.272, 406.534 465.035, 396.537 464.798, 386.540 464.706, 382.658 464.706, 378.018 464.965, 373.837 465.515, 370.063 466.394, 366.639 467.636, 363.510 469.275, 360.620 471.344, 357.912 473.876, 355.328 476.902, 352.812 480.454, 350.307 484.560, 347.755 489.250, 345.100 490.338, 344.424 491.343, 343.691 492.263, 342.902 493.094, 342.055 493.835, 341.150 494.483, 340.185 495.035, 339.159 495.489, 338.071 495.843, 336.920 496.094, 335.705 496.239, 334.424 496.275, 333.076 496.185, 332.090 495.955, 331.202 495.600, 330.414 495.135, 329.726 494.577, 329.139 493.940, 328.654 493.240, 328.272 483.935, 324.611 474.629, 320.949 465.324, 317.288 456.018, 313.626 446.713, 309.965 437.407, 306.303 428.102, 302.642 418.796, 298.980 409.490, 295.319 400.185, 291.657 393.833, 289.158 393.094, 288.881 392.329, 288.702 391.552, 288.621 390.779, 288.640 390.025, 288.759 385.796, 289.776 381.276, 290.937 376.521, 292.214 371.592, 293.578 366.548, 295.001 361.451, 296.452 356.362, 297.903 351.345, 299.323 346.464, 300.681 341.784, 301.947 337.371, 303.090 333.293, 304.078 329.223, 304.983 324.653, 305.942 319.670, 306.945 314.361, 307.985 308.814, 309.054 303.119, 310.143 297.370, 311.244 291.660, 312.347 286.086, 313.443 280.745, 314.523 275.739, 315.576 271.168, 316.593 270.178, 316.870 269.266, 317.225 268.437, 317.658 267.692, 318.168 267.035, 318.755 266.469, 319.418 265.997, 320.156 265.622, 320.968 265.346, 321.853 265.174, 322.812 265.107, 323.841 265.148, 324.942 265.326, 326.320 265.608, 327.514 265.993, 328.539 266.477, 329.409 267.061, 330.139 267.741, 330.745 268.515, 331.241 277.551, 335.525 286.587, 339.809 295.623, 344.094 300.690, 346.496 309.725, 350.780 318.761, 355.065 327.797, 359.349 336.833, 363.633 345.869, 367.917 354.904, 372.201 363.331, 376.197 364.215, 376.605 365.196, 376.926 366.270, 377.175 367.436, 377.369 368.691, 377.522 369.444, 377.580 374.218, 377.950 378.974, 378.548 383.024, 379.354 386.429, 380.406 " />
            <path fill="none" stroke-width="3.0" stroke-linecap="butt" stroke-opacity="1.0" stroke="rgb(0, 0, 0)" stroke-linejoin="miter" d=" M 387.642, 500.531 379.910, 494.188 375.507, 490.577 367.776, 484.235 360.044, 477.893 352.312, 471.551 344.581, 465.209 336.849, 458.867 329.117, 452.525 321.386, 446.183 313.654, 439.841 308.089, 435.276 300.697, 429.213 299.387, 428.122 298.140, 427.049 296.966, 425.991 295.872, 424.945 294.867, 423.905 293.957, 422.870 293.152, 421.834 292.460, 420.795 291.888, 419.748 291.445, 418.690 291.138, 417.618 290.975, 416.526 290.984, 414.804 291.282, 413.064 291.871, 411.309 292.754, 409.541 293.932, 407.762 295.405, 405.974 297.174, 404.180 299.241, 402.380 301.604, 400.579 304.265, 398.777 305.329, 398.129 307.222, 396.977 310.476, 395.181 311.739, 394.423 312.899, 393.608 313.954, 392.735 314.899, 391.803 315.732, 390.811 316.451, 389.758 317.052, 388.643 317.532, 387.465 317.888, 386.223 318.117, 384.914 318.215, 383.539 318.180, 382.096 318.015, 381.042 317.688, 380.098 317.216, 379.265 316.620, 378.543 315.916, 377.931 315.126, 377.431 306.162, 372.998 303.359, 371.612 294.395, 367.179 285.431, 362.746 276.468, 358.312 267.504, 353.879 258.540, 349.446 249.577, 345.013 240.613, 340.580 231.649, 336.147 221.895, 331.323 221.055, 330.941 220.170, 330.664 219.258, 330.491 218.337, 330.423 217.426, 330.462 216.543, 330.607 206.800, 332.859 197.057, 335.111 187.313, 337.362 185.074, 337.880 177.524, 339.596 170.117, 341.229 162.793, 342.801 155.491, 344.338 148.148, 345.862 140.698, 347.400 133.075, 348.977 125.212, 350.618 117.038, 352.350 108.483, 354.200 99.472, 356.196 89.930, 358.366 88.371, 358.777 86.830, 359.289 85.331, 359.896 83.900, 360.592 82.563, 361.371 81.345, 362.228 80.271, 363.156 79.368, 364.150 78.660, 365.203 78.174, 366.310 77.934, 367.463 77.965, 368.658 78.358, 370.122 79.052, 371.373 80.008, 372.426 81.186, 373.295 89.713, 378.518 98.240, 383.741 106.768, 388.965 115.295, 394.188 123.822, 399.411 132.350, 404.635 140.877, 409.858 149.405, 415.082 157.932, 420.305 166.459, 425.528 167.504, 426.168 168.911, 426.885 170.469, 427.431 172.137, 427.825 173.872, 428.082 175.633, 428.220 177.380, 428.255 179.070, 428.206 180.664, 428.088 189.412, 427.085 197.636, 426.521 205.369, 426.364 212.645, 426.583 219.496, 427.147 225.953, 428.025 232.047, 429.188 236.567, 430.302 237.807, 430.608 243.262, 432.256 248.441, 434.103 253.371, 436.123 258.081, 438.287 265.230, 441.939 272.242, 445.853 " />
            <path fill="none" stroke-width="3.0" stroke-linecap="butt" stroke-opacity="1.0" stroke="rgb(0, 0, 0)" stroke-linejoin="miter" d=" M 300.690, 346.496 301.253, 348.676 301.830, 352.281 302.228, 356.393 302.969, 366.366 303.359, 371.612 " />
            <path fill="none" stroke-width="3.0" stroke-linecap="butt" stroke-opacity="1.0" stroke="rgb(0, 0, 0)" stroke-linejoin="miter" d=" M 236.567, 430.302 240.995, 433.242 247.520, 437.422 248.546, 438.151 249.405, 438.974 250.097, 439.885 250.623, 440.879 250.983, 441.948 251.175, 443.089 251.200, 444.294 251.058, 445.559 250.748, 446.876 250.269, 448.242 249.620, 449.649 248.802, 451.093 243.636, 459.655 238.470, 468.218 233.304, 476.780 228.138, 485.342 222.972, 493.904 217.806, 502.466 212.639, 511.029 207.473, 519.591 202.307, 528.153 197.141, 536.715 191.975, 545.277 186.809, 553.839 181.642, 562.402 176.476, 570.964 171.310, 579.526 166.144, 588.088 162.284, 594.486 160.078, 598.056 157.804, 601.559 155.423, 605.005 152.896, 608.405 150.182, 611.770 147.243, 615.112 144.038, 618.442 140.525, 621.773 136.663, 625.116 132.411, 628.484 127.723, 631.889 122.557, 635.346 121.257, 636.227 119.870, 637.152 118.437, 638.121 116.999, 639.131 115.598, 640.183 114.274, 641.275 113.070, 642.405 112.026, 643.573 111.186, 644.777 110.590, 646.015 110.280, 647.286 110.297, 648.588 110.571, 649.538 111.092, 650.355 111.856, 651.032 119.372, 657.629 126.887, 664.226 134.402, 670.823 141.918, 677.420 149.433, 684.017 156.949, 690.614 164.464, 697.211 171.979, 703.807 179.495, 710.404 187.010, 717.001 192.973, 722.235 194.003, 722.758 195.283, 723.106 196.809, 723.272 198.577, 723.247 200.583, 723.025 202.823, 722.596 205.294, 721.955 207.992, 721.093 210.913, 720.003 217.744, 717.224 224.543, 714.352 231.316, 711.405 238.067, 708.405 244.800, 705.371 251.518, 702.323 258.226, 699.283 264.926, 696.268 271.621, 693.299 278.315, 690.396 285.010, 687.577 291.708, 684.862 296.747, 682.905 301.623, 681.088 306.361, 679.384 310.988, 677.767 315.528, 676.214 320.009, 674.697 324.453, 673.194 328.887, 671.680 333.334, 670.130 337.817, 668.520 342.362, 666.828 346.991, 665.030 347.797, 664.658 348.613, 664.182 349.423, 663.613 350.209, 662.963 350.957, 662.241 351.649, 661.459 352.270, 660.627 352.804, 659.755 353.235, 658.856 353.545, 657.938 353.720, 657.013 353.743, 656.091 353.609, 654.933 353.368, 653.902 353.022, 652.996 352.573, 652.212 352.024, 651.548 351.377, 651.002 343.203, 645.241 335.030, 639.480 329.159, 635.342 " />
            <path fill="none" stroke-width="3.0" stroke-linecap="butt" stroke-opacity="1.0" stroke="rgb(0, 0, 0)" stroke-linejoin="miter" d=" M 493.240, 328.272 492.494, 327.993 491.718, 327.819 490.926, 327.751 490.135, 327.788 489.360, 327.932 485.006, 329.113 480.347, 330.454 475.444, 331.924 470.358, 333.493 465.151, 335.126 459.886, 336.792 454.628, 338.458 449.443, 340.090 444.397, 341.654 439.558, 343.115 434.996, 344.439 430.779, 345.589 426.573, 346.652 421.851, 347.784 416.700, 348.973 411.211, 350.209 405.475, 351.483 399.584, 352.782 393.633, 354.095 387.720, 355.411 381.945, 356.717 376.409, 358.000 371.216, 359.247 366.472, 360.446 365.442, 360.766 364.492, 361.168 363.624, 361.652 362.841, 362.216 362.146, 362.861 361.544, 363.584 361.036, 364.386 360.627, 365.265 360.318, 366.221 360.114, 367.251 360.044, 368.038 360.016, 368.356 360.029, 369.533 360.175, 371.006 360.433, 372.278 360.802, 373.365 361.278, 374.285 361.860, 375.053 362.545, 375.685 363.331, 376.197 " />
            <path fill="none" stroke-width="3.0" stroke-linecap="butt" stroke-opacity="1.0" stroke="rgb(0, 0, 0)" stroke-linejoin="miter" d=" M 315.126, 377.431 314.266, 377.043 313.356, 376.767 312.416, 376.604 311.463, 376.554 310.518, 376.618 309.599, 376.796 303.855, 378.298 294.181, 380.827 284.506, 383.357 276.752, 385.384 268.861, 387.418 261.116, 389.358 253.456, 391.233 245.814, 393.069 238.126, 394.895 230.321, 396.739 222.332, 398.630 214.084, 400.598 205.506, 402.673 199.513, 404.149 198.537, 404.389 196.521, 404.886 187.049, 407.269 177.365, 409.764 177.011, 409.856 175.369, 410.340 173.743, 410.932 172.159, 411.625 170.644, 412.412 169.225, 413.287 167.929, 414.242 166.782, 415.271 165.813, 416.366 165.047, 417.519 164.511, 418.724 164.233, 419.974 164.238, 421.259 164.616, 422.827 165.314, 424.156 166.291, 425.264 167.504, 426.168 " />
            <path fill="none" stroke-width="3.0" stroke-linecap="butt" stroke-opacity="1.0" stroke="rgb(0, 0, 0)" stroke-linejoin="miter" d=" M 386.429, 380.406 389.250, 381.744 391.545, 383.404 393.370, 385.425 394.780, 387.845 395.830, 390.700 396.575, 394.029 397.067, 397.866 397.360, 402.247 397.812, 412.237 398.264, 422.227 398.715, 432.216 399.167, 442.206 399.619, 452.196 400.071, 462.186 400.523, 472.175 400.974, 482.165 401.426, 492.155 401.598, 495.946 401.609, 497.104 401.538, 498.162 401.390, 499.125 401.171, 499.995 400.886, 500.775 400.542, 501.469 400.144, 502.079 399.697, 502.607 399.208, 503.057 398.681, 503.432 398.123, 503.733 397.538, 503.965 396.848, 504.139 396.160, 504.205 395.468, 504.171 394.762, 504.044 394.034, 503.831 393.276, 503.539 392.481, 503.175 391.639, 502.747 390.742, 502.261 389.783, 501.725 388.752, 501.146 387.642, 500.531 " />
            <path fill="none" stroke-width="3.0" stroke-linecap="butt" stroke-opacity="1.0" stroke="rgb(0, 0, 0)" stroke-linejoin="miter" d=" M 272.242, 445.853 279.135, 449.986 285.929, 454.296 292.640, 458.739 299.287, 463.276 305.887, 467.864 311.174, 471.566 312.458, 472.465 319.017, 477.039 325.579, 481.549 332.163, 485.957 338.783, 490.225 339.820, 490.972 340.684, 491.825 341.374, 492.776 341.889, 493.820 342.231, 494.950 342.399, 496.160 342.392, 497.444 342.211, 498.796 341.856, 500.210 341.325, 501.680 340.619, 503.199 339.737, 504.763 334.599, 513.342 329.462, 521.922 324.325, 530.501 319.188, 539.081 315.367, 545.462 310.229, 554.041 305.092, 562.621 299.955, 571.200 298.877, 573.000 293.740, 581.579 289.265, 589.053 284.128, 597.632 281.614, 601.830 276.476, 610.410 276.142, 610.968 271.005, 619.548 265.868, 628.127 260.730, 636.707 255.593, 645.286 250.456, 653.866 246.635, 660.246 244.263, 664.121 241.821, 667.926 239.270, 671.676 236.568, 675.382 233.675, 679.059 230.547, 682.719 227.144, 686.378 223.422, 690.049 219.337, 693.747 214.845, 697.487 209.900, 701.284 204.456, 705.154 203.085, 706.141 201.623, 707.177 200.113, 708.261 198.596, 709.391 197.116, 710.562 195.715, 711.774 194.438, 713.021 193.326, 714.303 192.425, 715.615 191.776, 716.954 191.424, 718.317 191.411, 719.700 191.674, 720.698 192.195, 721.546 192.973, 722.235 " />
            <path fill="none" stroke-width="3.0" stroke-linecap="butt" stroke-opacity="1.0" stroke="rgb(0, 0, 0)" stroke-linejoin="miter" d=" M 329.410, 649.120 328.467, 648.293 327.744, 647.322 327.234, 646.210 326.932, 644.961 326.905, 643.890 326.979, 642.761 327.150, 641.573 327.419, 640.325 327.782, 639.016 328.238, 637.646 328.787, 636.213 329.159, 635.342 329.426, 634.717 330.155, 633.158 330.970, 631.533 331.871, 629.843 332.857, 628.087 336.552, 621.637 341.523, 612.960 346.494, 604.283 351.465, 595.606 356.436, 586.929 361.407, 578.252 366.377, 569.576 370.569, 562.260 375.540, 553.583 380.511, 544.906 384.031, 538.760 384.082, 538.671 389.053, 529.994 389.478, 529.253 390.307, 527.813 391.124, 526.486 391.930, 525.270 392.724, 524.163 393.507, 523.165 394.277, 522.274 395.036, 521.488 395.782, 520.806 396.517, 520.226 397.239, 519.747 397.948, 519.367 398.645, 519.085 399.230, 518.933 399.796, 518.880 400.340, 518.930 400.854, 519.085 401.334, 519.350 " />
            <path fill="none" stroke-width="3.0" stroke-linecap="butt" stroke-opacity="1.0" stroke="rgb(0, 0, 0)" stroke-linejoin="miter" d=" M 401.334, 519.350 401.775, 519.727 402.171, 520.220 402.516, 520.831 402.806, 521.564 403.035, 522.423 403.197, 523.409 403.288, 524.528 403.578, 530.970 403.862, 537.371 403.936, 539.096 404.136, 543.737 404.396, 550.071 404.429, 550.927 404.639, 556.379 404.861, 562.665 405.057, 568.934 405.225, 575.190 405.360, 581.439 405.459, 587.685 405.519, 593.932 405.535, 600.186 405.488, 603.846 405.345, 607.143 405.043, 610.144 404.521, 612.914 403.718, 615.520 402.571, 618.027 401.018, 620.501 398.997, 623.009 396.442, 625.616 393.289, 628.389 389.471, 631.395 384.920, 634.703 383.777, 635.566 382.637, 636.441 381.518, 637.333 380.442, 638.249 379.426, 639.192 378.492, 640.169 377.659, 641.185 376.946, 642.244 376.374, 643.351 375.963, 644.512 375.731, 645.731 375.699, 647.014 375.872, 647.952 376.262, 648.747 376.844, 649.402 377.596, 649.920 378.493, 650.305 379.512, 650.560 380.630, 650.690 381.823, 650.698 383.068, 650.587 384.342, 650.362 385.622, 650.026 386.886, 649.582 392.819, 647.158 398.366, 644.776 403.562, 642.442 408.446, 640.167 413.051, 637.959 417.413, 635.826 421.564, 633.779 425.538, 631.826 429.366, 629.976 433.080, 628.240 436.711, 626.627 440.289, 625.146 443.880, 623.802 447.386, 622.630 450.865, 621.579 454.376, 620.596 457.976, 619.632 461.720, 618.637 465.665, 617.559 469.865, 616.351 474.375, 614.963 479.247, 613.348 484.532, 611.457 490.281, 609.246 491.347, 608.751 492.444, 608.109 493.547, 607.344 494.633, 606.476 495.679, 605.527 496.660, 604.519 497.553, 603.473 498.335, 602.411 498.982, 601.354 499.470, 600.324 499.775, 599.341 499.875, 598.427 499.795, 597.329 499.589, 596.359 499.259, 595.516 498.808, 594.797 498.237, 594.201 497.548, 593.724 488.925, 588.661 480.301, 583.598 471.678, 578.535 469.333, 577.158 " />
            <path fill="none" stroke-width="3.0" stroke-linecap="butt" stroke-opacity="1.0" stroke="rgb(0, 0, 0)" stroke-linejoin="miter" d=" M 351.377, 651.002 350.635, 650.570 349.800, 650.252 348.874, 650.044 347.861, 649.945 346.762, 649.951 345.581, 650.061 342.669, 650.529 340.022, 650.823 337.635, 650.946 335.503, 650.901 333.620, 650.692 331.981, 650.323 330.579, 649.798 329.410, 649.120 " />
            <path fill="none" stroke-width="3.0" stroke-linecap="butt" stroke-opacity="1.0" stroke="rgb(0, 0, 0)" stroke-linejoin="miter" d=" M 497.548, 593.724 496.744, 593.365 495.827, 593.122 494.798, 592.993 493.660, 592.975 492.416, 593.066 491.066, 593.265 486.886, 593.887 483.261, 594.219 480.156, 594.236 477.535, 593.917 475.360, 593.237 " />
            <path fill="none" stroke-width="3.0" stroke-linecap="butt" stroke-opacity="1.0" stroke="rgb(0, 0, 0)" stroke-linejoin="miter" d=" M 305.329, 398.129 306.070, 408.102 306.811, 418.074 307.552, 428.047 308.089, 435.276 " />
            <path fill="none" stroke-width="3.0" stroke-linecap="butt" stroke-opacity="1.0" stroke="rgb(0, 0, 0)" stroke-linejoin="miter" d=" M 336.552, 621.637 344.786, 627.311 353.021, 632.986 361.255, 638.660 369.489, 644.334 377.596, 649.920 " />
        </g>
    </g>
</svg>
