<?xml version='1.0' encoding='ascii'?>
<svg xmlns="http://www.w3.org/2000/svg" version="1.1" width="1080" height="1080">
    <g id="View Layer_LineSet" xmlns:inkscape="http://www.inkscape.org/namespaces/inkscape" inkscape:groupmode="lineset" inkscape:label="View Layer_LineSet">
        <g xmlns:inkscape="http://www.inkscape.org/namespaces/inkscape" inkscape:groupmode="layer" id="strokes" inkscape:label="strokes">
            <path fill="none" stroke-width="3.0" stroke-linecap="butt" stroke-opacity="1.0" stroke="rgb(0, 0, 0)" stroke-linejoin="miter" d=" M 479.355, 592.693 477.658, 591.667 476.315, 590.228 475.287, 588.354 474.535, 586.023 474.022, 583.214 473.706, 579.902 473.643, 578.375 473.548, 576.066 473.325, 566.068 473.102, 556.071 472.880, 546.073 472.657, 536.076 472.434, 526.078 472.211, 516.081 471.988, 506.083 471.765, 496.086 471.542, 486.088 471.319, 476.090 471.096, 466.093 470.873, 456.095 470.650, 446.098 470.427, 436.100 470.205, 426.103 469.982, 416.105 469.759, 406.108 469.536, 396.110 469.313, 386.113 469.228, 382.320 469.231, 377.681 469.481, 373.497 470.012, 369.715 470.858, 366.279 472.052, 363.133 473.627, 360.220 475.615, 357.482 478.048, 354.863 480.954, 352.305 484.364, 349.750 488.306, 347.141 492.807, 344.422 493.851, 343.731 494.815, 342.985 495.698, 342.183 496.495, 341.326 497.206, 340.411 497.828, 339.437 498.358, 338.405 498.794, 337.312 499.134, 336.157 499.375, 334.939 499.514, 333.658 499.550, 332.311 499.465, 331.327 499.244, 330.443 498.904, 329.660 498.459, 328.980 497.923, 328.401 497.313, 327.925 496.642, 327.553 495.927, 327.285 486.506, 323.932 477.085, 320.578 467.664, 317.225 458.243, 313.871 448.822, 310.518 439.401, 307.165 429.980, 303.811 420.559, 300.458 411.138, 297.104 401.717, 293.751 392.296, 290.398 390.393, 289.720 389.650, 289.550 388.896, 289.479 388.146, 289.508 387.415, 289.637 383.314, 290.711 378.930, 291.933 374.317, 293.275 369.534, 294.706 364.639, 296.198 359.690, 297.720 354.748, 299.241 349.875, 300.731 345.132, 302.159 340.584, 303.491 336.294, 304.696 332.328, 305.741 328.369, 306.704 323.923, 307.727 319.074, 308.801 313.906, 309.917 308.504, 311.064 302.958, 312.235 297.357, 313.418 291.792, 314.603 286.357, 315.780 281.150, 316.938 276.267, 318.065 271.807, 319.150 270.841, 319.441 269.952, 319.811 269.143, 320.257 268.417, 320.781 267.777, 321.380 267.226, 322.054 266.766, 322.802 266.402, 323.624 266.135, 324.518 265.968, 325.483 265.905, 326.519 265.948, 327.625 266.125, 329.009 266.403, 330.206 266.781, 331.230 267.256, 332.098 267.827, 332.824 268.492, 333.423 269.250, 333.911 270.098, 334.303 279.302, 338.211 288.507, 342.120 297.711, 346.029 300.118, 347.051 309.322, 350.960 318.527, 354.868 327.731, 358.777 336.936, 362.686 346.140, 366.594 355.345, 370.503 364.549, 374.412 367.457, 375.647 372.461, 377.772 373.407, 378.078 374.444, 378.312 375.569, 378.488 376.780, 378.623 382.114, 378.969 386.703, 379.497 390.609, 380.243 393.893, 381.247 " />
            <path fill="none" stroke-width="3.0" stroke-linecap="butt" stroke-opacity="1.0" stroke="rgb(0, 0, 0)" stroke-linejoin="miter" d=" M 399.660, 504.150 398.848, 503.736 397.984, 503.266 397.059, 502.746 396.066, 502.184 394.995, 501.588 387.315, 495.184 379.635, 488.780 373.308, 483.504 365.627, 477.100 357.947, 470.696 350.267, 464.291 342.587, 457.887 334.906, 451.483 327.226, 445.079 319.546, 438.674 311.866, 432.270 311.003, 431.551 309.734, 430.476 308.527, 429.420 307.390, 428.377 307.371, 428.358 306.331, 427.343 305.357, 426.316 304.477, 425.291 303.697, 424.264 303.027, 423.231 302.473, 422.189 302.044, 421.134 301.748, 420.061 301.591, 418.968 301.600, 417.237 301.890, 415.485 302.463, 413.712 303.319, 411.923 304.462, 410.117 305.880, 408.311 305.890, 408.299 307.606, 406.469 309.609, 404.630 311.899, 402.784 314.477, 400.933 317.342, 399.079 320.494, 397.225 321.717, 396.445 322.841, 395.609 323.862, 394.716 324.777, 393.766 325.585, 392.758 326.281, 391.690 326.863, 390.562 327.329, 389.372 327.674, 388.119 327.896, 386.803 327.992, 385.421 327.959, 383.973 327.800, 382.918 327.484, 381.976 327.028, 381.147 326.451, 380.431 325.771, 379.827 325.006, 379.337 324.174, 378.961 315.024, 374.926 305.874, 370.891 303.003, 369.624 293.854, 365.589 284.704, 361.554 275.554, 357.519 266.404, 353.484 257.255, 349.449 248.105, 345.414 238.955, 341.378 229.805, 337.343 222.854, 334.278 221.987, 334.011 221.094, 333.849 220.192, 333.794 219.301, 333.846 218.437, 334.005 208.740, 336.450 199.044, 338.895 189.347, 341.340 187.619, 341.775 180.217, 343.613 172.953, 345.365 165.768, 347.055 158.601, 348.710 151.391, 350.353 144.073, 352.013 136.583, 353.715 128.853, 355.486 120.815, 357.354 112.397, 359.348 103.528, 361.496 94.131, 363.830 92.595, 364.268 91.077, 364.809 89.601, 365.444 88.192, 366.168 86.875, 366.976 85.676, 367.859 84.620, 368.813 83.731, 369.831 83.035, 370.906 82.558, 372.031 82.323, 373.201 82.357, 374.406 82.747, 375.880 83.435, 377.134 84.380, 378.183 85.542, 379.042 94.349, 383.779 103.156, 388.516 111.963, 393.253 120.770, 397.990 129.577, 402.726 138.384, 407.463 147.191, 412.200 155.998, 416.937 164.805, 421.674 173.612, 426.410 181.541, 430.675 182.912, 431.374 184.432, 431.899 186.057, 432.268 187.749, 432.498 189.467, 432.608 191.169, 432.615 192.817, 432.537 194.371, 432.392 202.896, 431.238 210.907, 430.536 218.436, 430.251 225.518, 430.351 232.182, 430.806 233.736, 430.998 238.462, 431.584 244.385, 432.654 249.983, 433.987 255.282, 435.554 260.312, 437.326 265.099, 439.275 269.670, 441.373 " />
            <path fill="none" stroke-width="3.0" stroke-linecap="butt" stroke-opacity="1.0" stroke="rgb(0, 0, 0)" stroke-linejoin="miter" d=" M 300.118, 347.051 300.428, 347.828 301.224, 350.965 301.794, 354.578 302.191, 358.702 302.933, 368.675 303.003, 369.624 " />
            <path fill="none" stroke-width="3.0" stroke-linecap="butt" stroke-opacity="1.0" stroke="rgb(0, 0, 0)" stroke-linejoin="miter" d=" M 233.736, 430.998 236.227, 432.697 242.582, 436.922 248.970, 441.019 249.974, 441.734 250.815, 442.548 251.494, 443.453 252.011, 444.443 252.364, 445.513 252.555, 446.657 252.582, 447.869 252.446, 449.144 252.145, 450.474 251.680, 451.856 251.049, 453.283 250.253, 454.750 245.248, 463.407 240.243, 472.065 235.238, 480.722 230.234, 489.380 225.229, 498.037 220.224, 506.694 215.219, 515.352 210.214, 524.009 205.209, 532.667 200.204, 541.324 195.199, 549.982 190.194, 558.639 185.189, 567.296 180.185, 575.954 175.180, 584.611 170.175, 593.269 165.801, 600.834 163.643, 604.481 161.417, 608.062 159.086, 611.588 156.610, 615.071 153.951, 618.525 151.070, 621.960 147.927, 625.389 144.481, 628.826 140.692, 632.284 136.517, 635.777 131.914, 639.317 126.838, 642.921 125.560, 643.839 124.197, 644.804 122.789, 645.814 121.376, 646.866 119.999, 647.959 118.698, 649.091 117.515, 650.260 116.490, 651.462 115.665, 652.697 115.081, 653.961 114.779, 655.252 114.798, 656.566 115.070, 657.519 115.585, 658.333 116.339, 658.999 124.249, 665.117 132.160, 671.234 140.070, 677.352 147.980, 683.470 155.891, 689.587 163.801, 695.705 171.712, 701.822 179.622, 707.940 187.533, 714.057 195.443, 720.175 203.354, 726.292 206.154, 728.458 207.158, 728.960 208.405, 729.280 209.891, 729.410 211.612, 729.343 213.566, 729.070 215.749, 728.584 218.155, 727.879 220.783, 726.945 223.627, 725.778 230.276, 722.816 236.893, 719.762 243.482, 716.635 250.048, 713.455 256.593, 710.243 263.122, 707.019 269.638, 703.803 276.145, 700.615 282.645, 697.474 289.141, 694.399 295.635, 691.411 302.131, 688.528 307.016, 686.447 311.741, 684.510 316.332, 682.689 320.814, 680.960 325.211, 679.296 329.549, 677.672 333.852, 676.061 338.142, 674.441 342.445, 672.784 346.782, 671.068 351.177, 669.267 355.653, 667.358 356.432, 666.967 357.221, 666.471 358.004, 665.883 358.765, 665.213 359.487, 664.472 360.157, 663.671 360.758, 662.823 361.274, 661.937 361.690, 661.025 361.991, 660.097 362.160, 659.166 362.183, 658.240 362.055, 657.082 361.823, 656.053 361.489, 655.151 361.055, 654.375 360.525, 653.721 359.900, 653.187 351.442, 647.852 342.984, 642.516 337.896, 639.307 " />
            <path fill="none" stroke-width="3.0" stroke-linecap="butt" stroke-opacity="1.0" stroke="rgb(0, 0, 0)" stroke-linejoin="miter" d=" M 495.927, 327.285 495.182, 327.122 494.422, 327.064 493.663, 327.112 492.921, 327.267 488.743, 328.506 484.272, 329.910 479.565, 331.447 474.681, 333.085 469.680, 334.790 464.622, 336.529 459.569, 338.268 454.584, 339.973 449.732, 341.608 445.079, 343.137 440.690, 344.526 436.633, 345.736 432.585, 346.860 428.039, 348.059 423.080, 349.323 417.793, 350.639 412.267, 351.996 406.590, 353.382 400.854, 354.783 395.152, 356.186 389.582, 357.578 384.240, 358.943 379.229, 360.269 374.648, 361.540 373.654, 361.875 372.737, 362.292 371.898, 362.790 371.142, 363.367 370.471, 364.024 369.889, 364.758 369.398, 365.569 369.002, 366.456 368.704, 367.419 368.506, 368.455 368.411, 369.564 368.420, 370.532 368.422, 370.744 368.563, 372.218 368.811, 373.489 369.167, 374.574 369.626, 375.489 370.188, 376.250 370.849, 376.874 371.607, 377.375 372.461, 377.772 " />
            <path fill="none" stroke-width="3.0" stroke-linecap="butt" stroke-opacity="1.0" stroke="rgb(0, 0, 0)" stroke-linejoin="miter" d=" M 324.174, 378.961 323.294, 378.698 322.383, 378.548 321.461, 378.512 320.546, 378.590 319.656, 378.783 310.043, 381.538 304.018, 383.265 294.405, 386.020 287.822, 387.906 280.166, 390.070 272.649, 392.139 265.211, 394.142 257.788, 396.107 250.317, 398.063 242.730, 400.039 234.960, 402.066 226.936, 404.176 218.586, 406.400 209.836, 408.770 207.101, 409.526 203.797, 410.439 200.608, 411.320 190.985, 414.040 190.823, 414.086 189.222, 414.600 187.636, 415.222 186.091, 415.946 184.613, 416.763 183.229, 417.668 181.964, 418.651 180.845, 419.706 179.898, 420.825 179.150, 422.000 178.627, 423.223 178.355, 424.486 178.359, 425.782 178.726, 427.355 179.406, 428.683 180.359, 429.784 181.541, 430.675 " />
            <path fill="none" stroke-width="3.0" stroke-linecap="butt" stroke-opacity="1.0" stroke="rgb(0, 0, 0)" stroke-linejoin="miter" d=" M 393.893, 381.247 396.613, 382.544 398.824, 384.173 400.582, 386.170 401.940, 388.572 402.951, 391.416 403.667, 394.739 404.140, 398.574 404.420, 402.958 404.849, 412.949 405.279, 422.940 405.708, 432.931 406.138, 442.921 406.567, 452.912 406.997, 462.903 407.426, 472.894 407.856, 482.884 408.286, 492.875 408.452, 496.743 408.462, 497.902 408.393, 498.964 408.250, 499.931 408.038, 500.806 407.764, 501.593 407.432, 502.294 407.047, 502.912 406.617, 503.449 406.145, 503.909 405.637, 504.294 405.098, 504.606 404.535, 504.849 403.870, 505.036 403.207, 505.115 402.539, 505.094 401.858, 504.979 401.157, 504.779 400.427, 504.500 399.660, 504.150 " />
            <path fill="none" stroke-width="3.0" stroke-linecap="butt" stroke-opacity="1.0" stroke="rgb(0, 0, 0)" stroke-linejoin="miter" d=" M 269.670, 441.373 276.607, 444.924 283.408, 448.740 290.091, 452.777 296.675, 456.991 303.177, 461.340 309.615, 465.782 316.005, 470.275 322.365, 474.780 328.699, 479.248 328.710, 479.256 335.058, 483.667 341.423, 487.973 347.822, 492.137 348.825, 492.868 349.660, 493.708 350.326, 494.650 350.823, 495.688 351.153, 496.815 351.314, 498.026 351.307, 499.315 351.132, 500.674 350.787, 502.099 350.273, 503.583 349.590, 505.121 348.736, 506.705 343.775, 515.388 338.814, 524.071 333.853, 532.754 328.892, 541.436 323.932, 550.119 318.971, 558.802 314.010, 567.485 309.049, 576.167 304.088, 584.850 299.127, 593.533 297.109, 597.065 292.148, 605.748 290.174, 609.204 285.337, 617.669 280.376, 626.352 275.415, 635.035 270.455, 643.717 265.494, 652.400 260.533, 661.083 258.407, 664.804 256.099, 668.756 253.723, 672.640 251.242, 676.470 248.613, 680.261 245.798, 684.027 242.754, 687.783 239.442, 691.544 235.819, 695.325 231.843, 699.143 227.469, 703.013 222.654, 706.952 217.351, 710.978 216.015, 712.004 214.591, 713.083 213.119, 714.211 211.641, 715.384 210.198, 716.600 208.833, 717.853 207.588, 719.141 206.504, 720.459 205.625, 721.802 204.992, 723.166 204.648, 724.548 204.635, 725.941 204.889, 726.941 205.397, 727.782 206.154, 728.458 " />
            <path fill="none" stroke-width="3.0" stroke-linecap="butt" stroke-opacity="1.0" stroke="rgb(0, 0, 0)" stroke-linejoin="miter" d=" M 338.662, 651.783 337.750, 650.974 337.051, 650.015 336.559, 648.909 336.267, 647.663 336.242, 646.589 336.314, 645.454 336.481, 644.257 336.741, 642.998 337.093, 641.677 337.535, 640.291 337.896, 639.307 338.067, 638.841 338.687, 637.326 339.392, 635.744 340.182, 634.096 341.055, 632.381 342.009, 630.597 344.369, 626.275 349.161, 617.498 353.953, 608.721 358.745, 599.944 363.537, 591.167 368.329, 582.390 373.121, 573.613 377.913, 564.836 379.904, 561.189 384.696, 552.412 389.230, 544.108 390.930, 540.995 395.722, 532.218 396.750, 530.336 397.550, 528.877 398.339, 527.532 399.116, 526.298 399.883, 525.175 400.638, 524.160 401.381, 523.253 402.113, 522.451 402.833, 521.753 403.541, 521.159 404.237, 520.665 404.922, 520.272 405.593, 519.976 406.157, 519.813 406.703, 519.749 407.227, 519.789 407.723, 519.935 408.185, 520.192 408.610, 520.561 408.991, 521.047 409.323, 521.653 409.602, 522.382 409.822, 523.238 409.978, 524.223 410.065, 525.341 410.341, 531.789 410.611, 538.196 410.872, 544.567 410.890, 545.023 411.119, 550.907 411.305, 556.009 411.350, 557.221 411.560, 563.513 411.746, 569.789 411.904, 576.053 412.031, 582.310 412.123, 588.564 412.177, 594.821 412.189, 601.085 412.142, 604.753 412.002, 608.059 411.709, 611.072 411.205, 613.858 410.429, 616.485 409.323, 619.021 407.825, 621.533 405.875, 624.088 403.411, 626.755 400.369, 629.601 396.686, 632.696 392.294, 636.110 391.191, 636.999 390.091, 637.901 389.011, 638.820 387.972, 639.761 386.992, 640.729 386.090, 641.729 385.285, 642.765 384.597, 643.842 384.044, 644.965 383.646, 646.138 383.422, 647.365 383.391, 648.652 383.557, 649.589 383.933, 650.377 384.494, 651.021 385.219, 651.524 386.085, 651.890 387.068, 652.123 388.147, 652.229 389.298, 652.210 390.499, 652.072 391.728, 651.818 392.963, 651.453 394.182, 650.981 399.906, 648.421 405.255, 645.912 410.265, 643.461 414.972, 641.075 419.410, 638.763 423.612, 636.533 427.611, 634.393 431.437, 632.351 435.123, 630.417 438.698, 628.599 442.192, 626.907 445.635, 625.349 449.090, 623.927 452.462, 622.680 455.808, 621.554 459.183, 620.496 462.643, 619.456 466.242, 618.381 470.032, 617.220 474.067, 615.923 478.399, 614.440 483.077, 612.722 488.151, 610.722 493.668, 608.391 494.691, 607.873 495.744, 607.210 496.803, 606.421 497.845, 605.531 498.848, 604.561 499.790, 603.534 500.647, 602.470 501.398, 601.392 502.018, 600.323 502.487, 599.283 502.780, 598.294 502.876, 597.379 502.800, 596.283 502.603, 595.318 502.287, 594.483 501.855, 593.774 501.307, 593.189 500.647, 592.727 491.817, 588.034 482.986, 583.341 474.156, 578.648 473.643, 578.375 " />
            <path fill="none" stroke-width="3.0" stroke-linecap="butt" stroke-opacity="1.0" stroke="rgb(0, 0, 0)" stroke-linejoin="miter" d=" M 359.900, 653.187 359.183, 652.770 358.376, 652.469 357.482, 652.281 356.503, 652.204 355.441, 652.234 354.299, 652.371 351.484, 652.905 348.924, 653.258 346.616, 653.434 344.554, 653.436 342.733, 653.268 341.148, 652.934 339.793, 652.438 338.662, 651.783 " />
            <path fill="none" stroke-width="3.0" stroke-linecap="butt" stroke-opacity="1.0" stroke="rgb(0, 0, 0)" stroke-linejoin="miter" d=" M 500.647, 592.727 499.876, 592.385 498.996, 592.160 498.010, 592.052 496.918, 592.057 495.724, 592.174 494.429, 592.400 490.419, 593.108 486.940, 593.514 483.960, 593.595 481.443, 593.329 479.355, 592.693 " />
            <path fill="none" stroke-width="3.0" stroke-linecap="butt" stroke-opacity="1.0" stroke="rgb(0, 0, 0)" stroke-linejoin="miter" d=" M 305.880, 408.311 306.622, 418.284 307.371, 428.358 " />
            <path fill="none" stroke-width="3.0" stroke-linecap="butt" stroke-opacity="1.0" stroke="rgb(0, 0, 0)" stroke-linejoin="miter" d=" M 344.369, 626.275 352.875, 631.532 361.381, 636.790 369.888, 642.048 378.394, 647.305 385.219, 651.524 " />
        </g>
    </g>
</svg>
