<?xml version='1.0' encoding='ascii'?>
<svg xmlns="http://www.w3.org/2000/svg" version="1.1" width="1080" height="1080">
    <g id="View Layer_LineSet" xmlns:inkscape="http://www.inkscape.org/namespaces/inkscape" inkscape:groupmode="lineset" inkscape:label="View Layer_LineSet">
        <g xmlns:inkscape="http://www.inkscape.org/namespaces/inkscape" inkscape:groupmode="layer" id="strokes" inkscape:label="strokes">
            <path fill="none" stroke-width="3.0" stroke-linecap="butt" stroke-opacity="1.0" stroke="rgb(0, 0, 0)" stroke-linejoin="miter" d=" M 487.066, 591.371 485.521, 590.411 484.297, 589.025 483.362, 587.191 482.679, 584.890 482.213, 582.101 482.020, 579.870 481.928, 578.802 481.787, 574.972 481.592, 564.974 481.397, 554.976 481.202, 544.978 481.006, 534.980 480.811, 524.982 480.616, 514.984 480.421, 504.985 480.225, 494.987 480.030, 484.989 479.835, 474.991 479.640, 464.993 479.445, 454.995 479.249, 444.997 479.054, 434.999 478.859, 425.001 478.664, 415.003 478.469, 405.004 478.273, 395.006 478.078, 385.008 478.008, 381.445 478.015, 376.807 478.246, 372.619 478.734, 368.825 479.508, 365.367 480.599, 362.190 482.037, 359.235 483.851, 356.445 486.070, 353.762 488.719, 351.128 491.827, 348.483 495.417, 345.772 499.515, 342.937 500.465, 342.219 501.343, 341.448 502.146, 340.625 502.872, 339.748 503.519, 338.816 504.085, 337.828 504.568, 336.783 504.966, 335.681 505.276, 334.520 505.496, 333.299 505.623, 332.016 505.657, 330.672 505.580, 329.692 505.380, 328.816 505.072, 328.044 504.667, 327.376 504.181, 326.813 503.626, 326.354 503.017, 326.000 502.366, 325.751 492.770, 322.939 483.173, 320.127 473.577, 317.315 463.980, 314.503 454.384, 311.691 444.787, 308.879 435.191, 306.067 425.594, 303.255 415.998, 300.443 406.401, 297.631 396.805, 294.820 387.208, 292.008 385.404, 291.479 384.710, 291.327 384.007, 291.274 383.307, 291.322 382.625, 291.470 378.803, 292.650 374.714, 293.987 370.412, 295.451 365.948, 297.010 361.378, 298.633 356.755, 300.288 352.136, 301.944 347.580, 303.567 343.143, 305.124 338.885, 306.582 334.868, 307.905 331.152, 309.060 327.441, 310.133 323.272, 311.278 318.721, 312.486 313.869, 313.745 308.795, 315.043 303.582, 316.368 298.314, 317.708 293.078, 319.051 287.962, 320.382 283.057, 321.689 278.455, 322.956 274.251, 324.171 273.340, 324.491 272.503, 324.888 271.741, 325.361 271.057, 325.909 270.456, 326.531 269.938, 327.227 269.508, 327.996 269.167, 328.836 268.919, 329.746 268.766, 330.727 268.712, 331.775 268.757, 332.892 268.931, 334.285 269.199, 335.487 269.560, 336.512 270.013, 337.376 270.556, 338.094 271.187, 338.681 271.905, 339.153 272.707, 339.526 282.163, 342.780 291.619, 346.034 299.892, 348.882 309.347, 352.136 318.803, 355.390 328.259, 358.645 337.714, 361.899 347.170, 365.153 356.626, 368.408 363.975, 370.937 373.431, 374.191 382.887, 377.446 389.352, 379.671 390.223, 379.952 391.177, 380.156 392.213, 380.301 393.327, 380.402 398.234, 380.595 402.452, 380.992 406.042, 381.629 409.058, 382.541 " />
            <path fill="none" stroke-width="3.0" stroke-linecap="butt" stroke-opacity="1.0" stroke="rgb(0, 0, 0)" stroke-linejoin="miter" d=" M 414.943, 505.974 414.239, 505.650 413.495, 505.263 412.701, 504.821 411.852, 504.332 410.940, 503.803 409.957, 503.242 402.426, 496.663 394.895, 490.084 387.364, 483.505 379.833, 476.926 372.302, 470.347 369.325, 467.747 361.794, 461.168 354.263, 454.589 346.732, 448.010 339.201, 441.431 332.546, 435.617 331.372, 434.575 330.255, 433.549 329.203, 432.534 328.223, 431.526 327.321, 430.521 326.506, 429.516 325.785, 428.505 325.165, 427.486 324.653, 426.453 324.256, 425.402 323.982, 424.331 323.838, 423.234 323.849, 421.489 324.119, 419.714 324.652, 417.911 325.448, 416.081 326.509, 414.227 327.834, 412.350 329.426, 410.454 331.284, 408.541 333.407, 406.612 335.796, 404.670 338.451, 402.717 341.369, 400.756 342.502, 399.934 343.542, 399.059 344.488, 398.130 345.336, 397.146 346.084, 396.108 346.729, 395.012 347.268, 393.859 347.700, 392.648 348.020, 391.377 348.227, 390.046 348.318, 388.652 348.288, 387.196 348.142, 386.138 347.851, 385.200 347.430, 384.379 346.897, 383.675 346.269, 383.087 345.562, 382.616 344.793, 382.261 335.369, 378.916 325.945, 375.571 316.522, 372.225 307.098, 368.880 303.398, 367.567 293.974, 364.221 284.550, 360.876 275.126, 357.531 265.702, 354.185 256.278, 350.840 246.855, 347.495 237.431, 344.149 227.990, 340.798 227.167, 340.552 226.318, 340.413 225.463, 340.382 224.616, 340.459 223.797, 340.643 214.215, 343.503 204.632, 346.363 195.050, 349.223 194.535, 349.377 187.493, 351.449 180.577, 353.432 173.731, 355.352 166.897, 357.236 160.016, 359.112 153.028, 361.009 145.869, 362.954 138.476, 364.979 130.782, 367.113 122.719, 369.388 114.215, 371.836 105.197, 374.490 103.723, 374.982 102.266, 375.578 100.850, 376.269 99.498, 377.050 98.235, 377.912 97.085, 378.849 96.073, 379.853 95.222, 380.917 94.558, 382.035 94.103, 383.197 93.883, 384.396 93.921, 385.625 94.303, 387.117 94.970, 388.375 95.884, 389.417 97.006, 390.258 98.299, 390.917 107.509, 394.814 116.718, 398.711 125.928, 402.608 135.137, 406.505 144.346, 410.402 153.556, 414.299 162.765, 418.196 171.975, 422.093 181.184, 425.990 190.393, 429.887 199.603, 433.784 208.812, 437.681 213.149, 439.517 214.573, 440.000 216.098, 440.322 217.684, 440.501 219.294, 440.557 220.889, 440.510 222.434, 440.378 223.890, 440.181 231.876, 438.740 238.078, 437.939 239.374, 437.772 246.415, 437.244 253.032, 437.120 259.255, 437.368 265.114, 437.954 270.637, 438.847 275.853, 440.016 277.549, 440.502 280.789, 441.430 285.470, 443.058 " />
            <path fill="none" stroke-width="3.0" stroke-linecap="butt" stroke-opacity="1.0" stroke="rgb(0, 0, 0)" stroke-linejoin="miter" d=" M 299.892, 348.882 300.344, 349.653 301.367, 352.341 302.131, 355.482 302.685, 359.111 303.078, 363.260 303.398, 367.567 " />
            <path fill="none" stroke-width="3.0" stroke-linecap="butt" stroke-opacity="1.0" stroke="rgb(0, 0, 0)" stroke-linejoin="miter" d=" M 238.078, 437.939 241.126, 440.048 247.165, 444.117 253.232, 448.052 254.185, 448.743 254.985, 449.538 255.631, 450.431 256.124, 451.416 256.464, 452.487 256.649, 453.637 256.681, 454.862 256.558, 456.156 256.280, 457.512 255.846, 458.925 255.256, 460.390 254.509, 461.900 249.854, 470.750 245.198, 479.600 240.542, 488.451 235.886, 497.301 231.231, 506.151 226.575, 515.001 221.919, 523.851 217.264, 532.701 212.608, 541.551 207.952, 550.401 203.296, 559.251 198.641, 568.101 193.985, 576.952 189.329, 585.802 184.673, 594.652 180.018, 603.502 174.922, 613.189 172.877, 616.985 170.769, 620.718 168.558, 624.401 166.209, 628.047 163.685, 631.670 160.947, 635.286 157.957, 638.909 154.677, 642.553 151.067, 646.235 147.087, 649.970 142.695, 653.774 137.848, 657.665 136.628, 658.656 135.326, 659.699 133.981, 660.789 132.631, 661.923 131.315, 663.097 130.073, 664.308 128.943, 665.550 127.966, 666.821 127.180, 668.116 126.625, 669.430 126.340, 670.758 126.365, 672.097 126.630, 673.056 127.128, 673.862 127.854, 674.508 136.386, 679.724 144.917, 684.941 153.449, 690.157 161.981, 695.373 170.512, 700.590 179.044, 705.806 187.576, 711.022 196.108, 716.239 204.639, 721.455 213.171, 726.672 221.703, 731.888 230.234, 737.104 234.562, 739.750 235.501, 740.212 236.668, 740.478 238.058, 740.540 239.670, 740.390 241.499, 740.022 243.541, 739.428 245.793, 738.600 248.251, 737.532 250.911, 736.217 257.128, 732.909 263.311, 729.510 269.464, 726.041 275.590, 722.522 281.693, 718.975 287.778, 715.418 293.847, 711.872 299.902, 708.357 305.948, 704.892 311.986, 701.496 318.018, 698.190 324.047, 694.993 328.579, 692.677 332.961, 690.514 337.215, 688.476 341.367, 686.536 345.439, 684.666 349.454, 682.839 353.434, 681.030 357.401, 679.210 361.378, 677.355 365.386, 675.439 369.445, 673.437 373.577, 671.323 374.296, 670.896 375.025, 670.363 375.747, 669.738 376.449, 669.031 377.116, 668.254 377.735, 667.421 378.289, 666.542 378.766, 665.628 379.151, 664.693 379.429, 663.748 379.586, 662.804 379.608, 661.872 379.491, 660.713 379.278, 659.688 378.971, 658.796 378.572, 658.033 378.084, 657.398 377.508, 656.887 376.848, 656.499 367.941, 651.952 359.035, 647.404 356.510, 646.115 " />
            <path fill="none" stroke-width="3.0" stroke-linecap="butt" stroke-opacity="1.0" stroke="rgb(0, 0, 0)" stroke-linejoin="miter" d=" M 502.366, 325.751 501.689, 325.607 500.998, 325.569 500.308, 325.637 499.632, 325.810 495.830, 327.156 491.759, 328.675 487.471, 330.333 483.020, 332.097 478.459, 333.932 473.845, 335.804 469.233, 337.677 464.681, 339.515 460.248, 341.280 455.995, 342.935 451.981, 344.442 448.270, 345.763 444.565, 346.997 440.403, 348.322 435.861, 349.722 431.016, 351.185 425.949, 352.696 420.740, 354.241 415.475, 355.803 410.238, 357.368 405.119, 358.918 400.208, 360.437 395.597, 361.907 391.381, 363.310 390.466, 363.675 389.621, 364.120 388.848, 364.643 388.152, 365.244 387.533, 365.922 386.997, 366.676 386.544, 367.504 386.178, 368.406 385.903, 369.381 385.719, 370.427 385.631, 371.544 385.640, 372.729 385.768, 374.205 385.839, 374.602 385.996, 375.475 386.322, 376.555 386.744, 377.460 387.260, 378.209 387.869, 378.815 388.566, 379.297 389.352, 379.671 " />
            <path fill="none" stroke-width="3.0" stroke-linecap="butt" stroke-opacity="1.0" stroke="rgb(0, 0, 0)" stroke-linejoin="miter" d=" M 344.793, 382.261 343.979, 382.022 343.137, 381.898 342.284, 381.888 341.437, 381.994 340.614, 382.213 331.155, 385.458 321.696, 388.702 312.237, 391.947 311.099, 392.337 305.379, 394.275 303.986, 394.746 296.998, 397.058 290.078, 399.301 283.167, 401.508 276.206, 403.708 269.132, 405.934 261.881, 408.220 254.388, 410.597 246.584, 413.103 238.399, 415.771 229.759, 418.638 227.357, 419.452 220.588, 421.744 219.087, 422.314 217.599, 422.995 217.123, 423.251 216.149, 423.776 214.763, 424.651 213.463, 425.612 212.275, 426.648 211.224, 427.753 210.335, 428.917 209.631, 430.132 209.138, 431.389 208.881, 432.678 208.884, 433.992 209.226, 435.576 209.863, 436.901 210.755, 437.986 211.863, 438.852 213.149, 439.517 " />
            <path fill="none" stroke-width="3.0" stroke-linecap="butt" stroke-opacity="1.0" stroke="rgb(0, 0, 0)" stroke-linejoin="miter" d=" M 409.058, 382.541 411.555, 383.763 413.584, 385.333 415.196, 387.284 416.441, 389.654 417.366, 392.476 418.020, 395.786 418.450, 399.618 418.703, 404.005 419.088, 413.998 419.472, 423.991 419.857, 433.983 420.241, 443.976 420.626, 453.968 421.010, 463.961 421.395, 473.954 421.779, 483.946 422.164, 493.939 422.317, 497.915 422.325, 499.077 422.261, 500.144 422.128, 501.119 421.933, 502.004 421.681, 502.803 421.375, 503.517 421.022, 504.150 420.626, 504.704 420.193, 505.182 419.726, 505.586 419.232, 505.918 418.715, 506.181 418.104, 506.392 417.495, 506.494 416.882, 506.496 416.257, 506.405 415.613, 506.229 414.943, 505.974 " />
            <path fill="none" stroke-width="3.0" stroke-linecap="butt" stroke-opacity="1.0" stroke="rgb(0, 0, 0)" stroke-linejoin="miter" d=" M 285.470, 443.058 289.923, 444.872 294.172, 446.843 300.618, 450.203 306.933, 453.832 309.544, 455.455 313.134, 457.686 319.238, 461.719 325.263, 465.887 331.224, 470.149 335.374, 473.176 337.138, 474.462 343.019, 478.785 348.884, 483.078 354.747, 487.300 360.623, 491.415 366.527, 495.384 367.452, 496.085 368.221, 496.900 368.835, 497.824 369.293, 498.851 369.415, 499.302 369.596, 499.973 369.744, 501.185 369.736, 502.481 369.573, 503.855 369.253, 505.300 368.778, 506.810 368.145, 508.380 367.356, 510.004 362.777, 518.894 358.199, 527.785 353.620, 536.675 349.042, 545.565 344.464, 554.456 339.885, 563.346 335.307, 572.236 330.728, 581.127 326.150, 590.017 321.572, 598.907 316.993, 607.798 315.253, 611.177 310.675, 620.067 309.597, 622.160 305.796, 629.541 301.217, 638.431 296.639, 647.322 292.061, 656.212 287.482, 665.102 283.435, 672.961 281.281, 677.056 279.063, 681.086 276.746, 685.068 274.291, 689.018 271.661, 692.952 268.818, 696.886 265.723, 700.840 262.337, 704.829 258.620, 708.872 254.530, 712.989 250.025, 717.198 245.061, 721.519 243.811, 722.619 242.477, 723.778 241.098, 724.988 239.714, 726.245 238.362, 727.544 237.083, 728.877 235.915, 730.240 234.899, 731.626 234.074, 733.028 233.480, 734.441 233.156, 735.857 233.142, 737.270 233.379, 738.271 233.853, 739.101 234.562, 739.750 " />
            <path fill="none" stroke-width="3.0" stroke-linecap="butt" stroke-opacity="1.0" stroke="rgb(0, 0, 0)" stroke-linejoin="miter" d=" M 358.949, 656.988 357.905, 656.377 357.063, 655.601 356.418, 654.665 355.964, 653.573 355.695, 652.331 355.674, 651.250 355.741, 650.104 355.897, 648.893 356.138, 647.615 356.465, 646.269 356.510, 646.115 356.876, 644.856 357.369, 643.374 357.942, 641.822 358.596, 640.201 359.327, 638.509 360.135, 636.746 361.019, 634.911 361.316, 634.305 365.724, 625.329 370.132, 616.352 374.540, 607.376 378.948, 598.400 383.356, 589.424 387.764, 580.448 392.172, 571.472 396.580, 562.496 401.106, 553.278 404.681, 545.998 409.089, 537.022 411.542, 532.026 412.278, 530.534 413.004, 529.156 413.720, 527.890 414.425, 526.735 415.119, 525.690 415.802, 524.753 416.475, 523.922 417.137, 523.197 417.787, 522.575 418.427, 522.055 419.055, 521.636 419.672, 521.315 420.189, 521.132 420.691, 521.049 421.171, 521.070 421.626, 521.199 422.050, 521.439 422.440, 521.795 422.789, 522.268 423.093, 522.864 423.348, 523.585 423.549, 524.435 423.692, 525.418 423.771, 526.536 424.018, 532.992 424.260, 539.407 424.493, 545.786 424.714, 552.135 424.801, 554.810 424.919, 558.458 425.081, 563.903 425.106, 564.760 425.271, 571.046 425.411, 577.322 425.521, 583.592 425.600, 589.861 425.644, 596.134 425.649, 602.415 425.603, 606.096 425.471, 609.417 425.200, 612.450 424.735, 615.265 424.021, 617.932 423.003, 620.520 421.626, 623.101 419.834, 625.744 417.570, 628.520 414.774, 631.501 411.388, 634.760 407.348, 638.369 406.334, 639.307 405.321, 640.258 404.328, 641.226 403.371, 642.214 402.469, 643.227 401.638, 644.269 400.897, 645.343 400.263, 646.454 399.754, 647.605 399.387, 648.800 399.179, 650.042 399.149, 651.336 399.301, 652.270 399.646, 653.046 400.162, 653.669 400.828, 654.143 401.624, 654.474 402.528, 654.668 403.520, 654.728 404.579, 654.661 405.683, 654.471 406.813, 654.164 407.949, 653.745 409.070, 653.220 414.331, 650.409 419.245, 647.666 423.845, 644.997 428.165, 642.408 432.237, 639.905 436.090, 637.495 439.755, 635.185 443.262, 632.981 446.638, 630.892 449.911, 628.925 453.109, 627.087 456.259, 625.386 459.418, 623.822 462.501, 622.436 465.559, 621.173 468.642, 619.979 471.802, 618.798 475.087, 617.577 478.547, 616.263 482.228, 614.804 486.177, 613.147 490.441, 611.243 495.064, 609.041 500.088, 606.493 501.020, 605.936 501.978, 605.231 502.942, 604.402 503.891, 603.471 504.805, 602.463 505.662, 601.400 506.442, 600.304 507.125, 599.198 507.691, 598.106 508.117, 597.049 508.385, 596.050 508.473, 595.132 508.404, 594.041 508.226, 593.086 507.940, 592.264 507.547, 591.573 507.050, 591.010 506.449, 590.575 505.749, 590.263 496.589, 586.251 487.429, 582.239 482.020, 579.870 " />
            <path fill="none" stroke-width="3.0" stroke-linecap="butt" stroke-opacity="1.0" stroke="rgb(0, 0, 0)" stroke-linejoin="miter" d=" M 505.749, 590.263 504.949, 590.073 504.051, 590.003 503.059, 590.051 501.972, 590.214 500.794, 590.491 497.143, 591.354 493.975, 591.895 491.261, 592.092 488.969, 591.924 487.066, 591.371 " />
            <path fill="none" stroke-width="3.0" stroke-linecap="butt" stroke-opacity="1.0" stroke="rgb(0, 0, 0)" stroke-linejoin="miter" d=" M 376.848, 656.499 376.104, 656.231 375.279, 656.080 374.376, 656.043 373.396, 656.119 372.342, 656.304 369.744, 656.961 367.382, 657.425 365.251, 657.701 363.347, 657.791 361.665, 657.699 360.201, 657.430 358.949, 656.988 " />
            <path fill="none" stroke-width="3.0" stroke-linecap="butt" stroke-opacity="1.0" stroke="rgb(0, 0, 0)" stroke-linejoin="miter" d=" M 361.316, 634.305 370.253, 638.792 379.190, 643.279 388.127, 647.766 397.064, 652.253 400.828, 654.143 " />
        </g>
    </g>
</svg>
