<?xml version='1.0' encoding='ascii'?>
<svg xmlns="http://www.w3.org/2000/svg" version="1.1" width="1080" height="1080">
    <g id="View Layer_LineSet" xmlns:inkscape="http://www.inkscape.org/namespaces/inkscape" inkscape:groupmode="lineset" inkscape:label="View Layer_LineSet">
        <g xmlns:inkscape="http://www.inkscape.org/namespaces/inkscape" inkscape:groupmode="layer" id="strokes" inkscape:label="strokes">
            <path fill="none" stroke-width="3.0" stroke-linecap="butt" stroke-opacity="1.0" stroke="rgb(0, 0, 0)" stroke-linejoin="miter" d=" M 490.766, 590.600 489.300, 589.670 488.140, 588.308 487.253, 586.493 486.605, 584.206 486.164, 581.426 486.065, 580.209 485.895, 578.134 485.763, 574.308 485.581, 564.309 485.399, 554.311 485.217, 544.312 485.035, 534.314 484.854, 524.316 484.672, 514.317 484.490, 504.319 484.308, 494.321 484.126, 484.322 483.944, 474.324 483.762, 464.326 483.581, 454.327 483.399, 444.329 483.217, 434.331 483.035, 424.332 482.853, 414.334 482.671, 404.336 482.490, 394.337 482.308, 384.339 482.245, 380.912 482.253, 376.277 482.474, 372.088 482.938, 368.288 483.674, 364.822 484.710, 361.631 486.076, 358.658 487.798, 355.845 489.903, 353.134 492.417, 350.465 495.365, 347.781 498.770, 345.024 502.655, 342.137 503.556, 341.407 504.389, 340.625 505.150, 339.792 505.838, 338.906 506.452, 337.967 506.989, 336.973 507.447, 335.923 507.824, 334.817 508.118, 333.653 508.327, 332.430 508.448, 331.148 508.480, 329.804 508.408, 328.826 508.219, 327.954 507.927, 327.187 507.544, 326.525 507.083, 325.969 506.557, 325.518 505.980, 325.172 505.364, 324.932 495.700, 322.360 486.037, 319.787 476.373, 317.215 466.710, 314.643 457.046, 312.071 447.383, 309.498 437.719, 306.926 428.056, 304.354 418.392, 301.782 408.729, 299.209 399.065, 296.637 389.402, 294.065 383.123, 292.394 382.455, 292.250 381.778, 292.206 381.106, 292.262 380.451, 292.419 376.778, 293.649 372.849, 295.040 368.713, 296.561 364.422, 298.179 360.026, 299.864 355.580, 301.582 351.137, 303.301 346.752, 304.987 342.482, 306.605 338.383, 308.122 334.515, 309.501 330.936, 310.707 327.360, 311.831 323.342, 313.035 318.956, 314.306 314.278, 315.632 309.385, 317.001 304.356, 318.400 299.274, 319.814 294.220, 321.231 289.281, 322.636 284.545, 324.013 280.100, 325.347 276.039, 326.623 275.160, 326.957 274.351, 327.367 273.615, 327.852 272.956, 328.412 272.375, 329.046 271.877, 329.752 271.462, 330.530 271.135, 331.379 270.898, 332.297 270.753, 333.285 270.702, 334.340 270.749, 335.461 270.921, 336.859 271.183, 338.063 271.535, 339.089 271.975, 339.951 272.502, 340.665 273.114, 341.247 273.809, 341.712 274.586, 342.075 275.443, 342.352 284.993, 345.319 294.543, 348.287 300.289, 350.072 309.838, 353.040 319.388, 356.007 328.937, 358.974 338.487, 361.942 348.037, 364.909 357.586, 367.877 362.553, 369.420 372.102, 372.387 381.652, 375.355 391.202, 378.322 398.767, 380.673 399.677, 380.864 400.663, 380.994 401.725, 381.079 406.399, 381.203 410.418, 381.540 413.836, 382.126 416.707, 382.996 " />
            <path fill="none" stroke-width="3.0" stroke-linecap="butt" stroke-opacity="1.0" stroke="rgb(0, 0, 0)" stroke-linejoin="miter" d=" M 422.898, 506.733 422.260, 506.490 421.591, 506.177 420.882, 505.803 420.127, 505.374 419.319, 504.899 418.450, 504.385 417.515, 503.841 410.085, 497.147 402.656, 490.454 395.226, 483.760 387.797, 477.067 380.367, 470.374 372.938, 463.680 367.530, 458.808 360.100, 452.115 352.671, 445.422 345.241, 438.728 343.700, 437.339 342.578, 436.312 341.511, 435.300 340.506, 434.298 339.569, 433.302 338.708, 432.309 337.929, 431.312 337.240, 430.310 336.648, 429.296 336.159, 428.268 335.780, 427.220 335.519, 426.149 335.382, 425.051 335.392, 423.300 335.652, 421.515 336.162, 419.697 336.924, 417.849 337.939, 415.973 339.207, 414.070 340.729, 412.144 342.506, 410.196 344.536, 408.229 346.820, 406.246 349.357, 404.248 352.146, 402.238 353.228, 401.396 354.223, 400.503 355.126, 399.557 355.936, 398.559 356.651, 397.506 357.268, 396.398 357.783, 395.234 358.196, 394.013 358.503, 392.734 358.701, 391.396 358.788, 389.997 358.760, 388.537 358.622, 387.479 358.344, 386.542 357.942, 385.725 357.434, 385.027 356.834, 384.447 356.159, 383.985 355.425, 383.640 345.899, 380.595 336.374, 377.550 326.849, 374.506 317.324, 371.461 307.799, 368.416 304.119, 367.240 294.594, 364.195 285.069, 361.151 275.543, 358.106 266.018, 355.061 256.493, 352.016 246.968, 348.972 237.443, 345.927 231.304, 343.965 230.505, 343.728 229.683, 343.600 228.853, 343.581 228.033, 343.670 227.240, 343.867 217.727, 346.951 208.214, 350.035 198.878, 353.061 192.047, 355.247 185.335, 357.341 178.689, 359.371 172.052, 361.366 165.367, 363.354 158.576, 365.365 151.616, 367.429 144.427, 369.576 136.941, 371.839 129.093, 374.250 120.813, 376.843 112.029, 379.653 110.593, 380.172 109.174, 380.794 107.794, 381.512 106.477, 382.320 105.248, 383.209 104.129, 384.171 103.144, 385.200 102.317, 386.287 101.671, 387.425 101.231, 388.605 101.019, 389.819 101.059, 391.059 101.435, 392.560 102.089, 393.820 102.983, 394.857 104.080, 395.690 105.343, 396.335 114.698, 399.869 124.052, 403.403 133.407, 406.937 142.762, 410.471 152.117, 414.004 161.472, 417.538 170.827, 421.072 180.181, 424.606 189.536, 428.139 198.891, 431.673 208.246, 435.207 217.601, 438.741 226.955, 442.274 229.256, 443.143 230.625, 443.607 232.090, 443.906 233.614, 444.062 235.161, 444.093 236.695, 444.020 238.179, 443.863 239.578, 443.641 243.241, 442.888 247.251, 442.064 254.451, 440.973 261.210, 440.330 267.559, 440.101 273.529, 440.252 275.934, 440.464 279.147, 440.748 284.442, 441.558 289.441, 442.650 294.169, 443.991 298.653, 445.553 " />
            <path fill="none" stroke-width="3.0" stroke-linecap="butt" stroke-opacity="1.0" stroke="rgb(0, 0, 0)" stroke-linejoin="miter" d=" M 300.289, 350.072 301.316, 351.870 302.310, 354.555 303.056, 357.700 303.600, 361.336 303.990, 365.498 304.119, 367.240 " />
            <path fill="none" stroke-width="3.0" stroke-linecap="butt" stroke-opacity="1.0" stroke="rgb(0, 0, 0)" stroke-linejoin="miter" d=" M 243.241, 442.888 244.280, 443.617 250.139, 447.612 256.021, 451.470 256.946, 452.150 257.722, 452.936 258.350, 453.823 258.830, 454.806 259.161, 455.877 259.343, 457.031 259.377, 458.262 259.261, 459.565 258.995, 460.933 258.579, 462.362 258.012, 463.844 257.293, 465.376 252.825, 474.322 248.357, 483.268 243.889, 492.215 239.421, 501.161 234.954, 510.107 230.486, 519.054 226.018, 528.000 221.550, 536.946 217.082, 545.893 212.614, 554.839 208.146, 563.786 203.678, 572.732 199.210, 581.678 194.742, 590.625 190.274, 599.571 185.806, 608.517 181.338, 617.464 180.491, 619.161 178.514, 623.029 176.473, 626.835 174.334, 630.592 172.059, 634.317 169.614, 638.023 166.961, 641.725 164.062, 645.441 160.881, 649.186 157.378, 652.975 153.514, 656.827 149.249, 660.759 144.541, 664.788 143.356, 665.815 142.090, 666.895 140.783, 668.024 139.471, 669.198 138.193, 670.411 136.986, 671.660 135.889, 672.939 134.940, 674.242 134.178, 675.566 133.640, 676.904 133.366, 678.251 133.394, 679.601 133.655, 680.563 134.141, 681.366 134.850, 682.001 143.624, 686.799 152.398, 691.596 161.172, 696.394 169.946, 701.191 178.720, 705.989 187.494, 710.787 196.268, 715.584 205.042, 720.382 213.816, 725.180 222.590, 729.977 231.364, 734.775 240.138, 739.572 249.669, 744.784 250.571, 745.227 251.691, 745.467 253.027, 745.497 254.575, 745.309 256.331, 744.896 258.292, 744.251 260.455, 743.366 262.815, 742.235 265.369, 740.850 271.336, 737.380 277.269, 733.820 283.171, 730.192 289.046, 726.516 294.898, 722.811 300.730, 719.100 306.544, 715.400 312.345, 711.733 318.134, 708.118 323.914, 704.574 329.687, 701.121 335.455, 697.777 339.789, 695.353 343.979, 693.086 348.046, 690.948 352.014, 688.910 355.905, 686.945 359.741, 685.025 363.543, 683.123 367.332, 681.212 371.129, 679.266 374.955, 677.258 378.829, 675.163 382.772, 672.955 383.459, 672.511 384.154, 671.962 384.843, 671.319 385.513, 670.595 386.150, 669.803 386.740, 668.954 387.269, 668.061 387.725, 667.136 388.092, 666.190 388.358, 665.236 388.508, 664.287 388.529, 663.353 388.418, 662.193 388.215, 661.170 387.923, 660.282 387.543, 659.526 387.077, 658.900 386.529, 658.400 385.898, 658.025 376.816, 653.840 367.734, 649.655 366.271, 648.981 " />
            <path fill="none" stroke-width="3.0" stroke-linecap="butt" stroke-opacity="1.0" stroke="rgb(0, 0, 0)" stroke-linejoin="miter" d=" M 505.364, 324.932 504.722, 324.797 504.067, 324.768 503.413, 324.844 502.772, 325.027 499.167, 326.420 495.307, 327.990 491.240, 329.703 487.017, 331.524 482.690, 333.418 478.310, 335.350 473.932, 337.282 469.610, 339.180 465.400, 341.003 461.359, 342.715 457.546, 344.276 454.019, 345.648 450.498, 346.932 446.541, 348.312 442.222, 349.775 437.615, 351.305 432.794, 352.885 427.838, 354.502 422.827, 356.138 417.841, 357.776 412.966, 359.399 408.288, 360.988 403.895, 362.524 399.878, 363.988 399.006, 364.366 398.200, 364.823 397.464, 365.358 396.799, 365.970 396.210, 366.657 395.698, 367.420 395.266, 368.256 394.917, 369.165 394.654, 370.146 394.479, 371.196 394.394, 372.316 394.403, 373.503 394.524, 374.980 394.733, 376.205 394.741, 376.249 395.051, 377.326 395.453, 378.227 395.945, 378.969 396.524, 379.569 397.189, 380.041 397.937, 380.404 398.767, 380.673 " />
            <path fill="none" stroke-width="3.0" stroke-linecap="butt" stroke-opacity="1.0" stroke="rgb(0, 0, 0)" stroke-linejoin="miter" d=" M 355.425, 383.640 354.647, 383.411 353.843, 383.299 353.028, 383.302 352.219, 383.419 351.433, 383.651 342.070, 387.164 332.707, 390.676 323.212, 394.238 316.406, 396.760 309.716, 399.184 306.565, 400.304 303.089, 401.539 296.469, 403.857 289.797, 406.172 283.016, 408.514 276.063, 410.920 268.874, 413.423 261.385, 416.059 253.526, 418.866 245.228, 421.882 239.512, 424.000 236.415, 425.147 234.972, 425.744 233.542, 426.452 232.149, 427.261 230.815, 428.162 229.565, 429.149 228.423, 430.210 227.412, 431.338 227.256, 431.553 226.556, 432.523 225.879, 433.756 225.405, 435.029 225.157, 436.331 225.158, 437.652 225.487, 439.240 226.098, 440.564 226.955, 441.642 228.020, 442.495 229.256, 443.143 " />
            <path fill="none" stroke-width="3.0" stroke-linecap="butt" stroke-opacity="1.0" stroke="rgb(0, 0, 0)" stroke-linejoin="miter" d=" M 416.707, 382.996 419.084, 384.184 421.015, 385.726 422.549, 387.657 423.732, 390.010 424.612, 392.822 425.233, 396.126 425.641, 399.956 425.880, 404.344 426.241, 414.337 426.603, 424.331 426.965, 434.324 427.327, 444.318 427.689, 454.311 428.051, 464.304 428.412, 474.298 428.774, 484.291 429.136, 494.285 429.281, 498.294 429.289, 499.457 429.227, 500.526 429.101, 501.504 428.915, 502.394 428.674, 503.198 428.383, 503.919 428.047, 504.558 427.670, 505.120 427.257, 505.606 426.813, 506.018 426.343, 506.359 425.850, 506.631 425.269, 506.853 424.689, 506.966 424.106, 506.979 423.511, 506.898 422.898, 506.733 " />
            <path fill="none" stroke-width="3.0" stroke-linecap="butt" stroke-opacity="1.0" stroke="rgb(0, 0, 0)" stroke-linejoin="miter" d=" M 298.653, 445.553 302.917, 447.304 306.986, 449.214 310.313, 450.978 313.155, 452.484 319.197, 456.026 325.128, 459.794 330.965, 463.742 336.724, 467.826 342.420, 472.004 348.070, 476.232 353.687, 480.470 354.914, 481.392 359.286, 484.676 364.883, 488.812 370.490, 492.838 376.122, 496.715 377.005, 497.402 377.738, 498.206 378.323, 499.122 378.760, 500.143 379.049, 501.263 379.189, 502.475 379.187, 502.862 379.181, 503.774 379.024, 505.154 378.719, 506.608 378.265, 508.130 377.661, 509.715 376.907, 511.357 372.534, 520.350 368.161, 529.343 363.788, 538.336 359.415, 547.330 355.043, 556.323 350.670, 565.316 346.297, 574.309 341.924, 583.303 337.551, 592.296 333.179, 601.289 328.806, 610.282 325.380, 617.328 321.007, 626.321 320.291, 627.794 316.917, 634.733 312.545, 643.726 308.172, 652.719 303.799, 661.712 299.426, 670.706 296.590, 676.538 294.523, 680.699 292.396, 684.797 290.173, 688.849 287.818, 692.872 285.295, 696.884 282.567, 700.902 279.597, 704.944 276.348, 709.030 272.779, 713.179 268.853, 717.410 264.527, 721.744 259.761, 726.203 258.560, 727.338 257.279, 728.534 255.955, 729.783 254.624, 731.079 253.326, 732.416 252.096, 733.787 250.974, 735.185 249.998, 736.603 249.204, 738.032 248.633, 739.467 248.321, 740.900 248.306, 742.322 248.534, 743.323 248.989, 744.147 249.669, 744.784 " />
            <path fill="none" stroke-width="3.0" stroke-linecap="butt" stroke-opacity="1.0" stroke="rgb(0, 0, 0)" stroke-linejoin="miter" d=" M 368.819, 658.893 367.823, 658.302 367.020, 657.542 366.404, 656.616 365.971, 655.531 365.715, 654.290 365.695, 653.207 365.760, 652.056 365.909, 650.838 366.140, 649.551 366.271, 648.981 366.453, 648.195 366.845, 646.769 367.316, 645.272 367.865, 643.704 368.489, 642.065 369.188, 640.353 369.961, 638.568 370.342, 637.728 370.805, 636.710 375.008, 627.636 379.211, 618.562 383.414, 609.488 387.617, 600.415 391.820, 591.341 396.023, 582.267 400.226, 573.193 404.429, 564.119 407.652, 557.161 410.845, 550.269 415.048, 541.195 419.012, 532.637 419.714, 531.129 420.405, 529.736 421.087, 528.455 421.758, 527.287 422.420, 526.228 423.071, 525.277 423.711, 524.434 424.342, 523.696 424.961, 523.062 425.570, 522.530 426.168, 522.099 426.755, 521.767 427.248, 521.573 427.725, 521.481 428.182, 521.494 428.615, 521.615 429.019, 521.849 429.389, 522.197 429.721, 522.666 430.010, 523.257 430.253, 523.974 430.444, 524.821 430.579, 525.802 430.654, 526.920 430.886, 533.379 431.114, 539.796 431.333, 546.178 431.541, 552.530 431.726, 558.580 431.734, 558.856 431.910, 565.162 431.953, 566.938 432.064, 571.452 432.194, 577.732 432.297, 584.007 432.369, 590.281 432.408, 596.560 432.411, 602.849 432.366, 606.535 432.239, 609.863 431.980, 612.905 431.536, 615.732 430.856, 618.416 429.886, 621.029 428.575, 623.640 426.868, 626.323 424.712, 629.149 422.049, 632.192 418.824, 635.524 414.976, 639.222 414.009, 640.183 413.044, 641.156 412.098, 642.146 411.186, 643.156 410.326, 644.190 409.535, 645.250 408.828, 646.342 408.224, 647.468 407.738, 648.632 407.387, 649.837 407.189, 651.086 407.160, 652.382 407.305, 653.315 407.633, 654.085 408.124, 654.698 408.759, 655.160 409.517, 655.475 410.378, 655.649 411.323, 655.689 412.331, 655.599 413.383, 655.386 414.460, 655.055 415.542, 654.611 416.609, 654.061 421.620, 651.136 426.298, 648.287 430.678, 645.519 434.790, 642.837 438.664, 640.247 442.330, 637.756 445.816, 635.368 449.151, 633.091 452.361, 630.931 455.473, 628.896 458.513, 626.992 461.506, 625.226 464.508, 623.598 467.437, 622.150 470.341, 620.825 473.270, 619.568 476.270, 618.323 479.389, 617.037 482.673, 615.654 486.167, 614.121 489.915, 612.387 493.960, 610.398 498.345, 608.106 503.110, 605.460 503.993, 604.885 504.902, 604.161 505.816, 603.314 506.716, 602.365 507.582, 601.340 508.395, 600.260 509.135, 599.150 509.783, 598.032 510.319, 596.929 510.723, 595.865 510.977, 594.862 511.061, 593.944 510.997, 592.855 510.828, 591.904 510.557, 591.088 510.185, 590.405 509.714, 589.853 509.145, 589.429 508.481, 589.131 499.190, 585.433 489.899, 581.735 486.065, 580.209 " />
            <path fill="none" stroke-width="3.0" stroke-linecap="butt" stroke-opacity="1.0" stroke="rgb(0, 0, 0)" stroke-linejoin="miter" d=" M 508.481, 589.131 507.723, 588.957 506.872, 588.904 505.931, 588.971 504.901, 589.155 503.784, 589.454 500.323, 590.388 497.319, 590.990 494.744, 591.239 492.570, 591.116 490.766, 590.600 " />
            <path fill="none" stroke-width="3.0" stroke-linecap="butt" stroke-opacity="1.0" stroke="rgb(0, 0, 0)" stroke-linejoin="miter" d=" M 385.898, 658.025 385.189, 657.772 384.403, 657.637 383.541, 657.620 382.607, 657.716 381.601, 657.925 379.122, 658.638 376.868, 659.153 374.834, 659.474 373.016, 659.605 371.411, 659.549 370.014, 659.310 368.819, 658.893 " />
            <path fill="none" stroke-width="3.0" stroke-linecap="butt" stroke-opacity="1.0" stroke="rgb(0, 0, 0)" stroke-linejoin="miter" d=" M 370.342, 637.728 379.448, 641.860 388.555, 645.992 397.661, 650.124 406.768, 654.256 408.759, 655.160 " />
        </g>
    </g>
</svg>
