<?xml version='1.0' encoding='ascii'?>
<svg xmlns="http://www.w3.org/2000/svg" version="1.1" width="1080" height="1080">
    <g id="View Layer_LineSet" xmlns:inkscape="http://www.inkscape.org/namespaces/inkscape" inkscape:groupmode="lineset" inkscape:label="View Layer_LineSet">
        <g xmlns:inkscape="http://www.inkscape.org/namespaces/inkscape" inkscape:groupmode="layer" id="strokes" inkscape:label="strokes">
            <path fill="none" stroke-width="3.0" stroke-linecap="butt" stroke-opacity="1.0" stroke="rgb(0, 0, 0)" stroke-linejoin="miter" d=" M 494.351, 589.762 492.967, 588.861 491.872, 587.521 491.035, 585.723 490.424, 583.449 490.008, 580.679 489.981, 580.331 489.754, 577.393 489.631, 573.570 489.462, 563.572 489.293, 553.573 489.124, 543.574 488.956, 533.576 488.787, 523.577 488.618, 513.579 488.449, 503.580 488.280, 493.582 488.111, 483.583 487.943, 473.584 487.774, 463.586 487.605, 453.587 487.436, 443.589 487.267, 433.590 487.098, 423.591 486.930, 413.593 486.761, 403.594 486.592, 393.596 486.423, 383.597 486.368, 380.322 486.377, 375.689 486.587, 371.499 487.026, 367.695 487.722, 364.221 488.702, 361.018 489.992, 358.029 491.619, 355.195 493.607, 352.457 495.982, 349.757 498.765, 347.037 501.980, 344.238 505.647, 341.303 506.498, 340.562 507.283, 339.770 508.002, 338.928 508.652, 338.035 509.231, 337.088 509.737, 336.088 510.170, 335.034 510.526, 333.924 510.803, 332.758 511.001, 331.534 511.116, 330.252 511.147, 328.910 511.078, 327.934 510.901, 327.065 510.625, 326.303 510.264, 325.647 509.829, 325.097 509.334, 324.653 508.789, 324.315 508.208, 324.083 498.488, 321.733 488.768, 319.383 479.048, 317.034 469.328, 314.684 459.608, 312.334 449.888, 309.985 440.168, 307.635 430.448, 305.285 420.728, 302.935 411.008, 300.586 401.288, 298.236 391.568, 295.886 380.987, 293.328 380.347, 293.193 379.698, 293.157 379.053, 293.221 378.426, 293.386 374.909, 294.664 371.145, 296.106 367.184, 297.681 363.073, 299.357 358.861, 301.100 354.600, 302.878 350.340, 304.657 346.136, 306.403 342.040, 308.080 338.108, 309.653 334.396, 311.085 330.961, 312.341 327.529, 313.514 323.671, 314.773 319.458, 316.104 314.964, 317.495 310.263, 318.932 305.429, 320.401 300.543, 321.887 295.683, 323.375 290.933, 324.850 286.376, 326.295 282.100, 327.693 278.191, 329.028 277.345, 329.375 276.567, 329.798 275.859, 330.295 275.226, 330.867 274.668, 331.511 274.189, 332.227 273.792, 333.015 273.479, 333.872 273.253, 334.798 273.116, 335.792 273.070, 336.853 273.118, 337.979 273.287, 339.382 273.544, 340.589 273.886, 341.615 274.312, 342.475 274.821, 343.186 275.412, 343.763 276.083, 344.220 276.833, 344.575 277.660, 344.841 287.288, 347.544 296.916, 350.247 301.000, 351.394 310.628, 354.096 320.256, 356.799 329.884, 359.502 339.512, 362.205 349.140, 364.908 358.767, 367.610 361.336, 368.331 370.964, 371.034 380.592, 373.737 390.220, 376.440 399.847, 379.143 407.363, 381.252 408.225, 381.431 409.161, 381.548 410.167, 381.618 414.599, 381.676 418.408, 381.957 421.647, 382.496 " />
            <path fill="none" stroke-width="3.0" stroke-linecap="butt" stroke-opacity="1.0" stroke="rgb(0, 0, 0)" stroke-linejoin="miter" d=" M 430.189, 507.093 429.585, 506.860 428.951, 506.559 428.279, 506.196 427.564, 505.780 426.799, 505.318 425.976, 504.819 425.090, 504.289 417.783, 497.462 410.476, 490.635 403.169, 483.808 395.862, 476.981 388.555, 470.154 381.248, 463.327 373.941, 456.500 366.634, 449.673 365.854, 448.945 358.547, 442.118 355.050, 438.851 353.984, 437.838 352.970, 436.840 352.014, 435.850 351.124, 434.866 350.306, 433.882 349.565, 432.895 348.911, 431.900 348.347, 430.893 347.883, 429.869 347.523, 428.824 347.275, 427.753 347.145, 426.654 347.156, 424.898 347.403, 423.103 347.889, 421.272 348.615, 419.407 349.581, 417.510 350.788, 415.583 352.236, 413.629 353.926, 411.649 355.857, 409.647 358.030, 407.624 360.442, 405.584 363.094, 403.527 363.299, 403.356 364.123, 402.668 365.068, 401.758 365.927, 400.797 366.698, 399.784 367.377, 398.718 367.963, 397.599 368.454, 396.424 368.846, 395.195 369.138, 393.908 369.327, 392.564 369.410, 391.161 369.385, 389.697 369.253, 388.639 368.990, 387.704 368.609, 386.890 368.126, 386.197 367.556, 385.625 366.915, 385.171 366.217, 384.836 365.479, 384.617 362.196, 383.672 352.587, 380.903 342.978, 378.135 333.368, 375.366 323.759, 372.598 314.150, 369.830 305.162, 367.240 295.553, 364.472 285.944, 361.703 276.335, 358.935 266.726, 356.166 257.116, 353.398 247.507, 350.629 237.898, 347.861 234.323, 346.831 233.529, 346.714 232.728, 346.705 231.936, 346.806 231.171, 347.015 221.738, 350.336 212.306, 353.657 203.789, 356.655 197.188, 358.950 190.700, 361.151 184.273, 363.289 177.853, 365.391 171.385, 367.488 164.810, 369.610 158.072, 371.788 151.107, 374.055 143.854, 376.443 136.247, 378.987 128.218, 381.721 119.696, 384.682 118.303, 385.226 116.926, 385.875 115.588, 386.620 114.311, 387.454 113.119, 388.369 112.035, 389.356 111.080, 390.409 110.280, 391.518 109.655, 392.676 109.230, 393.873 109.028, 395.102 109.070, 396.353 109.439, 397.861 110.078, 399.123 110.949, 400.157 112.017, 400.981 113.246, 401.614 114.599, 402.074 124.073, 405.276 133.546, 408.478 143.020, 411.680 152.493, 414.881 161.967, 418.083 171.440, 421.285 180.914, 424.487 190.387, 427.689 199.861, 430.891 209.334, 434.093 218.808, 437.295 228.281, 440.497 237.755, 443.699 247.239, 446.904 247.751, 447.006 248.639, 447.182 250.096, 447.314 251.575, 447.321 253.041, 447.224 254.459, 447.043 255.796, 446.798 263.128, 445.093 270.005, 443.883 276.459, 443.132 277.957, 443.051 282.519, 442.804 288.215, 442.862 293.574, 443.273 298.624, 444.004 303.389, 445.022 307.896, 446.296 " />
            <path fill="none" stroke-width="3.0" stroke-linecap="butt" stroke-opacity="1.0" stroke="rgb(0, 0, 0)" stroke-linejoin="miter" d=" M 301.000, 351.394 301.346, 351.800 302.595, 354.052 303.559, 356.735 304.285, 359.883 304.819, 363.527 305.162, 367.240 " />
            <path fill="none" stroke-width="3.0" stroke-linecap="butt" stroke-opacity="1.0" stroke="rgb(0, 0, 0)" stroke-linejoin="miter" d=" M 247.751, 447.006 247.887, 447.102 253.549, 451.026 259.233, 454.812 260.127, 455.480 260.877, 456.258 261.485, 457.140 261.950, 458.120 262.272, 459.192 262.452, 460.349 262.487, 461.586 262.379, 462.898 262.126, 464.278 261.729, 465.721 261.186, 467.221 260.497, 468.772 256.226, 477.814 251.954, 486.856 247.682, 495.898 243.411, 504.940 239.139, 513.981 234.868, 523.023 230.596, 532.065 226.324, 541.107 222.053, 550.148 217.781, 559.190 213.510, 568.232 209.238, 577.274 204.967, 586.315 200.695, 595.357 196.423, 604.399 192.152, 613.441 187.880, 622.482 186.704, 624.971 184.801, 628.909 182.835, 632.786 180.774, 636.616 178.581, 640.417 176.223, 644.202 173.662, 647.990 170.864, 651.796 167.792, 655.637 164.408, 659.532 160.673, 663.497 156.549, 667.553 151.994, 671.717 150.847, 672.778 149.623, 673.895 148.358, 675.062 147.089, 676.274 145.852, 677.525 144.685, 678.811 143.624, 680.124 142.706, 681.460 141.970, 682.812 141.452, 684.173 141.190, 685.538 141.220, 686.900 141.476, 687.864 141.950, 688.663 142.640, 689.289 143.542, 689.733 152.522, 694.133 161.501, 698.533 170.481, 702.933 179.461, 707.334 188.441, 711.734 197.421, 716.134 206.401, 720.534 215.381, 724.935 224.360, 729.335 233.340, 733.735 242.320, 738.135 251.300, 742.535 260.280, 746.936 266.155, 749.815 267.226, 750.031 268.501, 750.030 269.980, 749.806 271.657, 749.350 273.531, 748.657 275.596, 747.718 277.850, 746.527 280.289, 745.077 285.987, 741.452 291.650, 737.740 297.282, 733.961 302.886, 730.136 308.467, 726.284 314.027, 722.426 319.569, 718.582 325.097, 714.771 330.611, 711.014 336.116, 707.330 341.612, 703.738 347.102, 700.258 351.226, 697.731 355.212, 695.366 359.080, 693.134 362.854, 691.004 366.553, 688.950 370.199, 686.943 373.813, 684.954 377.413, 682.958 381.021, 680.926 384.655, 678.832 388.335, 676.650 392.078, 674.353 392.730, 673.894 393.390, 673.329 394.045, 672.670 394.681, 671.931 395.286, 671.123 395.846, 670.260 396.349, 669.354 396.781, 668.417 397.130, 667.462 397.383, 666.501 397.526, 665.546 397.546, 664.609 397.441, 663.449 397.249, 662.429 396.972, 661.545 396.611, 660.795 396.170, 660.177 395.649, 659.688 395.051, 659.325 385.819, 655.483 376.586, 651.641 376.249, 651.501 " />
            <path fill="none" stroke-width="3.0" stroke-linecap="butt" stroke-opacity="1.0" stroke="rgb(0, 0, 0)" stroke-linejoin="miter" d=" M 508.208, 324.083 507.602, 323.956 506.984, 323.935 506.367, 324.020 505.763, 324.211 502.361, 325.648 498.716, 327.265 494.877, 329.028 490.889, 330.902 486.802, 332.850 482.665, 334.837 478.528, 336.826 474.443, 338.778 470.463, 340.656 466.643, 342.421 463.036, 344.032 459.701, 345.449 456.370, 346.780 452.626, 348.213 448.539, 349.734 444.178, 351.325 439.614, 352.971 434.921, 354.655 430.174, 356.359 425.451, 358.066 420.831, 359.756 416.397, 361.410 412.232, 363.008 408.422, 364.528 407.595, 364.919 406.831, 365.388 406.132, 365.933 405.502, 366.555 404.943, 367.252 404.457, 368.022 404.047, 368.866 403.716, 369.781 403.466, 370.767 403.299, 371.821 403.219, 372.944 403.226, 374.133 403.341, 375.610 403.546, 376.878 403.712, 377.484 403.840, 377.952 404.221, 378.849 404.687, 379.586 405.236, 380.178 405.866, 380.642 406.576, 380.995 407.363, 381.252 " />
            <path fill="none" stroke-width="3.0" stroke-linecap="butt" stroke-opacity="1.0" stroke="rgb(0, 0, 0)" stroke-linejoin="miter" d=" M 365.479, 384.617 364.714, 384.516 363.940, 384.531 363.171, 384.660 362.423, 384.904 353.172, 388.701 343.922, 392.499 335.579, 395.924 329.098, 398.553 322.727, 401.082 316.414, 403.543 310.105, 405.967 308.079, 406.738 303.745, 408.388 297.278, 410.841 290.646, 413.360 283.786, 415.981 276.637, 418.742 269.132, 421.681 261.205, 424.838 252.785, 428.253 252.783, 428.253 251.403, 428.876 250.036, 429.609 248.703, 430.444 247.428, 431.371 246.233, 432.381 245.140, 433.466 244.173, 434.616 243.354, 435.821 242.706, 437.072 242.252, 438.359 242.014, 439.672 242.015, 441.001 242.328, 442.593 242.683, 443.396 242.912, 443.914 243.731, 444.985 244.749, 445.827 245.930, 446.459 247.239, 446.904 " />
            <path fill="none" stroke-width="3.0" stroke-linecap="butt" stroke-opacity="1.0" stroke="rgb(0, 0, 0)" stroke-linejoin="miter" d=" M 421.647, 382.496 424.368, 383.326 426.619, 384.482 428.448, 385.998 429.900, 387.908 431.020, 390.247 431.852, 393.049 432.439, 396.346 432.824, 400.173 433.049, 404.561 433.388, 414.556 433.727, 424.550 434.066, 434.544 434.405, 444.538 434.745, 454.533 435.084, 464.527 435.423, 474.521 435.762, 484.515 436.101, 494.510 436.238, 498.538 436.245, 499.702 436.186, 500.773 436.066, 501.754 435.890, 502.648 435.661, 503.456 435.386, 504.183 435.067, 504.829 434.710, 505.397 434.318, 505.890 433.898, 506.310 433.452, 506.660 432.985, 506.941 432.434, 507.173 431.886, 507.296 431.333, 507.318 430.770, 507.248 430.189, 507.093 " />
            <path fill="none" stroke-width="3.0" stroke-linecap="butt" stroke-opacity="1.0" stroke="rgb(0, 0, 0)" stroke-linejoin="miter" d=" M 307.896, 446.296 311.074, 447.409 312.168, 447.793 316.230, 449.484 320.105, 451.338 325.979, 454.522 331.730, 457.981 337.374, 461.666 342.927, 465.533 348.404, 469.538 353.820, 473.635 359.189, 477.784 364.527, 481.941 369.846, 486.066 371.443, 487.283 375.162, 490.118 380.486, 494.060 385.833, 497.852 386.670, 498.525 387.366, 499.318 387.921, 500.226 388.336, 501.242 388.609, 502.359 388.742, 503.572 388.734, 504.874 388.637, 505.768 388.585, 506.259 388.294, 507.721 387.862, 509.254 387.288, 510.853 386.572, 512.511 382.414, 521.606 378.256, 530.700 374.098, 539.795 369.940, 548.889 365.781, 557.984 361.623, 567.078 357.465, 576.173 353.307, 585.267 349.149, 594.362 344.991, 603.457 340.833, 612.551 336.675, 621.646 336.099, 622.907 331.941, 632.001 331.533, 632.894 328.545, 639.428 324.387, 648.523 320.229, 657.617 316.071, 666.712 311.913, 675.806 310.100, 679.771 308.129, 683.994 306.099, 688.156 303.978, 692.273 301.730, 696.366 299.322, 700.450 296.719, 704.546 293.884, 708.673 290.782, 712.850 287.375, 717.098 283.626, 721.437 279.495, 725.890 274.942, 730.479 273.794, 731.648 272.570, 732.878 271.305, 734.164 270.034, 735.498 268.793, 736.871 267.618, 738.278 266.545, 739.708 265.612, 741.156 264.853, 742.612 264.307, 744.068 264.008, 745.515 263.993, 746.946 264.210, 747.948 264.645, 748.765 265.294, 749.390 266.155, 749.815 " />
            <path fill="none" stroke-width="3.0" stroke-linecap="butt" stroke-opacity="1.0" stroke="rgb(0, 0, 0)" stroke-linejoin="miter" d=" M 378.835, 660.549 377.889, 659.977 377.126, 659.231 376.541, 658.316 376.131, 657.237 375.888, 655.998 375.869, 654.913 375.931, 653.758 376.073, 652.533 376.249, 651.501 376.293, 651.238 376.591, 649.872 376.964, 648.434 377.413, 646.924 377.934, 645.341 378.528, 643.684 379.193, 641.954 379.670, 640.781 379.927, 640.149 380.729, 638.269 384.719, 629.100 388.710, 619.930 392.700, 610.761 396.690, 601.591 400.680, 592.422 404.671, 583.253 408.661, 574.083 412.651, 564.914 414.525, 560.608 417.369, 554.073 421.359, 544.904 425.349, 535.734 426.499, 533.093 427.164, 531.571 427.819, 530.164 428.466, 528.870 429.102, 527.688 429.729, 526.617 430.346, 525.654 430.953, 524.798 431.551, 524.048 432.138, 523.403 432.715, 522.860 433.281, 522.418 433.837, 522.075 434.304, 521.873 434.756, 521.773 435.189, 521.778 435.599, 521.892 435.981, 522.118 436.331, 522.461 436.646, 522.924 436.920, 523.510 437.149, 524.224 437.330, 525.068 437.457, 526.048 437.528, 527.166 437.746, 533.626 437.959, 540.045 438.164, 546.429 438.359, 552.782 438.540, 559.111 438.609, 561.754 438.704, 565.419 438.797, 569.472 438.848, 571.712 438.969, 577.996 439.064, 584.274 439.131, 590.553 439.165, 596.837 439.166, 603.132 439.121, 606.823 439.001, 610.156 438.754, 613.206 438.333, 616.045 437.688, 618.745 436.769, 621.379 435.526, 624.020 433.908, 626.740 431.864, 629.612 429.341, 632.711 426.284, 636.113 422.636, 639.893 421.719, 640.875 420.804, 641.870 419.907, 642.880 419.043, 643.910 418.227, 644.963 417.476, 646.041 416.806, 647.149 416.232, 648.289 415.771, 649.465 415.439, 650.679 415.251, 651.934 415.222, 653.233 415.359, 654.164 415.670, 654.929 416.136, 655.533 416.737, 655.982 417.456, 656.282 418.272, 656.439 419.168, 656.459 420.123, 656.348 421.121, 656.113 422.141, 655.760 423.167, 655.293 424.178, 654.721 428.927, 651.689 433.361, 648.740 437.510, 645.880 441.405, 643.112 445.073, 640.441 448.544, 637.873 451.845, 635.414 455.001, 633.068 458.039, 630.843 460.983, 628.745 463.859, 626.779 466.691, 624.954 469.530, 623.265 472.299, 621.759 475.045, 620.377 477.814, 619.062 480.650, 617.758 483.597, 616.410 486.700, 614.963 490.001, 613.363 493.541, 611.556 497.361, 609.489 501.502, 607.113 506.000, 604.377 506.833, 603.785 507.691, 603.044 508.554, 602.180 509.403, 601.215 510.221, 600.174 510.988, 599.079 511.687, 597.956 512.298, 596.826 512.804, 595.715 513.186, 594.643 513.426, 593.637 513.505, 592.717 513.445, 591.631 513.286, 590.684 513.030, 589.874 512.680, 589.199 512.235, 588.656 511.699, 588.243 511.072, 587.958 501.668, 584.557 492.264, 581.157 489.981, 580.331 " />
            <path fill="none" stroke-width="3.0" stroke-linecap="butt" stroke-opacity="1.0" stroke="rgb(0, 0, 0)" stroke-linejoin="miter" d=" M 511.072, 587.958 510.357, 587.798 509.555, 587.762 508.667, 587.847 507.695, 588.050 506.641, 588.370 503.373, 589.368 500.538, 590.027 498.107, 590.325 496.055, 590.244 494.351, 589.762 " />
            <path fill="none" stroke-width="3.0" stroke-linecap="butt" stroke-opacity="1.0" stroke="rgb(0, 0, 0)" stroke-linejoin="miter" d=" M 395.051, 659.325 394.378, 659.086 393.632, 658.967 392.814, 658.968 391.927, 659.084 390.972, 659.313 388.619, 660.080 386.478, 660.643 384.547, 661.007 382.821, 661.175 381.296, 661.152 379.969, 660.942 378.835, 660.549 " />
            <path fill="none" stroke-width="3.0" stroke-linecap="butt" stroke-opacity="1.0" stroke="rgb(0, 0, 0)" stroke-linejoin="miter" d=" M 379.670, 640.781 388.922, 644.576 398.173, 648.372 407.425, 652.167 416.677, 655.962 417.456, 656.282 " />
        </g>
    </g>
</svg>
