<?xml version='1.0' encoding='ascii'?>
<svg xmlns="http://www.w3.org/2000/svg" version="1.1" width="1080" height="1080">
    <g id="View Layer_LineSet" xmlns:inkscape="http://www.inkscape.org/namespaces/inkscape" inkscape:groupmode="lineset" inkscape:label="View Layer_LineSet">
        <g xmlns:inkscape="http://www.inkscape.org/namespaces/inkscape" inkscape:groupmode="layer" id="strokes" inkscape:label="strokes">
            <path fill="none" stroke-width="3.0" stroke-linecap="butt" stroke-opacity="1.0" stroke="rgb(0, 0, 0)" stroke-linejoin="miter" d=" M 497.815, 588.861 496.515, 587.986 495.486, 586.667 494.700, 584.886 494.127, 582.624 493.795, 580.275 493.737, 579.863 493.499, 576.583 493.384, 572.764 493.228, 562.766 493.072, 552.767 492.915, 542.768 492.759, 532.769 492.603, 522.770 492.447, 512.772 492.291, 502.773 492.134, 492.774 491.978, 482.775 491.822, 472.777 491.666, 462.778 491.509, 452.779 491.353, 442.780 491.197, 432.781 491.041, 422.783 490.885, 412.784 490.728, 402.785 490.572, 392.786 490.416, 382.788 490.367, 379.676 490.377, 375.047 490.575, 370.857 490.989, 367.050 491.644, 363.569 492.566, 360.355 493.779, 357.351 495.308, 354.498 497.177, 351.737 499.408, 349.009 502.023, 346.255 505.043, 343.417 508.488, 340.438 509.286, 339.687 510.024, 338.887 510.699, 338.037 511.309, 337.136 511.853, 336.184 512.329, 335.179 512.735, 334.120 513.070, 333.007 513.330, 331.839 513.516, 330.615 513.624, 329.332 513.654, 327.992 513.590, 327.018 513.423, 326.153 513.164, 325.395 512.826, 324.744 512.418, 324.200 511.953, 323.763 511.442, 323.432 510.896, 323.207 501.128, 321.065 491.360, 318.923 481.592, 316.781 471.825, 314.639 462.057, 312.496 452.289, 310.354 442.521, 308.212 432.753, 306.070 422.985, 303.928 413.217, 301.786 403.450, 299.643 393.682, 297.501 383.914, 295.359 378.997, 294.281 378.385, 294.152 377.765, 294.124 377.150, 294.196 376.551, 294.369 373.196, 295.692 369.605, 297.183 365.825, 298.810 361.901, 300.539 357.880, 302.338 353.811, 304.173 349.743, 306.010 345.727, 307.812 341.814, 309.545 338.057, 311.171 334.509, 312.654 331.224, 313.957 327.942, 315.177 324.252, 316.489 320.221, 317.878 315.921, 319.331 311.420, 320.833 306.793, 322.368 302.114, 323.922 297.459, 325.479 292.908, 327.020 288.541, 328.530 284.443, 329.990 280.696, 331.381 279.885, 331.741 279.139, 332.175 278.462, 332.684 277.855, 333.266 277.322, 333.921 276.864, 334.647 276.485, 335.443 276.188, 336.309 275.973, 337.242 275.844, 338.243 275.803, 339.310 275.853, 340.441 276.019, 341.848 276.268, 343.057 276.599, 344.084 277.011, 344.943 277.502, 345.650 278.071, 346.222 278.716, 346.673 279.437, 347.019 280.231, 347.276 289.924, 349.733 299.618, 352.191 302.021, 352.800 311.715, 355.258 321.408, 357.715 331.101, 360.173 340.795, 362.630 350.488, 365.088 360.320, 367.580 370.013, 370.038 379.706, 372.495 389.400, 374.952 399.093, 377.410 408.786, 379.867 415.981, 381.692 416.794, 381.859 417.677, 381.962 418.626, 382.019 422.806, 382.016 426.397, 382.245 429.450, 382.739 " />
            <path fill="none" stroke-width="3.0" stroke-linecap="butt" stroke-opacity="1.0" stroke="rgb(0, 0, 0)" stroke-linejoin="miter" d=" M 437.464, 507.311 436.894, 507.089 436.297, 506.798 435.664, 506.446 434.990, 506.041 434.269, 505.592 433.494, 505.105 432.658, 504.590 425.498, 497.610 418.337, 490.630 411.176, 483.649 404.016, 476.669 396.855, 469.689 389.694, 462.708 382.534, 455.728 375.373, 448.748 368.212, 441.768 366.555, 440.152 365.547, 439.153 364.589, 438.167 364.278, 437.831 363.685, 437.190 362.843, 436.216 362.069, 435.243 361.370, 434.264 360.751, 433.276 360.218, 432.274 359.779, 431.255 359.439, 430.212 359.205, 429.143 359.082, 428.042 359.093, 426.281 359.328, 424.478 359.788, 422.635 360.475, 420.755 361.390, 418.838 362.532, 416.889 363.055, 416.132 363.903, 414.908 365.501, 412.899 367.329, 410.864 369.383, 408.805 371.665, 406.725 374.172, 404.626 375.145, 403.750 376.039, 402.825 376.851, 401.849 377.580, 400.823 378.222, 399.745 378.777, 398.615 379.241, 397.431 379.612, 396.193 379.888, 394.900 380.067, 393.550 380.146, 392.143 380.123, 390.677 379.999, 389.618 379.750, 388.685 379.390, 387.875 378.934, 387.187 378.396, 386.621 377.790, 386.175 377.131, 385.849 376.433, 385.641 366.754, 383.128 361.113, 381.663 351.434, 379.150 341.755, 376.636 332.076, 374.123 322.397, 371.610 312.718, 369.097 306.496, 367.481 296.817, 364.968 287.138, 362.455 277.459, 359.941 267.780, 357.428 258.101, 354.915 248.422, 352.402 238.604, 349.853 237.840, 349.745 237.070, 349.747 236.309, 349.859 235.573, 350.079 226.233, 353.652 216.893, 357.224 209.246, 360.149 202.894, 362.548 196.649, 364.854 190.460, 367.095 184.276, 369.300 178.044, 371.502 171.707, 373.731 165.210, 376.020 158.493, 378.402 151.495, 380.911 144.153, 383.583 136.402, 386.454 128.171, 389.563 126.825, 390.131 125.495, 390.805 124.203, 391.576 122.971, 392.436 121.820, 393.376 120.774, 394.388 119.853, 395.464 119.082, 396.594 118.481, 397.771 118.073, 398.985 117.880, 400.228 117.925, 401.489 118.286, 403.006 118.908, 404.270 119.754, 405.300 120.789, 406.115 121.979, 406.735 123.289, 407.179 132.860, 410.077 142.431, 412.975 152.002, 415.872 161.573, 418.770 171.144, 421.667 180.715, 424.565 190.286, 427.463 199.857, 430.360 209.428, 433.258 218.999, 436.155 228.570, 439.053 238.141, 441.951 241.761, 443.047 251.332, 445.944 260.903, 448.842 264.343, 449.883 265.674, 450.141 267.058, 450.251 268.464, 450.235 269.857, 450.115 271.204, 449.911 272.475, 449.645 279.440, 447.819 282.266, 447.247 285.970, 446.498 292.097, 445.645 297.849, 445.222 303.253, 445.193 308.336, 445.524 312.292, 446.067 313.124, 446.181 317.641, 447.130 321.912, 448.339 " />
            <path fill="none" stroke-width="3.0" stroke-linecap="butt" stroke-opacity="1.0" stroke="rgb(0, 0, 0)" stroke-linejoin="miter" d=" M 302.021, 352.800 302.969, 353.949 304.172, 356.194 305.104, 358.875 305.809, 362.026 306.331, 365.678 306.496, 367.481 " />
            <path fill="none" stroke-width="3.0" stroke-linecap="butt" stroke-opacity="1.0" stroke="rgb(0, 0, 0)" stroke-linejoin="miter" d=" M 241.761, 443.047 246.483, 446.536 251.928, 450.497 257.380, 454.353 262.852, 458.068 263.712, 458.726 264.435, 459.496 265.022, 460.373 265.471, 461.351 265.784, 462.423 265.959, 463.583 265.997, 464.827 265.897, 466.147 265.658, 467.538 265.281, 468.995 264.763, 470.512 264.106, 472.083 260.039, 481.218 255.972, 490.354 251.905, 499.490 247.839, 508.625 243.772, 517.761 239.705, 526.897 235.638, 536.033 231.571, 545.168 227.505, 554.304 223.438, 563.440 219.371, 572.575 215.304, 581.711 211.237, 590.847 207.170, 599.982 203.104, 609.118 199.037, 618.254 194.970, 627.390 193.538, 630.606 191.714, 634.610 189.830, 638.555 187.853, 642.456 185.750, 646.329 183.485, 650.192 181.026, 654.061 178.338, 657.954 175.384, 661.889 172.129, 665.885 168.536, 669.960 164.566, 674.135 160.180, 678.430 159.075, 679.524 157.896, 680.676 156.678, 681.880 155.455, 683.129 154.264, 684.417 153.140, 685.739 152.119, 687.086 151.236, 688.453 150.529, 689.832 150.032, 691.216 149.783, 692.598 149.816, 693.970 150.065, 694.937 150.525, 695.733 151.193, 696.348 152.066, 696.777 161.221, 700.800 170.376, 704.824 179.531, 708.848 188.685, 712.871 197.840, 716.895 206.995, 720.918 216.150, 724.942 225.305, 728.965 234.460, 732.989 243.614, 737.013 252.769, 741.036 261.924, 745.060 271.079, 749.083 280.234, 753.107 282.188, 753.966 283.204, 754.158 284.416, 754.129 285.820, 753.871 287.413, 753.375 289.192, 752.636 291.154, 751.646 293.294, 750.398 295.610, 748.887 301.019, 745.118 306.393, 741.263 311.737, 737.342 317.053, 733.377 322.345, 729.386 327.616, 725.391 332.869, 721.411 338.107, 717.467 343.331, 713.577 348.543, 709.762 353.747, 706.041 358.943, 702.432 362.846, 699.810 366.617, 697.354 370.277, 695.033 373.845, 692.819 377.343, 690.681 380.791, 688.592 384.206, 686.523 387.609, 684.446 391.018, 682.334 394.451, 680.160 397.927, 677.897 401.463, 675.519 402.079, 675.045 402.702, 674.465 403.320, 673.792 403.921, 673.038 404.492, 672.216 405.021, 671.340 405.496, 670.422 405.904, 669.475 406.234, 668.510 406.473, 667.542 406.608, 666.583 406.627, 665.644 406.529, 664.484 406.348, 663.465 406.087, 662.586 405.747, 661.842 405.330, 661.232 404.839, 660.752 404.275, 660.401 394.913, 656.884 386.400, 653.686 " />
            <path fill="none" stroke-width="3.0" stroke-linecap="butt" stroke-opacity="1.0" stroke="rgb(0, 0, 0)" stroke-linejoin="miter" d=" M 510.896, 323.207 510.327, 323.089 509.747, 323.075 509.168, 323.168 508.600, 323.365 505.405, 324.843 501.983, 326.504 498.376, 328.313 494.629, 330.235 490.788, 332.233 486.899, 334.270 483.010, 336.310 479.168, 338.314 475.425, 340.242 471.832, 342.054 468.439, 343.711 465.300, 345.172 462.165, 346.545 458.641, 348.027 454.793, 349.600 450.687, 351.249 446.388, 352.955 441.967, 354.701 437.494, 356.469 433.043, 358.239 428.688, 359.992 424.507, 361.706 420.579, 363.361 416.986, 364.934 416.205, 365.336 415.484, 365.815 414.825, 366.371 414.231, 367.002 413.703, 367.707 413.244, 368.485 412.857, 369.335 412.545, 370.256 412.308, 371.246 412.151, 372.304 412.074, 373.429 412.081, 374.620 412.189, 376.098 412.382, 377.364 412.659, 378.436 412.687, 378.506 413.018, 379.329 413.457, 380.060 413.975, 380.645 414.570, 381.101 415.239, 381.444 415.981, 381.692 " />
            <path fill="none" stroke-width="3.0" stroke-linecap="butt" stroke-opacity="1.0" stroke="rgb(0, 0, 0)" stroke-linejoin="miter" d=" M 376.433, 385.641 375.710, 385.550 374.979, 385.575 374.252, 385.715 373.545, 385.970 364.425, 390.073 355.305, 394.175 348.149, 397.395 342.014, 400.124 335.980, 402.751 329.999, 405.310 324.021, 407.834 317.993, 410.355 311.861, 412.911 309.924, 413.719 305.570, 415.536 299.062, 418.268 292.276, 421.146 285.151, 424.209 277.622, 427.497 269.619, 431.055 268.308, 431.702 267.321, 432.277 267.009, 432.459 265.742, 433.318 264.530, 434.269 263.393, 435.302 262.354, 436.409 261.434, 437.579 260.655, 438.803 260.039, 440.070 259.606, 441.371 259.380, 442.694 259.380, 444.030 259.677, 445.625 260.232, 446.945 261.010, 448.008 261.977, 448.838 263.099, 449.456 264.343, 449.883 " />
            <path fill="none" stroke-width="3.0" stroke-linecap="butt" stroke-opacity="1.0" stroke="rgb(0, 0, 0)" stroke-linejoin="miter" d=" M 429.450, 382.739 432.014, 383.533 434.136, 384.658 435.859, 386.150 437.227, 388.042 438.282, 390.367 439.065, 393.158 439.617, 396.450 439.978, 400.274 440.189, 404.661 440.505, 414.656 440.822, 424.651 441.138, 434.646 441.455, 444.641 441.771, 454.636 442.088, 464.631 442.404, 474.626 442.721, 484.621 443.038, 494.616 443.165, 498.650 443.171, 499.814 443.116, 500.887 443.002, 501.871 442.836, 502.768 442.621, 503.581 442.361, 504.312 442.060, 504.964 441.724, 505.539 441.355, 506.039 440.958, 506.467 440.538, 506.824 440.099, 507.113 439.579, 507.354 439.062, 507.486 438.541, 507.518 438.011, 507.457 437.464, 507.311 " />
            <path fill="none" stroke-width="3.0" stroke-linecap="butt" stroke-opacity="1.0" stroke="rgb(0, 0, 0)" stroke-linejoin="miter" d=" M 321.912, 448.339 325.960, 449.776 329.808, 451.410 333.478, 453.210 339.040, 456.314 344.484, 459.694 349.825, 463.302 355.078, 467.093 360.258, 471.022 365.379, 475.044 370.455, 479.117 375.500, 483.198 380.526, 487.246 385.547, 491.221 386.111, 491.654 390.575, 495.083 395.624, 498.794 396.414, 499.455 397.071, 500.238 397.595, 501.139 397.986, 502.149 398.243, 503.264 398.368, 504.477 398.360, 505.781 398.219, 507.171 398.026, 508.204 397.944, 508.641 397.536, 510.184 396.993, 511.795 396.316, 513.469 392.382, 522.662 388.447, 531.856 384.513, 541.049 381.311, 548.530 380.658, 550.057 376.723, 559.251 372.789, 568.444 368.854, 577.638 364.920, 586.831 360.985, 596.025 357.051, 605.218 353.116, 614.412 349.182, 623.605 347.324, 627.947 343.389, 637.141 343.246, 637.475 340.608, 643.638 336.674, 652.832 332.739, 662.025 328.805, 671.219 324.871, 680.412 323.911, 682.654 322.041, 686.935 320.115, 691.156 318.102, 695.335 315.970, 699.492 313.685, 703.645 311.214, 707.814 308.524, 712.019 305.580, 716.282 302.346, 720.622 298.786, 725.063 294.864, 729.628 290.539, 734.338 289.450, 735.538 288.287, 736.802 287.085, 738.122 285.877, 739.490 284.698, 740.898 283.582, 742.338 282.563, 743.800 281.675, 745.275 280.954, 746.756 280.434, 748.231 280.150, 749.693 280.135, 751.131 280.341, 752.133 280.753, 752.945 281.370, 753.559 282.188, 753.966 " />
            <path fill="none" stroke-width="3.0" stroke-linecap="butt" stroke-opacity="1.0" stroke="rgb(0, 0, 0)" stroke-linejoin="miter" d=" M 388.960, 661.956 388.066, 661.403 387.345, 660.671 386.794, 659.765 386.406, 658.692 386.177, 657.455 386.159, 656.367 386.219, 655.209 386.353, 653.978 386.400, 653.686 386.561, 652.676 386.843, 651.300 387.196, 649.852 387.620, 648.329 388.114, 646.732 388.675, 645.060 389.241, 643.488 389.304, 643.313 389.998, 641.489 390.757, 639.589 394.526, 630.327 398.296, 621.065 402.066, 611.802 405.836, 602.540 409.606, 593.278 413.375, 584.016 417.145, 574.754 420.915, 565.491 421.668, 563.641 424.195, 557.433 427.964, 548.171 431.734, 538.909 433.977, 533.398 434.605, 531.863 435.223, 530.443 435.833, 529.137 436.433, 527.943 437.024, 526.860 437.606, 525.886 438.178, 525.019 438.741, 524.258 439.295, 523.602 439.838, 523.049 440.373, 522.597 440.897, 522.245 441.336, 522.035 441.762, 521.926 442.170, 521.924 442.556, 522.031 442.916, 522.251 443.246, 522.588 443.542, 523.045 443.800, 523.628 444.016, 524.338 444.186, 525.180 444.306, 526.158 444.372, 527.276 444.575, 533.736 444.774, 540.156 444.966, 546.541 445.148, 552.896 445.316, 559.225 445.441, 564.406 445.469, 565.535 445.597, 571.566 445.602, 571.830 445.715, 578.116 445.803, 584.398 445.863, 590.680 445.894, 596.969 445.893, 603.268 445.850, 606.962 445.735, 610.301 445.502, 613.358 445.104, 616.207 444.496, 618.922 443.629, 621.576 442.457, 624.243 440.932, 626.996 439.006, 629.911 436.627, 633.063 433.744, 636.528 430.304, 640.385 429.439, 641.387 428.577, 642.401 427.730, 643.431 426.915, 644.479 426.145, 645.549 425.437, 646.644 424.805, 647.767 424.263, 648.920 423.828, 650.106 423.514, 651.329 423.336, 652.589 423.309, 653.891 423.438, 654.821 423.731, 655.581 424.170, 656.176 424.737, 656.613 425.414, 656.899 426.184, 657.040 427.029, 657.042 427.930, 656.912 428.870, 656.656 429.833, 656.281 430.800, 655.794 431.754, 655.200 436.231, 652.069 440.410, 649.029 444.320, 646.083 447.990, 643.235 451.446, 640.490 454.716, 637.851 457.824, 635.325 460.796, 632.917 463.656, 630.631 466.428, 628.475 469.135, 626.453 471.799, 624.572 474.471, 622.828 477.076, 621.268 479.659, 619.833 482.263, 618.464 484.930, 617.107 487.702, 615.702 490.619, 614.196 493.721, 612.533 497.049, 610.659 500.639, 608.521 504.529, 606.068 508.754, 603.248 509.537, 602.641 510.342, 601.885 511.153, 601.005 511.951, 600.025 512.719, 598.969 513.439, 597.861 514.095, 596.726 514.670, 595.586 515.145, 594.465 515.504, 593.388 515.729, 592.378 515.804, 591.458 515.747, 590.374 515.599, 589.430 515.359, 588.626 515.030, 587.958 514.613, 587.424 514.109, 587.022 513.521, 586.749 504.020, 583.630 494.518, 580.512 493.795, 580.275 " />
            <path fill="none" stroke-width="3.0" stroke-linecap="butt" stroke-opacity="1.0" stroke="rgb(0, 0, 0)" stroke-linejoin="miter" d=" M 513.521, 586.749 512.850, 586.602 512.096, 586.581 511.262, 586.682 510.350, 586.903 509.360, 587.242 506.291, 588.300 503.627, 589.011 501.344, 589.355 499.416, 589.311 497.815, 588.861 " />
            <path fill="none" stroke-width="3.0" stroke-linecap="butt" stroke-opacity="1.0" stroke="rgb(0, 0, 0)" stroke-linejoin="miter" d=" M 404.275, 660.401 403.639, 660.175 402.935, 660.071 402.162, 660.088 401.325, 660.222 400.423, 660.472 398.201, 661.287 396.179, 661.895 394.355, 662.299 392.725, 662.503 391.285, 662.511 390.031, 662.328 388.960, 661.956 " />
            <path fill="none" stroke-width="3.0" stroke-linecap="butt" stroke-opacity="1.0" stroke="rgb(0, 0, 0)" stroke-linejoin="miter" d=" M 389.241, 643.488 398.617, 646.964 407.994, 650.440 417.370, 653.917 425.414, 656.899 " />
        </g>
    </g>
</svg>
