<?xml version='1.0' encoding='ascii'?>
<svg xmlns="http://www.w3.org/2000/svg" version="1.1" width="1080" height="1080">
    <g id="View Layer_LineSet" xmlns:inkscape="http://www.inkscape.org/namespaces/inkscape" inkscape:groupmode="lineset" inkscape:label="View Layer_LineSet">
        <g xmlns:inkscape="http://www.inkscape.org/namespaces/inkscape" inkscape:groupmode="layer" id="strokes" inkscape:label="strokes">
            <path fill="none" stroke-width="3.0" stroke-linecap="butt" stroke-opacity="1.0" stroke="rgb(0, 0, 0)" stroke-linejoin="miter" d=" M 501.153, 587.902 499.938, 587.052 498.977, 585.752 498.243, 583.986 497.707, 581.736 497.485, 580.056 497.343, 578.983 497.122, 575.709 497.016, 571.895 496.871, 561.896 496.727, 551.897 496.583, 541.898 496.439, 531.899 496.295, 521.900 496.151, 511.901 496.007, 501.902 495.863, 491.903 495.719, 481.904 495.575, 471.905 495.431, 461.906 495.287, 451.907 495.143, 441.908 494.999, 431.909 494.855, 421.910 494.711, 411.911 494.567, 401.912 494.423, 391.913 494.279, 381.914 494.237, 378.980 494.247, 374.354 494.433, 370.165 494.821, 366.355 495.434, 362.868 496.296, 359.646 497.430, 356.629 498.860, 353.758 500.607, 350.976 502.692, 348.222 505.135, 345.438 507.957, 342.565 511.174, 339.547 511.920, 338.787 512.609, 337.979 513.239, 337.121 513.809, 336.214 514.317, 335.256 514.762, 334.246 515.141, 333.185 515.454, 332.069 515.697, 330.899 515.871, 329.674 515.972, 328.392 516.000, 327.053 515.940, 326.082 515.785, 325.219 515.544, 324.466 515.228, 323.820 514.847, 323.282 514.413, 322.851 513.936, 322.527 513.426, 322.309 512.895, 322.197 503.087, 320.249 493.278, 318.301 483.470, 316.354 473.661, 314.406 463.853, 312.458 454.044, 310.510 444.236, 308.562 434.427, 306.615 424.619, 304.667 414.811, 302.719 405.002, 300.771 395.194, 298.824 385.385, 296.876 376.572, 295.126 375.982, 295.105 375.397, 295.184 374.828, 295.365 371.640, 296.730 368.227, 298.267 364.634, 299.943 360.904, 301.724 357.081, 303.576 353.212, 305.464 349.343, 307.355 345.523, 309.211 341.799, 310.997 338.223, 312.674 334.846, 314.205 331.719, 315.552 328.593, 316.817 325.078, 318.178 321.238, 319.622 317.139, 321.134 312.850, 322.697 308.438, 324.296 303.976, 325.915 299.536, 327.536 295.194, 329.141 291.028, 330.713 287.116, 332.231 283.540, 333.676 282.766, 334.047 282.054, 334.493 281.408, 335.013 280.830, 335.606 280.323, 336.270 279.888, 337.005 279.528, 337.810 279.246, 338.684 279.043, 339.625 278.923, 340.632 278.887, 341.704 278.938, 342.840 279.101, 344.252 279.343, 345.463 279.663, 346.490 280.059, 347.347 280.530, 348.052 281.076, 348.619 281.694, 349.063 282.384, 349.402 283.144, 349.649 292.892, 351.879 302.640, 354.108 303.489, 354.302 313.238, 356.531 322.986, 358.760 332.734, 360.989 342.483, 363.218 352.231, 365.447 359.499, 367.109 369.247, 369.338 378.996, 371.567 388.744, 373.796 398.492, 376.025 408.241, 378.254 417.989, 380.483 424.594, 381.993 425.357, 382.149 426.184, 382.241 427.074, 382.285 430.993, 382.226 434.359, 382.407 437.221, 382.860 " />
            <path fill="none" stroke-width="3.0" stroke-linecap="butt" stroke-opacity="1.0" stroke="rgb(0, 0, 0)" stroke-linejoin="miter" d=" M 444.699, 507.392 444.166, 507.179 443.606, 506.897 443.013, 506.556 442.382, 506.162 441.706, 505.724 440.980, 505.249 440.197, 504.748 433.210, 497.594 426.222, 490.440 419.235, 483.286 412.248, 476.132 405.260, 468.979 398.273, 461.825 391.286, 454.671 384.298, 447.517 378.171, 441.244 377.224, 440.257 376.323, 439.283 375.474, 438.317 374.683, 437.354 373.955, 436.389 373.298, 435.419 372.716, 434.438 372.216, 433.442 371.803, 432.426 371.484, 431.386 371.264, 430.318 371.149, 429.216 371.160, 427.451 371.381, 425.640 371.815, 423.787 372.461, 421.892 373.321, 419.958 374.396, 417.988 375.685, 415.983 377.189, 413.947 378.907, 411.882 380.838, 409.790 382.983, 407.673 385.340, 405.535 386.255, 404.643 387.095, 403.704 387.858, 402.715 388.543, 401.677 389.147, 400.588 389.668, 399.448 390.104, 398.256 390.453, 397.011 390.713, 395.711 390.882, 394.357 390.956, 392.946 390.935, 391.477 390.819, 390.419 390.585, 389.487 390.247, 388.680 389.819, 387.998 389.314, 387.438 388.745, 387.000 388.125, 386.681 387.470, 386.482 377.732, 384.206 367.995, 381.929 360.235, 380.115 350.497, 377.839 340.760, 375.563 331.023, 373.286 321.285, 371.010 311.548, 368.733 308.142, 367.937 298.405, 365.661 288.667, 363.384 278.930, 361.108 269.192, 358.832 259.455, 356.555 249.717, 354.279 243.329, 352.785 242.597, 352.687 241.859, 352.699 241.131, 352.822 240.427, 353.053 231.193, 356.893 221.960, 360.733 215.227, 363.533 209.143, 366.033 203.158, 368.438 197.226, 370.778 191.296, 373.083 185.318, 375.385 179.239, 377.717 173.003, 380.112 166.555, 382.605 159.835, 385.231 152.782, 388.026 145.332, 391.029 137.420, 394.279 136.127, 394.872 134.848, 395.570 133.606, 396.366 132.422, 397.250 131.317, 398.214 130.312, 399.250 129.430, 400.348 128.690, 401.499 128.115, 402.695 127.726, 403.925 127.544, 405.181 127.590, 406.453 127.943, 407.977 128.545, 409.242 129.362, 410.269 130.362, 411.076 131.510, 411.684 132.773, 412.113 142.424, 414.730 152.076, 417.347 161.727, 419.964 171.379, 422.581 181.030, 425.198 190.682, 427.815 200.333, 430.432 209.985, 433.048 219.636, 435.665 229.288, 438.282 239.536, 441.061 249.187, 443.678 258.839, 446.295 268.490, 448.912 278.142, 451.529 281.863, 452.538 283.120, 452.777 284.427, 452.867 285.754, 452.829 287.069, 452.687 288.091, 452.507 288.342, 452.462 289.542, 452.175 296.116, 450.237 302.279, 448.812 308.059, 447.864 313.484, 447.353 313.984, 447.342 318.579, 447.243 323.370, 447.499 327.882, 448.086 332.138, 448.970 " />
            <path fill="none" stroke-width="3.0" stroke-linecap="butt" stroke-opacity="1.0" stroke="rgb(0, 0, 0)" stroke-linejoin="miter" d=" M 303.489, 354.302 304.884, 356.053 306.039, 358.291 306.937, 360.971 307.619, 364.124 308.128, 367.784 308.142, 367.937 " />
            <path fill="none" stroke-width="3.0" stroke-linecap="butt" stroke-opacity="1.0" stroke="rgb(0, 0, 0)" stroke-linejoin="miter" d=" M 239.536, 441.061 240.686, 441.930 245.933, 445.927 251.163, 449.893 256.386, 453.791 261.616, 457.583 266.861, 461.232 267.686, 461.879 268.380, 462.642 268.943, 463.514 269.376, 464.490 269.679, 465.562 269.850, 466.726 269.890, 467.975 269.798, 469.304 269.574, 470.706 269.217, 472.176 268.727, 473.709 268.103, 475.299 264.249, 484.526 260.395, 493.754 256.541, 502.981 252.687, 512.209 248.833, 521.436 244.979, 530.664 241.125, 539.891 237.271, 549.119 233.417, 558.346 229.563, 567.574 225.710, 576.801 221.856, 586.029 218.002, 595.256 214.148, 604.484 210.294, 613.711 206.440, 622.939 202.586, 632.166 200.965, 636.047 199.226, 640.117 197.430, 644.127 195.543, 648.095 193.535, 652.039 191.373, 655.975 189.023, 659.922 186.452, 663.899 183.627, 667.924 180.512, 672.017 177.071, 676.198 173.269, 680.488 169.065, 684.908 168.007, 686.034 166.877, 687.220 165.709, 688.458 164.537, 689.743 163.395, 691.067 162.318, 692.423 161.340, 693.803 160.496, 695.199 159.819, 696.604 159.346, 698.010 159.110, 699.409 159.146, 700.792 159.389, 701.761 159.834, 702.553 160.478, 703.160 161.319, 703.573 170.622, 707.239 179.926, 710.905 189.229, 714.572 198.533, 718.238 207.837, 721.904 217.140, 725.571 226.444, 729.237 235.748, 732.903 245.051, 736.570 254.355, 740.236 263.659, 743.902 272.962, 747.569 282.266, 751.235 291.570, 754.901 298.600, 757.672 299.559, 757.843 300.703, 757.787 302.028, 757.496 303.532, 756.963 305.211, 756.181 307.062, 755.144 309.081, 753.843 311.266, 752.274 316.369, 748.371 321.438, 744.383 326.477, 740.331 331.488, 736.235 336.476, 732.116 341.443, 727.993 346.391, 723.887 351.323, 719.819 356.242, 715.806 361.149, 711.869 366.046, 708.028 370.935, 704.301 374.606, 701.590 378.152, 699.049 381.593, 696.647 384.948, 694.353 388.236, 692.139 391.476, 689.974 394.685, 687.830 397.882, 685.680 401.084, 683.494 404.309, 681.246 407.573, 678.908 410.893, 676.454 411.471, 675.968 412.056, 675.374 412.636, 674.687 413.200, 673.920 413.737, 673.085 414.234, 672.197 414.680, 671.268 415.063, 670.311 415.373, 669.338 415.597, 668.364 415.724, 667.400 415.743, 666.459 415.650, 665.299 415.481, 664.283 415.236, 663.407 414.917, 662.669 414.526, 662.066 414.065, 661.596 413.536, 661.255 412.940, 661.041 403.468, 657.833 396.675, 655.531 " />
            <path fill="none" stroke-width="3.0" stroke-linecap="butt" stroke-opacity="1.0" stroke="rgb(0, 0, 0)" stroke-linejoin="miter" d=" M 512.895, 322.197 512.354, 322.191 511.812, 322.290 511.282, 322.494 508.298, 324.009 505.101, 325.709 501.731, 327.560 498.230, 329.526 494.640, 331.569 491.005, 333.653 487.368, 335.739 483.777, 337.789 480.276, 339.763 476.914, 341.620 473.740, 343.319 470.803, 344.818 467.869, 346.231 464.571, 347.757 460.968, 349.379 457.123, 351.080 453.098, 352.841 448.956, 354.645 444.766, 356.470 440.594, 358.299 436.513, 360.108 432.593, 361.878 428.910, 363.585 425.541, 365.207 424.809, 365.619 424.132, 366.108 423.514, 366.673 422.956, 367.313 422.461, 368.025 422.030, 368.810 421.667, 369.666 421.374, 370.592 421.152, 371.586 421.004, 372.648 420.932, 373.775 420.938, 374.966 421.038, 376.445 421.219, 377.710 421.479, 378.779 421.683, 379.320 421.815, 379.668 422.227, 380.393 422.713, 380.972 423.270, 381.421 423.898, 381.756 424.594, 381.993 " />
            <path fill="none" stroke-width="3.0" stroke-linecap="butt" stroke-opacity="1.0" stroke="rgb(0, 0, 0)" stroke-linejoin="miter" d=" M 387.470, 386.482 386.791, 386.401 386.103, 386.436 385.420, 386.587 384.756, 386.851 375.791, 391.281 366.825, 395.710 360.876, 398.650 355.102, 401.471 349.422, 404.190 343.791, 406.841 338.161, 409.456 332.482, 412.071 326.704, 414.722 320.774, 417.446 314.637, 420.281 312.103, 421.464 308.237, 423.267 301.515, 426.445 294.408, 429.857 286.853, 433.548 285.614, 434.216 284.387, 434.996 283.191, 435.877 283.046, 436.000 282.045, 436.850 280.972, 437.905 279.990, 439.033 279.120, 440.222 278.384, 441.463 277.801, 442.745 277.392, 444.057 277.178, 445.390 277.178, 446.733 277.458, 448.331 277.981, 449.648 278.716, 450.705 279.629, 451.524 280.689, 452.128 281.863, 452.538 " />
            <path fill="none" stroke-width="3.0" stroke-linecap="butt" stroke-opacity="1.0" stroke="rgb(0, 0, 0)" stroke-linejoin="miter" d=" M 437.221, 382.860 439.624, 383.620 441.612, 384.717 443.226, 386.187 444.507, 388.060 445.495, 390.372 446.228, 393.154 446.744, 396.440 447.082, 400.260 447.278, 404.647 447.572, 414.642 447.866, 424.638 448.160, 434.634 448.454, 444.629 448.748, 454.625 449.042, 464.621 449.337, 474.616 449.631, 484.612 449.925, 494.608 450.043, 498.633 450.048, 499.798 449.996, 500.873 449.890, 501.859 449.734, 502.759 449.532, 503.576 449.288, 504.312 449.006, 504.969 448.691, 505.549 448.345, 506.056 447.974, 506.490 447.580, 506.854 447.168, 507.150 446.682, 507.400 446.197, 507.541 445.709, 507.581 445.212, 507.529 444.699, 507.392 " />
            <path fill="none" stroke-width="3.0" stroke-linecap="butt" stroke-opacity="1.0" stroke="rgb(0, 0, 0)" stroke-linejoin="miter" d=" M 332.138, 448.970 336.161, 450.119 339.973, 451.500 343.596, 453.081 347.051, 454.831 352.285, 457.859 357.407, 461.165 362.431, 464.701 367.371, 468.421 372.241, 472.279 377.055, 476.230 381.825, 480.232 386.564, 484.242 391.285, 488.219 396.001, 492.121 399.540, 494.961 400.722, 495.909 405.460, 499.545 406.202, 500.194 406.819, 500.968 407.310, 501.861 407.677, 502.867 407.919, 503.979 408.035, 505.192 408.028, 506.498 407.895, 507.893 407.636, 509.369 407.420, 510.246 407.253, 510.922 406.743, 512.544 406.107, 514.232 402.404, 523.521 398.701, 532.810 394.999, 542.099 392.329, 548.797 390.023, 554.584 386.320, 563.873 382.617, 573.163 378.915, 582.452 375.212, 591.741 371.509, 601.031 367.807, 610.320 364.104, 619.609 360.402, 628.898 358.989, 632.443 355.363, 641.539 353.035, 647.380 349.333, 656.669 345.630, 665.959 341.927, 675.248 338.225, 684.537 337.967, 685.184 336.203, 689.518 334.388, 693.794 332.490, 698.030 330.479, 702.247 328.324, 706.463 325.994, 710.700 323.457, 714.978 320.680, 719.320 317.629, 723.747 314.271, 728.282 310.569, 732.950 306.488, 737.774 305.460, 739.003 304.362, 740.297 303.227, 741.649 302.087, 743.050 300.974, 744.490 299.920, 745.960 298.958, 747.451 298.119, 748.953 297.438, 750.456 296.947, 751.950 296.678, 753.425 296.664, 754.869 296.858, 755.872 297.247, 756.678 297.828, 757.281 298.600, 757.672 " />
            <path fill="none" stroke-width="3.0" stroke-linecap="butt" stroke-opacity="1.0" stroke="rgb(0, 0, 0)" stroke-linejoin="miter" d=" M 400.163, 663.468 399.157, 663.118 398.318, 662.580 397.641, 661.861 397.123, 660.965 396.759, 659.897 396.545, 658.663 396.529, 657.573 396.584, 656.411 396.675, 655.531 396.711, 655.175 396.907, 653.866 397.172, 652.482 397.504, 651.024 397.903, 649.490 398.367, 647.880 398.895, 646.194 399.015, 645.835 399.486, 644.431 400.138, 642.590 400.851, 640.672 404.393, 631.320 407.936, 621.968 411.478, 612.617 415.020, 603.265 418.562, 593.914 422.105, 584.562 425.647, 575.211 429.030, 566.279 431.268, 560.372 434.810, 551.020 438.352, 541.669 441.426, 533.555 442.014, 532.008 442.594, 530.577 443.166, 529.260 443.728, 528.055 444.283, 526.961 444.828, 525.976 445.365, 525.099 445.892, 524.329 446.411, 523.663 446.920, 523.100 447.421, 522.639 447.912, 522.278 448.324, 522.060 448.723, 521.945 449.105, 521.936 449.467, 522.036 449.804, 522.250 450.113, 522.582 450.390, 523.035 450.632, 523.613 450.834, 524.320 450.993, 525.160 451.105, 526.137 451.166, 527.254 451.355, 533.714 451.540, 540.134 451.718, 546.519 451.887, 552.874 452.043, 559.204 452.184, 565.514 452.206, 566.596 452.308, 571.810 452.332, 573.265 452.412, 578.098 452.492, 584.381 452.548, 590.666 452.575, 596.957 452.572, 603.261 452.531, 606.958 452.423, 610.300 452.204, 613.363 451.831, 616.222 451.260, 618.950 450.447, 621.622 449.349, 624.313 447.920, 627.098 446.113, 630.052 443.883, 633.252 441.181, 636.775 437.956, 640.703 437.145, 641.722 436.336, 642.754 435.542, 643.801 434.777, 644.866 434.056, 645.953 433.391, 647.063 432.798, 648.199 432.290, 649.364 431.882, 650.560 431.587, 651.790 431.420, 653.056 431.394, 654.359 431.515, 655.288 431.789, 656.043 432.201, 656.630 432.732, 657.057 433.367, 657.329 434.089, 657.455 434.881, 657.440 435.726, 657.292 436.608, 657.018 437.510, 656.624 438.416, 656.117 439.311, 655.503 443.508, 652.281 447.425, 649.157 451.089, 646.132 454.527, 643.211 457.765, 640.397 460.827, 637.695 463.738, 635.108 466.520, 632.641 469.198, 630.301 471.793, 628.090 474.326, 626.017 476.820, 624.085 479.319, 622.291 481.757, 620.681 484.173, 619.198 486.609, 617.781 489.103, 616.373 491.694, 614.917 494.422, 613.357 497.322, 611.636 500.432, 609.701 503.787, 607.498 507.422, 604.974 511.369, 602.079 512.101, 601.457 512.853, 600.687 513.610, 599.793 514.356, 598.799 515.073, 597.730 515.746, 596.610 516.359, 595.464 516.896, 594.315 517.340, 593.187 517.675, 592.104 517.886, 591.091 517.955, 590.171 517.903, 589.088 517.764, 588.149 517.540, 587.350 517.233, 586.688 516.844, 586.162 516.374, 585.770 515.825, 585.507 506.239, 582.658 497.485, 580.056 " />
            <path fill="none" stroke-width="3.0" stroke-linecap="butt" stroke-opacity="1.0" stroke="rgb(0, 0, 0)" stroke-linejoin="miter" d=" M 515.825, 585.507 515.198, 585.373 514.494, 585.366 513.716, 585.482 512.863, 585.719 511.938, 586.076 509.072, 587.189 506.584, 587.947 504.451, 588.332 502.649, 588.323 501.153, 587.902 " />
            <path fill="none" stroke-width="3.0" stroke-linecap="butt" stroke-opacity="1.0" stroke="rgb(0, 0, 0)" stroke-linejoin="miter" d=" M 412.940, 661.041 412.278, 660.951 411.554, 660.983 410.767, 661.135 409.921, 661.402 407.835, 662.263 405.936, 662.913 404.223, 663.354 402.693, 663.591 401.341, 663.627 400.163, 663.468 " />
            <path fill="none" stroke-width="3.0" stroke-linecap="butt" stroke-opacity="1.0" stroke="rgb(0, 0, 0)" stroke-linejoin="miter" d=" M 399.015, 645.835 408.498, 649.008 417.982, 652.181 427.465, 655.354 433.367, 657.329 " />
        </g>
    </g>
</svg>
