<?xml version='1.0' encoding='ascii'?>
<svg xmlns="http://www.w3.org/2000/svg" version="1.1" width="1080" height="1080">
    <g id="View Layer_LineSet" xmlns:inkscape="http://www.inkscape.org/namespaces/inkscape" inkscape:groupmode="lineset" inkscape:label="View Layer_LineSet">
        <g xmlns:inkscape="http://www.inkscape.org/namespaces/inkscape" inkscape:groupmode="layer" id="strokes" inkscape:label="strokes">
            <path fill="none" stroke-width="3.0" stroke-linecap="butt" stroke-opacity="1.0" stroke="rgb(0, 0, 0)" stroke-linejoin="miter" d=" M 508.712, 586.200 507.431, 585.830 506.390, 585.022 505.567, 583.756 504.938, 582.017 504.480, 579.788 504.411, 579.183 504.169, 577.051 503.980, 573.789 503.890, 569.983 503.769, 559.984 503.648, 549.984 503.527, 539.985 503.406, 529.986 503.285, 519.987 503.164, 509.987 503.043, 499.988 502.922, 489.989 502.801, 479.990 502.681, 469.990 502.560, 459.991 502.439, 449.992 502.318, 439.992 502.197, 429.993 502.076, 419.994 501.955, 409.995 501.834, 399.995 501.713, 389.996 501.592, 379.997 501.562, 377.450 501.571, 372.832 501.732, 368.645 502.065, 364.833 502.592, 361.338 503.331, 358.101 504.304, 355.063 505.530, 352.164 507.027, 349.346 508.813, 346.549 510.906, 343.714 513.323, 340.783 516.077, 337.699 516.716, 336.923 517.305, 336.101 517.845, 335.231 518.333, 334.313 518.768, 333.346 519.148, 332.330 519.473, 331.262 519.741, 330.142 519.950, 328.970 520.098, 327.745 520.185, 326.464 520.209, 325.128 520.159, 324.161 520.026, 323.305 519.820, 322.558 519.550, 321.922 519.224, 321.394 518.853, 320.973 518.445, 320.661 518.009, 320.455 517.555, 320.355 507.682, 318.763 497.810, 317.171 487.937, 315.579 478.065, 313.986 468.192, 312.394 458.320, 310.802 448.448, 309.210 438.575, 307.618 428.703, 306.025 418.830, 304.433 408.958, 302.841 399.085, 301.249 389.213, 299.656 379.341, 298.064 373.392, 297.105 372.865, 297.097 372.343, 297.190 371.836, 297.384 368.995, 298.827 365.955, 300.448 362.753, 302.212 359.428, 304.086 356.020, 306.035 352.570, 308.022 349.118, 310.011 345.708, 311.966 342.384, 313.848 339.189, 315.618 336.171, 317.237 333.376, 318.666 330.580, 320.011 327.435, 321.464 323.997, 323.008 320.327, 324.627 316.484, 326.303 312.530, 328.019 308.529, 329.756 304.547, 331.495 300.651, 333.218 296.911, 334.902 293.399, 336.527 290.188, 338.071 289.493, 338.465 288.855, 338.932 288.276, 339.472 287.759, 340.084 287.306, 340.766 286.919, 341.519 286.600, 342.340 286.351, 343.228 286.175, 344.182 286.073, 345.201 286.048, 346.283 286.101, 347.428 286.257, 348.849 286.483, 350.065 286.778, 351.093 287.140, 351.948 287.570, 352.647 288.065, 353.205 288.624, 353.639 289.248, 353.963 289.934, 354.194 290.682, 354.347 300.516, 356.162 307.176, 357.391 317.010, 359.206 326.844, 361.020 336.678, 362.835 346.512, 364.649 356.346, 366.464 358.426, 366.848 368.260, 368.662 378.094, 370.477 387.928, 372.292 397.762, 374.106 407.596, 375.921 417.430, 377.735 427.264, 379.550 437.098, 381.365 442.353, 382.334 443.066, 382.405 443.833, 382.427 447.211, 382.269 450.111, 382.366 452.576, 382.748 " />
            <path fill="none" stroke-width="3.0" stroke-linecap="butt" stroke-opacity="1.0" stroke="rgb(0, 0, 0)" stroke-linejoin="miter" d=" M 459.413, 507.279 458.972, 507.158 458.513, 506.960 458.031, 506.695 457.520, 506.371 456.977, 505.996 456.395, 505.578 455.770, 505.126 455.096, 504.647 448.552, 497.086 442.007, 489.525 435.462, 481.964 428.918, 474.403 422.373, 466.843 415.828, 459.282 409.284, 451.721 402.739, 444.160 401.567, 442.806 400.748, 441.843 399.968, 440.890 399.233, 439.944 398.549, 438.999 397.920, 438.051 397.351, 437.095 396.847, 436.127 396.414, 435.141 396.057, 434.133 395.781, 433.098 395.591, 432.031 395.492, 430.929 395.502, 429.157 395.695, 427.334 396.071, 425.462 396.632, 423.543 397.377, 421.580 398.309, 419.574 399.426, 417.528 400.728, 415.445 402.216, 413.328 403.889, 411.178 405.746, 408.998 407.786, 406.792 408.578, 405.874 409.305, 404.910 409.965, 403.898 410.558, 402.840 411.081, 401.732 411.532, 400.576 411.909, 399.369 412.212, 398.111 412.437, 396.801 412.583, 395.439 412.648, 394.022 412.630, 392.551 412.530, 391.492 412.329, 390.563 412.037, 389.763 411.667, 389.090 411.230, 388.541 410.738, 388.116 410.203, 387.813 409.636, 387.630 399.808, 385.781 389.981, 383.932 380.153, 382.084 370.326, 380.235 360.498, 378.386 359.068, 378.117 349.240, 376.268 339.412, 374.420 329.585, 372.571 319.757, 370.722 312.200, 369.301 302.372, 367.452 292.545, 365.603 282.717, 363.754 272.890, 361.906 263.062, 360.057 254.025, 358.357 253.362, 358.276 252.695, 358.307 252.038, 358.449 251.402, 358.701 242.437, 363.130 233.472, 367.560 228.658, 369.939 223.157, 372.626 217.745, 375.216 212.376, 377.739 207.007, 380.229 201.591, 382.718 196.080, 385.241 190.424, 387.834 184.572, 390.533 178.469, 393.376 172.061, 396.402 165.289, 399.651 158.092, 403.166 156.914, 403.803 155.752, 404.547 154.623, 405.389 153.548, 406.320 152.545, 407.330 151.634, 408.409 150.835, 409.549 150.166, 410.739 149.649, 411.969 149.301, 413.229 149.143, 414.510 149.193, 415.801 149.525, 417.340 150.083, 418.608 150.836, 419.628 151.754, 420.421 152.806, 421.006 153.962, 421.406 163.736, 423.520 173.510, 425.635 183.284, 427.749 193.058, 429.864 202.832, 431.979 212.606, 434.093 222.379, 436.208 232.153, 438.322 242.129, 440.481 251.902, 442.595 261.676, 444.710 271.450, 446.824 281.224, 448.939 287.324, 450.259 297.098, 452.373 306.871, 454.488 316.645, 456.602 317.848, 456.863 318.681, 457.018 318.945, 457.068 320.086, 457.121 321.244, 457.046 322.392, 456.865 323.502, 456.602 324.549, 456.280 330.283, 454.141 335.655, 452.533 340.690, 451.415 345.413, 450.749 349.847, 450.495 354.015, 450.618 357.938, 451.082 361.637, 451.851 " />
            <path fill="none" stroke-width="3.0" stroke-linecap="butt" stroke-opacity="1.0" stroke="rgb(0, 0, 0)" stroke-linejoin="miter" d=" M 307.176, 357.391 308.220, 358.299 309.540, 360.106 310.594, 362.332 311.418, 365.010 312.052, 368.170 312.200, 369.301 " />
            <path fill="none" stroke-width="3.0" stroke-linecap="butt" stroke-opacity="1.0" stroke="rgb(0, 0, 0)" stroke-linejoin="miter" d=" M 242.129, 440.481 242.574, 440.821 247.411, 444.650 252.209, 448.527 256.979, 452.413 261.730, 456.267 266.473, 460.051 271.219, 463.725 275.976, 467.253 276.724, 467.882 277.355, 468.631 277.869, 469.495 278.266, 470.467 278.546, 471.540 278.708, 472.710 278.752, 473.970 278.677, 475.314 278.484, 476.737 278.172, 478.232 277.740, 479.794 277.187, 481.418 273.782, 490.821 270.377, 500.223 266.971, 509.625 263.566, 519.028 260.161, 528.430 256.755, 537.832 253.350, 547.235 249.945, 556.637 246.539, 566.039 243.134, 575.442 239.729, 584.844 236.324, 594.246 232.918, 603.649 229.513, 613.051 226.108, 622.453 222.702, 631.856 219.297, 641.258 217.472, 646.298 215.919, 650.487 214.314, 654.619 212.627, 658.713 210.828, 662.787 208.889, 666.860 206.780, 670.953 204.469, 675.085 201.927, 679.277 199.121, 683.551 196.019, 687.928 192.587, 692.432 188.790, 697.086 187.833, 698.271 186.812, 699.520 185.757, 700.824 184.698, 702.176 183.667, 703.566 182.694, 704.985 181.812, 706.426 181.052, 707.877 180.445, 709.331 180.023, 710.778 179.817, 712.207 179.858, 713.609 180.085, 714.584 180.496, 715.369 181.087, 715.958 181.855, 716.343 191.393, 719.347 200.931, 722.352 210.469, 725.357 220.007, 728.362 229.545, 731.366 239.082, 734.371 248.620, 737.376 258.158, 740.381 267.696, 743.386 277.234, 746.390 286.772, 749.395 296.310, 752.400 305.848, 755.405 315.385, 758.409 324.923, 761.414 332.286, 763.734 333.122, 763.866 334.120, 763.762 335.275, 763.414 336.586, 762.815 338.049, 761.957 339.663, 760.835 341.423, 759.442 343.327, 757.772 347.773, 753.631 352.187, 749.408 356.573, 745.124 360.934, 740.798 365.271, 736.452 369.589, 732.106 373.889, 727.779 378.173, 723.492 382.443, 719.264 386.701, 715.114 390.949, 711.062 395.187, 707.126 398.369, 704.261 401.442, 701.572 404.422, 699.027 407.327, 696.595 410.173, 694.246 412.977, 691.949 415.753, 689.675 418.518, 687.396 421.287, 685.081 424.075, 682.704 426.895, 680.236 429.763, 677.650 430.263, 677.140 430.768, 676.523 431.269, 675.813 431.757, 675.022 432.220, 674.166 432.649, 673.256 433.035, 672.308 433.366, 671.334 433.634, 670.348 433.828, 669.363 433.938, 668.392 433.954, 667.449 433.875, 666.289 433.729, 665.277 433.518, 664.408 433.243, 663.680 432.906, 663.090 432.508, 662.635 432.051, 662.313 431.537, 662.121 421.890, 659.485 417.401, 658.259 " />
            <path fill="none" stroke-width="3.0" stroke-linecap="butt" stroke-opacity="1.0" stroke="rgb(0, 0, 0)" stroke-linejoin="miter" d=" M 517.555, 320.355 517.091, 320.361 516.628, 320.472 516.174, 320.687 513.620, 322.265 510.883, 324.033 507.996, 325.956 504.997, 327.996 501.920, 330.117 498.804, 332.280 495.686, 334.446 492.604, 336.576 489.601, 338.627 486.715, 340.560 483.990, 342.331 481.467, 343.897 478.947, 345.378 476.113, 346.980 473.017, 348.686 469.712, 350.477 466.250, 352.334 462.687, 354.235 459.080, 356.162 455.489, 358.091 451.974, 359.999 448.597, 361.865 445.423, 363.663 442.518, 365.368 441.886, 365.798 441.303, 366.305 440.770, 366.885 440.289, 367.539 439.861, 368.265 439.490, 369.061 439.176, 369.927 438.923, 370.861 438.731, 371.862 438.603, 372.929 438.541, 374.059 438.545, 375.252 438.631, 376.730 438.787, 377.992 439.010, 379.056 439.300, 379.938 439.500, 380.342 439.655, 380.654 440.074, 381.222 440.554, 381.657 441.095, 381.977 441.695, 382.197 442.353, 382.334 " />
            <path fill="none" stroke-width="3.0" stroke-linecap="butt" stroke-opacity="1.0" stroke="rgb(0, 0, 0)" stroke-linejoin="miter" d=" M 409.636, 387.630 409.049, 387.565 408.454, 387.618 407.863, 387.787 407.289, 388.069 398.721, 393.226 390.153, 398.383 386.603, 400.520 381.596, 403.502 376.668, 406.382 371.779, 409.192 366.888, 411.968 361.953, 414.747 356.930, 417.566 351.771, 420.464 346.430, 423.481 340.857, 426.658 335.000, 430.039 328.804, 433.668 322.213, 437.592 321.132, 438.300 320.061, 439.119 319.016, 440.040 318.016, 441.052 317.577, 441.563 317.078, 442.145 316.904, 442.381 316.221, 443.308 315.461, 444.530 314.818, 445.801 314.308, 447.109 313.950, 448.444 313.762, 449.793 313.761, 451.146 314.005, 452.749 314.461, 454.061 315.102, 455.105 315.899, 455.905 316.824, 456.483 317.848, 456.863 " />
            <path fill="none" stroke-width="3.0" stroke-linecap="butt" stroke-opacity="1.0" stroke="rgb(0, 0, 0)" stroke-linejoin="miter" d=" M 452.576, 382.748 454.645, 383.448 456.356, 384.496 457.745, 385.926 458.847, 387.768 459.696, 390.055 460.326, 392.820 460.770, 396.093 461.059, 399.906 461.226, 404.289 461.476, 414.285 461.726, 424.282 461.976, 434.279 462.225, 444.276 462.475, 454.273 462.725, 464.270 462.975, 474.267 463.225, 484.264 463.475, 494.260 463.574, 498.232 463.578, 499.398 463.533, 500.474 463.441, 501.464 463.306, 502.369 463.132, 503.193 462.922, 503.936 462.680, 504.602 462.408, 505.193 462.110, 505.710 461.790, 506.155 461.451, 506.532 461.097, 506.841 460.678, 507.105 460.261, 507.261 459.841, 507.316 459.413, 507.279 " />
            <path fill="none" stroke-width="3.0" stroke-linecap="butt" stroke-opacity="1.0" stroke="rgb(0, 0, 0)" stroke-linejoin="miter" d=" M 361.637, 451.851 365.132, 452.892 368.443, 454.173 371.588, 455.659 374.586, 457.320 379.127, 460.213 383.568, 463.388 387.923, 466.795 392.202, 470.387 396.420, 474.118 400.586, 477.944 404.713, 481.820 408.813, 485.704 412.894, 489.552 416.969, 493.325 421.048, 496.983 423.825, 499.360 425.140, 500.485 425.780, 501.113 426.313, 501.870 426.737, 502.750 427.053, 503.748 427.261, 504.855 427.362, 506.067 427.354, 507.377 427.239, 508.778 427.016, 510.266 426.684, 511.834 426.288, 513.305 426.243, 513.476 425.693, 515.186 422.476, 524.655 419.260, 534.123 416.044, 543.592 412.828, 553.061 411.572, 556.756 409.753, 562.113 406.536, 571.582 403.320, 581.050 400.104, 590.519 396.888, 599.987 393.671, 609.456 390.455, 618.925 387.239, 628.393 384.023, 637.862 383.345, 639.858 380.517, 648.182 378.700, 653.530 375.484, 662.999 372.268, 672.468 369.052, 681.936 366.589, 689.186 365.054, 693.613 363.474, 697.984 361.823, 702.320 360.072, 706.640 358.197, 710.967 356.168, 715.322 353.958, 719.728 351.540, 724.208 348.882, 728.787 345.956, 733.488 342.730, 738.338 339.172, 743.363 338.275, 744.642 337.318, 745.991 336.329, 747.399 335.334, 748.857 334.363, 750.354 333.443, 751.878 332.603, 753.420 331.871, 754.968 331.277, 756.510 330.848, 758.036 330.612, 759.533 330.599, 760.990 330.767, 761.992 331.106, 762.789 331.613, 763.372 332.286, 763.734 " />
            <path fill="none" stroke-width="3.0" stroke-linecap="butt" stroke-opacity="1.0" stroke="rgb(0, 0, 0)" stroke-linejoin="miter" d=" M 420.499, 665.029 419.629, 664.714 418.904, 664.207 418.320, 663.510 417.872, 662.631 417.558, 661.573 417.373, 660.342 417.359, 659.250 417.401, 658.259 417.408, 658.082 417.518, 656.837 417.688, 655.517 417.918, 654.119 418.206, 652.644 418.551, 651.091 418.947, 649.482 418.953, 649.459 419.410, 647.748 419.921, 645.958 420.486, 644.088 421.102, 642.138 424.171, 632.621 427.239, 623.103 430.307, 613.585 433.376, 604.068 436.444, 594.550 439.513, 585.033 442.581, 575.515 444.199, 570.497 445.951, 565.061 449.020, 555.543 452.088, 546.025 455.156, 536.508 456.145, 533.442 456.652, 531.876 457.152, 530.425 457.644, 529.089 458.129, 527.865 458.606, 526.753 459.076, 525.751 459.538, 524.857 459.993, 524.069 460.440, 523.387 460.878, 522.808 461.309, 522.331 461.732, 521.954 462.087, 521.724 462.430, 521.596 462.759, 521.575 463.070, 521.664 463.360, 521.868 463.626, 522.190 463.865, 522.635 464.072, 523.206 464.246, 523.907 464.382, 524.743 464.478, 525.716 464.531, 526.832 464.691, 533.289 464.848, 539.707 464.999, 546.089 465.142, 552.441 465.274, 558.770 465.394, 565.079 465.472, 569.776 465.498, 571.375 465.558, 575.696 465.585, 577.662 465.653, 583.946 465.698, 590.233 465.720, 596.528 465.715, 602.835 465.679, 606.536 465.584, 609.884 465.395, 612.957 465.073, 615.830 464.581, 618.581 463.881, 621.283 462.935, 624.015 461.703, 626.853 460.148, 629.874 458.227, 633.157 455.898, 636.781 453.118, 640.829 452.420, 641.879 451.722, 642.942 451.038, 644.019 450.378, 645.114 449.756, 646.228 449.183, 647.364 448.672, 648.524 448.234, 649.709 447.881, 650.922 447.627, 652.165 447.482, 653.439 447.459, 654.745 447.563, 655.671 447.799, 656.417 448.154, 656.990 448.612, 657.398 449.159, 657.648 449.781, 657.747 450.463, 657.704 451.192, 657.524 451.951, 657.217 452.729, 656.789 453.510, 656.248 454.281, 655.601 457.897, 652.221 461.270, 648.951 464.425, 645.790 467.384, 642.742 470.170, 639.810 472.804, 636.996 475.307, 634.305 477.700, 631.738 480.001, 629.302 482.231, 627.000 484.407, 624.837 486.549, 622.818 488.696, 620.936 490.789, 619.242 492.863, 617.675 494.953, 616.174 497.093, 614.680 499.316, 613.135 501.655, 611.482 504.141, 609.663 506.807, 607.623 509.683, 605.307 512.796, 602.662 516.177, 599.636 516.803, 598.991 517.448, 598.197 518.096, 597.279 518.734, 596.261 519.348, 595.170 519.925, 594.030 520.449, 592.865 520.909, 591.700 521.289, 590.560 521.576, 589.468 521.757, 588.450 521.816, 587.529 521.772, 586.451 521.654, 585.518 521.462, 584.728 521.200, 584.079 520.867, 583.567 520.465, 583.191 519.995, 582.947 510.274, 580.599 504.411, 579.183 " />
            <path fill="none" stroke-width="3.0" stroke-linecap="butt" stroke-opacity="1.0" stroke="rgb(0, 0, 0)" stroke-linejoin="miter" d=" M 431.537, 662.121 430.966, 662.055 430.340, 662.115 429.661, 662.295 428.930, 662.595 427.128, 663.536 425.488, 664.257 424.008, 664.763 422.685, 665.057 421.516, 665.144 420.499, 665.029 " />
            <path fill="none" stroke-width="3.0" stroke-linecap="butt" stroke-opacity="1.0" stroke="rgb(0, 0, 0)" stroke-linejoin="miter" d=" M 519.995, 582.947 519.458, 582.835 518.856, 582.850 518.190, 582.992 517.460, 583.258 516.668, 583.645 514.214, 584.852 512.083, 585.692 510.256, 586.148 508.712, 586.200 " />
            <path fill="none" stroke-width="3.0" stroke-linecap="butt" stroke-opacity="1.0" stroke="rgb(0, 0, 0)" stroke-linejoin="miter" d=" M 418.947, 649.482 428.601, 652.091 438.254, 654.700 447.908, 657.310 449.159, 657.648 " />
        </g>
    </g>
</svg>
