<?xml version='1.0' encoding='ascii'?>
<svg xmlns="http://www.w3.org/2000/svg" version="1.1" width="1080" height="1080">
    <g id="View Layer_LineSet" xmlns:inkscape="http://www.inkscape.org/namespaces/inkscape" inkscape:groupmode="lineset" inkscape:label="View Layer_LineSet">
        <g xmlns:inkscape="http://www.inkscape.org/namespaces/inkscape" inkscape:groupmode="layer" id="strokes" inkscape:label="strokes">
            <path fill="none" stroke-width="3.0" stroke-linecap="butt" stroke-opacity="1.0" stroke="rgb(0, 0, 0)" stroke-linejoin="miter" d=" M 514.218, 583.913 513.155, 583.584 512.291, 582.809 511.607, 581.572 511.085, 579.855 510.737, 577.833 510.705, 577.644 510.446, 574.921 510.290, 571.670 510.215, 567.873 510.116, 557.874 510.016, 547.874 509.916, 537.875 509.817, 527.875 509.717, 517.876 509.617, 507.876 509.518, 497.877 509.418, 487.877 509.318, 477.878 509.219, 467.878 509.119, 457.879 509.019, 447.879 508.920, 437.880 508.820, 427.880 508.720, 417.881 508.621, 407.881 508.521, 397.882 508.421, 387.882 508.322, 377.883 508.301, 375.762 508.309, 371.153 508.443, 366.971 508.720, 363.160 509.158, 359.661 509.772, 356.414 510.580, 353.361 511.598, 350.442 512.841, 347.598 514.324, 344.768 516.061, 341.895 518.066, 338.919 520.351, 335.783 520.881, 334.996 521.371, 334.164 521.818, 333.285 522.223, 332.359 522.584, 331.386 522.899, 330.364 523.169, 329.292 523.391, 328.170 523.564, 326.997 523.687, 325.772 523.760, 324.494 523.779, 323.161 523.738, 322.198 523.628, 321.347 523.457, 320.607 523.233, 319.978 522.963, 319.458 522.655, 319.047 522.316, 318.744 521.955, 318.547 521.578, 318.457 511.660, 317.185 501.741, 315.912 491.822, 314.639 481.904, 313.366 471.985, 312.093 462.066, 310.821 452.148, 309.548 442.229, 308.275 432.310, 307.002 422.392, 305.729 412.473, 304.457 402.554, 303.184 392.636, 301.911 382.717, 300.638 372.798, 299.365 370.804, 299.109 370.342, 299.113 369.886, 299.217 369.443, 299.423 366.966, 300.933 364.316, 302.626 361.523, 304.468 358.623, 306.423 355.650, 308.455 352.639, 310.528 349.626, 312.603 346.649, 314.643 343.745, 316.609 340.954, 318.460 338.316, 320.156 335.871, 321.655 333.425, 323.071 330.672, 324.604 327.662, 326.235 324.446, 327.946 321.079, 329.721 317.613, 331.538 314.104, 333.378 310.611, 335.221 307.192, 337.046 303.910, 338.829 300.827, 340.548 298.008, 342.178 297.398, 342.591 296.839, 343.077 296.333, 343.635 295.881, 344.264 295.487, 344.962 295.151, 345.730 294.875, 346.565 294.663, 347.466 294.514, 348.432 294.432, 349.462 294.417, 350.554 294.473, 351.707 294.621, 353.135 294.829, 354.356 295.096, 355.386 295.422, 356.240 295.806, 356.934 296.247, 357.485 296.743, 357.909 297.296, 358.221 297.902, 358.437 298.562, 358.574 308.457, 360.020 312.318, 360.584 322.213, 362.030 332.107, 363.475 342.002, 364.921 351.897, 366.367 358.078, 367.270 367.973, 368.716 377.868, 370.162 387.763, 371.608 397.658, 373.053 407.553, 374.499 417.448, 375.945 427.343, 377.391 437.237, 378.836 447.132, 380.282 457.027, 381.728 459.013, 382.018 459.608, 382.073 460.248, 382.076 463.066, 381.840 465.484, 381.869 " />
            <path fill="none" stroke-width="3.0" stroke-linecap="butt" stroke-opacity="1.0" stroke="rgb(0, 0, 0)" stroke-linejoin="miter" d=" M 473.220, 506.536 472.852, 506.427 472.469, 506.243 472.068, 505.992 471.642, 505.682 471.190, 505.322 470.705, 504.921 470.184, 504.486 469.622, 504.026 463.676, 495.986 457.731, 487.945 451.785, 479.905 445.839, 471.865 439.893, 463.824 433.948, 455.784 428.002, 447.743 424.914, 443.567 424.228, 442.622 423.575, 441.688 422.960, 440.759 422.387, 439.830 421.860, 438.896 421.384, 437.953 420.963, 436.995 420.600, 436.018 420.302, 435.016 420.071, 433.986 419.912, 432.922 419.829, 431.820 419.838, 430.044 419.999, 428.212 420.315, 426.326 420.785, 424.388 421.410, 422.402 422.190, 420.368 423.126, 418.290 424.217, 416.171 425.463, 414.012 426.864, 411.817 428.419, 409.588 430.126, 407.327 430.788, 406.389 431.397, 405.405 431.950, 404.376 432.446, 403.301 432.883, 402.179 433.261, 401.010 433.577, 399.792 433.830, 398.525 434.019, 397.208 434.142, 395.840 434.196, 394.420 434.181, 392.946 434.098, 391.888 433.930, 390.963 433.686, 390.169 433.376, 389.503 433.011, 388.964 432.600, 388.550 432.152, 388.259 431.678, 388.089 421.786, 386.619 411.895, 385.149 402.004, 383.678 392.112, 382.208 382.221, 380.738 372.330, 379.268 362.438, 377.798 358.646, 377.234 348.755, 375.764 338.864, 374.294 328.972, 372.824 319.081, 371.353 317.322, 371.092 307.431, 369.622 297.540, 368.152 287.648, 366.681 277.757, 365.211 267.866, 363.741 266.225, 363.497 265.639, 363.432 265.049, 363.479 264.468, 363.638 263.908, 363.907 255.310, 369.013 246.711, 374.118 243.853, 375.815 238.997, 378.667 234.215, 381.420 229.470, 384.106 224.722, 386.758 219.931, 389.414 215.052, 392.107 210.044, 394.875 204.859, 397.758 199.450, 400.794 193.767, 404.024 187.758, 407.493 181.369, 411.244 180.324, 411.920 179.292, 412.705 178.292, 413.589 177.340, 414.561 176.452, 415.611 175.648, 416.730 174.943, 417.907 174.355, 419.131 173.902, 420.393 173.601, 421.681 173.469, 422.984 173.524, 424.292 173.831, 425.843 174.338, 427.115 175.018, 428.130 175.842, 428.908 176.785, 429.473 177.819, 429.848 178.917, 430.053 188.776, 431.728 198.635, 433.403 208.494, 435.077 218.352, 436.752 228.211, 438.427 238.070, 440.102 247.929, 441.777 250.884, 442.279 260.743, 443.953 270.602, 445.628 280.460, 447.303 290.389, 448.990 300.247, 450.664 310.106, 452.339 319.965, 454.014 323.505, 454.615 333.363, 456.290 343.222, 457.965 353.081, 459.640 355.511, 460.052 356.472, 460.076 357.448, 459.969 358.415, 459.757 359.351, 459.463 360.232, 459.111 363.235, 457.680 365.062, 456.809 369.585, 455.051 373.822, 453.795 377.795, 453.001 381.523, 452.630 385.026, 452.644 388.322, 453.006 " />
            <path fill="none" stroke-width="3.0" stroke-linecap="butt" stroke-opacity="1.0" stroke="rgb(0, 0, 0)" stroke-linejoin="miter" d=" M 312.318, 360.584 312.597, 360.747 314.041, 362.138 315.217, 363.925 316.160, 366.142 316.906, 368.819 317.322, 371.092 " />
            <path fill="none" stroke-width="3.0" stroke-linecap="butt" stroke-opacity="1.0" stroke="rgb(0, 0, 0)" stroke-linejoin="miter" d=" M 250.884, 442.279 252.341, 443.437 256.696, 447.079 261.005, 450.812 265.279, 454.595 269.525, 458.386 273.753, 462.143 277.972, 465.828 282.191, 469.401 286.417, 472.824 287.082, 473.437 287.644, 474.175 288.104, 475.032 288.461, 476.001 288.716, 477.076 288.867, 478.251 288.915, 479.521 288.860, 480.879 288.700, 482.319 288.435, 483.837 288.065, 485.426 287.589, 487.080 284.660, 496.642 281.730, 506.203 278.801, 515.764 275.871, 525.326 272.942, 534.887 270.013, 544.448 267.083, 554.010 264.154, 563.571 261.224, 573.132 258.295, 582.693 255.365, 592.255 252.436, 601.816 249.506, 611.377 246.577, 620.939 243.648, 630.500 240.718, 640.061 237.789, 649.622 235.950, 655.624 234.603, 659.919 233.209, 664.160 231.741, 668.365 230.174, 672.554 228.482, 676.750 226.639, 680.971 224.617, 685.241 222.389, 689.582 219.928, 694.016 217.202, 698.567 214.184, 703.261 210.842, 708.121 209.999, 709.359 209.100, 710.664 208.171, 712.027 207.239, 713.438 206.331, 714.886 205.476, 716.363 204.702, 717.857 204.036, 719.358 203.506, 720.855 203.141, 722.338 202.968, 723.795 203.015, 725.214 203.224, 726.193 203.595, 726.973 204.126, 727.546 204.812, 727.905 214.519, 730.310 224.225, 732.714 233.932, 735.119 243.638, 737.523 253.345, 739.928 263.052, 742.332 272.758, 744.737 282.465, 747.141 292.172, 749.546 301.878, 751.951 311.585, 754.355 321.291, 756.760 330.998, 759.164 340.705, 761.569 350.411, 763.973 360.118, 766.378 366.657, 767.998 367.361, 768.098 368.201, 767.955 369.174, 767.560 370.277, 766.906 371.510, 765.987 372.868, 764.796 374.350, 763.327 375.953, 761.574 379.694, 757.240 383.408, 752.827 387.096, 748.354 390.762, 743.842 394.407, 739.313 398.034, 734.785 401.645, 730.280 405.241, 725.816 408.825, 721.413 412.397, 717.092 415.959, 712.870 419.512, 708.767 422.178, 705.778 424.752, 702.969 427.249, 700.309 429.681, 697.766 432.064, 695.308 434.410, 692.905 436.734, 690.527 439.047, 688.144 441.363, 685.727 443.694, 683.246 446.052, 680.674 448.449, 677.982 448.867, 677.454 449.289, 676.818 449.708, 676.089 450.115, 675.280 450.502, 674.406 450.861, 673.480 451.183, 672.517 451.460, 671.530 451.684, 670.533 451.846, 669.540 451.939, 668.564 451.952, 667.619 451.886, 666.460 451.765, 665.451 451.588, 664.589 451.359, 663.869 451.077, 663.290 450.745, 662.848 450.364, 662.542 449.934, 662.367 440.160, 660.253 438.090, 659.805 " />
            <path fill="none" stroke-width="3.0" stroke-linecap="butt" stroke-opacity="1.0" stroke="rgb(0, 0, 0)" stroke-linejoin="miter" d=" M 521.578, 318.457 521.194, 318.473 520.810, 318.593 520.434, 318.817 518.315, 320.444 516.043, 322.265 513.648, 324.243 511.158, 326.342 508.603, 328.523 506.015, 330.748 503.424, 332.976 500.864, 335.167 498.367, 337.280 495.968, 339.272 493.702, 341.099 491.604, 342.718 489.507, 344.252 487.149, 345.914 484.573, 347.687 481.820, 349.549 478.938, 351.480 475.970, 353.460 472.965, 355.465 469.972, 357.474 467.041, 359.461 464.225, 361.403 461.577, 363.272 459.153, 365.043 458.627, 365.489 458.140, 366.008 457.695, 366.601 457.293, 367.266 456.936, 368.002 456.626, 368.807 456.364, 369.681 456.153, 370.621 455.993, 371.627 455.885, 372.697 455.833, 373.829 455.837, 375.022 455.908, 376.499 456.038, 377.758 456.224, 378.817 456.466, 379.692 456.762, 380.401 456.897, 380.616 457.111, 380.959 457.512, 381.383 457.964, 381.690 458.464, 381.896 459.013, 382.018 " />
            <path fill="none" stroke-width="3.0" stroke-linecap="butt" stroke-opacity="1.0" stroke="rgb(0, 0, 0)" stroke-linejoin="miter" d=" M 431.678, 388.089 431.187, 388.038 430.689, 388.105 430.195, 388.288 429.714, 388.584 421.709, 394.578 413.704, 400.572 412.389, 401.557 408.190, 404.670 404.056, 407.678 399.954, 410.617 395.849, 413.522 391.704, 416.433 387.484, 419.388 383.148, 422.426 378.658, 425.590 373.970, 428.922 369.040, 432.468 363.823, 436.273 358.270, 440.387 357.360, 441.126 356.457, 441.978 355.576, 442.931 354.733, 443.974 353.942, 445.097 353.219, 446.289 352.810, 447.087 352.578, 447.538 352.035, 448.833 351.605, 450.162 351.303, 451.513 351.144, 452.875 351.143, 454.235 351.348, 455.841 351.732, 457.148 352.272, 458.181 352.944, 458.964 353.723, 459.521 354.587, 459.875 355.511, 460.052 " />
            <path fill="none" stroke-width="3.0" stroke-linecap="butt" stroke-opacity="1.0" stroke="rgb(0, 0, 0)" stroke-linejoin="miter" d=" M 465.484, 381.869 467.539, 382.193 469.264, 382.844 470.690, 383.852 471.848, 385.248 472.766, 387.064 473.473, 389.331 473.998, 392.079 474.366, 395.340 474.607, 399.145 474.746, 403.522 474.953, 413.519 475.159, 423.517 475.366, 433.515 475.573, 443.513 475.780, 453.511 475.987, 463.509 476.194, 473.507 476.401, 483.504 476.608, 493.502 476.688, 497.373 476.691, 498.538 476.653, 499.616 476.577, 500.608 476.464, 501.517 476.319, 502.345 476.144, 503.095 475.942, 503.767 475.716, 504.365 475.468, 504.891 475.201, 505.345 474.919, 505.731 474.623, 506.050 474.274, 506.327 473.926, 506.494 473.576, 506.561 473.220, 506.536 " />
            <path fill="none" stroke-width="3.0" stroke-linecap="butt" stroke-opacity="1.0" stroke="rgb(0, 0, 0)" stroke-linejoin="miter" d=" M 388.322, 453.006 391.429, 453.681 394.364, 454.634 397.143, 455.831 399.782, 457.239 402.298, 458.826 406.106, 461.608 409.829, 464.673 413.479, 467.973 417.064, 471.459 420.596, 475.085 424.085, 478.806 427.539, 482.578 430.968, 486.356 434.382, 490.099 437.790, 493.765 441.199, 497.314 444.619, 500.706 445.154, 501.316 445.333, 501.616 445.598, 502.060 445.953, 502.929 446.217, 503.919 446.390, 505.022 446.474, 506.232 446.468, 507.544 446.371, 508.950 446.184, 510.446 445.906, 512.025 445.538, 513.682 445.138, 515.184 445.078, 515.411 442.373, 525.038 439.669, 534.665 436.964, 544.293 434.259, 553.920 431.806, 562.654 430.394, 567.681 427.689, 577.309 424.984, 586.936 422.280, 596.563 419.575, 606.191 416.871, 615.818 414.166, 625.445 411.462, 635.073 408.596, 645.274 406.437, 652.960 405.048, 657.903 402.343, 667.530 399.639, 677.158 396.934, 686.785 395.526, 691.797 394.236, 696.298 392.908, 700.745 391.519, 705.159 390.047, 709.562 388.470, 713.977 386.764, 718.427 384.905, 722.936 382.870, 727.528 380.634, 732.228 378.172, 737.063 375.456, 742.060 372.460, 747.247 371.705, 748.568 370.899, 749.961 370.065, 751.415 369.228, 752.919 368.409, 754.461 367.634, 756.029 366.927, 757.612 366.310, 759.197 365.809, 760.772 365.447, 762.323 365.248, 763.838 365.236, 765.303 365.378, 766.305 365.663, 767.093 366.090, 767.660 366.657, 767.998 " />
            <path fill="none" stroke-width="3.0" stroke-linecap="butt" stroke-opacity="1.0" stroke="rgb(0, 0, 0)" stroke-linejoin="miter" d=" M 440.708, 665.662 439.981, 665.378 439.374, 664.894 438.886, 664.217 438.512, 663.351 438.249, 662.302 438.094, 661.075 438.083, 659.981 438.090, 659.805 438.124, 658.808 438.217, 657.558 438.359, 656.229 438.551, 654.820 438.792, 653.332 439.074, 651.803 439.082, 651.764 439.418, 650.115 439.800, 648.386 440.228, 646.575 440.701, 644.682 441.217, 642.708 443.790, 633.045 446.364, 623.382 448.938, 613.719 451.512, 604.055 454.085, 594.392 456.659, 584.729 459.233, 575.066 459.689, 573.354 461.041, 568.276 463.615, 558.613 466.189, 548.950 468.762, 539.287 470.491, 532.795 470.915, 531.213 471.331, 529.748 471.742, 528.397 472.147, 527.159 472.545, 526.033 472.936, 525.017 473.322, 524.110 473.701, 523.309 474.073, 522.614 474.439, 522.022 474.798, 521.533 475.150, 521.144 475.446, 520.903 475.732, 520.766 476.006, 520.735 476.265, 520.815 476.507, 521.011 476.728, 521.325 476.927, 521.763 477.100, 522.328 477.244, 523.024 477.358, 523.855 477.438, 524.826 477.481, 525.939 477.614, 532.391 477.744, 538.803 477.869, 545.179 477.987, 551.527 478.096, 557.850 478.195, 564.155 478.281, 570.446 478.294, 571.594 478.353, 576.730 478.355, 576.968 478.408, 583.012 478.445, 589.297 478.462, 595.590 478.457, 601.897 478.426, 605.599 478.347, 608.951 478.189, 612.030 477.920, 614.914 477.510, 617.680 476.926, 620.406 476.137, 623.169 475.111, 626.048 473.814, 629.121 472.212, 632.469 470.270, 636.173 467.952, 640.317 467.369, 641.391 466.787, 642.478 466.216, 643.579 465.666, 644.697 465.147, 645.833 464.668, 646.989 464.241, 648.167 463.876, 649.368 463.581, 650.594 463.369, 651.846 463.248, 653.126 463.229, 654.435 463.315, 655.358 463.512, 656.096 463.808, 656.658 464.190, 657.050 464.647, 657.282 465.165, 657.360 465.735, 657.292 466.342, 657.088 466.976, 656.754 467.624, 656.299 468.276, 655.731 468.919, 655.057 471.934, 651.552 474.747, 648.166 477.376, 644.897 479.842, 641.750 482.163, 638.724 484.357, 635.822 486.441, 633.047 488.433, 630.402 490.349, 627.891 492.204, 625.516 494.016, 623.283 495.798, 621.195 497.583, 619.244 499.323, 617.483 501.048, 615.850 502.785, 614.282 504.564, 612.720 506.411, 611.105 508.355, 609.378 510.421, 607.482 512.635, 605.359 515.022, 602.954 517.607, 600.215 520.413, 597.087 520.933, 596.423 521.467, 595.610 522.005, 594.673 522.535, 593.638 523.044, 592.530 523.523, 591.374 523.958, 590.195 524.339, 589.018 524.655, 587.868 524.893, 586.770 525.043, 585.748 525.092, 584.828 525.055, 583.753 524.957, 582.827 524.799, 582.044 524.581, 581.405 524.305, 580.904 523.971, 580.541 523.582, 580.313 523.137, 580.218 513.316, 578.329 510.737, 577.833 " />
            <path fill="none" stroke-width="3.0" stroke-linecap="butt" stroke-opacity="1.0" stroke="rgb(0, 0, 0)" stroke-linejoin="miter" d=" M 449.934, 662.367 449.457, 662.321 448.934, 662.402 448.367, 662.607 447.756, 662.932 446.249, 663.937 444.878, 664.716 443.641, 665.274 442.535, 665.615 441.558, 665.743 440.708, 665.662 " />
            <path fill="none" stroke-width="3.0" stroke-linecap="butt" stroke-opacity="1.0" stroke="rgb(0, 0, 0)" stroke-linejoin="miter" d=" M 523.137, 580.218 522.637, 580.252 522.084, 580.414 521.479, 580.702 520.822, 581.113 518.785, 582.394 517.016, 583.300 515.500, 583.812 514.218, 583.913 " />
            <path fill="none" stroke-width="3.0" stroke-linecap="butt" stroke-opacity="1.0" stroke="rgb(0, 0, 0)" stroke-linejoin="miter" d=" M 439.074, 651.803 448.852, 653.898 458.631, 655.993 464.647, 657.282 " />
        </g>
    </g>
</svg>
