<?xml version='1.0' encoding='ascii'?>
<svg xmlns="http://www.w3.org/2000/svg" version="1.1" width="1080" height="1080">
    <g id="View Layer_LineSet" xmlns:inkscape="http://www.inkscape.org/namespaces/inkscape" inkscape:groupmode="lineset" inkscape:label="View Layer_LineSet">
        <g xmlns:inkscape="http://www.inkscape.org/namespaces/inkscape" inkscape:groupmode="layer" id="strokes" inkscape:label="strokes">
            <path fill="none" stroke-width="3.0" stroke-linecap="butt" stroke-opacity="1.0" stroke="rgb(0, 0, 0)" stroke-linejoin="miter" d=" M 521.404, 580.254 520.666, 579.969 520.067, 579.231 519.592, 578.024 519.230, 576.333 519.086, 575.138 518.966, 574.143 518.786, 571.439 518.677, 568.203 518.624, 564.420 518.553, 554.421 518.481, 544.421 518.410, 534.421 518.338, 524.421 518.267, 514.422 518.195, 504.422 518.124, 494.422 518.053, 484.422 517.981, 474.423 517.910, 464.423 517.838, 454.423 517.767, 444.423 517.695, 434.424 517.624, 424.424 517.552, 414.424 517.481, 404.424 517.410, 394.425 517.338, 384.425 517.257, 373.000 517.262, 368.408 517.354, 364.238 517.545, 360.432 517.847, 356.933 518.273, 353.681 518.832, 350.617 519.537, 347.680 520.398, 344.812 521.426, 341.953 522.629, 339.043 524.018, 336.025 525.600, 332.840 525.967, 332.042 526.305, 331.200 526.615, 330.313 526.895, 329.381 527.145, 328.402 527.363, 327.376 527.549, 326.302 527.703, 325.179 527.823, 324.007 527.908, 322.784 527.957, 321.510 527.971, 320.183 527.942, 319.225 527.865, 318.380 527.747, 317.649 527.592, 317.028 527.405, 316.518 527.191, 316.117 526.957, 315.824 526.707, 315.638 526.446, 315.558 516.482, 314.713 506.517, 313.868 496.553, 313.023 486.589, 312.178 476.625, 311.333 466.660, 310.488 456.696, 309.643 446.732, 308.798 436.768, 307.953 426.803, 307.108 416.839, 306.262 406.875, 305.417 396.911, 304.572 386.947, 303.727 376.982, 302.882 368.002, 302.120 367.642, 302.137 367.288, 302.255 366.946, 302.475 365.036, 304.066 362.991, 305.847 360.838, 307.782 358.602, 309.834 356.308, 311.968 353.985, 314.144 351.660, 316.323 349.361, 318.467 347.118, 320.534 344.961, 322.483 342.920, 324.272 341.028, 325.857 339.133, 327.359 336.999, 328.987 334.664, 330.724 332.169, 332.548 329.555, 334.441 326.863, 336.382 324.137, 338.347 321.422, 340.316 318.764, 342.264 316.211, 344.167 313.813, 346.000 311.621, 347.736 311.147, 348.172 310.714, 348.681 310.323, 349.260 309.977, 349.910 309.676, 350.629 309.422, 351.415 309.216, 352.268 309.060, 353.186 308.956, 354.167 308.904, 355.211 308.907, 356.316 308.965, 357.479 309.099, 358.919 309.278, 360.146 309.501, 361.179 309.768, 362.031 310.078, 362.721 310.431, 363.264 310.827, 363.676 311.264, 363.974 311.743, 364.173 312.264, 364.290 322.182, 365.243 332.137, 366.200 342.091, 367.156 352.045, 368.113 358.812, 368.763 368.766, 369.719 378.720, 370.676 388.674, 371.632 398.628, 372.589 408.582, 373.545 418.537, 374.502 428.491, 375.458 438.445, 376.414 448.399, 377.371 458.353, 378.327 468.307, 379.284 478.262, 380.240 482.991, 380.695 483.406, 380.731 483.852, 380.716 485.815, 380.396 487.500, 380.353 " />
            <path fill="none" stroke-width="3.0" stroke-linecap="butt" stroke-opacity="1.0" stroke="rgb(0, 0, 0)" stroke-linejoin="miter" d=" M 492.905, 504.598 492.649, 504.503 492.383, 504.332 492.103, 504.096 491.807, 503.802 491.492, 503.459 491.154, 503.075 490.791, 502.660 490.400, 502.221 485.719, 493.384 481.037, 484.547 476.356, 475.711 471.675, 466.874 466.993, 458.038 462.312, 449.201 459.189, 443.305 458.709, 442.383 458.253, 441.469 457.822, 440.559 457.421, 439.648 457.053, 438.731 456.719, 437.802 456.424, 436.857 456.171, 435.890 455.962, 434.898 455.800, 433.874 455.688, 432.814 455.630, 431.713 455.637, 429.935 455.750, 428.095 455.970, 426.197 456.299, 424.243 456.736, 422.234 457.282, 420.174 457.936, 418.065 458.699, 415.909 459.571, 413.709 460.550, 411.468 461.637, 409.189 462.830, 406.874 463.293, 405.914 463.719, 404.912 464.105, 403.865 464.451, 402.774 464.757, 401.639 465.021, 400.457 465.242, 399.229 465.419, 397.954 465.550, 396.631 465.636, 395.259 465.674, 393.837 465.663, 392.363 465.605, 391.308 465.487, 390.388 465.317, 389.600 465.101, 388.944 464.845, 388.416 464.558, 388.014 464.245, 387.736 463.913, 387.581 463.570, 387.545 453.617, 386.574 443.664, 385.604 433.712, 384.633 423.759, 383.662 413.806, 382.692 403.853, 381.721 393.901, 380.751 383.948, 379.780 373.995, 378.810 364.042, 377.839 359.301, 377.377 349.349, 376.406 339.396, 375.435 329.443, 374.465 326.806, 374.208 316.853, 373.237 306.901, 372.267 296.948, 371.296 286.995, 370.326 286.426, 370.270 285.962, 370.337 285.507, 370.517 285.069, 370.808 277.305, 377.112 269.392, 383.536 265.591, 386.591 261.845, 389.543 258.125, 392.429 254.401, 395.283 250.639, 398.142 246.808, 401.044 242.872, 404.029 238.795, 407.137 234.540, 410.411 230.067, 413.895 225.335, 417.635 220.300, 421.678 219.477, 422.404 218.667, 423.240 217.882, 424.175 217.136, 425.198 216.443, 426.299 215.816, 427.467 215.270, 428.690 214.818, 429.958 214.473, 431.259 214.249, 432.581 214.161, 433.912 214.221, 435.242 214.485, 436.810 214.905, 438.086 215.459, 439.094 216.125, 439.856 216.883, 440.397 217.711, 440.740 218.587, 440.909 228.527, 442.010 238.466, 443.110 248.405, 444.211 258.344, 445.312 268.284, 446.412 271.624, 446.782 281.563, 447.883 291.502, 448.984 301.441, 450.085 302.595, 450.212 312.535, 451.313 322.474, 452.414 332.574, 453.532 342.514, 454.633 352.453, 455.734 362.392, 456.834 363.827, 456.993 373.766, 458.094 383.705, 459.195 393.645, 460.295 403.584, 461.396 410.472, 462.159 411.149, 462.150 411.836, 462.010 412.517, 461.764 413.176, 461.437 413.797, 461.053 417.197, 458.578 420.379, 456.660 423.359, 455.258 426.152, 454.327 428.772, 453.830 431.232, 453.726 " />
            <path fill="none" stroke-width="3.0" stroke-linecap="butt" stroke-opacity="1.0" stroke="rgb(0, 0, 0)" stroke-linejoin="miter" d=" M 322.182, 365.243 323.302, 366.034 324.451, 367.392 325.396, 369.159 326.163, 371.367 326.781, 374.046 326.806, 374.208 " />
            <path fill="none" stroke-width="3.0" stroke-linecap="butt" stroke-opacity="1.0" stroke="rgb(0, 0, 0)" stroke-linejoin="miter" d=" M 271.624, 446.782 273.424, 448.397 276.951, 451.788 280.433, 455.317 283.880, 458.938 287.296, 462.609 290.690, 466.287 294.067, 469.930 297.435, 473.498 300.800, 476.952 304.167, 480.253 304.697, 480.848 305.149, 481.572 305.521, 482.421 305.814, 483.387 306.028, 484.465 306.162, 485.648 306.216, 486.930 306.189, 488.306 306.082, 489.770 305.893, 491.315 305.622, 492.937 305.269, 494.630 303.093, 504.390 300.918, 514.151 298.742, 523.911 296.566, 533.672 294.391, 543.432 292.215, 553.193 290.039, 562.953 287.863, 572.713 285.688, 582.474 283.512, 592.234 281.336, 601.995 279.161, 611.755 276.985, 621.516 274.809, 631.276 272.634, 641.037 270.458, 650.797 268.282, 660.557 266.686, 667.717 265.676, 672.144 264.626, 676.518 263.518, 680.860 262.332, 685.193 261.046, 689.538 259.640, 693.919 258.094, 698.360 256.384, 702.883 254.490, 707.515 252.389, 712.281 250.056, 717.208 247.467, 722.324 246.815, 723.627 246.118, 725.001 245.398, 726.436 244.676, 727.919 243.975, 729.441 243.315, 730.987 242.719, 732.548 242.210, 734.110 241.808, 735.661 241.537, 737.189 241.418, 738.679 241.473, 740.121 241.652, 741.104 241.957, 741.877 242.385, 742.432 242.934, 742.761 252.806, 744.357 262.677, 745.954 272.549, 747.551 282.421, 749.148 292.292, 750.744 302.164, 752.341 312.036, 753.938 321.908, 755.534 331.779, 757.131 341.651, 758.728 351.523, 760.325 361.394, 761.921 371.266, 763.518 381.138, 765.115 391.009, 766.712 400.881, 768.308 410.753, 769.905 418.321, 771.129 418.817, 771.196 419.408, 771.009 420.093, 770.564 420.870, 769.852 421.738, 768.867 422.693, 767.603 423.736, 766.054 424.864, 764.213 427.495, 759.675 430.105, 755.060 432.697, 750.389 435.272, 745.682 437.831, 740.960 440.377, 736.242 442.910, 731.549 445.432, 726.900 447.945, 722.315 450.448, 717.814 452.943, 713.415 455.431, 709.137 457.298, 706.017 459.099, 703.084 460.846, 700.304 462.548, 697.645 464.214, 695.074 465.854, 692.560 467.478, 690.073 469.095, 687.582 470.712, 685.057 472.340, 682.469 473.987, 679.789 475.661, 676.988 475.952, 676.441 476.247, 675.785 476.539, 675.037 476.823, 674.209 477.093, 673.318 477.344, 672.376 477.568, 671.398 477.762, 670.398 477.918, 669.391 478.031, 668.390 478.095, 667.409 478.104, 666.463 478.058, 665.307 477.973, 664.303 477.850, 663.447 477.690, 662.738 477.493, 662.171 477.262, 661.744 476.995, 661.453 476.695, 661.297 468.423, 660.121 " />
            <path fill="none" stroke-width="3.0" stroke-linecap="butt" stroke-opacity="1.0" stroke="rgb(0, 0, 0)" stroke-linejoin="miter" d=" M 526.446, 315.558 526.180, 315.584 525.914, 315.714 525.653, 315.947 524.186, 317.622 522.612, 319.495 520.953, 321.529 519.227, 323.686 517.457, 325.927 515.662, 328.213 513.865, 330.504 512.089, 332.757 510.357, 334.931 508.692, 336.982 507.118, 338.866 505.661, 340.538 504.205, 342.126 502.567, 343.849 500.777, 345.689 498.863, 347.623 496.859, 349.631 494.795, 351.690 492.704, 353.776 490.621, 355.866 488.581, 357.934 486.620, 359.953 484.775, 361.896 483.087, 363.735 482.720, 364.195 482.380, 364.728 482.070, 365.333 481.790, 366.009 481.542, 366.754 481.326, 367.568 481.143, 368.448 480.996, 369.393 480.884, 370.403 480.810, 371.475 480.773, 372.608 480.776, 373.800 480.826, 375.273 480.917, 376.527 481.047, 377.579 481.215, 378.447 481.422, 379.146 481.665, 379.693 481.738, 379.800 481.945, 380.105 482.260, 380.398 482.609, 380.589 482.991, 380.695 " />
            <path fill="none" stroke-width="3.0" stroke-linecap="butt" stroke-opacity="1.0" stroke="rgb(0, 0, 0)" stroke-linejoin="miter" d=" M 463.570, 387.545 463.222, 387.627 462.877, 387.824 462.540, 388.135 455.863, 395.579 450.419, 401.648 447.479, 404.895 444.582, 408.037 441.706, 411.109 438.827, 414.150 435.920, 417.199 432.957, 420.295 429.913, 423.481 426.758, 426.798 423.462, 430.293 419.996, 434.011 416.325, 438.001 412.416, 442.315 411.774, 443.087 411.138, 443.972 410.518, 444.958 409.924, 446.035 409.367, 447.189 408.857, 448.411 408.406, 449.687 408.023, 451.006 407.981, 451.192 407.720, 452.355 407.507, 453.723 407.395, 455.096 407.394, 456.463 407.539, 458.069 407.810, 459.370 408.190, 460.389 408.663, 461.153 409.212, 461.686 409.821, 462.013 410.472, 462.159 " />
            <path fill="none" stroke-width="3.0" stroke-linecap="butt" stroke-opacity="1.0" stroke="rgb(0, 0, 0)" stroke-linejoin="miter" d=" M 487.500, 380.353 488.931, 380.616 490.132, 381.215 491.125, 382.179 491.931, 383.538 492.570, 385.323 493.063, 387.565 493.429, 390.292 493.686, 393.537 493.854, 397.327 493.951, 401.692 494.097, 411.691 494.243, 421.690 494.389, 431.688 494.535, 441.687 494.681, 451.686 494.827, 461.685 494.973, 471.684 495.119, 481.683 495.265, 491.682 495.318, 495.324 495.320, 496.488 495.294, 497.565 495.241, 498.558 495.163, 499.470 495.062, 500.302 494.940, 501.056 494.800, 501.735 494.642, 502.341 494.470, 502.874 494.284, 503.338 494.088, 503.733 493.882, 504.062 493.639, 504.351 493.397, 504.531 493.154, 504.610 492.905, 504.598 " />
            <path fill="none" stroke-width="3.0" stroke-linecap="butt" stroke-opacity="1.0" stroke="rgb(0, 0, 0)" stroke-linejoin="miter" d=" M 431.232, 453.726 433.547, 453.979 435.728, 454.551 437.787, 455.408 439.737, 456.515 441.589, 457.837 443.352, 459.342 446.022, 462.001 448.631, 464.945 451.188, 468.126 453.699, 471.494 456.171, 475.004 458.612, 478.608 461.029, 482.263 463.427, 485.925 465.814, 489.550 468.195, 493.097 470.577, 496.526 472.965, 499.797 473.339, 500.389 473.649, 501.116 473.897, 501.973 473.977, 502.399 474.081, 502.953 474.203, 504.050 474.261, 505.257 474.257, 506.569 474.190, 507.979 474.059, 509.482 473.865, 511.072 473.608, 512.742 473.287, 514.488 472.977, 516.086 471.073, 525.903 469.168, 535.720 467.264, 545.537 465.360, 555.354 463.455, 565.171 462.908, 567.993 462.004, 572.653 460.099, 582.470 458.195, 592.287 456.291, 602.104 454.386, 611.921 452.482, 621.738 450.578, 631.555 448.673, 641.372 447.011, 649.939 445.664, 656.885 444.795, 661.363 442.891, 671.180 440.986, 680.997 439.082, 690.814 438.615, 693.224 437.709, 697.799 436.777, 702.323 435.802, 706.817 434.769, 711.306 433.661, 715.811 432.462, 720.359 431.156, 724.973 429.727, 729.681 428.155, 734.508 426.423, 739.483 424.514, 744.633 422.406, 749.990 421.875, 751.353 421.307, 752.792 420.721, 754.294 420.131, 755.847 419.555, 757.437 419.010, 759.051 418.511, 760.677 418.077, 762.301 417.724, 763.908 417.469, 765.485 417.329, 767.018 417.321, 768.492 417.421, 769.491 417.622, 770.269 417.922, 770.818 418.321, 771.129 " />
            <path fill="none" stroke-width="3.0" stroke-linecap="butt" stroke-opacity="1.0" stroke="rgb(0, 0, 0)" stroke-linejoin="miter" d=" M 470.253, 665.002 469.745, 664.749 469.321, 664.292 468.979, 663.635 468.718, 662.785 468.534, 661.746 468.426, 660.525 468.423, 660.121 468.418, 659.430 468.447, 658.255 468.511, 656.999 468.610, 655.662 468.745, 654.243 468.882, 653.023 468.913, 652.743 469.115, 651.161 469.349, 649.496 469.616, 647.748 469.915, 645.917 470.245, 644.003 470.606, 642.004 472.412, 632.169 474.219, 622.333 476.026, 612.498 477.832, 602.662 479.639, 592.827 481.446, 582.991 482.855, 575.321 483.715, 570.639 485.521, 560.804 487.328, 550.968 489.135, 541.133 491.010, 530.926 491.304, 529.330 491.594, 527.851 491.880, 526.487 492.161, 525.235 492.438, 524.096 492.711, 523.066 492.979, 522.146 493.243, 521.332 493.502, 520.624 493.756, 520.020 494.006, 519.518 494.251, 519.117 494.457, 518.865 494.656, 518.717 494.847, 518.677 495.027, 518.747 495.195, 518.934 495.350, 519.240 495.488, 519.669 495.608, 520.227 495.709, 520.917 495.788, 521.743 495.844, 522.709 495.874, 523.820 495.968, 530.257 496.059, 536.655 496.147, 543.018 496.230, 549.352 496.307, 555.663 496.377, 561.955 496.438, 568.235 496.471, 572.262 496.489, 574.508 496.505, 577.068 496.529, 580.780 496.555, 587.055 496.568, 593.340 496.566, 599.640 496.545, 603.339 496.491, 606.690 496.381, 609.772 496.194, 612.664 495.909, 615.444 495.503, 618.191 494.955, 620.985 494.241, 623.904 493.338, 627.029 492.223, 630.442 490.871, 634.226 489.257, 638.466 488.851, 639.565 488.446, 640.676 488.048, 641.801 487.665, 642.942 487.303, 644.100 486.970, 645.276 486.672, 646.472 486.418, 647.689 486.213, 648.928 486.065, 650.189 485.981, 651.474 485.968, 652.783 486.028, 653.702 486.165, 654.432 486.372, 654.980 486.638, 655.356 486.956, 655.567 487.318, 655.622 487.715, 655.530 488.138, 655.300 488.579, 654.938 489.031, 654.455 489.485, 653.859 489.933, 653.158 492.033, 649.524 493.991, 646.018 495.820, 642.640 497.536, 639.389 499.150, 636.268 500.676, 633.276 502.125, 630.417 503.510, 627.692 504.841, 625.104 506.130, 622.656 507.389, 620.351 508.626, 618.192 509.866, 616.171 511.075, 614.342 512.272, 612.640 513.478, 611.005 514.712, 609.373 515.994, 607.686 517.342, 605.884 518.775, 603.908 520.310, 601.701 521.965, 599.206 523.757, 596.370 525.700, 593.139 526.060, 592.456 526.431, 591.624 526.803, 590.669 527.170, 589.616 527.523, 588.491 527.854, 587.320 528.155, 586.128 528.419, 584.940 528.637, 583.781 528.802, 582.678 528.905, 581.654 528.939, 580.735 528.914, 579.666 528.845, 578.746 528.735, 577.973 528.584, 577.344 528.393, 576.857 528.162, 576.508 527.892, 576.296 527.584, 576.219 519.086, 575.138 " />
            <path fill="none" stroke-width="3.0" stroke-linecap="butt" stroke-opacity="1.0" stroke="rgb(0, 0, 0)" stroke-linejoin="miter" d=" M 476.695, 661.297 476.362, 661.273 475.997, 661.377 475.601, 661.606 475.175, 661.959 474.123, 663.030 473.166, 663.871 472.302, 664.484 471.529, 664.874 470.847, 665.045 470.253, 665.002 " />
            <path fill="none" stroke-width="3.0" stroke-linecap="butt" stroke-opacity="1.0" stroke="rgb(0, 0, 0)" stroke-linejoin="miter" d=" M 527.584, 576.219 527.238, 576.273 526.855, 576.456 526.435, 576.767 525.980, 577.203 524.569, 578.560 523.343, 579.533 522.292, 580.104 521.404, 580.254 " />
            <path fill="none" stroke-width="3.0" stroke-linecap="butt" stroke-opacity="1.0" stroke="rgb(0, 0, 0)" stroke-linejoin="miter" d=" M 468.882, 653.023 478.784, 654.419 487.318, 655.622 " />
        </g>
    </g>
</svg>
