<?xml version='1.0' encoding='ascii'?>
<svg xmlns="http://www.w3.org/2000/svg" version="1.1" width="1080" height="1080">
    <g id="View Layer_LineSet" xmlns:inkscape="http://www.inkscape.org/namespaces/inkscape" inkscape:groupmode="lineset" inkscape:label="View Layer_LineSet">
        <g xmlns:inkscape="http://www.inkscape.org/namespaces/inkscape" inkscape:groupmode="layer" id="strokes" inkscape:label="strokes">
            <path fill="none" stroke-width="3.0" stroke-linecap="butt" stroke-opacity="1.0" stroke="rgb(0, 0, 0)" stroke-linejoin="miter" d=" M 527.301, 576.431 526.882, 576.169 526.541, 575.451 526.271, 574.263 526.064, 572.589 526.015, 571.888 525.913, 570.414 525.809, 567.724 525.744, 564.502 525.712, 560.734 525.664, 550.734 525.616, 540.734 525.569, 530.734 525.521, 520.734 525.473, 510.734 525.426, 500.734 525.378, 490.734 525.330, 480.735 525.283, 470.735 525.235, 460.735 525.187, 450.735 525.139, 440.735 525.092, 430.735 525.044, 420.735 524.996, 410.735 524.949, 400.735 524.901, 390.736 524.853, 380.736 524.802, 370.053 524.802, 365.479 524.851, 361.324 524.957, 357.530 525.127, 354.038 525.366, 350.790 525.681, 347.727 526.080, 344.787 526.566, 341.913 527.147, 339.044 527.828, 336.122 528.614, 333.087 529.510, 329.884 529.717, 329.082 529.909, 328.236 530.084, 327.347 530.242, 326.413 530.383, 325.433 530.506, 324.407 530.611, 323.335 530.697, 322.214 530.764, 321.045 530.812, 319.826 530.839, 318.556 530.846, 317.235 530.829, 316.282 530.785, 315.443 530.717, 314.717 530.628, 314.103 530.522, 313.599 530.401, 313.204 530.268, 312.917 530.125, 312.737 529.977, 312.663 519.988, 312.200 509.999, 311.737 500.010, 311.273 490.020, 310.810 480.031, 310.347 470.042, 309.884 460.052, 309.421 450.063, 308.958 440.074, 308.495 430.085, 308.032 420.095, 307.569 410.106, 307.106 400.117, 306.643 390.128, 306.179 380.138, 305.716 370.149, 305.253 366.431, 305.081 366.176, 305.106 365.926, 305.234 365.687, 305.464 364.356, 307.112 362.932, 308.956 361.434, 310.957 359.877, 313.080 358.282, 315.286 356.665, 317.535 355.047, 319.790 353.446, 322.007 351.884, 324.147 350.380, 326.166 348.957, 328.021 347.636, 329.667 346.311, 331.230 344.817, 332.927 343.182, 334.738 341.434, 336.643 339.601, 338.620 337.714, 340.648 335.802, 342.703 333.897, 344.761 332.033, 346.797 330.242, 348.786 328.560, 350.700 327.023, 352.511 326.692, 352.964 326.391, 353.489 326.121, 354.084 325.884, 354.750 325.681, 355.483 325.512, 356.284 325.379, 357.150 325.283, 358.080 325.224, 359.074 325.204, 360.128 325.223, 361.243 325.284, 362.416 325.403, 363.865 325.550, 365.099 325.726, 366.134 325.931, 366.988 326.163, 367.675 326.424, 368.213 326.713, 368.618 327.030, 368.906 327.376, 369.094 327.749, 369.197 328.150, 369.233 334.365, 369.558 344.351, 370.081 354.337, 370.604 360.895, 370.947 370.881, 371.470 380.868, 371.993 390.854, 372.516 400.840, 373.039 410.827, 373.562 420.813, 374.085 430.799, 374.608 440.786, 375.131 450.772, 375.653 460.758, 376.176 470.745, 376.699 480.731, 377.222 490.717, 377.745 500.703, 378.268 505.563, 378.522 505.817, 378.497 506.934, 378.133 507.893, 378.052 " />
            <path fill="none" stroke-width="3.0" stroke-linecap="butt" stroke-opacity="1.0" stroke="rgb(0, 0, 0)" stroke-linejoin="miter" d=" M 511.051, 501.826 510.906, 501.738 510.754, 501.575 510.595, 501.347 510.426, 501.062 510.246, 500.728 510.054, 500.355 509.847, 499.950 509.624, 499.523 506.686, 489.965 503.748, 480.406 500.810, 470.847 497.872, 461.289 494.934, 451.730 491.996, 442.171 491.804, 441.547 491.530, 440.638 491.268, 439.737 491.022, 438.839 490.793, 437.940 490.582, 437.033 490.392, 436.113 490.223, 435.177 490.077, 434.218 489.957, 433.232 489.864, 432.214 489.800, 431.158 489.766, 430.060 489.769, 428.284 489.832, 426.445 489.957, 424.544 490.143, 422.584 490.391, 420.568 490.701, 418.497 491.073, 416.375 491.507, 414.204 492.003, 411.987 492.560, 409.726 493.178, 407.425 493.857, 405.086 494.121, 404.117 494.363, 403.106 494.582, 402.052 494.779, 400.955 494.953, 399.814 495.102, 398.629 495.227, 397.398 495.327, 396.121 495.402, 394.798 495.449, 393.426 495.470, 392.006 495.463, 390.535 495.429, 389.483 495.362, 388.567 495.264, 387.786 495.140, 387.135 494.994, 386.614 494.830, 386.220 494.652, 385.950 494.463, 385.802 494.267, 385.774 484.281, 385.244 474.295, 384.714 464.309, 384.185 454.323, 383.655 444.337, 383.125 434.351, 382.595 424.365, 382.065 414.379, 381.535 404.393, 381.005 394.407, 380.475 384.421, 379.945 374.435, 379.415 364.449, 378.886 361.332, 378.720 351.346, 378.190 341.360, 377.660 338.057, 377.485 328.071, 376.955 318.085, 376.425 309.377, 375.963 309.046, 376.044 308.723, 376.239 308.414, 376.546 302.037, 384.248 297.390, 389.861 294.713, 393.061 292.074, 396.158 289.452, 399.186 286.824, 402.184 284.170, 405.189 281.464, 408.242 278.684, 411.382 275.803, 414.653 272.796, 418.099 269.634, 421.765 266.288, 425.700 262.728, 429.954 262.147, 430.716 261.576, 431.588 261.026, 432.561 260.505, 433.621 260.023, 434.759 259.591, 435.963 259.217, 437.221 258.911, 438.520 258.684, 439.850 258.544, 441.198 258.502, 442.551 258.566, 443.897 258.782, 445.479 259.106, 446.760 259.521, 447.764 260.014, 448.515 260.568, 449.039 261.170, 449.360 261.805, 449.504 271.787, 450.103 281.769, 450.702 291.751, 451.301 298.251, 451.692 308.233, 452.291 318.215, 452.890 320.418, 453.022 330.400, 453.621 340.382, 454.221 343.408, 454.402 353.390, 455.002 363.372, 455.601 365.663, 455.738 375.645, 456.338 385.627, 456.937 395.609, 457.536 405.591, 458.135 415.573, 458.734 425.555, 459.334 435.537, 459.933 445.519, 460.532 455.501, 461.131 463.973, 461.640 464.361, 461.613 464.755, 461.455 465.144, 461.191 465.521, 460.847 465.877, 460.447 467.821, 457.883 469.641, 455.883 471.345, 454.403 472.941, 453.401 474.439, 452.836 475.846, 452.669 " />
            <path fill="none" stroke-width="3.0" stroke-linecap="butt" stroke-opacity="1.0" stroke="rgb(0, 0, 0)" stroke-linejoin="miter" d=" M 334.365, 369.558 334.650, 369.700 335.653, 370.647 336.495, 371.984 337.197, 373.739 337.779, 375.944 338.057, 377.485 " />
            <path fill="none" stroke-width="3.0" stroke-linecap="butt" stroke-opacity="1.0" stroke="rgb(0, 0, 0)" stroke-linejoin="miter" d=" M 298.251, 451.692 298.710, 452.192 301.326, 455.321 303.908, 458.636 306.459, 462.090 308.985, 465.637 311.490, 469.234 313.977, 472.838 316.452, 476.407 318.918, 479.899 321.378, 483.274 323.837, 486.493 324.226, 487.076 324.560, 487.792 324.840, 488.636 325.065, 489.602 325.235, 490.682 325.350, 491.872 325.409, 493.165 325.412, 494.555 325.359, 496.036 325.249, 497.603 325.082, 499.250 324.857, 500.971 323.464, 510.873 322.071, 520.776 320.678, 530.678 319.285, 540.581 317.892, 550.483 316.499, 560.386 315.106, 570.288 313.713, 580.191 312.320, 590.093 310.927, 599.996 309.534, 609.898 308.141, 619.801 306.748, 629.703 305.355, 639.606 303.962, 649.508 302.569, 659.411 301.176, 669.313 300.038, 677.404 299.385, 681.926 298.703, 686.398 297.979, 690.840 297.197, 695.277 296.345, 699.732 295.408, 704.228 294.370, 708.791 293.216, 713.447 291.931, 718.222 290.499, 723.142 288.904, 728.238 287.127, 733.538 286.680, 734.887 286.201, 736.311 285.707, 737.797 285.212, 739.333 284.733, 740.907 284.284, 742.504 283.881, 744.113 283.540, 745.719 283.276, 747.309 283.106, 748.869 283.045, 750.385 283.108, 751.843 283.252, 752.831 283.483, 753.600 283.800, 754.142 284.200, 754.449 284.682, 754.513 294.644, 755.388 304.605, 756.262 314.567, 757.137 324.529, 758.011 334.491, 758.886 344.452, 759.760 354.414, 760.635 364.376, 761.509 374.337, 762.383 384.299, 763.258 394.261, 764.132 404.222, 765.007 414.184, 765.881 424.146, 766.756 434.107, 767.630 444.069, 768.505 454.031, 769.379 463.993, 770.254 468.933, 770.687 469.271, 770.479 469.663, 770.006 470.108, 769.264 470.604, 768.245 471.150, 766.943 471.746, 765.352 472.390, 763.467 473.893, 758.825 475.383, 754.108 476.863, 749.337 478.333, 744.531 479.793, 739.712 481.245, 734.898 482.690, 730.111 484.128, 725.370 485.561, 720.694 486.988, 716.102 488.410, 711.614 489.828, 707.249 490.891, 704.064 491.917, 701.068 492.912, 698.228 493.881, 695.511 494.830, 692.883 495.764, 690.314 496.689, 687.773 497.609, 685.228 498.530, 682.649 499.456, 680.008 500.393, 677.274 501.345, 674.419 501.511, 673.862 501.679, 673.198 501.845, 672.440 502.006, 671.604 502.160, 670.704 502.302, 669.755 502.429, 668.771 502.538, 667.766 502.627, 666.754 502.690, 665.751 502.726, 664.769 502.731, 663.824 502.704, 662.672 502.655, 661.672 502.584, 660.822 502.492, 660.118 502.380, 659.559 502.248, 659.140 502.096, 658.859 501.925, 658.714 497.217, 658.349 " />
            <path fill="none" stroke-width="3.0" stroke-linecap="butt" stroke-opacity="1.0" stroke="rgb(0, 0, 0)" stroke-linejoin="miter" d=" M 529.977, 312.663 529.826, 312.694 529.676, 312.828 529.528, 313.066 528.697, 314.763 527.805, 316.660 526.865, 318.718 525.887, 320.901 524.883, 323.169 523.866, 325.483 522.847, 327.801 521.840, 330.082 520.858, 332.284 519.913, 334.362 519.021, 336.272 518.194, 337.969 517.368, 339.581 516.438, 341.333 515.421, 343.204 514.335, 345.173 513.197, 347.217 512.024, 349.314 510.836, 351.439 509.653, 353.568 508.493, 355.674 507.379, 357.729 506.330, 359.708 505.370, 361.579 505.161, 362.045 504.969, 362.585 504.793, 363.195 504.634, 363.875 504.493, 364.624 504.370, 365.440 504.267, 366.322 504.184, 367.269 504.121, 368.278 504.079, 369.349 504.059, 370.479 504.061, 371.668 504.091, 373.136 504.143, 374.385 504.218, 375.432 504.314, 376.293 504.433, 376.986 504.572, 377.526 504.713, 377.886 504.731, 377.930 504.910, 378.216 505.109, 378.398 505.327, 378.495 505.563, 378.522 " />
            <path fill="none" stroke-width="3.0" stroke-linecap="butt" stroke-opacity="1.0" stroke="rgb(0, 0, 0)" stroke-linejoin="miter" d=" M 494.267, 385.774 494.069, 385.864 493.872, 386.069 493.680, 386.387 489.198, 395.327 486.774, 400.162 485.097, 403.475 483.446, 406.682 481.805, 409.820 480.162, 412.928 478.503, 416.045 476.812, 419.211 475.073, 422.469 473.272, 425.863 471.389, 429.438 469.408, 433.242 467.310, 437.325 465.075, 441.738 464.708, 442.527 464.344, 443.428 463.990, 444.431 463.650, 445.522 463.332, 446.692 463.041, 447.927 462.783, 449.215 462.565, 450.544 462.396, 451.874 462.392, 451.902 462.271, 453.276 462.208, 454.653 462.208, 456.021 462.292, 457.624 462.447, 458.918 462.666, 459.929 462.937, 460.681 463.252, 461.199 463.601, 461.511 463.973, 461.640 " />
            <path fill="none" stroke-width="3.0" stroke-linecap="butt" stroke-opacity="1.0" stroke="rgb(0, 0, 0)" stroke-linejoin="miter" d=" M 507.893, 378.052 508.708, 378.282 509.392, 378.852 509.957, 379.790 510.416, 381.127 510.781, 382.892 511.063, 385.115 511.273, 387.826 511.421, 391.055 511.519, 394.830 511.578, 399.179 511.668, 409.179 511.758, 419.178 511.848, 429.178 511.938, 439.178 512.028, 449.177 512.118, 459.177 512.208, 469.176 512.298, 479.176 512.388, 489.176 512.418, 492.511 512.420, 493.671 512.406, 494.746 512.376, 495.738 512.332, 496.649 512.276, 497.482 512.207, 498.238 512.127, 498.918 512.038, 499.526 511.940, 500.063 511.835, 500.531 511.724, 500.930 511.607, 501.264 511.469, 501.559 511.331, 501.745 511.193, 501.831 511.051, 501.826 " />
            <path fill="none" stroke-width="3.0" stroke-linecap="butt" stroke-opacity="1.0" stroke="rgb(0, 0, 0)" stroke-linejoin="miter" d=" M 475.846, 452.669 477.169, 452.862 478.416, 453.379 479.594, 454.182 480.708, 455.238 481.767, 456.512 482.775, 457.970 484.301, 460.557 485.793, 463.431 487.254, 466.541 488.689, 469.840 490.102, 473.280 491.497, 476.815 492.878, 480.400 494.248, 483.992 495.611, 487.548 496.971, 491.025 498.331, 494.383 499.694, 497.583 499.908, 498.163 500.085, 498.881 500.226, 499.729 500.332, 500.703 500.361, 501.148 500.402, 501.794 500.436, 502.997 500.435, 504.307 500.397, 505.717 500.324, 507.220 500.215, 508.812 500.069, 510.487 499.887, 512.238 499.585, 515.001 498.496, 524.942 497.408, 534.882 496.319, 544.823 495.231, 554.763 494.142, 564.704 493.603, 569.634 493.120, 574.040 492.032, 583.980 490.943, 593.921 489.855, 603.861 488.766, 613.802 487.678, 623.742 486.589, 633.683 485.501, 643.624 484.704, 650.902 484.001, 657.325 483.545, 661.486 482.457, 671.426 481.368, 681.367 480.280, 691.307 480.212, 691.930 479.697, 696.539 479.167, 701.097 478.612, 705.628 478.024, 710.155 477.393, 714.702 476.711, 719.296 475.967, 723.960 475.152, 728.723 474.255, 733.612 473.268, 738.654 472.178, 743.880 470.975, 749.321 470.672, 750.706 470.348, 752.167 470.013, 753.693 469.676, 755.269 469.347, 756.883 469.036, 758.520 468.752, 760.167 468.504, 761.809 468.303, 763.432 468.158, 765.020 468.079, 766.561 468.075, 768.037 468.133, 769.034 468.248, 769.806 468.421, 770.343 468.649, 770.640 468.933, 770.687 " />
            <path fill="none" stroke-width="3.0" stroke-linecap="butt" stroke-opacity="1.0" stroke="rgb(0, 0, 0)" stroke-linejoin="miter" d=" M 498.255, 662.631 497.965, 662.396 497.723, 661.953 497.528, 661.309 497.378, 660.468 497.273, 659.437 497.217, 658.349 497.210, 658.221 497.205, 657.127 497.221, 655.952 497.257, 654.695 497.313, 653.356 497.388, 651.935 497.392, 651.878 497.483, 650.431 497.597, 648.843 497.730, 647.173 497.881, 645.418 498.050, 643.579 498.237, 641.656 498.441, 639.648 499.471, 629.701 500.502, 619.754 501.532, 609.807 502.562, 599.860 503.592, 589.914 504.623, 579.967 505.149, 574.881 505.606, 570.469 506.637, 560.522 507.667, 550.575 508.697, 540.628 509.727, 530.682 509.990, 528.141 510.157, 526.541 510.321, 525.057 510.483, 523.688 510.642, 522.432 510.799, 521.287 510.953, 520.253 511.105, 519.327 511.255, 518.508 511.402, 517.794 511.546, 517.184 511.688, 516.677 511.827, 516.269 511.944, 516.013 512.057, 515.860 512.166, 515.814 512.268, 515.880 512.364, 516.061 512.452, 516.361 512.531, 516.786 512.600, 517.339 512.658, 518.024 512.703, 518.846 512.735, 519.808 512.754, 520.914 512.811, 527.333 512.867, 533.711 512.922, 540.055 512.973, 546.371 513.021, 552.663 513.065, 558.938 513.104, 565.201 513.135, 570.992 513.137, 571.457 513.154, 575.441 513.164, 577.712 513.183, 583.972 513.195, 590.241 513.198, 596.526 513.189, 600.217 513.160, 603.561 513.100, 606.640 512.995, 609.531 512.835, 612.314 512.606, 615.068 512.296, 617.873 511.891, 620.809 511.380, 623.956 510.748, 627.398 509.981, 631.218 509.064, 635.503 508.834, 636.612 508.604, 637.735 508.378, 638.871 508.161, 640.022 507.956, 641.190 507.767, 642.375 507.598, 643.579 507.454, 644.802 507.338, 646.045 507.255, 647.309 507.208, 648.594 507.201, 649.902 507.236, 650.817 507.315, 651.541 507.433, 652.082 507.585, 652.448 507.766, 652.648 507.972, 652.691 508.198, 652.586 508.438, 652.341 508.690, 651.966 508.947, 651.469 509.205, 650.859 509.459, 650.144 510.652, 646.447 511.764, 642.883 512.803, 639.452 513.777, 636.153 514.693, 632.985 515.559, 629.951 516.381, 627.052 517.166, 624.289 517.922, 621.665 518.653, 619.181 519.367, 616.842 520.069, 614.650 520.772, 612.595 521.458, 610.732 522.137, 608.998 522.821, 607.329 523.521, 605.664 524.248, 603.941 525.013, 602.102 525.825, 600.087 526.695, 597.839 527.633, 595.301 528.648, 592.419 529.750, 589.139 529.953, 588.448 530.163, 587.607 530.374, 586.644 530.581, 585.583 530.781, 584.451 530.968, 583.274 531.138, 582.077 531.286, 580.886 531.410, 579.725 531.502, 578.620 531.560, 577.597 531.579, 576.680 531.564, 575.616 531.524, 574.702 531.461, 573.935 531.375, 573.313 531.266, 572.833 531.135, 572.493 530.982, 572.290 530.807, 572.222 526.015, 571.888 " />
            <path fill="none" stroke-width="3.0" stroke-linecap="butt" stroke-opacity="1.0" stroke="rgb(0, 0, 0)" stroke-linejoin="miter" d=" M 501.925, 658.714 501.735, 658.700 501.527, 658.816 501.301, 659.059 501.059, 659.425 500.460, 660.531 499.915, 661.403 499.423, 662.045 498.983, 662.460 498.594, 662.654 498.255, 662.631 " />
            <path fill="none" stroke-width="3.0" stroke-linecap="butt" stroke-opacity="1.0" stroke="rgb(0, 0, 0)" stroke-linejoin="miter" d=" M 530.807, 572.222 530.610, 572.286 530.393, 572.480 530.155, 572.803 529.897, 573.251 529.097, 574.646 528.402, 575.653 527.806, 576.253 527.301, 576.431 " />
            <path fill="none" stroke-width="3.0" stroke-linecap="butt" stroke-opacity="1.0" stroke="rgb(0, 0, 0)" stroke-linejoin="miter" d=" M 497.392, 651.878 507.362, 652.644 507.972, 652.691 " />
        </g>
    </g>
</svg>
