<?xml version='1.0' encoding='ascii'?>
<svg xmlns="http://www.w3.org/2000/svg" version="1.1" width="1080" height="1080">
    <g id="View Layer_LineSet" xmlns:inkscape="http://www.inkscape.org/namespaces/inkscape" inkscape:groupmode="lineset" inkscape:label="View Layer_LineSet">
        <g xmlns:inkscape="http://www.inkscape.org/namespaces/inkscape" inkscape:groupmode="layer" id="strokes" inkscape:label="strokes">
            <path fill="none" stroke-width="3.0" stroke-linecap="butt" stroke-opacity="1.0" stroke="rgb(0, 0, 0)" stroke-linejoin="miter" d=" M 531.956, 572.552 531.842, 572.296 531.748, 571.585 531.672, 570.404 531.613, 568.738 531.604, 568.294 531.569, 566.573 531.536, 563.894 531.514, 560.685 531.499, 556.930 531.471, 546.931 531.442, 536.931 531.414, 526.931 531.386, 516.931 531.357, 506.931 531.329, 496.931 531.301, 486.931 531.272, 476.931 531.244, 466.931 531.216, 456.931 531.187, 446.931 531.159, 436.931 531.131, 426.931 531.102, 416.931 531.074, 406.931 531.046, 396.931 531.017, 386.931 530.989, 376.931 530.961, 367.015 530.954, 362.460 530.961, 358.323 530.984, 354.544 531.025, 351.066 531.085, 347.830 531.166, 344.777 531.270, 341.848 531.398, 338.982 531.552, 336.121 531.733, 333.206 531.943, 330.178 532.182, 326.982 532.237, 326.182 532.288, 325.338 532.334, 324.452 532.376, 323.520 532.413, 322.544 532.445, 321.522 532.472, 320.453 532.493, 319.337 532.510, 318.172 532.521, 316.958 532.526, 315.694 532.526, 314.379 532.520, 313.431 532.507, 312.596 532.487, 311.874 532.462, 311.263 532.433, 310.762 532.399, 310.370 532.362, 310.085 532.323, 309.907 532.283, 309.835 522.283, 309.721 512.284, 309.607 502.285, 309.492 492.285, 309.378 482.286, 309.264 472.287, 309.150 462.287, 309.036 452.288, 308.921 442.289, 308.807 432.289, 308.693 422.290, 308.579 412.291, 308.465 402.291, 308.350 392.292, 308.236 382.293, 308.122 372.293, 308.008 365.985, 307.936 365.835, 307.966 365.690, 308.100 365.553, 308.335 364.801, 310.019 363.999, 311.901 363.155, 313.943 362.280, 316.109 361.384, 318.359 360.475, 320.655 359.566, 322.955 358.666, 325.218 357.787, 327.403 356.941, 329.465 356.138, 331.360 355.390, 333.043 354.639, 334.643 353.791, 336.382 352.861, 338.238 351.866, 340.192 350.822, 342.220 349.747, 344.301 348.658, 346.409 347.572, 348.521 346.510, 350.611 345.491, 352.651 344.535, 354.614 343.662, 356.471 343.475, 356.934 343.308, 357.469 343.161, 358.075 343.035, 358.750 342.931, 359.493 342.848, 360.303 342.788, 361.179 342.752, 362.118 342.739, 363.120 342.750, 364.183 342.787, 365.305 342.849, 366.485 342.952, 367.942 343.067, 369.182 343.194, 370.221 343.335, 371.076 343.488, 371.764 343.655, 372.300 343.836, 372.702 344.031, 372.985 344.240, 373.166 344.464, 373.262 344.703, 373.290 348.215, 373.335 358.214, 373.464 364.126, 373.540 374.125, 373.669 384.124, 373.797 394.124, 373.926 404.123, 374.055 414.122, 374.184 424.121, 374.312 434.120, 374.441 444.119, 374.570 454.119, 374.699 464.118, 374.828 474.117, 374.956 484.116, 375.085 494.115, 375.214 504.114, 375.343 514.114, 375.471 524.113, 375.600 525.732, 375.621 525.801, 375.593 526.105, 375.221 526.366, 375.132 " />
            <path fill="none" stroke-width="3.0" stroke-linecap="butt" stroke-opacity="1.0" stroke="rgb(0, 0, 0)" stroke-linejoin="miter" d=" M 527.453, 498.407 527.415, 498.403 527.375, 498.317 527.333, 498.156 527.289, 497.931 527.243, 497.648 527.193, 497.318 527.140, 496.948 527.083, 496.547 527.022, 496.124 526.166, 486.161 525.311, 476.197 524.455, 466.234 523.599, 456.271 522.743, 446.307 522.076, 438.540 522.000, 437.637 521.927, 436.742 521.859, 435.850 521.795, 434.956 521.736, 434.054 521.683, 433.140 521.635, 432.208 521.594, 431.255 521.560, 430.273 521.533, 429.259 521.514, 428.208 521.503, 427.114 521.501, 425.344 521.516, 423.511 521.547, 421.616 521.595, 419.661 521.659, 417.650 521.741, 415.584 521.839, 413.466 521.954, 411.298 522.086, 409.084 522.234, 406.827 522.399, 404.528 522.581, 402.191 522.651, 401.223 522.716, 400.213 522.774, 399.161 522.826, 398.067 522.872, 396.928 522.911, 395.746 522.943, 394.519 522.968, 393.246 522.987, 391.926 522.997, 390.559 523.001, 389.144 522.997, 387.680 522.986, 386.632 522.966, 385.720 522.938, 384.942 522.904, 384.295 522.863, 383.778 522.818, 383.386 522.769, 383.119 522.717, 382.973 522.664, 382.947 512.664, 382.817 502.665, 382.686 492.666, 382.556 482.667, 382.426 472.668, 382.295 462.669, 382.165 452.669, 382.034 442.670, 381.904 432.671, 381.774 422.672, 381.643 412.673, 381.513 402.674, 381.382 392.675, 381.252 382.675, 381.122 372.676, 380.991 364.532, 380.885 354.533, 380.754 350.682, 380.704 340.682, 380.574 333.693, 380.483 333.498, 380.572 333.310, 380.775 333.133, 381.091 328.968, 390.182 326.869, 394.762 325.346, 398.050 323.844, 401.233 322.349, 404.348 320.850, 407.433 319.335, 410.526 317.790, 413.669 316.203, 416.903 314.558, 420.272 312.841, 423.821 311.037, 427.597 309.128, 431.650 307.098, 436.030 306.768, 436.813 306.447, 437.708 306.140, 438.703 305.852, 439.787 305.590, 440.948 305.359, 442.175 305.164, 443.454 305.010, 444.774 304.904, 446.122 304.850, 447.486 304.855, 448.854 304.924, 450.212 305.088, 451.804 305.310, 453.090 305.580, 454.093 305.891, 454.840 306.234, 455.355 306.600, 455.665 306.982, 455.793 316.981, 455.941 326.980, 456.088 328.189, 456.106 338.188, 456.253 341.400, 456.300 351.399, 456.447 355.523, 456.508 365.522, 456.655 368.721, 456.703 378.720, 456.850 388.719, 456.997 398.718, 457.144 408.717, 457.291 418.716, 457.439 428.715, 457.586 438.714, 457.733 448.713, 457.880 458.712, 458.028 468.711, 458.175 478.710, 458.322 488.708, 458.469 498.707, 458.617 508.706, 458.764 514.514, 458.849 514.620, 458.818 514.727, 458.657 514.833, 458.390 514.935, 458.043 515.032, 457.641 515.558, 455.064 516.052, 453.052 516.515, 451.560 516.949, 450.544 517.357, 449.966 517.740, 449.786 " />
            <path fill="none" stroke-width="3.0" stroke-linecap="butt" stroke-opacity="1.0" stroke="rgb(0, 0, 0)" stroke-linejoin="miter" d=" M 348.215, 373.335 348.574, 373.618 349.190, 374.550 349.719, 375.878 350.175, 377.630 350.570, 379.837 350.682, 380.704 " />
            <path fill="none" stroke-width="3.0" stroke-linecap="butt" stroke-opacity="1.0" stroke="rgb(0, 0, 0)" stroke-linejoin="miter" d=" M 328.189, 456.106 329.041, 457.585 330.668, 460.674 332.278, 463.951 333.873, 467.369 335.454, 470.880 337.024, 474.442 338.583, 478.011 340.134, 481.543 341.677, 484.998 343.215, 488.335 344.747, 491.514 344.991, 492.090 345.206, 492.803 345.391, 493.646 345.546, 494.613 345.671, 495.697 345.765, 496.893 345.829, 498.194 345.862, 499.594 345.864, 501.087 345.833, 502.669 345.770, 504.332 345.675, 506.072 345.069, 516.054 344.464, 526.035 343.858, 536.017 343.253, 545.999 342.647, 555.980 342.042, 565.962 341.436, 575.943 340.831, 585.925 340.225, 595.907 339.620, 605.888 339.014, 615.870 338.409, 625.852 337.803, 635.833 337.198, 645.815 336.592, 655.797 335.987, 665.778 335.382, 675.760 334.842, 684.655 334.554, 689.238 334.248, 693.770 333.915, 698.275 333.549, 702.777 333.141, 707.299 332.683, 711.867 332.166, 716.505 331.583, 721.242 330.925, 726.103 330.182, 731.118 329.345, 736.315 328.405, 741.726 328.168, 743.103 327.915, 744.557 327.654, 746.074 327.393, 747.642 327.143, 749.247 326.911, 750.875 326.706, 752.513 326.539, 754.146 326.417, 755.760 326.351, 757.341 326.348, 758.873 326.418, 760.342 326.526, 761.334 326.681, 762.101 326.881, 762.637 327.127, 762.932 327.415, 762.979 337.413, 763.195 347.410, 763.410 357.408, 763.626 367.406, 763.841 377.403, 764.056 387.401, 764.272 397.399, 764.487 407.397, 764.703 417.394, 764.918 427.392, 765.134 437.390, 765.349 447.387, 765.565 457.385, 765.780 467.383, 765.996 477.380, 766.211 487.378, 766.427 497.376, 766.642 507.373, 766.858 516.331, 767.051 516.423, 766.837 516.529, 766.360 516.649, 765.613 516.783, 764.588 516.930, 763.281 517.091, 761.685 517.264, 759.793 517.667, 755.139 518.067, 750.410 518.463, 745.628 518.857, 740.811 519.249, 735.981 519.638, 731.158 520.025, 726.361 520.410, 721.611 520.794, 716.926 521.176, 712.325 521.558, 707.828 521.938, 703.454 522.223, 700.263 522.499, 697.260 522.766, 694.414 523.026, 691.690 523.281, 689.057 523.532, 686.482 523.780, 683.935 524.027, 681.384 524.275, 678.800 524.523, 676.153 524.775, 673.414 525.030, 670.554 525.074, 669.997 525.119, 669.332 525.163, 668.575 525.206, 667.739 525.246, 666.840 525.284, 665.891 525.317, 664.908 525.345, 663.904 525.368, 662.895 525.384, 661.894 525.392, 660.914 525.392, 659.972 525.383, 658.823 525.368, 657.827 525.347, 656.980 525.321, 656.280 525.290, 655.724 525.253, 655.308 525.211, 655.030 525.164, 654.887 525.112, 654.876 523.884, 654.853 " />
            <path fill="none" stroke-width="3.0" stroke-linecap="butt" stroke-opacity="1.0" stroke="rgb(0, 0, 0)" stroke-linejoin="miter" d=" M 532.283, 309.835 532.242, 309.867 532.201, 310.002 532.161, 310.239 531.937, 311.936 531.697, 313.831 531.444, 315.888 531.181, 318.069 530.912, 320.335 530.638, 322.647 530.364, 324.963 530.093, 327.242 529.829, 329.442 529.575, 331.519 529.335, 333.428 529.112, 335.125 528.889, 336.737 528.639, 338.490 528.365, 340.361 528.072, 342.331 527.765, 344.376 527.448, 346.474 527.128, 348.601 526.809, 350.731 526.496, 352.838 526.195, 354.896 525.912, 356.875 525.654, 358.747 525.597, 359.213 525.546, 359.752 525.499, 360.362 525.456, 361.041 525.419, 361.788 525.387, 362.602 525.360, 363.481 525.339, 364.424 525.323, 365.430 525.313, 366.497 525.310, 367.623 525.312, 368.808 525.322, 370.269 525.339, 371.513 525.360, 372.555 525.388, 373.412 525.421, 374.101 525.460, 374.638 525.504, 375.039 525.518, 375.121 525.553, 375.321 525.608, 375.502 525.667, 375.596 525.732, 375.621 " />
            <path fill="none" stroke-width="3.0" stroke-linecap="butt" stroke-opacity="1.0" stroke="rgb(0, 0, 0)" stroke-linejoin="miter" d=" M 522.664, 382.947 522.610, 383.039 522.556, 383.245 522.505, 383.563 521.166, 393.473 520.642, 397.351 520.190, 400.668 519.744, 403.879 519.301, 407.022 518.858, 410.135 518.410, 413.256 517.953, 416.428 517.484, 419.692 516.998, 423.092 516.489, 426.674 515.955, 430.486 515.388, 434.576 514.785, 438.997 514.686, 439.788 514.588, 440.690 514.493, 441.693 514.402, 442.784 514.316, 443.953 514.239, 445.187 514.170, 446.474 514.113, 447.802 514.068, 449.157 514.055, 449.732 514.037, 450.528 514.021, 451.902 514.024, 453.265 514.049, 454.863 514.093, 456.152 514.154, 457.157 514.230, 457.904 514.316, 458.418 514.412, 458.724 514.514, 458.849 " />
            <path fill="none" stroke-width="3.0" stroke-linecap="butt" stroke-opacity="1.0" stroke="rgb(0, 0, 0)" stroke-linejoin="miter" d=" M 526.366, 375.132 526.588, 375.353 526.776, 375.914 526.931, 376.844 527.058, 378.172 527.161, 379.926 527.241, 382.138 527.302, 384.836 527.347, 388.050 527.380, 391.809 527.402, 396.141 527.442, 406.141 527.482, 416.141 527.522, 426.141 527.562, 436.141 527.602, 446.141 527.641, 456.140 527.681, 466.140 527.721, 476.140 527.761, 486.140 527.773, 489.107 527.775, 490.263 527.773, 491.334 527.766, 492.323 527.756, 493.231 527.742, 494.061 527.724, 494.815 527.703, 495.494 527.680, 496.101 527.654, 496.637 527.626, 497.104 527.596, 497.503 527.565, 497.837 527.528, 498.133 527.491, 498.319 527.453, 498.407 " />
            <path fill="none" stroke-width="3.0" stroke-linecap="butt" stroke-opacity="1.0" stroke="rgb(0, 0, 0)" stroke-linejoin="miter" d=" M 517.740, 449.786 518.102, 449.965 518.442, 450.466 518.765, 451.255 519.070, 452.296 519.361, 453.555 519.638, 454.998 520.059, 457.561 520.470, 460.410 520.873, 463.494 521.269, 466.767 521.660, 470.181 522.046, 473.689 522.428, 477.248 522.807, 480.813 523.184, 484.342 523.560, 487.792 523.936, 491.125 524.312, 494.299 524.371, 494.874 524.421, 495.588 524.461, 496.432 524.491, 497.400 524.509, 498.361 524.512, 498.487 524.523, 499.686 524.524, 500.991 524.516, 502.396 524.498, 503.896 524.471, 505.483 524.434, 507.154 524.387, 508.901 524.291, 512.274 524.007, 522.270 523.723, 532.266 523.439, 542.262 523.155, 552.258 522.872, 562.253 522.704, 568.141 522.584, 572.390 522.300, 582.386 522.016, 592.382 521.732, 602.378 521.448, 612.374 521.164, 622.370 520.880, 632.366 520.596, 642.362 520.417, 648.681 520.243, 654.783 520.130, 658.781 519.846, 668.777 519.562, 678.773 519.291, 688.309 519.157, 692.913 519.020, 697.467 518.875, 701.995 518.721, 706.519 518.556, 711.065 518.377, 715.657 518.181, 720.322 517.965, 725.085 517.728, 729.976 517.466, 735.021 517.176, 740.252 516.856, 745.698 516.775, 747.085 516.689, 748.548 516.600, 750.076 516.510, 751.654 516.423, 753.269 516.341, 754.907 516.265, 756.554 516.200, 758.197 516.148, 759.819 516.111, 761.407 516.091, 762.945 516.092, 764.418 516.110, 765.413 516.142, 766.181 516.190, 766.715 516.253, 767.008 516.331, 767.051 " />
            <path fill="none" stroke-width="3.0" stroke-linecap="butt" stroke-opacity="1.0" stroke="rgb(0, 0, 0)" stroke-linejoin="miter" d=" M 524.262, 658.861 524.169, 658.842 524.090, 658.611 524.023, 658.173 523.969, 657.534 523.927, 656.697 523.897, 655.670 523.884, 654.853 523.878, 654.458 523.875, 653.368 523.877, 652.196 523.885, 650.942 523.898, 649.607 523.909, 648.748 523.917, 648.188 523.940, 646.687 523.969, 645.103 524.003, 643.435 524.041, 641.684 524.085, 639.848 524.133, 637.928 524.185, 635.923 524.453, 625.927 524.721, 615.930 524.988, 605.934 525.256, 595.937 525.524, 585.941 525.791, 575.944 525.885, 572.447 525.999, 568.197 526.267, 558.201 526.534, 548.205 526.802, 538.208 527.070, 528.212 527.165, 524.636 527.208, 523.040 527.251, 521.559 527.293, 520.193 527.334, 518.940 527.375, 517.797 527.416, 516.765 527.456, 515.840 527.495, 515.023 527.534, 514.310 527.573, 513.701 527.611, 513.193 527.648, 512.786 527.679, 512.529 527.710, 512.375 527.739, 512.328 527.768, 512.393 527.794, 512.572 527.818, 512.871 527.841, 513.293 527.860, 513.843 527.877, 514.525 527.891, 515.343 527.901, 516.301 527.907, 517.404 527.933, 523.799 527.958, 530.154 527.982, 536.475 528.006, 542.768 528.029, 549.038 528.050, 555.291 528.070, 561.531 528.089, 567.766 528.090, 568.233 528.102, 572.485 528.106, 573.999 528.120, 580.237 528.133, 586.485 528.143, 592.749 528.146, 596.428 528.144, 599.762 528.132, 602.831 528.108, 605.714 528.068, 608.490 528.010, 611.238 527.930, 614.038 527.824, 616.969 527.689, 620.113 527.522, 623.552 527.319, 627.369 527.076, 631.652 527.015, 632.762 526.954, 633.884 526.894, 635.019 526.836, 636.170 526.782, 637.337 526.732, 638.521 526.688, 639.723 526.651, 640.944 526.621, 642.185 526.600, 643.446 526.589, 644.728 526.590, 646.032 526.600, 646.944 526.623, 647.664 526.656, 648.202 526.698, 648.565 526.748, 648.762 526.804, 648.802 526.865, 648.695 526.931, 648.448 526.999, 648.070 527.068, 647.571 527.137, 646.959 527.206, 646.243 527.525, 642.542 527.823, 638.975 528.101, 635.541 528.361, 632.239 528.606, 629.070 528.838, 626.035 529.057, 623.135 529.267, 620.371 529.469, 617.745 529.665, 615.261 529.856, 612.920 530.044, 610.727 530.232, 608.670 530.416, 606.805 530.599, 605.068 530.782, 603.396 530.971, 601.728 531.166, 600.002 531.372, 598.160 531.590, 596.142 531.824, 593.891 532.075, 591.350 532.348, 588.466 532.643, 585.184 532.697, 584.493 532.753, 583.653 532.809, 582.690 532.864, 581.631 532.916, 580.501 532.965, 579.326 533.010, 578.131 533.049, 576.942 533.080, 575.784 533.104, 574.682 533.118, 573.662 533.122, 572.749 533.116, 571.688 533.104, 570.778 533.086, 570.015 533.061, 569.396 533.031, 568.919 532.995, 568.582 532.952, 568.382 532.905, 568.316 531.604, 568.294 " />
            <path fill="none" stroke-width="3.0" stroke-linecap="butt" stroke-opacity="1.0" stroke="rgb(0, 0, 0)" stroke-linejoin="miter" d=" M 532.905, 568.316 532.851, 568.382 532.792, 568.579 532.728, 568.903 532.658, 569.352 532.443, 570.752 532.255, 571.763 532.093, 572.369 531.956, 572.552 " />
            <path fill="none" stroke-width="3.0" stroke-linecap="butt" stroke-opacity="1.0" stroke="rgb(0, 0, 0)" stroke-linejoin="miter" d=" M 525.112, 654.876 525.056, 654.995 524.995, 655.240 524.929, 655.608 524.767, 656.719 524.620, 657.595 524.487, 658.242 524.367, 658.662 524.262, 658.861 " />
            <path fill="none" stroke-width="3.0" stroke-linecap="butt" stroke-opacity="1.0" stroke="rgb(0, 0, 0)" stroke-linejoin="miter" d=" M 523.909, 648.748 526.804, 648.802 " />
        </g>
    </g>
</svg>
