<?xml version='1.0' encoding='ascii'?>
<svg xmlns="http://www.w3.org/2000/svg" version="1.1" width="1080" height="1080">
    <g id="View Layer_LineSet" xmlns:inkscape="http://www.inkscape.org/namespaces/inkscape" inkscape:groupmode="lineset" inkscape:label="View Layer_LineSet">
        <g xmlns:inkscape="http://www.inkscape.org/namespaces/inkscape" inkscape:groupmode="layer" id="strokes" inkscape:label="strokes">
            <path fill="none" stroke-width="3.0" stroke-linecap="butt" stroke-opacity="1.0" stroke="rgb(0, 0, 0)" stroke-linejoin="miter" d=" M 366.022, 310.161 365.650, 311.857 365.255, 313.752 364.841, 315.809 364.414, 317.989 363.976, 320.255 363.533, 322.566 363.089, 324.882 362.650, 327.161 362.221, 329.361 361.806, 331.437 361.411, 333.346 361.041, 335.042 360.668, 336.654 360.244, 338.406 359.778, 340.278 359.279, 342.247 358.755, 344.292 358.215, 346.389 357.668, 348.515 357.123, 350.645 356.591, 352.752 356.081, 354.809 355.603, 356.787 355.168, 358.659 355.077, 359.126 354.998, 359.664 354.932, 360.274 354.879, 360.952 354.840, 361.699 354.814, 362.513 354.803, 363.392 354.805, 364.336 354.823, 365.341 354.855, 366.408 354.902, 367.534 354.965, 368.718 355.057, 370.180 355.150, 371.424 355.245, 372.465 355.343, 373.322 355.444, 374.011 355.549, 374.548 355.658, 374.949 355.772, 375.232 355.891, 375.412 356.017, 375.506 356.149, 375.531 358.053, 375.509 366.810, 375.406 376.809, 375.288 386.809, 375.170 396.808, 375.053 406.807, 374.935 416.807, 374.817 426.806, 374.700 436.805, 374.582 446.805, 374.464 456.804, 374.347 466.803, 374.229 476.802, 374.111 486.802, 373.994 496.801, 373.876 506.800, 373.758 516.800, 373.641 526.799, 373.523 534.344, 373.434 537.316, 373.399 537.963, 373.392 538.007, 373.365 538.047, 373.269 538.084, 373.087 538.117, 372.804 538.146, 372.402 538.171, 371.866 538.191, 371.179 538.207, 370.324 538.218, 369.284 538.225, 368.044 538.226, 366.587 538.223, 365.407 538.217, 364.284 538.206, 363.221 538.192, 362.219 538.173, 361.280 538.152, 360.404 538.126, 359.594 538.098, 358.850 538.066, 358.175 538.032, 357.569 537.994, 357.034 537.954, 356.570 537.768, 354.713 537.566, 352.749 537.352, 350.708 537.129, 348.617 536.901, 346.504 536.672, 344.394 536.447, 342.313 536.228, 340.284 536.018, 338.329 535.823, 336.472 535.644, 334.732 535.484, 333.132 535.325, 331.448 535.152, 329.552 534.969, 327.489 534.779, 325.304 534.584, 323.039 534.387, 320.738 534.190, 318.442 533.995, 316.191 533.806, 314.024 533.624, 311.981 533.452, 310.098 533.291, 308.414 533.263, 308.178 533.234, 308.045 533.206, 308.014 523.206, 308.118 513.207, 308.223 503.207, 308.327 493.208, 308.432 483.209, 308.536 473.209, 308.640 463.210, 308.745 453.210, 308.849 443.211, 308.953 433.211, 309.058 423.212, 309.162 413.212, 309.267 403.213, 309.371 393.213, 309.475 383.214, 309.580 373.215, 309.684 366.249, 309.757 366.168, 309.789 366.091, 309.924 366.022, 310.161 " />
            <path fill="none" stroke-width="3.0" stroke-linecap="butt" stroke-opacity="1.0" stroke="rgb(0, 0, 0)" stroke-linejoin="miter" d=" M 337.003, 438.893 336.841, 439.683 336.686, 440.585 336.542, 441.588 336.410, 442.679 336.294, 443.848 336.196, 445.082 336.120, 446.368 336.068, 447.696 336.042, 449.051 336.046, 450.422 336.082, 451.795 336.152, 453.159 336.281, 454.756 336.435, 456.044 336.608, 457.049 336.797, 457.796 336.998, 458.310 337.207, 458.617 337.420, 458.742 347.419, 458.608 349.003, 458.586 356.261, 458.489 364.079, 458.384 371.323, 458.286 381.322, 458.152 391.321, 458.017 401.320, 457.883 411.319, 457.748 421.318, 457.614 431.317, 457.479 441.316, 457.345 451.315, 457.211 461.315, 457.076 471.314, 456.942 481.313, 456.807 491.312, 456.673 501.311, 456.538 511.310, 456.404 521.309, 456.269 531.308, 456.135 534.491, 456.092 536.950, 456.059 539.603, 456.023 542.065, 455.990 545.992, 455.938 546.061, 455.809 546.126, 455.500 546.184, 454.985 546.233, 454.238 546.271, 453.234 546.297, 451.949 546.308, 450.356 546.304, 448.998 546.289, 447.630 546.262, 446.266 546.226, 444.917 546.182, 443.596 546.130, 442.317 546.072, 441.090 546.009, 439.929 545.942, 438.844 545.873, 437.849 545.802, 436.954 545.731, 436.170 545.300, 431.787 544.895, 427.732 544.513, 423.954 544.150, 420.403 543.803, 417.032 543.468, 413.796 543.142, 410.652 542.822, 407.557 542.505, 404.470 542.189, 401.354 541.870, 398.169 541.547, 394.880 540.577, 384.927 540.214, 381.202 540.177, 380.886 540.140, 380.682 540.102, 380.593 536.940, 380.631 534.357, 380.661 524.358, 380.781 514.359, 380.900 504.359, 381.019 494.360, 381.138 484.361, 381.257 474.362, 381.376 464.362, 381.495 454.363, 381.615 444.364, 381.734 434.364, 381.853 424.365, 381.972 414.366, 382.091 404.367, 382.210 394.367, 382.329 384.368, 382.449 374.369, 382.568 367.205, 382.653 359.596, 382.744 350.274, 382.855 350.169, 382.946 350.071, 383.152 349.982, 383.471 347.780, 393.225 346.871, 397.256 346.114, 400.571 345.365, 403.782 344.619, 406.924 343.870, 410.036 343.112, 413.157 342.340, 416.329 341.545, 419.592 340.723, 422.991 339.865, 426.573 338.965, 430.383 338.014, 434.472 337.003, 438.893 " />
            <path fill="none" stroke-width="3.0" stroke-linecap="butt" stroke-opacity="1.0" stroke="rgb(0, 0, 0)" stroke-linejoin="miter" d=" M 358.053, 375.509 358.283, 375.825 358.644, 376.755 358.967, 378.082 359.260, 379.837 359.530, 382.048 359.596, 382.744 " />
            <path fill="none" stroke-width="3.0" stroke-linecap="butt" stroke-opacity="1.0" stroke="rgb(0, 0, 0)" stroke-linejoin="miter" d=" M 349.003, 458.586 349.591, 460.306 350.560, 463.391 351.524, 466.663 352.483, 470.076 353.437, 473.585 354.386, 477.143 355.329, 480.708 356.267, 484.237 357.199, 487.687 358.124, 491.019 359.043, 494.193 359.191, 494.769 359.326, 495.482 359.448, 496.326 359.557, 497.295 359.652, 498.381 359.733, 499.580 359.800, 500.885 359.852, 502.290 359.889, 503.789 359.910, 505.377 359.916, 507.047 359.906, 508.794 359.816, 518.794 359.726, 528.793 359.636, 538.793 359.546, 548.792 359.456, 558.792 359.366, 568.792 359.276, 578.791 359.186, 588.791 359.096, 598.790 359.006, 608.790 358.916, 618.790 358.826, 628.789 358.736, 638.789 358.646, 648.788 358.556, 658.788 358.466, 668.788 358.376, 678.787 358.292, 688.177 358.245, 692.781 358.187, 697.335 358.113, 701.862 358.022, 706.386 357.907, 710.931 357.766, 715.522 357.595, 720.186 357.390, 724.949 357.146, 729.839 356.860, 734.883 356.526, 740.113 356.141, 745.559 356.045, 746.945 355.941, 748.408 355.834, 749.935 355.729, 751.513 355.630, 753.128 355.542, 754.766 355.470, 756.413 355.418, 758.055 355.390, 759.678 355.392, 761.265 355.427, 762.803 355.502, 764.276 355.585, 765.271 355.689, 766.039 355.812, 766.573 355.954, 766.865 356.114, 766.909 366.112, 766.712 376.110, 766.515 386.108, 766.318 396.106, 766.121 406.104, 765.924 416.102, 765.727 426.100, 765.531 436.098, 765.334 446.096, 765.137 456.094, 764.940 466.092, 764.743 476.090, 764.546 486.088, 764.350 496.086, 764.153 506.084, 763.956 516.083, 763.759 526.081, 763.562 536.079, 763.365 545.893, 763.172 545.946, 763.125 545.988, 762.830 546.019, 762.295 546.039, 761.527 546.047, 760.535 546.042, 759.066 546.023, 757.534 545.991, 755.953 545.949, 754.338 545.898, 752.705 545.840, 751.066 545.778, 749.437 545.711, 747.832 545.644, 746.264 545.577, 744.746 545.512, 743.291 545.451, 741.913 545.211, 736.500 544.992, 731.301 544.793, 726.285 544.611, 721.422 544.445, 716.684 544.293, 712.044 544.153, 707.475 544.022, 702.951 543.899, 698.448 543.783, 693.942 543.671, 689.408 543.562, 684.825 543.328, 674.827 543.094, 664.830 542.861, 654.833 542.627, 644.836 542.393, 634.838 542.159, 624.841 541.926, 614.844 541.692, 604.846 541.458, 594.849 541.224, 584.852 540.991, 574.855 540.757, 564.857 540.523, 554.860 540.289, 544.863 540.056, 534.866 539.822, 524.868 539.588, 514.871 539.385, 506.198 539.346, 504.457 539.315, 502.794 539.290, 501.212 539.272, 499.718 539.261, 498.318 539.258, 497.017 539.261, 495.821 539.271, 494.737 539.288, 493.770 539.312, 492.927 539.344, 492.214 539.382, 491.638 539.630, 488.459 539.876, 485.123 540.122, 481.668 540.368, 478.137 540.616, 474.569 540.866, 471.007 541.118, 467.496 541.374, 464.079 541.635, 460.802 541.901, 457.713 542.065, 455.990 " />
            <path fill="none" stroke-width="3.0" stroke-linecap="butt" stroke-opacity="1.0" stroke="rgb(0, 0, 0)" stroke-linejoin="miter" d=" M 536.940, 380.631 536.948, 379.937 536.995, 377.730 537.059, 375.977 537.141, 374.650 537.245, 373.718 537.316, 373.399 " />
        </g>
    </g>
</svg>
