<?xml version='1.0' encoding='ascii'?>
<svg xmlns="http://www.w3.org/2000/svg" version="1.1" width="1080" height="1080">
    <g id="View Layer_LineSet" xmlns:inkscape="http://www.inkscape.org/namespaces/inkscape" inkscape:groupmode="lineset" inkscape:label="View Layer_LineSet">
        <g xmlns:inkscape="http://www.inkscape.org/namespaces/inkscape" inkscape:groupmode="layer" id="strokes" inkscape:label="strokes">
            <path fill="none" stroke-width="3.0" stroke-linecap="butt" stroke-opacity="1.0" stroke="rgb(0, 0, 0)" stroke-linejoin="miter" d=" M 366.406, 311.044 366.221, 312.742 366.027, 314.640 365.825, 316.700 365.617, 318.884 365.405, 321.154 365.191, 323.468 364.977, 325.788 364.764, 328.071 364.556, 330.274 364.353, 332.354 364.159, 334.266 363.976, 335.965 363.788, 337.579 363.573, 339.334 363.336, 341.209 363.081, 343.181 362.813, 345.230 362.537, 347.331 362.257, 349.460 361.978, 351.593 361.706, 353.704 361.446, 355.764 361.204, 357.746 360.986, 359.620 360.942, 360.088 360.906, 360.627 360.880, 361.238 360.863, 361.918 360.856, 362.666 360.858, 363.481 360.871, 364.361 360.893, 365.306 360.925, 366.313 360.967, 367.381 361.019, 368.509 361.082, 369.695 361.169, 371.158 361.251, 372.404 361.331, 373.447 361.407, 374.305 361.482, 374.995 361.557, 375.532 361.630, 375.934 361.704, 376.217 361.779, 376.397 361.856, 376.491 361.935, 376.516 363.069, 376.489 368.286, 376.366 378.283, 376.129 388.280, 375.892 398.278, 375.655 408.275, 375.418 418.272, 375.181 428.269, 374.944 438.266, 374.707 448.263, 374.470 458.261, 374.233 468.258, 373.996 478.255, 373.759 488.252, 373.522 498.249, 373.285 508.247, 373.049 518.244, 372.812 528.241, 372.575 535.815, 372.395 542.293, 372.242 543.699, 372.208 543.796, 372.179 543.885, 372.082 543.965, 371.899 544.038, 371.615 544.102, 371.213 544.157, 370.676 544.203, 369.989 544.239, 369.135 544.266, 368.097 544.284, 366.858 544.291, 365.403 544.288, 364.225 544.276, 363.105 544.256, 362.044 544.227, 361.044 544.189, 360.107 544.144, 359.234 544.092, 358.426 544.031, 357.685 543.964, 357.012 543.890, 356.409 543.810, 355.876 543.723, 355.415 543.324, 353.569 542.889, 351.617 542.427, 349.588 541.946, 347.510 541.455, 345.410 540.962, 343.313 540.476, 341.245 540.004, 339.228 539.553, 337.285 539.131, 335.439 538.745, 333.709 538.402, 332.118 538.058, 330.443 537.687, 328.557 537.294, 326.504 536.885, 324.330 536.466, 322.077 536.041, 319.787 535.618, 317.502 535.200, 315.262 534.793, 313.106 534.402, 311.073 534.031, 309.200 533.685, 307.524 533.624, 307.290 533.562, 307.157 533.500, 307.128 523.502, 307.338 513.504, 307.548 503.507, 307.759 493.509, 307.969 483.511, 308.179 473.513, 308.389 463.515, 308.599 453.518, 308.810 443.520, 309.020 433.522, 309.230 423.524, 309.440 413.527, 309.650 403.529, 309.861 393.531, 310.071 383.533, 310.281 373.535, 310.491 366.533, 310.638 366.485, 310.670 366.442, 310.806 366.406, 311.044 " />
            <path fill="none" stroke-width="3.0" stroke-linecap="butt" stroke-opacity="1.0" stroke="rgb(0, 0, 0)" stroke-linejoin="miter" d=" M 351.895, 439.985 351.815, 440.776 351.742, 441.679 351.678, 442.683 351.623, 443.777 351.579, 444.947 351.547, 446.183 351.530, 447.471 351.527, 448.801 351.541, 450.158 351.573, 451.531 351.624, 452.906 351.696, 454.271 351.807, 455.870 351.927, 457.161 352.051, 458.167 352.180, 458.914 352.311, 459.429 352.442, 459.736 352.572, 459.861 359.468, 459.674 363.791, 459.557 368.451, 459.431 372.765, 459.314 382.761, 459.043 392.758, 458.773 402.754, 458.502 412.750, 458.231 422.747, 457.961 432.743, 457.690 442.739, 457.419 452.736, 457.148 462.732, 456.878 472.728, 456.607 482.725, 456.336 492.721, 456.065 502.717, 455.795 512.714, 455.524 522.710, 455.253 532.706, 454.983 535.923, 454.895 541.282, 454.750 547.066, 454.594 552.428, 454.448 560.971, 454.217 561.123, 454.085 561.264, 453.774 561.391, 453.257 561.499, 452.509 561.585, 451.506 561.645, 450.222 561.673, 448.632 561.669, 447.277 561.638, 445.913 561.584, 444.552 561.509, 443.208 561.416, 441.893 561.306, 440.619 561.183, 439.398 561.049, 438.242 560.907, 437.163 560.759, 436.173 560.607, 435.283 560.455, 434.505 559.527, 430.152 558.656, 426.126 557.834, 422.374 557.053, 418.848 556.306, 415.500 555.585, 412.287 554.883, 409.164 554.195, 406.090 553.514, 403.025 552.833, 399.929 552.147, 396.765 551.451, 393.497 549.386, 383.712 548.583, 379.905 548.504, 379.591 548.423, 379.389 548.341, 379.302 541.453, 379.467 535.824, 379.602 525.827, 379.842 515.830, 380.082 505.833, 380.322 495.836, 380.562 485.838, 380.802 475.841, 381.042 465.844, 381.282 455.847, 381.521 445.850, 381.761 435.853, 382.001 425.856, 382.241 415.859, 382.481 405.861, 382.721 395.864, 382.961 385.867, 383.201 375.870, 383.441 368.677, 383.613 364.145, 383.722 358.592, 383.855 358.532, 383.947 358.478, 384.153 358.431, 384.472 357.311, 394.409 356.875, 398.280 356.496, 401.601 356.119, 404.817 355.742, 407.964 355.363, 411.081 354.979, 414.207 354.587, 417.384 354.184, 420.652 353.768, 424.057 353.334, 427.644 352.879, 431.461 352.401, 435.557 351.895, 439.985 " />
            <path fill="none" stroke-width="3.0" stroke-linecap="butt" stroke-opacity="1.0" stroke="rgb(0, 0, 0)" stroke-linejoin="miter" d=" M 363.069, 376.489 363.214, 376.809 363.449, 377.740 363.670, 379.068 363.883, 380.825 364.092, 383.040 364.145, 383.722 " />
            <path fill="none" stroke-width="3.0" stroke-linecap="butt" stroke-opacity="1.0" stroke="rgb(0, 0, 0)" stroke-linejoin="miter" d=" M 359.468, 459.674 359.860, 461.416 360.504, 464.503 361.150, 467.779 361.795, 471.196 362.440, 474.708 363.082, 478.271 363.721, 481.840 364.357, 485.372 364.986, 488.826 365.610, 492.162 366.226, 495.339 366.327, 495.915 366.423, 496.629 366.514, 497.474 366.600, 498.444 366.680, 499.532 366.754, 500.732 366.822, 502.039 366.883, 503.446 366.938, 504.947 366.985, 506.536 367.025, 508.209 367.056, 509.958 367.219, 519.957 367.381, 529.955 367.543, 539.954 367.706, 549.953 367.868, 559.951 368.030, 569.950 368.193, 579.949 368.355, 589.948 368.517, 599.946 368.680, 609.945 368.842, 619.944 369.005, 629.942 369.167, 639.941 369.329, 649.940 369.492, 659.938 369.654, 669.937 369.816, 679.936 369.973, 689.563 370.044, 694.173 370.108, 698.732 370.162, 703.264 370.205, 707.793 370.235, 712.343 370.251, 716.940 370.250, 721.609 370.230, 726.378 370.191, 731.273 370.129, 736.324 370.043, 741.560 369.932, 747.012 369.904, 748.400 369.874, 749.865 369.843, 751.394 369.815, 752.974 369.791, 754.590 369.774, 756.230 369.766, 757.879 369.771, 759.523 369.789, 761.147 369.825, 762.737 369.879, 764.276 369.955, 765.751 370.026, 766.746 370.105, 767.515 370.190, 768.050 370.281, 768.342 370.377, 768.385 380.369, 767.989 390.361, 767.592 400.353, 767.196 410.345, 766.800 420.337, 766.404 430.330, 766.007 440.322, 765.611 450.314, 765.215 460.306, 764.818 470.298, 764.422 480.290, 764.026 490.282, 763.629 500.275, 763.233 510.267, 762.837 520.259, 762.441 530.251, 762.044 540.243, 761.648 550.235, 761.252 559.974, 760.865 560.090, 760.814 560.183, 760.517 560.252, 759.980 560.296, 759.213 560.316, 758.221 560.310, 756.756 560.272, 755.227 560.208, 753.651 560.120, 752.043 560.013, 750.416 559.892, 748.784 559.759, 747.163 559.619, 745.565 559.476, 744.004 559.334, 742.494 559.197, 741.046 559.068, 739.675 558.558, 734.289 558.095, 729.114 557.674, 724.121 557.292, 719.279 556.942, 714.560 556.623, 709.939 556.328, 705.387 556.055, 700.880 555.800, 696.393 555.558, 691.902 555.326, 687.384 555.100, 682.815 554.615, 672.827 554.131, 662.838 553.646, 652.850 553.161, 642.862 552.677, 632.874 552.192, 622.885 551.708, 612.897 551.223, 602.909 550.738, 592.921 550.254, 582.932 549.769, 572.944 549.285, 562.956 548.800, 552.968 548.315, 542.979 547.831, 532.991 547.346, 523.003 546.861, 513.015 546.460, 504.731 546.379, 502.995 546.314, 501.336 546.264, 499.758 546.230, 498.267 546.210, 496.870 546.205, 495.571 546.215, 494.377 546.240, 493.294 546.280, 492.328 546.335, 491.485 546.405, 490.771 546.490, 490.194 547.037, 487.007 547.582, 483.663 548.127, 480.202 548.673, 476.663 549.221, 473.088 549.774, 469.520 550.332, 466.001 550.898, 462.577 551.474, 459.294 552.061, 456.196 552.428, 454.448 " />
            <path fill="none" stroke-width="3.0" stroke-linecap="butt" stroke-opacity="1.0" stroke="rgb(0, 0, 0)" stroke-linejoin="miter" d=" M 541.453, 379.467 541.472, 378.788 541.580, 376.582 541.723, 374.830 541.907, 373.501 542.135, 372.566 542.293, 372.242 " />
        </g>
    </g>
</svg>
