<?xml version='1.0' encoding='ascii'?>
<svg xmlns="http://www.w3.org/2000/svg" version="1.1" width="1080" height="1080">
    <g id="View Layer_LineSet" xmlns:inkscape="http://www.inkscape.org/namespaces/inkscape" inkscape:groupmode="lineset" inkscape:label="View Layer_LineSet">
        <g xmlns:inkscape="http://www.inkscape.org/namespaces/inkscape" inkscape:groupmode="layer" id="strokes" inkscape:label="strokes">
            <path fill="none" stroke-width="3.0" stroke-linecap="butt" stroke-opacity="1.0" stroke="rgb(0, 0, 0)" stroke-linejoin="miter" d=" M 373.265, 377.748 373.373, 377.832 373.513, 378.198 373.542, 378.224 373.566, 378.198 373.585, 378.102 373.596, 377.919 373.599, 377.733 373.601, 377.635 373.596, 377.231 373.582, 376.691 373.558, 375.999 373.522, 375.139 373.474, 374.092 373.413, 372.844 373.338, 371.377 373.274, 370.188 373.212, 369.058 373.150, 367.987 373.089, 366.978 373.029, 366.032 372.971, 365.150 372.914, 364.334 372.859, 363.585 372.805, 362.905 372.753, 362.294 372.704, 361.755 372.656, 361.288 372.452, 359.415 372.233, 357.435 372.002, 355.377 371.764, 353.270 371.522, 351.139 371.279, 349.012 371.040, 346.913 370.807, 344.867 370.584, 342.897 370.374, 341.024 370.180, 339.271 370.004, 337.657 369.824, 335.959 369.625, 334.048 369.411, 331.969 369.187, 329.766 368.956, 327.484 368.722, 325.164 368.488, 322.850 368.258, 320.580 368.035, 318.396 367.823, 316.337 367.625, 314.439 367.444, 312.741 367.416, 312.503 367.392, 312.368 367.374, 312.337 367.362, 312.411 367.356, 312.590 367.357, 312.877 367.365, 313.271 367.381, 313.775 367.404, 314.389 367.436, 315.114 367.476, 315.952 367.525, 316.905 367.596, 318.225 367.667, 319.494 367.738, 320.713 367.807, 321.882 367.877, 323.002 367.946, 324.074 368.014, 325.100 368.082, 326.079 368.149, 327.013 368.215, 327.903 368.281, 328.748 368.347, 329.550 368.615, 332.754 368.862, 335.789 369.092, 338.711 369.309, 341.580 369.515, 344.454 369.716, 347.393 369.914, 350.456 370.114, 353.703 370.319, 357.193 370.533, 360.985 370.761, 365.139 371.006, 369.711 371.536, 379.697 372.065, 389.683 372.595, 399.669 373.124, 409.655 373.654, 419.641 374.183, 429.627 374.713, 439.612 375.243, 449.598 375.772, 459.584 376.302, 469.570 376.831, 479.556 377.361, 489.542 377.891, 499.528 378.420, 509.514 378.950, 519.500 379.479, 529.486 380.009, 539.472 380.538, 549.458 381.114, 560.305 381.312, 564.072 381.477, 567.292 381.610, 569.981 381.691, 571.740 381.710, 572.155 381.777, 573.827 381.812, 575.014 381.813, 575.730 381.782, 575.991 " />
            <path fill="none" stroke-width="3.0" stroke-linecap="butt" stroke-opacity="1.0" stroke="rgb(0, 0, 0)" stroke-linejoin="miter" d=" M 380.730, 452.427 380.891, 452.598 381.083, 453.167 381.310, 454.173 381.574, 455.658 381.878, 457.663 382.226, 460.232 382.286, 460.633 382.345, 460.978 382.401, 461.243 382.452, 461.402 382.496, 461.430 382.529, 461.302 382.550, 460.991 382.557, 460.474 382.546, 459.723 382.515, 458.713 382.463, 457.419 382.386, 455.817 382.313, 454.450 382.232, 453.072 382.187, 452.350 382.146, 451.698 382.054, 450.340 381.960, 449.010 381.863, 447.722 381.765, 446.486 381.668, 445.316 381.573, 444.224 381.481, 443.220 381.393, 442.318 381.311, 441.529 380.833, 437.110 380.387, 433.023 379.969, 429.214 379.573, 425.634 379.196, 422.236 378.834, 418.974 378.481, 415.804 378.134, 412.684 377.790, 409.573 377.444, 406.431 377.094, 403.220 376.735, 399.904 375.664, 389.962 375.250, 386.116 375.212, 385.798 375.180, 385.592 375.153, 385.502 375.134, 385.529 375.121, 385.677 375.116, 385.946 375.120, 386.340 375.132, 386.860 375.153, 387.510 375.184, 388.291 375.226, 389.207 375.279, 390.258 375.357, 391.728 375.435, 393.148 375.514, 394.519 375.592, 395.843 375.672, 397.119 375.751, 398.350 375.831, 399.535 375.911, 400.676 375.991, 401.773 376.071, 402.827 376.151, 403.839 376.232, 404.808 376.430, 407.148 376.620, 409.451 376.802, 411.712 376.974, 413.930 377.137, 416.101 377.291, 418.224 377.436, 420.294 377.570, 422.311 377.696, 424.271 377.811, 426.171 377.916, 428.010 378.011, 429.786 378.067, 430.883 378.116, 431.938 378.161, 432.956 378.200, 433.942 378.236, 434.900 378.268, 435.835 378.296, 436.754 378.322, 437.660 378.345, 438.559 378.367, 439.456 378.387, 440.356 378.406, 441.263 378.608, 451.261 378.811, 461.259 379.014, 471.257 379.216, 481.255 379.419, 491.253 379.579, 499.169 379.578, 499.595 379.577, 499.999 379.577, 500.372 379.575, 500.704 379.572, 500.989 379.567, 501.216 379.559, 501.378 379.548, 501.466 379.533, 501.471 " />
            <path fill="none" stroke-width="3.0" stroke-linecap="butt" stroke-opacity="1.0" stroke="rgb(0, 0, 0)" stroke-linejoin="miter" d=" M 379.533, 501.471 379.513, 501.385 379.489, 501.198 379.458, 500.903 379.427, 500.569 379.394, 500.169 379.357, 499.702 379.318, 499.165 379.276, 498.557 379.231, 497.876 379.183, 497.120 379.132, 496.287 379.079, 495.376 379.022, 494.384 378.963, 493.310 378.901, 492.150 378.376, 482.164 377.851, 472.178 377.326, 462.192 376.801, 452.205 376.276, 442.219 375.751, 432.233 375.226, 422.247 374.701, 412.261 374.176, 402.274 373.997, 398.858 373.770, 394.510 373.579, 390.737 373.422, 387.510 373.300, 384.801 373.211, 382.579 373.156, 380.816 373.134, 379.480 373.145, 378.544 373.189, 377.976 373.265, 377.748 " />
            <path fill="none" stroke-width="3.0" stroke-linecap="butt" stroke-opacity="1.0" stroke="rgb(0, 0, 0)" stroke-linejoin="miter" d=" M 389.440, 658.290 388.955, 658.323 388.935, 658.336 388.924, 658.481 388.923, 658.761 388.931, 659.179 388.949, 659.738 388.977, 660.441 389.014, 661.291 389.063, 662.290 389.121, 663.442 389.173, 664.387 389.229, 665.369 389.290, 666.372 389.353, 667.384 389.419, 668.389 389.485, 669.373 389.552, 670.323 389.616, 671.223 389.679, 672.059 389.737, 672.817 389.791, 673.482 389.839, 674.039 390.095, 676.897 390.343, 679.634 390.584, 682.279 390.822, 684.860 391.058, 687.408 391.294, 689.953 391.533, 692.525 391.777, 695.155 392.027, 697.876 392.287, 700.719 392.559, 703.718 392.844, 706.906 393.232, 711.277 393.626, 715.769 394.027, 720.366 394.432, 725.047 394.842, 729.793 395.255, 734.586 395.670, 739.404 396.086, 744.229 396.503, 749.040 396.919, 753.817 397.333, 758.540 397.744, 763.187 397.915, 765.075 398.065, 766.669 398.194, 767.973 398.302, 768.993 398.390, 769.738 398.458, 770.211 398.506, 770.422 398.534, 770.375 398.543, 770.080 398.533, 769.543 398.504, 768.772 398.457, 767.775 398.377, 766.299 398.286, 764.758 398.185, 763.169 398.077, 761.545 397.962, 759.903 397.843, 758.255 397.722, 756.617 397.600, 755.002 397.479, 753.424 397.361, 751.897 397.247, 750.434 397.140, 749.048 396.719, 743.603 396.321, 738.373 395.944, 733.327 395.585, 728.436 395.241, 723.670 394.911, 719.003 394.591, 714.408 394.279, 709.858 393.973, 705.330 393.670, 700.797 393.369, 696.238 393.066, 691.628 392.414, 681.649 391.761, 671.670 391.140, 662.174 390.880, 658.190 390.483, 652.119 389.830, 642.140 389.178, 632.161 388.525, 622.183 387.873, 612.204 387.220, 602.225 386.568, 592.247 385.915, 582.268 385.490, 575.758 385.212, 571.519 384.560, 561.541 383.907, 551.562 383.255, 541.583 382.602, 531.605 381.950, 521.626 381.541, 515.367 381.315, 511.909 381.201, 510.158 381.096, 508.483 380.999, 506.891 380.910, 505.388 380.831, 503.979 380.760, 502.670 380.700, 501.467 380.697, 501.405 380.649, 500.376 380.608, 499.403 380.578, 498.555 380.559, 497.839 380.551, 497.259 380.527, 494.065 380.495, 490.711 380.456, 487.239 380.413, 483.689 380.369, 480.102 380.327, 476.522 380.289, 472.992 380.258, 469.557 380.237, 466.263 380.228, 463.158 380.236, 460.289 380.263, 457.707 380.294, 456.252 380.340, 454.982 380.405, 453.929 380.489, 453.129 380.597, 452.617 380.730, 452.427 " />
            <path fill="none" stroke-width="3.0" stroke-linecap="butt" stroke-opacity="1.0" stroke="rgb(0, 0, 0)" stroke-linejoin="miter" d=" M 381.691, 571.740 381.177, 571.772 381.161, 571.839 381.156, 572.042 381.160, 572.381 381.174, 572.860 381.198, 573.482 381.232, 574.248 381.276, 575.162 381.332, 576.226 381.383, 577.142 381.444, 578.165 381.513, 579.270 381.589, 580.430 381.668, 581.622 381.751, 582.819 381.834, 583.997 381.916, 585.129 381.996, 586.189 382.070, 587.153 382.138, 587.994 382.197, 588.686 382.492, 591.968 382.756, 594.853 382.993, 597.393 383.208, 599.643 383.404, 601.660 383.585, 603.501 383.756, 605.225 383.921, 606.892 384.084, 608.563 384.251, 610.300 384.425, 612.164 384.611, 614.220 384.804, 616.414 385.007, 618.755 385.219, 621.240 385.441, 623.866 385.674, 626.631 385.918, 629.533 386.175, 632.569 386.443, 635.738 386.726, 639.040 387.022, 642.474 387.333, 646.041 387.660, 649.741 387.726, 650.457 387.787, 651.068 387.841, 651.566 387.888, 651.942 387.928, 652.187 387.958, 652.293 387.978, 652.251 387.987, 652.051 387.983, 651.686 387.967, 651.146 387.937, 650.422 387.892, 649.507 387.821, 648.200 387.747, 646.915 387.670, 645.651 387.591, 644.408 387.510, 643.185 387.428, 641.981 387.344, 640.795 387.259, 639.627 387.174, 638.475 387.088, 637.338 387.003, 636.216 386.919, 635.105 386.590, 630.819 386.303, 626.997 386.050, 623.554 385.826, 620.406 385.625, 617.470 385.442, 614.665 385.269, 611.911 385.103, 609.128 384.937, 606.237 384.766, 603.160 384.583, 599.816 384.385, 596.127 384.049, 589.844 383.714, 583.576 383.381, 577.319 383.306, 575.895 383.081, 571.653 383.049, 571.066 382.718, 564.812 382.387, 558.552 382.056, 552.280 381.724, 545.989 381.392, 539.676 381.058, 533.334 380.723, 526.958 380.386, 520.543 380.328, 519.436 380.280, 518.475 380.241, 517.654 380.211, 516.969 380.189, 516.417 380.174, 515.992 380.168, 515.692 380.169, 515.511 380.176, 515.446 380.190, 515.492 380.211, 515.646 380.237, 515.902 380.274, 516.310 380.317, 516.818 380.365, 517.428 380.419, 518.142 380.479, 518.961 380.545, 519.887 380.617, 520.921 380.695, 522.066 380.780, 523.322 380.871, 524.692 380.968, 526.176 381.072, 527.776 381.718, 537.755 382.364, 547.734 383.010, 557.713 383.656, 567.692 383.909, 571.601 384.184, 575.840 384.830, 585.819 385.476, 595.798 386.122, 605.777 386.768, 615.756 387.414, 625.735 388.061, 635.714 388.292, 639.288 388.421, 641.296 388.545, 643.219 388.661, 645.058 388.772, 646.813 388.876, 648.484 388.973, 650.072 389.064, 651.576 389.102, 652.214 389.148, 652.997 389.226, 654.336 389.297, 655.592 389.362, 656.767 389.420, 657.861 389.440, 658.290 389.478, 659.076 389.522, 660.107 389.550, 660.947 389.564, 661.591 389.561, 662.032 389.543, 662.266 389.507, 662.288 " />
            <path fill="none" stroke-width="3.0" stroke-linecap="butt" stroke-opacity="1.0" stroke="rgb(0, 0, 0)" stroke-linejoin="miter" d=" M 381.782, 575.991 381.718, 575.812 381.621, 575.209 381.492, 574.201 381.330, 572.803 381.278, 572.355 381.235, 572.032 381.202, 571.837 381.177, 571.772 " />
            <path fill="none" stroke-width="3.0" stroke-linecap="butt" stroke-opacity="1.0" stroke="rgb(0, 0, 0)" stroke-linejoin="miter" d=" M 389.507, 662.288 389.454, 662.093 389.385, 661.676 389.297, 661.032 389.191, 660.159 389.067, 659.051 389.021, 658.684 388.984, 658.440 388.955, 658.323 " />
            <path fill="none" stroke-width="3.0" stroke-linecap="butt" stroke-opacity="1.0" stroke="rgb(0, 0, 0)" stroke-linejoin="miter" d=" M 373.542, 378.224 383.531, 377.755 393.520, 377.287 403.509, 376.818 413.498, 376.349 423.487, 375.880 433.476, 375.411 443.465, 374.943 453.454, 374.474 463.443, 374.005 473.432, 373.536 483.421, 373.067 493.410, 372.599 503.399, 372.130 513.388, 371.661 523.377, 371.192 533.366, 370.723 538.358, 370.489 548.347, 370.020 551.525, 369.871 554.407, 369.736 554.603, 369.702 554.784, 369.599 554.948, 369.413 555.096, 369.125 555.227, 368.721 555.340, 368.183 555.435, 367.496 555.511, 366.643 555.569, 365.607 555.607, 364.372 555.624, 362.922 555.621, 361.748 555.599, 360.633 555.560, 359.577 555.503, 358.582 555.429, 357.651 555.339, 356.783 555.234, 355.981 555.113, 355.247 554.978, 354.580 554.829, 353.983 554.666, 353.456 554.490, 353.002 553.683, 351.184 552.803, 349.263 551.866, 347.267 550.892, 345.223 549.898, 343.157 548.900, 341.094 547.915, 339.059 546.958, 337.074 546.045, 335.162 545.191, 333.344 544.409, 331.641 543.714, 330.073 543.018, 328.421 542.266, 326.561 541.470, 324.536 540.642, 322.389 539.793, 320.165 538.934, 317.904 538.076, 315.648 537.230, 313.436 536.405, 311.307 535.612, 309.299 534.861, 307.451 534.160, 305.797 534.036, 305.566 533.910, 305.438 533.784, 305.411 523.792, 305.827 513.801, 306.243 503.810, 306.659 493.818, 307.075 483.827, 307.491 473.836, 307.906 463.844, 308.322 453.853, 308.738 443.862, 309.154 433.870, 309.570 423.879, 309.985 413.888, 310.401 403.896, 310.817 393.905, 311.233 383.913, 311.649 373.922, 312.065 367.374, 312.337 " />
            <path fill="none" stroke-width="3.0" stroke-linecap="butt" stroke-opacity="1.0" stroke="rgb(0, 0, 0)" stroke-linejoin="miter" d=" M 382.496, 461.430 392.481, 460.894 402.467, 460.358 412.453, 459.823 422.438, 459.287 432.424, 458.751 442.410, 458.215 452.395, 457.679 462.381, 457.144 472.367, 456.608 482.352, 456.072 492.338, 455.536 502.323, 455.000 512.309, 454.465 522.295, 453.929 532.280, 453.393 538.401, 453.065 548.386, 452.529 549.311, 452.479 559.297, 451.944 561.016, 451.851 571.002, 451.316 571.907, 451.267 581.892, 450.731 589.301, 450.334 589.609, 450.193 589.896, 449.874 590.155, 449.351 590.376, 448.600 590.552, 447.596 590.675, 446.315 590.737, 444.732 590.730, 443.384 590.671, 442.029 590.565, 440.679 590.415, 439.347 590.228, 438.044 590.009, 436.783 589.762, 435.576 589.493, 434.435 589.207, 433.371 588.909, 432.395 588.603, 431.520 588.296, 430.755 586.424, 426.482 584.667, 422.530 583.008, 418.848 581.432, 415.387 579.922, 412.101 578.466, 408.947 577.049, 405.882 575.659, 402.863 574.282, 399.853 572.906, 396.811 571.521, 393.702 570.115, 390.489 566.136, 381.315 564.318, 377.122 564.157, 376.814 563.993, 376.618 563.828, 376.536 553.839, 377.010 549.815, 377.202 539.826, 377.676 538.362, 377.746 528.373, 378.221 518.384, 378.695 508.396, 379.170 498.407, 379.645 488.418, 380.119 478.429, 380.594 468.441, 381.069 458.452, 381.543 448.463, 382.018 438.474, 382.493 428.486, 382.967 418.497, 383.442 408.508, 383.917 398.520, 384.392 388.531, 384.866 378.542, 385.341 375.153, 385.502 " />
            <path fill="none" stroke-width="3.0" stroke-linecap="butt" stroke-opacity="1.0" stroke="rgb(0, 0, 0)" stroke-linejoin="miter" d=" M 549.815, 377.202 549.862, 376.421 550.086, 374.217 550.382, 372.462 550.758, 371.127 551.224, 370.182 551.525, 369.871 " />
            <path fill="none" stroke-width="3.0" stroke-linecap="butt" stroke-opacity="1.0" stroke="rgb(0, 0, 0)" stroke-linejoin="miter" d=" M 398.506, 770.422 408.475, 769.638 418.444, 768.854 428.413, 768.071 438.383, 767.287 448.352, 766.504 458.321, 765.720 468.290, 764.937 478.260, 764.153 488.229, 763.369 498.198, 762.586 508.167, 761.802 518.137, 761.019 528.106, 760.235 538.075, 759.452 548.044, 758.668 558.014, 757.884 567.983, 757.101 577.952, 756.317 586.637, 755.635 586.872, 755.573 587.060, 755.268 587.201, 754.727 587.293, 753.958 587.336, 752.969 587.326, 751.510 587.253, 749.992 587.126, 748.429 586.951, 746.836 586.738, 745.225 586.495, 743.613 586.229, 742.011 585.948, 740.433 585.662, 738.892 585.377, 737.401 585.101, 735.973 584.843, 734.619 583.820, 729.303 582.891, 724.193 582.048, 719.258 581.282, 714.471 580.583, 709.804 579.944, 705.230 579.356, 700.723 578.811, 696.258 578.302, 691.812 577.821, 687.361 577.359, 682.881 576.911, 678.350 575.943, 668.397 574.976, 658.444 574.009, 648.490 573.042, 638.537 572.074, 628.584 571.107, 618.631 570.140, 608.678 569.173, 598.725 568.206, 588.772 567.238, 578.819 566.271, 568.866 565.304, 558.912 564.337, 548.959 563.370, 539.006 562.402, 529.053 561.435, 519.100 560.468, 509.147 559.736, 501.613 559.577, 499.889 559.448, 498.240 559.350, 496.671 559.282, 495.188 559.244, 493.797 559.237, 492.503 559.260, 491.313 559.313, 490.232 559.397, 489.266 559.510, 488.422 559.655, 487.706 559.829, 487.125 560.948, 483.912 562.063, 480.543 563.177, 477.058 564.294, 473.495 565.415, 469.897 566.546, 466.306 567.688, 462.764 568.846, 459.317 570.022, 456.008 571.221, 452.886 571.907, 451.267 " />
            <path fill="none" stroke-width="3.0" stroke-linecap="butt" stroke-opacity="1.0" stroke="rgb(0, 0, 0)" stroke-linejoin="miter" d=" M 387.958, 652.293 389.102, 652.214 " />
        </g>
    </g>
</svg>
