<?xml version='1.0' encoding='ascii'?>
<svg xmlns="http://www.w3.org/2000/svg" version="1.1" width="1080" height="1080">
    <g id="View Layer_LineSet" xmlns:inkscape="http://www.inkscape.org/namespaces/inkscape" inkscape:groupmode="lineset" inkscape:label="View Layer_LineSet">
        <g xmlns:inkscape="http://www.inkscape.org/namespaces/inkscape" inkscape:groupmode="layer" id="strokes" inkscape:label="strokes">
            <path fill="none" stroke-width="3.0" stroke-linecap="butt" stroke-opacity="1.0" stroke="rgb(0, 0, 0)" stroke-linejoin="miter" d=" M 394.211, 380.280 395.108, 380.325 396.169, 380.647 396.407, 380.663 396.625, 380.627 396.822, 380.522 396.997, 380.331 397.149, 380.038 397.157, 380.011 397.275, 379.627 397.374, 379.080 397.446, 378.382 397.488, 377.514 397.499, 376.462 397.479, 375.208 397.425, 373.735 397.361, 372.543 397.280, 371.411 397.182, 370.339 397.067, 369.329 396.937, 368.383 396.792, 367.503 396.633, 366.689 396.460, 365.944 396.274, 365.268 396.076, 364.662 395.867, 364.129 395.647, 363.668 394.649, 361.828 393.563, 359.883 392.410, 357.862 391.213, 355.792 389.992, 353.700 388.767, 351.611 387.558, 349.550 386.383, 347.540 385.261, 345.604 384.209, 343.762 383.245, 342.037 382.384, 340.449 381.519, 338.775 380.580, 336.889 379.583, 334.837 378.544, 332.661 377.477, 330.406 376.397, 328.114 375.319, 325.827 374.256, 323.584 373.221, 321.426 372.228, 319.390 371.290, 317.516 370.419, 315.839 370.268, 315.606 370.119, 315.476 369.977, 315.450 369.842, 315.529 369.720, 315.715 369.611, 316.007 369.520, 316.408 369.448, 316.918 369.400, 317.538 369.377, 318.270 369.382, 319.114 369.419, 320.071 369.499, 321.398 369.595, 322.673 369.707, 323.895 369.835, 325.068 369.978, 326.190 370.135, 327.264 370.308, 328.290 370.494, 329.269 370.693, 330.202 370.906, 331.089 371.132, 331.931 371.371, 332.730 372.385, 335.915 373.288, 338.935 374.087, 341.846 374.789, 344.706 375.403, 347.574 375.938, 350.511 376.403, 353.575 376.807, 356.827 377.159, 360.326 377.468, 364.131 377.745, 368.301 377.999, 372.893 378.507, 382.880 379.016, 392.867 379.524, 402.854 380.032, 412.841 380.540, 422.828 381.048, 432.815 381.557, 442.802 382.065, 452.789 382.573, 462.776 383.081, 472.763 383.590, 482.750 384.098, 492.737 384.606, 502.724 385.114, 512.712 385.622, 522.699 386.131, 532.686 386.639, 542.673 387.147, 552.660 387.739, 564.286 387.918, 568.068 388.037, 571.303 388.089, 574.007 388.075, 575.527 388.068, 576.197 387.968, 577.886 387.782, 579.092 387.504, 579.829 387.128, 580.114 " />
            <path fill="none" stroke-width="3.0" stroke-linecap="butt" stroke-opacity="1.0" stroke="rgb(0, 0, 0)" stroke-linejoin="miter" d=" M 428.123, 453.723 429.437, 453.830 430.857, 454.331 432.392, 455.266 434.052, 456.673 435.848, 458.594 437.791, 461.074 438.142, 461.459 438.510, 461.787 438.885, 462.034 439.258, 462.175 439.619, 462.185 439.957, 462.040 440.262, 461.714 440.525, 461.181 440.735, 460.418 440.881, 459.399 440.954, 458.099 440.943, 456.493 440.867, 455.126 440.733, 453.752 440.552, 452.439 440.545, 452.384 440.310, 451.034 440.034, 449.714 439.725, 448.438 439.387, 447.216 439.028, 446.060 438.653, 444.983 438.270, 443.996 437.883, 443.110 437.500, 442.337 435.186, 438.018 433.017, 434.022 430.971, 430.299 429.029, 426.800 427.171, 423.478 425.378, 420.289 423.635, 417.189 421.923, 414.136 420.226, 411.092 418.530, 408.015 416.819, 404.870 415.079, 401.619 410.390, 392.787 407.899, 388.092 407.703, 387.781 407.509, 387.583 407.319, 387.500 407.139, 387.536 406.971, 387.691 406.820, 387.968 406.689, 388.370 406.582, 388.898 406.503, 389.554 406.456, 390.341 406.444, 391.261 406.470, 392.316 406.545, 393.789 406.643, 395.212 406.764, 396.584 406.906, 397.907 407.070, 399.183 407.254, 400.411 407.459, 401.592 407.684, 402.728 407.927, 403.819 408.190, 404.866 408.471, 405.870 408.769, 406.830 409.530, 409.146 410.232, 411.427 410.875, 413.669 411.458, 415.870 411.982, 418.026 412.445, 420.137 412.848, 422.197 413.190, 424.207 413.471, 426.161 413.692, 428.060 413.853, 429.899 413.954, 431.677 413.983, 432.778 413.982, 433.838 413.952, 434.862 413.895, 435.854 413.813, 436.820 413.708, 437.765 413.582, 438.693 413.436, 439.610 413.273, 440.521 413.094, 441.430 412.901, 442.344 412.697, 443.265 410.483, 453.017 408.269, 462.769 406.056, 472.521 403.842, 482.273 401.629, 492.025 399.334, 502.135 399.150, 502.573 398.980, 502.988 398.821, 503.371 398.672, 503.714 398.531, 504.007 398.396, 504.243 398.263, 504.413 398.133, 504.508 " />
            <path fill="none" stroke-width="3.0" stroke-linecap="butt" stroke-opacity="1.0" stroke="rgb(0, 0, 0)" stroke-linejoin="miter" d=" M 398.133, 504.508 398.001, 504.520 397.867, 504.440 397.729, 504.260 397.584, 503.971 397.457, 503.642 397.331, 503.246 397.207, 502.782 397.086, 502.249 396.969, 501.643 396.858, 500.964 396.752, 500.209 396.652, 499.377 396.561, 498.466 396.479, 497.472 396.406, 496.395 396.344, 495.232 395.875, 485.243 395.406, 475.254 394.937, 465.265 394.468, 455.276 394.000, 445.287 393.531, 435.298 393.062, 425.309 392.593, 415.320 392.125, 405.331 391.950, 401.609 391.763, 397.245 391.645, 393.455 391.604, 390.212 391.649, 387.485 391.788, 385.244 392.030, 383.460 392.384, 382.102 392.859, 381.139 393.465, 380.542 394.211, 380.280 " />
            <path fill="none" stroke-width="3.0" stroke-linecap="butt" stroke-opacity="1.0" stroke="rgb(0, 0, 0)" stroke-linejoin="miter" d=" M 419.668, 660.636 415.490, 661.202 415.315, 661.227 415.164, 661.382 415.038, 661.672 414.938, 662.098 414.865, 662.665 414.819, 663.374 414.800, 664.230 414.810, 665.233 414.848, 666.389 414.905, 667.335 414.993, 668.316 415.108, 669.317 415.246, 670.325 415.403, 671.325 415.576, 672.303 415.760, 673.246 415.953, 674.138 416.149, 674.966 416.345, 675.715 416.538, 676.371 416.723, 676.919 417.765, 679.722 418.787, 682.406 419.793, 684.997 420.791, 687.525 421.786, 690.019 422.785, 692.509 423.795, 695.025 424.821, 697.599 425.870, 700.262 426.951, 703.045 428.068, 705.982 429.231, 709.105 430.787, 713.388 432.354, 717.792 433.931, 722.298 435.516, 726.888 437.111, 731.542 438.714, 736.240 440.325, 740.963 441.944, 745.691 443.570, 750.403 445.203, 755.080 446.843, 759.700 448.489, 764.244 449.189, 766.087 449.828, 767.639 450.406, 768.905 450.920, 769.891 451.372, 770.605 451.761, 771.052 452.085, 771.239 452.345, 771.174 452.540, 770.863 452.670, 770.315 452.734, 769.537 452.732, 768.538 452.647, 767.064 452.489, 765.530 452.268, 763.953 451.992, 762.344 451.672, 760.720 451.319, 759.093 450.940, 757.477 450.547, 755.886 450.149, 754.332 449.755, 752.829 449.375, 751.389 449.018, 750.024 447.605, 744.662 446.308, 739.508 445.115, 734.529 444.016, 729.699 442.999, 724.988 442.052, 720.371 441.166, 715.820 440.331, 711.312 439.537, 706.822 438.773, 702.326 438.030, 697.800 437.298, 693.222 435.740, 683.344 434.182, 673.466 432.624, 663.588 432.545, 663.089 431.897, 658.979 430.897, 652.636 429.339, 642.758 427.781, 632.880 426.223, 623.002 424.665, 613.124 423.107, 603.246 421.549, 593.368 419.991, 583.490 418.846, 576.234 418.157, 571.868 416.599, 561.990 415.041, 552.112 413.483, 542.234 411.925, 532.357 410.367, 522.479 409.545, 517.265 409.097, 514.426 408.831, 512.680 408.603, 511.009 408.414, 509.420 408.262, 507.917 408.149, 506.506 408.075, 505.195 408.040, 503.987 408.043, 503.411 408.045, 502.891 408.089, 501.911 408.174, 501.054 408.299, 500.328 408.465, 499.737 409.555, 496.469 410.634, 493.044 411.705, 489.500 412.775, 485.878 413.849, 482.220 414.934, 478.568 416.034, 474.967 417.156, 471.461 418.306, 468.096 419.490, 464.919 420.716, 461.979 421.989, 459.324 422.844, 457.821 423.756, 456.501 424.732, 455.397 425.779, 454.542 426.907, 453.973 428.123, 453.723 " />
            <path fill="none" stroke-width="3.0" stroke-linecap="butt" stroke-opacity="1.0" stroke="rgb(0, 0, 0)" stroke-linejoin="miter" d=" M 388.075, 575.527 383.624, 576.068 383.464, 576.146 383.332, 576.357 383.229, 576.705 383.154, 577.192 383.108, 577.821 383.092, 578.594 383.106, 579.513 383.150, 580.582 383.219, 581.501 383.330, 582.525 383.478, 583.629 383.657, 584.787 383.862, 585.975 384.087, 587.168 384.327, 588.339 384.576, 589.465 384.829, 590.518 385.079, 591.474 385.321, 592.307 385.549, 592.990 386.759, 596.223 387.866, 599.062 388.881, 601.559 389.818, 603.769 390.687, 605.747 391.502, 607.551 392.275, 609.240 393.020, 610.873 393.750, 612.511 394.479, 614.214 395.222, 616.046 395.991, 618.068 396.766, 620.229 397.561, 622.536 398.380, 624.986 399.229, 627.576 400.113, 630.303 401.040, 633.165 402.014, 636.159 403.043, 639.283 404.132, 642.536 405.289, 645.917 406.521, 649.426 407.835, 653.064 408.112, 653.766 408.385, 654.363 408.652, 654.847 408.906, 655.209 409.144, 655.440 409.360, 655.533 409.549, 655.478 409.706, 655.268 409.827, 654.892 409.907, 654.344 409.940, 653.615 409.922, 652.696 409.843, 651.387 409.728, 650.102 409.581, 648.840 409.404, 647.602 409.202, 646.384 408.979, 645.188 408.737, 644.011 408.482, 642.852 408.216, 641.711 407.943, 640.585 407.667, 639.473 407.391, 638.374 406.301, 634.131 405.376, 630.345 404.597, 626.931 403.947, 623.804 403.408, 620.884 402.963, 618.090 402.598, 615.342 402.294, 612.561 402.037, 609.669 401.810, 606.587 401.598, 603.236 401.384, 599.538 401.039, 593.239 400.702, 586.954 400.373, 580.679 400.261, 578.507 400.051, 574.408 400.034, 574.072 399.735, 568.136 399.424, 561.856 399.117, 555.564 398.813, 549.254 398.511, 542.920 398.210, 536.558 397.908, 530.161 397.606, 523.724 397.561, 522.613 397.538, 521.647 397.535, 520.822 397.551, 520.132 397.584, 519.575 397.634, 519.145 397.699, 518.840 397.779, 518.654 397.871, 518.583 397.974, 518.624 398.088, 518.772 398.211, 519.024 398.363, 519.425 398.524, 519.928 398.692, 520.532 398.868, 521.241 399.053, 522.055 399.246, 522.976 399.447, 524.005 399.656, 525.145 399.874, 526.397 400.101, 527.762 400.336, 529.241 400.579, 530.837 402.085, 540.723 403.590, 550.609 405.095, 560.495 406.600, 570.382 407.032, 573.221 407.699, 577.597 409.204, 587.483 410.709, 597.369 412.214, 607.256 413.719, 617.142 415.225, 627.028 416.730, 636.914 417.496, 641.944 417.796, 643.943 418.076, 645.858 418.335, 647.690 418.573, 649.438 418.789, 651.104 418.982, 652.686 419.154, 654.187 419.157, 654.215 419.303, 655.605 419.429, 656.942 419.532, 658.198 419.611, 659.374 419.667, 660.469 419.668, 660.636 419.676, 661.690 419.635, 662.728 419.543, 663.578 419.397, 664.234 419.197, 664.690 418.941, 664.942 " />
            <path fill="none" stroke-width="3.0" stroke-linecap="butt" stroke-opacity="1.0" stroke="rgb(0, 0, 0)" stroke-linejoin="miter" d=" M 418.941, 664.942 418.627, 664.985 418.255, 664.812 417.824, 664.421 417.331, 663.806 416.776, 662.964 416.159, 661.890 415.913, 661.537 415.690, 661.307 415.490, 661.202 " />
            <path fill="none" stroke-width="3.0" stroke-linecap="butt" stroke-opacity="1.0" stroke="rgb(0, 0, 0)" stroke-linejoin="miter" d=" M 387.128, 580.114 386.648, 579.961 386.058, 579.389 385.353, 578.414 384.529, 577.055 384.264, 576.619 384.024, 576.307 383.811, 576.123 383.624, 576.068 " />
            <path fill="none" stroke-width="3.0" stroke-linecap="butt" stroke-opacity="1.0" stroke="rgb(0, 0, 0)" stroke-linejoin="miter" d=" M 396.407, 380.663 406.365, 379.753 416.324, 378.843 426.282, 377.932 436.241, 377.022 446.199, 376.111 456.158, 375.201 466.116, 374.290 476.074, 373.380 486.033, 372.470 495.991, 371.559 505.950, 370.649 515.908, 369.738 525.867, 368.828 535.825, 367.917 541.999, 367.353 551.958, 366.443 561.916, 365.532 566.992, 365.068 572.783, 364.539 573.159, 364.489 573.505, 364.372 573.820, 364.173 574.103, 363.876 574.354, 363.464 574.571, 362.922 574.754, 362.232 574.901, 361.379 575.013, 360.347 575.087, 359.119 575.123, 357.679 575.118, 356.515 575.079, 355.410 575.005, 354.366 574.897, 353.384 574.758, 352.466 574.587, 351.612 574.387, 350.825 574.157, 350.106 573.899, 349.456 573.615, 348.875 573.304, 348.366 572.969, 347.929 571.427, 346.189 569.745, 344.353 567.955, 342.446 566.093, 340.494 564.191, 338.522 562.282, 336.552 560.397, 334.608 558.566, 332.711 556.818, 330.883 555.182, 329.143 553.684, 327.511 552.352, 326.007 551.019, 324.419 549.578, 322.627 548.053, 320.675 546.466, 318.605 544.838, 316.458 543.191, 314.275 541.546, 312.096 539.922, 309.959 538.340, 307.903 536.818, 305.965 535.376, 304.182 534.030, 302.588 533.792, 302.368 533.549, 302.249 533.307, 302.232 523.339, 303.039 513.372, 303.846 503.404, 304.652 493.437, 305.459 483.469, 306.265 473.502, 307.072 463.535, 307.879 453.567, 308.685 443.600, 309.492 433.632, 310.298 423.665, 311.105 413.698, 311.912 403.730, 312.718 393.763, 313.525 383.795, 314.331 373.828, 315.138 369.977, 315.450 " />
            <path fill="none" stroke-width="3.0" stroke-linecap="butt" stroke-opacity="1.0" stroke="rgb(0, 0, 0)" stroke-linejoin="miter" d=" M 439.619, 462.185 449.564, 461.142 459.510, 460.100 469.455, 459.057 479.401, 458.015 489.346, 456.972 499.292, 455.929 509.237, 454.887 519.183, 453.844 529.128, 452.801 539.074, 451.759 541.947, 451.458 551.892, 450.415 561.838, 449.372 562.879, 449.263 572.825, 448.221 582.770, 447.178 584.544, 446.992 594.489, 445.949 604.435, 444.907 605.277, 444.819 615.222, 443.776 625.168, 442.733 635.113, 441.691 639.111, 441.272 639.695, 441.104 640.240, 440.762 640.729, 440.222 641.150, 439.460 641.485, 438.453 641.719, 437.176 641.838, 435.607 641.828, 434.277 641.719, 432.944 641.518, 431.621 641.237, 430.319 640.885, 429.050 640.471, 427.826 640.005, 426.656 639.497, 425.553 638.956, 424.528 638.392, 423.592 637.815, 422.754 637.234, 422.027 633.691, 417.974 630.364, 414.226 627.221, 410.734 624.232, 407.452 621.370, 404.337 618.608, 401.345 615.919, 398.436 613.279, 395.570 610.664, 392.710 608.051, 389.818 605.417, 386.859 602.743, 383.798 596.201, 376.235 591.711, 371.044 591.405, 370.752 591.091, 370.572 590.776, 370.504 580.819, 371.426 570.862, 372.349 563.900, 372.994 553.943, 373.916 543.985, 374.839 541.995, 375.023 532.037, 375.946 522.080, 376.868 512.122, 377.791 502.165, 378.713 492.208, 379.636 482.250, 380.558 472.293, 381.481 462.336, 382.403 452.378, 383.326 442.421, 384.248 432.464, 385.171 422.506, 386.093 412.549, 387.016 407.319, 387.500 " />
            <path fill="none" stroke-width="3.0" stroke-linecap="butt" stroke-opacity="1.0" stroke="rgb(0, 0, 0)" stroke-linejoin="miter" d=" M 563.900, 372.994 564.070, 371.550 564.503, 369.342 565.072, 367.576 565.795, 366.219 566.689, 365.243 566.992, 365.068 " />
            <path fill="none" stroke-width="3.0" stroke-linecap="butt" stroke-opacity="1.0" stroke="rgb(0, 0, 0)" stroke-linejoin="miter" d=" M 452.085, 771.239 461.969, 769.720 471.853, 768.202 481.737, 766.684 491.621, 765.165 501.505, 763.647 511.389, 762.128 521.273, 760.610 531.158, 759.091 541.042, 757.573 550.926, 756.054 560.810, 754.536 570.694, 753.018 580.578, 751.499 590.462, 749.981 600.346, 748.462 610.230, 746.944 620.114, 745.425 629.998, 743.907 633.632, 743.349 634.079, 743.255 634.436, 742.928 634.704, 742.374 634.879, 741.601 634.963, 740.617 634.946, 739.175 634.810, 737.683 634.570, 736.154 634.241, 734.602 633.839, 733.037 633.379, 731.475 632.876, 729.926 632.347, 728.402 631.805, 726.916 631.266, 725.479 630.745, 724.103 630.257, 722.798 628.321, 717.674 626.565, 712.739 624.971, 707.966 623.521, 703.328 622.200, 698.799 620.991, 694.353 619.880, 689.967 618.851, 685.616 617.889, 681.279 616.979, 676.932 616.108, 672.554 615.261, 668.123 613.418, 658.295 611.575, 648.466 609.731, 638.638 607.888, 628.809 606.045, 618.980 604.201, 609.152 602.358, 599.323 600.515, 589.494 598.672, 579.666 596.828, 569.837 594.985, 560.008 593.142, 550.180 591.298, 540.351 589.455, 530.522 587.612, 520.694 585.768, 510.865 583.925, 501.036 582.772, 494.889 582.471, 493.195 582.227, 491.572 582.042, 490.026 581.915, 488.561 581.845, 487.185 581.833, 485.902 581.879, 484.719 581.982, 483.641 582.143, 482.675 582.362, 481.826 582.638, 481.102 582.973, 480.508 585.115, 477.211 587.250, 473.761 589.383, 470.196 591.520, 466.556 593.666, 462.882 595.828, 459.215 598.012, 455.597 600.223, 452.072 602.470, 448.684 604.758, 445.479 605.277, 444.819 " />
            <path fill="none" stroke-width="3.0" stroke-linecap="butt" stroke-opacity="1.0" stroke="rgb(0, 0, 0)" stroke-linejoin="miter" d=" M 409.360, 655.533 419.157, 654.215 " />
        </g>
    </g>
</svg>
