<?xml version='1.0' encoding='ascii'?>
<svg xmlns="http://www.w3.org/2000/svg" version="1.1" width="1080" height="1080">
    <g id="View Layer_LineSet" xmlns:inkscape="http://www.inkscape.org/namespaces/inkscape" inkscape:groupmode="lineset" inkscape:label="View Layer_LineSet">
        <g xmlns:inkscape="http://www.inkscape.org/namespaces/inkscape" inkscape:groupmode="layer" id="strokes" inkscape:label="strokes">
            <path fill="none" stroke-width="3.0" stroke-linecap="butt" stroke-opacity="1.0" stroke="rgb(0, 0, 0)" stroke-linejoin="miter" d=" M 399.314, 380.739 400.396, 380.770 401.672, 381.076 401.959, 381.088 402.223, 381.048 402.462, 380.940 402.675, 380.746 402.861, 380.450 402.889, 380.374 403.017, 380.036 403.143, 379.487 403.237, 378.787 403.298, 377.918 403.323, 376.864 403.312, 375.609 403.263, 374.135 403.200, 372.943 403.114, 371.810 403.008, 370.738 402.881, 369.729 402.734, 368.784 402.569, 367.905 402.386, 367.092 402.186, 366.349 401.969, 365.674 401.737, 365.071 401.491, 364.540 401.230, 364.083 400.047, 362.255 398.758, 360.324 397.390, 358.318 395.969, 356.263 394.519, 354.187 393.064, 352.113 391.628, 350.067 390.233, 348.072 388.900, 346.149 387.651, 344.321 386.506, 342.607 385.485, 341.028 384.459, 339.365 383.346, 337.490 382.166, 335.448 380.935, 333.284 379.672, 331.041 378.394, 328.761 377.118, 326.484 375.859, 324.253 374.633, 322.105 373.457, 320.080 372.345, 318.216 371.311, 316.548 371.131, 316.317 370.954, 316.188 370.781, 316.164 370.618, 316.246 370.468, 316.433 370.334, 316.728 370.219, 317.131 370.127, 317.643 370.062, 318.265 370.026, 318.998 370.023, 319.844 370.057, 320.803 370.139, 322.131 370.241, 323.406 370.362, 324.630 370.504, 325.803 370.664, 326.925 370.842, 327.999 371.039, 329.025 371.253, 330.003 371.484, 330.934 371.731, 331.820 371.995, 332.661 372.274, 333.457 373.464, 336.634 374.521, 339.646 375.452, 342.550 376.268, 345.405 376.978, 348.269 377.592, 351.203 378.119, 354.266 378.571, 357.518 378.957, 361.018 379.289, 364.825 379.577, 368.998 379.833, 373.594 380.335, 383.581 380.838, 393.568 381.340, 403.556 381.843, 413.543 382.346, 423.531 382.848, 433.518 383.351, 443.505 383.853, 453.493 384.356, 463.480 384.859, 473.467 385.361, 483.455 385.864, 493.442 386.366, 503.429 386.869, 513.417 387.372, 523.404 387.874, 533.392 388.377, 543.379 388.879, 553.366 389.473, 565.163 389.647, 568.949 389.755, 572.187 389.788, 574.896 389.756, 576.323 389.739, 577.089 389.600, 578.785 389.362, 579.997 389.018, 580.741 388.561, 581.034 " />
            <path fill="none" stroke-width="3.0" stroke-linecap="butt" stroke-opacity="1.0" stroke="rgb(0, 0, 0)" stroke-linejoin="miter" d=" M 439.376, 453.686 440.957, 453.770 442.661, 454.246 444.499, 455.153 446.482, 456.531 448.623, 458.422 450.934, 460.868 451.352, 461.247 451.791, 461.568 452.240, 461.808 452.687, 461.943 453.121, 461.947 453.529, 461.795 453.901, 461.463 454.223, 460.926 454.483, 460.159 454.671, 459.137 454.773, 457.835 454.777, 456.229 454.701, 454.863 454.554, 453.491 454.343, 452.126 454.310, 451.959 454.075, 450.780 453.758, 449.465 453.400, 448.193 453.007, 446.977 452.587, 445.827 452.148, 444.756 451.697, 443.776 451.242, 442.896 450.789, 442.130 448.052, 437.849 445.485, 433.889 443.063, 430.200 440.763, 426.732 438.562, 423.440 436.438, 420.279 434.372, 417.206 432.344, 414.180 430.334, 411.162 428.325, 408.111 426.298, 404.991 424.237, 401.767 418.885, 393.319 415.733, 388.343 415.501, 388.034 415.268, 387.839 415.041, 387.760 414.823, 387.798 414.619, 387.956 414.434, 388.236 414.272, 388.640 414.138, 389.170 414.035, 389.828 413.969, 390.617 413.944, 391.538 413.965, 392.594 414.039, 394.068 414.141, 395.490 414.271, 396.862 414.428, 398.184 414.612, 399.458 414.821, 400.684 415.054, 401.864 415.313, 402.997 415.594, 404.086 415.899, 405.130 416.227, 406.129 416.576, 407.086 417.467, 409.392 418.288, 411.663 419.039, 413.896 419.717, 416.089 420.324, 418.240 420.859, 420.344 421.322, 422.400 421.712, 424.405 422.030, 426.357 422.275, 428.254 422.449, 430.092 422.550, 431.870 422.574, 432.972 422.560, 434.032 422.513, 435.057 422.434, 436.052 422.324, 437.020 422.187, 437.968 422.025, 438.899 421.839, 439.820 421.632, 440.734 421.407, 441.647 421.164, 442.565 420.908, 443.491 418.183, 453.113 415.459, 462.734 412.734, 472.356 410.010, 481.978 407.285, 491.599 404.561, 501.221 404.149, 502.676 403.922, 503.119 403.712, 503.538 403.517, 503.925 403.334, 504.271 403.160, 504.567 402.994, 504.806 402.832, 504.979 402.674, 505.077 " />
            <path fill="none" stroke-width="3.0" stroke-linecap="butt" stroke-opacity="1.0" stroke="rgb(0, 0, 0)" stroke-linejoin="miter" d=" M 402.674, 505.077 402.515, 505.091 402.355, 505.013 402.190, 504.836 402.018, 504.549 401.868, 504.221 401.721, 503.828 401.576, 503.365 401.436, 502.833 401.302, 502.229 401.175, 501.551 401.055, 500.797 400.945, 499.966 400.845, 499.054 400.757, 498.061 400.680, 496.984 400.618, 495.820 400.163, 485.830 399.708, 475.841 399.253, 465.851 398.798, 455.861 398.343, 445.872 397.889, 435.882 397.434, 425.892 396.979, 415.903 396.524, 405.913 396.352, 402.134 396.174, 397.766 396.074, 393.973 396.060, 390.726 396.145, 387.994 396.337, 385.748 396.649, 383.957 397.091, 382.592 397.674, 381.620 398.411, 381.012 399.314, 380.739 " />
            <path fill="none" stroke-width="3.0" stroke-linecap="butt" stroke-opacity="1.0" stroke="rgb(0, 0, 0)" stroke-linejoin="miter" d=" M 426.916, 660.857 421.663, 661.654 421.479, 661.813 421.325, 662.106 421.200, 662.535 421.105, 663.104 421.041, 663.816 421.009, 664.673 421.010, 665.678 421.044, 666.834 421.102, 667.780 421.197, 668.760 421.324, 669.760 421.479, 670.766 421.658, 671.764 421.856, 672.739 422.068, 673.679 422.290, 674.568 422.517, 675.392 422.745, 676.137 422.970, 676.789 423.187, 677.334 424.412, 680.116 425.614, 682.779 426.798, 685.349 427.973, 687.856 429.145, 690.330 430.321, 692.799 431.509, 695.294 432.717, 697.846 433.952, 700.486 435.223, 703.246 436.537, 706.158 437.903, 709.256 439.730, 713.505 441.569, 717.875 443.418, 722.347 445.277, 726.901 447.146, 731.519 449.024, 736.181 450.912, 740.867 452.808, 745.558 454.714, 750.232 456.628, 754.870 458.551, 759.452 460.482, 763.955 461.304, 765.782 462.056, 767.318 462.737, 768.569 463.345, 769.543 463.881, 770.245 464.344, 770.682 464.732, 770.861 465.045, 770.789 465.283, 770.473 465.445, 769.921 465.531, 769.141 465.540, 768.141 465.454, 766.669 465.281, 765.139 465.031, 763.566 464.717, 761.964 464.351, 760.347 463.943, 758.728 463.505, 757.121 463.050, 755.539 462.588, 753.995 462.130, 752.501 461.689, 751.069 461.274, 749.713 459.632, 744.384 458.128, 739.259 456.748, 734.308 455.478, 729.501 454.305, 724.813 453.217, 720.215 452.200, 715.684 451.245, 711.193 450.337, 706.718 449.467, 702.237 448.622, 697.726 447.792, 693.162 446.026, 683.319 444.260, 673.477 442.493, 663.634 442.344, 662.798 441.596, 658.632 440.441, 652.195 438.675, 642.352 436.908, 632.509 435.142, 622.667 433.376, 612.824 431.610, 602.981 429.844, 593.138 428.077, 583.295 426.735, 575.815 425.944, 571.404 424.177, 561.562 422.411, 551.719 420.645, 541.876 418.879, 532.033 417.113, 522.190 416.254, 517.403 415.786, 514.797 415.484, 513.054 415.228, 511.385 415.017, 509.797 414.851, 508.295 414.730, 506.886 414.655, 505.574 414.627, 504.365 414.639, 503.595 414.644, 503.267 414.709, 502.286 414.820, 501.427 414.979, 500.696 415.186, 500.102 416.536, 496.810 417.873, 493.360 419.204, 489.792 420.533, 486.146 421.868, 482.464 423.215, 478.789 424.580, 475.164 425.971, 471.634 427.393, 468.245 428.855, 465.044 430.364, 462.079 431.927, 459.399 432.974, 457.880 434.086, 456.543 435.274, 455.420 436.545, 454.547 437.909, 453.957 439.376, 453.686 " />
            <path fill="none" stroke-width="3.0" stroke-linecap="butt" stroke-opacity="1.0" stroke="rgb(0, 0, 0)" stroke-linejoin="miter" d=" M 389.756, 576.323 384.376, 577.055 384.182, 577.135 384.021, 577.350 383.892, 577.701 383.796, 578.191 383.734, 578.821 383.705, 579.596 383.712, 580.517 383.754, 581.587 383.827, 582.507 383.950, 583.530 384.116, 584.633 384.319, 585.790 384.554, 586.977 384.813, 588.167 385.089, 589.336 385.377, 590.458 385.670, 591.508 385.962, 592.461 386.245, 593.290 386.513, 593.969 387.937, 597.183 389.242, 600.004 390.440, 602.483 391.546, 604.677 392.573, 606.640 393.536, 608.430 394.451, 610.105 395.332, 611.725 396.195, 613.349 397.056, 615.040 397.931, 616.858 398.837, 618.867 399.749, 621.014 400.682, 623.308 401.642, 625.744 402.638, 628.320 403.675, 631.032 404.761, 633.877 405.903, 636.854 407.109, 639.960 408.386, 643.193 409.745, 646.553 411.191, 650.040 412.736, 653.653 413.062, 654.349 413.385, 654.941 413.701, 655.419 414.004, 655.776 414.288, 656.002 414.547, 656.090 414.776, 656.031 414.968, 655.817 415.118, 655.438 415.220, 654.887 415.268, 654.156 415.256, 653.236 415.176, 651.927 415.051, 650.643 414.887, 649.383 414.688, 648.146 414.458, 646.932 414.202, 645.739 413.924, 644.565 413.629, 643.411 413.320, 642.274 413.004, 641.152 412.683, 640.045 412.363, 638.951 411.095, 634.726 410.022, 630.955 409.120, 627.553 408.370, 624.436 407.752, 621.523 407.247, 618.734 406.836, 615.990 406.501, 613.212 406.222, 610.321 405.983, 607.239 405.764, 603.887 405.547, 600.187 405.200, 593.885 404.863, 587.598 404.536, 581.320 404.411, 578.867 404.216, 575.046 404.182, 574.362 403.905, 568.770 403.599, 562.487 403.298, 556.191 403.001, 549.877 402.706, 543.540 402.413, 537.174 402.120, 530.773 401.826, 524.332 401.785, 523.220 401.768, 522.253 401.773, 521.426 401.800, 520.736 401.846, 520.177 401.911, 519.745 401.993, 519.438 402.091, 519.250 402.203, 519.178 402.327, 519.217 402.463, 519.363 402.608, 519.612 402.788, 520.012 402.975, 520.512 403.172, 521.114 403.376, 521.820 403.590, 522.631 403.812, 523.550 404.044, 524.577 404.284, 525.715 404.533, 526.964 404.791, 528.326 405.058, 529.804 405.334, 531.397 407.038, 541.251 408.741, 551.105 410.444, 560.959 412.147, 570.813 412.564, 573.223 413.329, 577.648 415.032, 587.502 416.736, 597.355 418.439, 607.209 420.142, 617.063 421.845, 626.917 423.549, 636.771 424.504, 642.296 424.844, 644.290 425.160, 646.202 425.452, 648.030 425.719, 649.775 425.961, 651.437 426.177, 653.017 426.342, 654.316 426.367, 654.515 426.531, 655.932 426.668, 657.268 426.778, 658.523 426.861, 659.698 426.916, 660.793 426.916, 660.857 426.914, 662.016 426.853, 663.056 426.732, 663.909 426.550, 664.570 426.304, 665.031 425.992, 665.290 " />
            <path fill="none" stroke-width="3.0" stroke-linecap="butt" stroke-opacity="1.0" stroke="rgb(0, 0, 0)" stroke-linejoin="miter" d=" M 425.992, 665.290 425.614, 665.339 425.167, 665.175 424.651, 664.794 424.064, 664.190 423.405, 663.359 422.673, 662.299 422.381, 661.951 422.114, 661.725 421.875, 661.625 421.663, 661.654 " />
            <path fill="none" stroke-width="3.0" stroke-linecap="butt" stroke-opacity="1.0" stroke="rgb(0, 0, 0)" stroke-linejoin="miter" d=" M 388.561, 581.034 387.983, 580.892 387.277, 580.331 386.438, 579.369 385.458, 578.024 385.142, 577.592 384.856, 577.285 384.601, 577.105 384.376, 577.055 " />
            <path fill="none" stroke-width="3.0" stroke-linecap="butt" stroke-opacity="1.0" stroke="rgb(0, 0, 0)" stroke-linejoin="miter" d=" M 401.959, 381.088 411.907, 380.071 421.855, 379.054 431.803, 378.037 441.751, 377.020 451.700, 376.003 461.648, 374.987 471.596, 373.970 481.544, 372.953 491.492, 371.936 501.440, 370.919 511.389, 369.902 521.337, 368.885 531.285, 367.868 541.233, 366.851 542.641, 366.707 552.589, 365.690 562.537, 364.674 570.224, 363.888 576.763, 363.219 577.179, 363.164 577.562, 363.044 577.911, 362.841 578.224, 362.541 578.502, 362.127 578.743, 361.583 578.945, 360.892 579.109, 360.039 579.232, 359.008 579.315, 357.781 579.355, 356.344 579.350, 355.182 579.306, 354.080 579.224, 353.039 579.105, 352.061 578.951, 351.146 578.762, 350.297 578.540, 349.514 578.286, 348.799 578.000, 348.153 577.685, 347.577 577.341, 347.073 576.970, 346.641 575.263, 344.925 573.399, 343.113 571.417, 341.232 569.354, 339.307 567.247, 337.361 565.132, 335.418 563.043, 333.501 561.014, 331.630 559.077, 329.826 557.263, 328.109 555.603, 326.498 554.127, 325.012 552.649, 323.443 551.052, 321.671 549.361, 319.740 547.601, 317.692 545.797, 315.568 543.970, 313.407 542.146, 311.250 540.345, 309.136 538.590, 307.101 536.902, 305.183 535.302, 303.419 533.809, 301.842 533.545, 301.625 533.275, 301.509 533.006, 301.495 523.047, 302.396 513.087, 303.297 503.128, 304.197 493.169, 305.098 483.209, 305.998 473.250, 306.899 463.291, 307.799 453.331, 308.700 443.372, 309.600 433.413, 310.501 423.453, 311.402 413.494, 312.302 403.534, 313.203 393.575, 314.103 383.616, 315.004 373.656, 315.904 370.781, 316.164 " />
            <path fill="none" stroke-width="3.0" stroke-linecap="butt" stroke-opacity="1.0" stroke="rgb(0, 0, 0)" stroke-linejoin="miter" d=" M 453.121, 461.947 463.053, 460.781 472.985, 459.616 482.917, 458.450 492.848, 457.285 502.780, 456.119 512.712, 454.954 522.644, 453.788 532.576, 452.623 542.571, 451.450 552.503, 450.284 562.434, 449.119 565.773, 448.727 575.705, 447.562 585.637, 446.396 589.456, 445.948 599.388, 444.783 609.320, 443.617 612.378, 443.258 622.310, 442.093 632.242, 440.927 642.173, 439.762 650.113, 438.830 650.758, 438.655 651.360, 438.306 651.901, 437.761 652.365, 436.995 652.734, 435.987 652.994, 434.711 653.125, 433.146 653.115, 431.821 652.994, 430.494 652.772, 429.179 652.462, 427.885 652.073, 426.626 651.616, 425.411 651.102, 424.253 650.541, 423.161 649.944, 422.147 649.321, 421.222 648.683, 420.396 648.041, 419.679 644.129, 415.690 640.454, 412.001 636.981, 408.564 633.679, 405.334 630.517, 402.268 627.463, 399.323 624.491, 396.459 621.573, 393.638 618.682, 390.822 615.792, 387.973 612.880, 385.058 609.923, 382.041 602.958, 374.865 597.718, 369.465 597.379, 369.178 597.032, 369.002 596.684, 368.938 586.737, 369.969 576.790, 370.999 566.887, 372.026 556.940, 373.056 546.994, 374.087 542.634, 374.539 532.688, 375.569 522.741, 376.600 512.794, 377.631 502.847, 378.661 492.901, 379.692 482.954, 380.723 473.007, 381.753 463.060, 382.784 453.114, 383.815 443.167, 384.845 433.220, 385.876 423.273, 386.907 415.041, 387.760 " />
            <path fill="none" stroke-width="3.0" stroke-linecap="butt" stroke-opacity="1.0" stroke="rgb(0, 0, 0)" stroke-linejoin="miter" d=" M 566.887, 372.026 567.108, 370.330 567.589, 368.121 568.220, 366.350 569.021, 364.987 570.012, 364.001 570.224, 363.888 " />
            <path fill="none" stroke-width="3.0" stroke-linecap="butt" stroke-opacity="1.0" stroke="rgb(0, 0, 0)" stroke-linejoin="miter" d=" M 464.732, 770.861 474.587, 769.166 484.443, 767.471 494.298, 765.776 504.153, 764.082 514.009, 762.387 523.864, 760.692 533.719, 758.997 543.575, 757.302 553.430, 755.607 563.285, 753.912 573.141, 752.218 582.996, 750.523 592.851, 748.828 602.707, 747.133 612.562, 745.438 622.417, 743.743 632.273, 742.048 642.128, 740.354 644.037, 740.025 644.531, 739.923 644.926, 739.589 645.221, 739.031 645.415, 738.256 645.508, 737.274 645.489, 735.836 645.339, 734.352 645.073, 732.833 644.710, 731.292 644.266, 729.741 643.758, 728.193 643.203, 726.659 642.618, 725.151 642.020, 723.681 641.425, 722.260 640.849, 720.899 640.310, 719.608 638.171, 714.539 636.231, 709.656 634.469, 704.929 632.867, 700.334 631.408, 695.845 630.072, 691.436 628.844, 687.085 627.707, 682.767 626.643, 678.461 625.638, 674.144 624.676, 669.795 623.740, 665.394 621.697, 655.604 619.655, 645.815 617.613, 636.026 615.571, 626.236 613.529, 616.447 611.487, 606.658 609.445, 596.869 607.403, 587.079 605.361, 577.290 603.319, 567.501 601.277, 557.712 599.235, 547.922 597.193, 538.133 595.151, 528.344 593.108, 518.554 591.066, 508.765 589.024, 498.976 587.810, 493.155 587.476, 491.469 587.207, 489.854 587.002, 488.313 586.861, 486.854 586.784, 485.482 586.771, 484.202 586.822, 483.020 586.936, 481.943 587.115, 480.976 587.357, 480.126 587.663, 479.399 588.034, 478.802 590.406, 475.479 592.770, 472.003 595.131, 468.414 597.496, 464.750 599.872, 461.052 602.265, 457.361 604.681, 453.719 607.129, 450.170 609.614, 446.758 612.146, 443.528 612.378, 443.258 " />
            <path fill="none" stroke-width="3.0" stroke-linecap="butt" stroke-opacity="1.0" stroke="rgb(0, 0, 0)" stroke-linejoin="miter" d=" M 414.547, 656.090 424.436, 654.603 426.342, 654.316 " />
        </g>
    </g>
</svg>
