<?xml version='1.0' encoding='ascii'?>
<svg xmlns="http://www.w3.org/2000/svg" version="1.1" width="1080" height="1080">
    <g id="View Layer_LineSet" xmlns:inkscape="http://www.inkscape.org/namespaces/inkscape" inkscape:groupmode="lineset" inkscape:label="View Layer_LineSet">
        <g xmlns:inkscape="http://www.inkscape.org/namespaces/inkscape" inkscape:groupmode="layer" id="strokes" inkscape:label="strokes">
            <path fill="none" stroke-width="3.0" stroke-linecap="butt" stroke-opacity="1.0" stroke="rgb(0, 0, 0)" stroke-linejoin="miter" d=" M 404.338, 381.134 405.599, 381.149 407.083, 381.437 407.417, 381.446 407.725, 381.402 408.005, 381.290 408.255, 381.093 408.474, 380.794 408.533, 380.661 408.660, 380.378 408.811, 379.826 408.927, 379.123 409.005, 378.253 409.045, 377.197 409.043, 375.941 408.999, 374.466 408.936, 373.273 408.846, 372.141 408.731, 371.069 408.592, 370.061 408.430, 369.117 408.245, 368.239 408.039, 367.429 407.813, 366.687 407.566, 366.015 407.301, 365.414 407.018, 364.886 406.719, 364.432 405.356, 362.618 403.871, 360.703 402.295, 358.713 400.656, 356.676 398.985, 354.617 397.307, 352.561 395.651, 350.532 394.041, 348.553 392.505, 346.646 391.064, 344.831 389.744, 343.131 388.568, 341.564 387.386, 339.911 386.105, 338.049 384.746, 336.020 383.330, 333.869 381.877, 331.639 380.406, 329.371 378.937, 327.108 377.488, 324.889 376.077, 322.754 374.722, 320.741 373.441, 318.887 372.250, 317.230 372.042, 317.001 371.836, 316.874 371.635, 316.853 371.444, 316.936 371.267, 317.126 371.107, 317.423 370.970, 317.828 370.858, 318.342 370.776, 318.966 370.728, 319.701 370.717, 320.548 370.748, 321.509 370.831, 322.838 370.939, 324.115 371.070, 325.339 371.225, 326.512 371.402, 327.634 371.601, 328.708 371.821, 329.732 372.062, 330.710 372.323, 331.640 372.604, 332.524 372.904, 333.362 373.222, 334.156 374.583, 337.323 375.789, 340.326 376.850, 343.223 377.777, 346.071 378.580, 348.931 379.270, 351.862 379.858, 354.923 380.355, 358.173 380.775, 361.674 381.128, 365.482 381.427, 369.658 381.684, 374.258 382.181, 384.246 382.678, 394.233 383.175, 404.221 383.672, 414.209 384.169, 424.196 384.666, 434.184 385.163, 444.172 385.660, 454.159 386.157, 464.147 386.653, 474.134 387.150, 484.122 387.647, 494.110 388.144, 504.097 388.641, 514.085 389.138, 524.073 389.635, 534.060 390.132, 544.048 390.629, 554.036 391.126, 564.023 391.224, 565.993 391.393, 569.782 391.490, 573.025 391.505, 575.737 391.458, 577.061 391.428, 577.936 391.250, 579.637 390.962, 580.855 390.554, 581.608 390.018, 581.910 " />
            <path fill="none" stroke-width="3.0" stroke-linecap="butt" stroke-opacity="1.0" stroke="rgb(0, 0, 0)" stroke-linejoin="miter" d=" M 450.342, 453.524 452.179, 453.582 454.157, 454.031 456.287, 454.909 458.581, 456.255 461.054, 458.112 463.719, 460.520 464.202, 460.892 464.710, 461.206 465.230, 461.439 465.749, 461.566 466.253, 461.563 466.729, 461.405 467.164, 461.067 467.543, 460.525 467.853, 459.753 468.079, 458.728 468.209, 457.424 468.228, 455.818 468.153, 454.454 467.994, 453.084 467.760, 451.723 467.668, 451.310 467.461, 450.381 467.104, 449.071 466.698, 447.805 466.252, 446.595 465.775, 445.452 465.274, 444.388 464.758, 443.415 464.237, 442.542 463.717, 441.783 460.572, 437.545 457.621, 433.626 454.837, 429.973 452.192, 426.541 449.661, 423.282 447.219, 420.152 444.842, 417.110 442.509, 414.114 440.196, 411.124 437.884, 408.102 435.553, 405.012 433.182, 401.816 427.260, 393.758 423.400, 388.508 423.132, 388.202 422.863, 388.010 422.599, 387.934 422.345, 387.976 422.106, 388.137 421.888, 388.420 421.696, 388.827 421.534, 389.359 421.409, 390.019 421.325, 390.809 421.288, 391.732 421.303, 392.789 421.376, 394.262 421.483, 395.684 421.622, 397.055 421.793, 398.376 421.995, 399.649 422.228, 400.873 422.490, 402.050 422.780, 403.181 423.099, 404.266 423.444, 405.306 423.817, 406.301 424.215, 407.253 425.233, 409.548 426.169, 411.808 427.023, 414.032 427.794, 416.216 428.481, 418.359 429.086, 420.457 429.606, 422.507 430.043, 424.508 430.395, 426.456 430.664, 428.350 430.850, 430.187 430.952, 431.965 430.970, 433.067 430.945, 434.128 430.881, 435.155 430.779, 436.151 430.643, 437.122 430.476, 438.072 430.278, 439.007 430.054, 439.931 429.805, 440.849 429.534, 441.767 429.244, 442.689 428.937, 443.620 425.745, 453.097 422.553, 462.574 419.362, 472.051 416.170, 481.528 412.978, 491.005 409.786, 500.482 408.889, 503.145 408.621, 503.592 408.373, 504.016 408.142, 504.406 407.925, 504.756 407.720, 505.056 407.524, 505.298 407.335, 505.474 407.149, 505.574 " />
            <path fill="none" stroke-width="3.0" stroke-linecap="butt" stroke-opacity="1.0" stroke="rgb(0, 0, 0)" stroke-linejoin="miter" d=" M 407.149, 505.574 406.964, 505.592 406.778, 505.517 406.587, 505.342 406.390, 505.057 406.218, 504.732 406.049, 504.340 405.885, 503.880 405.727, 503.350 405.576, 502.747 405.433, 502.070 405.301, 501.318 405.180, 500.487 405.071, 499.576 404.977, 498.583 404.898, 497.505 404.835, 496.341 404.394, 486.351 403.953, 476.361 403.511, 466.370 403.070, 456.380 402.629, 446.390 402.188, 436.400 401.746, 426.409 401.305, 416.419 400.864, 406.429 400.695, 402.600 400.527, 398.229 400.443, 394.432 400.456, 391.181 400.579, 388.444 400.824, 386.193 401.203, 384.395 401.730, 383.021 402.419, 382.040 403.283, 381.421 404.338, 381.134 " />
            <path fill="none" stroke-width="3.0" stroke-linecap="butt" stroke-opacity="1.0" stroke="rgb(0, 0, 0)" stroke-linejoin="miter" d=" M 434.005, 660.950 427.883, 661.976 427.668, 662.139 427.485, 662.435 427.335, 662.868 427.220, 663.440 427.140, 664.154 427.095, 665.012 427.087, 666.018 427.116, 667.175 427.175, 668.121 427.277, 669.100 427.416, 670.099 427.588, 671.102 427.787, 672.097 428.009, 673.070 428.248, 674.006 428.498, 674.891 428.756, 675.711 429.015, 676.452 429.271, 677.100 429.518, 677.640 430.921, 680.400 432.297, 683.039 433.653, 685.586 434.998, 688.070 436.341, 690.520 437.688, 692.966 439.049, 695.437 440.433, 697.965 441.847, 700.580 443.302, 703.314 444.805, 706.199 446.368, 709.270 448.457, 713.481 450.557, 717.812 452.669, 722.245 454.792, 726.760 456.925, 731.339 459.069, 735.960 461.223, 740.605 463.387, 745.254 465.561, 749.886 467.746, 754.482 469.941, 759.019 472.147, 763.479 473.087, 765.286 473.947, 766.805 474.727, 768.041 475.426, 769.000 476.043, 769.690 476.576, 770.116 477.026, 770.285 477.391, 770.206 477.670, 769.884 477.864, 769.328 477.970, 768.546 477.989, 767.546 477.902, 766.075 477.714, 764.549 477.438, 762.981 477.088, 761.386 476.676, 759.777 476.216, 758.168 475.722, 756.571 475.206, 754.999 474.683, 753.465 474.164, 751.981 473.663, 750.560 473.193, 749.213 471.332, 743.921 469.628, 738.829 468.067, 733.907 466.633, 729.128 465.310, 724.465 464.085, 719.890 462.944, 715.379 461.872, 710.908 460.856, 706.451 459.883, 701.987 458.941, 697.492 458.015, 692.944 456.049, 683.140 454.082, 673.335 452.116, 663.530 451.874, 662.328 451.026, 658.099 449.715, 651.559 447.748, 641.755 445.781, 631.950 443.815, 622.145 441.848, 612.340 439.882, 602.536 437.915, 592.731 435.949, 582.926 434.401, 575.211 433.507, 570.751 431.540, 560.947 429.574, 551.142 427.607, 541.337 425.641, 531.533 423.674, 521.728 422.811, 517.424 422.340, 515.075 422.004, 513.336 421.720, 511.670 421.488, 510.085 421.308, 508.584 421.180, 507.175 421.105, 505.863 421.082, 504.654 421.109, 503.665 421.112, 503.555 421.196, 502.571 421.333, 501.709 421.525, 500.975 421.771, 500.376 423.373, 497.057 424.961, 493.581 426.542, 489.987 428.123, 486.316 429.710, 482.608 431.310, 478.908 432.932, 475.257 434.582, 471.702 436.268, 468.287 437.998, 465.060 439.781, 462.068 441.624, 459.361 442.855, 457.824 444.161, 456.468 445.553, 455.326 447.039, 454.432 448.632, 453.819 450.342, 453.524 " />
            <path fill="none" stroke-width="3.0" stroke-linecap="butt" stroke-opacity="1.0" stroke="rgb(0, 0, 0)" stroke-linejoin="miter" d=" M 391.458, 577.061 385.172, 578.004 384.945, 578.089 384.755, 578.307 384.601, 578.661 384.485, 579.153 384.407, 579.787 384.367, 580.563 384.367, 581.486 384.407, 582.557 384.483, 583.477 384.617, 584.500 384.801, 585.602 385.028, 586.758 385.291, 587.942 385.583, 589.129 385.895, 590.295 386.221, 591.413 386.553, 592.460 386.885, 593.408 387.208, 594.233 387.515, 594.909 389.147, 598.101 390.644, 600.901 392.019, 603.361 393.289, 605.537 394.470, 607.483 395.577, 609.257 396.629, 610.916 397.642, 612.521 398.634, 614.131 399.622, 615.807 400.626, 617.611 401.665, 619.605 402.709, 621.737 403.776, 624.015 404.875, 626.435 406.012, 628.995 407.197, 631.689 408.437, 634.517 409.742, 637.474 411.119, 640.560 412.580, 643.771 414.133, 647.108 415.788, 650.569 417.556, 654.154 417.928, 654.845 418.300, 655.430 418.664, 655.903 419.014, 656.253 419.342, 656.474 419.643, 656.557 419.910, 656.492 420.136, 656.273 420.314, 655.891 420.438, 655.338 420.500, 654.604 420.495, 653.684 420.413, 652.374 420.279, 651.091 420.099, 649.833 419.878, 648.599 419.621, 647.388 419.333, 646.199 419.020, 645.030 418.686, 643.880 418.337, 642.748 417.978, 641.631 417.614, 640.530 417.251, 639.440 415.812, 635.236 414.594, 631.482 413.573, 628.094 412.727, 624.988 412.033, 622.084 411.469, 619.301 411.015, 616.561 410.648, 613.786 410.350, 610.896 410.098, 607.815 409.873, 604.463 409.653, 600.762 409.304, 594.458 408.967, 588.168 408.641, 581.888 408.502, 579.120 408.325, 575.611 408.273, 574.538 408.017, 569.332 407.717, 563.046 407.422, 556.747 407.132, 550.430 406.845, 544.089 406.560, 537.720 406.275, 531.315 405.990, 524.871 405.952, 523.758 405.940, 522.790 405.954, 521.962 405.991, 521.270 406.050, 520.709 406.130, 520.276 406.228, 519.967 406.344, 519.777 406.474, 519.703 406.619, 519.740 406.776, 519.884 406.943, 520.131 407.149, 520.527 407.363, 521.025 407.587, 521.624 407.819, 522.328 408.061, 523.136 408.312, 524.052 408.572, 525.077 408.842, 526.211 409.121, 527.458 409.410, 528.817 409.708, 530.292 410.016, 531.882 411.910, 541.701 413.804, 551.520 415.698, 561.339 417.593, 571.158 417.964, 573.084 418.828, 577.562 420.722, 587.381 422.616, 597.200 424.510, 607.019 426.405, 616.838 428.299, 626.656 430.193, 636.475 431.362, 642.537 431.741, 644.527 432.093, 646.433 432.416, 648.257 432.712, 649.998 432.978, 651.657 433.216, 653.234 433.361, 654.277 433.424, 654.730 433.602, 656.145 433.750, 657.479 433.867, 658.733 433.953, 659.908 434.005, 660.950 434.007, 661.003 433.994, 662.226 433.914, 663.269 433.766, 664.126 433.548, 664.790 433.257, 665.258 432.892, 665.523 " />
            <path fill="none" stroke-width="3.0" stroke-linecap="butt" stroke-opacity="1.0" stroke="rgb(0, 0, 0)" stroke-linejoin="miter" d=" M 432.892, 665.523 432.451, 665.581 431.933, 665.426 431.335, 665.055 430.657, 664.463 429.897, 663.646 429.053, 662.600 428.716, 662.258 428.408, 662.038 428.130, 661.943 427.883, 661.976 " />
            <path fill="none" stroke-width="3.0" stroke-linecap="butt" stroke-opacity="1.0" stroke="rgb(0, 0, 0)" stroke-linejoin="miter" d=" M 390.018, 581.910 389.345, 581.779 388.527, 581.230 387.557, 580.283 386.426, 578.954 386.061, 578.528 385.730, 578.226 385.434, 578.051 385.172, 578.004 " />
            <path fill="none" stroke-width="3.0" stroke-linecap="butt" stroke-opacity="1.0" stroke="rgb(0, 0, 0)" stroke-linejoin="miter" d=" M 407.417, 381.446 417.354, 380.324 427.291, 379.202 437.228, 378.080 447.165, 376.958 457.102, 375.836 467.038, 374.714 476.975, 373.592 486.912, 372.470 496.849, 371.348 506.786, 370.226 516.723, 369.104 526.660, 367.982 536.596, 366.860 543.187, 366.116 553.123, 364.994 563.060, 363.872 573.203, 362.727 580.506, 361.902 580.960, 361.842 581.379, 361.717 581.760, 361.511 582.103, 361.208 582.407, 360.791 582.670, 360.245 582.891, 359.553 583.070, 358.700 583.205, 357.669 583.295, 356.445 583.339, 355.010 583.334, 353.851 583.286, 352.751 583.196, 351.714 583.067, 350.739 582.898, 349.828 582.692, 348.982 582.449, 348.204 582.171, 347.493 581.860, 346.852 581.515, 346.281 581.139, 345.782 580.734, 345.356 578.868, 343.663 576.831, 341.877 574.664, 340.023 572.409, 338.126 570.106, 336.208 567.794, 334.294 565.510, 332.404 563.291, 330.559 561.173, 328.781 559.189, 327.088 557.373, 325.498 555.759, 324.032 554.142, 322.482 552.395, 320.731 550.545, 318.822 548.620, 316.797 546.645, 314.695 544.647, 312.559 542.650, 310.425 540.679, 308.333 538.758, 306.320 536.911, 304.424 535.159, 302.679 533.525, 301.121 533.236, 300.907 532.940, 300.794 532.646, 300.783 522.695, 301.776 512.745, 302.769 502.794, 303.762 492.844, 304.755 482.893, 305.748 472.943, 306.742 462.992, 307.735 453.042, 308.728 443.091, 309.721 433.140, 310.714 423.190, 311.707 413.239, 312.700 403.289, 313.693 393.338, 314.687 383.388, 315.680 373.437, 316.673 371.635, 316.853 " />
            <path fill="none" stroke-width="3.0" stroke-linecap="butt" stroke-opacity="1.0" stroke="rgb(0, 0, 0)" stroke-linejoin="miter" d=" M 466.253, 461.563 476.170, 460.276 486.087, 458.989 496.004, 457.702 505.920, 456.415 515.837, 455.128 525.754, 453.841 535.671, 452.554 543.101, 451.590 553.018, 450.303 562.935, 449.016 568.478, 448.296 578.395, 447.009 588.311, 445.722 593.971, 444.988 603.888, 443.701 613.805, 442.414 618.985, 441.742 628.902, 440.455 638.819, 439.168 648.736, 437.881 658.652, 436.594 660.540, 436.349 661.243, 436.165 661.898, 435.809 662.488, 435.258 662.993, 434.489 663.396, 433.479 663.679, 432.205 663.822, 430.644 663.810, 429.323 663.678, 428.003 663.438, 426.695 663.100, 425.411 662.676, 424.161 662.178, 422.957 661.618, 421.809 661.007, 420.729 660.356, 419.727 659.678, 418.813 658.983, 417.999 658.284, 417.293 654.021, 413.370 650.015, 409.742 646.231, 406.363 642.631, 403.187 639.183, 400.171 635.854, 397.275 632.612, 394.459 629.429, 391.684 626.275, 388.913 623.123, 386.109 619.946, 383.239 616.719, 380.267 609.397, 373.457 603.396, 367.877 603.027, 367.594 602.648, 367.423 602.267, 367.364 592.332, 368.501 582.397, 369.639 572.462, 370.776 569.670, 371.096 559.735, 372.233 549.799, 373.371 543.179, 374.129 533.244, 375.266 523.308, 376.404 513.373, 377.541 503.438, 378.679 493.503, 379.816 483.568, 380.954 473.633, 382.091 463.698, 383.229 453.763, 384.366 443.828, 385.504 433.893, 386.641 423.957, 387.779 422.599, 387.934 " />
            <path fill="none" stroke-width="3.0" stroke-linecap="butt" stroke-opacity="1.0" stroke="rgb(0, 0, 0)" stroke-linejoin="miter" d=" M 569.670, 371.096 569.952, 369.118 570.477, 366.907 571.167, 365.131 572.043, 363.761 573.127, 362.765 573.203, 362.727 " />
            <path fill="none" stroke-width="3.0" stroke-linecap="butt" stroke-opacity="1.0" stroke="rgb(0, 0, 0)" stroke-linejoin="miter" d=" M 477.026, 770.285 486.850, 768.417 496.674, 766.548 506.498, 764.680 516.322, 762.811 526.146, 760.943 535.969, 759.074 545.793, 757.206 555.617, 755.337 565.441, 753.469 575.265, 751.600 585.089, 749.732 594.913, 747.864 604.737, 745.995 614.561, 744.127 624.384, 742.258 634.208, 740.390 644.032, 738.521 653.908, 736.643 654.446, 736.531 654.877, 736.190 655.198, 735.627 655.410, 734.851 655.511, 733.870 655.490, 732.438 655.327, 730.961 655.038, 729.452 654.642, 727.923 654.158, 726.386 653.605, 724.853 653.000, 723.335 652.362, 721.844 651.710, 720.390 651.061, 718.985 650.434, 717.639 649.846, 716.363 647.515, 711.352 645.400, 706.521 643.479, 701.844 641.733, 697.293 640.141, 692.845 638.685, 688.475 637.346, 684.160 636.105, 679.876 634.946, 675.602 633.850, 671.316 632.800, 666.998 631.779, 662.625 629.547, 652.878 627.314, 643.130 625.082, 633.383 622.849, 623.635 620.617, 613.887 618.384, 604.140 616.152, 594.392 613.920, 584.645 611.687, 574.897 609.455, 565.149 607.222, 555.402 604.990, 545.654 602.757, 535.906 600.525, 526.159 598.292, 516.411 596.060, 506.664 593.827, 496.916 592.568, 491.415 592.203, 489.738 591.909, 488.130 591.685, 486.596 591.531, 485.142 591.447, 483.773 591.433, 482.496 591.489, 481.316 591.614, 480.240 591.809, 479.273 592.073, 478.421 592.408, 477.691 592.813, 477.089 595.405, 473.739 597.987, 470.237 600.566, 466.622 603.149, 462.932 605.743, 459.209 608.355, 455.493 610.994, 451.826 613.666, 448.252 616.379, 444.814 618.985, 441.742 " />
            <path fill="none" stroke-width="3.0" stroke-linecap="butt" stroke-opacity="1.0" stroke="rgb(0, 0, 0)" stroke-linejoin="miter" d=" M 419.643, 656.557 429.508, 654.917 433.361, 654.277 " />
        </g>
    </g>
</svg>
