<?xml version='1.0' encoding='ascii'?>
<svg xmlns="http://www.w3.org/2000/svg" version="1.1" width="1080" height="1080">
    <g id="View Layer_LineSet" xmlns:inkscape="http://www.inkscape.org/namespaces/inkscape" inkscape:groupmode="lineset" inkscape:label="View Layer_LineSet">
        <g xmlns:inkscape="http://www.inkscape.org/namespaces/inkscape" inkscape:groupmode="layer" id="strokes" inkscape:label="strokes">
            <path fill="none" stroke-width="3.0" stroke-linecap="butt" stroke-opacity="1.0" stroke="rgb(0, 0, 0)" stroke-linejoin="miter" d=" M 414.101, 381.749 415.701, 381.729 417.581, 381.976 418.004, 381.976 418.396, 381.923 418.752, 381.803 419.072, 381.599 419.355, 381.294 419.509, 381.025 419.597, 380.871 419.797, 380.315 419.954, 379.607 420.066, 378.733 420.131, 377.675 420.147, 376.416 420.113, 374.940 420.050, 373.747 419.953, 372.614 419.823, 371.544 419.661, 370.538 419.469, 369.596 419.247, 368.722 418.998, 367.916 418.721, 367.178 418.418, 366.512 418.090, 365.917 417.739, 365.396 417.366, 364.949 415.662, 363.168 413.805, 361.289 411.833, 359.337 409.782, 357.339 407.689, 355.320 405.588, 353.303 403.514, 351.313 401.498, 349.372 399.573, 347.500 397.769, 345.718 396.116, 344.048 394.643, 342.507 393.165, 340.881 391.563, 339.046 389.865, 337.046 388.096, 334.925 386.280, 332.725 384.442, 330.488 382.606, 328.255 380.794, 326.066 379.030, 323.960 377.336, 321.974 375.732, 320.146 374.240, 318.513 373.978, 318.287 373.717, 318.166 373.462, 318.149 373.218, 318.237 372.989, 318.432 372.782, 318.734 372.601, 319.144 372.451, 319.663 372.337, 320.291 372.265, 321.030 372.239, 321.880 372.265, 322.843 372.351, 324.175 372.470, 325.453 372.619, 326.678 372.799, 327.851 373.007, 328.973 373.245, 330.045 373.510, 331.068 373.803, 332.042 374.121, 332.969 374.466, 333.848 374.836, 334.682 375.230, 335.471 376.915, 338.613 378.407, 341.595 379.715, 344.474 380.853, 347.307 381.833, 350.155 382.667, 353.077 383.371, 356.132 383.957, 359.379 384.439, 362.879 384.833, 366.690 385.152, 370.870 385.412, 375.478 385.898, 385.466 386.383, 395.454 386.869, 405.442 387.354, 415.430 387.839, 425.419 388.325, 435.407 388.810, 445.395 389.296, 455.383 389.781, 465.372 390.267, 475.360 390.752, 485.348 391.237, 495.336 391.723, 505.324 392.208, 515.313 392.694, 525.301 393.179, 535.289 393.664, 545.277 394.150, 555.265 394.635, 565.254 394.745, 567.518 394.905, 571.313 394.981, 574.563 394.961, 577.284 394.897, 578.366 394.831, 579.492 394.580, 581.205 394.196, 582.439 393.666, 583.209 392.980, 583.532 " />
            <path fill="none" stroke-width="3.0" stroke-linecap="butt" stroke-opacity="1.0" stroke="rgb(0, 0, 0)" stroke-linejoin="miter" d=" M 471.331, 452.870 473.653, 452.871 476.146, 453.259 478.824, 454.071 481.704, 455.346 484.801, 457.124 488.131, 459.449 488.736, 459.805 489.372, 460.104 490.026, 460.320 490.679, 460.431 491.315, 460.412 491.919, 460.239 492.472, 459.888 492.958, 459.334 493.360, 458.554 493.661, 457.522 493.844, 456.216 493.891, 454.610 493.815, 453.249 493.634, 451.885 493.359, 450.532 493.098, 449.562 493.001, 449.200 492.569, 447.902 492.075, 446.649 491.529, 445.454 490.943, 444.326 490.326, 443.278 489.689, 442.321 489.043, 441.465 488.398, 440.722 484.488, 436.581 480.817, 432.752 477.352, 429.183 474.059, 425.830 470.906, 422.645 467.864, 419.588 464.902, 416.614 461.994, 413.685 459.112, 410.761 456.230, 407.805 453.323, 404.779 450.369, 401.649 443.539, 394.345 438.170, 388.604 437.835, 388.306 437.497, 388.121 437.164, 388.053 436.841, 388.101 436.536, 388.269 436.256, 388.559 436.006, 388.971 435.794, 389.509 435.625, 390.173 435.508, 390.967 435.447, 391.891 435.450, 392.949 435.522, 394.423 435.637, 395.843 435.793, 397.212 435.991, 398.530 436.229, 399.798 436.506, 401.018 436.820, 402.189 437.172, 403.312 437.560, 404.390 437.983, 405.421 438.441, 406.407 438.932, 407.349 440.188, 409.617 441.341, 411.852 442.391, 414.054 443.336, 416.218 444.176, 418.343 444.911, 420.425 445.540, 422.462 446.064, 424.452 446.483, 426.392 446.796, 428.279 447.005, 430.112 447.108, 431.889 447.115, 432.991 447.068, 434.055 446.972, 435.084 446.829, 436.084 446.643, 437.060 446.416, 438.017 446.153, 438.958 445.855, 439.890 445.527, 440.817 445.171, 441.744 444.790, 442.675 444.387, 443.617 440.389, 452.783 436.392, 461.949 432.394, 471.115 428.396, 480.281 424.398, 489.447 420.401, 498.614 418.103, 503.881 417.757, 504.338 417.435, 504.770 417.136, 505.170 416.856, 505.527 416.592, 505.835 416.340, 506.084 416.096, 506.267 415.859, 506.374 " />
            <path fill="none" stroke-width="3.0" stroke-linecap="butt" stroke-opacity="1.0" stroke="rgb(0, 0, 0)" stroke-linejoin="miter" d=" M 415.859, 506.374 415.624, 506.397 415.388, 506.328 415.149, 506.159 414.902, 505.881 414.689, 505.561 414.481, 505.174 414.279, 504.718 414.086, 504.191 413.903, 503.592 413.732, 502.919 413.574, 502.169 413.433, 501.340 413.308, 500.430 413.203, 499.438 413.118, 498.361 413.056, 497.196 412.641, 487.204 412.227, 477.213 411.812, 467.221 411.397, 457.230 410.983, 447.239 410.568, 437.247 410.154, 427.256 409.739, 417.264 409.324, 407.273 409.162, 403.363 409.012, 398.987 408.962, 395.184 409.026, 391.925 409.222, 389.179 409.565, 386.915 410.073, 385.103 410.762, 383.712 411.651, 382.709 412.758, 382.065 414.101, 381.749 " />
            <path fill="none" stroke-width="3.0" stroke-linecap="butt" stroke-opacity="1.0" stroke="rgb(0, 0, 0)" stroke-linejoin="miter" d=" M 447.647, 660.789 439.888, 662.332 439.613, 662.505 439.377, 662.809 439.181, 663.249 439.027, 663.826 438.915, 664.545 438.845, 665.407 438.821, 666.415 438.841, 667.573 438.902, 668.519 439.017, 669.495 439.179, 670.490 439.383, 671.488 439.621, 672.477 439.887, 673.442 440.176, 674.370 440.481, 675.246 440.796, 676.058 441.114, 676.789 441.429, 677.428 441.734, 677.959 443.472, 680.665 445.176, 683.251 446.858, 685.746 448.526, 688.178 450.191, 690.575 451.862, 692.968 453.550, 695.385 455.265, 697.858 457.018, 700.416 458.819, 703.092 460.681, 705.917 462.614, 708.924 465.196, 713.050 467.790, 717.295 470.397, 721.640 473.017, 726.067 475.648, 730.555 478.291, 735.085 480.946, 739.638 483.614, 744.193 486.294, 748.730 488.988, 753.229 491.695, 757.669 494.416, 762.029 495.576, 763.794 496.640, 765.274 497.607, 766.474 498.475, 767.402 499.244, 768.063 499.911, 768.465 500.476, 768.614 500.938, 768.518 501.295, 768.183 501.547, 767.619 501.693, 766.832 501.731, 765.831 501.643, 764.364 501.427, 762.846 501.101, 761.292 500.682, 759.713 500.185, 758.123 499.628, 756.534 499.027, 754.959 498.399, 753.411 497.760, 751.901 497.127, 750.440 496.515, 749.041 495.941, 747.715 493.667, 742.506 491.590, 737.489 489.689, 732.635 487.947, 727.918 486.343, 723.311 484.862, 718.788 483.484, 714.325 482.194, 709.897 480.975, 705.483 479.810, 701.058 478.683, 696.600 477.579, 692.089 475.236, 682.368 472.893, 672.646 470.550, 662.924 470.064, 660.908 469.012, 656.541 467.380, 649.771 465.037, 640.049 462.694, 630.327 460.351, 620.606 458.008, 610.884 455.666, 601.162 453.323, 591.441 450.980, 581.719 449.001, 573.511 447.900, 568.942 445.557, 559.221 443.214, 549.499 440.871, 539.777 438.529, 530.056 436.186, 520.334 435.417, 517.147 434.992, 515.382 434.592, 513.651 434.256, 511.992 433.985, 510.411 433.778, 508.915 433.637, 507.507 433.560, 506.196 433.549, 504.985 433.603, 503.883 433.651, 503.487 433.723, 502.895 433.910, 502.027 434.163, 501.286 434.484, 500.678 436.563, 497.301 438.626, 493.767 440.682, 490.116 442.737, 486.388 444.802, 482.625 446.883, 478.868 448.989, 475.162 451.130, 471.551 453.314, 468.079 455.551, 464.795 457.850, 461.745 460.221, 458.979 461.801, 457.403 463.473, 456.006 465.249, 454.820 467.142, 453.879 469.165, 453.218 471.331, 452.870 " />
            <path fill="none" stroke-width="3.0" stroke-linecap="butt" stroke-opacity="1.0" stroke="rgb(0, 0, 0)" stroke-linejoin="miter" d=" M 394.897, 578.366 386.873, 579.792 386.583, 579.885 386.338, 580.111 386.137, 580.472 385.982, 580.971 385.873, 581.609 385.811, 582.390 385.797, 583.316 385.832, 584.390 385.916, 585.311 386.071, 586.333 386.290, 587.432 386.562, 588.583 386.879, 589.761 387.233, 590.942 387.613, 592.100 388.011, 593.211 388.419, 594.248 388.827, 595.188 389.226, 596.003 389.606, 596.670 391.636, 599.811 393.499, 602.564 395.212, 604.980 396.795, 607.115 398.268, 609.022 399.650, 610.759 400.962, 612.384 402.226, 613.954 403.463, 615.531 404.695, 617.174 405.944, 618.944 407.234, 620.904 408.530, 623.001 409.852, 625.244 411.212, 627.629 412.620, 630.150 414.085, 632.806 415.619, 635.592 417.232, 638.506 418.936, 641.544 420.743, 644.706 422.665, 647.989 424.715, 651.392 426.906, 654.914 427.369, 655.591 427.832, 656.163 428.287, 656.622 428.725, 656.959 429.139, 657.167 429.520, 657.237 429.859, 657.162 430.149, 656.934 430.381, 656.543 430.545, 655.983 430.635, 655.246 430.641, 654.323 430.557, 653.015 430.406, 651.734 430.196, 650.480 429.933, 649.253 429.625, 648.049 429.277, 646.869 428.896, 645.710 428.489, 644.571 428.063, 643.450 427.624, 642.346 427.179, 641.256 426.733, 640.178 424.969, 636.021 423.478, 632.307 422.232, 628.950 421.203, 625.870 420.364, 622.986 419.689, 620.218 419.152, 617.489 418.728, 614.721 418.390, 611.835 418.116, 608.756 417.878, 605.404 417.653, 601.702 417.302, 595.395 416.966, 589.103 416.644, 582.819 416.471, 579.330 416.334, 576.538 416.240, 574.571 416.034, 570.254 415.744, 563.964 415.461, 557.660 415.185, 551.338 414.913, 544.991 414.643, 538.616 414.375, 532.206 414.107, 525.755 414.075, 524.642 414.074, 523.672 414.103, 522.841 414.161, 522.146 414.244, 521.582 414.351, 521.145 414.481, 520.832 414.630, 520.637 414.797, 520.558 414.980, 520.590 415.177, 520.729 415.386, 520.971 415.641, 521.362 415.906, 521.853 416.181, 522.446 416.466, 523.143 416.761, 523.946 417.067, 524.855 417.382, 525.873 417.708, 527.001 418.044, 528.240 418.391, 529.593 418.748, 531.061 419.115, 532.644 421.369, 542.387 423.623, 552.130 425.877, 561.872 428.131, 571.615 428.318, 572.424 429.381, 577.021 431.635, 586.763 433.889, 596.506 436.143, 606.249 438.396, 615.992 440.650, 625.734 442.904, 635.477 444.579, 642.719 445.030, 644.697 445.448, 646.593 445.832, 648.406 446.181, 650.138 446.494, 651.789 446.773, 653.359 446.847, 653.820 447.015, 654.849 447.220, 656.259 447.388, 657.589 447.518, 658.841 447.610, 660.013 447.647, 660.789 447.663, 661.108 447.628, 662.334 447.512, 663.382 447.312, 664.246 447.025, 664.921 446.650, 665.401 446.184, 665.681 " />
            <path fill="none" stroke-width="3.0" stroke-linecap="butt" stroke-opacity="1.0" stroke="rgb(0, 0, 0)" stroke-linejoin="miter" d=" M 446.184, 665.681 445.625, 665.757 444.970, 665.624 444.219, 665.276 443.368, 664.711 442.417, 663.924 441.363, 662.910 440.940, 662.581 440.553, 662.373 440.202, 662.289 439.888, 662.332 " />
            <path fill="none" stroke-width="3.0" stroke-linecap="butt" stroke-opacity="1.0" stroke="rgb(0, 0, 0)" stroke-linejoin="miter" d=" M 392.980, 583.532 392.126, 583.425 391.094, 582.905 389.873, 581.991 388.454, 580.699 387.997, 580.285 387.580, 579.994 387.205, 579.829 386.873, 579.792 " />
            <path fill="none" stroke-width="3.0" stroke-linecap="butt" stroke-opacity="1.0" stroke="rgb(0, 0, 0)" stroke-linejoin="miter" d=" M 418.396, 381.923 428.307, 380.596 438.218, 379.268 448.130, 377.940 458.041, 376.612 467.953, 375.284 477.864, 373.956 487.776, 372.628 497.687, 371.301 507.599, 369.973 517.510, 368.645 527.422, 367.317 537.333, 365.989 544.015, 365.094 553.926, 363.766 563.838, 362.438 573.749, 361.110 578.592, 360.462 587.835, 359.223 588.320, 359.089 588.761, 358.875 589.159, 358.564 589.510, 358.142 589.815, 357.592 590.071, 356.898 590.278, 356.045 590.434, 355.015 590.539, 353.793 590.590, 352.364 590.584, 351.209 590.528, 350.116 590.425, 349.084 590.275, 348.116 590.080, 347.213 589.841, 346.376 589.560, 345.607 589.238, 344.905 588.877, 344.274 588.478, 343.714 588.043, 343.225 587.573, 342.809 585.412, 341.166 583.052, 339.434 580.542, 337.636 577.929, 335.797 575.259, 333.938 572.579, 332.083 569.931, 330.251 567.358, 328.462 564.900, 326.737 562.599, 325.093 560.492, 323.549 558.618, 322.122 556.742, 320.612 554.715, 318.905 552.567, 317.043 550.332, 315.065 548.038, 313.012 545.717, 310.924 543.398, 308.839 541.108, 306.795 538.876, 304.828 536.729, 302.975 534.692, 301.271 532.793, 299.751 532.456, 299.544 532.113, 299.438 531.771, 299.433 521.840, 300.607 511.909, 301.781 501.978, 302.955 492.047, 304.129 482.116, 305.303 472.186, 306.477 462.255, 307.651 452.324, 308.825 442.393, 309.999 432.462, 311.174 422.531, 312.348 412.601, 313.522 402.670, 314.696 392.739, 315.870 382.808, 317.044 373.462, 318.149 " />
            <path fill="none" stroke-width="3.0" stroke-linecap="butt" stroke-opacity="1.0" stroke="rgb(0, 0, 0)" stroke-linejoin="miter" d=" M 491.315, 460.412 501.198, 458.886 511.081, 457.360 520.964, 455.833 530.847, 454.307 540.730, 452.781 543.905, 452.291 553.788, 450.765 563.671, 449.238 573.342, 447.745 583.225, 446.219 593.107, 444.693 601.810, 443.349 611.693, 441.823 621.576, 440.297 630.748, 438.880 640.631, 437.354 650.514, 435.828 660.397, 434.302 670.279, 432.775 679.703, 431.320 680.512, 431.119 681.265, 430.749 681.943, 430.186 682.525, 429.410 682.989, 428.396 683.313, 427.124 683.478, 425.571 683.465, 424.260 683.313, 422.953 683.036, 421.662 682.647, 420.395 682.160, 419.166 681.587, 417.983 680.942, 416.859 680.239, 415.802 679.491, 414.824 678.710, 413.935 677.911, 413.143 677.106, 412.461 672.198, 408.675 667.586, 405.174 663.227, 401.913 659.080, 398.849 655.106, 395.939 651.268, 393.144 647.530, 390.426 643.859, 387.747 640.220, 385.070 636.583, 382.360 632.915, 379.583 629.189, 376.707 621.304, 370.556 613.796, 364.700 613.369, 364.428 612.931, 364.267 612.491, 364.217 602.582, 365.564 592.673, 366.911 582.764, 368.258 574.643, 369.362 564.734, 370.709 554.825, 372.057 544.916, 373.404 544.004, 373.528 534.095, 374.875 524.187, 376.222 514.278, 377.569 504.369, 378.916 494.460, 380.263 484.551, 381.610 474.642, 382.957 464.733, 384.304 454.825, 385.652 444.916, 386.999 437.164, 388.053 " />
            <path fill="none" stroke-width="3.0" stroke-linecap="butt" stroke-opacity="1.0" stroke="rgb(0, 0, 0)" stroke-linejoin="miter" d=" M 574.643, 369.362 575.079, 366.731 575.688, 364.516 576.488, 362.730 577.503, 361.344 578.592, 360.462 " />
            <path fill="none" stroke-width="3.0" stroke-linecap="butt" stroke-opacity="1.0" stroke="rgb(0, 0, 0)" stroke-linejoin="miter" d=" M 500.938, 768.518 510.691, 766.310 520.445, 764.103 530.198, 761.895 539.951, 759.688 549.704, 757.480 559.458, 755.273 569.211, 753.065 578.964, 750.858 588.718, 748.650 598.471, 746.443 608.224, 744.235 617.978, 742.028 627.731, 739.820 637.484, 737.613 647.237, 735.405 656.991, 733.198 666.744, 730.990 672.696, 729.643 673.191, 729.288 673.562, 728.716 673.806, 727.937 673.922, 726.959 673.898, 725.536 673.710, 724.076 673.377, 722.588 672.921, 721.084 672.364, 719.576 671.727, 718.073 671.030, 716.588 670.296, 715.131 669.544, 713.712 668.797, 712.340 668.075, 711.027 667.397, 709.781 664.712, 704.890 662.274, 700.168 660.061, 695.591 658.048, 691.134 656.213, 686.771 654.534, 682.481 652.990, 678.240 651.559, 674.027 650.222, 669.820 648.958, 665.598 647.747, 661.342 646.569, 657.032 643.981, 647.372 641.393, 637.713 638.805, 628.054 636.217, 618.394 633.629, 608.735 631.041, 599.076 628.453, 589.416 625.865, 579.757 623.277, 570.098 620.689, 560.438 618.101, 550.779 615.513, 541.120 612.925, 531.461 610.337, 521.801 607.749, 512.142 605.161, 502.483 602.573, 492.823 601.266, 487.945 600.845, 486.286 600.505, 484.693 600.246, 483.172 600.068, 481.729 599.970, 480.369 599.954, 479.097 600.018, 477.921 600.163, 476.846 600.389, 475.877 600.695, 475.022 601.083, 474.286 601.551, 473.675 604.550, 470.266 607.537, 466.708 610.520, 463.038 613.507, 459.294 616.506, 455.518 619.526, 451.749 622.574, 448.029 625.661, 444.401 628.795, 440.908 630.748, 438.880 " />
            <path fill="none" stroke-width="3.0" stroke-linecap="butt" stroke-opacity="1.0" stroke="rgb(0, 0, 0)" stroke-linejoin="miter" d=" M 429.520, 657.237 439.331, 655.302 446.847, 653.820 " />
        </g>
    </g>
</svg>
