<?xml version='1.0' encoding='ascii'?>
<svg xmlns="http://www.w3.org/2000/svg" version="1.1" width="1080" height="1080">
    <g id="View Layer_LineSet" xmlns:inkscape="http://www.inkscape.org/namespaces/inkscape" inkscape:groupmode="lineset" inkscape:label="View Layer_LineSet">
        <g xmlns:inkscape="http://www.inkscape.org/namespaces/inkscape" inkscape:groupmode="layer" id="strokes" inkscape:label="strokes">
            <path fill="none" stroke-width="3.0" stroke-linecap="butt" stroke-opacity="1.0" stroke="rgb(0, 0, 0)" stroke-linejoin="miter" d=" M 418.818, 381.975 420.579, 381.936 422.645, 382.162 423.111, 382.156 423.542, 382.099 423.934, 381.975 424.288, 381.766 424.600, 381.458 424.819, 381.110 424.868, 381.032 425.092, 380.473 425.269, 379.763 425.396, 378.887 425.474, 377.827 425.498, 376.567 425.469, 375.091 425.406, 373.897 425.305, 372.765 425.168, 371.696 424.995, 370.691 424.789, 369.751 424.550, 368.879 424.280, 368.075 423.979, 367.340 423.650, 366.677 423.293, 366.086 422.909, 365.568 422.501, 365.125 420.637, 363.363 418.604, 361.503 416.445, 359.572 414.200, 357.596 411.907, 355.598 409.607, 353.604 407.335, 351.635 405.127, 349.714 403.018, 347.862 401.042, 346.098 399.231, 344.444 397.618, 342.918 395.999, 341.306 394.246, 339.487 392.387, 337.503 390.450, 335.399 388.463, 333.216 386.451, 330.996 384.441, 328.780 382.457, 326.607 380.526, 324.517 378.670, 322.546 376.913, 320.732 375.278, 319.113 374.991, 318.890 374.704, 318.771 374.423, 318.757 374.153, 318.848 373.900, 319.045 373.670, 319.350 373.469, 319.762 373.301, 320.283 373.172, 320.914 373.088, 321.654 373.055, 322.506 373.078, 323.470 373.166, 324.803 373.290, 326.082 373.447, 327.307 373.639, 328.480 373.863, 329.602 374.118, 330.673 374.405, 331.694 374.722, 332.667 375.068, 333.592 375.443, 334.469 375.846, 335.300 376.276, 336.085 378.116, 339.214 379.742, 342.184 381.168, 345.052 382.406, 347.877 383.470, 350.718 384.373, 353.635 385.131, 356.686 385.759, 359.931 386.271, 363.430 386.684, 367.242 387.013, 371.424 387.274, 376.034 387.754, 386.023 388.233, 396.011 388.713, 406.000 389.193, 415.988 389.672, 425.977 390.152, 435.965 390.632, 445.954 391.111, 455.942 391.591, 465.931 392.071, 475.919 392.550, 485.908 393.030, 495.896 393.510, 505.885 393.989, 515.873 394.469, 525.862 394.949, 535.850 395.428, 545.839 395.908, 555.827 396.388, 565.816 396.503, 568.214 396.658, 572.012 396.724, 575.265 396.686, 577.990 396.620, 578.935 396.531, 580.204 396.246, 581.924 395.816, 583.165 395.229, 583.945 394.472, 584.279 " />
            <path fill="none" stroke-width="3.0" stroke-linecap="butt" stroke-opacity="1.0" stroke="rgb(0, 0, 0)" stroke-linejoin="miter" d=" M 478.943, 452.775 481.322, 452.398 483.870, 452.369 486.604, 452.724 489.539, 453.500 492.692, 454.736 496.080, 456.473 499.721, 458.752 500.382, 459.100 501.079, 459.389 501.794, 459.597 502.510, 459.699 503.208, 459.671 503.871, 459.491 504.479, 459.132 505.016, 458.573 505.461, 457.787 505.796, 456.752 506.004, 455.444 506.064, 453.839 505.988, 452.480 505.797, 451.120 505.503, 449.771 505.128, 448.482 505.117, 448.445 504.650, 447.154 504.115, 445.908 503.523, 444.720 502.886, 443.601 502.215, 442.562 501.522, 441.614 500.818, 440.767 500.114, 440.032 495.847, 435.945 491.841, 432.164 488.058, 428.642 484.462, 425.331 481.019, 422.188 477.695, 419.169 474.460, 416.234 471.283, 413.341 468.134, 410.454 464.985, 407.533 461.809, 404.543 458.580, 401.449 451.393, 394.495 445.247, 388.549 444.880, 388.254 444.510, 388.073 444.144, 388.009 443.789, 388.061 443.453, 388.233 443.143, 388.526 442.866, 388.941 442.630, 389.482 442.442, 390.149 442.308, 390.944 442.236, 391.869 442.234, 392.928 442.305, 394.401 442.423, 395.820 442.588, 397.188 442.798, 398.504 443.053, 399.770 443.350, 400.986 443.690, 402.154 444.071, 403.274 444.491, 404.346 444.951, 405.373 445.448, 406.354 445.983, 407.290 447.351, 409.543 448.606, 411.765 449.748, 413.954 450.774, 416.107 451.686, 418.221 452.482, 420.295 453.163, 422.324 453.728, 424.308 454.177, 426.243 454.511, 428.127 454.730, 429.958 454.835, 431.733 454.835, 432.836 454.778, 433.900 454.667, 434.931 454.505, 435.933 454.295, 436.912 454.041, 437.871 453.746, 438.816 453.414, 439.752 453.049, 440.684 452.652, 441.615 452.229, 442.552 451.781, 443.499 447.441, 452.508 443.100, 461.517 438.760, 470.526 434.419, 479.535 430.079, 488.543 425.738, 497.552 422.557, 504.156 422.173, 504.618 421.817, 505.055 421.486, 505.459 421.176, 505.821 420.883, 506.133 420.605, 506.386 420.336, 506.572 420.074, 506.683 " />
            <path fill="none" stroke-width="3.0" stroke-linecap="butt" stroke-opacity="1.0" stroke="rgb(0, 0, 0)" stroke-linejoin="miter" d=" M 420.074, 506.683 419.816, 506.710 419.557, 506.644 419.294, 506.478 419.025, 506.203 418.792, 505.886 418.565, 505.501 418.345, 505.048 418.135, 504.524 417.937, 503.927 417.753, 503.255 417.584, 502.506 417.432, 501.679 417.300, 500.770 417.189, 499.779 417.102, 498.701 417.040, 497.536 416.639, 487.544 416.237, 477.552 415.835, 467.560 415.434, 457.568 415.032, 447.576 414.630, 437.584 414.229, 427.592 413.827, 417.600 413.425, 407.609 413.267, 403.667 413.126, 399.289 413.091, 395.483 413.179, 392.220 413.409, 389.469 413.800, 387.200 414.368, 385.380 415.135, 383.979 416.118, 382.965 417.339, 382.308 418.818, 381.975 " />
            <path fill="none" stroke-width="3.0" stroke-linecap="butt" stroke-opacity="1.0" stroke="rgb(0, 0, 0)" stroke-linejoin="miter" d=" M 454.180, 660.553 445.652, 662.381 445.348, 662.559 445.087, 662.868 444.870, 663.311 444.697, 663.892 444.569, 664.612 444.489, 665.476 444.456, 666.486 444.472, 667.644 444.534, 668.589 444.655, 669.564 444.828, 670.557 445.046, 671.552 445.303, 672.537 445.590, 673.498 445.903, 674.422 446.233, 675.293 446.575, 676.100 446.920, 676.826 447.263, 677.460 447.596, 677.985 449.491, 680.662 451.350, 683.220 453.185, 685.686 455.005, 688.089 456.821, 690.458 458.644, 692.821 460.486, 695.209 462.356, 697.651 464.268, 700.179 466.233, 702.823 468.262, 705.615 470.368, 708.587 473.182, 712.666 476.008, 716.864 478.847, 721.162 481.699, 725.540 484.563, 729.979 487.439, 734.460 490.329, 738.962 493.232, 743.466 496.149, 747.951 499.080, 752.397 502.026, 756.784 504.987, 761.090 506.250, 762.832 507.410, 764.290 508.464, 765.471 509.411, 766.382 510.250, 767.028 510.980, 767.416 511.599, 767.554 512.105, 767.449 512.499, 767.108 512.778, 766.539 512.942, 765.749 512.990, 764.748 512.900, 763.283 512.672, 761.771 512.323, 760.223 511.872, 758.653 511.336, 757.073 510.733, 755.496 510.083, 753.934 509.402, 752.398 508.710, 750.901 508.023, 749.453 507.360, 748.066 506.737, 746.751 504.271, 741.587 502.019, 736.611 499.961, 731.795 498.074, 727.112 496.340, 722.535 494.738, 718.041 493.251, 713.604 491.859, 709.201 490.545, 704.809 489.290, 700.406 488.078, 695.970 486.890, 691.479 484.371, 681.801 481.852, 672.124 479.334, 662.446 478.694, 659.989 477.538, 655.548 475.743, 648.652 473.224, 638.974 470.705, 629.297 468.187, 619.619 465.668, 609.941 463.149, 600.264 460.630, 590.586 458.111, 580.909 455.909, 572.446 454.704, 567.818 452.185, 558.140 449.666, 548.463 447.147, 538.785 444.628, 529.108 442.110, 519.430 441.442, 516.866 441.066, 515.422 440.636, 513.696 440.276, 512.041 439.986, 510.463 439.767, 508.969 439.619, 507.563 439.542, 506.251 439.536, 505.041 439.602, 503.937 439.697, 503.253 439.739, 502.946 439.949, 502.075 440.232, 501.330 440.588, 500.717 442.891, 497.309 445.178, 493.745 447.457, 490.064 449.737, 486.306 452.025, 482.512 454.332, 478.726 456.667, 474.990 459.038, 471.349 461.456, 467.847 463.931, 464.533 466.472, 461.452 469.091, 458.654 470.834, 457.057 472.678, 455.638 474.635, 454.429 476.718, 453.463 478.943, 452.775 " />
            <path fill="none" stroke-width="3.0" stroke-linecap="butt" stroke-opacity="1.0" stroke="rgb(0, 0, 0)" stroke-linejoin="miter" d=" M 396.620, 578.935 387.765, 580.630 387.446, 580.728 387.175, 580.958 386.952, 581.323 386.778, 581.825 386.655, 582.466 386.582, 583.249 386.562, 584.177 386.594, 585.252 386.682, 586.173 386.847, 587.194 387.082, 588.291 387.375, 589.440 387.718, 590.615 388.101, 591.792 388.514, 592.946 388.946, 594.052 389.390, 595.085 389.834, 596.019 390.268, 596.830 390.684, 597.491 392.903, 600.604 394.939, 603.331 396.812, 605.723 398.544, 607.834 400.154, 609.720 401.666, 611.437 403.102, 613.042 404.485, 614.594 405.838, 616.153 407.185, 617.777 408.551, 619.529 409.960, 621.470 411.375, 623.548 412.818, 625.772 414.302, 628.137 415.837, 630.638 417.434, 633.272 419.107, 636.035 420.866, 638.924 422.724, 641.937 424.695, 645.071 426.791, 648.324 429.028, 651.695 431.418, 655.182 431.924, 655.853 432.430, 656.417 432.928, 656.868 433.408, 657.198 433.862, 657.399 434.280, 657.463 434.654, 657.382 434.973, 657.148 435.230, 656.753 435.414, 656.190 435.517, 655.451 435.529, 654.527 435.443, 653.219 435.284, 651.940 435.060, 650.689 434.778, 649.464 434.445, 648.265 434.069, 647.090 433.657, 645.937 433.215, 644.804 432.753, 643.689 432.276, 642.591 431.792, 641.508 431.308, 640.437 429.390, 636.306 427.770, 632.613 426.418, 629.275 425.303, 626.209 424.396, 623.336 423.669, 620.577 423.093, 617.854 422.641, 615.090 422.285, 612.207 422.000, 609.129 421.757, 605.777 421.530, 602.076 421.178, 595.768 420.842, 589.474 420.522, 583.189 420.332, 579.298 420.215, 576.907 420.099, 574.441 419.919, 570.622 419.634, 564.329 419.358, 558.024 419.088, 551.699 418.823, 545.351 418.561, 538.973 418.302, 532.561 418.042, 526.108 418.012, 524.994 418.016, 524.023 418.053, 523.191 418.120, 522.494 418.215, 521.928 418.335, 521.490 418.479, 521.174 418.644, 520.978 418.829, 520.896 419.030, 520.925 419.246, 521.062 419.475, 521.301 419.753, 521.688 420.042, 522.176 420.341, 522.765 420.651, 523.459 420.971, 524.258 421.302, 525.163 421.644, 526.178 421.996, 527.302 422.359, 528.538 422.733, 529.886 423.118, 531.350 423.514, 532.929 425.936, 542.632 428.358, 552.334 430.781, 562.036 433.249, 571.924 434.413, 576.586 436.836, 586.288 439.258, 595.991 441.680, 605.693 444.103, 615.395 446.525, 625.097 448.947, 634.799 450.914, 642.676 451.399, 644.647 451.848, 646.537 452.259, 648.345 452.633, 650.072 452.969, 651.718 453.266, 653.284 453.291, 653.423 453.524, 654.770 453.742, 656.177 453.919, 657.505 454.056, 658.755 454.150, 659.927 454.180, 660.553 454.203, 661.021 454.158, 662.248 454.025, 663.299 453.800, 664.167 453.482, 664.847 453.067, 665.334 452.553, 665.622 " />
            <path fill="none" stroke-width="3.0" stroke-linecap="butt" stroke-opacity="1.0" stroke="rgb(0, 0, 0)" stroke-linejoin="miter" d=" M 452.553, 665.622 451.938, 665.708 451.219, 665.586 450.395, 665.252 449.463, 664.701 448.422, 663.929 447.269, 662.934 446.806, 662.612 446.382, 662.411 445.997, 662.333 445.652, 662.381 " />
            <path fill="none" stroke-width="3.0" stroke-linecap="butt" stroke-opacity="1.0" stroke="rgb(0, 0, 0)" stroke-linejoin="miter" d=" M 394.472, 584.279 393.532, 584.186 392.398, 583.681 391.058, 582.784 389.503, 581.514 389.001, 581.106 388.544, 580.821 388.131, 580.662 387.765, 580.630 " />
            <path fill="none" stroke-width="3.0" stroke-linecap="butt" stroke-opacity="1.0" stroke="rgb(0, 0, 0)" stroke-linejoin="miter" d=" M 423.542, 382.099 433.439, 380.670 443.336, 379.242 453.234, 377.813 463.131, 376.384 473.029, 374.956 482.926, 373.527 492.823, 372.098 502.721, 370.670 512.618, 369.241 522.516, 367.812 532.413, 366.383 542.311, 364.955 544.310, 364.666 554.207, 363.238 564.104, 361.809 574.002, 360.380 580.975, 359.374 590.942, 357.935 591.457, 357.796 591.927, 357.577 592.349, 357.263 592.723, 356.839 593.047, 356.286 593.319, 355.591 593.539, 354.737 593.705, 353.708 593.816, 352.488 593.871, 351.060 593.864, 349.909 593.805, 348.818 593.695, 347.790 593.536, 346.826 593.328, 345.926 593.074, 345.093 592.776, 344.328 592.433, 343.632 592.049, 343.005 591.625, 342.450 591.163, 341.967 590.663, 341.557 588.365, 339.939 585.856, 338.234 583.186, 336.466 580.406, 334.656 577.567, 332.828 574.715, 331.003 571.898, 329.200 569.160, 327.441 566.545, 325.742 564.096, 324.124 561.854, 322.603 559.859, 321.197 557.862, 319.708 555.703, 318.024 553.417, 316.184 551.037, 314.231 548.595, 312.204 546.123, 310.141 543.653, 308.081 541.215, 306.061 538.837, 304.118 536.550, 302.287 534.380, 300.604 532.357, 299.104 531.998, 298.900 531.632, 298.797 531.268, 298.796 521.348, 300.058 511.428, 301.321 501.508, 302.583 491.588, 303.845 481.668, 305.108 471.748, 306.370 461.828, 307.633 451.908, 308.895 441.988, 310.158 432.068, 311.420 422.148, 312.683 412.228, 313.945 402.308, 315.208 392.388, 316.470 382.468, 317.733 374.423, 318.757 " />
            <path fill="none" stroke-width="3.0" stroke-linecap="butt" stroke-opacity="1.0" stroke="rgb(0, 0, 0)" stroke-linejoin="miter" d=" M 503.208, 459.671 513.072, 458.028 522.936, 456.384 532.800, 454.740 542.664, 453.096 544.190, 452.842 554.054, 451.198 563.918, 449.554 573.782, 447.910 575.514, 447.622 585.378, 445.978 595.242, 444.334 605.138, 442.685 615.002, 441.041 624.866, 439.397 634.730, 437.753 635.885, 437.561 645.748, 435.917 655.612, 434.273 665.476, 432.629 675.340, 430.985 685.204, 429.342 688.460, 428.799 689.317, 428.589 690.116, 428.211 690.834, 427.643 691.450, 426.862 691.942, 425.847 692.286, 424.576 692.461, 423.026 692.446, 421.721 692.285, 420.421 691.992, 419.137 691.580, 417.880 691.063, 416.661 690.456, 415.490 689.773, 414.377 689.028, 413.332 688.234, 412.366 687.407, 411.489 686.560, 410.710 685.707, 410.039 680.506, 406.323 675.617, 402.887 670.995, 399.686 666.597, 396.679 662.382, 393.823 658.311, 391.081 654.346, 388.412 650.450, 385.782 646.589, 383.153 642.728, 380.491 638.835, 377.762 634.879, 374.935 626.773, 369.079 618.532, 363.125 618.078, 362.858 617.613, 362.702 617.146, 362.657 607.251, 364.107 597.357, 365.557 587.463, 367.007 577.568, 368.456 576.871, 368.559 566.977, 370.009 557.082, 371.459 547.188, 372.908 544.298, 373.332 534.404, 374.782 524.509, 376.232 514.615, 377.682 504.721, 379.132 494.826, 380.582 484.932, 382.031 475.038, 383.481 465.143, 384.931 455.249, 386.381 445.355, 387.831 444.144, 388.009 " />
            <path fill="none" stroke-width="3.0" stroke-linecap="butt" stroke-opacity="1.0" stroke="rgb(0, 0, 0)" stroke-linejoin="miter" d=" M 576.871, 368.559 576.903, 368.241 577.375, 365.564 578.023, 363.346 578.874, 361.555 579.953, 360.161 580.975, 359.374 " />
            <path fill="none" stroke-width="3.0" stroke-linecap="butt" stroke-opacity="1.0" stroke="rgb(0, 0, 0)" stroke-linejoin="miter" d=" M 512.105, 767.449 521.820, 765.076 531.534, 762.703 541.249, 760.331 550.963, 757.958 560.678, 755.585 570.392, 753.212 580.106, 750.840 589.821, 748.467 599.535, 746.094 609.250, 743.721 618.964, 741.348 628.678, 738.976 638.393, 736.603 648.107, 734.230 657.822, 731.857 667.536, 729.484 677.251, 727.112 681.049, 726.184 681.575, 725.821 681.967, 725.245 682.226, 724.465 682.348, 723.487 682.324, 722.070 682.124, 720.617 681.771, 719.140 681.288, 717.649 680.697, 716.155 680.021, 714.669 679.283, 713.201 678.504, 711.761 677.707, 710.359 676.915, 709.005 676.149, 707.708 675.431, 706.478 672.583, 701.647 669.998, 696.982 667.650, 692.456 665.515, 688.046 663.568, 683.727 661.787, 679.477 660.149, 675.275 658.631, 671.097 657.213, 666.925 655.871, 662.736 654.586, 658.512 653.336, 654.233 650.583, 644.619 647.830, 635.005 645.077, 625.392 642.323, 615.778 639.570, 606.165 636.817, 596.551 634.064, 586.938 631.311, 577.324 628.557, 567.711 625.804, 558.097 623.051, 548.484 620.298, 538.870 617.545, 529.257 614.791, 519.643 612.038, 510.030 609.285, 500.416 606.532, 490.803 605.222, 486.228 604.774, 484.578 604.412, 482.993 604.137, 481.479 603.948, 480.041 603.844, 478.685 603.827, 477.417 603.895, 476.242 604.049, 475.167 604.289, 474.198 604.614, 473.341 605.026, 472.601 605.524, 471.986 608.711, 468.547 611.885, 464.959 615.054, 461.260 618.227, 457.489 621.413, 453.685 624.620, 449.888 627.858, 446.141 631.136, 442.485 634.463, 438.964 635.885, 437.561 " />
            <path fill="none" stroke-width="3.0" stroke-linecap="butt" stroke-opacity="1.0" stroke="rgb(0, 0, 0)" stroke-linejoin="miter" d=" M 434.280, 657.463 444.062, 655.384 453.291, 653.423 " />
        </g>
    </g>
</svg>
