<?xml version='1.0' encoding='ascii'?>
<svg xmlns="http://www.w3.org/2000/svg" version="1.1" width="1080" height="1080">
    <g id="View Layer_LineSet" xmlns:inkscape="http://www.inkscape.org/namespaces/inkscape" inkscape:groupmode="lineset" inkscape:label="View Layer_LineSet">
        <g xmlns:inkscape="http://www.inkscape.org/namespaces/inkscape" inkscape:groupmode="layer" id="strokes" inkscape:label="strokes">
            <path fill="none" stroke-width="3.0" stroke-linecap="butt" stroke-opacity="1.0" stroke="rgb(0, 0, 0)" stroke-linejoin="miter" d=" M 427.879, 382.284 429.940, 382.206 432.356, 382.384 432.902, 382.368 433.406, 382.301 433.867, 382.168 434.283, 381.951 434.651, 381.635 434.969, 381.203 435.013, 381.110 435.236, 380.638 435.449, 379.924 435.607, 379.044 435.707, 377.981 435.748, 376.719 435.727, 375.242 435.665, 374.049 435.557, 372.918 435.407, 371.851 435.215, 370.848 434.982, 369.912 434.710, 369.044 434.402, 368.245 434.057, 367.517 433.677, 366.860 433.265, 366.276 432.821, 365.766 432.347, 365.331 430.182, 363.608 427.820, 361.791 425.310, 359.905 422.699, 357.975 420.032, 356.024 417.356, 354.077 414.712, 352.154 412.143, 350.277 409.688, 348.467 407.388, 346.742 405.281, 345.124 403.404, 343.629 401.521, 342.048 399.482, 340.262 397.320, 338.313 395.067, 336.245 392.756, 334.098 390.415, 331.915 388.077, 329.735 385.769, 327.598 383.521, 325.542 381.360, 323.604 379.314, 321.821 377.409, 320.230 377.074, 320.013 376.738, 319.899 376.408, 319.891 376.090, 319.988 375.792, 320.191 375.518, 320.501 375.277, 320.919 375.075, 321.445 374.918, 322.079 374.813, 322.824 374.766, 323.679 374.784, 324.645 374.875, 325.980 375.007, 327.260 375.181, 328.486 375.395, 329.658 375.647, 330.779 375.938, 331.847 376.265, 332.866 376.628, 333.835 377.026, 334.755 377.458, 335.627 377.924, 336.452 378.421, 337.230 380.552, 340.329 382.435, 343.273 384.082, 346.118 385.508, 348.924 386.730, 351.750 387.763, 354.654 388.624, 357.696 389.330, 360.936 389.899, 364.433 390.347, 368.245 390.694, 372.430 390.957, 377.046 391.426, 387.035 391.894, 397.024 392.362, 407.013 392.830, 417.002 393.299, 426.991 393.767, 436.980 394.235, 446.970 394.704, 456.959 395.172, 466.948 395.640, 476.937 396.108, 486.926 396.577, 496.915 397.045, 506.904 397.513, 516.893 397.981, 526.882 398.450, 536.871 398.918, 546.860 399.386, 556.849 399.855, 566.838 399.978, 569.479 400.125, 573.282 400.172, 576.542 400.102, 579.275 400.043, 579.918 399.899, 581.500 399.548, 583.233 399.032, 584.490 398.336, 585.290 397.444, 585.649 " />
            <path fill="none" stroke-width="3.0" stroke-linecap="butt" stroke-opacity="1.0" stroke="rgb(0, 0, 0)" stroke-linejoin="miter" d=" M 497.455, 451.655 500.231, 451.219 503.201, 451.125 506.382, 451.410 509.793, 452.111 513.453, 453.266 517.381, 454.914 521.598, 457.097 522.364, 457.427 523.172, 457.699 524.002, 457.888 524.834, 457.971 525.647, 457.926 526.419, 457.728 527.130, 457.355 527.759, 456.783 528.284, 455.988 528.684, 454.946 528.938, 453.635 529.023, 452.031 528.947, 450.677 528.737, 449.324 528.407, 447.985 527.970, 446.671 527.685, 445.985 527.440, 445.394 526.829, 444.164 526.151, 442.993 525.420, 441.892 524.649, 440.872 523.851, 439.942 523.040, 439.114 522.228, 438.398 517.299, 434.423 512.670, 430.747 508.297, 427.321 504.139, 424.102 500.157, 421.046 496.312, 418.110 492.568, 415.254 488.889, 412.440 485.243, 409.629 481.597, 406.784 477.919, 403.870 474.180, 400.852 466.428, 394.535 458.729, 388.260 458.303, 387.974 457.872, 387.802 457.445, 387.745 457.030, 387.806 456.636, 387.986 456.271, 388.286 455.943, 388.708 455.662, 389.254 455.436, 389.925 455.272, 390.724 455.180, 391.651 455.167, 392.710 455.236, 394.182 455.361, 395.600 455.541, 396.964 455.775, 398.276 456.060, 399.536 456.397, 400.746 456.783, 401.906 457.217, 403.017 457.699, 404.081 458.226, 405.097 458.798, 406.066 459.414, 406.990 460.992, 409.211 462.437, 411.404 463.750, 413.566 464.929, 415.695 465.975, 417.788 466.885, 419.842 467.661, 421.856 468.302, 423.826 468.809, 425.750 469.182, 427.626 469.420, 429.451 469.526, 431.224 469.516, 432.327 469.440, 433.392 469.301, 434.426 469.102, 435.432 468.848, 436.416 468.542, 437.382 468.189, 438.335 467.793, 439.279 467.357, 440.219 466.885, 441.161 466.382, 442.109 465.851, 443.067 460.931, 451.773 456.011, 460.479 451.092, 469.185 446.172, 477.891 441.252, 486.597 436.332, 495.304 431.113, 504.541 430.659, 505.014 430.238, 505.462 429.847, 505.875 429.481, 506.246 429.135, 506.567 428.806, 506.828 428.490, 507.022 428.182, 507.140 " />
            <path fill="none" stroke-width="3.0" stroke-linecap="butt" stroke-opacity="1.0" stroke="rgb(0, 0, 0)" stroke-linejoin="miter" d=" M 428.182, 507.140 427.879, 507.174 427.577, 507.115 427.271, 506.956 426.958, 506.688 426.688, 506.377 426.426, 505.998 426.173, 505.550 425.932, 505.030 425.706, 504.438 425.496, 503.770 425.305, 503.025 425.135, 502.200 424.989, 501.294 424.869, 500.303 424.777, 499.226 424.715, 498.061 424.338, 488.068 423.962, 478.075 423.585, 468.082 423.208, 458.089 422.832, 448.096 422.455, 438.104 422.078, 428.111 421.701, 418.118 421.325, 408.125 421.174, 404.136 421.050, 399.754 421.045, 395.943 421.179, 392.673 421.475, 389.913 421.953, 387.631 422.636, 385.796 423.546, 384.375 424.707, 383.338 426.143, 382.651 427.879, 382.284 " />
            <path fill="none" stroke-width="3.0" stroke-linecap="butt" stroke-opacity="1.0" stroke="rgb(0, 0, 0)" stroke-linejoin="miter" d=" M 466.620, 659.817 456.907, 662.195 456.653, 662.257 456.296, 662.445 455.988, 662.763 455.730, 663.214 455.522, 663.801 455.366, 664.527 455.264, 665.394 455.216, 666.406 455.224, 667.565 455.288, 668.509 455.421, 669.481 455.614, 670.469 455.859, 671.458 456.150, 672.435 456.477, 673.388 456.834, 674.301 457.212, 675.163 457.603, 675.958 458.001, 676.674 458.395, 677.296 458.780, 677.811 460.969, 680.425 463.118, 682.921 465.239, 685.326 467.343, 687.669 469.442, 689.976 471.549, 692.278 473.677, 694.603 475.839, 696.982 478.047, 699.444 480.316, 702.020 482.658, 704.741 485.088, 707.640 488.333, 711.621 491.590, 715.718 494.861, 719.915 498.145, 724.190 501.443, 728.525 504.754, 732.900 508.080, 737.295 511.420, 741.690 514.776, 746.066 518.148, 750.401 521.536, 754.675 524.944, 758.867 526.397, 760.560 527.733, 761.974 528.948, 763.114 530.042, 763.988 531.012, 764.602 531.858, 764.963 532.576, 765.078 533.167, 764.953 533.628, 764.598 533.957, 764.019 534.155, 763.225 534.220, 762.223 534.130, 760.764 533.878, 759.262 533.486, 757.729 532.976, 756.178 532.366, 754.620 531.680, 753.067 530.938, 751.531 530.161, 750.022 529.369, 748.552 528.583, 747.131 527.824, 745.770 527.112, 744.480 524.290, 739.411 521.715, 734.522 519.362, 729.785 517.209, 725.173 515.232, 720.663 513.408, 716.229 511.717, 711.848 510.136, 707.497 508.646, 703.155 507.225, 698.798 505.853, 694.406 504.511, 689.959 501.665, 680.372 498.819, 670.786 495.973, 661.200 494.968, 657.814 493.602, 653.212 491.479, 646.061 488.633, 636.474 485.787, 626.888 482.941, 617.301 480.095, 607.715 477.249, 598.128 474.403, 588.542 471.557, 578.955 468.887, 569.964 467.476, 565.210 464.630, 555.624 461.784, 546.037 458.938, 536.451 456.092, 526.865 453.246, 517.278 452.885, 516.063 452.661, 515.308 452.174, 513.592 451.768, 511.946 451.445, 510.375 451.202, 508.885 451.042, 507.482 450.964, 506.172 450.969, 504.961 451.056, 503.854 451.226, 502.859 451.323, 502.524 451.480, 501.982 451.817, 501.228 452.239, 500.605 454.963, 497.132 457.669, 493.503 460.366, 489.759 463.064, 485.938 465.773, 482.083 468.503, 478.235 471.263, 474.437 474.065, 470.733 476.920, 467.169 479.839, 463.791 482.833, 460.646 485.914, 457.782 487.962, 456.141 490.125, 454.675 492.418, 453.417 494.856, 452.400 497.455, 451.655 " />
            <path fill="none" stroke-width="3.0" stroke-linecap="butt" stroke-opacity="1.0" stroke="rgb(0, 0, 0)" stroke-linejoin="miter" d=" M 400.043, 579.918 390.273, 582.049 389.607, 582.194 389.232, 582.302 388.911, 582.541 388.646, 582.914 388.437, 583.423 388.286, 584.070 388.194, 584.857 388.161, 585.789 388.189, 586.866 388.283, 587.787 388.468, 588.806 388.733, 589.899 389.067, 591.042 389.458, 592.211 389.896, 593.379 390.370, 594.524 390.867, 595.620 391.378, 596.642 391.891, 597.565 392.393, 598.365 392.875, 599.015 395.449, 602.068 397.813, 604.739 399.989, 607.079 402.000, 609.142 403.872, 610.982 405.629, 612.655 407.298, 614.219 408.905, 615.731 410.477, 617.250 412.041, 618.836 413.625, 620.548 415.259, 622.448 416.897, 624.486 418.567, 626.668 420.284, 628.990 422.059, 631.447 423.906, 634.034 425.839, 636.749 427.872, 639.586 430.020, 642.544 432.298, 645.619 434.722, 648.809 437.308, 652.111 440.073, 655.525 440.658, 656.179 441.245, 656.727 441.823, 657.162 442.382, 657.477 442.911, 657.663 443.400, 657.713 443.838, 657.619 444.214, 657.375 444.518, 656.971 444.739, 656.401 444.866, 655.657 444.889, 654.732 444.800, 653.424 444.626, 652.149 444.376, 650.903 444.057, 649.687 443.679, 648.497 443.250, 647.332 442.778, 646.191 442.273, 645.071 441.742, 643.970 441.194, 642.886 440.638, 641.817 440.082, 640.760 437.876, 636.686 436.015, 633.040 434.463, 629.739 433.186, 626.704 432.152, 623.855 431.326, 621.115 430.677, 618.406 430.173, 615.651 429.784, 612.775 429.479, 609.700 429.226, 606.350 428.994, 602.649 428.641, 596.341 428.307, 590.047 427.991, 583.760 427.762, 578.993 427.690, 577.476 427.528, 573.923 427.403, 571.189 427.128, 564.895 426.863, 558.586 426.606, 552.259 426.355, 545.907 426.109, 539.526 425.864, 533.110 425.620, 526.653 425.596, 525.538 425.610, 524.565 425.661, 523.731 425.746, 523.031 425.862, 522.462 426.007, 522.019 426.179, 521.699 426.374, 521.497 426.591, 521.410 426.827, 521.434 427.078, 521.565 427.344, 521.798 427.666, 522.178 428.000, 522.658 428.345, 523.240 428.701, 523.926 429.068, 524.717 429.447, 525.615 429.838, 526.621 430.240, 527.737 430.653, 528.965 431.079, 530.305 431.515, 531.760 431.964, 533.330 434.700, 542.949 437.437, 552.567 440.174, 562.185 442.579, 570.641 443.945, 575.440 446.682, 585.058 449.418, 594.677 452.155, 604.295 454.891, 613.913 457.628, 623.531 460.365, 633.150 462.986, 642.361 463.534, 644.317 464.040, 646.193 464.505, 647.989 464.926, 649.705 465.303, 651.341 465.520, 652.359 465.635, 652.899 465.923, 654.377 466.164, 655.778 466.359, 657.101 466.506, 658.347 466.606, 659.516 466.620, 659.817 466.657, 660.610 466.594, 661.839 466.428, 662.895 466.158, 663.771 465.779, 664.462 465.290, 664.963 464.687, 665.269 " />
            <path fill="none" stroke-width="3.0" stroke-linecap="butt" stroke-opacity="1.0" stroke="rgb(0, 0, 0)" stroke-linejoin="miter" d=" M 464.687, 665.269 463.968, 665.376 463.129, 665.278 462.170, 664.971 461.086, 664.451 459.876, 663.714 458.538, 662.756 458.000, 662.449 457.506, 662.262 457.056, 662.197 456.653, 662.257 " />
            <path fill="none" stroke-width="3.0" stroke-linecap="butt" stroke-opacity="1.0" stroke="rgb(0, 0, 0)" stroke-linejoin="miter" d=" M 397.444, 585.649 396.342, 585.584 395.016, 585.113 393.452, 584.254 391.638, 583.027 391.053, 582.634 390.519, 582.362 390.037, 582.215 389.607, 582.194 " />
            <path fill="none" stroke-width="3.0" stroke-linecap="butt" stroke-opacity="1.0" stroke="rgb(0, 0, 0)" stroke-linejoin="miter" d=" M 433.406, 382.301 443.273, 380.675 453.140, 379.049 463.007, 377.424 472.874, 375.798 482.741, 374.172 492.608, 372.546 502.475, 370.920 512.342, 369.294 522.209, 367.668 532.076, 366.042 541.943, 364.416 544.690, 363.963 554.557, 362.337 564.424, 360.711 574.291, 359.086 584.158, 357.460 585.120, 357.301 594.987, 355.675 596.532, 355.421 597.104, 355.272 597.625, 355.044 598.094, 354.723 598.509, 354.293 598.868, 353.736 599.170, 353.039 599.414, 352.184 599.599, 351.155 599.722, 349.938 599.782, 348.515 599.775, 347.369 599.709, 346.284 599.587, 345.262 599.410, 344.304 599.180, 343.413 598.898, 342.589 598.566, 341.832 598.186, 341.146 597.760, 340.529 597.290, 339.984 596.776, 339.512 596.221, 339.114 593.671, 337.547 590.885, 335.898 587.920, 334.188 584.833, 332.439 581.679, 330.672 578.511, 328.908 575.380, 327.166 572.337, 325.464 569.430, 323.821 566.707, 322.255 564.214, 320.781 561.995, 319.417 559.774, 317.970 557.372, 316.330 554.828, 314.539 552.179, 312.635 549.461, 310.659 546.709, 308.647 543.958, 306.637 541.243, 304.667 538.594, 302.772 536.046, 300.987 533.629, 299.347 531.374, 297.887 530.974, 297.690 530.567, 297.594 530.160, 297.599 520.263, 299.033 510.367, 300.468 500.470, 301.903 490.574, 303.338 480.677, 304.773 470.781, 306.208 460.884, 307.643 450.988, 309.078 441.091, 310.512 431.195, 311.947 421.298, 313.382 411.402, 314.817 401.505, 316.252 391.609, 317.687 381.712, 319.122 376.408, 319.891 " />
            <path fill="none" stroke-width="3.0" stroke-linecap="butt" stroke-opacity="1.0" stroke="rgb(0, 0, 0)" stroke-linejoin="miter" d=" M 525.647, 457.926 535.469, 456.051 544.557, 454.316 554.380, 452.440 564.203, 450.565 574.025, 448.690 579.374, 447.669 589.197, 445.794 599.019, 443.919 608.842, 442.044 610.636, 441.701 620.459, 439.826 630.282, 437.951 640.104, 436.075 644.697, 435.199 654.520, 433.324 664.342, 431.448 674.165, 429.573 683.987, 427.698 693.810, 425.823 703.633, 423.948 704.397, 423.802 705.341, 423.574 706.221, 423.181 707.013, 422.601 707.692, 421.812 708.233, 420.794 708.612, 419.524 708.804, 417.982 708.788, 416.687 708.610, 415.400 708.287, 414.133 707.833, 412.894 707.263, 411.696 706.594, 410.546 705.841, 409.457 705.019, 408.436 704.145, 407.495 703.233, 406.642 702.299, 405.888 701.358, 405.240 695.623, 401.664 690.230, 398.358 685.130, 395.279 680.275, 392.387 675.622, 389.640 671.125, 387.001 666.745, 384.434 662.440, 381.901 658.171, 379.370 653.903, 376.804 649.598, 374.172 645.221, 371.442 636.763, 366.108 628.304, 360.774 627.124, 360.030 626.621, 359.773 626.105, 359.627 625.588, 359.592 625.078, 359.669 615.215, 361.320 605.353, 362.971 595.490, 364.623 585.627, 366.274 580.820, 367.079 570.957, 368.730 561.095, 370.382 551.232, 372.033 544.677, 373.131 534.814, 374.782 524.951, 376.434 515.089, 378.085 505.226, 379.736 495.363, 381.388 485.501, 383.039 475.638, 384.690 465.775, 386.342 457.030, 387.806 " />
            <path fill="none" stroke-width="3.0" stroke-linecap="butt" stroke-opacity="1.0" stroke="rgb(0, 0, 0)" stroke-linejoin="miter" d=" M 580.820, 367.079 580.944, 365.973 581.468, 363.296 582.188, 361.072 583.133, 359.271 584.332, 357.860 585.120, 357.301 " />
            <path fill="none" stroke-width="3.0" stroke-linecap="butt" stroke-opacity="1.0" stroke="rgb(0, 0, 0)" stroke-linejoin="miter" d=" M 533.167, 764.953 542.797, 762.259 552.427, 759.564 562.057, 756.870 571.687, 754.175 581.317, 751.481 590.948, 748.786 600.578, 746.092 610.208, 743.397 619.838, 740.703 629.468, 738.008 639.098, 735.314 648.728, 732.619 658.359, 729.925 667.989, 727.230 677.619, 724.536 687.249, 721.841 696.274, 719.316 696.854, 718.938 697.287, 718.353 697.572, 717.569 697.707, 716.594 697.679, 715.187 697.458, 713.751 697.069, 712.295 696.536, 710.830 695.884, 709.365 695.138, 707.911 694.323, 706.477 693.464, 705.071 692.585, 703.704 691.711, 702.385 690.865, 701.121 690.073, 699.923 686.929, 695.215 684.075, 690.662 681.482, 686.240 679.124, 681.925 676.974, 677.694 675.006, 673.526 673.196, 669.400 671.519, 665.295 669.951, 661.191 668.468, 657.068 667.048, 652.908 665.666, 648.692 662.607, 639.171 659.548, 629.650 656.489, 620.130 653.430, 610.609 650.371, 601.089 647.312, 591.568 644.253, 582.047 641.194, 572.527 638.135, 563.006 635.076, 553.485 632.017, 543.965 628.958, 534.444 625.899, 524.923 622.840, 515.403 619.781, 505.882 616.722, 496.362 613.663, 486.841 612.385, 482.861 611.888, 481.230 611.487, 479.660 611.181, 478.159 610.971, 476.732 610.857, 475.384 610.837, 474.122 610.912, 472.951 611.083, 471.877 611.349, 470.906 611.710, 470.044 612.167, 469.298 612.719, 468.673 616.251, 465.172 619.769, 461.525 623.281, 457.767 626.796, 453.938 630.324, 450.078 633.875, 446.225 637.459, 442.421 641.087, 438.708 644.697, 435.199 " />
            <path fill="none" stroke-width="3.0" stroke-linecap="butt" stroke-opacity="1.0" stroke="rgb(0, 0, 0)" stroke-linejoin="miter" d=" M 443.838, 657.619 453.556, 655.262 463.274, 652.904 465.520, 652.359 " />
        </g>
    </g>
</svg>
