<?xml version='1.0' encoding='ascii'?>
<svg xmlns="http://www.w3.org/2000/svg" version="1.1" width="1080" height="1080">
    <g id="View Layer_LineSet" xmlns:inkscape="http://www.inkscape.org/namespaces/inkscape" inkscape:groupmode="lineset" inkscape:label="View Layer_LineSet">
        <g xmlns:inkscape="http://www.inkscape.org/namespaces/inkscape" inkscape:groupmode="layer" id="strokes" inkscape:label="strokes">
            <path fill="none" stroke-width="3.0" stroke-linecap="butt" stroke-opacity="1.0" stroke="rgb(0, 0, 0)" stroke-linejoin="miter" d=" M 432.205, 382.375 434.407, 382.276 436.986, 382.430 437.569, 382.408 438.108, 382.336 438.601, 382.198 439.045, 381.978 439.439, 381.658 439.781, 381.222 439.875, 381.036 440.068, 380.654 440.299, 379.938 440.470, 379.055 440.581, 377.992 440.630, 376.729 440.613, 375.251 440.550, 374.058 440.440, 372.928 440.283, 371.862 440.082, 370.861 439.837, 369.927 439.550, 369.061 439.224, 368.265 438.858, 367.540 438.455, 366.887 438.017, 366.306 437.545, 365.801 437.041, 365.370 434.735, 363.668 432.219, 361.873 429.545, 360.010 426.763, 358.104 423.922, 356.178 421.070, 354.255 418.253, 352.356 415.514, 350.503 412.898, 348.714 410.447, 347.011 408.201, 345.411 406.200, 343.932 404.193, 342.368 402.020, 340.599 399.716, 338.669 397.315, 336.619 394.851, 334.492 392.357, 332.328 389.865, 330.168 387.405, 328.049 385.008, 326.011 382.704, 324.090 380.521, 322.324 378.489, 320.748 378.132, 320.533 377.773, 320.423 377.420, 320.417 377.080, 320.517 376.759, 320.724 376.466, 321.037 376.206, 321.457 375.988, 321.985 375.818, 322.622 375.702, 323.369 375.649, 324.225 375.664, 325.193 375.756, 326.529 375.894, 327.809 376.075, 329.035 376.299, 330.207 376.565, 331.326 376.871, 332.394 377.218, 333.411 377.602, 334.377 378.025, 335.295 378.484, 336.164 378.979, 336.986 379.508, 337.761 381.776, 340.844 383.778, 343.773 385.529, 346.607 387.045, 349.402 388.341, 352.219 389.435, 355.117 390.344, 358.155 391.087, 361.391 391.682, 364.886 392.147, 368.698 392.502, 372.885 392.766, 377.503 393.229, 387.493 393.691, 397.482 394.154, 407.471 394.617, 417.461 395.079, 427.450 395.542, 437.439 396.005, 447.428 396.467, 457.418 396.930, 467.407 397.393, 477.396 397.855, 487.385 398.318, 497.375 398.781, 507.364 399.243, 517.353 399.706, 527.343 400.169, 537.332 400.631, 547.321 401.094, 557.311 401.557, 567.300 401.684, 570.050 401.827, 573.856 401.864, 577.118 401.779, 579.856 401.731, 580.334 401.554, 582.086 401.172, 583.826 400.615, 585.092 399.868, 585.902 398.913, 586.273 " />
            <path fill="none" stroke-width="3.0" stroke-linecap="butt" stroke-opacity="1.0" stroke="rgb(0, 0, 0)" stroke-linejoin="miter" d=" M 506.169, 451.000 509.129, 450.532 512.293, 450.405 515.681, 450.655 519.312, 451.316 523.206, 452.429 527.382, 454.031 531.864, 456.164 532.678, 456.486 533.538, 456.747 534.421, 456.927 535.306, 457.001 536.171, 456.946 536.995, 456.740 537.753, 456.360 538.425, 455.781 538.987, 454.981 539.416, 453.936 539.691, 452.623 539.787, 451.021 539.711, 449.668 539.493, 448.320 539.147, 446.986 538.687, 445.679 538.217, 444.614 538.126, 444.409 537.481, 443.187 536.764, 442.025 535.989, 440.933 535.172, 439.922 534.326, 439.003 533.466, 438.185 532.604, 437.478 527.371, 433.561 522.455, 429.939 517.811, 426.564 513.394, 423.392 509.162, 420.381 505.076, 417.488 501.097, 414.674 497.187, 411.900 493.311, 409.129 489.435, 406.324 485.524, 403.449 481.548, 400.471 473.573, 394.438 465.598, 388.405 465.114, 388.040 464.661, 387.758 464.202, 387.590 463.747, 387.538 463.303, 387.603 462.882, 387.787 462.491, 388.090 462.141, 388.516 461.839, 389.065 461.594, 389.738 461.417, 390.539 461.315, 391.467 461.298, 392.526 461.366, 393.998 461.494, 395.414 461.681, 396.776 461.925, 398.086 462.225, 399.343 462.579, 400.549 462.987, 401.706 463.446, 402.812 463.956, 403.871 464.515, 404.881 465.122, 405.845 465.775, 406.762 467.450, 408.966 468.984, 411.144 470.377, 413.292 471.627, 415.408 472.734, 417.490 473.698, 419.534 474.518, 421.539 475.194, 423.502 475.728, 425.420 476.118, 427.292 476.366, 429.114 476.472, 430.886 476.457, 431.988 476.372, 433.055 476.219, 434.090 476.004, 435.098 475.729, 436.084 475.399, 437.053 475.020, 438.010 474.593, 438.958 474.125, 439.903 473.618, 440.850 473.078, 441.803 472.507, 442.767 467.345, 451.331 462.182, 459.896 457.020, 468.460 451.857, 477.024 446.695, 485.589 441.532, 494.153 436.369, 502.717 435.199, 504.659 434.713, 505.138 434.262, 505.591 433.842, 506.010 433.450, 506.386 433.079, 506.711 432.727, 506.976 432.388, 507.174 432.059, 507.295 " />
            <path fill="none" stroke-width="3.0" stroke-linecap="butt" stroke-opacity="1.0" stroke="rgb(0, 0, 0)" stroke-linejoin="miter" d=" M 432.059, 507.295 431.736, 507.333 431.413, 507.278 431.087, 507.123 430.753, 506.859 430.466, 506.550 430.187, 506.174 429.919, 505.729 429.664, 505.212 429.424, 504.622 429.203, 503.956 429.001, 503.213 428.823, 502.390 428.671, 501.485 428.546, 500.495 428.451, 499.419 428.390, 498.253 428.025, 488.260 427.660, 478.266 427.296, 468.273 426.931, 458.280 426.566, 448.286 426.202, 438.293 425.837, 428.300 425.472, 418.306 425.107, 408.313 424.961, 404.307 424.845, 399.924 424.854, 396.111 425.009, 392.838 425.335, 390.073 425.855, 387.784 426.592, 385.941 427.569, 384.511 428.814, 383.461 430.350, 382.759 432.205, 382.375 " />
            <path fill="none" stroke-width="3.0" stroke-linecap="butt" stroke-opacity="1.0" stroke="rgb(0, 0, 0)" stroke-linejoin="miter" d=" M 472.510, 659.335 462.831, 661.850 461.874, 662.099 461.493, 662.292 461.163, 662.614 460.885, 663.069 460.661, 663.660 460.493, 664.388 460.380, 665.257 460.325, 666.270 460.329, 667.429 460.394, 668.373 460.532, 669.343 460.734, 670.328 460.993, 671.314 461.299, 672.287 461.645, 673.235 462.022, 674.144 462.422, 674.999 462.837, 675.789 463.258, 676.499 463.677, 677.116 464.085, 677.625 466.412, 680.207 468.696, 682.671 470.949, 685.044 473.185, 687.354 475.416, 689.630 477.655, 691.900 479.916, 694.193 482.213, 696.538 484.558, 698.966 486.968, 701.507 489.455, 704.191 492.036, 707.052 495.480, 710.981 498.937, 715.027 502.408, 719.170 505.892, 723.392 509.390, 727.673 512.902, 731.993 516.429, 736.332 519.971, 740.672 523.529, 744.990 527.104, 749.268 530.698, 753.483 534.310, 757.617 535.852, 759.284 537.268, 760.675 538.558, 761.794 539.719, 762.649 540.750, 763.246 541.648, 763.593 542.413, 763.695 543.042, 763.562 543.534, 763.199 543.887, 762.615 544.101, 761.818 544.173, 760.816 544.082, 759.360 543.820, 757.863 543.409, 756.339 542.871, 754.797 542.228, 753.251 541.504, 751.710 540.719, 750.187 539.897, 748.693 539.060, 747.237 538.228, 745.830 537.425, 744.483 536.672, 743.205 533.686, 738.186 530.962, 733.342 528.475, 728.646 526.198, 724.072 524.109, 719.596 522.183, 715.193 520.398, 710.842 518.730, 706.518 517.159, 702.201 515.661, 697.869 514.216, 693.500 512.803, 689.076 509.805, 679.536 506.808, 669.995 503.811, 660.455 502.595, 656.587 501.123, 651.901 498.835, 644.617 495.837, 635.077 492.840, 625.537 489.843, 615.997 486.846, 606.456 483.848, 596.916 480.851, 587.376 477.854, 577.836 474.945, 568.578 473.431, 563.759 470.434, 554.219 467.436, 544.679 464.439, 535.138 461.442, 525.598 458.444, 516.058 458.288, 515.559 458.164, 515.166 457.651, 513.457 457.224, 511.815 456.884, 510.248 456.632, 508.760 456.466, 507.359 456.388, 506.049 456.397, 504.838 456.494, 503.730 456.679, 502.733 456.894, 502.041 456.953, 501.852 457.316, 501.094 457.769, 500.466 460.689, 496.959 463.590, 493.298 466.482, 489.521 469.375, 485.668 472.279, 481.781 475.205, 477.901 478.163, 474.072 481.166, 470.336 484.223, 466.740 487.348, 463.329 490.551, 460.151 493.846, 457.253 496.036, 455.590 498.347, 454.100 500.795, 452.817 503.397, 451.773 506.169, 451.000 " />
            <path fill="none" stroke-width="3.0" stroke-linecap="butt" stroke-opacity="1.0" stroke="rgb(0, 0, 0)" stroke-linejoin="miter" d=" M 401.731, 580.334 391.988, 582.587 390.545, 582.920 390.143, 583.034 389.799, 583.277 389.514, 583.654 389.289, 584.166 389.125, 584.816 389.023, 585.606 388.985, 586.539 389.011, 587.618 389.107, 588.538 389.301, 589.557 389.581, 590.648 389.933, 591.788 390.348, 592.953 390.812, 594.117 391.314, 595.257 391.842, 596.347 392.385, 597.364 392.929, 598.281 393.464, 599.075 393.976, 599.719 396.718, 602.741 399.235, 605.382 401.553, 607.695 403.696, 609.732 405.690, 611.548 407.562, 613.199 409.340, 614.741 411.052, 616.232 412.726, 617.730 414.392, 619.295 416.079, 620.987 417.818, 622.866 419.560, 624.882 421.338, 627.043 423.163, 629.342 425.050, 631.775 427.014, 634.339 429.068, 637.027 431.230, 639.838 433.513, 642.767 435.935, 645.811 438.511, 648.967 441.261, 652.233 444.201, 655.608 444.823, 656.254 445.448, 656.794 446.063, 657.221 446.659, 657.528 447.223, 657.706 447.745, 657.749 448.212, 657.649 448.615, 657.398 448.941, 656.990 449.179, 656.416 449.318, 655.670 449.345, 654.744 449.255, 653.437 449.075, 652.164 448.812, 650.922 448.476, 649.709 448.077, 648.524 447.623, 647.365 447.124, 646.230 446.589, 645.117 446.026, 644.023 445.445, 642.946 444.855, 641.885 444.265, 640.836 441.925, 636.791 439.951, 633.169 438.307, 629.889 436.955, 626.870 435.860, 624.034 434.988, 621.303 434.305, 618.602 433.778, 615.852 433.373, 612.979 433.058, 609.906 432.801, 606.558 432.567, 602.857 432.214, 596.550 431.881, 590.256 431.566, 583.969 431.318, 578.732 431.269, 577.685 431.083, 573.549 430.986, 571.397 430.716, 565.102 430.457, 558.792 430.206, 552.464 429.962, 546.111 429.723, 539.729 429.486, 533.311 429.249, 526.853 429.227, 525.738 429.246, 524.764 429.304, 523.929 429.397, 523.227 429.523, 522.656 429.680, 522.211 429.865, 521.889 430.074, 521.685 430.306, 521.595 430.558, 521.616 430.826, 521.743 431.109, 521.973 431.452, 522.349 431.806, 522.826 432.172, 523.404 432.550, 524.086 432.940, 524.873 433.341, 525.767 433.754, 526.768 434.180, 527.880 434.617, 529.103 435.066, 530.439 435.527, 531.889 436.000, 533.455 438.882, 543.030 441.765, 552.606 444.647, 562.181 446.964, 569.878 448.430, 574.749 451.313, 584.325 454.195, 593.900 457.078, 603.476 459.960, 613.051 462.843, 622.627 465.725, 632.203 468.706, 642.104 469.283, 644.053 469.817, 645.922 470.305, 647.712 470.748, 649.422 471.144, 651.053 471.292, 651.708 471.493, 652.605 471.794, 654.080 472.047, 655.477 472.250, 656.798 472.402, 658.042 472.504, 659.210 472.510, 659.335 472.555, 660.302 472.482, 661.533 472.302, 662.591 472.010, 663.471 471.604, 664.168 471.080, 664.677 470.436, 664.992 " />
            <path fill="none" stroke-width="3.0" stroke-linecap="butt" stroke-opacity="1.0" stroke="rgb(0, 0, 0)" stroke-linejoin="miter" d=" M 470.436, 664.992 469.668, 665.109 468.774, 665.024 467.751, 664.731 466.596, 664.227 465.308, 663.508 463.884, 662.569 463.311, 662.271 462.784, 662.091 462.305, 662.033 461.874, 662.099 " />
            <path fill="none" stroke-width="3.0" stroke-linecap="butt" stroke-opacity="1.0" stroke="rgb(0, 0, 0)" stroke-linejoin="miter" d=" M 398.913, 586.273 397.735, 586.223 396.319, 585.770 394.650, 584.931 392.714, 583.727 392.090, 583.341 391.520, 583.076 391.005, 582.935 390.545, 582.920 " />
            <path fill="none" stroke-width="3.0" stroke-linecap="butt" stroke-opacity="1.0" stroke="rgb(0, 0, 0)" stroke-linejoin="miter" d=" M 438.108, 382.336 447.959, 380.614 457.809, 378.892 467.660, 377.170 477.510, 375.448 487.361, 373.725 497.212, 372.003 507.062, 370.281 516.913, 368.559 526.763, 366.837 536.614, 365.114 544.788, 363.685 554.639, 361.963 564.489, 360.241 574.340, 358.519 584.191, 356.797 586.894, 356.324 596.745, 354.602 599.032, 354.202 599.630, 354.048 600.175, 353.816 600.664, 353.492 601.098, 353.058 601.474, 352.500 601.790, 351.801 602.045, 350.945 602.237, 349.917 602.366, 348.701 602.429, 347.281 602.421, 346.136 602.352, 345.054 602.225, 344.036 602.039, 343.082 601.799, 342.194 601.504, 341.374 601.157, 340.622 600.760, 339.940 600.315, 339.329 599.823, 338.789 599.286, 338.323 598.706, 337.930 596.040, 336.389 593.126, 334.767 590.026, 333.086 586.798, 331.368 583.499, 329.632 580.185, 327.898 576.910, 326.186 573.726, 324.514 570.685, 322.898 567.835, 321.358 565.226, 319.908 562.904, 318.564 560.578, 317.138 558.065, 315.522 555.402, 313.755 552.628, 311.876 549.782, 309.924 546.901, 307.938 544.020, 305.954 541.176, 304.008 538.402, 302.137 535.733, 300.376 533.201, 298.757 530.839, 297.317 530.420, 297.123 529.993, 297.030 529.567, 297.039 519.683, 298.557 509.799, 300.076 499.915, 301.595 490.031, 303.114 480.147, 304.633 470.263, 306.151 460.379, 307.670 450.495, 309.189 440.611, 310.708 430.727, 312.226 420.843, 313.745 410.959, 315.264 401.075, 316.783 391.191, 318.301 381.307, 319.820 377.420, 320.417 " />
            <path fill="none" stroke-width="3.0" stroke-linecap="butt" stroke-opacity="1.0" stroke="rgb(0, 0, 0)" stroke-linejoin="miter" d=" M 536.171, 456.946 544.651, 455.226 554.451, 453.237 564.252, 451.248 574.052, 449.260 581.076, 447.834 590.876, 445.846 600.677, 443.857 610.477, 441.868 612.821, 441.393 622.621, 439.404 632.422, 437.415 642.222, 435.427 648.461, 434.161 658.261, 432.172 668.062, 430.183 677.862, 428.195 687.662, 426.206 697.463, 424.217 707.263, 422.229 711.607, 421.347 712.590, 421.111 713.507, 420.710 714.332, 420.124 715.039, 419.331 715.602, 418.311 715.997, 417.043 716.197, 415.505 716.180, 414.214 715.995, 412.934 715.658, 411.675 715.185, 410.445 714.591, 409.257 713.894, 408.118 713.109, 407.040 712.254, 406.032 711.343, 405.103 710.393, 404.262 709.419, 403.520 708.439, 402.884 702.463, 399.377 696.842, 396.136 691.525, 393.117 686.464, 390.281 681.612, 387.589 676.922, 385.002 672.353, 382.485 667.862, 380.001 663.409, 377.517 658.955, 375.000 654.462, 372.416 649.894, 369.735 641.295, 364.631 632.695, 359.528 630.998, 358.520 630.473, 358.269 629.934, 358.128 629.394, 358.098 628.861, 358.179 619.016, 359.929 609.170, 361.679 599.324, 363.429 589.478, 365.178 582.552, 366.409 572.707, 368.159 562.861, 369.909 553.015, 371.659 544.774, 373.124 534.928, 374.873 525.083, 376.623 515.237, 378.373 505.391, 380.123 495.546, 381.873 485.700, 383.623 475.854, 385.372 466.008, 387.122 463.303, 387.603 " />
            <path fill="none" stroke-width="3.0" stroke-linecap="butt" stroke-opacity="1.0" stroke="rgb(0, 0, 0)" stroke-linejoin="miter" d=" M 582.552, 366.409 582.732, 364.879 583.280, 362.202 584.033, 359.975 585.021, 358.168 586.275, 356.748 586.894, 356.324 " />
            <path fill="none" stroke-width="3.0" stroke-linecap="butt" stroke-opacity="1.0" stroke="rgb(0, 0, 0)" stroke-linejoin="miter" d=" M 543.042, 763.562 552.627, 760.711 562.212, 757.860 571.797, 755.010 581.382, 752.159 590.967, 749.309 600.552, 746.458 610.137, 743.607 619.722, 740.757 629.308, 737.906 638.893, 735.055 648.478, 732.205 658.063, 729.354 667.648, 726.503 677.233, 723.653 686.818, 720.802 696.403, 717.951 703.173, 715.938 703.777, 715.553 704.229, 714.963 704.526, 714.177 704.666, 713.203 704.637, 711.802 704.407, 710.373 704.001, 708.928 703.446, 707.476 702.766, 706.026 701.989, 704.587 701.139, 703.169 700.243, 701.782 699.327, 700.432 698.416, 699.130 697.534, 697.883 696.708, 696.700 693.430, 692.053 690.454, 687.556 687.751, 683.185 685.291, 678.917 683.049, 674.730 680.996, 670.603 679.108, 666.515 677.359, 662.446 675.723, 658.376 674.176, 654.286 672.693, 650.158 671.252, 645.973 668.052, 636.499 664.852, 627.024 661.652, 617.550 658.452, 608.076 655.253, 598.602 652.053, 589.127 648.853, 579.653 645.653, 570.179 642.453, 560.705 639.253, 551.230 636.054, 541.756 632.854, 532.282 629.654, 522.808 626.454, 513.333 623.254, 503.859 620.055, 494.385 616.855, 484.911 615.609, 481.222 615.090, 479.600 614.670, 478.038 614.351, 476.544 614.132, 475.122 614.012, 473.778 613.991, 472.519 614.070, 471.349 614.248, 470.275 614.526, 469.304 614.903, 468.440 615.380, 467.690 615.957, 467.060 619.648, 463.529 623.323, 459.851 626.991, 456.064 630.662, 452.206 634.347, 448.317 638.055, 444.436 641.797, 440.604 645.584, 436.862 648.461, 434.161 " />
            <path fill="none" stroke-width="3.0" stroke-linecap="butt" stroke-opacity="1.0" stroke="rgb(0, 0, 0)" stroke-linejoin="miter" d=" M 448.212, 657.649 457.897, 655.156 467.581, 652.663 471.292, 651.708 " />
        </g>
    </g>
</svg>
