<?xml version='1.0' encoding='ascii'?>
<svg xmlns="http://www.w3.org/2000/svg" version="1.1" width="1080" height="1080">
    <g id="View Layer_LineSet" xmlns:inkscape="http://www.inkscape.org/namespaces/inkscape" inkscape:groupmode="lineset" inkscape:label="View Layer_LineSet">
        <g xmlns:inkscape="http://www.inkscape.org/namespaces/inkscape" inkscape:groupmode="layer" id="strokes" inkscape:label="strokes">
            <path fill="none" stroke-width="3.0" stroke-linecap="butt" stroke-opacity="1.0" stroke="rgb(0, 0, 0)" stroke-linejoin="miter" d=" M 440.414, 382.447 442.877, 382.306 445.760, 382.411 446.412, 382.377 447.014, 382.295 447.566, 382.148 448.064, 381.918 448.507, 381.591 448.892, 381.148 449.112, 380.758 449.216, 380.575 449.479, 379.853 449.676, 378.967 449.807, 377.901 449.870, 376.637 449.861, 375.159 449.799, 373.966 449.683, 372.838 449.515, 371.774 449.296, 370.776 449.029, 369.847 448.714, 368.986 448.354, 368.195 447.950, 367.477 447.504, 366.831 447.018, 366.258 446.494, 365.761 445.933, 365.340 443.366, 363.679 440.565, 361.930 437.587, 360.115 434.488, 358.259 431.323, 356.384 428.144, 354.511 425.003, 352.662 421.950, 350.856 419.033, 349.113 416.300, 347.451 413.795, 345.889 411.564, 344.445 409.326, 342.914 406.903, 341.181 404.334, 339.289 401.658, 337.279 398.910, 335.191 396.129, 333.068 393.348, 330.946 390.604, 328.867 387.929, 326.866 385.357, 324.981 382.921, 323.249 380.651, 321.705 380.252, 321.495 379.850, 321.391 379.454, 321.391 379.071, 321.497 378.710, 321.709 378.379, 322.028 378.085, 322.454 377.836, 322.988 377.641, 323.629 377.506, 324.380 377.440, 325.239 377.451, 326.209 377.546, 327.547 377.691, 328.828 377.886, 330.053 378.130, 331.224 378.421, 332.342 378.758, 333.406 379.140, 334.420 379.565, 335.382 380.033, 336.294 380.542, 337.158 381.092, 337.972 381.681, 338.740 384.205, 341.789 386.432, 344.689 388.377, 347.497 390.058, 350.272 391.493, 353.071 392.700, 355.955 393.700, 358.982 394.511, 362.212 395.155, 365.703 395.651, 369.514 396.021, 373.702 396.286, 378.325 396.738, 388.315 397.190, 398.305 397.641, 408.294 398.093, 418.284 398.545, 428.274 398.997, 438.264 399.448, 448.253 399.900, 458.243 400.352, 468.233 400.804, 478.223 401.255, 488.213 401.707, 498.202 402.159, 508.192 402.611, 518.182 403.062, 528.172 403.514, 538.162 403.966, 548.151 404.418, 558.141 404.869, 568.131 405.003, 571.076 405.137, 574.887 405.157, 578.156 405.044, 580.901 405.029, 581.028 404.777, 583.142 404.337, 584.895 403.705, 586.179 402.862, 587.010 401.789, 587.407 " />
            <path fill="none" stroke-width="3.0" stroke-linecap="butt" stroke-opacity="1.0" stroke="rgb(0, 0, 0)" stroke-linejoin="miter" d=" M 522.481, 449.544 525.777, 449.015 529.299, 448.820 533.067, 448.997 537.100, 449.580 541.422, 450.607 544.695, 451.673 546.055, 452.116 551.021, 454.148 551.924, 454.451 552.877, 454.694 553.857, 454.854 554.840, 454.909 555.802, 454.836 556.717, 454.613 557.562, 454.217 558.312, 453.625 558.941, 452.815 559.425, 451.763 559.738, 450.448 559.856, 448.848 559.780, 447.501 559.547, 446.160 559.171, 444.837 558.668, 443.543 558.054, 442.288 557.714, 441.711 557.345, 441.083 556.556, 439.939 555.703, 438.867 554.802, 437.875 553.868, 436.976 552.917, 436.178 551.964, 435.491 546.175, 431.692 540.734, 428.179 535.591, 424.907 530.699, 421.832 526.010, 418.912 521.482, 416.107 517.070, 413.378 512.735, 410.686 508.437, 407.996 504.137, 405.272 499.798, 402.478 495.386, 399.581 487.052, 394.054 478.719, 388.526 477.139, 387.479 476.635, 387.206 476.124, 387.047 475.616, 387.003 475.121, 387.077 474.650, 387.269 474.212, 387.580 473.817, 388.012 473.477, 388.567 473.200, 389.245 472.996, 390.048 472.876, 390.979 472.850, 392.038 472.916, 393.508 473.050, 394.921 473.250, 396.280 473.514, 397.584 473.840, 398.835 474.228, 400.034 474.675, 401.182 475.181, 402.280 475.743, 403.328 476.360, 404.327 477.031, 405.278 477.754, 406.182 479.608, 408.352 481.306, 410.498 482.845, 412.617 484.225, 414.707 485.447, 416.765 486.508, 418.789 487.410, 420.776 488.151, 422.724 488.733, 424.630 489.156, 426.492 489.421, 428.309 489.528, 430.077 489.504, 431.179 489.402, 432.247 489.225, 433.284 488.978, 434.297 488.665, 435.288 488.292, 436.263 487.862, 437.227 487.380, 438.184 486.851, 439.139 486.280, 440.096 485.671, 441.060 485.029, 442.036 479.459, 450.341 473.889, 458.646 468.319, 466.951 462.749, 475.256 457.179, 483.561 451.609, 491.867 446.039, 500.172 442.955, 504.770 442.408, 505.261 441.901, 505.725 441.429, 506.154 440.988, 506.539 440.571, 506.873 440.175, 507.146 439.796, 507.352 439.427, 507.482 " />
            <path fill="none" stroke-width="3.0" stroke-linecap="butt" stroke-opacity="1.0" stroke="rgb(0, 0, 0)" stroke-linejoin="miter" d=" M 439.427, 507.482 439.064, 507.527 438.704, 507.480 438.340, 507.332 437.969, 507.075 437.650, 506.773 437.340, 506.403 437.043, 505.964 436.761, 505.452 436.497, 504.867 436.253, 504.206 436.033, 503.466 435.839, 502.646 435.675, 501.744 435.541, 500.756 435.443, 499.680 435.382, 498.515 435.040, 488.521 434.698, 478.527 434.356, 468.532 434.014, 458.538 433.672, 448.544 433.330, 438.550 432.988, 428.556 432.646, 418.562 432.305, 408.568 432.167, 404.541 432.066, 400.156 432.101, 396.339 432.296, 393.059 432.679, 390.285 433.276, 387.984 434.112, 386.125 435.215, 384.674 436.614, 383.599 438.337, 382.868 440.414, 382.447 " />
            <path fill="none" stroke-width="3.0" stroke-linecap="butt" stroke-opacity="1.0" stroke="rgb(0, 0, 0)" stroke-linejoin="miter" d=" M 483.587, 658.193 473.980, 660.972 471.725, 661.624 471.298, 661.828 470.928, 662.160 470.615, 662.623 470.361, 663.220 470.168, 663.954 470.036, 664.826 469.969, 665.841 469.965, 667.001 470.032, 667.943 470.179, 668.910 470.398, 669.890 470.681, 670.868 471.016, 671.833 471.396, 672.772 471.811, 673.670 472.253, 674.514 472.711, 675.292 473.176, 675.991 473.640, 676.595 474.092, 677.093 476.672, 679.608 479.205, 682.007 481.704, 684.315 484.184, 686.561 486.658, 688.772 489.141, 690.976 491.647, 693.202 494.193, 695.479 496.793, 697.838 499.462, 700.306 502.217, 702.916 505.075, 705.699 508.887, 709.523 512.712, 713.463 516.550, 717.499 520.403, 721.612 524.269, 725.782 528.150, 729.991 532.046, 734.217 535.958, 738.442 539.888, 742.645 543.836, 746.805 547.803, 750.902 551.792, 754.916 553.494, 756.532 555.059, 757.875 556.485, 758.952 557.770, 759.769 558.911, 760.333 559.907, 760.650 560.755, 760.728 561.455, 760.575 562.004, 760.198 562.400, 759.604 562.642, 758.802 562.729, 757.800 562.638, 756.349 562.356, 754.864 561.909, 753.355 561.322, 751.834 560.618, 750.311 559.823, 748.796 558.961, 747.301 558.058, 745.834 557.136, 744.407 556.222, 743.029 555.338, 741.709 554.509, 740.457 551.224, 735.539 548.227, 730.787 545.493, 726.174 542.991, 721.677 540.697, 717.270 538.584, 712.932 536.626, 708.640 534.800, 704.373 533.079, 700.108 531.441, 695.825 529.862, 691.505 528.317, 687.127 525.041, 677.679 521.765, 668.231 518.489, 658.783 516.807, 653.929 515.122, 649.071 512.502, 641.514 509.226, 632.066 505.950, 622.618 502.674, 613.170 499.398, 603.722 496.122, 594.273 492.846, 584.825 489.570, 575.377 486.178, 565.593 484.460, 560.639 481.184, 551.191 477.908, 541.743 474.632, 532.295 471.356, 522.847 468.547, 514.746 468.428, 514.387 467.985, 513.048 467.520, 511.416 467.150, 509.857 466.878, 508.375 466.702, 506.977 466.623, 505.669 466.642, 504.457 466.757, 503.347 466.971, 502.345 467.282, 501.457 467.608, 500.850 467.693, 500.691 468.202, 500.052 471.485, 496.478 474.748, 492.750 478.000, 488.908 481.253, 484.991 484.518, 481.039 487.807, 477.095 491.131, 473.202 494.503, 469.403 497.935, 465.742 501.440, 462.266 505.030, 459.021 508.719, 456.054 511.169, 454.346 513.752, 452.808 516.487, 451.474 519.390, 450.375 522.481, 449.544 " />
            <path fill="none" stroke-width="3.0" stroke-linecap="butt" stroke-opacity="1.0" stroke="rgb(0, 0, 0)" stroke-linejoin="miter" d=" M 405.029, 581.028 395.343, 583.515 392.429, 584.263 391.977, 584.387 391.589, 584.640 391.267, 585.025 391.011, 585.544 390.823, 586.200 390.703, 586.995 390.654, 587.932 390.676, 589.012 390.778, 589.933 390.989, 590.948 391.295, 592.035 391.683, 593.169 392.140, 594.326 392.653, 595.481 393.208, 596.610 393.794, 597.690 394.395, 598.695 395.000, 599.600 395.594, 600.382 396.164, 601.014 399.218, 603.971 402.023, 606.551 404.605, 608.807 406.993, 610.792 409.216, 612.558 411.303, 614.162 413.285, 615.660 415.192, 617.108 417.058, 618.564 418.913, 620.087 420.791, 621.736 422.726, 623.571 424.663, 625.544 426.638, 627.660 428.666, 629.913 430.762, 632.298 432.943, 634.811 435.224, 637.448 437.624, 640.202 440.159, 643.072 442.847, 646.052 445.708, 649.140 448.760, 652.333 452.024, 655.629 452.716, 656.258 453.410, 656.781 454.095, 657.191 454.759, 657.480 455.388, 657.643 455.971, 657.671 456.495, 657.558 456.946, 657.296 457.313, 656.878 457.583, 656.297 457.743, 655.546 457.779, 654.619 457.688, 653.314 457.494, 652.044 457.209, 650.808 456.842, 649.604 456.403, 648.430 455.904, 647.282 455.353, 646.160 454.762, 645.061 454.141, 643.982 453.499, 642.920 452.846, 641.874 452.194, 640.841 449.604, 636.857 447.421, 633.286 445.604, 630.047 444.112, 627.061 442.907, 624.252 441.950, 621.542 441.204, 618.855 440.632, 616.116 440.199, 613.251 439.867, 610.183 439.601, 606.837 439.364, 603.138 439.010, 596.833 438.679, 590.540 438.369, 584.253 438.080, 578.026 438.078, 577.969 437.843, 572.605 437.803, 571.681 437.542, 565.385 437.294, 559.074 437.055, 552.745 436.824, 546.391 436.599, 540.007 436.376, 533.587 436.154, 527.128 436.137, 526.011 436.165, 525.036 436.235, 524.198 436.344, 523.494 436.489, 522.919 436.667, 522.470 436.876, 522.143 437.111, 521.933 437.371, 521.838 437.652, 521.853 437.952, 521.974 438.267, 522.198 438.648, 522.566 439.041, 523.035 439.447, 523.605 439.865, 524.278 440.295, 525.057 440.738, 525.942 441.194, 526.935 441.662, 528.037 442.143, 529.251 442.636, 530.577 443.142, 532.018 443.661, 533.574 446.813, 543.064 449.964, 552.554 453.116, 562.044 455.148, 568.163 456.815, 573.183 459.967, 582.673 463.119, 592.164 466.271, 601.654 469.423, 611.144 472.574, 620.635 475.726, 630.125 478.878, 639.615 479.482, 641.434 480.114, 643.367 480.697, 645.221 481.230, 646.997 481.713, 648.695 482.119, 650.218 482.145, 650.315 482.524, 651.858 482.850, 653.324 483.122, 654.715 483.340, 656.029 483.502, 657.269 483.587, 658.193 483.609, 658.434 483.658, 659.525 483.569, 660.758 483.360, 661.821 483.029, 662.710 482.571, 663.418 481.984, 663.942 481.263, 664.275 " />
            <path fill="none" stroke-width="3.0" stroke-linecap="butt" stroke-opacity="1.0" stroke="rgb(0, 0, 0)" stroke-linejoin="miter" d=" M 481.263, 664.275 480.405, 664.414 479.408, 664.354 478.268, 664.091 476.983, 663.619 475.549, 662.937 473.966, 662.038 473.328, 661.756 472.741, 661.591 472.206, 661.546 471.725, 661.624 " />
            <path fill="none" stroke-width="3.0" stroke-linecap="butt" stroke-opacity="1.0" stroke="rgb(0, 0, 0)" stroke-linejoin="miter" d=" M 401.789, 587.407 400.469, 587.387 398.884, 586.969 397.018, 586.172 394.856, 585.016 394.158, 584.645 393.520, 584.394 392.944, 584.266 392.429, 584.263 " />
            <path fill="none" stroke-width="3.0" stroke-linecap="butt" stroke-opacity="1.0" stroke="rgb(0, 0, 0)" stroke-linejoin="miter" d=" M 447.014, 382.295 456.830, 380.386 466.646, 378.476 476.462, 376.567 486.278, 374.657 496.094, 372.748 505.910, 370.838 515.726, 368.929 525.542, 367.019 535.358, 365.110 544.829, 363.268 554.645, 361.358 564.461, 359.449 574.277, 357.539 584.093, 355.630 589.882, 354.503 599.698, 352.594 603.483, 351.858 604.128, 351.694 604.716, 351.454 605.245, 351.122 605.713, 350.683 606.118, 350.120 606.459, 349.418 606.734, 348.561 606.942, 347.534 607.081, 346.320 607.148, 344.905 607.140, 343.765 607.065, 342.688 606.927, 341.675 606.727, 340.729 606.467, 339.848 606.149, 339.036 605.775, 338.293 605.346, 337.621 604.865, 337.019 604.334, 336.490 603.755, 336.034 603.129, 335.653 600.250, 334.162 597.104, 332.595 593.755, 330.972 590.268, 329.314 586.704, 327.638 583.122, 325.966 579.582, 324.313 576.140, 322.698 572.852, 321.138 569.770, 319.648 566.947, 318.245 564.435, 316.943 561.919, 315.558 559.198, 313.987 556.316, 312.267 553.314, 310.437 550.232, 308.536 547.112, 306.600 543.992, 304.666 540.911, 302.770 537.906, 300.947 535.013, 299.230 532.269, 297.655 529.708, 296.254 529.253, 296.067 528.791, 295.981 528.329, 295.996 518.471, 297.678 508.614, 299.359 498.756, 301.041 488.898, 302.722 479.041, 304.404 469.183, 306.085 459.326, 307.767 449.468, 309.448 439.610, 311.130 429.753, 312.811 419.895, 314.493 410.037, 316.174 400.180, 317.856 390.322, 319.537 379.454, 321.391 " />
            <path fill="none" stroke-width="3.0" stroke-linecap="butt" stroke-opacity="1.0" stroke="rgb(0, 0, 0)" stroke-linejoin="miter" d=" M 555.802, 454.836 565.554, 452.625 575.307, 450.415 584.061, 448.430 593.814, 446.220 603.567, 444.009 613.319, 441.798 616.110, 441.166 625.862, 438.955 635.615, 436.744 645.368, 434.534 654.642, 432.432 664.394, 430.221 674.147, 428.010 683.900, 425.800 693.652, 423.589 703.405, 421.378 713.157, 419.168 722.910, 416.957 724.597, 416.575 725.652, 416.321 726.634, 415.905 727.518, 415.308 728.275, 414.507 728.879, 413.484 729.302, 412.217 729.516, 410.686 729.498, 409.406 729.299, 408.138 728.937, 406.894 728.430, 405.683 727.793, 404.514 727.046, 403.397 726.205, 402.342 725.287, 401.357 724.310, 400.452 723.291, 399.635 722.248, 398.916 721.197, 398.303 714.787, 394.932 708.756, 391.818 703.050, 388.917 697.616, 386.193 692.405, 383.606 687.367, 381.121 682.457, 378.702 677.630, 376.314 672.843, 373.925 668.052, 371.502 663.219, 369.013 658.304, 366.427 649.475, 361.731 640.647, 357.034 637.956, 355.602 637.390, 355.361 636.810, 355.230 636.227, 355.209 635.654, 355.299 625.844, 357.241 616.034, 359.183 606.225, 361.125 596.415, 363.067 586.605, 365.009 585.572, 365.213 575.762, 367.155 565.952, 369.097 556.143, 371.039 546.333, 372.980 544.814, 373.281 535.004, 375.223 525.195, 377.165 515.385, 379.107 505.575, 381.048 495.766, 382.990 485.956, 384.932 476.146, 386.874 475.121, 387.077 " />
            <path fill="none" stroke-width="3.0" stroke-linecap="butt" stroke-opacity="1.0" stroke="rgb(0, 0, 0)" stroke-linejoin="miter" d=" M 585.572, 365.213 585.881, 362.783 586.472, 360.104 587.285, 357.872 588.353, 356.054 589.707, 354.617 589.882, 354.503 " />
            <path fill="none" stroke-width="3.0" stroke-linecap="butt" stroke-opacity="1.0" stroke="rgb(0, 0, 0)" stroke-linejoin="miter" d=" M 561.455, 760.575 570.945, 757.423 580.435, 754.270 589.925, 751.117 599.415, 747.965 608.905, 744.812 618.395, 741.660 627.885, 738.507 637.375, 735.355 646.866, 732.202 656.356, 729.049 665.846, 725.897 675.336, 722.744 684.826, 719.592 694.316, 716.439 703.806, 713.286 713.296, 710.134 715.625, 709.360 716.273, 708.960 716.757, 708.362 717.075, 707.573 717.226, 706.601 717.194, 705.210 716.947, 703.797 716.511, 702.373 715.915, 700.945 715.185, 699.524 714.351, 698.116 713.439, 696.731 712.478, 695.377 711.494, 694.062 710.516, 692.794 709.570, 691.579 708.683, 690.426 705.164, 685.900 701.968, 681.513 699.064, 677.242 696.422, 673.067 694.012, 668.966 691.807, 664.919 689.777, 660.905 687.897, 656.906 686.138, 652.903 684.475, 648.878 682.881, 644.812 681.330, 640.689 677.872, 631.306 674.414, 621.923 670.955, 612.540 667.497, 603.157 664.039, 593.774 660.581, 584.391 657.122, 575.008 653.664, 565.625 650.206, 556.242 646.747, 546.859 643.289, 537.476 639.831, 528.093 636.373, 518.710 632.914, 509.327 629.456, 499.944 625.998, 490.561 622.540, 481.178 621.390, 478.058 620.829, 476.453 620.377, 474.907 620.033, 473.425 619.796, 472.013 619.666, 470.678 619.644, 469.424 619.728, 468.258 619.920, 467.184 620.220, 466.211 620.627, 465.343 621.141, 464.586 621.763, 463.947 625.742, 460.354 629.703, 456.616 633.656, 452.770 637.611, 448.855 641.580, 444.909 645.573, 440.972 649.602, 437.084 653.678, 433.286 654.642, 432.432 " />
            <path fill="none" stroke-width="3.0" stroke-linecap="butt" stroke-opacity="1.0" stroke="rgb(0, 0, 0)" stroke-linejoin="miter" d=" M 456.495, 657.558 466.108, 654.804 475.721, 652.050 482.119, 650.218 " />
        </g>
    </g>
</svg>
