<?xml version='1.0' encoding='ascii'?>
<svg xmlns="http://www.w3.org/2000/svg" version="1.1" width="1080" height="1080">
    <g id="View Layer_LineSet" xmlns:inkscape="http://www.inkscape.org/namespaces/inkscape" inkscape:groupmode="lineset" inkscape:label="View Layer_LineSet">
        <g xmlns:inkscape="http://www.inkscape.org/namespaces/inkscape" inkscape:groupmode="layer" id="strokes" inkscape:label="strokes">
            <path fill="none" stroke-width="3.0" stroke-linecap="butt" stroke-opacity="1.0" stroke="rgb(0, 0, 0)" stroke-linejoin="miter" d=" M 442.105, 382.875 444.285, 382.436 446.868, 382.273 449.891, 382.354 450.574, 382.315 451.207, 382.227 451.786, 382.075 452.309, 381.841 452.774, 381.510 453.178, 381.064 453.479, 380.558 453.520, 380.487 453.797, 379.764 454.007, 378.876 454.147, 377.808 454.216, 376.544 454.211, 375.065 454.149, 373.874 454.031, 372.746 453.857, 371.683 453.631, 370.687 453.353, 369.760 453.025, 368.902 452.650, 368.114 452.229, 367.399 451.763, 366.756 451.255, 366.188 450.707, 365.695 450.120, 365.278 447.432, 363.639 444.500, 361.913 441.381, 360.122 438.136, 358.292 434.821, 356.442 431.491, 354.594 428.201, 352.770 425.003, 350.988 421.947, 349.268 419.082, 347.628 416.458, 346.086 414.120, 344.658 411.775, 343.144 409.237, 341.430 406.545, 339.557 403.740, 337.566 400.861, 335.499 397.946, 333.396 395.032, 331.295 392.156, 329.235 389.352, 327.253 386.656, 325.387 384.101, 323.671 381.721, 322.143 381.302, 321.937 380.880, 321.835 380.464, 321.839 380.062, 321.948 379.682, 322.163 379.333, 322.485 379.023, 322.914 378.760, 323.450 378.553, 324.093 378.409, 324.846 378.338, 325.707 378.346, 326.677 378.442, 328.016 378.592, 329.297 378.793, 330.523 379.046, 331.693 379.349, 332.810 379.700, 333.873 380.098, 334.884 380.542, 335.844 381.031, 336.754 381.564, 337.614 382.139, 338.425 382.756, 339.189 385.399, 342.221 387.730, 345.106 389.765, 347.901 391.523, 350.665 393.023, 353.455 394.283, 356.331 395.324, 359.353 396.167, 362.579 396.833, 366.068 397.344, 369.878 397.721, 374.067 397.986, 378.692 398.433, 388.682 398.879, 398.672 399.326, 408.662 399.772, 418.652 400.219, 428.642 400.665, 438.632 401.112, 448.622 401.558, 458.612 402.004, 468.602 402.451, 478.592 402.897, 488.582 403.344, 498.572 403.790, 508.562 404.237, 518.552 404.683, 528.542 405.130, 538.532 405.576, 548.522 406.023, 558.512 406.469, 568.502 406.605, 571.535 406.735, 575.347 406.748, 578.619 406.623, 581.311 406.621, 581.369 406.334, 583.614 405.868, 585.375 405.200, 586.667 404.313, 587.509 403.185, 587.918 " />
            <path fill="none" stroke-width="3.0" stroke-linecap="butt" stroke-opacity="1.0" stroke="rgb(0, 0, 0)" stroke-linejoin="miter" d=" M 530.069, 448.764 533.519, 448.203 537.204, 447.975 541.144, 448.115 544.655, 448.568 545.362, 448.659 549.878, 449.643 554.718, 451.107 559.906, 453.088 560.848, 453.382 561.844, 453.615 562.868, 453.766 563.895, 453.811 564.901, 453.729 565.858, 453.497 566.742, 453.093 567.528, 452.495 568.187, 451.680 568.696, 450.625 569.027, 449.309 569.154, 447.710 569.079, 446.365 568.838, 445.029 568.449, 443.711 567.927, 442.424 567.289, 441.177 566.691, 440.208 566.550, 439.980 565.729, 438.845 564.840, 437.782 563.901, 436.801 562.927, 435.911 561.935, 435.123 560.941, 434.446 554.899, 430.706 549.219, 427.248 543.850, 424.027 538.741, 421.001 533.844, 418.127 529.114, 415.366 524.505, 412.679 519.976, 410.029 515.484, 407.380 510.991, 404.696 506.457, 401.942 501.845, 399.087 493.367, 393.782 484.890, 388.478 482.766, 387.149 482.239, 386.881 481.704, 386.726 481.172, 386.687 480.653, 386.765 480.159, 386.961 479.699, 387.276 479.285, 387.711 478.926, 388.269 478.634, 388.949 478.419, 389.755 478.291, 390.686 478.260, 391.745 478.326, 393.214 478.462, 394.626 478.667, 395.982 478.940, 397.284 479.279, 398.532 479.682, 399.728 480.148, 400.871 480.674, 401.964 481.260, 403.007 481.904, 404.000 482.604, 404.945 483.359, 405.842 485.296, 407.995 487.068, 410.125 488.675, 412.229 490.115, 414.306 491.389, 416.352 492.495, 418.365 493.434, 420.343 494.206, 422.284 494.810, 424.184 495.248, 426.041 495.520, 427.855 495.627, 429.621 495.600, 430.723 495.490, 431.791 495.301, 432.830 495.040, 433.844 494.709, 434.838 494.315, 435.817 493.862, 436.784 493.355, 437.745 492.799, 438.705 492.198, 439.667 491.558, 440.636 490.882, 441.617 485.142, 449.806 479.402, 457.995 473.662, 466.183 467.922, 474.372 462.182, 482.560 456.443, 490.749 450.703, 498.938 446.614, 504.771 446.039, 505.268 445.506, 505.737 445.009, 506.171 444.545, 506.561 444.107, 506.899 443.692, 507.177 443.293, 507.387 442.905, 507.521 " />
            <path fill="none" stroke-width="3.0" stroke-linecap="butt" stroke-opacity="1.0" stroke="rgb(0, 0, 0)" stroke-linejoin="miter" d=" M 442.905, 507.521 442.525, 507.570 442.147, 507.526 441.766, 507.382 441.377, 507.129 441.043, 506.830 440.720, 506.463 440.409, 506.027 440.115, 505.518 439.839, 504.936 439.586, 504.276 439.357, 503.539 439.156, 502.721 438.985, 501.819 438.849, 500.832 438.748, 499.757 438.687, 498.592 438.356, 488.598 438.025, 478.603 437.694, 468.609 437.363, 458.614 437.032, 448.620 436.700, 438.625 436.369, 428.630 436.038, 418.636 435.707, 408.641 435.573, 404.610 435.480, 400.224 435.527, 396.405 435.741, 393.122 436.151, 390.344 436.782, 388.037 437.665, 386.170 438.826, 384.709 440.296, 383.622 442.105, 382.875 " />
            <path fill="none" stroke-width="3.0" stroke-linecap="butt" stroke-opacity="1.0" stroke="rgb(0, 0, 0)" stroke-linejoin="miter" d=" M 488.764, 657.551 479.196, 660.456 476.344, 661.322 475.896, 661.532 475.507, 661.869 475.178, 662.336 474.911, 662.936 474.706, 663.672 474.566, 664.546 474.492, 665.562 474.486, 666.722 474.552, 667.663 474.704, 668.629 474.932, 669.605 475.225, 670.581 475.574, 671.541 475.969, 672.475 476.402, 673.368 476.862, 674.207 477.340, 674.979 477.826, 675.671 478.310, 676.270 478.783, 676.761 481.479, 679.244 484.127, 681.609 486.739, 683.885 489.330, 686.098 491.916, 688.276 494.511, 690.447 497.130, 692.640 499.790, 694.883 502.506, 697.206 505.295, 699.639 508.173, 702.211 511.156, 704.955 515.137, 708.726 519.130, 712.613 523.137, 716.595 527.157, 720.653 531.192, 724.768 535.241, 728.921 539.306, 733.091 543.387, 737.258 547.486, 741.403 551.604, 745.504 555.742, 749.542 559.901, 753.496 561.677, 755.086 563.309, 756.406 564.797, 757.462 566.138, 758.260 567.329, 758.806 568.369, 759.109 569.256, 759.176 569.988, 759.013 570.562, 758.628 570.978, 758.029 571.233, 757.225 571.327, 756.223 571.235, 754.775 570.945, 753.296 570.482, 751.795 569.872, 750.284 569.140, 748.772 568.313, 747.270 567.417, 745.789 566.476, 744.337 565.517, 742.924 564.565, 741.560 563.645, 740.254 562.781, 739.014 559.359, 734.147 556.239, 729.441 553.392, 724.870 550.788, 720.411 548.401, 716.040 546.202, 711.734 544.166, 707.472 542.267, 703.233 540.479, 698.994 538.777, 694.737 537.136, 690.441 535.532, 686.086 532.129, 676.684 528.725, 667.281 525.322, 657.878 523.385, 652.527 521.595, 647.581 518.809, 639.886 515.406, 630.483 512.002, 621.080 508.599, 611.677 505.195, 602.274 501.791, 592.871 498.388, 583.468 494.984, 574.065 491.349, 564.023 489.532, 559.002 486.128, 549.599 482.725, 540.196 479.321, 530.793 475.917, 521.390 473.416, 514.480 473.159, 513.736 472.832, 512.788 472.348, 511.161 471.966, 509.605 471.684, 508.126 471.504, 506.730 471.425, 505.423 471.447, 504.211 471.571, 503.099 471.798, 502.095 472.127, 501.205 472.559, 500.434 472.805, 500.138 473.095, 499.790 476.545, 496.182 479.974, 492.421 483.391, 488.546 486.810, 484.597 490.241, 480.614 493.697, 476.638 497.189, 472.713 500.730, 468.882 504.334, 465.189 508.012, 461.680 511.780, 458.402 515.650, 455.402 518.218, 453.670 520.926, 452.109 523.791, 450.750 526.833, 449.624 530.069, 448.764 " />
            <path fill="none" stroke-width="3.0" stroke-linecap="butt" stroke-opacity="1.0" stroke="rgb(0, 0, 0)" stroke-linejoin="miter" d=" M 406.623, 581.311 396.967, 583.910 393.363, 584.880 392.888, 585.009 392.480, 585.267 392.141, 585.657 391.871, 586.179 391.671, 586.838 391.543, 587.635 391.489, 588.574 391.509, 589.655 391.614, 590.576 391.832, 591.590 392.151, 592.675 392.555, 593.805 393.032, 594.958 393.568, 596.108 394.148, 597.233 394.760, 598.306 395.389, 599.305 396.021, 600.204 396.643, 600.980 397.241, 601.606 400.440, 604.530 403.378, 607.080 406.083, 609.307 408.585, 611.265 410.913, 613.006 413.100, 614.587 415.176, 616.062 417.175, 617.488 419.129, 618.923 421.072, 620.424 423.039, 622.052 425.063, 623.865 427.091, 625.815 429.158, 627.908 431.279, 630.138 433.472, 632.499 435.753, 634.987 438.139, 637.597 440.649, 640.323 443.300, 643.162 446.112, 646.111 449.103, 649.164 452.295, 652.320 455.709, 655.576 456.433, 656.196 457.160, 656.711 457.877, 657.112 458.572, 657.393 459.231, 657.548 459.842, 657.569 460.391, 657.449 460.865, 657.181 461.251, 656.758 461.536, 656.174 461.705, 655.421 461.746, 654.493 461.654, 653.189 461.454, 651.921 461.158, 650.689 460.777, 649.489 460.320, 648.319 459.800, 647.178 459.226, 646.062 458.609, 644.970 457.960, 643.898 457.290, 642.845 456.609, 641.806 455.928, 640.781 453.223, 636.827 450.944, 633.282 449.047, 630.064 447.491, 627.096 446.234, 624.300 445.238, 621.600 444.463, 618.921 443.871, 616.188 443.424, 613.327 443.084, 610.261 442.815, 606.917 442.577, 603.219 442.223, 596.915 441.893, 590.622 441.585, 584.337 441.296, 578.053 441.277, 577.594 441.038, 572.051 441.025, 571.765 440.770, 565.469 440.526, 559.158 440.293, 552.829 440.069, 546.474 439.850, 540.089 439.634, 533.670 439.419, 527.210 439.404, 526.093 439.436, 525.117 439.511, 524.278 439.627, 523.572 439.781, 522.995 439.969, 522.544 440.189, 522.215 440.437, 522.003 440.710, 521.904 441.005, 521.916 441.319, 522.034 441.648, 522.255 442.047, 522.619 442.458, 523.084 442.882, 523.650 443.319, 524.319 443.768, 525.093 444.230, 525.974 444.706, 526.962 445.193, 528.060 445.694, 529.269 446.208, 530.591 446.735, 532.026 447.274, 533.577 450.550, 543.025 453.825, 552.473 457.101, 561.922 458.942, 567.233 460.708, 572.328 463.984, 581.776 467.260, 591.225 470.535, 600.673 473.811, 610.121 477.086, 619.570 480.362, 629.018 483.637, 638.466 484.528, 641.035 485.184, 642.960 485.790, 644.807 486.344, 646.576 486.845, 648.267 487.160, 649.401 487.293, 649.882 487.686, 651.420 488.024, 652.882 488.305, 654.269 488.530, 655.580 488.696, 656.818 488.764, 657.551 488.804, 657.981 488.853, 659.072 488.756, 660.306 488.535, 661.371 488.186, 662.264 487.704, 662.978 487.087, 663.509 486.331, 663.852 " />
            <path fill="none" stroke-width="3.0" stroke-linecap="butt" stroke-opacity="1.0" stroke="rgb(0, 0, 0)" stroke-linejoin="miter" d=" M 486.331, 663.852 485.432, 664.002 484.387, 663.955 483.194, 663.706 481.848, 663.251 480.348, 662.586 478.691, 661.708 478.024, 661.434 477.409, 661.276 476.849, 661.238 476.344, 661.322 " />
            <path fill="none" stroke-width="3.0" stroke-linecap="butt" stroke-opacity="1.0" stroke="rgb(0, 0, 0)" stroke-linejoin="miter" d=" M 403.185, 587.918 401.799, 587.914 400.136, 587.514 398.178, 586.738 395.911, 585.605 395.179, 585.242 394.510, 584.998 393.904, 584.877 393.363, 584.880 " />
            <path fill="none" stroke-width="3.0" stroke-linecap="butt" stroke-opacity="1.0" stroke="rgb(0, 0, 0)" stroke-linejoin="miter" d=" M 451.207, 382.227 461.005, 380.227 470.803, 378.227 480.601, 376.227 490.398, 374.226 500.196, 372.226 509.994, 370.226 519.792, 368.226 529.590, 366.225 539.388, 364.225 544.783, 363.124 554.581, 361.123 564.379, 359.123 574.177, 357.123 583.975, 355.123 591.159, 353.656 600.957, 351.656 605.451, 350.738 606.118, 350.570 606.726, 350.325 607.272, 349.990 607.756, 349.548 608.174, 348.983 608.527, 348.279 608.811, 347.422 609.026, 346.395 609.169, 345.183 609.239, 343.769 609.229, 342.631 609.152, 341.557 609.010, 340.548 608.803, 339.604 608.534, 338.728 608.206, 337.919 607.819, 337.181 607.376, 336.513 606.879, 335.916 606.330, 335.392 605.731, 334.942 605.084, 334.565 602.108, 333.100 598.856, 331.560 595.395, 329.965 591.790, 328.335 588.104, 326.690 584.401, 325.046 580.740, 323.423 577.180, 321.836 573.778, 320.303 570.590, 318.838 567.670, 317.458 565.071, 316.176 562.468, 314.812 559.653, 313.263 556.670, 311.566 553.562, 309.761 550.373, 307.884 547.143, 305.973 543.914, 304.064 540.724, 302.191 537.612, 300.391 534.617, 298.697 531.775, 297.143 529.123, 295.761 528.652, 295.578 528.173, 295.495 527.695, 295.514 517.851, 297.274 508.007, 299.034 498.163, 300.794 488.319, 302.554 478.475, 304.314 468.631, 306.074 458.787, 307.834 448.944, 309.594 439.100, 311.354 429.256, 313.115 419.412, 314.875 409.568, 316.635 399.724, 318.395 389.880, 320.155 380.464, 321.839 " />
            <path fill="none" stroke-width="3.0" stroke-linecap="butt" stroke-opacity="1.0" stroke="rgb(0, 0, 0)" stroke-linejoin="miter" d=" M 564.901, 453.729 574.628, 451.410 584.355, 449.091 585.359, 448.852 595.087, 446.533 604.814, 444.214 614.542, 441.895 617.238, 441.253 626.965, 438.934 636.693, 436.615 646.420, 434.296 656.147, 431.977 657.096, 431.751 666.823, 429.432 676.551, 427.114 686.278, 424.795 696.006, 422.476 705.733, 420.157 715.461, 417.838 725.188, 415.520 730.414, 414.274 731.500, 414.012 732.512, 413.589 733.422, 412.986 734.202, 412.182 734.824, 411.156 735.259, 409.890 735.479, 408.363 735.460, 407.087 735.255, 405.826 734.883, 404.590 734.360, 403.387 733.704, 402.228 732.934, 401.122 732.068, 400.077 731.122, 399.103 730.116, 398.209 729.067, 397.404 727.992, 396.697 726.909, 396.095 720.306, 392.790 714.092, 389.737 708.211, 386.894 702.610, 384.224 697.238, 381.688 692.044, 379.253 686.982, 376.881 682.003, 374.540 677.065, 372.197 672.123, 369.820 667.137, 367.377 662.065, 364.838 653.143, 360.320 644.222, 355.802 641.061, 354.202 640.477, 353.966 639.878, 353.840 639.276, 353.823 638.684, 353.918 628.893, 355.953 619.103, 357.988 609.312, 360.023 599.521, 362.058 589.730, 364.093 586.874, 364.687 577.084, 366.722 567.293, 368.757 557.502, 370.792 547.711, 372.827 544.768, 373.439 534.977, 375.474 525.186, 377.509 515.395, 379.544 505.605, 381.579 495.814, 383.614 486.023, 385.649 480.653, 386.765 " />
            <path fill="none" stroke-width="3.0" stroke-linecap="butt" stroke-opacity="1.0" stroke="rgb(0, 0, 0)" stroke-linejoin="miter" d=" M 586.874, 364.687 587.256, 361.785 587.867, 359.106 588.708, 356.871 589.811, 355.047 591.159, 353.656 " />
            <path fill="none" stroke-width="3.0" stroke-linecap="butt" stroke-opacity="1.0" stroke="rgb(0, 0, 0)" stroke-linejoin="miter" d=" M 569.988, 759.013 579.428, 755.715 588.869, 752.417 598.309, 749.119 607.750, 745.821 617.190, 742.523 626.631, 739.225 636.071, 735.927 645.512, 732.629 654.953, 729.331 664.393, 726.033 673.834, 722.736 683.274, 719.438 692.715, 716.140 702.155, 712.842 711.596, 709.544 721.210, 706.185 721.877, 705.778 722.376, 705.175 722.704, 704.385 722.859, 703.414 722.826, 702.027 722.571, 700.623 722.122, 699.208 721.508, 697.793 720.756, 696.385 719.896, 694.993 718.956, 693.624 717.966, 692.287 716.952, 690.988 715.943, 689.736 714.968, 688.537 714.054, 687.399 710.427, 682.931 707.133, 678.597 704.139, 674.375 701.415, 670.245 698.930, 666.186 696.656, 662.177 694.563, 658.200 692.623, 654.235 690.809, 650.265 689.094, 646.271 687.450, 642.235 685.850, 638.142 682.274, 628.803 678.697, 619.464 675.121, 610.126 671.545, 600.787 667.969, 591.448 664.392, 582.110 660.816, 572.771 657.240, 563.432 653.664, 554.094 650.087, 544.755 646.511, 535.416 642.935, 526.078 639.359, 516.739 635.782, 507.400 632.206, 498.062 628.630, 488.723 625.054, 479.384 623.965, 476.542 623.386, 474.945 622.919, 473.406 622.562, 471.931 622.318, 470.524 622.184, 469.193 622.160, 467.941 622.248, 466.776 622.446, 465.704 622.755, 464.729 623.175, 463.859 623.707, 463.099 624.349, 462.455 628.459, 458.831 632.550, 455.064 636.631, 451.190 640.715, 447.247 644.812, 443.273 648.934, 439.308 653.092, 435.393 657.096, 431.751 " />
            <path fill="none" stroke-width="3.0" stroke-linecap="butt" stroke-opacity="1.0" stroke="rgb(0, 0, 0)" stroke-linejoin="miter" d=" M 460.391, 657.449 469.968, 654.570 479.544, 651.691 487.160, 649.401 " />
        </g>
    </g>
</svg>
