<?xml version='1.0' encoding='ascii'?>
<svg xmlns="http://www.w3.org/2000/svg" version="1.1" width="1080" height="1080">
    <g id="View Layer_LineSet" xmlns:inkscape="http://www.inkscape.org/namespaces/inkscape" inkscape:groupmode="lineset" inkscape:label="View Layer_LineSet">
        <g xmlns:inkscape="http://www.inkscape.org/namespaces/inkscape" inkscape:groupmode="layer" id="strokes" inkscape:label="strokes">
            <path fill="none" stroke-width="3.0" stroke-linecap="butt" stroke-opacity="1.0" stroke="rgb(0, 0, 0)" stroke-linejoin="miter" d=" M 445.716, 382.856 447.992, 382.399 450.690, 382.215 453.845, 382.270 454.558, 382.226 455.218, 382.133 455.823, 381.976 456.370, 381.738 456.856, 381.403 457.279, 380.954 457.637, 380.374 457.663, 380.309 457.928, 379.648 458.149, 378.759 458.298, 377.690 458.373, 376.425 458.372, 374.946 458.310, 373.755 458.189, 372.628 458.011, 371.567 457.777, 370.573 457.489, 369.647 457.150, 368.792 456.760, 368.007 456.322, 367.295 455.837, 366.656 455.309, 366.092 454.737, 365.603 454.126, 365.192 451.325, 363.573 448.268, 361.870 445.017, 360.104 441.633, 358.298 438.176, 356.474 434.704, 354.652 431.273, 352.852 427.937, 351.095 424.749, 349.398 421.761, 347.779 419.023, 346.256 416.585, 344.845 414.138, 343.349 411.490, 341.653 408.683, 339.799 405.757, 337.828 402.753, 335.781 399.711, 333.698 396.671, 331.617 393.669, 329.577 390.743, 327.614 387.929, 325.766 385.262, 324.068 382.777, 322.556 382.339, 322.353 381.898, 322.254 381.463, 322.261 381.042, 322.373 380.644, 322.591 380.278, 322.916 379.953, 323.347 379.677, 323.886 379.459, 324.532 379.307, 325.286 379.230, 326.148 379.236, 327.120 379.333, 328.459 379.486, 329.741 379.694, 330.966 379.955, 332.136 380.269, 333.251 380.633, 334.313 381.047, 335.322 381.509, 336.280 382.018, 337.187 382.573, 338.044 383.173, 338.852 383.815, 339.611 386.572, 342.627 389.002, 345.497 391.123, 348.279 392.954, 351.031 394.514, 353.812 395.824, 356.681 396.905, 359.697 397.778, 362.919 398.465, 366.406 398.989, 370.215 399.373, 374.405 399.639, 379.031 400.080, 389.021 400.522, 399.011 400.963, 409.002 401.404, 418.992 401.846, 428.982 402.287, 438.972 402.728, 448.963 403.170, 458.953 403.611, 468.943 404.052, 478.934 404.494, 488.924 404.935, 498.914 405.376, 508.904 405.818, 518.895 406.259, 528.885 406.700, 538.875 407.142, 548.865 407.583, 558.856 408.024, 568.846 408.162, 571.958 408.289, 575.773 408.293, 579.047 408.167, 581.553 408.154, 581.801 407.849, 584.052 407.357, 585.819 406.656, 587.119 405.726, 587.972 404.546, 588.395 " />
            <path fill="none" stroke-width="3.0" stroke-linecap="butt" stroke-opacity="1.0" stroke="rgb(0, 0, 0)" stroke-linejoin="miter" d=" M 537.274, 447.960 540.869, 447.369 544.577, 447.116 544.706, 447.108 548.809, 447.212 553.198, 447.717 557.897, 448.659 562.931, 450.076 568.324, 452.007 569.305, 452.292 570.340, 452.516 571.406, 452.657 572.474, 452.692 573.520, 452.601 574.517, 452.361 575.438, 451.950 576.257, 451.345 576.945, 450.525 577.477, 449.468 577.824, 448.151 577.960, 446.553 577.885, 445.211 577.638, 443.878 577.236, 442.566 576.696, 441.285 576.035, 440.046 575.270, 438.858 575.143, 438.690 574.418, 437.732 573.496, 436.678 572.521, 435.706 571.511, 434.827 570.480, 434.049 569.448, 433.382 563.169, 429.701 557.266, 426.297 551.684, 423.127 546.373, 420.148 541.281, 417.320 536.362, 414.602 531.568, 411.958 526.857, 409.349 522.184, 406.740 517.508, 404.096 512.790, 401.383 507.991, 398.568 499.389, 393.469 490.787, 388.370 488.131, 386.795 487.582, 386.531 487.024, 386.381 486.469, 386.347 485.928, 386.429 485.412, 386.629 484.932, 386.947 484.499, 387.386 484.123, 387.946 483.817, 388.629 483.590, 389.436 483.455, 390.368 483.420, 391.427 483.485, 392.895 483.623, 394.305 483.834, 395.660 484.116, 396.959 484.466, 398.204 484.883, 399.395 485.366, 400.535 485.912, 401.623 486.521, 402.660 487.190, 403.648 487.918, 404.586 488.703, 405.477 490.717, 407.612 492.560, 409.726 494.230, 411.816 495.727, 413.880 497.049, 415.914 498.197, 417.917 499.171, 419.886 499.971, 421.818 500.596, 423.712 501.048, 425.565 501.327, 427.375 501.434, 429.140 501.403, 430.242 501.286, 431.310 501.087, 432.350 500.812, 433.366 500.465, 434.363 500.052, 435.344 499.577, 436.315 499.046, 437.281 498.464, 438.244 497.835, 439.211 497.165, 440.186 496.458, 441.173 490.568, 449.254 484.677, 457.335 478.786, 465.416 472.895, 473.496 467.005, 481.577 461.114, 489.658 455.223, 497.739 450.119, 504.741 449.517, 505.244 448.959, 505.719 448.440, 506.158 447.955, 506.552 447.497, 506.895 447.062, 507.177 446.645, 507.391 446.240, 507.529 " />
            <path fill="none" stroke-width="3.0" stroke-linecap="butt" stroke-opacity="1.0" stroke="rgb(0, 0, 0)" stroke-linejoin="miter" d=" M 446.240, 507.529 445.843, 507.581 445.449, 507.542 445.051, 507.401 444.646, 507.152 444.298, 506.856 443.961, 506.493 443.638, 506.059 443.332, 505.553 443.046, 504.973 442.783, 504.316 442.546, 503.581 442.338, 502.764 442.162, 501.864 442.021, 500.878 441.919, 499.803 441.859, 498.638 441.538, 488.643 441.217, 478.649 440.896, 468.654 440.576, 458.659 440.255, 448.664 439.934, 438.669 439.613, 428.674 439.292, 418.680 438.971, 408.685 438.842, 404.651 438.755, 400.265 438.814, 396.444 439.046, 393.158 439.480, 390.375 440.146, 388.063 441.072, 386.188 442.288, 384.717 443.826, 383.617 445.716, 382.856 " />
            <path fill="none" stroke-width="3.0" stroke-linecap="butt" stroke-opacity="1.0" stroke="rgb(0, 0, 0)" stroke-linejoin="miter" d=" M 493.698, 656.873 484.168, 659.902 480.753, 660.987 480.286, 661.202 479.879, 661.543 479.535, 662.014 479.254, 662.618 479.039, 663.356 478.891, 664.232 478.811, 665.249 478.801, 666.409 478.869, 667.349 479.025, 668.313 479.259, 669.287 479.563, 670.259 479.925, 671.215 480.335, 672.144 480.784, 673.031 481.262, 673.865 481.758, 674.631 482.263, 675.317 482.767, 675.910 483.259, 676.396 486.065, 678.845 488.820, 681.177 491.539, 683.420 494.236, 685.601 496.926, 687.747 499.627, 689.885 502.352, 692.045 505.120, 694.254 507.945, 696.542 510.846, 698.939 513.839, 701.474 516.942, 704.179 521.080, 707.898 525.232, 711.731 529.397, 715.660 533.575, 719.664 537.767, 723.724 541.974, 727.821 546.197, 731.935 550.437, 736.046 554.694, 740.133 558.971, 744.176 563.268, 748.155 567.587, 752.049 569.431, 753.614 571.127, 754.911 572.673, 755.945 574.066, 756.724 575.305, 757.254 576.386, 757.543 577.309, 757.598 578.070, 757.425 578.669, 757.033 579.103, 756.429 579.371, 755.622 579.470, 754.620 579.379, 753.176 579.080, 751.702 578.602, 750.209 577.971, 748.708 577.213, 747.208 576.356, 745.719 575.427, 744.251 574.452, 742.813 573.457, 741.415 572.470, 740.065 571.516, 738.772 570.620, 737.546 567.071, 732.729 563.835, 728.068 560.882, 723.539 558.183, 719.118 555.708, 714.782 553.430, 710.508 551.321, 706.276 549.353, 702.064 547.502, 697.852 545.740, 693.620 544.042, 689.348 542.383, 685.017 538.859, 675.658 535.335, 666.300 531.812, 656.941 529.611, 651.095 527.715, 646.061 524.766, 638.227 521.243, 628.869 517.719, 619.510 514.195, 610.151 510.672, 600.793 507.148, 591.434 503.625, 582.075 500.101, 572.717 496.578, 563.358 496.225, 562.421 494.307, 557.328 490.783, 547.969 487.260, 538.610 483.736, 529.252 480.213, 519.893 478.063, 514.184 477.658, 513.054 477.458, 512.498 476.957, 510.876 476.562, 509.324 476.272, 507.848 476.088, 506.454 476.008, 505.148 476.035, 503.935 476.167, 502.823 476.406, 501.816 476.751, 500.923 477.204, 500.148 477.764, 499.498 477.915, 499.347 481.372, 495.857 484.958, 492.064 488.532, 488.157 492.106, 484.176 495.694, 480.161 499.306, 476.154 502.956, 472.197 506.657, 468.334 510.422, 464.610 514.265, 461.069 518.198, 457.758 522.238, 454.724 524.918, 452.971 527.743, 451.386 530.731, 450.002 533.902, 448.849 537.274, 447.960 " />
            <path fill="none" stroke-width="3.0" stroke-linecap="butt" stroke-opacity="1.0" stroke="rgb(0, 0, 0)" stroke-linejoin="miter" d=" M 408.167, 581.553 398.540, 584.260 393.790, 585.596 393.363, 585.859 393.007, 586.252 392.723, 586.779 392.513, 587.441 392.377, 588.240 392.318, 589.180 392.336, 590.262 392.444, 591.183 392.670, 592.196 393.000, 593.278 393.420, 594.405 393.916, 595.554 394.473, 596.700 395.077, 597.819 395.713, 598.887 396.368, 599.880 397.027, 600.773 397.675, 601.542 398.298, 602.162 401.635, 605.053 404.700, 607.572 407.522, 609.771 410.131, 611.702 412.560, 613.418 414.841, 614.975 417.007, 616.427 419.092, 617.832 421.130, 619.245 423.156, 620.726 425.206, 622.332 427.317, 624.123 429.430, 626.051 431.584, 628.121 433.794, 630.328 436.078, 632.665 438.454, 635.127 440.939, 637.710 443.553, 640.408 446.314, 643.218 449.242, 646.134 452.357, 649.153 455.682, 652.272 459.237, 655.488 459.991, 656.100 460.748, 656.605 461.495, 656.998 462.220, 657.271 462.908, 657.418 463.545, 657.432 464.119, 657.305 464.614, 657.031 465.018, 656.604 465.316, 656.016 465.495, 655.261 465.540, 654.332 465.447, 653.029 465.242, 651.764 464.936, 650.534 464.541, 649.339 464.067, 648.174 463.527, 647.039 462.931, 645.930 462.290, 644.845 461.616, 643.781 460.919, 642.735 460.210, 641.704 459.502, 640.686 456.689, 636.763 454.319, 633.244 452.347, 630.047 450.729, 627.096 449.425, 624.313 448.391, 621.624 447.589, 618.953 446.978, 616.225 446.518, 613.368 446.171, 610.305 445.897, 606.962 445.658, 603.266 445.304, 596.963 444.976, 590.671 444.670, 584.387 444.385, 578.103 444.343, 577.120 444.117, 571.816 444.102, 571.447 443.866, 565.520 443.628, 559.210 443.400, 552.880 443.181, 546.525 442.969, 540.140 442.759, 533.720 442.551, 527.260 442.538, 526.143 442.574, 525.166 442.655, 524.326 442.778, 523.619 442.940, 523.040 443.138, 522.587 443.368, 522.255 443.627, 522.040 443.912, 521.939 444.220, 521.948 444.547, 522.063 444.891, 522.280 445.306, 522.641 445.734, 523.101 446.176, 523.663 446.630, 524.328 447.097, 525.098 447.578, 525.974 448.071, 526.958 448.578, 528.051 449.098, 529.256 449.631, 530.572 450.177, 532.003 450.736, 533.548 454.129, 542.955 457.521, 552.363 460.913, 561.770 462.533, 566.263 464.399, 571.438 467.791, 580.845 471.183, 590.252 474.575, 599.659 477.967, 609.066 481.359, 618.473 484.752, 627.881 488.144, 637.288 489.339, 640.603 490.019, 642.520 490.646, 644.360 491.220, 646.122 491.738, 647.807 491.952, 648.550 492.201, 649.416 492.607, 650.949 492.956, 652.407 493.246, 653.790 493.477, 655.099 493.647, 656.334 493.698, 656.873 493.757, 657.496 493.805, 658.586 493.701, 659.820 493.468, 660.889 493.101, 661.785 492.598, 662.505 491.953, 663.044 491.163, 663.396 " />
            <path fill="none" stroke-width="3.0" stroke-linecap="butt" stroke-opacity="1.0" stroke="rgb(0, 0, 0)" stroke-linejoin="miter" d=" M 491.163, 663.396 490.225, 663.556 489.136, 663.522 487.892, 663.287 486.490, 662.849 484.927, 662.202 483.201, 661.344 482.506, 661.078 481.865, 660.927 481.280, 660.896 480.753, 660.987 " />
            <path fill="none" stroke-width="3.0" stroke-linecap="butt" stroke-opacity="1.0" stroke="rgb(0, 0, 0)" stroke-linejoin="miter" d=" M 404.546, 588.395 403.098, 588.406 401.360, 588.024 399.316, 587.268 396.948, 586.159 396.184, 585.804 395.485, 585.567 394.853, 585.452 394.287, 585.461 393.790, 585.596 " />
            <path fill="none" stroke-width="3.0" stroke-linecap="butt" stroke-opacity="1.0" stroke="rgb(0, 0, 0)" stroke-linejoin="miter" d=" M 455.218, 382.133 464.998, 380.044 474.777, 377.956 484.557, 375.867 494.336, 373.778 504.115, 371.689 513.895, 369.600 523.674, 367.511 533.453, 365.422 543.233, 363.333 544.700, 363.020 554.480, 360.931 564.259, 358.842 574.039, 356.753 583.818, 354.664 592.373, 352.837 602.152, 350.748 607.259, 349.657 607.946, 349.484 608.572, 349.236 609.135, 348.897 609.633, 348.451 610.065, 347.884 610.428, 347.180 610.721, 346.322 610.942, 345.295 611.089, 344.084 611.161, 342.672 611.151, 341.537 611.072, 340.465 610.924, 339.458 610.711, 338.518 610.435, 337.645 610.096, 336.841 609.697, 336.106 609.241, 335.443 608.729, 334.851 608.163, 334.332 607.546, 333.886 606.879, 333.516 603.813, 332.074 600.462, 330.560 596.895, 328.993 593.179, 327.392 589.380, 325.776 585.562, 324.161 581.788, 322.566 578.117, 321.007 574.609, 319.500 571.321, 318.060 568.310, 316.702 565.629, 315.440 562.944, 314.096 560.040, 312.568 556.962, 310.894 553.756, 309.113 550.466, 307.260 547.133, 305.373 543.799, 303.488 540.507, 301.640 537.295, 299.863 534.203, 298.191 531.269, 296.657 528.531, 295.294 528.046, 295.114 527.551, 295.035 527.057, 295.056 517.227, 296.893 507.397, 298.730 497.567, 300.567 487.737, 302.403 477.908, 304.240 468.078, 306.077 458.248, 307.913 448.418, 309.750 438.588, 311.587 428.758, 313.423 418.928, 315.260 409.098, 317.097 399.268, 318.934 389.439, 320.770 381.463, 322.261 " />
            <path fill="none" stroke-width="3.0" stroke-linecap="butt" stroke-opacity="1.0" stroke="rgb(0, 0, 0)" stroke-linejoin="miter" d=" M 574.517, 452.361 584.219, 449.936 586.538, 449.357 596.239, 446.932 605.941, 444.507 615.642, 442.082 618.030, 441.486 627.731, 439.061 637.433, 436.636 647.135, 434.211 656.836, 431.786 659.196, 431.196 668.897, 428.772 678.599, 426.347 688.300, 423.922 698.002, 421.497 707.704, 419.072 717.405, 416.648 727.107, 414.223 736.919, 411.770 737.958, 411.341 738.892, 410.732 739.693, 409.924 740.331, 408.897 740.778, 407.632 741.004, 406.108 740.984, 404.837 740.773, 403.582 740.391, 402.353 739.854, 401.159 739.180, 400.009 738.390, 398.913 737.500, 397.879 736.529, 396.916 735.495, 396.033 734.418, 395.239 733.314, 394.543 732.202, 393.952 725.419, 390.711 719.035, 387.718 712.993, 384.931 707.238, 382.313 701.716, 379.828 696.378, 377.440 691.173, 375.115 686.054, 372.820 680.976, 370.522 675.894, 368.189 670.765, 365.791 665.547, 363.297 656.544, 358.944 647.541, 354.591 643.932, 352.846 643.330, 352.615 642.714, 352.494 642.095, 352.482 641.485, 352.581 631.714, 354.707 621.942, 356.834 612.171, 358.960 602.399, 361.086 592.628, 363.212 588.065, 364.205 578.294, 366.331 568.522, 368.457 558.751, 370.583 548.980, 372.709 544.685, 373.644 534.913, 375.770 525.142, 377.896 515.371, 380.022 505.599, 382.148 495.828, 384.275 485.928, 386.429 " />
            <path fill="none" stroke-width="3.0" stroke-linecap="butt" stroke-opacity="1.0" stroke="rgb(0, 0, 0)" stroke-linejoin="miter" d=" M 588.065, 364.205 588.081, 363.978 588.509, 360.824 589.138, 358.144 590.005, 355.906 591.142, 354.076 592.373, 352.837 " />
            <path fill="none" stroke-width="3.0" stroke-linecap="butt" stroke-opacity="1.0" stroke="rgb(0, 0, 0)" stroke-linejoin="miter" d=" M 578.070, 757.425 587.460, 753.986 596.850, 750.547 606.240, 747.107 615.630, 743.668 625.020, 740.229 634.410, 736.790 643.800, 733.351 653.190, 729.911 662.580, 726.472 671.970, 723.033 681.360, 719.594 690.750, 716.155 700.140, 712.715 709.530, 709.276 718.920, 705.837 726.390, 703.101 727.076, 702.687 727.588, 702.080 727.925, 701.288 728.084, 700.319 728.050, 698.936 727.788, 697.539 727.326, 696.135 726.695, 694.731 725.922, 693.337 725.039, 691.959 724.073, 690.606 723.055, 689.285 722.014, 688.002 720.978, 686.766 719.976, 685.582 719.036, 684.459 715.309, 680.047 711.923, 675.765 708.846, 671.591 706.046, 667.505 703.492, 663.487 701.154, 659.516 699.002, 655.574 697.007, 651.643 695.142, 647.704 693.378, 643.740 691.687, 639.734 690.042, 635.670 686.355, 626.374 682.668, 617.079 678.981, 607.783 675.294, 598.488 671.607, 589.192 667.920, 579.897 664.233, 570.601 660.546, 561.306 656.859, 552.010 653.172, 542.715 649.485, 533.419 645.798, 524.124 642.111, 514.828 638.424, 505.533 634.737, 496.237 631.050, 486.942 627.363, 477.646 626.343, 475.075 625.746, 473.486 625.265, 471.955 624.898, 470.485 624.645, 469.084 624.507, 467.756 624.483, 466.507 624.573, 465.344 624.777, 464.271 625.095, 463.296 625.528, 462.423 626.075, 461.660 626.737, 461.012 630.969, 457.358 635.180, 453.562 639.382, 449.660 643.586, 445.689 647.802, 441.688 652.044, 437.697 656.322, 433.754 659.196, 431.196 " />
            <path fill="none" stroke-width="3.0" stroke-linecap="butt" stroke-opacity="1.0" stroke="rgb(0, 0, 0)" stroke-linejoin="miter" d=" M 464.119, 657.305 473.658, 654.304 483.197, 651.304 491.952, 648.550 " />
        </g>
    </g>
</svg>
