<?xml version='1.0' encoding='ascii'?>
<svg xmlns="http://www.w3.org/2000/svg" version="1.1" width="1080" height="1080">
    <g id="View Layer_LineSet" xmlns:inkscape="http://www.inkscape.org/namespaces/inkscape" inkscape:groupmode="lineset" inkscape:label="View Layer_LineSet">
        <g xmlns:inkscape="http://www.inkscape.org/namespaces/inkscape" inkscape:groupmode="layer" id="strokes" inkscape:label="strokes">
            <path fill="none" stroke-width="3.0" stroke-linecap="butt" stroke-opacity="1.0" stroke="rgb(0, 0, 0)" stroke-linejoin="miter" d=" M 449.164, 382.813 451.532, 382.339 454.337, 382.134 457.616, 382.165 458.358, 382.115 459.044, 382.017 459.673, 381.855 460.242, 381.613 460.748, 381.274 461.189, 380.822 461.562, 380.239 461.646, 380.038 461.866, 379.511 462.098, 378.620 462.256, 377.550 462.336, 376.284 462.338, 374.806 462.276, 373.615 462.154, 372.489 461.971, 371.429 461.730, 370.437 461.433, 369.513 461.082, 368.660 460.678, 367.879 460.225, 367.170 459.723, 366.535 459.174, 365.975 458.582, 365.490 457.947, 365.083 455.039, 363.486 451.865, 361.805 448.489, 360.063 444.975, 358.282 441.385, 356.483 437.778, 354.686 434.214, 352.912 430.748, 351.178 427.436, 349.504 424.331, 347.906 421.486, 346.402 418.952, 345.009 416.411, 343.529 413.659, 341.851 410.741, 340.016 407.701, 338.065 404.579, 336.039 401.418, 333.976 398.258, 331.915 395.138, 329.894 392.096, 327.951 389.170, 326.121 386.397, 324.440 383.813, 322.944 383.357, 322.743 382.898, 322.647 382.445, 322.657 382.006, 322.772 381.592, 322.994 381.210, 323.321 380.870, 323.755 380.581, 324.296 380.352, 324.945 380.192, 325.701 380.110, 326.564 380.115, 327.537 380.212, 328.877 380.369, 330.159 380.583, 331.384 380.852, 332.553 381.176, 333.667 381.553, 334.727 381.982, 335.734 382.461, 336.690 382.989, 337.594 383.565, 338.448 384.187, 339.252 384.855, 340.008 387.718, 343.006 390.242, 345.861 392.444, 348.630 394.344, 351.371 395.962, 354.143 397.319, 357.005 398.437, 360.015 399.339, 363.233 400.046, 366.717 400.583, 370.526 400.973, 374.716 401.239, 379.344 401.676, 389.334 402.112, 399.325 402.548, 409.315 402.985, 419.305 403.421, 429.296 403.857, 439.286 404.294, 449.277 404.730, 459.267 405.166, 469.258 405.603, 479.248 406.039, 489.239 406.475, 499.229 406.912, 509.220 407.348, 519.210 407.785, 529.201 408.221, 539.191 408.657, 549.182 409.094, 559.172 409.530, 569.163 409.669, 572.349 409.792, 576.165 409.790, 579.442 409.663, 581.756 409.638, 582.199 409.316, 584.456 408.799, 586.229 408.067, 587.538 407.097, 588.401 405.868, 588.837 " />
            <path fill="none" stroke-width="3.0" stroke-linecap="butt" stroke-opacity="1.0" stroke="rgb(0, 0, 0)" stroke-linejoin="miter" d=" M 544.095, 447.143 544.466, 447.081 547.825, 446.521 551.805, 446.227 556.059, 446.296 560.608, 446.762 565.478, 447.663 570.693, 449.035 576.278, 450.917 577.294, 451.193 578.366, 451.408 579.470, 451.539 580.577, 451.565 581.661, 451.465 582.695, 451.217 583.650, 450.798 584.499, 450.187 585.215, 449.362 585.768, 448.302 586.130, 446.984 586.275, 445.387 586.200, 444.048 585.947, 442.720 585.534, 441.413 584.977, 440.139 584.295, 438.906 583.505, 437.727 583.069, 437.174 582.625, 436.610 581.672, 435.565 580.664, 434.603 579.618, 433.733 578.552, 432.965 577.484, 432.308 570.984, 428.684 564.873, 425.334 559.093, 422.214 553.593, 419.283 548.319, 416.499 543.223, 413.825 538.257, 411.222 533.375, 408.654 528.533, 406.085 523.687, 403.481 518.797, 400.807 513.822, 398.033 505.111, 393.121 496.400, 388.210 493.229, 386.422 492.659, 386.163 492.080, 386.017 491.504, 385.987 490.942, 386.073 490.405, 386.277 489.906, 386.599 489.455, 387.041 489.064, 387.604 488.744, 388.289 488.507, 389.097 488.364, 390.030 488.326, 391.089 488.389, 392.556 488.530, 393.965 488.746, 395.318 489.036, 396.614 489.397, 397.856 489.828, 399.044 490.326, 400.179 490.891, 401.262 491.521, 402.294 492.213, 403.276 492.967, 404.208 493.781, 405.092 495.868, 407.211 497.776, 409.309 499.506, 411.385 501.055, 413.435 502.424, 415.457 503.612, 417.450 504.618, 419.410 505.444, 421.335 506.089, 423.222 506.554, 425.071 506.840, 426.877 506.947, 428.640 506.912, 429.742 506.788, 430.810 506.579, 431.852 506.291, 432.869 505.929, 433.868 505.498, 434.853 505.003, 435.828 504.450, 436.797 503.843, 437.765 503.188, 438.737 502.490, 439.717 501.754, 440.710 495.729, 448.691 489.705, 456.673 483.680, 464.654 477.656, 472.636 471.631, 480.618 465.607, 488.599 459.582, 496.581 453.465, 504.685 452.839, 505.193 452.258, 505.673 451.717, 506.117 451.211, 506.517 450.735, 506.864 450.282, 507.150 449.848, 507.368 449.427, 507.509 " />
            <path fill="none" stroke-width="3.0" stroke-linecap="butt" stroke-opacity="1.0" stroke="rgb(0, 0, 0)" stroke-linejoin="miter" d=" M 449.427, 507.509 449.014, 507.566 448.604, 507.530 448.191, 507.393 447.770, 507.148 447.409, 506.855 447.060, 506.494 446.725, 506.063 446.407, 505.560 446.111, 504.983 445.839, 504.328 445.594, 503.595 445.380, 502.780 445.199, 501.881 445.055, 500.896 444.952, 499.822 444.891, 498.657 444.580, 488.662 444.269, 478.667 443.959, 468.672 443.648, 458.677 443.337, 448.681 443.026, 438.686 442.715, 428.691 442.404, 418.696 442.093, 408.701 441.968, 404.668 441.887, 400.281 441.957, 396.459 442.206, 393.170 442.664, 390.383 443.361, 388.065 444.328, 386.182 445.596, 384.702 447.197, 383.590 449.164, 382.813 " />
            <path fill="none" stroke-width="3.0" stroke-linecap="butt" stroke-opacity="1.0" stroke="rgb(0, 0, 0)" stroke-linejoin="miter" d=" M 498.385, 656.167 488.893, 659.316 484.949, 660.624 484.463, 660.844 484.039, 661.190 483.680, 661.665 483.388, 662.272 483.162, 663.013 483.006, 663.891 482.921, 664.908 482.909, 666.068 482.977, 667.008 483.137, 667.970 483.378, 668.941 483.691, 669.909 484.065, 670.861 484.489, 671.785 484.954, 672.667 485.448, 673.495 485.962, 674.256 486.485, 674.936 487.007, 675.523 487.517, 676.003 490.427, 678.419 493.283, 680.719 496.101, 682.930 498.897, 685.079 501.686, 687.192 504.485, 689.298 507.311, 691.425 510.179, 693.601 513.107, 695.855 516.113, 698.216 519.214, 700.714 522.428, 703.380 526.715, 707.048 531.015, 710.829 535.327, 714.705 539.653, 718.655 543.993, 722.661 548.348, 726.704 552.718, 730.762 557.105, 734.816 561.511, 738.847 565.936, 742.833 570.382, 746.754 574.851, 750.589 576.759, 752.129 578.514, 753.403 580.113, 754.417 581.555, 755.177 582.838, 755.691 583.958, 755.966 584.914, 756.008 585.703, 755.826 586.324, 755.427 586.775, 754.819 587.055, 754.010 587.160, 753.008 587.068, 751.566 586.762, 750.098 586.270, 748.613 585.619, 747.122 584.838, 745.633 583.953, 744.157 582.993, 742.702 581.986, 741.278 580.958, 739.894 579.938, 738.558 578.952, 737.279 578.026, 736.065 574.358, 731.297 571.014, 726.682 567.964, 722.194 565.175, 717.810 562.619, 713.508 560.266, 709.267 558.088, 705.064 556.058, 700.880 554.147, 696.693 552.329, 692.486 550.578, 688.237 548.866, 683.930 545.230, 674.614 541.594, 665.299 537.958, 655.983 535.484, 649.645 533.485, 644.524 530.374, 636.553 526.737, 627.237 523.101, 617.922 519.465, 608.606 515.829, 599.291 512.193, 589.975 508.557, 580.660 504.921, 571.344 501.285, 562.029 500.806, 560.802 498.789, 555.635 495.153, 546.319 491.517, 537.004 487.881, 527.688 484.245, 518.373 482.485, 513.864 481.921, 512.348 481.860, 512.184 481.343, 510.567 480.936, 509.019 480.638, 507.546 480.450, 506.154 480.370, 504.849 480.401, 503.636 480.541, 502.522 480.791, 501.514 481.152, 500.617 481.624, 499.838 482.207, 499.184 482.923, 498.484 485.964, 495.510 489.696, 491.684 493.417, 487.746 497.138, 483.733 500.872, 479.687 504.632, 475.649 508.431, 471.662 512.281, 467.768 516.197, 464.013 520.193, 460.440 524.283, 457.097 528.482, 454.031 531.267, 452.255 534.201, 450.648 537.304, 449.238 540.595, 448.059 544.095, 447.143 " />
            <path fill="none" stroke-width="3.0" stroke-linecap="butt" stroke-opacity="1.0" stroke="rgb(0, 0, 0)" stroke-linejoin="miter" d=" M 409.663, 581.756 400.066, 584.568 394.677, 586.148 394.232, 586.416 393.860, 586.813 393.563, 587.343 393.343, 588.008 393.200, 588.810 393.136, 589.751 393.153, 590.834 393.262, 591.755 393.495, 592.766 393.837, 593.846 394.271, 594.970 394.785, 596.115 395.362, 597.256 395.988, 598.370 396.649, 599.432 397.328, 600.419 398.012, 601.306 398.686, 602.069 399.333, 602.683 402.800, 605.541 405.984, 608.029 408.916, 610.200 411.628, 612.104 414.152, 613.796 416.522, 615.329 418.773, 616.759 420.939, 618.142 423.056, 619.534 425.161, 620.994 427.290, 622.579 429.482, 624.347 431.676, 626.254 433.911, 628.301 436.205, 630.485 438.576, 632.798 441.041, 635.235 443.620, 637.792 446.331, 640.462 449.196, 643.241 452.233, 646.126 455.466, 649.111 458.915, 652.193 462.603, 655.369 463.385, 655.973 464.171, 656.470 464.947, 656.855 465.699, 657.120 466.414, 657.259 467.076, 657.265 467.672, 657.132 468.188, 656.852 468.609, 656.420 468.920, 655.829 469.107, 655.072 469.156, 654.142 469.062, 652.840 468.852, 651.577 468.537, 650.351 468.129, 649.159 467.640, 648.000 467.081, 646.871 466.464, 645.768 465.800, 644.690 465.102, 643.633 464.380, 642.595 463.646, 641.572 462.911, 640.562 459.996, 636.670 457.541, 633.175 455.498, 629.999 453.823, 627.065 452.473, 624.296 451.405, 621.617 450.576, 618.954 449.947, 616.232 449.476, 613.378 449.122, 610.318 448.845, 606.978 448.605, 603.282 448.251, 596.981 447.924, 590.691 447.620, 584.407 447.337, 578.124 447.274, 576.610 447.074, 571.838 447.033, 570.803 446.826, 565.542 446.593, 559.231 446.371, 552.902 446.158, 546.547 445.951, 540.162 445.748, 533.742 445.546, 527.281 445.535, 526.164 445.575, 525.187 445.661, 524.346 445.790, 523.637 445.960, 523.057 446.167, 522.601 446.407, 522.267 446.677, 522.050 446.974, 521.946 447.294, 521.952 447.634, 522.064 447.990, 522.277 448.421, 522.634 448.866, 523.091 449.323, 523.649 449.794, 524.310 450.278, 525.075 450.776, 525.947 451.286, 526.926 451.811, 528.015 452.349, 529.215 452.900, 530.526 453.464, 531.952 454.042, 533.492 457.544, 542.859 461.046, 552.226 464.547, 561.593 465.921, 565.268 467.886, 570.523 471.387, 579.890 474.889, 589.257 478.391, 598.624 481.892, 607.991 485.394, 617.357 488.895, 626.724 492.397, 636.091 493.913, 640.146 494.615, 642.055 495.262, 643.887 495.854, 645.642 496.388, 647.321 496.493, 647.673 496.865, 648.925 497.284, 650.453 497.642, 651.907 497.941, 653.286 498.177, 654.592 498.352, 655.825 498.385, 656.167 498.463, 656.986 498.510, 658.074 498.400, 659.310 498.155, 660.381 497.773, 661.281 497.248, 662.007 496.577, 662.552 495.756, 662.913 " />
            <path fill="none" stroke-width="3.0" stroke-linecap="butt" stroke-opacity="1.0" stroke="rgb(0, 0, 0)" stroke-linejoin="miter" d=" M 495.756, 662.913 494.782, 663.085 493.650, 663.063 492.358, 662.842 490.903, 662.420 489.282, 661.791 487.491, 660.953 486.769, 660.695 486.104, 660.552 485.496, 660.528 484.949, 660.624 " />
            <path fill="none" stroke-width="3.0" stroke-linecap="butt" stroke-opacity="1.0" stroke="rgb(0, 0, 0)" stroke-linejoin="miter" d=" M 405.868, 588.837 404.360, 588.863 402.553, 588.499 400.426, 587.764 397.964, 586.679 397.169, 586.331 396.442, 586.102 395.784, 585.993 395.195, 586.008 394.677, 586.148 " />
            <path fill="none" stroke-width="3.0" stroke-linecap="butt" stroke-opacity="1.0" stroke="rgb(0, 0, 0)" stroke-linejoin="miter" d=" M 459.044, 382.017 468.805, 379.842 478.565, 377.667 488.326, 375.492 498.086, 373.316 507.847, 371.141 517.608, 368.966 527.368, 366.791 537.129, 364.616 544.586, 362.954 554.347, 360.778 564.107, 358.603 573.868, 356.428 583.629, 354.253 593.449, 352.064 603.210, 349.889 608.915, 348.617 609.621, 348.440 610.265, 348.187 610.843, 347.845 611.355, 347.397 611.798, 346.828 612.171, 346.122 612.471, 345.263 612.698, 344.237 612.849, 343.027 612.923, 341.617 612.913, 340.484 612.832, 339.414 612.680, 338.411 612.461, 337.473 612.177, 336.604 611.829, 335.803 611.419, 335.073 610.950, 334.413 610.424, 333.826 609.842, 333.312 609.208, 332.871 608.523, 332.506 605.373, 331.088 601.929, 329.600 598.263, 328.060 594.443, 326.486 590.538, 324.898 586.613, 323.312 582.733, 321.745 578.959, 320.213 575.351, 318.731 571.970, 317.315 568.873, 315.979 566.116, 314.737 563.353, 313.412 560.366, 311.905 557.200, 310.253 553.901, 308.495 550.515, 306.666 547.085, 304.803 543.655, 302.941 540.266, 301.116 536.961, 299.361 533.778, 297.710 530.757, 296.197 527.938, 294.853 527.438, 294.676 526.929, 294.600 526.420, 294.625 516.605, 296.536 506.789, 298.447 496.973, 300.358 487.158, 302.269 477.342, 304.180 467.526, 306.091 457.711, 308.003 447.895, 309.914 438.079, 311.825 428.264, 313.736 418.448, 315.647 408.632, 317.558 398.817, 319.469 389.001, 321.381 382.445, 322.657 " />
            <path fill="none" stroke-width="3.0" stroke-linecap="butt" stroke-opacity="1.0" stroke="rgb(0, 0, 0)" stroke-linejoin="miter" d=" M 582.695, 451.217 587.604, 449.934 597.279, 447.405 606.954, 444.877 616.629, 442.349 618.507, 441.858 628.182, 439.329 637.857, 436.801 647.533, 434.272 657.208, 431.744 660.901, 430.779 670.576, 428.250 680.251, 425.722 689.927, 423.193 699.602, 420.665 709.277, 418.136 718.952, 415.608 728.627, 413.080 738.302, 410.551 741.926, 409.604 742.990, 409.168 743.947, 408.554 744.767, 407.742 745.420, 406.714 745.877, 405.449 746.108, 403.929 746.088, 402.662 745.872, 401.413 745.480, 400.191 744.930, 399.005 744.240, 397.864 743.430, 396.778 742.519, 395.754 741.525, 394.802 740.466, 393.930 739.362, 393.147 738.232, 392.461 737.093, 391.881 730.145, 388.703 723.604, 385.767 717.413, 383.034 711.515, 380.467 705.855, 378.031 700.382, 375.690 695.046, 373.410 689.797, 371.159 684.589, 368.904 679.376, 366.614 674.115, 364.260 668.762, 361.811 659.687, 357.609 650.613, 353.407 646.578, 351.539 645.961, 351.313 645.328, 351.196 644.692, 351.189 644.067, 351.292 634.315, 353.507 624.563, 355.722 614.812, 357.937 605.060, 360.152 595.309, 362.367 589.155, 363.765 579.404, 365.980 569.652, 368.195 559.901, 370.410 550.149, 372.625 544.571, 373.892 534.819, 376.107 525.067, 378.322 515.316, 380.537 505.564, 382.752 495.813, 384.967 490.942, 386.073 " />
            <path fill="none" stroke-width="3.0" stroke-linecap="butt" stroke-opacity="1.0" stroke="rgb(0, 0, 0)" stroke-linejoin="miter" d=" M 589.155, 363.765 589.207, 363.054 589.646, 359.901 590.293, 357.221 591.184, 354.980 592.352, 353.145 593.449, 352.064 " />
            <path fill="none" stroke-width="3.0" stroke-linecap="butt" stroke-opacity="1.0" stroke="rgb(0, 0, 0)" stroke-linejoin="miter" d=" M 585.703, 755.826 595.042, 752.250 604.380, 748.674 613.719, 745.098 623.058, 741.522 632.397, 737.946 641.735, 734.370 651.074, 730.794 660.413, 727.218 669.752, 723.642 679.090, 720.066 688.429, 716.490 697.768, 712.914 707.106, 709.338 716.445, 705.761 725.784, 702.185 731.182, 700.118 731.885, 699.697 732.409, 699.086 732.754, 698.293 732.917, 697.324 732.882, 695.947 732.614, 694.557 732.141, 693.162 731.493, 691.770 730.702, 690.388 729.797, 689.025 728.807, 687.687 727.764, 686.381 726.697, 685.114 725.635, 683.893 724.608, 682.725 723.646, 681.615 719.825, 677.258 716.355, 673.027 713.201, 668.900 710.331, 664.856 707.712, 660.877 705.315, 656.942 703.108, 653.035 701.063, 649.136 699.150, 645.228 697.341, 641.294 695.606, 637.317 693.919, 633.280 690.128, 624.027 686.337, 614.773 682.547, 605.519 678.756, 596.266 674.965, 587.012 671.175, 577.758 667.384, 568.505 663.593, 559.251 659.802, 549.997 656.012, 540.743 652.221, 531.490 648.430, 522.236 644.640, 512.982 640.849, 503.729 637.058, 494.475 633.268, 485.221 629.477, 475.968 628.532, 473.661 627.919, 472.081 627.424, 470.556 627.047, 469.093 626.788, 467.696 626.646, 466.372 626.621, 465.125 626.713, 463.963 626.923, 462.891 627.250, 461.915 627.694, 461.040 628.256, 460.273 628.935, 459.621 633.281, 455.938 637.605, 452.114 641.919, 448.184 646.234, 444.187 650.562, 440.160 654.915, 436.142 659.305, 432.173 660.901, 430.779 " />
            <path fill="none" stroke-width="3.0" stroke-linecap="butt" stroke-opacity="1.0" stroke="rgb(0, 0, 0)" stroke-linejoin="miter" d=" M 467.672, 657.132 477.174, 654.013 486.675, 650.895 496.177, 647.776 496.493, 647.673 " />
        </g>
    </g>
</svg>
