<?xml version='1.0' encoding='ascii'?>
<svg xmlns="http://www.w3.org/2000/svg" version="1.1" width="1080" height="1080">
    <g id="View Layer_LineSet" xmlns:inkscape="http://www.inkscape.org/namespaces/inkscape" inkscape:groupmode="lineset" inkscape:label="View Layer_LineSet">
        <g xmlns:inkscape="http://www.inkscape.org/namespaces/inkscape" inkscape:groupmode="layer" id="strokes" inkscape:label="strokes">
            <path fill="none" stroke-width="3.0" stroke-linecap="butt" stroke-opacity="1.0" stroke="rgb(0, 0, 0)" stroke-linejoin="miter" d=" M 452.447, 382.751 454.900, 382.260 457.806, 382.034 461.202, 382.041 461.970, 381.985 462.681, 381.883 463.333, 381.716 463.922, 381.470 464.447, 381.127 464.904, 380.671 465.293, 380.087 465.440, 379.746 465.609, 379.356 465.851, 378.463 466.016, 377.392 466.102, 376.126 466.107, 374.648 466.046, 373.457 465.921, 372.332 465.733, 371.273 465.486, 370.283 465.181, 369.362 464.819, 368.511 464.403, 367.733 463.934, 367.027 463.416, 366.396 462.849, 365.839 462.236, 365.359 461.580, 364.956 458.572, 363.380 455.288, 361.721 451.795, 360.003 448.158, 358.247 444.442, 356.473 440.709, 354.701 437.020, 352.951 433.432, 351.240 430.003, 349.588 426.789, 348.011 423.843, 346.526 421.219, 345.150 418.587, 343.687 415.738, 342.027 412.717, 340.211 409.569, 338.280 406.336, 336.273 403.062, 334.230 399.789, 332.189 396.557, 330.188 393.406, 328.263 390.375, 326.451 387.502, 324.787 384.824, 323.307 384.352, 323.109 383.876, 323.016 383.405, 323.029 382.950, 323.147 382.519, 323.371 382.122, 323.702 381.769, 324.139 381.468, 324.682 381.229, 325.332 381.062, 326.090 380.975, 326.955 380.977, 327.929 381.076, 329.269 381.236, 330.551 381.455, 331.776 381.732, 332.944 382.066, 334.057 382.455, 335.116 382.898, 336.121 383.393, 337.074 383.939, 337.976 384.534, 338.826 385.178, 339.627 385.869, 340.379 388.834, 343.360 391.446, 346.200 393.724, 348.956 395.689, 351.687 397.361, 354.450 398.763, 357.304 399.917, 360.309 400.845, 363.523 401.572, 367.004 402.120, 370.811 402.516, 375.001 402.782, 379.631 403.214, 389.622 403.645, 399.612 404.077, 409.603 404.509, 419.594 404.940, 429.584 405.372, 439.575 405.803, 449.566 406.235, 459.556 406.666, 469.547 407.098, 479.538 407.529, 489.528 407.961, 499.519 408.392, 509.510 408.824, 519.500 409.256, 529.491 409.687, 539.482 410.119, 549.472 410.550, 559.463 410.982, 569.454 411.122, 572.707 411.242, 576.526 411.233, 579.805 411.108, 581.925 411.070, 582.566 410.731, 584.827 410.191, 586.607 409.429, 587.925 408.422, 588.798 407.147, 589.246 " />
            <path fill="none" stroke-width="3.0" stroke-linecap="butt" stroke-opacity="1.0" stroke="rgb(0, 0, 0)" stroke-linejoin="miter" d=" M 546.914, 447.263 550.533, 446.318 554.388, 445.667 558.501, 445.341 562.896, 445.375 567.595, 445.804 572.623, 446.664 578.006, 447.992 583.770, 449.826 584.818, 450.094 585.925, 450.299 587.065, 450.421 588.208, 450.439 588.567, 450.404 589.327, 450.330 590.395, 450.073 591.382, 449.647 592.260, 449.031 593.000, 448.201 593.573, 447.138 593.950, 445.819 594.103, 444.223 594.028, 442.887 593.770, 441.563 593.346, 440.262 592.774, 438.993 592.072, 437.769 591.258, 436.597 590.483, 435.650 590.352, 435.489 589.370, 434.453 588.824, 433.953 588.331, 433.501 587.253, 432.641 586.154, 431.882 585.052, 431.234 578.348, 427.667 572.043, 424.369 566.080, 421.299 560.403, 418.413 554.960, 415.674 549.699, 413.042 544.572, 410.480 539.531, 407.951 534.531, 405.422 529.526, 402.856 524.475, 400.222 519.336, 397.486 510.530, 392.748 501.724, 388.009 498.058, 386.036 497.469, 385.780 496.870, 385.639 496.274, 385.613 495.692, 385.703 495.136, 385.911 494.619, 386.237 494.152, 386.682 493.746, 387.248 493.414, 387.935 493.167, 388.745 493.016, 389.678 492.975, 390.737 493.038, 392.203 493.181, 393.611 493.401, 394.961 493.698, 396.254 494.069, 397.493 494.513, 398.677 495.026, 399.808 495.609, 400.887 496.258, 401.914 496.973, 402.890 497.751, 403.816 498.591, 404.694 500.746, 406.795 502.716, 408.878 504.501, 410.939 506.100, 412.977 507.512, 414.988 508.736, 416.970 509.774, 418.921 510.624, 420.838 511.287, 422.720 511.764, 424.564 512.056, 426.367 512.163, 428.128 512.125, 429.229 511.995, 430.298 511.777, 431.341 511.477, 432.360 511.100, 433.361 510.652, 434.349 510.138, 435.327 509.564, 436.300 508.934, 437.273 508.254, 438.250 507.530, 439.235 506.767, 440.233 500.624, 448.123 494.481, 456.014 488.338, 463.905 482.194, 471.795 476.051, 479.686 469.908, 487.577 463.765, 495.467 457.622, 503.358 456.651, 504.605 456.001, 505.120 455.398, 505.605 454.837, 506.054 454.312, 506.458 453.818, 506.809 453.348, 507.099 452.898, 507.321 452.462, 507.466 " />
            <path fill="none" stroke-width="3.0" stroke-linecap="butt" stroke-opacity="1.0" stroke="rgb(0, 0, 0)" stroke-linejoin="miter" d=" M 452.462, 507.466 452.034, 507.527 451.609, 507.494 451.182, 507.361 450.746, 507.119 450.373, 506.830 450.012, 506.472 449.665, 506.044 449.338, 505.544 449.032, 504.969 448.752, 504.316 448.500, 503.585 448.279, 502.772 448.094, 501.874 447.947, 500.890 447.842, 499.817 447.781, 498.652 447.480, 488.657 447.178, 478.661 446.877, 468.666 446.576, 458.671 446.274, 448.675 445.973, 438.680 445.671, 428.684 445.370, 418.689 445.068, 408.693 444.947, 404.664 444.872, 400.276 444.952, 396.453 445.217, 393.162 445.697, 390.371 446.425, 388.047 447.430, 386.156 448.747, 384.666 450.408, 383.542 452.447, 382.751 " />
            <path fill="none" stroke-width="3.0" stroke-linecap="butt" stroke-opacity="1.0" stroke="rgb(0, 0, 0)" stroke-linejoin="miter" d=" M 502.822, 655.443 493.370, 658.707 488.928, 660.240 488.425, 660.466 487.986, 660.816 487.613, 661.295 487.309, 661.905 487.074, 662.648 486.911, 663.528 486.821, 664.546 486.806, 665.706 486.874, 666.645 487.037, 667.605 487.285, 668.573 487.607, 669.538 487.992, 670.486 488.430, 671.405 488.909, 672.282 489.419, 673.105 489.949, 673.860 490.489, 674.534 491.028, 675.115 491.555, 675.590 494.561, 677.973 497.512, 680.241 500.424, 682.421 503.312, 684.538 506.194, 686.620 509.086, 688.694 512.004, 690.788 514.966, 692.931 517.991, 695.151 521.095, 697.478 524.297, 699.940 527.616, 702.568 532.041, 706.185 536.478, 709.915 540.929, 713.739 545.392, 717.637 549.870, 721.590 554.362, 725.579 558.870, 729.583 563.395, 733.583 567.939, 737.557 572.502, 741.487 577.086, 745.352 581.694, 749.129 583.661, 750.645 585.471, 751.896 587.121, 752.890 588.609, 753.632 589.932, 754.130 591.087, 754.391 592.074, 754.422 592.890, 754.231 593.532, 753.825 593.999, 753.212 594.289, 752.401 594.400, 751.398 594.308, 749.960 593.995, 748.497 593.490, 747.020 592.821, 745.539 592.017, 744.061 591.106, 742.597 590.118, 741.155 589.081, 739.745 588.023, 738.375 586.972, 737.052 585.956, 735.786 585.003, 734.585 581.224, 729.866 577.780, 725.294 574.638, 720.847 571.766, 716.500 569.135, 712.232 566.712, 708.021 564.471, 703.847 562.381, 699.690 560.416, 695.529 558.546, 691.346 556.745, 687.121 554.985, 682.836 551.243, 673.563 547.502, 664.289 543.761, 655.015 541.008, 648.192 538.907, 642.984 535.636, 634.876 531.894, 625.602 528.153, 616.329 524.412, 607.055 520.670, 597.781 516.929, 588.507 513.187, 579.234 509.446, 569.960 505.705, 560.686 505.096, 559.178 502.982, 553.938 499.241, 544.665 495.500, 535.391 491.758, 526.117 488.017, 516.844 486.679, 513.526 486.035, 511.852 485.960, 511.624 485.504, 510.240 485.086, 508.696 484.780, 507.226 484.588, 505.836 484.508, 504.531 484.542, 503.319 484.689, 502.204 484.951, 501.194 485.326, 500.294 485.816, 499.511 486.422, 498.851 487.769, 497.570 490.317, 495.145 494.187, 491.288 498.045, 487.318 501.904, 483.275 505.776, 479.199 509.673, 475.131 513.610, 471.114 517.601, 467.190 521.659, 463.404 525.798, 459.801 530.034, 456.427 534.381, 453.328 537.263, 451.531 540.300, 449.901 543.510, 448.468 546.914, 447.263 " />
            <path fill="none" stroke-width="3.0" stroke-linecap="butt" stroke-opacity="1.0" stroke="rgb(0, 0, 0)" stroke-linejoin="miter" d=" M 411.108, 581.925 401.542, 584.839 395.545, 586.665 395.082, 586.938 394.696, 587.340 394.387, 587.873 394.157, 588.541 394.007, 589.344 393.939, 590.287 393.954, 591.372 394.066, 592.292 394.305, 593.302 394.657, 594.380 395.106, 595.501 395.636, 596.641 396.232, 597.777 396.880, 598.886 397.563, 599.943 398.265, 600.924 398.973, 601.805 399.670, 602.562 400.340, 603.170 403.930, 605.995 407.227, 608.453 410.263, 610.596 413.071, 612.474 415.685, 614.141 418.139, 615.651 420.469, 617.059 422.711, 618.421 424.903, 619.792 427.082, 621.231 429.286, 622.795 431.554, 624.542 433.824, 626.426 436.136, 628.452 438.509, 630.613 440.960, 632.902 443.510, 635.315 446.176, 637.845 448.980, 640.488 451.942, 643.238 455.083, 646.091 458.425, 649.042 461.991, 652.089 465.804, 655.226 466.612, 655.821 467.425, 656.310 468.228, 656.686 469.007, 656.943 469.746, 657.075 470.432, 657.074 471.050, 656.934 471.585, 656.649 472.021, 656.213 472.345, 655.618 472.540, 654.858 472.593, 653.928 472.498, 652.627 472.283, 651.366 471.959, 650.143 471.540, 648.956 471.035, 647.802 470.459, 646.678 469.822, 645.582 469.137, 644.511 468.416, 643.461 467.670, 642.430 466.912, 641.415 466.154, 640.412 463.143, 636.550 460.607, 633.081 458.498, 629.926 456.769, 627.008 455.376, 624.252 454.275, 621.584 453.423, 618.928 452.776, 616.212 452.294, 613.362 451.934, 610.305 451.654, 606.966 451.412, 603.272 451.059, 596.972 450.733, 590.684 450.431, 584.401 450.151, 578.119 450.067, 576.070 449.891, 571.833 449.826, 570.131 449.648, 565.538 449.419, 559.228 449.203, 552.898 448.995, 546.544 448.794, 540.159 448.597, 533.739 448.401, 527.278 448.392, 526.161 448.435, 525.183 448.526, 524.341 448.661, 523.631 448.838, 523.049 449.053, 522.591 449.303, 522.255 449.583, 522.035 449.891, 521.929 450.222, 521.932 450.574, 522.041 450.943, 522.251 451.389, 522.604 451.848, 523.057 452.321, 523.611 452.807, 524.267 453.307, 525.029 453.821, 525.896 454.348, 526.871 454.889, 527.955 455.443, 529.150 456.012, 530.457 456.593, 531.877 457.189, 533.413 460.793, 542.741 464.398, 552.069 468.002, 561.397 469.107, 564.257 471.169, 569.593 474.773, 578.920 478.378, 588.248 481.982, 597.576 485.586, 606.904 489.191, 616.232 492.795, 625.560 496.399, 634.888 498.247, 639.670 498.970, 641.571 499.636, 643.396 500.244, 645.145 500.782, 646.780 500.794, 646.818 501.284, 648.415 501.714, 649.939 502.082, 651.388 502.388, 652.764 502.630, 654.067 502.808, 655.298 502.822, 655.443 502.921, 656.457 502.968, 657.545 502.851, 658.782 502.596, 659.855 502.198, 660.759 501.653, 661.490 500.958, 662.043 500.108, 662.413 " />
            <path fill="none" stroke-width="3.0" stroke-linecap="butt" stroke-opacity="1.0" stroke="rgb(0, 0, 0)" stroke-linejoin="miter" d=" M 500.108, 662.413 499.099, 662.595 497.928, 662.585 496.592, 662.378 495.087, 661.972 493.410, 661.361 491.558, 660.542 490.812, 660.291 490.124, 660.156 489.495, 660.138 488.928, 660.240 " />
            <path fill="none" stroke-width="3.0" stroke-linecap="butt" stroke-opacity="1.0" stroke="rgb(0, 0, 0)" stroke-linejoin="miter" d=" M 407.147, 589.246 405.583, 589.287 403.709, 588.941 401.505, 588.226 398.953, 587.165 398.130, 586.824 397.376, 586.602 396.693, 586.500 396.082, 586.520 395.545, 586.665 " />
            <path fill="none" stroke-width="3.0" stroke-linecap="butt" stroke-opacity="1.0" stroke="rgb(0, 0, 0)" stroke-linejoin="miter" d=" M 462.681, 381.883 472.423, 379.624 482.164, 377.365 491.906, 375.106 501.647, 372.847 511.389, 370.588 521.130, 368.329 530.872, 366.070 540.613, 363.811 544.446, 362.922 554.188, 360.663 563.929, 358.404 573.670, 356.145 583.412, 353.886 593.154, 351.627 594.396, 351.339 604.138, 349.080 610.428, 347.621 611.152, 347.439 611.811, 347.182 612.404, 346.837 612.928, 346.386 613.382, 345.815 613.765, 345.108 614.073, 344.249 614.305, 343.222 614.460, 342.013 614.535, 340.605 614.525, 339.474 614.441, 338.407 614.286, 337.406 614.061, 336.472 613.770, 335.606 613.413, 334.809 612.993, 334.082 612.512, 333.427 611.973, 332.844 611.377, 332.334 610.727, 331.899 610.025, 331.538 606.796, 330.143 603.265, 328.679 599.507, 327.166 595.591, 325.620 591.587, 324.059 587.562, 322.500 583.583, 320.960 579.712, 319.454 576.012, 317.997 572.543, 316.604 569.365, 315.289 566.537, 314.066 563.702, 312.760 560.637, 311.273 557.388, 309.644 554.003, 307.907 550.527, 306.101 547.007, 304.261 543.486, 302.422 540.007, 300.619 536.613, 298.886 533.345, 297.256 530.243, 295.762 527.349, 294.436 526.835, 294.263 526.312, 294.190 525.790, 294.218 515.988, 296.201 506.187, 298.184 496.386, 300.167 486.584, 302.151 476.783, 304.134 466.982, 306.117 457.180, 308.101 447.379, 310.084 437.578, 312.067 427.776, 314.050 417.975, 316.034 408.173, 318.017 398.372, 320.000 388.571, 321.984 383.405, 323.029 " />
            <path fill="none" stroke-width="3.0" stroke-linecap="butt" stroke-opacity="1.0" stroke="rgb(0, 0, 0)" stroke-linejoin="miter" d=" M 590.395, 450.073 600.043, 447.444 609.691, 444.814 618.692, 442.362 628.340, 439.732 637.988, 437.103 647.636, 434.473 657.285, 431.844 662.236, 430.495 671.884, 427.865 681.532, 425.236 691.180, 422.606 700.829, 419.977 710.477, 417.348 720.125, 414.718 729.773, 412.089 739.421, 409.460 746.541, 407.519 747.628, 407.076 748.606, 406.457 749.443, 405.642 750.110, 404.612 750.577, 403.348 750.813, 401.831 750.792, 400.569 750.572, 399.325 750.171, 398.110 749.609, 396.932 748.904, 395.800 748.076, 394.723 747.145, 393.709 746.129, 392.767 745.048, 391.906 743.920, 391.133 742.765, 390.458 741.601, 389.887 734.500, 386.769 727.816, 383.889 721.487, 381.209 715.457, 378.691 709.670, 376.302 704.073, 374.005 698.615, 371.769 693.246, 369.561 687.919, 367.348 682.585, 365.100 677.201, 362.788 671.723, 360.381 662.585, 356.319 653.448, 352.256 649.012, 350.284 648.380, 350.062 647.732, 349.950 647.081, 349.947 646.440, 350.054 636.709, 352.356 626.977, 354.657 617.245, 356.958 607.514, 359.260 597.782, 361.561 590.136, 363.369 580.405, 365.670 570.673, 367.972 560.942, 370.273 551.210, 372.574 544.430, 374.178 534.699, 376.479 524.967, 378.780 515.236, 381.082 505.504, 383.383 495.692, 385.703 " />
            <path fill="none" stroke-width="3.0" stroke-linecap="butt" stroke-opacity="1.0" stroke="rgb(0, 0, 0)" stroke-linejoin="miter" d=" M 590.136, 363.369 590.226, 362.169 590.676, 359.019 591.339, 356.337 592.252, 354.093 593.450, 352.253 594.396, 351.339 " />
            <path fill="none" stroke-width="3.0" stroke-linecap="butt" stroke-opacity="1.0" stroke="rgb(0, 0, 0)" stroke-linejoin="miter" d=" M 592.890, 754.231 602.177, 750.523 611.464, 746.814 620.751, 743.106 630.038, 739.398 639.325, 735.689 648.612, 731.981 657.899, 728.273 667.186, 724.565 676.473, 720.856 685.760, 717.148 695.047, 713.440 704.334, 709.732 713.621, 706.023 722.908, 702.315 732.195, 698.607 735.605, 697.245 736.322, 696.818 736.859, 696.203 737.211, 695.408 737.377, 694.441 737.342, 693.067 737.067, 691.684 736.583, 690.298 735.921, 688.918 735.112, 687.549 734.187, 686.199 733.176, 684.876 732.109, 683.585 731.018, 682.333 729.933, 681.127 728.883, 679.973 727.899, 678.877 723.993, 674.573 720.445, 670.390 717.220, 666.307 714.284, 662.305 711.606, 658.364 709.154, 654.465 706.897, 650.590 704.805, 646.723 702.848, 642.845 700.997, 638.939 699.223, 634.990 697.496, 630.980 693.609, 621.767 689.721, 612.554 685.833, 603.340 681.946, 594.127 678.058, 584.913 674.171, 575.700 670.283, 566.487 666.395, 557.273 662.508, 548.060 658.620, 538.846 654.733, 529.633 650.845, 520.420 646.957, 511.206 643.070, 501.993 639.182, 492.779 635.295, 483.566 631.407, 474.353 630.542, 472.304 629.914, 470.731 629.407, 469.214 629.021, 467.756 628.755, 466.364 628.609, 465.043 628.584, 463.799 628.678, 462.638 628.893, 461.566 629.228, 460.589 629.683, 459.712 630.258, 458.942 630.954, 458.286 635.405, 454.575 639.834, 450.723 644.252, 446.767 648.670, 442.743 653.101, 438.690 657.557, 434.647 662.052, 430.653 662.236, 430.495 " />
            <path fill="none" stroke-width="3.0" stroke-linecap="butt" stroke-opacity="1.0" stroke="rgb(0, 0, 0)" stroke-linejoin="miter" d=" M 471.050, 656.934 480.513, 653.702 489.977, 650.470 499.440, 647.238 500.782, 646.780 " />
        </g>
    </g>
</svg>
