<?xml version='1.0' encoding='ascii'?>
<svg xmlns="http://www.w3.org/2000/svg" version="1.1" width="1080" height="1080">
    <g id="View Layer_LineSet" xmlns:inkscape="http://www.inkscape.org/namespaces/inkscape" inkscape:groupmode="lineset" inkscape:label="View Layer_LineSet">
        <g xmlns:inkscape="http://www.inkscape.org/namespaces/inkscape" inkscape:groupmode="layer" id="strokes" inkscape:label="strokes">
            <path fill="none" stroke-width="3.0" stroke-linecap="butt" stroke-opacity="1.0" stroke="rgb(0, 0, 0)" stroke-linejoin="miter" d=" M 455.560, 382.673 458.093, 382.164 461.093, 381.918 464.598, 381.902 465.391, 381.841 466.125, 381.734 466.798, 381.563 467.407, 381.312 467.949, 380.966 468.422, 380.507 468.824, 379.920 469.040, 379.437 469.152, 379.187 469.403, 378.293 469.576, 377.220 469.667, 375.953 469.674, 374.475 469.614, 373.286 469.487, 372.161 469.295, 371.104 469.042, 370.115 468.728, 369.197 468.357, 368.349 467.928, 367.573 467.446, 366.870 466.912, 366.242 466.329, 365.690 465.697, 365.214 465.020, 364.815 461.919, 363.259 458.532, 361.622 454.929, 359.928 451.178, 358.195 447.345, 356.445 443.493, 354.698 439.686, 352.971 435.984, 351.284 432.446, 349.654 429.128, 348.098 426.088, 346.631 423.380, 345.271 420.664, 343.825 417.724, 342.182 414.605, 340.385 411.355, 338.473 408.019, 336.486 404.639, 334.462 401.260, 332.441 397.923, 330.458 394.669, 328.552 391.539, 326.758 388.571, 325.111 385.805, 323.646 385.318, 323.450 384.826, 323.361 384.339, 323.376 383.868, 323.497 383.422, 323.725 383.011, 324.058 382.645, 324.497 382.333, 325.043 382.085, 325.695 381.910, 326.455 381.818, 327.321 381.819, 328.295 381.919, 329.637 382.081, 330.919 382.306, 332.143 382.590, 333.311 382.933, 334.423 383.333, 335.480 383.789, 336.483 384.299, 337.434 384.862, 338.332 385.477, 339.180 386.141, 339.977 386.854, 340.725 389.913, 343.690 392.608, 346.515 394.958, 349.259 396.984, 351.978 398.708, 354.732 400.152, 357.579 401.338, 360.578 402.292, 363.788 403.036, 367.267 403.596, 371.073 403.997, 375.263 404.263, 379.894 404.690, 389.885 405.117, 399.876 405.544, 409.867 405.971, 419.858 406.398, 429.848 406.825, 439.839 407.252, 449.830 407.679, 459.821 408.106, 469.812 408.533, 479.803 408.960, 489.794 409.387, 499.785 409.814, 509.776 410.241, 519.766 410.667, 529.757 411.094, 539.748 411.521, 549.739 411.948, 559.730 412.375, 569.721 412.517, 573.036 412.634, 576.856 412.617, 580.138 412.497, 582.062 412.444, 582.902 412.089, 585.168 411.529, 586.954 410.739, 588.280 409.696, 589.163 408.377, 589.623 " />
            <path fill="none" stroke-width="3.0" stroke-linecap="butt" stroke-opacity="1.0" stroke="rgb(0, 0, 0)" stroke-linejoin="miter" d=" M 552.857, 446.467 556.587, 445.496 560.559, 444.816 564.795, 444.459 569.321, 444.460 574.158, 444.852 579.334, 445.673 584.873, 446.958 589.474, 448.345 590.802, 448.745 591.880, 449.004 593.019, 449.201 594.191, 449.314 595.368, 449.323 596.520, 449.205 597.619, 448.941 598.636, 448.508 599.540, 447.886 600.303, 447.052 600.895, 445.986 601.285, 444.666 601.445, 443.072 601.371, 441.738 601.108, 440.418 600.673, 439.122 600.087, 437.860 599.367, 436.642 598.532, 435.478 597.601, 434.378 597.364, 434.137 596.593, 433.352 595.526, 432.409 594.418, 431.558 593.289, 430.808 592.156, 430.170 589.782, 428.961 585.261, 426.657 578.777, 423.411 572.643, 420.388 566.803, 417.548 561.202, 414.851 555.789, 412.260 550.512, 409.738 545.324, 407.248 540.176, 404.756 535.024, 402.229 529.824, 399.633 524.532, 396.936 515.643, 392.355 506.754, 387.774 502.615, 385.641 502.008, 385.389 501.391, 385.252 500.776, 385.231 500.176, 385.325 499.603, 385.536 499.068, 385.866 498.585, 386.314 498.166, 386.882 497.822, 387.571 497.566, 388.383 497.409, 389.317 497.364, 390.375 497.427, 391.841 497.571, 393.246 497.797, 394.594 498.100, 395.886 498.481, 397.121 498.936, 398.302 499.463, 399.429 500.062, 400.503 500.730, 401.524 501.465, 402.495 502.266, 403.416 503.130, 404.287 505.349, 406.372 507.377, 408.439 509.213, 410.487 510.858, 412.511 512.310, 414.511 513.569, 416.483 514.635, 418.425 515.508, 420.336 516.188, 422.211 516.677, 424.050 516.974, 425.851 517.081, 427.610 517.040, 428.710 516.903, 429.780 516.677, 430.823 516.366, 431.845 515.975, 432.848 515.512, 433.838 514.980, 434.820 514.386, 435.797 513.735, 436.774 513.032, 437.755 512.284, 438.745 511.495, 439.748 505.247, 447.556 498.999, 455.364 492.750, 463.171 486.502, 470.979 480.254, 478.787 474.006, 486.594 467.758, 494.402 461.509, 502.210 459.671, 504.508 458.999, 505.027 458.376, 505.518 457.796, 505.971 457.253, 506.380 456.742, 506.735 456.257, 507.029 455.792, 507.255 455.341, 507.404 " />
            <path fill="none" stroke-width="3.0" stroke-linecap="butt" stroke-opacity="1.0" stroke="rgb(0, 0, 0)" stroke-linejoin="miter" d=" M 455.341, 507.404 454.899, 507.468 454.460, 507.439 454.019, 507.309 453.570, 507.071 453.185, 506.785 452.813, 506.430 452.456, 506.005 452.119, 505.507 451.804, 504.934 451.516, 504.284 451.257, 503.555 451.031, 502.743 450.841, 501.847 450.691, 500.864 450.585, 499.792 450.525, 498.627 450.232, 488.631 449.940, 478.636 449.647, 468.640 449.355, 458.644 449.062, 448.649 448.770, 438.653 448.477, 428.657 448.185, 418.661 447.892, 408.666 447.775, 404.641 447.706, 400.253 447.796, 396.429 448.075, 393.135 448.577, 390.340 449.332, 388.011 450.374, 386.113 451.736, 384.614 453.453, 383.478 455.560, 382.673 " />
            <path fill="none" stroke-width="3.0" stroke-linecap="butt" stroke-opacity="1.0" stroke="rgb(0, 0, 0)" stroke-linejoin="miter" d=" M 507.006, 654.709 497.593, 658.084 492.689, 659.842 492.169, 660.072 491.715, 660.427 491.330, 660.910 491.015, 661.523 490.771, 662.268 490.601, 663.149 490.507, 664.169 490.489, 665.329 490.557, 666.267 490.724, 667.225 490.978, 668.191 491.309, 669.152 491.704, 670.096 492.153, 671.011 492.646, 671.883 493.170, 672.700 493.716, 673.449 494.272, 674.118 494.827, 674.693 495.369, 675.162 498.466, 677.514 501.506, 679.751 504.505, 681.900 507.480, 683.986 510.447, 686.037 513.425, 688.080 516.430, 690.143 519.481, 692.254 522.594, 694.441 525.790, 696.734 529.086, 699.161 532.502, 701.752 537.056, 705.320 541.622, 709.000 546.201, 712.773 550.792, 716.620 555.398, 720.522 560.018, 724.458 564.654, 728.409 569.307, 732.355 573.978, 736.276 578.669, 740.151 583.382, 743.960 588.119, 747.682 590.141, 749.174 592.001, 750.404 593.698, 751.378 595.227, 752.102 596.588, 752.585 597.777, 752.832 598.793, 752.852 599.632, 752.652 600.294, 752.239 600.776, 751.622 601.076, 750.808 601.192, 749.806 601.099, 748.371 600.780, 746.914 600.263, 745.444 599.577, 743.972 598.753, 742.505 597.818, 741.053 596.804, 739.624 595.739, 738.227 594.652, 736.870 593.573, 735.561 592.530, 734.308 591.551, 733.118 587.670, 728.447 584.133, 723.918 580.906, 719.510 577.958, 715.199 575.256, 710.963 572.769, 706.783 570.469, 702.638 568.325, 698.506 566.308, 694.370 564.390, 690.211 562.542, 686.009 560.737, 681.746 556.898, 672.513 553.058, 663.279 549.219, 654.046 546.184, 646.747 543.983, 641.453 540.555, 633.212 536.716, 623.978 532.876, 614.745 529.037, 605.511 525.197, 596.278 521.358, 587.044 517.518, 577.811 513.679, 568.577 509.839, 559.344 509.099, 557.563 506.891, 552.253 503.051, 543.019 499.211, 533.786 495.372, 524.552 491.532, 515.319 490.641, 513.176 489.980, 511.508 489.771, 510.889 489.436, 509.900 489.007, 508.360 488.695, 506.893 488.499, 505.505 488.419, 504.201 488.456, 502.988 488.610, 501.873 488.882, 500.860 489.270, 499.957 489.778, 499.171 490.403, 498.506 492.444, 496.611 494.428, 494.769 498.428, 490.882 502.414, 486.882 506.401, 482.809 510.401, 478.703 514.427, 474.606 518.494, 470.560 522.615, 466.607 526.804, 462.791 531.077, 459.158 535.448, 455.753 539.934, 452.623 542.907, 450.806 546.038, 449.154 549.348, 447.697 552.857, 446.467 " />
            <path fill="none" stroke-width="3.0" stroke-linecap="butt" stroke-opacity="1.0" stroke="rgb(0, 0, 0)" stroke-linejoin="miter" d=" M 412.497, 582.062 402.961, 585.074 396.389, 587.149 395.910, 587.426 395.510, 587.832 395.190, 588.369 394.951, 589.039 394.794, 589.845 394.722, 590.789 394.735, 591.875 394.849, 592.794 395.095, 593.804 395.456, 594.879 395.918, 595.996 396.464, 597.133 397.079, 598.265 397.746, 599.368 398.450, 600.419 399.174, 601.395 399.904, 602.270 400.623, 603.021 401.314, 603.623 405.020, 606.416 408.423, 608.845 411.557, 610.960 414.455, 612.813 417.153, 614.456 419.686, 615.943 422.091, 617.330 424.405, 618.670 426.667, 620.021 428.916, 621.440 431.190, 622.983 433.529, 624.709 435.870, 626.572 438.255, 628.576 440.701, 630.714 443.229, 632.980 445.857, 635.369 448.606, 637.874 451.496, 640.489 454.549, 643.211 457.787, 646.033 461.231, 648.952 464.906, 651.963 468.837, 655.062 469.670, 655.649 470.508, 656.130 471.336, 656.498 472.139, 656.747 472.902, 656.871 473.610, 656.863 474.248, 656.717 474.800, 656.427 475.251, 655.986 475.586, 655.388 475.789, 654.626 475.846, 653.696 475.750, 652.395 475.531, 651.136 475.199, 649.917 474.768, 648.734 474.250, 647.585 473.657, 646.467 473.002, 645.377 472.297, 644.313 471.554, 643.270 470.787, 642.246 470.007, 641.239 469.226, 640.243 466.125, 636.411 463.514, 632.966 461.342, 629.831 459.563, 626.929 458.130, 624.187 456.999, 621.528 456.123, 618.880 455.461, 616.170 454.969, 613.324 454.602, 610.269 454.320, 606.932 454.077, 603.240 453.724, 596.941 453.399, 590.654 453.100, 584.373 452.823, 578.092 452.717, 575.510 452.566, 571.807 452.476, 569.437 452.327, 565.512 452.102, 559.203 451.890, 552.874 451.688, 546.519 451.492, 540.135 451.301, 533.715 451.111, 527.254 451.104, 526.137 451.150, 525.158 451.245, 524.315 451.387, 523.604 451.570, 523.020 451.793, 522.561 452.051, 522.222 452.341, 522.000 452.659, 521.891 453.001, 521.891 453.365, 521.997 453.745, 522.204 454.205, 522.553 454.678, 523.002 455.165, 523.552 455.666, 524.205 456.181, 524.962 456.709, 525.825 457.252, 526.796 457.808, 527.875 458.378, 529.066 458.962, 530.368 459.560, 531.783 460.172, 533.314 463.872, 542.604 467.573, 551.895 471.273, 561.185 472.092, 563.242 474.249, 568.656 477.949, 577.946 481.649, 587.237 485.349, 596.527 489.050, 605.817 492.750, 615.107 496.450, 624.397 500.150, 633.688 502.339, 639.182 503.081, 641.076 503.764, 642.893 504.388, 644.635 504.810, 645.883 504.952, 646.303 505.455, 647.895 505.895, 649.414 506.272, 650.859 506.585, 652.231 506.832, 653.531 507.006, 654.709 507.014, 654.760 507.128, 655.918 507.174, 657.005 507.051, 658.242 506.786, 659.317 506.374, 660.226 505.811, 660.962 505.093, 661.522 504.215, 661.900 " />
            <path fill="none" stroke-width="3.0" stroke-linecap="butt" stroke-opacity="1.0" stroke="rgb(0, 0, 0)" stroke-linejoin="miter" d=" M 504.215, 661.900 503.175, 662.092 501.968, 662.094 500.590, 661.902 499.038, 661.510 497.310, 660.917 495.401, 660.117 494.631, 659.874 493.922, 659.745 493.274, 659.734 492.689, 659.842 " />
            <path fill="none" stroke-width="3.0" stroke-linecap="butt" stroke-opacity="1.0" stroke="rgb(0, 0, 0)" stroke-linejoin="miter" d=" M 408.377, 589.623 406.760, 589.679 404.824, 589.350 402.547, 588.656 399.911, 587.617 399.061, 587.284 398.282, 587.068 397.576, 586.973 396.945, 586.999 396.389, 587.149 " />
            <path fill="none" stroke-width="3.0" stroke-linecap="butt" stroke-opacity="1.0" stroke="rgb(0, 0, 0)" stroke-linejoin="miter" d=" M 466.125, 381.734 475.848, 379.394 485.570, 377.054 495.293, 374.713 505.015, 372.373 514.737, 370.033 524.460, 367.693 534.182, 365.353 544.284, 362.922 554.007, 360.582 563.729, 358.242 573.451, 355.901 583.174, 353.561 592.896, 351.221 595.223, 350.661 604.945, 348.321 611.806, 346.670 612.546, 346.483 613.220, 346.223 613.826, 345.874 614.362, 345.421 614.827, 344.848 615.217, 344.139 615.532, 343.280 615.770, 342.254 615.928, 341.046 616.005, 339.640 615.994, 338.510 615.908, 337.445 615.750, 336.447 615.520, 335.516 615.221, 334.653 614.857, 333.859 614.427, 333.136 613.935, 332.485 613.384, 331.906 612.775, 331.401 612.110, 330.971 611.392, 330.615 608.089, 329.242 604.479, 327.802 600.635, 326.313 596.629, 324.793 592.533, 323.259 588.416, 321.727 584.344, 320.213 580.383, 318.732 576.596, 317.299 573.046, 315.928 569.794, 314.634 566.898, 313.429 563.997, 312.141 560.859, 310.674 557.533, 309.065 554.067, 307.351 550.508, 305.567 546.903, 303.749 543.297, 301.932 539.733, 300.151 536.257, 298.439 532.909, 296.829 529.732, 295.354 526.766, 294.045 526.240, 293.875 525.704, 293.805 525.169, 293.835 515.382, 295.888 505.595, 297.941 495.808, 299.994 486.021, 302.047 476.234, 304.100 466.447, 306.153 456.660, 308.206 446.873, 310.259 437.086, 312.312 427.299, 314.365 417.512, 316.418 407.725, 318.471 397.938, 320.524 388.151, 322.577 384.339, 323.376 " />
            <path fill="none" stroke-width="3.0" stroke-linecap="butt" stroke-opacity="1.0" stroke="rgb(0, 0, 0)" stroke-linejoin="miter" d=" M 597.619, 448.941 607.240, 446.214 616.861, 443.486 618.604, 442.992 628.225, 440.265 637.846, 437.537 647.467, 434.810 657.088, 432.083 663.286, 430.326 672.907, 427.598 682.528, 424.871 692.148, 422.144 701.769, 419.416 711.390, 416.689 721.011, 413.962 730.632, 411.234 740.253, 408.507 749.874, 405.779 750.783, 405.522 751.891, 405.073 752.887, 404.449 753.740, 403.630 754.420, 402.599 754.896, 401.336 755.136, 399.822 755.114, 398.563 754.890, 397.326 754.481, 396.117 753.908, 394.946 753.189, 393.823 752.346, 392.755 751.396, 391.750 750.360, 390.818 749.258, 389.967 748.108, 389.205 746.930, 388.539 745.743, 387.978 738.503, 384.918 731.687, 382.091 725.231, 379.460 719.080, 376.990 713.176, 374.646 707.465, 372.393 701.895, 370.199 696.416, 368.031 690.977, 365.859 685.533, 363.651 680.035, 361.379 674.441, 359.014 665.248, 355.078 656.055, 351.143 651.244, 349.083 650.598, 348.866 649.936, 348.758 649.271, 348.760 648.616, 348.870 638.904, 351.255 629.193, 353.640 619.482, 356.025 609.770, 358.410 600.059, 360.795 591.016, 363.016 581.304, 365.401 571.593, 367.786 561.881, 370.171 552.170, 372.556 544.269, 374.497 534.557, 376.882 524.846, 379.266 515.135, 381.651 505.423, 384.036 500.176, 385.325 " />
            <path fill="none" stroke-width="3.0" stroke-linecap="butt" stroke-opacity="1.0" stroke="rgb(0, 0, 0)" stroke-linejoin="miter" d=" M 591.016, 363.016 591.144, 361.327 591.604, 358.177 592.283, 355.496 593.216, 353.249 594.442, 351.403 595.223, 350.661 " />
            <path fill="none" stroke-width="3.0" stroke-linecap="butt" stroke-opacity="1.0" stroke="rgb(0, 0, 0)" stroke-linejoin="miter" d=" M 599.632, 752.652 608.868, 748.817 618.103, 744.981 627.338, 741.146 636.573, 737.310 645.808, 733.475 655.044, 729.639 664.279, 725.804 673.514, 721.968 682.749, 718.133 691.984, 714.297 701.220, 710.462 710.455, 706.626 719.690, 702.791 728.925, 698.955 738.160, 695.120 739.673, 694.491 740.405, 694.058 740.952, 693.439 741.311, 692.642 741.480, 691.676 741.444, 690.307 741.163, 688.931 740.670, 687.554 739.995, 686.184 739.170, 684.827 738.226, 683.491 737.194, 682.181 736.107, 680.905 734.994, 679.668 733.887, 678.476 732.816, 677.335 731.812, 676.252 727.828, 671.999 724.208, 667.863 720.917, 663.823 717.922, 659.860 715.189, 655.956 712.687, 652.091 710.383, 648.248 708.248, 644.411 706.251, 640.561 704.361, 636.683 702.549, 632.760 700.787, 628.777 696.809, 619.602 692.831, 610.427 688.853, 601.253 684.875, 592.078 680.897, 582.903 676.920, 573.728 672.942, 564.553 668.964, 555.379 664.986, 546.204 661.008, 537.029 657.030, 527.854 653.052, 518.680 649.075, 509.505 645.097, 500.330 641.119, 491.155 637.141, 481.980 633.163, 472.806 632.383, 471.006 631.741, 469.442 631.223, 467.930 630.828, 466.478 630.556, 465.090 630.407, 463.773 630.380, 462.531 630.477, 461.372 630.696, 460.300 631.038, 459.322 631.503, 458.443 632.091, 457.670 632.802, 457.009 637.351, 453.271 641.877, 449.393 646.391, 445.411 650.904, 441.363 655.431, 437.285 659.983, 433.217 663.286, 430.326 " />
            <path fill="none" stroke-width="3.0" stroke-linecap="butt" stroke-opacity="1.0" stroke="rgb(0, 0, 0)" stroke-linejoin="miter" d=" M 474.248, 656.717 483.673, 653.376 493.098, 650.035 502.524, 646.694 504.810, 645.883 " />
        </g>
    </g>
</svg>
