<?xml version='1.0' encoding='ascii'?>
<svg xmlns="http://www.w3.org/2000/svg" version="1.1" width="1080" height="1080">
    <g id="View Layer_LineSet" xmlns:inkscape="http://www.inkscape.org/namespaces/inkscape" inkscape:groupmode="lineset" inkscape:label="View Layer_LineSet">
        <g xmlns:inkscape="http://www.inkscape.org/namespaces/inkscape" inkscape:groupmode="layer" id="strokes" inkscape:label="strokes">
            <path fill="none" stroke-width="3.0" stroke-linecap="butt" stroke-opacity="1.0" stroke="rgb(0, 0, 0)" stroke-linejoin="miter" d=" M 458.499, 382.581 461.108, 382.056 464.195, 381.791 467.802, 381.752 468.618, 381.686 469.374, 381.574 470.067, 381.398 470.693, 381.144 471.252, 380.794 471.740, 380.332 472.154, 379.742 472.442, 379.117 472.492, 379.008 472.752, 378.112 472.932, 377.038 473.028, 375.771 473.038, 374.293 472.978, 373.104 472.849, 371.981 472.654, 370.925 472.395, 369.938 472.074, 369.021 471.693, 368.175 471.254, 367.402 470.759, 366.703 470.210, 366.078 469.611, 365.530 468.962, 365.058 468.266, 364.664 465.077, 363.127 461.594, 361.512 457.889, 359.839 454.031, 358.130 450.088, 356.404 446.126, 354.680 442.210, 352.977 438.401, 351.312 434.760, 349.703 431.347, 348.167 428.218, 346.718 425.432, 345.374 422.637, 343.944 419.611, 342.318 416.402, 340.539 413.057, 338.646 409.623, 336.678 406.144, 334.673 402.665, 332.671 399.230, 330.707 395.880, 328.818 392.657, 327.041 389.601, 325.410 386.753, 323.961 386.250, 323.768 385.743, 323.681 385.242, 323.700 384.756, 323.824 384.296, 324.054 383.872, 324.389 383.494, 324.831 383.171, 325.379 382.914, 326.034 382.733, 326.795 382.637, 327.662 382.636, 328.638 382.736, 329.979 382.901, 331.262 383.130, 332.486 383.422, 333.652 383.773, 334.763 384.184, 335.819 384.652, 336.820 385.177, 337.768 385.755, 338.664 386.387, 339.509 387.071, 340.303 387.804, 341.047 390.952, 343.996 393.725, 346.807 396.142, 349.538 398.226, 352.246 399.997, 354.991 401.480, 357.831 402.698, 360.825 403.674, 364.031 404.435, 367.508 405.006, 371.312 405.412, 375.503 405.678, 380.134 406.101, 390.125 406.523, 400.116 406.946, 410.107 407.368, 420.099 407.791, 430.090 408.214, 440.081 408.636, 450.072 409.059, 460.063 409.481, 470.054 409.904, 480.045 410.326, 490.036 410.749, 500.027 411.171, 510.018 411.594, 520.009 412.016, 530.000 412.439, 539.991 412.861, 549.982 413.284, 559.974 413.706, 569.965 413.849, 573.336 413.963, 577.157 413.940, 580.442 413.826, 582.172 413.757, 583.209 413.387, 585.480 412.807, 587.272 411.990, 588.606 410.914, 589.499 409.555, 589.971 " />
            <path fill="none" stroke-width="3.0" stroke-linecap="butt" stroke-opacity="1.0" stroke="rgb(0, 0, 0)" stroke-linejoin="miter" d=" M 558.427, 445.680 562.258, 444.684 566.338, 443.975 570.690, 443.589 575.336, 443.557 580.302, 443.914 585.613, 444.697 590.301, 445.722 591.296, 445.940 597.378, 447.682 598.484, 447.933 599.652, 448.122 600.855, 448.226 602.062, 448.226 603.245, 448.101 604.373, 447.829 605.416, 447.389 606.345, 446.761 607.130, 445.923 607.738, 444.854 608.141, 443.534 608.308, 441.941 608.234, 440.609 607.966, 439.293 607.522, 438.002 606.923, 436.746 606.186, 435.536 605.332, 434.380 604.378, 433.288 603.744, 432.663 603.345, 432.270 602.252, 431.336 601.117, 430.494 599.959, 429.753 598.797, 429.124 591.728, 425.664 590.634, 425.138 585.078, 422.467 578.787, 419.490 572.796, 416.694 567.049, 414.039 561.495, 411.487 556.080, 409.003 550.755, 406.551 545.471, 404.096 540.182, 401.606 534.843, 399.046 529.410, 396.386 520.448, 391.950 511.486, 387.513 506.900, 385.242 506.276, 384.995 505.642, 384.862 505.010, 384.844 504.393, 384.943 503.803, 385.158 503.253, 385.490 502.755, 385.942 502.323, 386.512 501.968, 387.203 501.703, 388.016 501.541, 388.951 501.493, 390.009 501.554, 391.473 501.701, 392.878 501.930, 394.224 502.240, 395.513 502.629, 396.745 503.095, 397.922 503.636, 399.045 504.250, 400.114 504.935, 401.131 505.689, 402.097 506.510, 403.011 507.398, 403.876 509.675, 405.945 511.757, 407.998 513.642, 410.032 515.329, 412.044 516.818, 414.033 518.109, 415.995 519.201, 417.929 520.095, 419.832 520.791, 421.702 521.291, 423.537 521.593, 425.334 521.701, 427.091 521.656, 428.191 521.514, 429.261 521.279, 430.306 520.958, 431.328 520.555, 432.334 520.077, 433.327 519.528, 434.312 518.916, 435.292 518.245, 436.273 517.521, 437.259 516.750, 438.254 515.938, 439.262 509.597, 446.995 503.255, 454.727 496.914, 462.459 490.573, 470.191 484.231, 477.924 477.890, 485.656 471.549, 493.388 465.207, 501.120 462.522, 504.395 461.830, 504.919 461.188, 505.415 460.590, 505.873 460.031, 506.286 459.504, 506.645 459.004, 506.944 458.525, 507.173 458.061, 507.325 " />
            <path fill="none" stroke-width="3.0" stroke-linecap="butt" stroke-opacity="1.0" stroke="rgb(0, 0, 0)" stroke-linejoin="miter" d=" M 458.061, 507.325 457.606, 507.393 457.155, 507.367 456.701, 507.241 456.239, 507.006 455.843, 506.723 455.460, 506.371 455.094, 505.949 454.748, 505.454 454.425, 504.883 454.129, 504.235 453.864, 503.508 453.633, 502.698 453.439, 501.803 453.286, 500.821 453.178, 499.749 453.119, 498.585 452.835, 488.589 452.551, 478.593 452.267, 468.597 451.983, 458.601 451.699, 448.605 451.415, 438.609 451.131, 428.613 450.846, 418.617 450.562, 408.621 450.448, 404.604 450.385, 400.215 450.484, 396.389 450.778, 393.094 451.298, 390.295 452.080, 387.960 453.156, 386.056 454.560, 384.547 456.329, 383.400 458.499, 382.581 " />
            <path fill="none" stroke-width="3.0" stroke-linecap="butt" stroke-opacity="1.0" stroke="rgb(0, 0, 0)" stroke-linejoin="miter" d=" M 510.931, 653.976 501.557, 657.456 496.228, 659.435 495.693, 659.670 495.226, 660.030 494.829, 660.516 494.504, 661.132 494.252, 661.879 494.076, 662.762 493.977, 663.782 493.956, 664.942 494.025, 665.879 494.195, 666.835 494.455, 667.799 494.793, 668.757 495.198, 669.697 495.659, 670.607 496.164, 671.474 496.702, 672.286 497.262, 673.030 497.832, 673.693 498.402, 674.263 498.959, 674.726 502.140, 677.048 505.262, 679.255 508.342, 681.373 511.397, 683.430 514.445, 685.451 517.503, 687.464 520.589, 689.497 523.721, 691.576 526.917, 693.732 530.198, 695.991 533.581, 698.384 537.087, 700.940 541.761, 704.460 546.446, 708.092 551.143, 711.816 555.854, 715.613 560.578, 719.465 565.316, 723.351 570.071, 727.251 574.842, 731.145 579.631, 735.014 584.441, 738.836 589.273, 742.592 594.128, 746.260 596.201, 747.729 598.109, 748.937 599.848, 749.892 601.416, 750.600 602.812, 751.067 604.032, 751.302 605.074, 751.311 605.936, 751.102 606.615, 750.683 607.110, 750.062 607.419, 749.246 607.540, 748.244 607.448, 746.811 607.123, 745.359 606.594, 743.897 605.893, 742.434 605.049, 740.978 604.093, 739.537 603.055, 738.121 601.964, 736.737 600.851, 735.393 599.746, 734.096 598.677, 732.855 597.675, 731.677 593.699, 727.051 590.076, 722.564 586.772, 718.194 583.752, 713.917 580.985, 709.714 578.440, 705.563 576.084, 701.445 573.890, 697.339 571.826, 693.227 569.863, 689.091 567.973, 684.911 566.127, 680.670 562.196, 671.475 558.265, 662.280 554.334, 653.085 551.016, 645.322 548.717, 639.945 545.138, 631.573 541.207, 622.378 537.276, 613.183 533.346, 603.988 529.415, 594.793 525.484, 585.598 521.553, 576.403 517.622, 567.208 513.691, 558.013 512.819, 555.971 510.519, 550.591 506.588, 541.396 502.657, 532.201 498.726, 523.006 494.796, 513.811 494.371, 512.818 493.694, 511.155 493.345, 510.153 493.137, 509.553 492.698, 508.016 492.380, 506.552 492.180, 505.165 492.101, 503.863 492.141, 502.650 492.301, 501.533 492.582, 500.519 492.984, 499.614 493.507, 498.823 494.151, 498.154 496.942, 495.618 498.297, 494.387 502.416, 490.470 506.522, 486.441 510.628, 482.339 514.747, 478.205 518.893, 474.080 523.080, 470.005 527.322, 466.024 531.634, 462.180 536.031, 458.518 540.528, 455.084 545.141, 451.924 548.199, 450.086 551.418, 448.413 554.821, 446.934 558.427, 445.680 " />
            <path fill="none" stroke-width="3.0" stroke-linecap="butt" stroke-opacity="1.0" stroke="rgb(0, 0, 0)" stroke-linejoin="miter" d=" M 413.826, 582.172 404.320, 585.276 397.205, 587.600 396.711, 587.881 396.298, 588.291 395.967, 588.831 395.719, 589.504 395.557, 590.312 395.481, 591.258 395.493, 592.344 395.608, 593.263 395.860, 594.271 396.231, 595.344 396.705, 596.459 397.266, 597.591 397.897, 598.719 398.583, 599.817 399.306, 600.863 400.051, 601.832 400.802, 602.702 401.541, 603.447 402.253, 604.044 406.067, 606.806 409.569, 609.206 412.795, 611.294 415.778, 613.122 418.554, 614.742 421.161, 616.207 423.636, 617.572 426.017, 618.892 428.345, 620.224 430.658, 621.622 432.997, 623.145 435.404, 624.851 437.812, 626.693 440.264, 628.676 442.779, 630.792 445.378, 633.036 448.079, 635.401 450.905, 637.881 453.876, 640.471 457.014, 643.164 460.342, 645.957 463.882, 648.844 467.659, 651.820 471.698, 654.883 472.555, 655.462 473.416, 655.935 474.268, 656.295 475.094, 656.536 475.879, 656.653 476.607, 656.638 477.264, 656.486 477.832, 656.191 478.297, 655.745 478.643, 655.144 478.853, 654.381 478.913, 653.450 478.817, 652.150 478.593, 650.893 478.254, 649.677 477.812, 648.498 477.281, 647.354 476.673, 646.241 476.000, 645.158 475.277, 644.100 474.515, 643.064 473.727, 642.048 472.926, 641.047 472.124, 640.059 468.940, 636.255 466.258, 632.834 464.029, 629.718 462.203, 626.833 460.733, 624.103 459.572, 621.454 458.676, 618.814 457.999, 616.109 457.497, 613.267 457.125, 610.215 456.840, 606.880 456.597, 603.188 456.244, 596.892 455.920, 590.606 455.622, 584.326 455.348, 578.046 455.223, 574.934 455.095, 571.762 454.981, 568.730 454.859, 565.468 454.639, 559.159 454.431, 552.831 454.234, 546.477 454.043, 540.093 453.857, 533.673 453.673, 527.213 453.667, 526.095 453.716, 525.116 453.816, 524.272 453.963, 523.559 454.153, 522.974 454.383, 522.513 454.650, 522.172 454.948, 521.947 455.276, 521.836 455.628, 521.833 456.002, 521.936 456.393, 522.140 456.866, 522.486 457.352, 522.931 457.852, 523.477 458.367, 524.126 458.895, 524.879 459.438, 525.738 459.994, 526.704 460.565, 527.780 461.150, 528.965 461.749, 530.263 462.362, 531.674 462.989, 533.200 466.779, 542.454 470.568, 551.708 474.358, 560.962 474.878, 562.232 477.126, 567.722 480.916, 576.977 484.706, 586.231 488.495, 595.485 492.285, 604.739 496.074, 613.993 499.864, 623.247 503.653, 632.501 506.187, 638.689 506.947, 640.575 507.647, 642.386 508.285, 644.121 508.587, 644.989 508.862, 645.783 509.377, 647.370 509.827, 648.884 510.212, 650.325 510.531, 651.694 510.783, 652.991 510.931, 653.976 510.968, 654.218 511.083, 655.374 511.129, 656.460 511.000, 657.698 510.726, 658.776 510.301, 659.688 509.721, 660.429 508.981, 660.996 508.078, 661.382 " />
            <path fill="none" stroke-width="3.0" stroke-linecap="butt" stroke-opacity="1.0" stroke="rgb(0, 0, 0)" stroke-linejoin="miter" d=" M 508.078, 661.382 507.008, 661.584 505.767, 661.598 504.350, 661.418 502.755, 661.042 500.979, 660.465 499.017, 659.684 498.226, 659.448 497.497, 659.327 496.830, 659.321 496.228, 659.435 " />
            <path fill="none" stroke-width="3.0" stroke-linecap="butt" stroke-opacity="1.0" stroke="rgb(0, 0, 0)" stroke-linejoin="miter" d=" M 409.555, 589.971 407.889, 590.041 405.894, 589.729 403.549, 589.054 400.835, 588.037 399.959, 587.711 399.157, 587.502 398.429, 587.413 397.778, 587.444 397.205, 587.600 " />
            <path fill="none" stroke-width="3.0" stroke-linecap="butt" stroke-opacity="1.0" stroke="rgb(0, 0, 0)" stroke-linejoin="miter" d=" M 469.374, 381.574 479.077, 379.155 488.781, 376.737 498.484, 374.319 508.187, 371.901 517.890, 369.483 527.594, 367.065 537.297, 364.647 544.106, 362.950 553.809, 360.531 563.513, 358.113 573.216, 355.695 582.919, 353.277 592.622, 350.859 595.938, 350.032 605.641, 347.614 613.057, 345.766 613.812, 345.576 614.500, 345.312 615.118, 344.960 615.665, 344.504 616.139, 343.929 616.537, 343.219 616.858, 342.359 617.101, 341.333 617.262, 340.126 617.340, 338.722 617.329, 337.594 617.241, 336.532 617.079, 335.535 616.845, 334.607 616.540, 333.747 616.168, 332.957 615.730, 332.238 615.228, 331.590 614.665, 331.016 614.043, 330.515 613.365, 330.089 612.632, 329.738 609.262, 328.386 605.577, 326.969 601.654, 325.504 597.565, 324.009 593.384, 322.500 589.180, 320.993 585.022, 319.504 580.978, 318.047 577.111, 316.638 573.486, 315.289 570.164, 314.014 567.206, 312.826 564.243, 311.556 561.037, 310.108 557.639, 308.519 554.098, 306.825 550.461, 305.062 546.777, 303.266 543.092, 301.470 539.451, 299.710 535.897, 298.018 532.476, 296.427 529.228, 294.970 526.196, 293.679 525.658, 293.511 525.110, 293.444 524.563, 293.478 514.790, 295.598 505.018, 297.718 495.245, 299.838 485.472, 301.958 475.700, 304.077 465.927, 306.197 456.154, 308.317 446.381, 310.437 436.609, 312.557 426.836, 314.677 417.063, 316.797 407.291, 318.917 397.518, 321.037 387.745, 323.157 385.242, 323.700 " />
            <path fill="none" stroke-width="3.0" stroke-linecap="butt" stroke-opacity="1.0" stroke="rgb(0, 0, 0)" stroke-linejoin="miter" d=" M 604.373, 447.829 613.966, 445.007 618.266, 443.742 627.860, 440.920 637.454, 438.098 647.047, 435.276 656.641, 432.454 664.024, 430.282 673.617, 427.460 683.211, 424.638 692.804, 421.816 702.398, 418.994 711.991, 416.172 721.585, 413.350 731.179, 410.528 740.772, 407.706 750.366, 404.883 754.668, 403.618 755.795, 403.163 756.809, 402.534 757.677, 401.712 758.369, 400.680 758.852, 399.417 759.096, 397.906 759.074, 396.652 758.845, 395.419 758.429, 394.217 757.846, 393.053 757.115, 391.938 756.257, 390.878 755.290, 389.883 754.236, 388.961 753.115, 388.119 751.944, 387.366 750.746, 386.710 749.538, 386.158 742.171, 383.152 735.233, 380.377 728.662, 377.794 722.399, 375.369 716.388, 373.068 710.572, 370.856 704.900, 368.702 699.319, 366.573 693.779, 364.439 688.232, 362.271 682.630, 360.037 676.930, 357.711 667.688, 353.892 658.445, 350.073 653.283, 347.940 652.625, 347.728 651.949, 347.624 651.271, 347.629 650.604, 347.744 640.912, 350.209 631.221, 352.675 621.530, 355.141 611.839, 357.606 602.147, 360.072 592.456, 362.538 591.800, 362.704 582.109, 365.170 572.418, 367.636 562.727, 370.101 553.035, 372.567 544.091, 374.843 534.400, 377.308 524.708, 379.774 515.017, 382.240 505.326, 384.705 504.393, 384.943 " />
            <path fill="none" stroke-width="3.0" stroke-linecap="butt" stroke-opacity="1.0" stroke="rgb(0, 0, 0)" stroke-linejoin="miter" d=" M 591.800, 362.704 591.970, 360.528 592.439, 357.380 593.131, 354.697 594.084, 352.447 595.335, 350.597 595.938, 350.032 " />
            <path fill="none" stroke-width="3.0" stroke-linecap="butt" stroke-opacity="1.0" stroke="rgb(0, 0, 0)" stroke-linejoin="miter" d=" M 605.936, 751.102 615.119, 747.145 624.303, 743.188 633.487, 739.230 642.670, 735.273 651.854, 731.315 661.037, 727.358 670.221, 723.401 679.405, 719.443 688.588, 715.486 697.772, 711.528 706.956, 707.571 716.139, 703.613 725.323, 699.656 734.506, 695.699 743.404, 691.864 744.149, 691.425 744.705, 690.802 745.071, 690.005 745.243, 689.039 745.206, 687.675 744.920, 686.304 744.418, 684.936 743.731, 683.576 742.891, 682.231 741.930, 680.907 740.880, 679.611 739.773, 678.348 738.640, 677.125 737.513, 675.947 736.423, 674.819 735.401, 673.748 731.345, 669.544 727.659, 665.453 724.308, 661.454 721.258, 657.529 718.475, 653.659 715.926, 649.827 713.580, 646.014 711.405, 642.205 709.370, 638.383 707.445, 634.531 705.600, 630.634 703.804, 626.676 699.742, 617.538 695.681, 608.400 691.619, 599.262 687.557, 590.124 683.496, 580.986 679.434, 571.848 675.372, 562.710 671.311, 553.572 667.249, 544.434 663.187, 535.296 659.126, 526.158 655.064, 517.020 651.002, 507.882 646.941, 498.744 642.879, 489.606 638.817, 480.468 634.063, 469.772 633.408, 468.215 632.879, 466.709 632.476, 465.262 632.198, 463.879 632.046, 462.565 632.019, 461.325 632.117, 460.167 632.341, 459.095 632.690, 458.116 633.164, 457.236 633.763, 456.460 634.489, 455.795 639.128, 452.031 643.743, 448.128 648.346, 444.121 652.948, 440.048 657.562, 435.947 662.202, 431.855 664.024, 430.282 " />
            <path fill="none" stroke-width="3.0" stroke-linecap="butt" stroke-opacity="1.0" stroke="rgb(0, 0, 0)" stroke-linejoin="miter" d=" M 477.264, 656.486 486.651, 653.041 496.039, 649.595 505.426, 646.149 508.587, 644.989 " />
        </g>
    </g>
</svg>
