<?xml version='1.0' encoding='ascii'?>
<svg xmlns="http://www.w3.org/2000/svg" version="1.1" width="1080" height="1080">
    <g id="View Layer_LineSet" xmlns:inkscape="http://www.inkscape.org/namespaces/inkscape" inkscape:groupmode="lineset" inkscape:label="View Layer_LineSet">
        <g xmlns:inkscape="http://www.inkscape.org/namespaces/inkscape" inkscape:groupmode="layer" id="strokes" inkscape:label="strokes">
            <path fill="none" stroke-width="3.0" stroke-linecap="butt" stroke-opacity="1.0" stroke="rgb(0, 0, 0)" stroke-linejoin="miter" d=" M 461.263, 382.480 463.941, 381.939 467.109, 381.655 470.812, 381.594 471.649, 381.523 472.425, 381.406 473.136, 381.227 473.779, 380.968 474.353, 380.615 474.854, 380.150 475.280, 379.558 475.628, 378.821 475.638, 378.791 475.897, 377.924 476.082, 376.850 476.183, 375.582 476.196, 374.104 476.136, 372.916 476.005, 371.793 475.807, 370.739 475.543, 369.753 475.215, 368.839 474.825, 367.995 474.375, 367.225 473.869, 366.529 473.307, 365.908 472.692, 365.362 472.027, 364.894 471.314, 364.504 468.043, 362.986 464.472, 361.392 460.672, 359.741 456.715, 358.054 452.670, 356.351 448.605, 354.650 444.587, 352.969 440.679, 351.326 436.943, 349.738 433.440, 348.220 430.230, 346.790 427.370, 345.461 424.501, 344.046 421.396, 342.437 418.102, 340.675 414.669, 338.800 411.144, 336.850 407.573, 334.864 404.002, 332.880 400.475, 330.934 397.035, 329.063 393.726, 327.303 390.588, 325.688 387.662, 324.252 387.146, 324.062 386.625, 323.978 386.109, 323.999 385.610, 324.126 385.137, 324.359 384.700, 324.697 384.311, 325.142 383.978, 325.692 383.713, 326.348 383.525, 327.111 383.425, 327.980 383.423, 328.956 383.523, 330.298 383.691, 331.580 383.925, 332.804 384.223, 333.970 384.582, 335.079 385.003, 336.134 385.483, 337.133 386.020, 338.079 386.614, 338.973 387.262, 339.814 387.963, 340.605 388.716, 341.346 391.947, 344.278 394.792, 347.075 397.272, 349.794 399.409, 352.493 401.225, 355.229 402.744, 358.062 403.991, 361.050 404.989, 364.252 405.766, 367.726 406.346, 371.530 406.756, 375.720 407.023, 380.353 407.442, 390.344 407.860, 400.335 408.278, 410.327 408.697, 420.318 409.115, 430.309 409.533, 440.300 409.951, 450.292 410.370, 460.283 410.788, 470.274 411.206, 480.265 411.625, 490.257 412.043, 500.248 412.461, 510.239 412.880, 520.230 413.298, 530.221 413.716, 540.213 414.135, 550.204 414.553, 560.195 414.971, 570.186 415.115, 573.609 415.226, 577.432 415.198, 580.718 415.091, 582.255 415.005, 583.489 414.622, 585.764 414.022, 587.562 413.181, 588.903 412.074, 589.806 410.677, 590.289 " />
            <path fill="none" stroke-width="3.0" stroke-linecap="butt" stroke-opacity="1.0" stroke="rgb(0, 0, 0)" stroke-linejoin="miter" d=" M 563.624, 444.909 567.550, 443.887 571.730, 443.152 576.186, 442.737 580.944, 442.674 586.028, 442.998 591.036, 443.685 591.464, 443.744 597.279, 444.948 603.502, 446.646 604.633, 446.890 605.829, 447.070 607.060, 447.166 608.295, 447.158 609.505, 447.025 610.660, 446.746 611.729, 446.300 612.680, 445.666 613.484, 444.824 614.109, 443.753 614.523, 442.432 614.696, 440.840 614.622, 439.511 614.350, 438.199 613.898, 436.912 613.286, 435.662 612.535, 434.458 611.662, 433.310 610.688, 432.226 609.650, 431.233 609.632, 431.216 608.515, 430.290 607.354, 429.457 606.171, 428.725 604.983, 428.104 597.753, 424.696 591.395, 421.752 590.950, 421.546 584.514, 418.613 578.384, 415.859 572.504, 413.243 566.819, 410.730 561.276, 408.283 555.825, 405.867 550.416, 403.447 545.001, 400.992 539.533, 398.468 533.969, 395.844 524.943, 391.539 515.918, 387.233 510.911, 384.845 510.272, 384.602 509.622, 384.473 508.974, 384.459 508.341, 384.561 507.736, 384.780 507.171, 385.115 506.660, 385.570 506.216, 386.143 505.851, 386.836 505.578, 387.649 505.410, 388.585 505.360, 389.643 505.420, 391.106 505.568, 392.509 505.801, 393.853 506.117, 395.139 506.514, 396.369 506.990, 397.543 507.543, 398.662 508.171, 399.727 508.872, 400.739 509.643, 401.699 510.485, 402.608 511.393, 403.467 513.725, 405.521 515.856, 407.560 517.785, 409.580 519.512, 411.581 521.035, 413.559 522.356, 415.512 523.472, 417.438 524.386, 419.334 525.097, 421.198 525.606, 423.028 525.913, 424.822 526.021, 426.578 525.974, 427.678 525.826, 428.748 525.584, 429.793 525.253, 430.817 524.838, 431.825 524.346, 432.821 523.783, 433.808 523.154, 434.792 522.465, 435.777 521.721, 436.767 520.929, 437.767 520.095, 438.780 513.671, 446.444 507.247, 454.108 500.824, 461.772 494.400, 469.436 487.976, 477.100 481.552, 484.764 475.129, 492.428 468.705, 500.092 465.203, 504.270 464.491, 504.800 463.832, 505.300 463.217, 505.763 462.643, 506.180 462.102, 506.543 461.588, 506.845 461.096, 507.078 460.619, 507.234 " />
            <path fill="none" stroke-width="3.0" stroke-linecap="butt" stroke-opacity="1.0" stroke="rgb(0, 0, 0)" stroke-linejoin="miter" d=" M 460.619, 507.234 460.152, 507.305 459.689, 507.283 459.223, 507.160 458.750, 506.928 458.344, 506.648 457.952, 506.299 457.576, 505.879 457.222, 505.386 456.891, 504.818 456.588, 504.172 456.317, 503.447 456.081, 502.638 455.884, 501.745 455.728, 500.764 455.619, 499.693 455.560, 498.529 455.284, 488.532 455.008, 478.536 454.732, 468.540 454.456, 458.544 454.180, 448.548 453.904, 438.551 453.628, 428.555 453.351, 418.559 453.075, 408.563 452.965, 404.553 452.907, 400.165 453.014, 396.338 453.321, 393.040 453.860, 390.238 454.665, 387.898 455.773, 385.987 457.217, 384.470 459.034, 383.312 461.263, 382.480 " />
            <path fill="none" stroke-width="3.0" stroke-linecap="butt" stroke-opacity="1.0" stroke="rgb(0, 0, 0)" stroke-linejoin="miter" d=" M 514.603, 653.248 505.267, 656.830 499.546, 659.025 498.996, 659.265 498.517, 659.628 498.109, 660.118 497.774, 660.737 497.515, 661.487 497.333, 662.370 497.229, 663.391 497.207, 664.551 497.276, 665.488 497.449, 666.442 497.714, 667.403 498.059, 668.358 498.473, 669.294 498.944, 670.200 499.461, 671.062 500.012, 671.869 500.585, 672.608 501.169, 673.265 501.752, 673.830 502.323, 674.289 505.582, 676.580 508.780, 678.758 511.935, 680.848 515.065, 682.876 518.187, 684.868 521.319, 686.852 524.479, 688.856 527.687, 690.906 530.960, 693.030 534.319, 695.258 537.783, 697.618 541.372, 700.140 546.156, 703.614 550.952, 707.199 555.759, 710.876 560.579, 714.626 565.412, 718.430 570.260, 722.267 575.123, 726.118 580.003, 729.962 584.902, 733.781 589.821, 737.552 594.761, 741.257 599.726, 744.873 601.846, 746.320 603.797, 747.509 605.575, 748.445 607.180, 749.136 608.607, 749.589 609.855, 749.812 610.922, 749.811 611.804, 749.594 612.500, 749.169 613.008, 748.543 613.325, 747.725 613.451, 746.723 613.358, 745.293 613.028, 743.846 612.489, 742.391 611.774, 740.937 610.912, 739.491 609.936, 738.061 608.875, 736.657 607.761, 735.285 606.624, 733.953 605.495, 732.669 604.403, 731.440 603.379, 730.273 599.316, 725.691 595.615, 721.244 592.238, 716.910 589.153, 712.667 586.326, 708.494 583.726, 704.372 581.321, 700.279 579.079, 696.198 576.972, 692.110 574.968, 687.995 573.039, 683.836 571.154, 679.616 567.139, 670.458 563.124, 661.299 559.108, 652.141 555.508, 643.929 553.115, 638.472 549.389, 629.972 545.373, 620.813 541.358, 611.655 537.343, 602.497 533.327, 593.338 529.312, 584.180 525.297, 575.021 521.281, 565.863 517.266, 556.704 516.261, 554.413 513.873, 548.966 509.858, 539.808 505.842, 530.649 501.827, 521.491 497.867, 512.458 497.175, 510.800 496.684, 509.424 496.605, 509.202 496.158, 507.670 495.834, 506.208 495.632, 504.823 495.552, 503.521 495.595, 502.309 495.761, 501.191 496.051, 500.175 496.464, 499.267 497.001, 498.473 497.664, 497.799 501.255, 494.597 501.921, 494.003 506.152, 490.057 510.368, 486.001 514.585, 481.872 518.814, 477.711 523.071, 473.559 527.369, 469.457 531.723, 465.449 536.148, 461.577 540.660, 457.888 545.273, 454.425 550.005, 451.237 553.140, 449.380 556.441, 447.686 559.929, 446.186 563.624, 444.909 " />
            <path fill="none" stroke-width="3.0" stroke-linecap="butt" stroke-opacity="1.0" stroke="rgb(0, 0, 0)" stroke-linejoin="miter" d=" M 415.091, 582.255 405.614, 585.449 397.990, 588.018 397.482, 588.304 397.057, 588.717 396.715, 589.260 396.460, 589.936 396.291, 590.746 396.212, 591.693 396.222, 592.780 396.340, 593.699 396.596, 594.706 396.976, 595.777 397.461, 596.888 398.036, 598.017 398.683, 599.140 399.386, 600.233 400.128, 601.274 400.893, 602.238 401.662, 603.102 402.421, 603.841 403.151, 604.432 407.066, 607.164 410.662, 609.537 413.972, 611.599 417.034, 613.403 419.883, 615.000 422.559, 616.444 425.099, 617.789 427.544, 619.090 429.932, 620.401 432.306, 621.781 434.706, 623.285 437.174, 624.970 439.644, 626.793 442.159, 628.755 444.739, 630.851 447.403, 633.072 450.174, 635.414 453.071, 637.871 456.117, 640.435 459.334, 643.101 462.745, 645.865 466.374, 648.721 470.246, 651.665 474.387, 654.692 475.265, 655.263 476.148, 655.728 477.021, 656.081 477.868, 656.315 478.674, 656.425 479.421, 656.404 480.095, 656.246 480.679, 655.945 481.157, 655.496 481.512, 654.891 481.729, 654.126 481.792, 653.195 481.695, 651.896 481.467, 650.641 481.121, 649.427 480.670, 648.252 480.127, 647.113 479.504, 646.006 478.816, 644.928 478.076, 643.877 477.295, 642.848 476.488, 641.838 475.668, 640.845 474.846, 639.864 471.585, 636.087 468.838, 632.689 466.555, 629.592 464.685, 626.722 463.180, 624.004 461.993, 621.365 461.078, 618.732 460.387, 616.033 459.876, 613.194 459.499, 610.145 459.211, 606.812 458.968, 603.122 458.615, 596.827 458.293, 590.543 457.997, 584.264 457.725, 577.986 457.580, 574.352 457.474, 571.702 457.339, 568.018 457.242, 565.409 457.026, 559.101 456.823, 552.773 456.630, 546.419 456.445, 540.036 456.264, 533.617 456.084, 527.157 456.080, 526.039 456.132, 525.059 456.236, 524.214 456.388, 523.500 456.584, 522.914 456.821, 522.451 457.095, 522.108 457.402, 521.881 457.738, 521.767 458.100, 521.762 458.483, 521.862 458.885, 522.063 459.369, 522.405 459.867, 522.847 460.380, 523.389 460.907, 524.034 461.448, 524.783 462.004, 525.638 462.574, 526.601 463.158, 527.672 463.756, 528.853 464.369, 530.146 464.996, 531.552 465.638, 533.074 469.510, 542.293 473.383, 551.513 477.255, 560.733 477.466, 561.235 479.804, 566.801 483.676, 576.020 487.548, 585.240 491.421, 594.460 495.293, 603.680 499.166, 612.899 503.038, 622.119 506.911, 631.339 509.791, 638.196 510.567, 640.075 511.282, 641.879 511.934, 643.609 512.111, 644.106 512.523, 645.264 513.048, 646.846 513.507, 648.356 513.900, 649.793 514.225, 651.159 514.482, 652.454 514.603, 653.248 514.669, 653.678 514.786, 654.833 514.831, 655.918 514.697, 657.157 514.414, 658.237 513.977, 659.152 513.381, 659.898 512.622, 660.471 511.696, 660.866 " />
            <path fill="none" stroke-width="3.0" stroke-linecap="butt" stroke-opacity="1.0" stroke="rgb(0, 0, 0)" stroke-linejoin="miter" d=" M 511.696, 660.866 510.598, 661.077 509.325, 661.102 507.872, 660.935 506.238, 660.573 504.416, 660.013 502.406, 659.249 501.595, 659.020 500.847, 658.905 500.163, 658.906 499.546, 659.025 " />
            <path fill="none" stroke-width="3.0" stroke-linecap="butt" stroke-opacity="1.0" stroke="rgb(0, 0, 0)" stroke-linejoin="miter" d=" M 410.677, 590.289 408.965, 590.373 406.916, 590.077 404.507, 589.421 401.719, 588.426 400.820, 588.107 399.995, 587.904 399.248, 587.821 398.579, 587.858 397.990, 588.018 " />
            <path fill="none" stroke-width="3.0" stroke-linecap="butt" stroke-opacity="1.0" stroke="rgb(0, 0, 0)" stroke-linejoin="miter" d=" M 473.136, 381.227 482.820, 378.734 492.504, 376.240 502.189, 373.747 511.873, 371.254 521.557, 368.761 531.241, 366.268 540.926, 363.775 543.916, 363.005 553.600, 360.512 563.285, 358.019 572.969, 355.526 582.653, 353.033 592.337, 350.540 596.546, 349.457 606.230, 346.964 614.957, 344.717 615.657, 344.450 616.287, 344.095 616.844, 343.637 617.326, 343.060 617.732, 342.349 618.059, 341.489 618.306, 340.463 618.470, 339.256 618.549, 337.854 618.538, 336.728 618.449, 335.667 618.284, 334.673 618.045, 333.748 617.734, 332.891 617.355, 332.104 616.909, 331.388 616.398, 330.744 615.824, 330.173 615.191, 329.677 614.500, 329.255 613.754, 328.908 610.321, 327.576 606.568, 326.181 602.571, 324.740 598.406, 323.268 594.145, 321.784 589.862, 320.301 585.625, 318.836 581.503, 317.402 577.562, 316.014 573.867, 314.686 570.481, 313.430 567.466, 312.259 564.445, 311.006 561.176, 309.576 557.712, 308.006 554.101, 306.332 550.393, 304.589 546.636, 302.813 542.877, 301.038 539.163, 299.297 535.539, 297.625 532.048, 296.052 528.735, 294.613 525.641, 293.337 525.092, 293.172 524.533, 293.108 523.975, 293.145 514.217, 295.329 504.458, 297.513 494.700, 299.697 484.941, 301.881 475.182, 304.065 465.424, 306.249 455.665, 308.433 445.907, 310.617 436.148, 312.801 426.389, 314.985 416.631, 317.169 406.872, 319.353 397.114, 321.537 386.109, 323.999 " />
            <path fill="none" stroke-width="3.0" stroke-linecap="butt" stroke-opacity="1.0" stroke="rgb(0, 0, 0)" stroke-linejoin="miter" d=" M 610.660, 446.746 617.704, 444.601 627.270, 441.688 636.836, 438.774 646.403, 435.861 655.969, 432.948 664.465, 430.361 674.031, 427.448 683.598, 424.535 693.164, 421.622 702.730, 418.708 712.296, 415.795 721.863, 412.882 731.429, 409.969 740.995, 407.056 750.562, 404.143 758.215, 401.812 759.360, 401.351 760.389, 400.718 761.271, 399.894 761.973, 398.860 762.464, 397.598 762.712, 396.090 762.689, 394.839 762.456, 393.611 762.034, 392.415 761.441, 391.258 760.699, 390.150 759.827, 389.099 758.845, 388.112 757.775, 387.199 756.635, 386.366 755.447, 385.622 754.230, 384.975 753.003, 384.432 745.519, 381.478 738.471, 378.751 731.794, 376.214 725.430, 373.832 719.320, 371.571 713.409, 369.399 707.643, 367.282 701.968, 365.191 696.335, 363.094 690.694, 360.962 684.998, 358.765 679.199, 356.476 669.914, 352.764 660.628, 349.052 655.140, 346.858 654.470, 346.649 653.783, 346.549 653.093, 346.558 652.414, 346.677 642.742, 349.220 633.071, 351.763 623.400, 354.306 613.729, 356.849 604.057, 359.392 594.386, 361.935 592.498, 362.432 582.827, 364.975 573.155, 367.518 563.484, 370.061 553.813, 372.604 543.901, 375.210 534.230, 377.753 524.559, 380.297 514.887, 382.840 508.341, 384.561 " />
            <path fill="none" stroke-width="3.0" stroke-linecap="butt" stroke-opacity="1.0" stroke="rgb(0, 0, 0)" stroke-linejoin="miter" d=" M 592.498, 362.432 592.708, 359.773 593.186, 356.626 593.891, 353.943 594.862, 351.690 596.136, 349.835 596.546, 349.457 " />
            <path fill="none" stroke-width="3.0" stroke-linecap="butt" stroke-opacity="1.0" stroke="rgb(0, 0, 0)" stroke-linejoin="miter" d=" M 611.804, 749.594 620.937, 745.520 630.069, 741.446 639.202, 737.373 648.335, 733.299 657.467, 729.225 666.600, 725.152 675.733, 721.078 684.865, 717.004 693.998, 712.931 703.131, 708.857 712.263, 704.783 721.396, 700.710 730.528, 696.636 739.661, 692.562 746.814, 689.371 747.571, 688.927 748.136, 688.301 748.507, 687.501 748.682, 686.537 748.644, 685.176 748.353, 683.812 747.843, 682.452 747.145, 681.101 746.291, 679.767 745.315, 678.455 744.248, 677.172 743.123, 675.922 741.972, 674.712 740.827, 673.547 739.719, 672.432 738.681, 671.373 734.559, 667.215 730.813, 663.166 727.408, 659.206 724.307, 655.316 721.478, 651.480 718.887, 647.678 716.502, 643.895 714.291, 640.113 712.222, 636.317 710.264, 632.490 708.388, 628.617 706.562, 624.683 702.422, 615.580 698.283, 606.476 694.144, 597.373 690.005, 588.270 685.865, 579.167 681.726, 570.064 677.587, 560.961 673.448, 551.858 669.308, 542.755 665.169, 533.652 661.030, 524.548 656.891, 515.445 652.751, 506.342 648.612, 497.239 644.473, 488.136 640.333, 479.033 635.591, 468.603 634.924, 467.053 634.385, 465.554 633.975, 464.111 633.692, 462.732 633.537, 461.421 633.509, 460.184 633.609, 459.026 633.837, 457.955 634.191, 456.975 634.674, 456.093 635.285, 455.314 636.023, 454.645 640.746, 450.856 645.443, 446.929 650.127, 442.899 654.810, 438.803 659.505, 434.679 664.226, 430.565 664.465, 430.361 " />
            <path fill="none" stroke-width="3.0" stroke-linecap="butt" stroke-opacity="1.0" stroke="rgb(0, 0, 0)" stroke-linejoin="miter" d=" M 480.095, 656.246 489.445, 652.700 498.796, 649.155 508.146, 645.610 512.111, 644.106 " />
        </g>
    </g>
</svg>
