<?xml version='1.0' encoding='ascii'?>
<svg xmlns="http://www.w3.org/2000/svg" version="1.1" width="1080" height="1080">
    <g id="View Layer_LineSet" xmlns:inkscape="http://www.inkscape.org/namespaces/inkscape" inkscape:groupmode="lineset" inkscape:label="View Layer_LineSet">
        <g xmlns:inkscape="http://www.inkscape.org/namespaces/inkscape" inkscape:groupmode="layer" id="strokes" inkscape:label="strokes">
            <path fill="none" stroke-width="3.0" stroke-linecap="butt" stroke-opacity="1.0" stroke="rgb(0, 0, 0)" stroke-linejoin="miter" d=" M 466.252, 382.258 469.053, 381.688 472.367, 381.369 476.237, 381.267 477.113, 381.187 477.923, 381.061 478.667, 380.874 479.340, 380.609 479.941, 380.249 480.466, 379.779 480.912, 379.182 481.279, 378.442 481.371, 378.147 481.561, 377.542 481.758, 376.466 481.867, 375.198 481.884, 373.721 481.824, 372.533 481.691, 371.412 481.487, 370.360 481.213, 369.378 480.873, 368.467 480.468, 367.628 480.000, 366.863 479.473, 366.172 478.887, 365.557 478.246, 365.019 477.552, 364.558 476.808, 364.176 473.394, 362.693 469.664, 361.137 465.696, 359.527 461.562, 357.882 457.337, 356.221 453.090, 354.563 448.891, 352.924 444.806, 351.322 440.901, 349.772 437.239, 348.290 433.882, 346.892 430.892, 345.593 427.892, 344.206 424.645, 342.629 421.201, 340.900 417.610, 339.058 413.923, 337.143 410.188, 335.191 406.451, 333.242 402.761, 331.330 399.161, 329.491 395.697, 327.762 392.412, 326.176 389.349, 324.768 388.808, 324.584 388.262, 324.504 387.722, 324.531 387.198, 324.663 386.701, 324.901 386.242, 325.244 385.832, 325.692 385.482, 326.247 385.202, 326.907 385.003, 327.672 384.896, 328.543 384.891, 329.520 384.993, 330.863 385.165, 332.146 385.407, 333.369 385.716, 334.534 386.090, 335.641 386.528, 336.692 387.028, 337.688 387.589, 338.630 388.209, 339.519 388.886, 340.355 389.619, 341.139 390.406, 341.873 393.786, 344.776 396.760, 347.547 399.352, 350.243 401.584, 352.922 403.480, 355.642 405.064, 358.462 406.362, 361.440 407.400, 364.635 408.204, 368.104 408.801, 371.905 409.220, 376.095 409.487, 380.729 409.897, 390.721 410.308, 400.712 410.719, 410.704 411.129, 420.695 411.540, 430.687 411.951, 440.679 412.361, 450.670 412.772, 460.662 413.182, 470.653 413.593, 480.645 414.004, 490.636 414.414, 500.628 414.825, 510.620 415.236, 520.611 415.646, 530.603 416.057, 540.594 416.468, 550.586 416.878, 560.577 417.289, 570.569 417.433, 574.079 417.539, 577.904 417.500, 581.194 417.413, 582.358 417.291, 583.971 416.883, 586.254 416.250, 588.063 415.366, 589.418 414.204, 590.338 " />
            <path fill="none" stroke-width="3.0" stroke-linecap="butt" stroke-opacity="1.0" stroke="rgb(0, 0, 0)" stroke-linejoin="miter" d=" M 572.911, 443.439 577.003, 442.371 581.357, 441.587 585.999, 441.118 590.952, 440.998 592.257, 441.062 596.242, 441.259 601.898, 441.938 607.945, 443.068 614.414, 444.686 615.589, 444.915 616.832, 445.080 617.455, 445.120 618.112, 445.161 619.397, 445.138 620.656, 444.990 621.857, 444.698 622.970, 444.240 623.961, 443.597 624.798, 442.748 625.451, 441.672 625.885, 440.349 626.068, 438.760 625.995, 437.436 625.716, 436.130 625.249, 434.853 624.617, 433.614 623.838, 432.422 622.934, 431.287 621.924, 430.218 620.829, 429.224 619.997, 428.571 619.669, 428.314 618.465, 427.497 617.236, 426.781 616.002, 426.175 608.491, 422.861 601.422, 419.799 594.731, 416.949 592.676, 416.086 588.357, 414.272 582.242, 411.730 576.328, 409.288 570.562, 406.909 564.889, 404.560 559.259, 402.207 553.622, 399.817 547.929, 397.359 542.135, 394.802 533.004, 390.724 523.873, 386.647 518.110, 384.073 517.444, 383.837 516.766, 383.716 516.089, 383.709 515.428, 383.818 514.795, 384.043 514.205, 384.385 513.671, 384.844 513.206, 385.422 512.823, 386.118 512.536, 386.934 512.358, 387.871 512.302, 388.929 512.362, 390.390 512.512, 391.790 512.752, 393.130 513.079, 394.412 513.490, 395.635 513.983, 396.803 514.557, 397.915 515.210, 398.972 515.938, 399.975 516.741, 400.926 517.617, 401.824 518.563, 402.672 520.991, 404.697 523.209, 406.709 525.217, 408.706 527.013, 410.684 528.597, 412.642 529.969, 414.578 531.129, 416.488 532.077, 418.371 532.814, 420.225 533.340, 422.047 533.656, 423.835 533.763, 425.588 533.711, 426.687 533.554, 427.757 533.299, 428.804 532.951, 429.831 532.516, 430.843 532.000, 431.843 531.409, 432.836 530.750, 433.827 530.029, 434.819 529.251, 435.817 528.422, 436.824 527.548, 437.847 520.988, 445.394 514.427, 452.941 507.866, 460.488 501.306, 468.035 494.745, 475.582 488.185, 483.129 481.624, 490.676 475.063, 498.223 470.041, 504.001 469.296, 504.540 468.605, 505.049 467.961, 505.520 467.359, 505.945 466.793, 506.315 466.255, 506.624 465.740, 506.864 " />
            <path fill="none" stroke-width="3.0" stroke-linecap="butt" stroke-opacity="1.0" stroke="rgb(0, 0, 0)" stroke-linejoin="miter" d=" M 465.740, 506.864 465.241, 507.026 464.752, 507.103 464.268, 507.087 463.781, 506.971 463.286, 506.746 462.863, 506.470 462.453, 506.127 462.062, 505.712 461.692, 505.224 461.348, 504.660 461.033, 504.018 460.752, 503.296 460.507, 502.490 460.303, 501.599 460.143, 500.620 460.032, 499.550 459.973, 498.387 459.711, 488.390 459.450, 478.393 459.188, 468.397 458.927, 458.400 458.665, 448.404 458.403, 438.407 458.142, 428.411 457.880, 418.414 457.618, 408.417 457.514, 404.427 457.466, 400.038 457.588, 396.210 457.918, 392.908 458.489, 390.099 459.338, 387.750 460.501, 385.826 462.016, 384.293 463.919, 383.115 466.252, 382.258 " />
            <path fill="none" stroke-width="3.0" stroke-linecap="butt" stroke-opacity="1.0" stroke="rgb(0, 0, 0)" stroke-linejoin="miter" d=" M 521.187, 651.838 511.925, 655.607 505.509, 658.217 504.934, 658.466 504.433, 658.837 504.005, 659.334 503.654, 659.957 503.382, 660.711 503.189, 661.598 503.078, 662.620 503.051, 663.780 503.121, 664.714 503.299, 665.666 503.573, 666.622 503.931, 667.571 504.361, 668.500 504.851, 669.397 505.388, 670.251 505.961, 671.048 506.557, 671.777 507.166, 672.425 507.773, 672.980 508.368, 673.429 511.764, 675.666 515.097, 677.789 518.385, 679.825 521.647, 681.800 524.899, 683.739 528.162, 685.669 531.454, 687.618 534.795, 689.612 538.204, 691.679 541.702, 693.848 545.308, 696.147 549.044, 698.605 554.022, 701.994 559.012, 705.492 564.012, 709.082 569.025, 712.744 574.050, 716.458 579.089, 720.204 584.144, 723.964 589.216, 727.717 594.306, 731.442 599.416, 735.119 604.548, 738.729 609.704, 742.250 611.906, 743.656 613.932, 744.806 615.780, 745.709 617.447, 746.370 618.930, 746.797 620.228, 746.996 621.337, 746.976 622.255, 746.744 622.980, 746.307 623.510, 745.674 623.842, 744.853 623.975, 743.851 623.883, 742.426 623.542, 740.989 622.986, 739.547 622.246, 738.108 621.354, 736.681 620.342, 735.273 619.243, 733.890 618.088, 732.541 616.909, 731.233 615.737, 729.971 614.605, 728.764 613.542, 727.618 609.328, 723.117 605.488, 718.744 601.986, 714.477 598.786, 710.296 595.855, 706.180 593.159, 702.110 590.666, 698.067 588.343, 694.031 586.159, 689.986 584.084, 685.912 582.085, 681.793 580.134, 677.612 575.969, 668.521 571.804, 659.429 567.639, 650.338 563.491, 641.282 560.921, 635.672 556.917, 626.933 552.752, 617.841 548.587, 608.750 544.422, 599.658 540.257, 590.567 536.092, 581.476 531.927, 572.384 527.763, 563.293 523.598, 554.201 522.345, 551.467 519.784, 545.876 515.619, 536.785 511.454, 527.693 507.289, 518.602 504.149, 511.748 503.431, 510.101 502.841, 508.512 502.687, 508.005 502.378, 506.986 502.043, 505.529 501.836, 504.148 501.756, 502.848 501.804, 501.635 501.981, 500.516 502.286, 499.497 502.720, 498.583 503.283, 497.783 503.977, 497.101 508.433, 493.251 509.220, 492.540 512.860, 489.253 517.272, 485.144 521.684, 480.965 526.108, 476.753 530.560, 472.551 535.055, 468.399 539.607, 464.341 544.232, 460.419 548.945, 456.679 553.764, 453.164 558.704, 449.922 561.977, 448.030 565.420, 446.299 569.058, 444.758 572.911, 443.439 " />
            <path fill="none" stroke-width="3.0" stroke-linecap="butt" stroke-opacity="1.0" stroke="rgb(0, 0, 0)" stroke-linejoin="miter" d=" M 417.413, 582.358 407.993, 585.714 399.449, 588.759 398.915, 589.053 398.468, 589.473 398.109, 590.022 397.839, 590.703 397.661, 591.517 397.574, 592.466 397.582, 593.554 397.703, 594.473 397.970, 595.478 398.364, 596.544 398.870, 597.650 399.469, 598.772 400.145, 599.886 400.878, 600.971 401.653, 602.001 402.452, 602.955 403.257, 603.808 404.050, 604.537 404.813, 605.118 408.908, 607.794 412.669, 610.114 416.132, 612.128 419.334, 613.886 422.315, 615.441 425.113, 616.845 427.770, 618.152 430.326, 619.416 432.823, 620.692 435.304, 622.036 437.813, 623.503 440.392, 625.151 442.972, 626.936 445.599, 628.861 448.293, 630.917 451.075, 633.098 453.967, 635.397 456.991, 637.809 460.170, 640.326 463.528, 642.942 467.088, 645.652 470.875, 648.451 474.915, 651.332 479.235, 654.292 480.151, 654.850 481.073, 655.301 481.985, 655.639 482.869, 655.860 483.711, 655.956 484.492, 655.923 485.197, 655.754 485.808, 655.444 486.308, 654.987 486.681, 654.377 486.910, 653.608 486.978, 652.676 486.881, 651.379 486.646, 650.128 486.288, 648.920 485.819, 647.752 485.255, 646.622 484.607, 645.525 483.891, 644.458 483.120, 643.418 482.307, 642.402 481.466, 641.405 480.611, 640.425 479.755, 639.457 476.356, 635.732 473.494, 632.376 471.115, 629.316 469.168, 626.474 467.602, 623.779 466.368, 621.158 465.417, 618.538 464.702, 615.849 464.176, 613.018 463.790, 609.973 463.498, 606.643 463.253, 602.956 462.902, 596.665 462.581, 590.384 462.289, 584.108 462.022, 577.832 461.842, 573.215 461.777, 571.551 461.600, 566.611 461.551, 565.260 461.342, 558.953 461.147, 552.626 460.962, 546.274 460.786, 539.891 460.614, 533.473 460.444, 527.014 460.443, 525.896 460.499, 524.915 460.610, 524.069 460.771, 523.353 460.978, 522.763 461.227, 522.297 461.514, 521.950 461.836, 521.719 462.188, 521.600 462.566, 521.590 462.967, 521.685 463.386, 521.881 463.892, 522.216 464.412, 522.651 464.947, 523.187 465.496, 523.825 466.060, 524.566 466.639, 525.414 467.232, 526.368 467.840, 527.431 468.462, 528.605 469.099, 529.889 469.751, 531.287 470.418, 532.800 474.437, 541.956 478.457, 551.113 482.059, 559.320 484.572, 565.044 488.591, 574.201 492.611, 583.357 496.630, 592.514 500.650, 601.671 504.669, 610.827 508.689, 619.984 512.708, 629.141 516.262, 637.236 517.067, 639.101 517.808, 640.893 518.405, 642.409 518.484, 642.611 519.095, 644.256 519.638, 645.828 520.114, 647.329 520.520, 648.759 520.855, 650.119 521.120, 651.408 521.187, 651.838 521.312, 652.629 521.430, 653.781 521.475, 654.865 521.332, 656.105 521.034, 657.188 520.575, 658.110 519.951, 658.866 519.157, 659.451 518.189, 659.860 " />
            <path fill="none" stroke-width="3.0" stroke-linecap="butt" stroke-opacity="1.0" stroke="rgb(0, 0, 0)" stroke-linejoin="miter" d=" M 414.204, 590.338 412.738, 590.843 410.944, 590.953 408.798, 590.687 406.276, 590.067 403.356, 589.112 402.414, 588.806 401.551, 588.616 400.768, 588.543 400.067, 588.590 399.449, 588.759 " />
            <path fill="none" stroke-width="3.0" stroke-linecap="butt" stroke-opacity="1.0" stroke="rgb(0, 0, 0)" stroke-linejoin="miter" d=" M 518.189, 659.860 517.042, 660.089 515.713, 660.135 514.198, 659.992 512.492, 659.656 510.592, 659.125 508.495, 658.395 507.649, 658.180 506.868, 658.077 506.154, 658.088 505.509, 658.217 " />
            <path fill="none" stroke-width="3.0" stroke-linecap="butt" stroke-opacity="1.0" stroke="rgb(0, 0, 0)" stroke-linejoin="miter" d=" M 478.667, 380.874 488.314, 378.242 497.962, 375.610 507.609, 372.978 517.256, 370.346 526.904, 367.713 536.551, 365.081 543.517, 363.181 553.165, 360.548 562.812, 357.916 572.459, 355.284 582.107, 352.652 591.754, 350.020 597.484, 348.456 607.132, 345.824 616.914, 343.155 617.637, 342.882 618.286, 342.522 618.861, 342.059 619.358, 341.479 619.777, 340.766 620.114, 339.904 620.368, 338.879 620.537, 337.674 620.619, 336.274 620.607, 335.151 620.515, 334.094 620.344, 333.105 620.098, 332.184 619.777, 331.332 619.386, 330.551 618.925, 329.841 618.398, 329.204 617.806, 328.641 617.152, 328.151 616.439, 327.737 615.669, 327.399 612.127, 326.104 608.253, 324.749 604.127, 323.350 599.826, 321.923 595.427, 320.483 591.003, 319.045 586.627, 317.623 582.369, 316.232 578.297, 314.885 574.479, 313.594 570.979, 312.372 567.863, 311.232 564.739, 310.010 561.360, 308.613 557.778, 307.079 554.043, 305.441 550.208, 303.736 546.322, 301.997 542.433, 300.260 538.590, 298.556 534.839, 296.919 531.227, 295.381 527.797, 293.973 524.595, 292.727 524.027, 292.568 523.448, 292.509 522.870, 292.550 513.139, 294.853 503.408, 297.156 493.677, 299.458 483.945, 301.761 474.214, 304.064 464.483, 306.367 454.751, 308.669 445.020, 310.972 435.289, 313.275 425.558, 315.577 415.826, 317.880 406.095, 320.183 396.364, 322.486 387.722, 324.531 " />
            <path fill="none" stroke-width="3.0" stroke-linecap="butt" stroke-opacity="1.0" stroke="rgb(0, 0, 0)" stroke-linejoin="miter" d=" M 621.857, 444.698 631.370, 441.615 640.883, 438.532 650.396, 435.449 659.909, 432.366 664.668, 430.823 674.181, 427.740 683.694, 424.657 693.207, 421.574 702.719, 418.491 712.232, 415.408 721.745, 412.325 731.258, 409.242 740.771, 406.159 750.284, 403.076 759.797, 399.993 764.361, 398.514 765.536, 398.043 766.592, 397.402 767.497, 396.572 768.217, 395.535 768.721, 394.275 768.975, 392.772 768.951, 391.528 768.712, 390.309 768.278, 389.123 767.669, 387.979 766.907, 386.885 766.012, 385.849 765.004, 384.878 763.905, 383.981 762.735, 383.165 761.515, 382.438 760.265, 381.807 759.006, 381.280 751.321, 378.421 744.081, 375.782 737.221, 373.328 730.681, 371.025 724.401, 368.839 718.324, 366.738 712.394, 364.691 706.557, 362.668 700.763, 360.638 694.958, 358.573 689.095, 356.444 683.127, 354.223 673.769, 350.697 664.412, 347.170 658.347, 344.884 657.656, 344.683 656.948, 344.590 656.237, 344.606 655.537, 344.731 645.905, 347.418 636.273, 350.105 626.641, 352.792 617.008, 355.479 607.376, 358.167 597.744, 360.854 593.657, 361.994 584.025, 364.681 574.393, 367.368 564.761, 370.055 555.128, 372.742 545.496, 375.430 543.503, 375.985 533.871, 378.673 524.239, 381.360 515.428, 383.818 " />
            <path fill="none" stroke-width="3.0" stroke-linecap="butt" stroke-opacity="1.0" stroke="rgb(0, 0, 0)" stroke-linejoin="miter" d=" M 593.657, 361.994 593.950, 358.403 594.443, 355.258 595.171, 352.573 596.172, 350.316 597.484, 348.456 " />
            <path fill="none" stroke-width="3.0" stroke-linecap="butt" stroke-opacity="1.0" stroke="rgb(0, 0, 0)" stroke-linejoin="miter" d=" M 622.255, 746.744 631.289, 742.456 640.323, 738.168 649.357, 733.880 658.391, 729.592 667.425, 725.305 676.459, 721.017 685.494, 716.729 694.528, 712.441 703.562, 708.153 712.596, 703.865 721.630, 699.577 730.664, 695.289 739.698, 691.002 748.732, 686.714 752.732, 684.815 753.509, 684.360 754.089, 683.728 754.470, 682.926 754.649, 681.964 754.609, 680.610 754.311, 679.257 753.786, 677.911 753.069, 676.579 752.192, 675.264 751.189, 673.974 750.093, 672.714 748.937, 671.488 747.755, 670.302 746.578, 669.161 745.440, 668.069 744.373, 667.031 740.137, 662.958 736.287, 658.986 732.786, 655.097 729.598, 651.274 726.689, 647.498 724.025, 643.753 721.572, 640.023 719.297, 636.291 717.169, 632.542 715.155, 628.760 713.224, 624.932 711.345, 621.041 707.069, 612.002 702.792, 602.962 698.516, 593.922 694.240, 584.883 689.963, 575.843 685.687, 566.804 681.411, 557.764 677.134, 548.725 672.858, 539.685 668.581, 530.646 664.305, 521.606 660.029, 512.567 655.753, 503.527 651.476, 494.488 647.200, 485.448 642.923, 476.409 638.223, 466.473 637.535, 464.935 636.979, 463.447 636.555, 462.014 636.264, 460.642 636.103, 459.336 636.075, 458.103 636.178, 456.948 636.412, 455.876 636.778, 454.895 637.275, 454.009 637.904, 453.226 638.666, 452.550 643.534, 448.715 648.375, 444.743 653.201, 440.670 658.026, 436.532 662.863, 432.366 664.668, 430.823 " />
            <path fill="none" stroke-width="3.0" stroke-linecap="butt" stroke-opacity="1.0" stroke="rgb(0, 0, 0)" stroke-linejoin="miter" d=" M 485.197, 655.754 494.475, 652.025 503.754, 648.297 513.033, 644.568 518.405, 642.409 " />
        </g>
    </g>
</svg>
