<?xml version='1.0' encoding='ascii'?>
<svg xmlns="http://www.w3.org/2000/svg" version="1.1" width="1080" height="1080">
    <g id="View Layer_LineSet" xmlns:inkscape="http://www.inkscape.org/namespaces/inkscape" inkscape:groupmode="lineset" inkscape:label="View Layer_LineSet">
        <g xmlns:inkscape="http://www.inkscape.org/namespaces/inkscape" inkscape:groupmode="layer" id="strokes" inkscape:label="strokes">
            <path fill="none" stroke-width="3.0" stroke-linecap="butt" stroke-opacity="1.0" stroke="rgb(0, 0, 0)" stroke-linejoin="miter" d=" M 468.473, 382.144 471.329, 381.560 474.706, 381.225 478.649, 381.104 479.542, 381.020 480.368, 380.890 481.126, 380.700 481.812, 380.431 482.424, 380.069 482.960, 379.596 483.416, 378.997 483.790, 378.255 483.925, 377.834 484.079, 377.354 484.281, 376.278 484.393, 375.009 484.412, 373.532 484.353, 372.344 484.218, 371.225 484.011, 370.174 483.734, 369.193 483.388, 368.284 482.976, 367.447 482.501, 366.684 481.964, 365.996 481.368, 365.384 480.716, 364.849 480.009, 364.391 479.251, 364.013 475.774, 362.546 471.975, 361.007 467.933, 359.416 463.722, 357.790 459.417, 356.149 455.090, 354.511 450.812, 352.891 446.650, 351.307 442.670, 349.775 438.938, 348.310 435.518, 346.927 432.470, 345.641 429.413, 344.268 426.103, 342.705 422.593, 340.990 418.933, 339.164 415.175, 337.265 411.367, 335.330 407.558, 333.396 403.795, 331.499 400.125, 329.676 396.593, 327.961 393.243, 326.389 390.119, 324.994 389.567, 324.811 389.010, 324.734 388.459, 324.763 387.924, 324.898 387.417, 325.138 386.948, 325.483 386.530, 325.934 386.172, 326.490 385.885, 327.151 385.681, 327.918 385.571, 328.790 385.564, 329.768 385.667, 331.112 385.841, 332.394 386.086, 333.617 386.400, 334.781 386.781, 335.887 387.227, 336.937 387.736, 337.931 388.307, 338.871 388.938, 339.757 389.629, 340.591 390.376, 341.373 391.178, 342.103 394.623, 344.992 397.655, 347.751 400.296, 350.437 402.570, 353.107 404.501, 355.820 406.113, 358.634 407.434, 361.607 408.489, 364.798 409.305, 368.265 409.910, 372.065 410.332, 376.254 410.599, 380.889 411.006, 390.881 411.413, 400.873 411.820, 410.864 412.227, 420.856 412.635, 430.848 413.042, 440.839 413.449, 450.831 413.856, 460.823 414.263, 470.815 414.670, 480.806 415.078, 490.798 415.485, 500.790 415.892, 510.781 416.299, 520.773 416.706, 530.765 417.113, 540.757 417.521, 550.748 417.928, 560.740 418.335, 570.732 418.479, 574.279 418.583, 578.105 418.540, 581.397 418.463, 582.382 418.323, 584.176 417.904, 586.463 417.257, 588.277 416.353, 589.639 415.166, 590.567 " />
            <path fill="none" stroke-width="3.0" stroke-linecap="butt" stroke-opacity="1.0" stroke="rgb(0, 0, 0)" stroke-linejoin="miter" d=" M 577.006, 442.752 581.170, 441.664 585.600, 440.857 590.322, 440.364 592.758, 440.293 595.359, 440.217 600.740, 440.450 606.490, 441.098 612.637, 442.194 618.890, 443.699 619.212, 443.776 620.407, 443.999 621.671, 444.157 622.971, 444.231 624.277, 444.201 625.557, 444.047 626.779, 443.748 627.910, 443.285 628.918, 442.637 629.771, 441.785 630.435, 440.707 630.878, 439.384 631.066, 437.795 630.993, 436.473 630.710, 435.171 630.238, 433.898 629.596, 432.664 628.806, 431.478 627.888, 430.349 626.863, 429.287 625.751, 428.300 624.573, 427.397 624.496, 427.346 623.350, 426.587 622.101, 425.878 620.847, 425.280 613.215, 422.009 606.030, 418.987 599.229, 416.174 593.208, 413.719 592.750, 413.532 586.533, 411.024 580.521, 408.614 574.657, 406.267 568.888, 403.949 563.162, 401.626 557.428, 399.266 551.638, 396.838 545.743, 394.311 536.569, 390.331 527.395, 386.352 521.297, 383.706 520.619, 383.474 519.929, 383.356 519.240, 383.352 518.567, 383.464 517.923, 383.692 517.321, 384.037 516.777, 384.499 516.302, 385.078 515.912, 385.776 515.619, 386.593 515.436, 387.530 515.378, 388.588 515.437, 390.048 515.589, 391.447 515.832, 392.786 516.163, 394.065 516.580, 395.286 517.081, 396.451 517.664, 397.559 518.327, 398.612 519.068, 399.612 519.885, 400.558 520.775, 401.452 521.738, 402.294 524.208, 404.306 526.464, 406.306 528.506, 408.291 530.332, 410.260 531.943, 412.209 533.337, 414.136 534.516, 416.040 535.479, 417.917 536.227, 419.766 536.760, 421.584 537.080, 423.370 537.187, 425.120 537.133, 426.219 536.972, 427.290 536.711, 428.338 536.355, 429.366 535.911, 430.379 535.385, 431.381 534.783, 432.377 534.111, 433.370 533.375, 434.366 532.582, 435.367 531.737, 436.379 530.846, 437.405 524.229, 444.903 517.612, 452.401 510.995, 459.898 504.378, 467.396 497.761, 474.894 491.144, 482.391 484.527, 489.889 477.910, 497.387 472.195, 503.862 471.435, 504.406 470.730, 504.919 470.074, 505.394 469.460, 505.822 468.882, 506.196 468.334, 506.508 467.808, 506.750 " />
            <path fill="none" stroke-width="3.0" stroke-linecap="butt" stroke-opacity="1.0" stroke="rgb(0, 0, 0)" stroke-linejoin="miter" d=" M 467.808, 506.750 467.300, 506.915 466.802, 506.995 466.308, 506.982 465.812, 506.869 465.308, 506.647 464.877, 506.374 464.460, 506.032 464.062, 505.620 463.685, 505.134 463.335, 504.572 463.015, 503.932 462.729, 503.211 462.480, 502.407 462.273, 501.517 462.112, 500.539 462.000, 499.470 461.941, 498.307 461.686, 488.310 461.430, 478.313 461.175, 468.316 460.920, 458.320 460.665, 448.323 460.410, 438.326 460.155, 428.329 459.899, 418.333 459.644, 408.336 459.543, 404.355 459.498, 399.967 459.628, 396.137 459.967, 392.834 460.553, 390.022 461.421, 387.669 462.609, 385.740 464.154, 384.199 466.096, 383.012 468.473, 382.144 " />
            <path fill="none" stroke-width="3.0" stroke-linecap="butt" stroke-opacity="1.0" stroke="rgb(0, 0, 0)" stroke-linejoin="miter" d=" M 524.100, 651.171 514.872, 655.024 508.153, 657.830 507.568, 658.083 507.057, 658.457 506.621, 658.956 506.263, 659.582 505.984, 660.338 505.787, 661.226 505.673, 662.248 505.644, 663.408 505.714, 664.342 505.894, 665.293 506.172, 666.247 506.536, 667.192 506.973, 668.118 507.470, 669.012 508.017, 669.862 508.599, 670.655 509.206, 671.379 509.825, 672.022 510.443, 672.573 511.048, 673.017 514.504, 675.229 517.896, 677.328 521.242, 679.339 524.561, 681.289 527.871, 683.203 531.191, 685.109 534.541, 687.032 537.939, 689.001 541.408, 691.043 544.966, 693.185 548.634, 695.456 552.433, 697.885 557.496, 701.234 562.570, 704.693 567.654, 708.243 572.750, 711.864 577.859, 715.537 582.982, 719.243 588.120, 722.961 593.274, 726.671 598.447, 730.354 603.639, 733.988 608.854, 737.554 614.094, 741.031 616.331, 742.419 618.389, 743.552 620.267, 744.439 621.961, 745.087 623.469, 745.501 624.788, 745.691 625.916, 745.662 626.849, 745.423 627.587, 744.981 628.126, 744.344 628.464, 743.521 628.601, 742.520 628.508, 741.097 628.164, 739.664 627.601, 738.228 626.850, 736.797 625.945, 735.378 624.917, 733.979 623.801, 732.607 622.628, 731.268 621.431, 729.970 620.241, 728.720 619.091, 727.523 618.012, 726.386 613.733, 721.922 609.833, 717.582 606.276, 713.347 603.027, 709.194 600.050, 705.104 597.313, 701.058 594.782, 697.037 592.424, 693.022 590.207, 688.996 588.100, 684.942 586.072, 680.841 584.092, 676.677 579.862, 667.616 575.631, 658.555 571.401, 649.494 567.171, 640.433 566.992, 640.048 564.339, 634.367 560.207, 625.517 555.977, 616.455 551.747, 607.394 547.517, 598.333 543.286, 589.272 539.056, 580.211 534.826, 571.150 530.596, 562.088 526.366, 553.027 524.996, 550.094 522.354, 544.434 518.124, 535.373 513.893, 526.311 509.663, 517.250 506.935, 511.408 506.206, 509.765 505.607, 508.180 505.344, 507.328 505.137, 506.657 504.797, 505.203 504.588, 503.823 504.508, 502.524 504.559, 501.311 504.740, 500.192 505.052, 499.171 505.495, 498.255 506.069, 497.451 506.776, 496.766 511.319, 492.891 512.847, 491.529 515.832, 488.869 520.330, 484.737 524.826, 480.534 529.336, 476.300 533.873, 472.075 538.453, 467.901 543.092, 463.819 547.804, 459.875 552.605, 456.111 557.513, 452.573 562.544, 449.306 565.876, 447.398 569.382, 445.649 573.084, 444.091 577.006, 442.752 " />
            <path fill="none" stroke-width="3.0" stroke-linecap="butt" stroke-opacity="1.0" stroke="rgb(0, 0, 0)" stroke-linejoin="miter" d=" M 418.463, 582.382 409.070, 585.813 400.116, 589.084 399.571, 589.381 399.115, 589.805 398.748, 590.356 398.472, 591.039 398.288, 591.854 398.199, 592.805 398.206, 593.894 398.328, 594.813 398.599, 595.816 399.001, 596.880 399.515, 597.984 400.125, 599.102 400.813, 600.213 401.560, 601.293 402.350, 602.319 403.163, 603.268 403.983, 604.116 404.792, 604.840 405.570, 605.417 409.745, 608.066 413.578, 610.362 417.108, 612.354 420.372, 614.092 423.410, 615.627 426.263, 617.013 428.970, 618.302 431.576, 619.549 434.121, 620.809 436.649, 622.136 439.205, 623.586 441.833, 625.217 444.462, 626.985 447.138, 628.892 449.882, 630.930 452.715, 633.093 455.661, 635.373 458.741, 637.763 461.979, 640.258 465.398, 642.852 469.023, 645.537 472.879, 648.309 476.993, 651.162 481.392, 654.092 482.325, 654.643 483.264, 655.087 484.192, 655.419 485.093, 655.633 485.950, 655.724 486.746, 655.685 487.465, 655.511 488.087, 655.197 488.598, 654.736 488.979, 654.124 489.213, 653.354 489.283, 652.421 489.185, 651.124 488.948, 649.875 488.584, 648.670 488.108, 647.505 487.534, 646.379 486.876, 645.287 486.147, 644.225 485.362, 643.191 484.535, 642.180 483.680, 641.189 482.810, 640.215 481.939, 639.253 478.480, 635.551 475.567, 632.216 473.146, 629.171 471.165, 626.343 469.572, 623.659 468.318, 621.046 467.352, 618.433 466.626, 615.748 466.092, 612.920 465.703, 609.878 465.409, 606.550 465.164, 602.864 464.813, 596.575 464.494, 590.295 464.203, 584.021 463.938, 577.746 463.741, 572.667 463.695, 571.465 463.499, 565.932 463.472, 565.175 463.267, 558.869 463.075, 552.543 462.894, 546.191 462.721, 539.809 462.554, 533.391 462.388, 526.933 462.388, 525.815 462.447, 524.834 462.561, 523.987 462.725, 523.270 462.937, 522.679 463.191, 522.211 463.485, 521.862 463.813, 521.629 464.172, 521.509 464.557, 521.496 464.966, 521.589 465.393, 521.782 465.908, 522.115 466.437, 522.546 466.982, 523.078 467.541, 523.713 468.115, 524.452 468.703, 525.296 469.307, 526.246 469.925, 527.306 470.558, 528.475 471.206, 529.756 471.869, 531.150 472.546, 532.658 476.630, 541.787 480.714, 550.915 484.071, 558.418 486.666, 564.219 490.750, 573.347 494.834, 582.475 498.918, 591.603 503.001, 600.732 507.085, 609.860 511.169, 618.988 515.253, 628.116 519.128, 636.778 519.946, 638.638 520.699, 640.423 521.175, 641.611 521.385, 642.136 522.005, 643.776 522.557, 645.344 523.039, 646.842 523.451, 648.268 523.791, 649.625 524.059, 650.912 524.100, 651.171 524.253, 652.131 524.373, 653.282 524.416, 654.365 524.270, 655.606 523.965, 656.691 523.496, 657.616 522.860, 658.375 522.051, 658.965 521.065, 659.381 " />
            <path fill="none" stroke-width="3.0" stroke-linecap="butt" stroke-opacity="1.0" stroke="rgb(0, 0, 0)" stroke-linejoin="miter" d=" M 415.166, 590.567 413.671, 591.082 411.841, 591.203 409.651, 590.951 407.080, 590.347 404.102, 589.411 403.142, 589.111 402.261, 588.926 401.462, 588.859 400.747, 588.910 400.116, 589.084 " />
            <path fill="none" stroke-width="3.0" stroke-linecap="butt" stroke-opacity="1.0" stroke="rgb(0, 0, 0)" stroke-linejoin="miter" d=" M 521.065, 659.381 519.897, 659.619 518.544, 659.674 517.001, 659.542 515.264, 659.219 513.329, 658.701 511.194, 657.986 510.333, 657.777 509.538, 657.679 508.810, 657.696 508.153, 657.830 " />
            <path fill="none" stroke-width="3.0" stroke-linecap="butt" stroke-opacity="1.0" stroke="rgb(0, 0, 0)" stroke-linejoin="miter" d=" M 481.126, 380.700 490.756, 378.004 500.386, 375.308 510.015, 372.612 519.645, 369.916 529.275, 367.220 538.905, 364.525 543.317, 363.289 552.946, 360.594 562.576, 357.898 572.206, 355.202 581.836, 352.506 591.466, 349.810 597.931, 348.000 607.561, 345.304 617.190, 342.609 617.740, 342.455 618.472, 342.178 619.130, 341.816 619.713, 341.351 620.217, 340.769 620.641, 340.055 620.983, 339.193 621.240, 338.168 621.411, 336.963 621.494, 335.565 621.482, 334.444 621.388, 333.388 621.215, 332.401 620.965, 331.482 620.641, 330.633 620.244, 329.854 619.777, 329.148 619.242, 328.514 618.643, 327.953 617.980, 327.467 617.258, 327.057 616.477, 326.722 612.887, 325.444 608.961, 324.107 604.778, 322.727 600.419, 321.320 595.959, 319.900 591.474, 318.482 587.037, 317.081 582.720, 315.709 578.591, 314.380 574.719, 313.106 571.169, 311.900 568.009, 310.774 564.841, 309.566 561.413, 308.184 557.779, 306.666 553.991, 305.045 550.101, 303.356 546.158, 301.635 542.212, 299.914 538.313, 298.227 534.507, 296.606 530.841, 295.084 527.360, 293.690 524.110, 292.458 523.533, 292.301 522.946, 292.245 522.360, 292.288 512.641, 294.645 502.923, 297.002 493.205, 299.359 483.487, 301.716 473.768, 304.073 464.050, 306.430 454.332, 308.787 444.614, 311.144 434.895, 313.501 425.177, 315.858 415.459, 318.215 405.741, 320.572 396.022, 322.929 388.459, 324.763 " />
            <path fill="none" stroke-width="3.0" stroke-linecap="butt" stroke-opacity="1.0" stroke="rgb(0, 0, 0)" stroke-linejoin="miter" d=" M 626.779, 443.748 636.266, 440.587 645.753, 437.426 655.241, 434.265 664.449, 431.197 673.937, 428.035 683.424, 424.874 692.911, 421.713 702.398, 418.552 711.885, 415.391 721.373, 412.230 730.860, 409.069 740.347, 405.908 749.834, 402.747 759.322, 399.585 766.992, 397.030 768.179, 396.554 769.247, 395.909 770.161, 395.077 770.889, 394.039 771.398, 392.779 771.655, 391.279 771.631, 390.038 771.389, 388.823 770.950, 387.642 770.335, 386.504 769.564, 385.416 768.659, 384.386 767.640, 383.423 766.529, 382.533 765.346, 381.724 764.112, 381.004 762.849, 380.381 761.575, 379.861 753.804, 377.045 746.482, 374.447 739.544, 372.030 732.929, 369.762 726.576, 367.609 720.427, 365.541 714.427, 363.526 708.521, 361.533 702.656, 359.534 696.782, 357.499 690.847, 355.400 684.805, 353.210 675.418, 349.763 666.031, 346.316 659.714, 343.997 659.015, 343.799 658.298, 343.710 657.578, 343.729 656.869, 343.857 647.255, 346.610 637.642, 349.363 628.028, 352.116 618.414, 354.869 608.801, 357.622 599.187, 360.376 594.151, 361.818 584.538, 364.571 574.924, 367.324 565.311, 370.077 555.697, 372.831 546.084, 375.584 543.303, 376.380 533.690, 379.133 524.076, 381.886 518.567, 383.464 " />
            <path fill="none" stroke-width="3.0" stroke-linecap="butt" stroke-opacity="1.0" stroke="rgb(0, 0, 0)" stroke-linejoin="miter" d=" M 594.151, 361.818 594.165, 361.427 594.466, 357.790 594.965, 354.645 595.702, 351.960 596.718, 349.700 597.931, 348.000 " />
            <path fill="none" stroke-width="3.0" stroke-linecap="butt" stroke-opacity="1.0" stroke="rgb(0, 0, 0)" stroke-linejoin="miter" d=" M 626.849, 745.423 635.836, 741.038 644.824, 736.652 653.811, 732.267 662.798, 727.882 671.785, 723.497 680.773, 719.112 689.760, 714.727 698.747, 710.342 707.734, 705.956 716.722, 701.571 725.709, 697.186 734.696, 692.801 743.683, 688.416 752.671, 684.031 755.268, 682.763 756.054, 682.303 756.640, 681.668 757.025, 680.866 757.206, 679.904 757.166, 678.553 756.864, 677.205 756.334, 675.866 755.608, 674.542 754.721, 673.237 753.707, 671.956 752.598, 670.706 751.429, 669.491 750.233, 668.316 749.043, 667.185 747.892, 666.104 746.812, 665.076 742.528, 661.041 738.633, 657.104 735.091, 653.247 731.866, 649.453 728.923, 645.705 726.227, 641.985 723.745, 638.279 721.443, 634.569 719.289, 630.842 717.251, 627.081 715.297, 623.273 713.395, 619.402 709.059, 610.391 704.722, 601.380 700.386, 592.369 696.050, 583.358 691.714, 574.347 687.378, 565.336 683.041, 556.325 678.705, 547.314 674.369, 538.303 670.033, 529.292 665.697, 520.281 661.360, 511.270 657.024, 502.259 652.688, 493.248 648.352, 484.237 644.016, 475.226 639.343, 465.516 638.646, 463.984 638.082, 462.501 637.653, 461.072 637.357, 459.703 637.195, 458.400 637.166, 457.168 637.270, 456.014 637.507, 454.943 637.877, 453.961 638.381, 453.074 639.019, 452.287 639.790, 451.609 644.721, 447.753 649.624, 443.761 654.513, 439.668 659.399, 435.510 664.297, 431.326 664.449, 431.197 " />
            <path fill="none" stroke-width="3.0" stroke-linecap="butt" stroke-opacity="1.0" stroke="rgb(0, 0, 0)" stroke-linejoin="miter" d=" M 487.465, 655.511 496.709, 651.699 505.954, 647.887 515.199, 644.075 521.175, 641.611 " />
        </g>
    </g>
</svg>
