<?xml version='1.0' encoding='ascii'?>
<svg xmlns="http://www.w3.org/2000/svg" version="1.1" width="1080" height="1080">
    <g id="View Layer_LineSet" xmlns:inkscape="http://www.inkscape.org/namespaces/inkscape" inkscape:groupmode="lineset" inkscape:label="View Layer_LineSet">
        <g xmlns:inkscape="http://www.inkscape.org/namespaces/inkscape" inkscape:groupmode="layer" id="strokes" inkscape:label="strokes">
            <path fill="none" stroke-width="3.0" stroke-linecap="butt" stroke-opacity="1.0" stroke="rgb(0, 0, 0)" stroke-linejoin="miter" d=" M 470.510, 382.030 473.415, 381.433 476.849, 381.083 480.860, 380.945 481.767, 380.857 482.608, 380.724 483.378, 380.530 484.076, 380.259 484.699, 379.894 485.244, 379.419 485.708, 378.818 486.089, 378.074 486.267, 377.531 486.384, 377.172 486.590, 376.095 486.706, 374.826 486.727, 373.349 486.668, 372.162 486.532, 371.043 486.323, 369.993 486.041, 369.014 485.691, 368.106 485.273, 367.272 484.790, 366.511 484.245, 365.825 483.640, 365.216 482.977, 364.683 482.259, 364.229 481.489, 363.854 477.954, 362.402 474.093, 360.880 469.984, 359.306 465.703, 357.698 461.326, 356.076 456.927, 354.455 452.576, 352.854 448.343, 351.287 444.296, 349.772 440.501, 348.322 437.022, 346.953 433.922, 345.680 430.813, 344.319 427.446, 342.769 423.876, 341.069 420.153, 339.257 416.329, 337.373 412.456, 335.452 408.580, 333.533 404.752, 331.651 401.018, 329.842 397.424, 328.141 394.015, 326.581 390.835, 325.198 390.274, 325.018 389.707, 324.943 389.145, 324.974 388.600, 325.111 388.084, 325.353 387.606, 325.700 387.180, 326.153 386.814, 326.711 386.522, 327.374 386.314, 328.142 386.200, 329.015 386.193, 329.993 386.295, 331.337 386.472, 332.619 386.720, 333.842 387.039, 335.005 387.425, 336.111 387.878, 337.159 388.395, 338.152 388.976, 339.090 389.618, 339.974 390.320, 340.805 391.079, 341.584 391.896, 342.312 395.400, 345.188 398.484, 347.936 401.170, 350.611 403.482, 353.273 405.445, 355.979 407.084, 358.787 408.425, 361.756 409.495, 364.944 410.323, 368.408 410.935, 372.207 411.360, 376.396 411.626, 381.032 412.030, 391.024 412.434, 401.016 412.838, 411.007 413.242, 420.999 413.646, 430.991 414.050, 440.983 414.454, 450.975 414.858, 460.966 415.262, 470.958 415.666, 480.950 416.070, 490.942 416.474, 500.934 416.878, 510.926 417.282, 520.918 417.686, 530.909 418.090, 540.901 418.494, 550.893 418.898, 560.885 419.302, 570.877 419.446, 574.457 419.547, 578.284 419.500, 581.578 419.435, 582.393 419.277, 584.359 418.848, 586.650 418.187, 588.468 417.266, 589.836 416.057, 590.772 " />
            <path fill="none" stroke-width="3.0" stroke-linecap="butt" stroke-opacity="1.0" stroke="rgb(0, 0, 0)" stroke-linejoin="miter" d=" M 580.738, 442.105 584.967, 440.997 589.466, 440.170 593.194, 439.769 594.259, 439.654 599.373, 439.483 604.834, 439.690 610.670, 440.308 616.908, 441.374 620.398, 442.184 623.578, 442.922 624.790, 443.138 626.072, 443.290 627.392, 443.358 628.717, 443.321 630.016, 443.161 631.256, 442.857 632.404, 442.389 633.427, 441.737 634.293, 440.881 634.968, 439.802 635.418, 438.478 635.611, 436.891 635.539, 435.571 635.253, 434.271 634.775, 433.002 634.125, 431.773 633.325, 430.592 632.395, 429.469 631.355, 428.413 630.228, 427.432 629.034, 426.536 628.533, 426.212 627.793, 425.733 626.527, 425.031 625.256, 424.440 617.514, 421.208 610.225, 418.224 603.326, 415.446 596.752, 412.837 593.675, 411.629 590.443, 410.360 584.341, 407.980 578.390, 405.662 572.534, 403.372 566.721, 401.077 560.901, 398.745 555.022, 396.346 549.036, 393.847 539.825, 389.955 530.613, 386.063 524.210, 383.358 523.521, 383.128 522.820, 383.013 522.120, 383.013 521.435, 383.128 520.780, 383.359 520.169, 383.706 519.615, 384.170 519.132, 384.751 518.735, 385.450 518.436, 386.269 518.249, 387.206 518.189, 388.264 518.248, 389.723 518.401, 391.121 518.646, 392.457 518.981, 393.735 519.404, 394.954 519.912, 396.115 520.504, 397.221 521.177, 398.271 521.928, 399.266 522.757, 400.208 523.661, 401.097 524.638, 401.935 527.146, 403.935 529.437, 405.923 531.509, 407.898 533.363, 409.857 534.998, 411.798 536.413, 413.718 537.609, 415.615 538.585, 417.486 539.343, 419.331 539.883, 421.145 540.206, 422.928 540.313, 424.678 540.257, 425.776 540.092, 426.847 539.826, 427.895 539.463, 428.925 539.011, 429.939 538.476, 430.944 537.863, 431.942 537.179, 432.938 536.431, 433.936 535.624, 434.941 534.764, 435.956 533.858, 436.987 527.192, 444.440 520.525, 451.894 513.859, 459.348 507.193, 466.802 500.526, 474.256 493.860, 481.709 487.194, 489.163 480.527, 496.617 474.170, 503.725 473.397, 504.273 472.679, 504.790 472.011, 505.268 471.387, 505.699 470.798, 506.076 470.240, 506.391 469.705, 506.637 " />
            <path fill="none" stroke-width="3.0" stroke-linecap="butt" stroke-opacity="1.0" stroke="rgb(0, 0, 0)" stroke-linejoin="miter" d=" M 469.705, 506.637 469.188, 506.804 468.681, 506.887 468.179, 506.877 467.675, 506.766 467.163, 506.546 466.724, 506.276 466.301, 505.937 465.896, 505.526 465.514, 505.042 465.158, 504.482 464.833, 503.844 464.543, 503.125 464.291, 502.322 464.081, 501.433 463.918, 500.456 463.805, 499.387 463.746, 498.224 463.497, 488.227 463.248, 478.230 462.998, 468.233 462.749, 458.236 462.500, 448.239 462.251, 438.243 462.001, 428.246 461.752, 418.249 461.503, 408.252 461.404, 404.281 461.363, 399.893 461.499, 396.063 461.848, 392.758 462.446, 389.944 463.331, 387.587 464.542, 385.652 466.115, 384.104 468.091, 382.909 470.510, 382.030 " />
            <path fill="none" stroke-width="3.0" stroke-linecap="butt" stroke-opacity="1.0" stroke="rgb(0, 0, 0)" stroke-linejoin="miter" d=" M 526.760, 650.536 517.566, 654.468 510.572, 657.459 509.977, 657.716 509.456, 658.094 509.013, 658.596 508.648, 659.224 508.364, 659.981 508.163, 660.870 508.046, 661.893 508.015, 663.053 508.086, 663.986 508.268, 664.935 508.550, 665.887 508.918, 666.830 509.361, 667.753 509.866, 668.643 510.421, 669.489 511.012, 670.278 511.628, 670.998 512.256, 671.638 512.884, 672.183 513.499, 672.624 517.010, 674.812 520.455, 676.888 523.853, 678.876 527.224, 680.803 530.585, 682.695 533.957, 684.578 537.359, 686.478 540.810, 688.423 544.332, 690.440 547.944, 692.557 551.669, 694.802 555.526, 697.204 560.665, 700.516 565.815, 703.939 570.975, 707.451 576.147, 711.035 581.331, 714.670 586.528, 718.337 591.741, 722.016 596.970, 725.688 602.218, 729.331 607.485, 732.925 612.775, 736.451 618.089, 739.888 620.357, 741.258 622.446, 742.375 624.350, 743.248 626.069, 743.883 627.598, 744.286 628.936, 744.466 630.081, 744.429 631.028, 744.183 631.777, 743.737 632.324, 743.097 632.669, 742.272 632.808, 741.271 632.716, 739.851 632.368, 738.422 631.798, 736.991 631.037, 735.567 630.120, 734.156 629.079, 732.766 627.948, 731.403 626.759, 730.074 625.546, 728.786 624.340, 727.545 623.174, 726.357 622.080, 725.229 617.741, 720.799 613.787, 716.492 610.182, 712.285 606.888, 708.158 603.871, 704.093 601.096, 700.069 598.530, 696.068 596.141, 692.073 593.894, 688.066 591.760, 684.028 589.705, 679.945 587.698, 675.798 583.409, 666.764 579.119, 657.731 574.830, 648.698 570.540, 639.664 570.175, 638.895 567.442, 633.139 563.190, 624.184 558.900, 615.151 554.611, 606.118 550.321, 597.084 546.032, 588.051 541.742, 579.018 537.453, 569.984 533.163, 560.951 528.874, 551.918 527.394, 548.801 524.950, 543.655 520.661, 534.622 516.371, 525.588 512.082, 516.555 509.483, 511.082 508.743, 509.444 508.136, 507.863 507.767, 506.684 507.660, 506.343 507.316, 504.891 507.105, 503.512 507.025, 502.214 507.078, 501.002 507.263, 499.881 507.581, 498.859 508.032, 497.941 508.617, 497.135 509.337, 496.445 513.958, 492.548 516.238, 490.539 518.549, 488.504 523.124, 484.350 527.698, 480.125 532.284, 475.870 536.899, 471.623 541.556, 467.428 546.273, 463.326 551.063, 459.360 555.945, 455.574 560.933, 452.014 566.046, 448.725 569.431, 446.802 572.993, 445.037 576.755, 443.462 580.738, 442.105 " />
            <path fill="none" stroke-width="3.0" stroke-linecap="butt" stroke-opacity="1.0" stroke="rgb(0, 0, 0)" stroke-linejoin="miter" d=" M 419.435, 582.393 410.067, 585.893 400.737, 589.378 400.183, 589.679 399.717, 590.105 399.343, 590.660 399.061, 591.344 398.874, 592.161 398.782, 593.113 398.788, 594.203 398.911, 595.121 399.186, 596.123 399.594, 597.186 400.117, 598.286 400.737, 599.402 401.435, 600.509 402.195, 601.585 402.998, 602.607 403.825, 603.552 404.659, 604.396 405.481, 605.115 406.273, 605.687 410.520, 608.312 414.420, 610.586 418.011, 612.556 421.331, 614.275 424.422, 615.792 427.323, 617.160 430.078, 618.433 432.728, 619.665 435.316, 620.909 437.888, 622.220 440.487, 623.655 443.160, 625.270 445.832, 627.022 448.553, 628.913 451.342, 630.934 454.223, 633.079 457.217, 635.340 460.348, 637.712 463.638, 640.187 467.114, 642.758 470.798, 645.421 474.717, 648.168 478.898, 650.995 483.368, 653.896 484.316, 654.441 485.270, 654.879 486.214, 655.205 487.130, 655.413 488.002, 655.498 488.811, 655.454 489.541, 655.276 490.175, 654.957 490.695, 654.493 491.082, 653.878 491.321, 653.107 491.393, 652.173 491.295, 650.878 491.055, 649.630 490.687, 648.427 490.204, 647.266 489.621, 646.144 488.953, 645.056 488.214, 643.999 487.417, 642.970 486.577, 641.964 485.708, 640.979 484.824, 640.010 483.940, 639.054 480.426, 635.374 477.467, 632.058 475.008, 629.028 472.996, 626.212 471.379, 623.538 470.106, 620.933 469.126, 618.325 468.391, 615.645 467.851, 612.820 467.458, 609.780 467.162, 606.453 466.917, 602.769 466.566, 596.481 466.248, 590.203 465.959, 583.930 465.695, 577.656 465.484, 572.139 465.455, 571.377 465.242, 565.279 465.235, 565.087 465.033, 558.782 464.844, 552.457 464.667, 546.106 464.497, 539.724 464.333, 533.307 464.171, 526.850 464.173, 525.731 464.234, 524.750 464.350, 523.902 464.519, 523.184 464.734, 522.592 464.994, 522.123 465.292, 521.772 465.626, 521.538 465.991, 521.415 466.384, 521.400 466.799, 521.490 467.233, 521.682 467.756, 522.011 468.295, 522.440 468.848, 522.969 469.416, 523.601 469.999, 524.336 470.597, 525.177 471.209, 526.125 471.837, 527.181 472.480, 528.347 473.137, 529.624 473.810, 531.014 474.497, 532.519 478.639, 541.620 482.782, 550.722 485.895, 557.563 488.568, 563.437 492.711, 572.539 496.853, 581.641 500.995, 590.743 505.137, 599.844 509.280, 608.946 513.422, 618.048 517.564, 627.150 521.748, 636.343 522.577, 638.197 523.340, 639.977 523.699, 640.856 524.037, 641.684 524.665, 643.320 525.224, 644.884 525.712, 646.378 526.129, 647.801 526.474, 649.155 526.745, 650.441 526.760, 650.536 526.941, 651.658 527.061, 652.807 527.104, 653.890 526.954, 655.131 526.643, 656.218 526.166, 657.145 525.519, 657.909 524.696, 658.504 " />
            <path fill="none" stroke-width="3.0" stroke-linecap="butt" stroke-opacity="1.0" stroke="rgb(0, 0, 0)" stroke-linejoin="miter" d=" M 416.057, 590.772 414.534, 591.296 412.671, 591.428 410.443, 591.189 407.825, 590.600 404.796, 589.682 403.818, 589.387 402.922, 589.208 402.108, 589.145 401.380, 589.201 400.737, 589.378 " />
            <path fill="none" stroke-width="3.0" stroke-linecap="butt" stroke-opacity="1.0" stroke="rgb(0, 0, 0)" stroke-linejoin="miter" d=" M 524.696, 658.504 523.693, 658.926 522.507, 659.171 521.131, 659.235 519.563, 659.113 517.798, 658.802 515.832, 658.297 513.663, 657.596 512.787, 657.392 511.979, 657.300 511.240, 657.321 510.572, 657.459 " />
            <path fill="none" stroke-width="3.0" stroke-linecap="butt" stroke-opacity="1.0" stroke="rgb(0, 0, 0)" stroke-linejoin="miter" d=" M 483.378, 380.530 492.991, 377.775 502.604, 375.019 512.217, 372.264 521.830, 369.509 531.443, 366.754 541.056, 363.998 543.120, 363.407 552.733, 360.652 562.346, 357.896 571.959, 355.141 581.572, 352.386 591.185, 349.631 598.311, 347.588 607.924, 344.833 617.536, 342.078 618.472, 341.810 619.213, 341.531 619.880, 341.166 620.469, 340.699 620.979, 340.116 621.408, 339.401 621.753, 338.538 622.014, 337.513 622.187, 336.310 622.271, 334.912 622.258, 333.792 622.163, 332.738 621.988, 331.753 621.735, 330.836 621.407, 329.989 621.005, 329.213 620.532, 328.509 619.991, 327.878 619.385, 327.320 618.714, 326.837 617.983, 326.430 617.193, 326.099 613.560, 324.836 609.586, 323.516 605.353, 322.154 600.941, 320.765 596.426, 319.364 591.886, 317.965 587.394, 316.582 583.023, 315.228 578.842, 313.916 574.921, 312.658 571.327, 311.467 568.126, 310.354 564.918, 309.158 561.447, 307.791 557.766, 306.287 553.929, 304.681 549.988, 303.009 545.994, 301.303 541.997, 299.598 538.047, 297.927 534.190, 296.321 530.476, 294.812 526.949, 293.433 523.655, 292.213 523.071, 292.058 522.476, 292.004 521.882, 292.050 512.176, 294.457 502.470, 296.865 492.764, 299.272 483.058, 301.680 473.352, 304.087 463.646, 306.495 453.940, 308.902 444.235, 311.309 434.529, 313.717 424.823, 316.124 415.117, 318.532 405.411, 320.939 395.705, 323.347 389.145, 324.974 " />
            <path fill="none" stroke-width="3.0" stroke-linecap="butt" stroke-opacity="1.0" stroke="rgb(0, 0, 0)" stroke-linejoin="miter" d=" M 631.256, 442.857 640.718, 439.623 650.181, 436.389 659.644, 433.155 664.079, 431.639 673.541, 428.405 683.004, 425.170 692.467, 421.936 701.929, 418.702 711.392, 415.468 720.854, 412.234 730.317, 409.000 739.780, 405.766 749.242, 402.532 758.705, 399.298 768.167, 396.063 769.346, 395.661 770.545, 395.181 771.623, 394.533 772.546, 393.698 773.281, 392.660 773.794, 391.400 774.053, 389.901 774.029, 388.664 773.784, 387.452 773.341, 386.276 772.720, 385.143 771.941, 384.061 771.027, 383.037 769.999, 382.080 768.877, 381.197 767.682, 380.395 766.436, 379.682 765.160, 379.066 763.874, 378.553 756.026, 375.776 748.631, 373.214 741.623, 370.832 734.940, 368.597 728.521, 366.475 722.309, 364.437 716.246, 362.450 710.278, 360.486 704.350, 358.515 698.413, 356.508 692.414, 354.437 686.306, 352.276 676.892, 348.901 667.479, 345.526 660.935, 343.179 660.227, 342.985 659.502, 342.898 658.774, 342.920 658.057, 343.051 648.461, 345.865 638.866, 348.680 629.270, 351.495 619.674, 354.310 610.079, 357.125 600.483, 359.940 594.585, 361.670 584.990, 364.484 575.394, 367.299 565.798, 370.114 556.203, 372.929 546.607, 375.744 543.107, 376.770 533.511, 379.585 523.916, 382.400 521.435, 383.128 " />
            <path fill="none" stroke-width="3.0" stroke-linecap="butt" stroke-opacity="1.0" stroke="rgb(0, 0, 0)" stroke-linejoin="miter" d=" M 594.585, 361.670 594.613, 360.860 594.918, 357.225 595.423, 354.081 596.169, 351.396 597.196, 349.134 598.311, 347.588 " />
            <path fill="none" stroke-width="3.0" stroke-linecap="butt" stroke-opacity="1.0" stroke="rgb(0, 0, 0)" stroke-linejoin="miter" d=" M 631.028, 744.183 639.971, 739.708 648.913, 735.232 657.856, 730.757 666.799, 726.282 675.741, 721.806 684.684, 717.331 693.627, 712.855 702.569, 708.380 711.512, 703.905 720.455, 699.429 729.397, 694.954 738.340, 690.479 747.282, 686.003 756.225, 681.528 757.540, 680.870 758.334, 680.405 758.926, 679.768 759.314, 678.965 759.497, 678.003 759.457, 676.656 759.152, 675.312 758.616, 673.979 757.883, 672.662 756.987, 671.365 755.962, 670.094 754.842, 668.854 753.661, 667.649 752.453, 666.484 751.251, 665.363 750.088, 664.291 748.998, 663.271 744.669, 659.271 740.735, 655.367 737.156, 651.540 733.898, 647.773 730.924, 644.050 728.199, 640.354 725.691, 636.670 723.365, 632.981 721.188, 629.274 719.128, 625.532 717.153, 621.742 715.231, 617.889 710.840, 608.904 706.450, 599.919 702.059, 590.935 697.669, 581.950 693.278, 572.965 688.888, 563.981 684.498, 554.996 680.107, 546.011 675.717, 537.027 671.326, 528.042 666.936, 519.057 662.545, 510.073 658.155, 501.088 653.765, 492.103 649.374, 483.119 644.984, 474.134 640.342, 464.634 639.636, 463.107 639.066, 461.628 638.632, 460.203 638.332, 458.838 638.168, 457.537 638.138, 456.307 638.243, 455.154 638.483, 454.082 638.858, 453.100 639.367, 452.211 640.012, 451.423 640.792, 450.741 645.780, 446.866 650.740, 442.855 655.683, 438.744 660.625, 434.569 664.079, 431.639 " />
            <path fill="none" stroke-width="3.0" stroke-linecap="butt" stroke-opacity="1.0" stroke="rgb(0, 0, 0)" stroke-linejoin="miter" d=" M 489.541, 655.276 498.754, 651.387 507.967, 647.497 517.179, 643.608 523.699, 640.856 " />
        </g>
    </g>
</svg>
