<?xml version='1.0' encoding='ascii'?>
<svg xmlns="http://www.w3.org/2000/svg" version="1.1" width="1080" height="1080">
    <g id="View Layer_LineSet" xmlns:inkscape="http://www.inkscape.org/namespaces/inkscape" inkscape:groupmode="lineset" inkscape:label="View Layer_LineSet">
        <g xmlns:inkscape="http://www.inkscape.org/namespaces/inkscape" inkscape:groupmode="layer" id="strokes" inkscape:label="strokes">
            <path fill="none" stroke-width="3.0" stroke-linecap="butt" stroke-opacity="1.0" stroke="rgb(0, 0, 0)" stroke-linejoin="miter" d=" M 472.361, 381.919 475.310, 381.311 478.796, 380.948 482.866, 380.793 483.788, 380.701 484.641, 380.565 485.423, 380.368 486.132, 380.094 486.764, 379.726 487.318, 379.249 487.789, 378.647 488.176, 377.902 488.396, 377.242 488.477, 376.999 488.687, 375.921 488.805, 374.651 488.828, 373.175 488.769, 371.988 488.632, 370.870 488.421, 369.821 488.136, 368.843 487.781, 367.937 487.358, 367.104 486.869, 366.346 486.316, 365.662 485.703, 365.055 485.031, 364.525 484.302, 364.074 483.520, 363.702 479.935, 362.264 476.017, 360.757 471.847, 359.199 467.503, 357.608 463.062, 356.002 458.597, 354.399 454.181, 352.814 449.885, 351.263 445.777, 349.763 441.925, 348.328 438.393, 346.972 435.246, 345.710 432.090, 344.361 428.672, 342.823 425.047, 341.136 421.267, 339.338 417.385, 337.467 413.452, 335.560 409.517, 333.655 405.629, 331.787 401.837, 329.991 398.187, 328.302 394.724, 326.754 391.495, 325.382 390.925, 325.203 390.349, 325.131 389.778, 325.164 389.224, 325.302 388.699, 325.546 388.213, 325.896 387.779, 326.350 387.408, 326.910 387.110, 327.574 386.897, 328.343 386.781, 329.217 386.773, 330.196 386.876, 331.540 387.054, 332.823 387.305, 334.044 387.628, 335.207 388.019, 336.312 388.479, 337.359 389.004, 338.351 389.593, 339.287 390.244, 340.169 390.956, 340.998 391.728, 341.774 392.557, 342.499 396.115, 345.364 399.246, 348.101 401.972, 350.767 404.319, 353.421 406.311, 356.120 407.973, 358.923 409.333, 361.888 410.417, 365.073 411.254, 368.535 411.873, 372.333 412.300, 376.522 412.567, 381.158 412.968, 391.150 413.369, 401.142 413.770, 411.134 414.171, 421.126 414.572, 431.118 414.973, 441.110 415.374, 451.102 415.775, 461.094 416.176, 471.086 416.577, 481.078 416.978, 491.069 417.379, 501.061 417.780, 511.053 418.181, 521.045 418.582, 531.037 418.983, 541.029 419.384, 551.021 419.785, 561.013 420.186, 571.005 420.331, 574.614 420.431, 578.442 420.380, 581.738 420.326, 582.392 420.150, 584.521 419.712, 586.815 419.039, 588.638 418.102, 590.011 416.873, 590.954 " />
            <path fill="none" stroke-width="3.0" stroke-linecap="butt" stroke-opacity="1.0" stroke="rgb(0, 0, 0)" stroke-linejoin="miter" d=" M 584.111, 441.503 588.398, 440.377 592.958, 439.530 593.571, 439.463 597.816, 438.994 602.999, 438.801 608.532, 438.983 614.443, 439.575 620.762, 440.612 621.733, 440.830 627.517, 442.129 628.745, 442.340 630.044, 442.486 631.380, 442.547 632.723, 442.505 634.039, 442.339 635.295, 442.030 636.458, 441.558 637.495, 440.902 638.373, 440.043 639.057, 438.962 639.514, 437.638 639.711, 436.052 639.639, 434.733 639.351, 433.437 638.868, 432.172 638.211, 430.946 637.401, 429.770 636.460, 428.653 635.408, 427.602 634.267, 426.628 633.058, 425.738 632.153, 425.163 631.803, 424.941 630.521, 424.245 629.233, 423.660 621.394, 420.465 614.013, 417.515 607.025, 414.769 600.366, 412.190 594.081, 409.783 593.975, 409.743 587.793, 407.390 581.763, 405.099 575.830, 402.835 569.940, 400.566 564.041, 398.260 558.083, 395.886 552.016, 393.413 542.772, 389.600 533.528, 385.786 526.848, 383.031 526.150, 382.804 525.438, 382.692 524.728, 382.694 524.034, 382.812 523.369, 383.045 522.749, 383.395 522.187, 383.861 521.696, 384.444 521.292, 385.145 520.989, 385.964 520.799, 386.901 520.737, 387.959 520.795, 389.417 520.949, 390.814 521.196, 392.149 521.535, 393.425 521.963, 394.641 522.477, 395.800 523.076, 396.903 523.758, 397.949 524.520, 398.941 525.360, 399.880 526.276, 400.765 527.266, 401.598 529.808, 403.587 532.129, 405.565 534.230, 407.530 536.108, 409.480 537.764, 411.413 539.198, 413.326 540.408, 415.217 541.397, 417.083 542.164, 418.923 542.710, 420.735 542.878, 421.654 543.036, 422.516 543.143, 424.264 543.085, 425.362 542.917, 426.433 542.873, 426.602 542.646, 427.482 542.277, 428.512 541.818, 429.528 541.274, 430.534 540.652, 431.535 539.957, 432.533 539.197, 433.534 538.378, 434.542 537.505, 435.561 536.586, 436.594 529.876, 444.009 523.167, 451.425 516.457, 458.840 509.748, 466.255 503.039, 473.670 496.329, 481.085 489.620, 488.500 482.910, 495.915 475.964, 503.592 475.179, 504.143 474.450, 504.664 473.772, 505.145 473.137, 505.579 472.540, 505.959 471.973, 506.277 471.430, 506.525 " />
            <path fill="none" stroke-width="3.0" stroke-linecap="butt" stroke-opacity="1.0" stroke="rgb(0, 0, 0)" stroke-linejoin="miter" d=" M 471.430, 506.525 470.904, 506.695 470.390, 506.780 469.880, 506.773 469.369, 506.664 468.849, 506.447 468.404, 506.179 467.974, 505.842 467.564, 505.433 467.176, 504.951 466.816, 504.393 466.487, 503.756 466.192, 503.038 465.937, 502.237 465.725, 501.349 465.560, 500.372 465.447, 499.304 465.388, 498.141 465.144, 488.144 464.900, 478.147 464.656, 468.150 464.413, 458.153 464.169, 448.156 463.925, 438.159 463.681, 428.162 463.437, 418.165 463.193, 408.168 463.096, 404.207 463.059, 399.819 463.201, 395.989 463.558, 392.682 464.168, 389.866 465.069, 387.505 466.299, 385.565 467.897, 384.011 469.904, 382.808 472.361, 381.919 " />
            <path fill="none" stroke-width="3.0" stroke-linecap="butt" stroke-opacity="1.0" stroke="rgb(0, 0, 0)" stroke-linejoin="miter" d=" M 529.165, 649.939 520.002, 653.944 512.161, 657.370 511.632, 657.751 511.182, 658.255 510.811, 658.885 510.523, 659.644 510.317, 660.534 510.198, 661.558 510.166, 662.718 510.236, 663.650 510.421, 664.598 510.706, 665.548 511.079, 666.489 511.527, 667.409 512.039, 668.296 512.600, 669.138 513.200, 669.923 513.824, 670.640 514.461, 671.275 515.097, 671.817 515.721, 672.254 519.280, 674.420 522.773, 676.474 526.219, 678.442 529.636, 680.348 533.044, 682.218 536.462, 684.080 539.911, 685.959 543.409, 687.882 546.979, 689.876 550.640, 691.970 554.415, 694.191 558.324, 696.568 563.532, 699.847 568.749, 703.236 573.977, 706.714 579.217, 710.263 584.468, 713.863 589.733, 717.495 595.013, 721.138 600.309, 724.773 605.623, 728.380 610.957, 731.938 616.314, 735.427 621.695, 738.826 623.992, 740.180 626.106, 741.283 628.035, 742.143 629.775, 742.765 631.324, 743.159 632.679, 743.329 633.838, 743.285 634.798, 743.034 635.557, 742.583 636.112, 741.940 636.462, 741.114 636.604, 740.113 636.512, 738.694 636.161, 737.269 635.584, 735.844 634.815, 734.426 633.887, 733.023 632.834, 731.640 631.690, 730.286 630.487, 728.966 629.258, 727.687 628.038, 726.455 626.858, 725.276 625.751, 724.155 621.359, 719.758 617.357, 715.479 613.708, 711.298 610.374, 707.196 607.321, 703.153 604.513, 699.150 601.916, 695.168 599.498, 691.191 597.225, 687.200 595.066, 683.179 592.987, 679.111 590.957, 674.979 586.614, 665.971 582.271, 656.963 577.929, 647.956 573.586, 638.948 573.043, 637.822 570.233, 631.993 565.871, 622.945 561.528, 613.937 557.185, 604.929 552.842, 595.921 548.500, 586.913 544.157, 577.906 539.814, 568.898 535.472, 559.890 531.129, 550.882 529.545, 547.597 527.816, 544.011 523.474, 535.004 519.131, 525.996 514.788, 516.988 511.793, 510.776 511.044, 509.142 510.429, 507.563 509.959, 506.080 509.948, 506.046 509.600, 504.596 509.387, 503.219 509.307, 501.922 509.362, 500.709 509.551, 499.588 509.874, 498.565 510.333, 497.645 510.927, 496.836 511.658, 496.144 516.349, 492.226 519.380, 489.582 521.010, 488.161 525.655, 483.986 530.298, 479.742 534.954, 475.467 539.638, 471.201 544.365, 466.986 549.151, 462.864 554.013, 458.879 558.965, 455.073 564.026, 451.493 569.212, 448.183 572.646, 446.246 576.258, 444.467 580.072, 442.876 584.111, 441.503 " />
            <path fill="none" stroke-width="3.0" stroke-linecap="butt" stroke-opacity="1.0" stroke="rgb(0, 0, 0)" stroke-linejoin="miter" d=" M 420.326, 582.392 410.982, 585.955 401.638, 589.518 401.310, 589.643 400.746, 589.947 400.273, 590.376 399.892, 590.933 399.605, 591.619 399.414, 592.438 399.320, 593.391 399.325, 594.481 399.449, 595.399 399.727, 596.400 400.141, 597.461 400.671, 598.559 401.300, 599.672 402.009, 600.776 402.780, 601.848 403.595, 602.866 404.434, 603.807 405.281, 604.646 406.115, 605.361 406.920, 605.929 411.232, 608.532 415.192, 610.785 418.838, 612.736 422.209, 614.436 425.347, 615.937 428.293, 617.289 431.089, 618.547 433.780, 619.764 436.408, 620.994 439.018, 622.291 441.657, 623.712 444.369, 625.312 447.081, 627.049 449.842, 628.924 452.673, 630.930 455.595, 633.059 458.633, 635.303 461.810, 637.657 465.148, 640.113 468.674, 642.664 472.412, 645.306 476.387, 648.030 480.628, 650.833 485.163, 653.707 486.124, 654.247 487.093, 654.679 488.050, 654.999 488.980, 655.202 489.864, 655.282 490.686, 655.233 491.427, 655.051 492.070, 654.729 492.598, 654.262 492.992, 653.644 493.235, 652.871 493.309, 651.938 493.211, 650.643 492.968, 649.397 492.595, 648.196 492.107, 647.038 491.516, 645.919 490.839, 644.835 490.090, 643.782 489.282, 642.758 488.430, 641.758 487.549, 640.777 486.653, 639.814 485.757, 638.862 482.193, 635.204 479.193, 631.904 476.700, 628.889 474.661, 626.084 473.022, 623.419 471.731, 620.821 470.739, 618.219 469.995, 615.542 469.450, 612.720 469.053, 609.682 468.757, 606.357 468.511, 602.674 468.161, 596.388 467.843, 590.112 467.555, 583.839 467.294, 577.567 467.069, 571.638 467.056, 571.289 466.838, 565.000 466.828, 564.661 466.638, 558.695 466.453, 552.371 466.279, 546.020 466.113, 539.639 465.952, 533.223 465.793, 526.766 465.796, 525.647 465.859, 524.666 465.978, 523.817 466.149, 523.098 466.369, 522.505 466.633, 522.035 466.936, 521.683 467.275, 521.446 467.646, 521.322 468.044, 521.305 468.466, 521.393 468.906, 521.582 469.437, 521.909 469.983, 522.335 470.544, 522.862 471.120, 523.491 471.711, 524.223 472.317, 525.061 472.939, 526.005 473.575, 527.058 474.226, 528.221 474.892, 529.495 475.574, 530.882 476.270, 532.383 480.465, 541.460 484.660, 550.538 487.537, 556.764 490.282, 562.705 494.477, 571.783 498.672, 580.861 502.867, 589.938 507.062, 599.016 511.257, 608.094 515.451, 617.171 519.646, 626.249 524.122, 635.934 524.961, 637.782 525.734, 639.557 525.979, 640.149 526.439, 641.261 527.074, 642.892 527.640, 644.453 528.134, 645.943 528.556, 647.363 528.904, 648.715 529.165, 649.939 529.178, 649.998 529.375, 651.214 529.496, 652.362 529.539, 653.444 529.386, 654.686 529.069, 655.774 528.585, 656.704 527.927, 657.471 527.092, 658.071 " />
            <path fill="none" stroke-width="3.0" stroke-linecap="butt" stroke-opacity="1.0" stroke="rgb(0, 0, 0)" stroke-linejoin="miter" d=" M 416.873, 590.954 415.326, 591.486 413.433, 591.629 411.169, 591.402 408.511, 590.827 405.433, 589.925 404.440, 589.635 403.530, 589.460 402.703, 589.402 401.963, 589.462 401.310, 589.643 " />
            <path fill="none" stroke-width="3.0" stroke-linecap="butt" stroke-opacity="1.0" stroke="rgb(0, 0, 0)" stroke-linejoin="miter" d=" M 527.092, 658.071 526.075, 658.499 524.871, 658.751 523.475, 658.823 521.884, 658.710 520.094, 658.409 518.101, 657.916 515.901, 657.228 515.013, 657.030 514.193, 656.942 513.443, 656.968 512.765, 657.110 512.161, 657.370 " />
            <path fill="none" stroke-width="3.0" stroke-linecap="butt" stroke-opacity="1.0" stroke="rgb(0, 0, 0)" stroke-linejoin="miter" d=" M 485.423, 380.368 495.020, 377.558 504.617, 374.748 514.214, 371.938 523.811, 369.127 533.408, 366.317 542.931, 363.529 552.528, 360.719 562.125, 357.909 571.722, 355.099 581.319, 352.289 590.916, 349.479 598.631, 347.220 608.228, 344.410 617.825, 341.599 619.118, 341.221 619.866, 340.940 620.540, 340.572 621.135, 340.104 621.650, 339.520 622.084, 338.804 622.433, 337.941 622.696, 336.916 622.871, 335.713 622.955, 334.317 622.943, 333.198 622.847, 332.145 622.670, 331.161 622.414, 330.246 622.082, 329.401 621.676, 328.627 621.198, 327.926 620.651, 327.297 620.038, 326.743 619.361, 326.263 618.622, 325.858 617.824, 325.531 614.151, 324.282 610.135, 322.977 605.857, 321.631 601.397, 320.259 596.833, 318.875 592.244, 317.494 587.702, 316.127 583.283, 314.790 579.056, 313.493 575.091, 312.250 571.456, 311.072 568.220, 309.971 564.975, 308.788 561.465, 307.433 557.742, 305.943 553.861, 304.351 549.875, 302.693 545.834, 301.002 541.791, 299.312 537.794, 297.654 533.893, 296.062 530.134, 294.567 526.566, 293.200 523.233, 291.992 522.642, 291.839 522.040, 291.786 521.439, 291.834 520.851, 291.982 511.157, 294.436 501.462, 296.890 491.768, 299.344 482.074, 301.798 472.380, 304.252 462.686, 306.706 452.991, 309.160 443.297, 311.614 433.603, 314.068 423.909, 316.522 414.215, 318.976 404.520, 321.430 394.826, 323.884 389.224, 325.302 " />
            <path fill="none" stroke-width="3.0" stroke-linecap="butt" stroke-opacity="1.0" stroke="rgb(0, 0, 0)" stroke-linejoin="miter" d=" M 635.295, 442.030 644.734, 438.728 654.173, 435.427 663.576, 432.138 673.015, 428.836 682.454, 425.534 691.893, 422.233 701.333, 418.931 710.772, 415.629 720.211, 412.328 729.650, 409.026 739.089, 405.724 748.529, 402.423 757.968, 399.121 767.407, 395.819 771.437, 394.410 772.646, 393.926 773.733, 393.275 774.664, 392.438 775.405, 391.399 775.923, 390.139 776.184, 388.643 776.159, 387.408 775.913, 386.200 775.465, 385.028 774.839, 383.899 774.054, 382.822 773.132, 381.805 772.094, 380.853 770.962, 379.976 769.758, 379.181 768.501, 378.474 767.214, 377.864 765.917, 377.357 758.001, 374.617 750.540, 372.088 743.470, 369.738 736.727, 367.532 730.250, 365.439 723.981, 363.428 717.862, 361.468 711.838, 359.530 705.855, 357.584 699.861, 355.602 693.805, 353.558 687.638, 351.422 678.202, 348.111 668.766, 344.801 662.016, 342.432 661.302, 342.241 660.570, 342.157 659.834, 342.182 659.110, 342.315 649.531, 345.187 639.953, 348.058 630.374, 350.930 620.795, 353.802 611.216, 356.674 601.638, 359.546 594.962, 361.547 585.383, 364.419 575.805, 367.291 566.226, 370.162 556.647, 373.034 547.068, 375.906 542.919, 377.150 533.340, 380.022 524.034, 382.812 " />
            <path fill="none" stroke-width="3.0" stroke-linecap="butt" stroke-opacity="1.0" stroke="rgb(0, 0, 0)" stroke-linejoin="miter" d=" M 594.962, 361.547 595.004, 360.344 595.311, 356.711 595.822, 353.568 596.576, 350.881 597.614, 348.617 598.631, 347.220 " />
            <path fill="none" stroke-width="3.0" stroke-linecap="butt" stroke-opacity="1.0" stroke="rgb(0, 0, 0)" stroke-linejoin="miter" d=" M 634.798, 743.034 643.699, 738.475 652.600, 733.917 661.500, 729.359 670.401, 724.800 679.302, 720.242 688.202, 715.684 697.103, 711.125 706.003, 706.567 714.904, 702.009 723.805, 697.450 732.705, 692.892 741.606, 688.334 750.507, 683.775 759.561, 679.139 760.361, 678.671 760.958, 678.031 761.350, 677.226 761.534, 676.266 761.493, 674.921 761.185, 673.582 760.645, 672.254 759.905, 670.944 759.001, 669.655 757.968, 668.392 756.838, 667.160 755.646, 665.964 754.427, 664.808 753.214, 663.697 752.041, 662.633 750.941, 661.622 746.574, 657.654 742.604, 653.779 738.993, 649.979 735.704, 646.238 732.703, 642.538 729.953, 638.863 727.422, 635.199 725.074, 631.530 722.877, 627.840 720.797, 624.116 718.803, 620.342 716.863, 616.506 712.424, 607.545 707.984, 598.585 703.545, 589.624 699.106, 580.663 694.667, 571.703 690.228, 562.742 685.788, 553.781 681.349, 544.821 676.910, 535.860 672.471, 526.899 668.032, 517.939 663.593, 508.978 659.153, 500.017 654.714, 491.057 650.275, 482.096 645.836, 473.135 641.226, 463.829 640.512, 462.307 639.937, 460.832 639.497, 459.411 639.195, 458.048 639.029, 456.749 638.999, 455.521 639.105, 454.368 639.347, 453.297 639.725, 452.314 640.240, 451.424 640.892, 450.634 641.680, 449.949 646.719, 446.056 651.728, 442.029 656.721, 437.901 661.712, 433.709 663.576, 432.138 " />
            <path fill="none" stroke-width="3.0" stroke-linecap="butt" stroke-opacity="1.0" stroke="rgb(0, 0, 0)" stroke-linejoin="miter" d=" M 491.427, 655.051 500.609, 651.091 509.792, 647.130 518.974, 643.170 525.979, 640.149 " />
        </g>
    </g>
</svg>
