<?xml version='1.0' encoding='ascii'?>
<svg xmlns="http://www.w3.org/2000/svg" version="1.1" width="1080" height="1080">
    <g id="View Layer_LineSet" xmlns:inkscape="http://www.inkscape.org/namespaces/inkscape" inkscape:groupmode="lineset" inkscape:label="View Layer_LineSet">
        <g xmlns:inkscape="http://www.inkscape.org/namespaces/inkscape" inkscape:groupmode="layer" id="strokes" inkscape:label="strokes">
            <path fill="none" stroke-width="3.0" stroke-linecap="butt" stroke-opacity="1.0" stroke="rgb(0, 0, 0)" stroke-linejoin="miter" d=" M 474.023, 381.814 477.012, 381.195 480.544, 380.819 484.668, 380.650 485.601, 380.555 486.465, 380.416 487.258, 380.216 487.976, 379.939 488.617, 379.569 489.178, 379.091 489.657, 378.486 490.049, 377.740 490.308, 376.973 490.354, 376.836 490.568, 375.757 490.689, 374.488 490.713, 373.011 490.654, 371.825 490.517, 370.708 490.303, 369.660 490.016, 368.683 489.657, 367.779 489.229, 366.947 488.734, 366.190 488.175, 365.509 487.554, 364.904 486.873, 364.377 486.136, 363.928 485.344, 363.559 481.713, 362.134 477.745, 360.641 473.521, 359.097 469.121, 357.521 464.622, 355.931 460.098, 354.343 455.625, 352.773 451.272, 351.237 447.110, 349.751 443.206, 348.329 439.628, 346.985 436.439, 345.733 433.240, 344.394 429.777, 342.868 426.103, 341.193 422.273, 339.407 418.339, 337.549 414.352, 335.655 410.364, 333.762 406.423, 331.906 402.579, 330.122 398.879, 328.444 395.369, 326.907 392.095, 325.545 391.517, 325.368 390.932, 325.297 390.353, 325.332 389.792, 325.473 389.259, 325.719 388.766, 326.070 388.325, 326.526 387.948, 327.087 387.645, 327.753 387.429, 328.523 387.311, 329.398 387.301, 330.377 387.405, 331.721 387.585, 333.004 387.838, 334.225 388.164, 335.387 388.561, 336.491 389.025, 337.538 389.557, 338.528 390.154, 339.462 390.814, 340.343 391.536, 341.169 392.317, 341.944 393.157, 342.666 396.763, 345.520 399.936, 348.247 402.699, 350.905 405.077, 353.552 407.094, 356.245 408.778, 359.043 410.154, 362.004 411.251, 365.186 412.097, 368.647 412.721, 372.443 413.151, 376.632 413.418, 381.268 413.816, 391.260 414.214, 401.253 414.613, 411.245 415.011, 421.237 415.410, 431.229 415.808, 441.221 416.206, 451.213 416.605, 461.205 417.003, 471.197 417.401, 481.189 417.800, 491.181 418.198, 501.173 418.596, 511.165 418.995, 521.157 419.393, 531.149 419.791, 541.141 420.190, 551.134 420.588, 561.126 420.987, 571.118 421.131, 574.752 421.229, 578.581 421.175, 581.878 421.132, 582.384 420.939, 584.664 420.494, 586.960 419.810, 588.787 418.859, 590.165 417.612, 591.114 " />
            <path fill="none" stroke-width="3.0" stroke-linecap="butt" stroke-opacity="1.0" stroke="rgb(0, 0, 0)" stroke-linejoin="miter" d=" M 583.038, 442.339 587.125, 440.950 591.464, 439.808 593.893, 439.353 596.078, 438.944 600.994, 438.389 606.237, 438.175 611.833, 438.336 617.813, 438.904 622.836, 439.699 624.203, 439.915 631.033, 441.404 632.275, 441.609 633.588, 441.750 634.940, 441.806 636.297, 441.758 637.628, 441.587 638.898, 441.274 640.075, 440.797 641.124, 440.138 642.012, 439.277 642.705, 438.194 643.168, 436.869 643.369, 435.284 643.296, 433.968 643.006, 432.674 642.519, 431.411 641.855, 430.190 641.038, 429.018 640.087, 427.906 639.024, 426.860 637.871, 425.891 636.650, 425.007 635.380, 424.216 635.332, 424.190 634.084, 423.526 632.783, 422.946 624.857, 419.785 617.394, 416.865 610.328, 414.149 603.594, 411.598 597.130, 409.176 594.432, 408.172 590.878, 406.849 584.778, 404.582 578.776, 402.342 572.818, 400.096 566.850, 397.814 560.821, 395.463 554.683, 393.014 545.410, 389.270 536.138, 385.525 529.211, 382.728 528.504, 382.504 527.784, 382.395 527.065, 382.400 526.362, 382.520 525.689, 382.755 525.060, 383.107 524.490, 383.575 523.993, 384.160 523.584, 384.862 523.275, 385.681 523.082, 386.620 523.019, 387.677 523.076, 389.135 523.231, 390.530 523.481, 391.864 523.823, 393.138 524.255, 394.352 524.775, 395.509 525.381, 396.609 526.070, 397.653 526.841, 398.641 527.690, 399.576 528.617, 400.458 529.619, 401.287 532.191, 403.265 534.540, 405.234 536.665, 407.190 538.566, 409.132 540.241, 411.058 541.690, 412.964 542.709, 414.533 542.915, 414.850 543.914, 416.712 544.689, 418.548 545.240, 420.357 545.568, 422.135 545.676, 423.882 545.616, 424.980 545.445, 426.051 545.170, 427.100 544.796, 428.132 544.330, 429.149 543.779, 430.157 543.148, 431.159 542.694, 431.805 542.444, 432.160 541.674, 433.164 540.844, 434.174 539.959, 435.196 539.027, 436.233 532.281, 443.614 525.534, 450.995 518.788, 458.376 512.041, 465.758 505.294, 473.139 498.548, 480.520 491.801, 487.902 485.055, 495.283 478.308, 502.664 477.576, 503.465 476.779, 504.020 476.041, 504.544 475.353, 505.028 474.710, 505.465 474.104, 505.848 473.529, 506.168 472.979, 506.418 " />
            <path fill="none" stroke-width="3.0" stroke-linecap="butt" stroke-opacity="1.0" stroke="rgb(0, 0, 0)" stroke-linejoin="miter" d=" M 472.979, 506.418 472.446, 506.591 471.925, 506.678 471.409, 506.672 470.890, 506.566 470.364, 506.352 469.913, 506.085 469.478, 505.750 469.062, 505.343 468.670, 504.863 468.305, 504.306 467.972, 503.671 467.675, 502.954 467.417, 502.154 467.203, 501.267 467.037, 500.291 466.922, 499.223 466.864, 498.061 466.625, 488.063 466.386, 478.066 466.147, 468.069 465.908, 458.072 465.669, 448.075 465.429, 438.078 465.190, 428.081 464.951, 418.083 464.712, 408.086 464.618, 404.135 464.584, 399.748 464.730, 395.916 465.094, 392.608 465.715, 389.790 466.630, 387.426 467.878, 385.482 469.499, 383.922 471.533, 382.711 474.023, 381.814 " />
            <path fill="none" stroke-width="3.0" stroke-linecap="butt" stroke-opacity="1.0" stroke="rgb(0, 0, 0)" stroke-linejoin="miter" d=" M 531.313, 649.388 522.179, 653.458 514.118, 657.049 513.583, 657.433 513.127, 657.939 512.751, 658.571 512.457, 659.332 512.249, 660.222 512.127, 661.246 512.094, 662.406 512.165, 663.338 512.350, 664.285 512.638, 665.233 513.015, 666.172 513.469, 667.089 513.986, 667.973 514.554, 668.812 515.161, 669.594 515.792, 670.307 516.437, 670.939 517.081, 671.477 517.712, 671.910 521.315, 674.057 524.851, 676.092 528.338, 678.040 531.797, 679.927 535.246, 681.778 538.705, 683.621 542.195, 685.480 545.736, 687.383 549.348, 689.357 553.053, 691.430 556.872, 693.629 560.827, 695.983 566.095, 699.232 571.374, 702.590 576.662, 706.037 581.961, 709.554 587.273, 713.123 592.597, 716.722 597.936, 720.333 603.291, 723.936 608.665, 727.509 614.058, 731.034 619.473, 734.489 624.913, 737.854 627.235, 739.194 629.373, 740.284 631.323, 741.131 633.082, 741.743 634.649, 742.127 636.019, 742.290 637.191, 742.239 638.162, 741.982 638.930, 741.527 639.492, 740.882 639.846, 740.054 639.990, 739.053 639.898, 737.637 639.544, 736.215 638.962, 734.795 638.186, 733.382 637.249, 731.986 636.185, 730.611 635.028, 729.264 633.813, 727.952 632.572, 726.681 631.338, 725.457 630.146, 724.286 629.027, 723.173 624.589, 718.804 620.544, 714.552 616.856, 710.395 613.487, 706.315 610.402, 702.292 607.564, 698.307 604.941, 694.343 602.497, 690.382 600.201, 686.407 598.019, 682.401 595.919, 678.346 593.868, 674.229 589.478, 665.244 585.088, 656.259 580.698, 647.274 576.308, 638.289 575.599, 636.838 572.717, 630.941 568.327, 621.956 568.255, 621.808 563.865, 612.823 559.474, 603.838 555.084, 594.853 550.694, 585.868 546.304, 576.884 541.914, 567.899 537.524, 558.914 533.134, 549.929 531.454, 546.491 530.375, 544.283 525.985, 535.298 521.595, 526.313 517.204, 517.328 513.864, 510.491 513.106, 508.861 512.485, 507.286 511.999, 505.771 511.937, 505.516 511.648, 504.323 511.433, 502.947 511.353, 501.650 511.409, 500.438 511.601, 499.316 511.930, 498.292 512.395, 497.371 512.998, 496.559 513.738, 495.863 518.492, 491.926 522.257, 488.672 523.216, 487.843 527.923, 483.650 532.627, 479.388 537.345, 475.095 542.090, 470.811 546.879, 466.579 551.727, 462.440 556.651, 458.436 561.667, 454.613 566.792, 451.014 572.044, 447.685 575.520, 445.736 579.177, 443.944 583.038, 442.339 " />
            <path fill="none" stroke-width="3.0" stroke-linecap="butt" stroke-opacity="1.0" stroke="rgb(0, 0, 0)" stroke-linejoin="miter" d=" M 421.132, 582.384 411.810, 586.004 402.488, 589.624 401.831, 589.879 401.259, 590.186 400.779, 590.617 400.392, 591.176 400.101, 591.864 399.906, 592.684 399.810, 593.638 399.814, 594.728 399.939, 595.647 400.221, 596.647 400.639, 597.706 401.176, 598.802 401.813, 599.912 402.531, 601.013 403.312, 602.082 404.137, 603.097 404.988, 604.033 405.846, 604.869 406.691, 605.580 407.506, 606.144 411.877, 608.727 415.891, 610.960 419.586, 612.894 423.003, 614.578 426.183, 616.063 429.169, 617.401 432.002, 618.645 434.729, 619.849 437.392, 621.065 440.037, 622.350 442.710, 623.757 445.458, 625.344 448.206, 627.068 451.003, 628.929 453.870, 630.920 456.830, 633.034 459.907, 635.263 463.124, 637.601 466.506, 640.040 470.076, 642.573 473.861, 645.195 477.888, 647.899 482.182, 650.679 486.774, 653.530 487.748, 654.064 488.728, 654.491 489.698, 654.806 490.640, 655.004 491.535, 655.080 492.368, 655.027 493.119, 654.840 493.771, 654.514 494.306, 654.045 494.706, 653.425 494.953, 652.651 495.028, 651.717 494.930, 650.423 494.685, 649.178 494.308, 647.980 493.814, 646.824 493.217, 645.708 492.532, 644.628 491.773, 643.579 490.956, 642.559 490.094, 641.563 489.202, 640.588 488.295, 639.629 487.388, 638.682 483.781, 635.042 480.744, 631.758 478.220, 628.755 476.156, 625.962 474.497, 623.305 473.192, 620.713 472.189, 618.116 471.437, 615.443 470.887, 612.624 470.488, 609.588 470.190, 606.264 469.943, 602.582 469.594, 596.297 469.277, 590.022 468.991, 583.751 468.731, 577.480 468.495, 571.202 468.493, 571.170 468.279, 564.914 468.253, 564.084 468.082, 558.611 467.899, 552.287 467.727, 545.937 467.564, 539.557 467.407, 533.141 467.251, 526.684 467.255, 525.566 467.319, 524.584 467.441, 523.735 467.615, 523.015 467.838, 522.421 468.105, 521.949 468.413, 521.596 468.757, 521.358 469.133, 521.232 469.536, 521.213 469.964, 521.300 470.410, 521.487 470.948, 521.811 471.500, 522.235 472.068, 522.759 472.652, 523.385 473.250, 524.115 473.863, 524.950 474.492, 525.892 475.136, 526.942 475.795, 528.101 476.469, 529.372 477.158, 530.756 477.862, 532.254 482.104, 541.310 486.346, 550.365 488.998, 556.028 491.810, 562.030 496.051, 571.086 500.293, 580.142 504.535, 589.198 508.776, 598.254 513.018, 607.310 517.260, 616.365 521.502, 625.421 525.743, 634.477 526.249, 635.556 527.097, 637.399 527.878, 639.170 528.016, 639.498 528.590, 640.869 529.233, 642.496 529.804, 644.054 530.303, 645.541 530.729, 646.959 531.081, 648.308 531.313, 649.388 531.357, 649.589 531.556, 650.803 531.678, 651.951 531.720, 653.032 531.564, 654.274 531.242, 655.364 530.751, 656.296 530.085, 657.066 529.239, 657.671 " />
            <path fill="none" stroke-width="3.0" stroke-linecap="butt" stroke-opacity="1.0" stroke="rgb(0, 0, 0)" stroke-linejoin="miter" d=" M 417.612, 591.114 416.042, 591.654 414.123, 591.806 411.828, 591.591 409.132, 591.028 406.012, 590.140 405.005, 589.856 404.082, 589.685 403.244, 589.631 402.494, 589.695 401.831, 589.879 " />
            <path fill="none" stroke-width="3.0" stroke-linecap="butt" stroke-opacity="1.0" stroke="rgb(0, 0, 0)" stroke-linejoin="miter" d=" M 529.239, 657.671 528.208, 658.104 526.989, 658.362 525.575, 658.441 523.965, 658.337 522.152, 658.046 520.134, 657.564 517.906, 656.887 517.007, 656.694 516.177, 656.611 515.417, 656.640 514.730, 656.786 514.118, 657.049 " />
            <path fill="none" stroke-width="3.0" stroke-linecap="butt" stroke-opacity="1.0" stroke="rgb(0, 0, 0)" stroke-linejoin="miter" d=" M 487.258, 380.216 496.840, 377.356 506.423, 374.495 516.005, 371.635 525.587, 368.775 535.169, 365.915 542.753, 363.652 552.335, 360.792 561.917, 357.931 571.500, 355.071 581.082, 352.211 590.664, 349.351 598.898, 346.894 608.480, 344.033 618.062, 341.173 619.681, 340.690 620.436, 340.407 621.116, 340.038 621.716, 339.568 622.237, 338.982 622.674, 338.266 623.026, 337.402 623.292, 336.377 623.468, 335.175 623.553, 333.780 623.540, 332.662 623.443, 331.611 623.265, 330.628 623.006, 329.715 622.671, 328.872 622.261, 328.100 621.779, 327.400 621.228, 326.774 620.609, 326.222 619.925, 325.745 619.179, 325.343 618.373, 325.018 614.667, 323.782 610.613, 322.492 606.294, 321.161 601.792, 319.804 597.185, 318.435 592.551, 317.069 587.966, 315.718 583.503, 314.396 579.235, 313.113 575.231, 311.883 571.561, 310.718 568.293, 309.627 565.016, 308.454 561.470, 307.112 557.710, 305.633 553.790, 304.055 549.763, 302.410 545.682, 300.732 541.597, 299.055 537.560, 297.410 533.618, 295.831 529.820, 294.347 526.215, 292.992 522.848, 291.794 522.250, 291.643 521.642, 291.592 521.034, 291.642 520.440, 291.791 510.757, 294.287 501.073, 296.784 491.390, 299.280 481.707, 301.777 472.023, 304.273 462.340, 306.769 452.656, 309.266 442.973, 311.762 433.290, 314.259 423.606, 316.755 413.923, 319.252 404.240, 321.748 394.556, 324.245 389.792, 325.473 " />
            <path fill="none" stroke-width="3.0" stroke-linecap="butt" stroke-opacity="1.0" stroke="rgb(0, 0, 0)" stroke-linejoin="miter" d=" M 638.898, 441.274 648.315, 437.910 657.733, 434.547 662.976, 432.674 672.393, 429.311 681.811, 425.947 691.228, 422.584 700.646, 419.221 710.063, 415.857 719.480, 412.494 728.898, 409.130 738.315, 405.767 747.733, 402.404 757.150, 399.040 766.567, 395.677 773.277, 393.280 774.495, 392.793 775.590, 392.139 776.528, 391.300 777.274, 390.260 777.796, 389.002 778.058, 387.507 778.033, 386.274 777.785, 385.069 777.334, 383.901 776.703, 382.777 775.912, 381.705 774.983, 380.692 773.938, 379.746 772.797, 378.875 771.583, 378.085 770.318, 377.384 769.021, 376.779 767.714, 376.278 759.738, 373.570 752.220, 371.072 745.095, 368.750 738.299, 366.571 731.771, 364.504 725.452, 362.517 719.283, 360.581 713.210, 358.666 707.178, 356.744 701.134, 354.785 695.028, 352.764 688.808, 350.652 679.353, 347.398 669.897, 344.144 662.966, 341.759 662.246, 341.570 661.507, 341.489 660.765, 341.516 660.034, 341.651 650.471, 344.575 640.908, 347.498 631.345, 350.422 621.782, 353.346 612.219, 356.270 602.656, 359.193 595.286, 361.447 585.723, 364.371 576.160, 367.294 566.597, 370.218 557.034, 373.142 547.471, 376.066 542.741, 377.512 533.178, 380.436 526.362, 382.520 " />
            <path fill="none" stroke-width="3.0" stroke-linecap="butt" stroke-opacity="1.0" stroke="rgb(0, 0, 0)" stroke-linejoin="miter" d=" M 595.286, 361.447 595.341, 359.879 595.651, 356.248 596.166, 353.105 596.927, 350.418 597.975, 348.152 598.898, 346.894 " />
            <path fill="none" stroke-width="3.0" stroke-linecap="butt" stroke-opacity="1.0" stroke="rgb(0, 0, 0)" stroke-linejoin="miter" d=" M 638.162, 741.982 647.024, 737.348 655.886, 732.715 664.747, 728.081 673.609, 723.448 682.471, 718.814 691.332, 714.181 700.194, 709.547 709.056, 704.913 717.918, 700.280 726.779, 695.646 735.641, 691.013 744.503, 686.379 753.364, 681.745 761.340, 677.575 762.146, 677.104 762.748, 676.462 763.143, 675.657 763.328, 674.697 763.287, 673.354 762.976, 672.019 762.431, 670.697 761.686, 669.392 760.775, 668.110 759.733, 666.855 758.595, 665.631 757.394, 664.443 756.166, 663.296 754.943, 662.192 753.761, 661.136 752.652, 660.133 748.251, 656.194 744.249, 652.345 740.610, 648.570 737.295, 644.851 734.270, 641.172 731.498, 637.517 728.945, 633.871 726.578, 630.219 724.363, 626.546 722.267, 622.837 720.256, 619.079 718.300, 615.258 713.817, 606.319 709.334, 597.380 704.852, 588.440 700.369, 579.501 695.887, 570.562 691.404, 561.623 686.922, 552.684 682.439, 543.745 677.957, 534.806 673.474, 525.867 668.992, 516.928 664.509, 507.989 660.026, 499.050 655.544, 490.111 651.061, 481.172 646.579, 472.233 642.000, 463.103 641.281, 461.585 640.700, 460.114 640.256, 458.695 639.951, 457.335 639.783, 456.038 639.753, 454.811 639.860, 453.659 640.104, 452.588 640.486, 451.604 641.005, 450.713 641.662, 449.921 642.458, 449.234 647.541, 445.326 652.595, 441.282 657.633, 437.140 662.667, 432.934 662.976, 432.674 " />
            <path fill="none" stroke-width="3.0" stroke-linecap="butt" stroke-opacity="1.0" stroke="rgb(0, 0, 0)" stroke-linejoin="miter" d=" M 493.119, 654.840 502.273, 650.815 511.428, 646.791 520.582, 642.766 528.016, 639.498 " />
        </g>
    </g>
</svg>
