<?xml version='1.0' encoding='ascii'?>
<svg xmlns="http://www.w3.org/2000/svg" version="1.1" width="1080" height="1080">
    <g id="View Layer_LineSet" xmlns:inkscape="http://www.inkscape.org/namespaces/inkscape" inkscape:groupmode="lineset" inkscape:label="View Layer_LineSet">
        <g xmlns:inkscape="http://www.inkscape.org/namespaces/inkscape" inkscape:groupmode="layer" id="strokes" inkscape:label="strokes">
            <path fill="none" stroke-width="3.0" stroke-linecap="butt" stroke-opacity="1.0" stroke="rgb(0, 0, 0)" stroke-linejoin="miter" d=" M 475.496, 381.716 478.519, 381.088 482.092, 380.700 486.263, 380.518 487.207, 380.420 488.081, 380.278 488.883, 380.076 489.610, 379.797 490.258, 379.425 490.826, 378.945 491.310, 378.339 491.708, 377.592 492.003, 376.725 492.017, 376.687 492.234, 375.608 492.357, 374.338 492.382, 372.862 492.324, 371.676 492.186, 370.559 491.970, 369.512 491.680, 368.536 491.318, 367.633 490.886, 366.803 490.386, 366.048 489.821, 365.368 489.193, 364.766 488.505, 364.240 487.760, 363.794 486.959, 363.427 483.288, 362.014 479.275, 360.533 475.005, 359.002 470.555, 357.440 466.005, 355.864 461.430, 354.289 456.906, 352.733 452.503, 351.211 448.293, 349.737 444.345, 348.326 440.725, 346.993 437.499, 345.751 434.263, 344.421 430.760, 342.905 427.043, 341.241 423.168, 339.466 419.188, 337.619 415.154, 335.736 411.119, 333.855 407.132, 332.009 403.242, 330.236 399.498, 328.569 395.945, 327.042 392.632, 325.688 392.047, 325.513 391.455, 325.444 390.869, 325.481 390.300, 325.623 389.760, 325.871 389.262, 326.223 388.815, 326.681 388.433, 327.243 388.126, 327.910 387.906, 328.681 387.786, 329.556 387.775, 330.536 387.879, 331.881 388.060, 333.163 388.316, 334.384 388.646, 335.546 389.046, 336.649 389.516, 337.694 390.053, 338.683 390.657, 339.616 391.325, 340.495 392.055, 341.320 392.845, 342.092 393.695, 342.812 397.344, 345.656 400.554, 348.375 403.349, 351.026 405.754, 353.666 407.794, 356.354 409.495, 359.147 410.886, 362.105 411.995, 365.284 412.848, 368.743 413.477, 372.539 413.910, 376.727 414.176, 381.364 414.572, 391.356 414.968, 401.348 415.364, 411.341 415.760, 421.333 416.156, 431.325 416.552, 441.317 416.948, 451.309 417.344, 461.301 417.740, 471.294 418.136, 481.286 418.532, 491.278 418.928, 501.270 419.324, 511.262 419.720, 521.254 420.116, 531.246 420.512, 541.239 420.908, 551.231 421.304, 561.223 421.700, 571.215 421.845, 574.872 421.941, 578.701 421.883, 581.999 421.851, 582.369 421.643, 584.787 421.191, 587.085 420.497, 588.916 419.533, 590.298 418.271, 591.253 " />
            <path fill="none" stroke-width="3.0" stroke-linecap="butt" stroke-opacity="1.0" stroke="rgb(0, 0, 0)" stroke-linejoin="miter" d=" M 585.654, 441.853 589.785, 440.451 594.167, 439.295 594.168, 439.295 598.830, 438.415 603.796, 437.843 609.091, 437.611 614.744, 437.752 620.782, 438.299 623.746, 438.752 627.234, 439.286 634.131, 440.750 635.385, 440.951 636.711, 441.087 638.075, 441.138 639.446, 441.086 640.790, 440.910 642.072, 440.592 643.261, 440.112 644.321, 439.450 645.218, 438.586 645.918, 437.502 646.387, 436.177 646.590, 434.593 646.518, 433.278 646.226, 431.986 645.734, 430.727 645.066, 429.509 644.241, 428.341 643.281, 427.233 642.209, 426.192 641.046, 425.228 639.813, 424.349 638.532, 423.563 638.085, 423.328 637.224, 422.878 635.911, 422.303 627.909, 419.172 620.375, 416.280 613.240, 413.589 606.440, 411.063 599.913, 408.665 594.732, 406.774 593.599, 406.360 587.439, 404.115 581.376, 401.896 575.358, 399.672 569.329, 397.410 563.239, 395.080 557.037, 392.653 547.741, 388.969 538.444, 385.285 531.299, 382.454 530.585, 382.232 529.857, 382.125 529.130, 382.132 528.419, 382.254 527.739, 382.492 527.103, 382.845 526.527, 383.315 526.024, 383.901 525.610, 384.604 525.297, 385.425 525.102, 386.363 525.037, 387.420 525.094, 388.878 525.249, 390.272 525.501, 391.604 525.845, 392.877 526.282, 394.090 526.807, 395.244 527.418, 396.342 528.114, 397.383 528.892, 398.369 529.751, 399.300 530.687, 400.178 531.699, 401.004 534.298, 402.973 536.671, 404.933 538.818, 406.882 540.737, 408.817 542.429, 410.736 542.550, 410.893 543.893, 412.637 545.129, 414.517 546.138, 416.375 546.919, 418.208 547.475, 420.014 547.806, 421.791 547.913, 423.536 547.852, 424.633 547.679, 425.705 547.400, 426.755 547.021, 427.787 546.550, 428.806 545.992, 429.815 545.353, 430.819 544.641, 431.822 543.862, 432.828 543.022, 433.841 542.531, 434.403 542.128, 434.865 541.185, 435.904 534.406, 443.256 527.628, 450.609 520.850, 457.961 514.071, 465.313 507.293, 472.665 500.514, 480.017 493.736, 487.369 486.957, 494.721 480.179, 502.073 479.004, 503.347 478.198, 503.906 477.450, 504.432 476.754, 504.919 476.103, 505.358 475.491, 505.743 474.909, 506.066 474.352, 506.318 " />
            <path fill="none" stroke-width="3.0" stroke-linecap="butt" stroke-opacity="1.0" stroke="rgb(0, 0, 0)" stroke-linejoin="miter" d=" M 474.352, 506.318 473.813, 506.493 473.286, 506.582 472.764, 506.579 472.239, 506.474 471.707, 506.262 471.251, 505.997 470.811, 505.664 470.391, 505.259 469.995, 504.780 469.626, 504.224 469.290, 503.590 468.989, 502.875 468.729, 502.075 468.513, 501.189 468.346, 500.214 468.231, 499.146 468.172, 497.984 467.938, 487.987 467.703, 477.990 467.468, 467.993 467.233, 457.995 466.998, 447.998 466.764, 438.001 466.529, 428.004 466.294, 418.006 466.059, 408.009 465.967, 404.067 465.935, 399.680 466.086, 395.848 466.457, 392.539 467.087, 389.718 468.014, 387.351 469.278, 385.403 470.919, 383.838 472.977, 382.621 475.496, 381.716 " />
            <path fill="none" stroke-width="3.0" stroke-linecap="butt" stroke-opacity="1.0" stroke="rgb(0, 0, 0)" stroke-linejoin="miter" d=" M 533.211, 648.887 524.103, 653.016 515.850, 656.756 515.309, 657.142 514.847, 657.651 514.466, 658.285 514.169, 659.046 513.958, 659.938 513.834, 660.962 513.799, 662.122 513.870, 663.054 514.057, 663.999 514.348, 664.946 514.728, 665.883 515.186, 666.798 515.709, 667.679 516.283, 668.515 516.895, 669.294 517.533, 670.004 518.184, 670.632 518.835, 671.168 519.473, 671.598 523.114, 673.727 526.687, 675.744 530.212, 677.675 533.707, 679.545 537.192, 681.379 540.688, 683.204 544.214, 685.046 547.791, 686.931 551.441, 688.887 555.183, 690.941 559.042, 693.121 563.037, 695.454 568.359, 698.676 573.690, 702.006 579.031, 705.425 584.383, 708.914 589.747, 712.454 595.123, 716.025 600.514, 719.607 605.921, 723.180 611.346, 726.724 616.791, 730.219 622.258, 733.644 627.749, 736.979 630.094, 738.305 632.251, 739.383 634.220, 740.220 635.996, 740.823 637.578, 741.198 638.961, 741.354 640.145, 741.297 641.125, 741.035 641.901, 740.577 642.469, 739.929 642.827, 739.100 642.973, 738.099 642.881, 736.685 642.525, 735.266 641.938, 733.850 641.155, 732.443 640.210, 731.052 639.137, 729.683 637.970, 728.344 636.743, 727.039 635.491, 725.776 634.246, 724.559 633.043, 723.395 631.914, 722.288 627.435, 717.945 623.353, 713.716 619.631, 709.581 616.232, 705.520 613.118, 701.515 610.255, 697.548 607.607, 693.599 605.142, 689.653 602.826, 685.691 600.624, 681.698 598.505, 677.657 596.437, 673.551 592.005, 664.587 587.573, 655.622 583.141, 646.658 578.709, 637.694 577.847, 635.949 574.901, 629.990 570.469, 621.026 570.348, 620.781 565.917, 611.817 561.485, 602.853 557.053, 593.888 552.621, 584.924 548.189, 575.960 543.758, 566.995 539.326, 558.031 534.894, 549.067 533.127, 545.492 532.536, 544.297 528.105, 535.333 523.673, 526.369 519.241, 517.404 515.695, 510.232 514.931, 508.605 514.303, 507.032 513.813, 505.520 513.686, 505.001 513.459, 504.074 513.242, 502.699 513.163, 501.403 513.220, 500.190 513.416, 499.068 513.748, 498.043 514.220, 497.120 514.829, 496.306 515.578, 495.608 520.388, 491.654 524.852, 487.823 525.166, 487.554 529.927, 483.345 534.686, 479.066 539.457, 474.757 544.256, 470.458 549.100, 466.210 554.003, 462.055 558.982, 458.035 564.053, 454.196 569.234, 450.581 574.543, 447.235 578.057, 445.274 581.753, 443.471 585.654, 441.853 " />
            <path fill="none" stroke-width="3.0" stroke-linecap="butt" stroke-opacity="1.0" stroke="rgb(0, 0, 0)" stroke-linejoin="miter" d=" M 421.851, 582.369 412.550, 586.040 403.248, 589.712 402.298, 590.086 401.719, 590.396 401.233, 590.830 400.841, 591.390 400.545, 592.080 400.347, 592.901 400.249, 593.856 400.253, 594.947 400.379, 595.864 400.663, 596.864 401.086, 597.922 401.629, 599.016 402.272, 600.124 402.999, 601.222 403.789, 602.288 404.623, 603.299 405.484, 604.232 406.351, 605.065 407.207, 605.773 408.031, 606.333 412.454, 608.897 416.514, 611.114 420.253, 613.031 423.710, 614.701 426.928, 616.172 429.948, 617.497 432.815, 618.729 435.573, 619.920 438.267, 621.125 440.943, 622.398 443.647, 623.794 446.426, 625.368 449.205, 627.080 452.033, 628.928 454.933, 630.907 457.927, 633.008 461.038, 635.223 464.291, 637.546 467.710, 639.970 471.320, 642.487 475.147, 645.091 479.217, 647.776 483.559, 650.536 488.201, 653.365 489.186, 653.895 490.177, 654.318 491.158, 654.629 492.110, 654.822 493.016, 654.893 493.858, 654.836 494.617, 654.646 495.277, 654.318 495.818, 653.845 496.223, 653.224 496.473, 652.449 496.550, 651.515 496.452, 650.221 496.205, 648.978 495.825, 647.781 495.326, 646.628 494.723, 645.515 494.031, 644.438 493.264, 643.393 492.438, 642.376 491.567, 641.385 490.666, 640.413 489.750, 639.458 488.832, 638.516 485.187, 634.893 482.118, 631.622 479.567, 628.631 477.481, 625.847 475.805, 623.197 474.487, 620.612 473.474, 618.019 472.716, 615.350 472.161, 612.533 471.759, 609.498 471.460, 606.176 471.214, 602.494 470.865, 596.211 470.549, 589.938 470.263, 583.668 470.005, 577.397 469.770, 571.121 469.757, 570.740 469.557, 564.833 469.517, 563.556 469.361, 558.531 469.181, 552.207 469.012, 545.858 468.852, 539.478 468.697, 533.063 468.544, 526.607 468.548, 525.488 468.614, 524.506 468.738, 523.656 468.915, 522.936 469.141, 522.341 469.411, 521.868 469.723, 521.514 470.071, 521.274 470.451, 521.147 470.860, 521.127 471.291, 521.211 471.743, 521.397 472.286, 521.719 472.845, 522.140 473.420, 522.662 474.009, 523.286 474.614, 524.013 475.234, 524.846 475.869, 525.785 476.519, 526.833 477.185, 527.990 477.866, 529.258 478.562, 530.639 479.273, 532.134 483.556, 541.170 487.839, 550.206 490.282, 555.360 493.153, 561.418 497.436, 570.454 501.719, 579.491 506.002, 588.527 510.285, 597.564 514.568, 606.600 518.851, 615.637 523.134, 624.673 527.417, 633.709 528.129, 635.212 528.985, 637.051 529.773, 638.818 529.812, 638.908 530.492, 640.513 531.141, 642.137 531.717, 643.691 532.221, 645.176 532.651, 646.591 533.005, 647.938 533.211, 648.887 533.283, 649.218 533.484, 650.431 533.606, 651.577 533.648, 652.658 533.489, 653.901 533.163, 654.991 532.666, 655.926 531.992, 656.699 531.136, 657.307 " />
            <path fill="none" stroke-width="3.0" stroke-linecap="butt" stroke-opacity="1.0" stroke="rgb(0, 0, 0)" stroke-linejoin="miter" d=" M 418.271, 591.253 416.682, 591.801 414.739, 591.961 412.416, 591.755 409.688, 591.204 406.531, 590.330 405.511, 590.050 404.577, 589.883 403.729, 589.832 402.969, 589.899 402.298, 590.086 " />
            <path fill="none" stroke-width="3.0" stroke-linecap="butt" stroke-opacity="1.0" stroke="rgb(0, 0, 0)" stroke-linejoin="miter" d=" M 531.136, 657.307 530.094, 657.745 528.861, 658.009 527.432, 658.095 525.804, 657.998 523.972, 657.715 521.931, 657.243 519.680, 656.577 518.771, 656.388 517.931, 656.308 517.163, 656.342 516.469, 656.490 515.850, 656.756 " />
            <path fill="none" stroke-width="3.0" stroke-linecap="butt" stroke-opacity="1.0" stroke="rgb(0, 0, 0)" stroke-linejoin="miter" d=" M 488.883, 380.076 498.452, 377.171 508.021, 374.266 517.589, 371.361 527.158, 368.456 536.727, 365.550 542.588, 363.771 552.157, 360.866 561.726, 357.961 571.294, 355.056 580.863, 352.151 590.432, 349.246 599.118, 346.609 608.687, 343.704 618.256, 340.799 620.166, 340.219 620.928, 339.933 621.613, 339.562 622.218, 339.091 622.743, 338.505 623.183, 337.787 623.539, 336.924 623.806, 335.898 623.984, 334.696 624.070, 333.302 624.056, 332.185 623.959, 331.135 623.778, 330.154 623.518, 329.242 623.180, 328.401 622.767, 327.631 622.281, 326.933 621.725, 326.309 621.101, 325.759 620.411, 325.284 619.659, 324.885 618.847, 324.563 615.111, 323.338 611.024, 322.060 606.670, 320.742 602.130, 319.399 597.485, 318.044 592.813, 316.692 588.189, 315.355 583.689, 314.045 579.384, 312.776 575.347, 311.558 571.645, 310.403 568.348, 309.322 565.043, 308.159 561.467, 306.826 557.674, 305.359 553.720, 303.792 549.657, 302.159 545.540, 300.493 541.419, 298.827 537.345, 297.194 533.368, 295.626 529.536, 294.153 525.898, 292.807 522.500, 291.619 521.897, 291.470 521.283, 291.421 520.670, 291.472 520.071, 291.623 510.397, 294.157 500.724, 296.692 491.050, 299.226 481.377, 301.761 471.703, 304.295 462.030, 306.830 452.356, 309.364 442.683, 311.898 433.009, 314.433 423.336, 316.968 413.662, 319.502 403.989, 322.036 394.315, 324.571 390.300, 325.623 " />
            <path fill="none" stroke-width="3.0" stroke-linecap="butt" stroke-opacity="1.0" stroke="rgb(0, 0, 0)" stroke-linejoin="miter" d=" M 642.072, 440.592 651.470, 437.173 660.867, 433.754 662.310, 433.229 671.707, 429.810 681.105, 426.392 690.502, 422.973 699.899, 419.554 709.297, 416.135 718.694, 412.716 728.092, 409.297 737.489, 405.878 746.886, 402.459 756.284, 399.040 765.681, 395.621 774.877, 392.275 776.103, 391.785 777.205, 391.128 778.148, 390.288 778.899, 389.247 779.424, 387.989 779.688, 386.496 779.663, 385.265 779.413, 384.063 778.959, 382.898 778.324, 381.778 777.528, 380.710 776.593, 379.701 775.541, 378.760 774.393, 377.894 773.171, 377.109 771.897, 376.413 770.592, 375.814 769.277, 375.317 761.248, 372.638 753.681, 370.167 746.508, 367.870 739.666, 365.716 733.094, 363.671 726.730, 361.707 720.519, 359.792 714.403, 357.898 708.328, 355.996 702.241, 354.058 696.091, 352.057 689.826, 349.966 680.353, 346.762 670.880, 343.558 663.790, 341.159 663.064, 340.972 662.320, 340.894 661.572, 340.923 660.836, 341.060 651.288, 344.030 641.739, 347.001 632.190, 349.972 622.642, 352.942 613.093, 355.913 603.545, 358.883 595.562, 361.367 586.013, 364.337 576.464, 367.308 566.916, 370.278 557.367, 373.249 547.819, 376.219 542.577, 377.850 533.028, 380.821 528.419, 382.254 " />
            <path fill="none" stroke-width="3.0" stroke-linecap="butt" stroke-opacity="1.0" stroke="rgb(0, 0, 0)" stroke-linejoin="miter" d=" M 595.562, 361.367 595.629, 359.466 595.941, 355.836 596.460, 352.694 597.227, 350.006 598.284, 347.739 599.118, 346.609 " />
            <path fill="none" stroke-width="3.0" stroke-linecap="butt" stroke-opacity="1.0" stroke="rgb(0, 0, 0)" stroke-linejoin="miter" d=" M 641.125, 741.035 649.952, 736.334 658.778, 731.633 667.604, 726.932 676.430, 722.232 685.256, 717.531 694.083, 712.830 702.909, 708.129 711.735, 703.428 720.561, 698.727 729.387, 694.026 738.214, 689.325 747.040, 684.624 755.866, 679.924 762.888, 676.184 763.699, 675.709 764.305, 675.065 764.702, 674.259 764.889, 673.300 764.847, 671.959 764.535, 670.628 763.986, 669.310 763.236, 668.011 762.319, 666.735 761.270, 665.486 760.124, 664.270 758.915, 663.089 757.678, 661.949 756.448, 660.852 755.258, 659.804 754.141, 658.807 749.710, 654.894 745.681, 651.069 742.017, 647.315 738.679, 643.616 735.633, 639.956 732.842, 636.318 730.271, 632.689 727.888, 629.052 725.657, 625.393 723.545, 621.698 721.521, 617.954 719.550, 614.146 715.029, 605.226 710.508, 596.306 705.988, 587.387 701.467, 578.467 696.946, 569.547 692.426, 560.627 687.905, 551.707 683.385, 542.787 678.864, 533.867 674.343, 524.948 669.823, 516.028 665.302, 507.108 660.781, 498.188 656.261, 489.268 651.740, 480.348 647.219, 471.429 642.672, 462.456 641.947, 460.943 641.361, 459.475 640.914, 458.059 640.606, 456.701 640.437, 455.406 640.406, 454.180 640.514, 453.029 640.760, 451.958 641.145, 450.974 641.668, 450.082 642.331, 449.288 643.132, 448.599 648.255, 444.676 653.348, 440.619 658.423, 436.462 662.310, 433.229 " />
            <path fill="none" stroke-width="3.0" stroke-linecap="butt" stroke-opacity="1.0" stroke="rgb(0, 0, 0)" stroke-linejoin="miter" d=" M 494.617, 654.646 503.746, 650.564 512.875, 646.482 522.004, 642.400 529.812, 638.908 " />
        </g>
    </g>
</svg>
