<?xml version='1.0' encoding='ascii'?>
<svg xmlns="http://www.w3.org/2000/svg" version="1.1" width="1080" height="1080">
    <g id="View Layer_LineSet" xmlns:inkscape="http://www.inkscape.org/namespaces/inkscape" inkscape:groupmode="lineset" inkscape:label="View Layer_LineSet">
        <g xmlns:inkscape="http://www.inkscape.org/namespaces/inkscape" inkscape:groupmode="layer" id="strokes" inkscape:label="strokes">
            <path fill="none" stroke-width="3.0" stroke-linecap="butt" stroke-opacity="1.0" stroke="rgb(0, 0, 0)" stroke-linejoin="miter" d=" M 477.868, 381.549 480.947, 380.905 484.584, 380.500 488.830, 380.296 489.791, 380.193 490.681, 380.047 491.497, 379.840 492.237, 379.557 492.897, 379.183 493.476, 378.699 493.969, 378.091 494.375, 377.342 494.690, 376.436 494.715, 376.315 494.913, 375.356 495.039, 374.086 495.067, 372.610 495.008, 371.425 494.869, 370.309 494.651, 369.263 494.357, 368.289 493.989, 367.388 493.550, 366.561 493.042, 365.808 492.468, 365.132 491.830, 364.532 491.130, 364.011 490.372, 363.568 489.558, 363.205 485.822, 361.810 481.739, 360.350 477.393, 358.841 472.864, 357.301 468.233, 355.747 463.577, 354.195 458.971, 352.661 454.489, 351.160 450.203, 349.707 446.182, 348.316 442.496, 347.000 439.212, 345.773 435.917, 344.459 432.349, 342.959 428.564, 341.312 424.617, 339.556 420.563, 337.727 416.455, 335.863 412.344, 334.000 408.282, 332.173 404.319, 330.417 400.504, 328.766 396.885, 327.255 393.508, 325.917 392.912, 325.744 392.308, 325.678 391.711, 325.717 391.131, 325.862 390.580, 326.112 390.071, 326.468 389.615, 326.928 389.225, 327.492 388.911, 328.161 388.686, 328.933 388.562, 329.810 388.551, 330.790 388.655, 332.135 388.838, 333.417 389.098, 334.638 389.432, 335.799 389.839, 336.901 390.317, 337.944 390.864, 338.931 391.478, 339.862 392.158, 340.738 392.901, 341.560 393.707, 342.329 394.573, 343.046 398.289, 345.873 401.558, 348.578 404.405, 351.216 406.853, 353.846 408.929, 356.525 410.661, 359.311 412.075, 362.263 413.201, 365.438 414.067, 368.895 414.703, 372.688 415.139, 376.876 415.406, 381.514 415.798, 391.506 416.190, 401.498 416.582, 411.491 416.974, 421.483 417.366, 431.475 417.759, 441.468 418.151, 451.460 418.543, 461.452 418.935, 471.445 419.327, 481.437 419.719, 491.429 420.111, 501.422 420.504, 511.414 420.896, 521.406 421.288, 531.398 421.680, 541.391 422.072, 551.383 422.464, 561.375 422.856, 571.368 423.001, 575.059 423.095, 578.889 423.032, 582.189 423.020, 582.331 422.785, 584.979 422.321, 587.282 421.612, 589.118 420.628, 590.508 419.340, 591.472 " />
            <path fill="none" stroke-width="3.0" stroke-linecap="butt" stroke-opacity="1.0" stroke="rgb(0, 0, 0)" stroke-linejoin="miter" d=" M 589.844, 441.053 594.042, 439.629 594.582, 439.486 598.497, 438.449 603.234, 437.544 608.279, 436.945 613.659, 436.684 619.400, 436.792 625.145, 437.272 625.531, 437.304 632.082, 438.254 639.083, 439.676 640.356, 439.870 641.701, 439.998 643.087, 440.042 644.478, 439.982 645.842, 439.799 647.145, 439.474 648.352, 438.988 649.428, 438.321 650.340, 437.453 651.052, 436.367 651.529, 435.042 651.737, 433.458 651.666, 432.146 651.370, 430.858 650.873, 429.604 650.195, 428.391 649.359, 427.230 648.387, 426.129 647.299, 425.096 646.120, 424.139 644.869, 423.268 643.569, 422.490 642.451, 421.920 642.242, 421.814 640.909, 421.247 632.789, 418.164 625.141, 415.318 617.898, 412.670 610.995, 410.184 604.367, 407.824 597.955, 405.556 595.193, 404.580 591.698, 403.346 585.541, 401.162 579.426, 398.972 573.301, 396.744 567.114, 394.449 560.812, 392.056 551.478, 388.468 542.144, 384.879 534.652, 381.998 533.925, 381.781 533.185, 381.677 532.446, 381.688 531.723, 381.814 531.030, 382.055 530.383, 382.411 529.796, 382.884 529.284, 383.472 528.862, 384.177 528.543, 384.999 528.343, 385.938 528.276, 386.995 528.332, 388.451 528.489, 389.843 528.743, 391.174 529.093, 392.444 529.535, 393.654 530.068, 394.805 530.688, 395.898 531.395, 396.935 532.186, 397.916 533.058, 398.843 534.009, 399.715 535.038, 400.535 537.679, 402.489 540.090, 404.435 542.271, 406.371 542.279, 406.379 544.221, 408.294 545.939, 410.203 547.425, 412.095 548.680, 413.967 549.704, 415.818 550.497, 417.645 551.060, 419.447 551.394, 421.220 551.501, 422.964 551.438, 424.061 551.261, 425.133 550.976, 426.183 550.590, 427.217 550.109, 428.237 549.541, 429.249 548.891, 430.256 548.166, 431.262 547.372, 432.271 546.517, 433.288 545.606, 434.317 544.646, 435.361 542.256, 437.919 535.429, 445.225 528.601, 452.532 521.773, 459.838 514.946, 467.145 508.118, 474.451 501.291, 481.758 494.463, 489.064 487.636, 496.370 481.303, 503.147 480.482, 503.710 479.720, 504.241 479.011, 504.732 478.348, 505.176 477.723, 505.565 477.131, 505.891 476.564, 506.147 " />
            <path fill="none" stroke-width="3.0" stroke-linecap="butt" stroke-opacity="1.0" stroke="rgb(0, 0, 0)" stroke-linejoin="miter" d=" M 476.564, 506.147 476.015, 506.325 475.478, 506.417 474.946, 506.417 474.412, 506.316 473.870, 506.107 473.407, 505.845 472.959, 505.514 472.532, 505.112 472.129, 504.635 471.754, 504.083 471.412, 503.451 471.107, 502.737 470.843, 501.939 470.624, 501.054 470.455, 500.080 470.339, 499.013 470.281, 497.852 470.053, 487.854 469.825, 477.857 469.597, 467.859 469.369, 457.862 469.141, 447.864 468.913, 437.867 468.686, 427.870 468.458, 417.872 468.230, 407.875 468.140, 403.949 468.113, 399.561 468.271, 395.729 468.652, 392.418 469.297, 389.594 470.243, 387.223 471.533, 385.268 473.205, 383.695 475.303, 382.467 477.868, 381.549 " />
            <path fill="none" stroke-width="3.0" stroke-linecap="butt" stroke-opacity="1.0" stroke="rgb(0, 0, 0)" stroke-linejoin="miter" d=" M 536.254, 648.057 527.190, 652.281 518.632, 656.269 518.081, 656.659 517.610, 657.171 517.222, 657.807 516.919, 658.571 516.703, 659.464 516.576, 660.489 516.540, 661.648 516.611, 662.579 516.800, 663.523 517.094, 664.467 517.480, 665.401 517.945, 666.312 518.476, 667.189 519.059, 668.021 519.681, 668.795 520.330, 669.499 520.992, 670.122 521.653, 670.652 522.301, 671.077 526.003, 673.178 529.636, 675.167 533.219, 677.069 536.772, 678.911 540.315, 680.717 543.868, 682.514 547.452, 684.327 551.088, 686.184 554.796, 688.110 558.600, 690.133 562.520, 692.281 566.579, 694.581 571.986, 697.758 577.401, 701.043 582.826, 704.417 588.261, 707.860 593.708, 711.354 599.167, 714.878 604.640, 718.412 610.129, 721.938 615.636, 725.433 621.163, 728.880 626.711, 732.255 632.284, 735.541 634.663, 736.846 636.853, 737.905 638.851, 738.725 640.654, 739.311 642.259, 739.673 643.664, 739.817 644.865, 739.750 645.861, 739.481 646.649, 739.017 647.226, 738.365 647.591, 737.535 647.740, 736.534 647.648, 735.122 647.288, 733.708 646.694, 732.299 645.901, 730.900 644.943, 729.519 643.854, 728.161 642.671, 726.833 641.427, 725.540 640.157, 724.289 638.894, 723.084 637.674, 721.931 636.529, 720.835 631.985, 716.534 627.845, 712.343 624.070, 708.243 620.621, 704.215 617.463, 700.239 614.559, 696.299 611.874, 692.376 609.374, 688.453 607.025, 684.514 604.793, 680.542 602.645, 676.522 600.547, 672.436 596.049, 663.505 591.551, 654.574 587.053, 645.643 582.555, 636.711 581.434, 634.486 578.382, 628.425 573.883, 619.494 573.680, 619.091 569.182, 610.160 564.684, 601.229 560.186, 592.297 555.688, 583.366 551.190, 574.435 546.692, 565.504 542.193, 556.573 537.695, 547.641 535.783, 543.844 535.708, 543.696 531.210, 534.765 526.712, 525.833 522.214, 516.902 518.637, 509.800 517.861, 508.179 517.224, 506.611 516.727, 505.102 516.490, 504.147 516.369, 503.658 516.150, 502.286 516.070, 500.990 516.130, 499.778 516.330, 498.656 516.670, 497.628 517.150, 496.703 517.771, 495.886 518.534, 495.183 523.432, 491.201 528.297, 487.074 529.091, 486.380 533.144, 482.838 537.989, 478.534 542.846, 474.199 547.732, 469.874 552.661, 465.600 557.651, 461.419 562.717, 457.374 567.877, 453.508 573.147, 449.866 578.546, 446.493 582.120, 444.514 585.878, 442.691 589.844, 441.053 " />
            <path fill="none" stroke-width="3.0" stroke-linecap="butt" stroke-opacity="1.0" stroke="rgb(0, 0, 0)" stroke-linejoin="miter" d=" M 423.020, 582.331 413.751, 586.086 404.483, 589.841 403.061, 590.417 402.470, 590.731 401.974, 591.168 401.573, 591.732 401.271, 592.424 401.069, 593.247 400.968, 594.203 400.970, 595.295 401.098, 596.212 401.386, 597.210 401.816, 598.266 402.368, 599.357 403.023, 600.461 403.762, 601.555 404.566, 602.616 405.416, 603.622 406.292, 604.549 407.175, 605.376 408.047, 606.078 408.887, 606.633 413.391, 609.167 417.528, 611.355 421.336, 613.247 424.857, 614.892 428.134, 616.341 431.211, 617.645 434.130, 618.856 436.939, 620.028 439.682, 621.214 442.407, 622.467 445.160, 623.844 447.990, 625.399 450.819, 627.090 453.698, 628.919 456.649, 630.876 459.695, 632.955 462.862, 635.148 466.172, 637.447 469.650, 639.846 473.324, 642.336 477.217, 644.912 481.359, 647.566 485.776, 650.294 490.498, 653.088 491.500, 653.610 492.508, 654.025 493.506, 654.329 494.475, 654.515 495.397, 654.579 496.254, 654.516 497.027, 654.320 497.699, 653.986 498.250, 653.510 498.663, 652.886 498.919, 652.109 498.998, 651.174 498.899, 649.882 498.650, 648.640 498.264, 647.447 497.757, 646.298 497.145, 645.189 496.442, 644.117 495.663, 643.078 494.823, 642.068 493.938, 641.083 493.022, 640.119 492.090, 639.171 491.157, 638.235 487.450, 634.639 484.329, 631.392 481.736, 628.420 479.616, 625.651 477.912, 623.013 476.573, 620.437 475.544, 617.852 474.775, 615.188 474.213, 612.375 473.808, 609.343 473.507, 606.023 473.260, 602.343 472.912, 596.062 472.597, 589.790 472.314, 583.522 472.057, 577.253 471.826, 570.978 471.794, 570.017 471.616, 564.692 471.554, 562.670 471.424, 558.391 471.247, 552.068 471.082, 545.720 470.926, 539.341 470.775, 532.927 470.627, 526.472 470.633, 525.353 470.701, 524.370 470.828, 523.520 471.009, 522.798 471.239, 522.202 471.516, 521.727 471.833, 521.371 472.188, 521.130 472.575, 520.999 472.991, 520.977 473.431, 521.059 473.890, 521.241 474.443, 521.560 475.012, 521.978 475.596, 522.496 476.195, 523.116 476.810, 523.840 477.440, 524.668 478.086, 525.603 478.747, 526.646 479.424, 527.799 480.115, 529.063 480.823, 530.439 481.545, 531.929 485.894, 540.934 490.242, 549.939 492.327, 554.255 495.296, 560.404 499.645, 569.409 503.994, 578.414 508.342, 587.419 512.691, 596.424 517.040, 605.429 521.388, 614.434 525.737, 623.438 530.086, 632.443 531.147, 634.641 532.016, 636.473 532.680, 637.934 532.816, 638.233 533.546, 639.922 534.203, 641.541 534.788, 643.090 535.299, 644.570 535.734, 645.981 536.093, 647.325 536.254, 648.057 536.375, 648.602 536.577, 649.813 536.700, 650.958 536.742, 652.038 536.579, 653.281 536.246, 654.374 535.740, 655.311 535.053, 656.089 534.182, 656.703 " />
            <path fill="none" stroke-width="3.0" stroke-linecap="butt" stroke-opacity="1.0" stroke="rgb(0, 0, 0)" stroke-linejoin="miter" d=" M 419.340, 591.472 417.720, 592.031 415.740, 592.205 413.373, 592.016 410.593, 591.484 407.375, 590.631 406.336, 590.358 405.384, 590.197 404.520, 590.153 403.745, 590.225 403.061, 590.417 " />
            <path fill="none" stroke-width="3.0" stroke-linecap="butt" stroke-opacity="1.0" stroke="rgb(0, 0, 0)" stroke-linejoin="miter" d=" M 534.182, 656.703 533.122, 657.149 531.867, 657.422 530.414, 657.519 528.757, 657.435 526.894, 657.166 524.819, 656.709 522.529, 656.061 521.604, 655.878 520.750, 655.805 519.969, 655.845 519.262, 655.998 518.632, 656.269 " />
            <path fill="none" stroke-width="3.0" stroke-linecap="butt" stroke-opacity="1.0" stroke="rgb(0, 0, 0)" stroke-linejoin="miter" d=" M 491.497, 379.840 501.043, 376.861 510.589, 373.883 520.136, 370.904 529.682, 367.925 539.228, 364.947 542.310, 363.985 551.856, 361.007 561.402, 358.028 570.948, 355.049 580.494, 352.071 590.040, 349.092 599.440, 346.159 608.986, 343.181 618.532, 340.202 620.922, 339.456 621.693, 339.167 622.387, 338.794 623.000, 338.320 623.531, 337.732 623.977, 337.014 624.337, 336.149 624.608, 335.124 624.787, 333.923 624.874, 332.530 624.861, 331.415 624.761, 330.367 624.579, 329.388 624.315, 328.478 623.973, 327.639 623.554, 326.872 623.062, 326.178 622.499, 325.557 621.867, 325.011 621.169, 324.539 620.407, 324.144 619.585, 323.826 615.800, 322.620 611.661, 321.362 607.251, 320.066 602.652, 318.745 597.946, 317.413 593.213, 316.083 588.528, 314.768 583.968, 313.480 579.606, 312.231 575.514, 311.033 571.762, 309.895 568.420, 308.830 565.070, 307.682 561.445, 306.367 557.600, 304.918 553.591, 303.369 549.472, 301.755 545.297, 300.108 541.118, 298.462 536.986, 296.848 532.953, 295.297 529.067, 293.842 525.376, 292.513 521.929, 291.339 521.318, 291.193 520.695, 291.146 520.073, 291.200 519.465, 291.353 509.808, 293.950 500.151, 296.547 490.494, 299.144 480.837, 301.740 471.180, 304.337 461.523, 306.934 451.866, 309.531 442.209, 312.127 432.552, 314.724 422.895, 317.321 413.238, 319.917 403.581, 322.514 393.924, 325.111 391.131, 325.862 " />
            <path fill="none" stroke-width="3.0" stroke-linecap="butt" stroke-opacity="1.0" stroke="rgb(0, 0, 0)" stroke-linejoin="miter" d=" M 647.145, 439.474 656.509, 435.964 660.961, 434.295 670.324, 430.785 679.688, 427.275 689.052, 423.764 698.415, 420.254 707.779, 416.744 717.143, 413.234 726.506, 409.724 735.870, 406.214 745.234, 402.703 754.597, 399.193 763.961, 395.683 773.325, 392.173 777.393, 390.648 778.631, 390.153 779.743, 389.492 780.696, 388.649 781.455, 387.607 781.985, 386.349 782.251, 384.859 782.225, 383.631 781.972, 382.434 781.514, 381.274 780.872, 380.160 780.068, 379.099 779.124, 378.098 778.061, 377.165 776.902, 376.306 775.668, 375.530 774.381, 374.842 773.062, 374.251 771.734, 373.762 763.624, 371.130 755.978, 368.703 748.730, 366.447 741.816, 364.331 735.173, 362.323 728.741, 360.394 722.462, 358.514 716.279, 356.654 710.136, 354.785 703.981, 352.881 697.760, 350.914 691.424, 348.857 681.925, 345.731 672.426, 342.606 665.083, 340.189 664.348, 340.006 663.595, 339.931 662.838, 339.964 662.093, 340.104 652.569, 343.151 643.045, 346.198 633.520, 349.246 623.996, 352.293 614.471, 355.340 604.947, 358.387 595.983, 361.255 586.458, 364.302 576.934, 367.349 567.410, 370.397 557.885, 373.444 548.361, 376.491 542.299, 378.430 532.775, 381.477 531.723, 381.814 " />
            <path fill="none" stroke-width="3.0" stroke-linecap="butt" stroke-opacity="1.0" stroke="rgb(0, 0, 0)" stroke-linejoin="miter" d=" M 595.983, 361.255 596.070, 358.799 596.386, 355.171 596.912, 352.030 597.689, 349.342 598.759, 347.072 599.440, 346.159 " />
            <path fill="none" stroke-width="3.0" stroke-linecap="butt" stroke-opacity="1.0" stroke="rgb(0, 0, 0)" stroke-linejoin="miter" d=" M 645.861, 739.481 654.628, 734.670 663.395, 729.860 672.162, 725.049 680.929, 720.239 689.696, 715.428 698.463, 710.618 707.230, 705.807 715.997, 700.997 724.764, 696.186 733.530, 691.376 742.297, 686.565 751.064, 681.755 759.831, 676.944 765.324, 673.930 766.144, 673.450 766.756, 672.803 767.157, 671.996 767.346, 671.038 767.303, 669.701 766.987, 668.375 766.433, 667.064 765.675, 665.773 764.748, 664.507 763.688, 663.270 762.530, 662.065 761.309, 660.896 760.059, 659.767 758.816, 658.683 757.613, 657.646 756.485, 656.659 752.007, 652.788 747.935, 649.002 744.232, 645.283 740.858, 641.617 737.778, 637.987 734.957, 634.377 732.358, 630.774 729.948, 627.162 727.692, 623.527 725.557, 619.855 723.510, 616.132 721.517, 612.346 716.936, 603.457 712.354, 594.569 707.773, 585.680 703.192, 576.791 698.610, 567.902 694.029, 559.013 689.447, 550.125 684.866, 541.236 680.285, 532.347 675.703, 523.458 671.122, 514.569 666.541, 505.680 661.959, 496.792 657.378, 487.903 652.796, 479.014 648.215, 470.125 643.724, 461.411 642.989, 459.903 642.396, 458.441 641.943, 457.030 641.632, 455.676 641.460, 454.384 641.429, 453.159 641.538, 452.009 641.787, 450.938 642.176, 449.953 642.706, 449.059 643.376, 448.263 644.188, 447.570 649.373, 443.624 654.527, 439.545 659.663, 435.367 660.961, 434.295 " />
            <path fill="none" stroke-width="3.0" stroke-linecap="butt" stroke-opacity="1.0" stroke="rgb(0, 0, 0)" stroke-linejoin="miter" d=" M 497.027, 654.320 506.114, 650.144 515.200, 645.968 524.286, 641.792 532.680, 637.934 " />
        </g>
    </g>
</svg>
