<?xml version='1.0' encoding='ascii'?>
<svg xmlns="http://www.w3.org/2000/svg" version="1.1" width="1080" height="1080">
    <g id="View Layer_LineSet" xmlns:inkscape="http://www.inkscape.org/namespaces/inkscape" inkscape:groupmode="lineset" inkscape:label="View Layer_LineSet">
        <g xmlns:inkscape="http://www.inkscape.org/namespaces/inkscape" inkscape:groupmode="layer" id="strokes" inkscape:label="strokes">
            <path fill="none" stroke-width="3.0" stroke-linecap="butt" stroke-opacity="1.0" stroke="rgb(0, 0, 0)" stroke-linejoin="miter" d=" M 479.965, 381.392 483.092, 380.734 486.786, 380.312 491.098, 380.089 492.073, 379.982 492.977, 379.831 493.806, 379.621 494.558, 379.335 495.229, 378.957 495.816, 378.471 496.318, 377.861 496.730, 377.111 497.051, 376.203 497.107, 375.937 497.278, 375.123 497.408, 373.852 497.437, 372.376 497.379, 371.192 497.239, 370.077 497.019, 369.033 496.721, 368.060 496.349, 367.161 495.903, 366.336 495.388, 365.586 494.806, 364.912 494.159, 364.315 493.449, 363.797 492.679, 363.358 491.853, 362.999 488.061, 361.621 483.917, 360.178 479.505, 358.689 474.907, 357.169 470.205, 355.635 465.477, 354.104 460.800, 352.590 456.248, 351.108 451.895, 349.674 447.812, 348.299 444.068, 346.999 440.732, 345.786 437.385, 344.486 433.761, 343.001 429.916, 341.370 425.907, 339.630 421.788, 337.818 417.614, 335.971 413.437, 334.124 409.310, 332.313 405.283, 330.573 401.405, 328.938 397.726, 327.441 394.294, 326.116 393.688, 325.946 393.075, 325.882 392.467, 325.924 391.877, 326.071 391.317, 326.324 390.799, 326.681 390.335, 327.143 389.937, 327.710 389.618, 328.380 389.388, 329.154 389.261, 330.031 389.249, 331.012 389.353, 332.357 389.538, 333.640 389.801, 334.860 390.140, 336.020 390.553, 337.121 391.038, 338.163 391.593, 339.148 392.217, 340.077 392.907, 340.951 393.662, 341.770 394.480, 342.536 395.360, 343.249 399.136, 346.062 402.457, 348.754 405.348, 351.381 407.835, 354.001 409.943, 356.672 411.701, 359.452 413.135, 362.399 414.277, 365.570 415.154, 369.024 415.797, 372.816 416.236, 377.004 416.502, 381.642 416.891, 391.634 417.280, 401.626 417.669, 411.619 418.057, 421.611 418.446, 431.604 418.835, 441.596 419.223, 451.589 419.612, 461.581 420.001, 471.573 420.390, 481.566 420.778, 491.558 421.167, 501.551 421.556, 511.543 421.944, 521.536 422.333, 531.528 422.722, 541.521 423.111, 551.513 423.499, 561.505 423.888, 571.498 424.033, 575.218 424.124, 579.049 424.059, 582.285 424.057, 582.351 423.803, 585.144 423.329, 587.451 422.607, 589.292 421.605, 590.689 420.295, 591.661 " />
            <path fill="none" stroke-width="3.0" stroke-linecap="butt" stroke-opacity="1.0" stroke="rgb(0, 0, 0)" stroke-linejoin="miter" d=" M 593.525, 440.327 594.924, 439.852 597.782, 438.883 602.299, 437.682 607.102, 436.755 612.215, 436.131 617.667, 435.843 623.485, 435.923 626.184, 436.132 629.697, 436.404 636.334, 437.320 643.424, 438.705 644.713, 438.892 646.076, 439.013 647.480, 439.050 648.889, 438.983 650.271, 438.794 651.591, 438.463 652.814, 437.971 653.905, 437.300 654.829, 436.429 655.551, 435.341 656.036, 434.015 656.248, 432.433 656.176, 431.123 655.879, 429.838 655.376, 428.588 654.691, 427.381 653.845, 426.226 652.861, 425.131 651.761, 424.104 650.567, 423.155 649.301, 422.291 647.985, 421.521 646.641, 420.852 646.203, 420.670 645.292, 420.292 637.068, 417.253 629.323, 414.447 621.986, 411.837 614.992, 409.387 608.278, 407.061 601.780, 404.826 595.578, 402.695 595.440, 402.648 589.200, 400.495 583.003, 398.336 576.794, 396.139 570.521, 393.874 564.133, 391.513 554.768, 388.007 545.402, 384.501 537.605, 381.582 536.868, 381.367 536.117, 381.267 535.367, 381.282 534.633, 381.411 533.930, 381.655 533.273, 382.014 532.677, 382.489 532.157, 383.079 531.728, 383.786 531.404, 384.608 531.200, 385.548 531.131, 386.605 531.186, 388.060 531.344, 389.451 531.601, 390.780 531.954, 392.047 532.402, 393.254 532.941, 394.402 533.570, 395.492 534.286, 396.526 535.087, 397.503 535.971, 398.424 536.936, 399.292 537.979, 400.106 540.656, 402.047 542.025, 403.129 543.101, 403.980 545.312, 405.905 547.288, 407.818 549.029, 409.717 550.535, 411.600 551.806, 413.465 552.843, 415.310 553.646, 417.132 554.215, 418.930 554.553, 420.701 554.660, 422.443 554.594, 423.539 554.414, 424.611 554.124, 425.662 553.731, 426.697 553.243, 427.719 552.665, 428.733 552.004, 429.742 551.268, 430.751 550.462, 431.764 549.593, 432.785 548.668, 433.817 547.694, 434.865 542.000, 440.889 535.131, 448.157 528.262, 455.424 521.393, 462.692 514.525, 469.960 507.656, 477.227 500.787, 484.495 493.918, 491.762 487.049, 499.030 483.336, 502.959 482.501, 503.526 481.727, 504.062 481.007, 504.557 480.333, 505.004 479.698, 505.396 479.096, 505.725 478.520, 505.984 " />
            <path fill="none" stroke-width="3.0" stroke-linecap="butt" stroke-opacity="1.0" stroke="rgb(0, 0, 0)" stroke-linejoin="miter" d=" M 478.520, 505.984 477.962, 506.165 477.417, 506.261 476.877, 506.264 476.335, 506.166 475.784, 505.959 475.314, 505.700 474.860, 505.372 474.426, 504.972 474.017, 504.498 473.637, 503.947 473.290, 503.317 472.981, 502.605 472.714, 501.808 472.492, 500.925 472.321, 499.951 472.205, 498.885 472.147, 497.724 471.925, 487.726 471.703, 477.729 471.481, 467.731 471.260, 457.734 471.038, 447.736 470.816, 437.739 470.594, 427.741 470.372, 417.744 470.151, 407.746 470.064, 403.835 470.041, 399.448 470.205, 395.615 470.595, 392.302 471.253, 389.476 472.216, 387.100 473.527, 385.140 475.228, 383.559 477.359, 382.322 479.965, 381.392 " />
            <path fill="none" stroke-width="3.0" stroke-linecap="butt" stroke-opacity="1.0" stroke="rgb(0, 0, 0)" stroke-linejoin="miter" d=" M 538.933, 647.298 529.909, 651.607 521.085, 655.821 520.525, 656.215 520.047, 656.730 519.653, 657.369 519.345, 658.134 519.125, 659.028 518.994, 660.054 518.956, 661.213 519.028, 662.143 519.219, 663.085 519.517, 664.027 519.908, 664.958 520.379, 665.866 520.917, 666.739 521.508, 667.566 522.138, 668.336 522.796, 669.036 523.467, 669.654 524.138, 670.180 524.795, 670.600 528.550, 672.674 532.235, 674.638 535.869, 676.515 539.473, 678.332 543.066, 680.113 546.669, 681.884 550.303, 683.672 553.990, 685.502 557.750, 687.401 561.606, 689.397 565.580, 691.516 569.695, 693.787 575.175, 696.924 580.664, 700.168 586.161, 703.501 591.669, 706.903 597.187, 710.355 602.718, 713.837 608.263, 717.329 613.823, 720.812 619.401, 724.265 624.998, 727.667 630.618, 730.999 636.261, 734.240 638.671, 735.526 640.888, 736.568 642.911, 737.372 644.737, 737.945 646.363, 738.295 647.786, 738.428 649.003, 738.353 650.012, 738.076 650.811, 737.607 651.396, 736.952 651.766, 736.120 651.918, 735.119 651.827, 733.710 651.463, 732.300 650.863, 730.897 650.060, 729.506 649.091, 728.134 647.990, 726.785 646.792, 725.467 645.533, 724.185 644.248, 722.944 642.970, 721.750 641.734, 720.607 640.575, 719.521 635.976, 715.257 631.785, 711.101 627.964, 707.032 624.473, 703.033 621.276, 699.084 618.337, 695.168 615.620, 691.268 613.089, 687.366 610.712, 683.447 608.453, 679.495 606.280, 675.493 604.158, 671.426 599.601, 662.524 595.045, 653.622 590.489, 644.720 585.933, 635.819 584.571, 633.158 581.422, 627.005 576.866, 618.103 576.586, 617.557 572.030, 608.656 567.474, 599.754 562.918, 590.852 558.362, 581.950 553.806, 573.048 549.250, 564.147 544.693, 555.245 540.137, 546.343 535.581, 537.441 531.025, 528.540 526.469, 519.638 521.913, 510.736 521.231, 509.404 520.445, 507.787 519.800, 506.223 519.297, 504.718 518.956, 503.364 518.935, 503.277 518.714, 501.906 518.634, 500.612 518.696, 499.400 518.900, 498.276 519.246, 497.247 519.734, 496.320 520.366, 495.500 521.141, 494.793 526.115, 490.786 531.056, 486.634 532.933, 485.010 535.979, 482.375 540.898, 478.047 545.831, 473.689 550.791, 469.341 555.795, 465.044 560.860, 460.840 566.003, 456.771 571.239, 452.882 576.588, 449.216 582.065, 445.819 585.690, 443.824 589.502, 441.983 593.525, 440.327 " />
            <path fill="none" stroke-width="3.0" stroke-linecap="butt" stroke-opacity="1.0" stroke="rgb(0, 0, 0)" stroke-linejoin="miter" d=" M 424.059, 582.285 414.821, 586.115 405.583, 589.944 403.746, 590.706 403.145, 591.023 402.640, 591.464 402.232, 592.031 401.924, 592.725 401.718, 593.550 401.614, 594.507 401.615, 595.599 401.744, 596.517 402.036, 597.513 402.472, 598.567 403.033, 599.655 403.698, 600.755 404.448, 601.845 405.264, 602.902 406.127, 603.903 407.017, 604.826 407.915, 605.647 408.800, 606.344 409.653, 606.894 414.230, 609.401 418.433, 611.564 422.302, 613.433 425.880, 615.056 429.209, 616.484 432.335, 617.769 435.301, 618.962 438.154, 620.116 440.941, 621.284 443.708, 622.521 446.504, 623.880 449.378, 625.417 452.251, 627.090 455.174, 628.901 458.170, 630.840 461.263, 632.899 464.477, 635.071 467.837, 637.349 471.369, 639.725 475.097, 642.191 479.049, 644.741 483.252, 647.369 487.735, 650.066 492.528, 652.829 493.544, 653.344 494.568, 653.753 495.581, 654.049 496.564, 654.229 497.500, 654.287 498.370, 654.218 499.156, 654.017 499.838, 653.679 500.398, 653.199 500.818, 652.573 501.078, 651.794 501.160, 650.859 501.061, 649.567 500.808, 648.328 500.418, 647.137 499.905, 645.991 499.284, 644.887 498.571, 643.820 497.781, 642.786 496.930, 641.782 496.032, 640.803 495.103, 639.844 494.157, 638.903 493.211, 637.973 489.451, 634.402 486.285, 631.175 483.654, 628.220 481.503, 625.465 479.776, 622.838 478.418, 620.271 477.376, 617.692 476.598, 615.033 476.030, 612.224 475.621, 609.195 475.319, 605.876 475.071, 602.198 474.724, 595.919 474.410, 589.649 474.128, 583.383 473.874, 577.115 473.645, 570.841 473.596, 569.347 473.438, 564.557 473.356, 561.849 473.249, 558.256 473.075, 551.935 472.914, 545.588 472.762, 539.210 472.615, 532.796 472.471, 526.342 472.477, 525.223 472.548, 524.240 472.677, 523.389 472.862, 522.666 473.097, 522.069 473.378, 521.593 473.701, 521.235 474.061, 520.991 474.455, 520.859 474.877, 520.834 475.323, 520.913 475.790, 521.093 476.351, 521.409 476.928, 521.823 477.521, 522.338 478.129, 522.955 478.753, 523.675 479.392, 524.500 480.047, 525.431 480.717, 526.470 481.403, 527.619 482.104, 528.879 482.821, 530.251 483.554, 531.737 487.960, 540.714 492.366, 549.691 494.111, 553.245 497.170, 559.478 501.576, 568.454 505.983, 577.431 510.389, 586.408 514.795, 595.385 519.201, 604.362 523.608, 613.339 528.014, 622.316 532.420, 631.293 533.807, 634.119 534.688, 635.944 535.197, 637.047 535.497, 637.698 536.236, 639.382 536.902, 640.995 537.494, 642.540 538.010, 644.016 538.451, 645.424 538.814, 646.765 538.933, 647.298 539.098, 648.039 539.303, 649.248 539.426, 650.392 539.468, 651.471 539.301, 652.715 538.963, 653.809 538.447, 654.750 537.750, 655.532 536.866, 656.152 " />
            <path fill="none" stroke-width="3.0" stroke-linecap="butt" stroke-opacity="1.0" stroke="rgb(0, 0, 0)" stroke-linejoin="miter" d=" M 420.295, 591.661 418.648, 592.230 416.635, 592.417 414.228, 592.242 411.403, 591.727 408.132, 590.893 407.077, 590.626 406.108, 590.472 405.230, 590.432 404.442, 590.510 403.746, 590.706 " />
            <path fill="none" stroke-width="3.0" stroke-linecap="butt" stroke-opacity="1.0" stroke="rgb(0, 0, 0)" stroke-linejoin="miter" d=" M 536.866, 656.152 535.789, 656.604 534.516, 656.886 533.041, 656.992 531.360, 656.919 529.469, 656.663 527.364, 656.220 525.040, 655.587 524.102, 655.411 523.235, 655.344 522.443, 655.388 521.725, 655.547 521.085, 655.821 " />
            <path fill="none" stroke-width="3.0" stroke-linecap="butt" stroke-opacity="1.0" stroke="rgb(0, 0, 0)" stroke-linejoin="miter" d=" M 493.806, 379.621 503.331, 376.576 512.857, 373.531 522.382, 370.486 531.907, 367.441 541.432, 364.396 542.049, 364.198 551.575, 361.153 561.100, 358.108 570.625, 355.063 580.150, 352.018 589.675, 348.973 599.689, 345.772 609.214, 342.727 618.739, 339.682 621.564, 338.779 622.343, 338.487 623.044, 338.111 623.664, 337.636 624.201, 337.046 624.652, 336.326 625.015, 335.462 625.289, 334.437 625.470, 333.236 625.558, 331.845 625.544, 330.730 625.444, 329.684 625.259, 328.707 624.992, 327.799 624.646, 326.963 624.223, 326.198 623.725, 325.507 623.156, 324.889 622.517, 324.346 621.811, 323.878 621.041, 323.486 620.210, 323.172 616.384, 321.983 612.199, 320.743 607.740, 319.465 603.090, 318.164 598.332, 316.853 593.544, 315.543 588.806, 314.248 584.194, 312.979 579.782, 311.749 575.642, 310.567 571.847, 309.445 568.466, 308.394 565.077, 307.261 561.408, 305.960 557.518, 304.527 553.461, 302.995 549.293, 301.398 545.067, 299.769 540.838, 298.139 536.656, 296.542 532.573, 295.008 528.639, 293.568 524.903, 292.253 521.413, 291.094 520.794, 290.949 520.163, 290.905 519.534, 290.962 518.918, 291.117 509.277, 293.770 499.635, 296.423 489.993, 299.075 480.351, 301.728 470.710, 304.381 461.068, 307.034 451.426, 309.687 441.785, 312.340 432.143, 314.992 422.501, 317.645 412.859, 320.298 403.218, 322.951 393.576, 325.604 391.877, 326.071 " />
            <path fill="none" stroke-width="3.0" stroke-linecap="butt" stroke-opacity="1.0" stroke="rgb(0, 0, 0)" stroke-linejoin="miter" d=" M 651.591, 438.463 659.419, 435.449 668.751, 431.857 678.083, 428.264 687.416, 424.671 696.748, 421.079 706.081, 417.486 715.413, 413.893 724.745, 410.300 734.078, 406.708 743.410, 403.115 752.742, 399.522 762.075, 395.930 771.407, 392.337 779.555, 389.200 780.804, 388.700 781.926, 388.036 782.886, 387.191 783.651, 386.148 784.185, 384.891 784.454, 383.403 784.427, 382.178 784.172, 380.984 783.710, 379.830 783.062, 378.721 782.252, 377.666 781.299, 376.671 780.227, 375.745 779.058, 374.894 777.813, 374.125 776.515, 373.444 775.186, 372.860 773.846, 372.378 765.665, 369.788 757.953, 367.399 750.640, 365.180 743.664, 363.099 736.960, 361.124 730.469, 359.227 724.131, 357.377 717.890, 355.547 711.689, 353.708 705.475, 351.834 699.194, 349.896 692.795, 347.870 683.274, 344.813 673.753, 341.755 666.190, 339.327 665.448, 339.147 664.687, 339.075 663.923, 339.111 663.170, 339.254 653.668, 342.370 644.166, 345.487 634.664, 348.603 625.162, 351.720 615.660, 354.836 606.158, 357.953 596.332, 361.175 586.830, 364.292 577.328, 367.408 567.826, 370.525 558.324, 373.641 548.822, 376.757 542.040, 378.982 534.633, 381.411 " />
            <path fill="none" stroke-width="3.0" stroke-linecap="butt" stroke-opacity="1.0" stroke="rgb(0, 0, 0)" stroke-linejoin="miter" d=" M 596.332, 361.175 596.439, 358.207 596.758, 354.581 597.289, 351.441 598.074, 348.751 599.156, 346.479 599.689, 345.772 " />
            <path fill="none" stroke-width="3.0" stroke-linecap="butt" stroke-opacity="1.0" stroke="rgb(0, 0, 0)" stroke-linejoin="miter" d=" M 650.012, 738.076 658.725, 733.167 667.437, 728.259 676.149, 723.350 684.861, 718.441 693.574, 713.532 702.286, 708.623 710.998, 703.714 719.710, 698.806 728.423, 693.897 737.135, 688.988 745.847, 684.079 754.559, 679.170 763.272, 674.262 767.422, 671.923 768.248, 671.439 768.865, 670.789 769.270, 669.982 769.460, 669.024 769.417, 667.690 769.098, 666.369 768.539, 665.065 767.774, 663.782 766.839, 662.525 765.770, 661.297 764.601, 660.102 763.369, 658.944 762.108, 657.826 760.854, 656.752 759.640, 655.724 758.502, 654.747 753.984, 650.914 749.875, 647.162 746.138, 643.475 742.733, 639.837 739.625, 636.234 736.777, 632.649 734.154, 629.069 731.721, 625.479 729.444, 621.865 727.289, 618.214 725.222, 614.511 723.210, 610.744 718.575, 601.883 713.941, 593.022 709.306, 584.160 704.672, 575.299 700.038, 566.438 695.403, 557.576 690.769, 548.715 686.134, 539.854 681.500, 530.993 676.865, 522.131 672.231, 513.270 667.597, 504.409 662.962, 495.547 658.328, 486.686 653.693, 477.825 649.059, 468.964 644.623, 460.481 643.880, 458.980 643.281, 457.522 642.823, 456.115 642.508, 454.764 642.334, 453.474 642.303, 452.252 642.413, 451.102 642.664, 450.032 643.058, 449.046 643.593, 448.151 644.270, 447.352 645.090, 446.656 650.329, 442.689 655.537, 438.590 659.419, 435.449 " />
            <path fill="none" stroke-width="3.0" stroke-linecap="butt" stroke-opacity="1.0" stroke="rgb(0, 0, 0)" stroke-linejoin="miter" d=" M 499.156, 654.017 508.203, 649.757 517.250, 645.497 526.297, 641.237 535.197, 637.047 " />
        </g>
    </g>
</svg>
