<?xml version='1.0' encoding='ascii'?>
<svg xmlns="http://www.w3.org/2000/svg" version="1.1" width="1080" height="1080">
    <g id="View Layer_LineSet" xmlns:inkscape="http://www.inkscape.org/namespaces/inkscape" inkscape:groupmode="lineset" inkscape:label="View Layer_LineSet">
        <g xmlns:inkscape="http://www.inkscape.org/namespaces/inkscape" inkscape:groupmode="layer" id="strokes" inkscape:label="strokes">
            <path fill="none" stroke-width="3.0" stroke-linecap="butt" stroke-opacity="1.0" stroke="rgb(0, 0, 0)" stroke-linejoin="miter" d=" M 480.268, 381.369 483.402, 380.709 487.104, 380.284 491.425, 380.058 492.403, 379.951 493.309, 379.799 494.140, 379.589 494.893, 379.302 495.565, 378.924 496.154, 378.438 496.657, 377.827 497.070, 377.076 497.392, 376.169 497.453, 375.881 497.620, 375.088 497.750, 373.818 497.779, 372.342 497.721, 371.158 497.581, 370.043 497.360, 368.999 497.062, 368.026 496.689, 367.127 496.243, 366.302 495.727, 365.553 495.143, 364.879 494.495, 364.283 493.784, 363.765 493.013, 363.327 492.184, 362.968 488.384, 361.593 484.231, 360.153 479.810, 358.666 475.202, 357.149 470.490, 355.619 465.752, 354.090 461.064, 352.579 456.503, 351.100 452.140, 349.668 448.048, 348.296 444.296, 346.998 440.952, 345.787 437.598, 344.489 433.965, 343.007 430.112, 341.378 426.094, 339.640 421.966, 337.831 417.782, 335.986 413.596, 334.141 409.459, 332.333 405.423, 330.596 401.536, 328.962 397.849, 327.468 394.409, 326.144 393.801, 325.975 393.186, 325.911 392.577, 325.953 391.986, 326.101 391.424, 326.354 390.905, 326.712 390.440, 327.174 390.041, 327.741 389.721, 328.411 389.491, 329.186 389.363, 330.063 389.350, 331.044 389.455, 332.389 389.641, 333.672 389.904, 334.892 390.243, 336.052 390.657, 337.152 391.143, 338.195 391.699, 339.179 392.324, 340.108 393.016, 340.981 393.773, 341.800 394.593, 342.565 395.475, 343.278 399.259, 346.089 402.588, 348.779 405.486, 351.404 407.978, 354.023 410.090, 356.693 411.852, 359.472 413.289, 362.418 414.433, 365.589 415.312, 369.042 415.956, 372.834 416.395, 377.022 416.662, 381.660 417.050, 391.652 417.438, 401.645 417.826, 411.637 418.214, 421.629 418.603, 431.622 418.991, 441.614 419.379, 451.607 419.767, 461.599 420.155, 471.592 420.544, 481.584 420.932, 491.577 421.320, 501.569 421.708, 511.562 422.097, 521.554 422.485, 531.547 422.873, 541.539 423.261, 551.531 423.649, 561.524 424.038, 571.516 424.182, 575.241 424.273, 579.072 424.208, 582.278 424.206, 582.374 423.950, 585.167 423.476, 587.475 422.751, 589.317 421.747, 590.714 420.434, 591.688 " />
            <path fill="none" stroke-width="3.0" stroke-linecap="butt" stroke-opacity="1.0" stroke="rgb(0, 0, 0)" stroke-linejoin="miter" d=" M 594.055, 440.221 594.971, 439.910 598.320, 438.774 602.847, 437.570 607.658, 436.639 612.782, 436.012 618.244, 435.720 624.073, 435.796 626.331, 435.969 630.297, 436.272 636.945, 437.183 644.049, 438.563 645.340, 438.749 646.706, 438.869 648.111, 438.905 649.524, 438.837 650.908, 438.647 652.230, 438.315 653.455, 437.823 654.548, 437.151 655.474, 436.280 656.198, 435.191 656.683, 433.865 656.896, 432.283 656.825, 430.974 656.527, 429.689 656.023, 428.440 655.337, 427.233 654.490, 426.079 653.504, 424.985 652.402, 423.959 651.206, 423.011 649.938, 422.148 648.620, 421.379 647.274, 420.711 646.737, 420.489 645.922, 420.153 637.684, 417.120 629.924, 414.320 622.574, 411.715 615.568, 409.270 608.840, 406.949 602.331, 404.719 595.979, 402.546 595.632, 402.427 589.726, 400.397 583.517, 398.242 577.297, 396.050 571.012, 393.790 564.611, 391.433 555.242, 387.939 545.872, 384.445 538.030, 381.521 537.292, 381.307 536.539, 381.207 535.788, 381.222 535.052, 381.352 534.348, 381.596 533.690, 381.956 533.093, 382.431 532.571, 383.022 532.141, 383.728 531.816, 384.551 531.612, 385.491 531.542, 386.547 531.598, 388.002 531.756, 389.393 532.013, 390.722 532.367, 391.989 532.815, 393.196 533.355, 394.343 533.985, 395.433 534.703, 396.465 535.506, 397.442 536.391, 398.363 537.358, 399.230 538.403, 400.043 541.086, 401.982 541.987, 402.692 543.535, 403.913 545.750, 405.836 547.730, 407.748 549.474, 409.645 550.983, 411.528 552.257, 413.392 553.295, 415.236 554.099, 417.057 554.670, 418.854 555.008, 420.624 555.115, 422.366 555.049, 423.462 554.868, 424.534 554.577, 425.586 554.184, 426.620 553.694, 427.643 553.115, 428.657 552.453, 429.667 551.715, 430.676 550.907, 431.690 550.037, 432.711 549.110, 433.744 548.133, 434.792 541.962, 441.311 535.088, 448.573 528.213, 455.835 521.338, 463.097 514.463, 470.359 507.589, 477.621 500.714, 484.883 493.839, 492.146 486.964, 499.408 483.629, 502.931 482.793, 503.499 482.017, 504.035 481.295, 504.530 480.619, 504.978 479.983, 505.371 479.380, 505.701 478.802, 505.960 " />
            <path fill="none" stroke-width="3.0" stroke-linecap="butt" stroke-opacity="1.0" stroke="rgb(0, 0, 0)" stroke-linejoin="miter" d=" M 478.802, 505.960 478.244, 506.142 477.697, 506.238 477.156, 506.241 476.612, 506.143 476.061, 505.937 475.589, 505.678 475.134, 505.350 474.700, 504.951 474.290, 504.477 473.909, 503.926 473.562, 503.296 473.252, 502.585 472.984, 501.789 472.762, 500.905 472.591, 499.932 472.474, 498.866 472.417, 497.705 472.196, 487.707 471.975, 477.710 471.754, 467.712 471.533, 457.714 471.312, 447.717 471.091, 437.719 470.870, 427.722 470.649, 417.724 470.428, 407.727 470.342, 403.817 470.319, 399.431 470.484, 395.598 470.876, 392.285 471.535, 389.458 472.501, 387.081 473.816, 385.120 475.520, 383.538 477.656, 382.300 480.268, 381.369 " />
            <path fill="none" stroke-width="3.0" stroke-linecap="butt" stroke-opacity="1.0" stroke="rgb(0, 0, 0)" stroke-linejoin="miter" d=" M 539.318, 647.186 530.301, 651.508 521.439, 655.755 520.878, 656.150 520.399, 656.665 520.004, 657.304 519.695, 658.070 519.474, 658.964 519.343, 659.989 519.305, 661.149 519.376, 662.079 519.568, 663.021 519.866, 663.963 520.258, 664.893 520.730, 665.800 521.269, 666.673 521.861, 667.499 522.493, 668.268 523.152, 668.967 523.824, 669.585 524.496, 670.110 525.155, 670.530 528.918, 672.600 532.610, 674.560 536.251, 676.434 539.862, 678.247 543.462, 680.024 547.072, 681.792 550.714, 683.576 554.408, 685.402 558.176, 687.298 562.039, 689.289 566.021, 691.404 570.144, 693.670 575.635, 696.801 581.134, 700.040 586.642, 703.367 592.159, 706.763 597.688, 710.209 603.229, 713.685 608.784, 717.171 614.355, 720.647 619.943, 724.094 625.550, 727.490 631.180, 730.815 636.833, 734.050 639.247, 735.333 641.468, 736.373 643.495, 737.174 645.324, 737.745 646.953, 738.093 648.379, 738.225 649.598, 738.148 650.609, 737.871 651.409, 737.401 651.995, 736.745 652.366, 735.913 652.519, 734.913 652.427, 733.504 652.063, 732.095 651.462, 730.692 650.658, 729.302 649.687, 727.931 648.584, 726.584 647.385, 725.268 646.124, 723.987 644.836, 722.748 643.556, 721.555 642.318, 720.414 641.157, 719.329 636.550, 715.071 632.352, 710.919 628.524, 706.855 625.027, 702.860 621.825, 698.915 618.880, 695.002 616.158, 691.105 613.624, 687.207 611.243, 683.291 608.980, 679.342 606.803, 675.342 604.677, 671.278 600.113, 662.380 595.548, 653.483 590.984, 644.585 586.419, 635.688 585.022, 632.963 581.858, 626.797 577.294, 617.900 577.003, 617.333 572.439, 608.435 567.874, 599.538 563.310, 590.640 558.745, 581.743 554.181, 572.845 549.616, 563.948 545.052, 555.050 540.487, 546.153 535.923, 537.255 531.358, 528.358 526.794, 519.460 522.229, 510.563 521.605, 509.345 520.817, 507.730 520.172, 506.166 519.667, 504.661 519.312, 503.248 519.305, 503.221 519.084, 501.850 519.004, 500.556 519.067, 499.344 519.271, 498.220 519.618, 497.191 520.107, 496.263 520.740, 495.443 521.517, 494.736 526.502, 490.725 531.454, 486.570 533.497, 484.804 536.387, 482.307 541.318, 477.975 546.261, 473.614 551.232, 469.262 556.247, 464.962 561.323, 460.755 566.476, 456.683 571.724, 452.790 577.083, 449.121 582.572, 445.720 586.204, 443.723 590.024, 441.880 594.055, 440.221 " />
            <path fill="none" stroke-width="3.0" stroke-linecap="butt" stroke-opacity="1.0" stroke="rgb(0, 0, 0)" stroke-linejoin="miter" d=" M 424.208, 582.278 414.975, 586.119 405.742, 589.959 403.846, 590.747 403.243, 591.065 402.737, 591.507 402.328, 592.074 402.020, 592.769 401.812, 593.593 401.708, 594.551 401.709, 595.643 401.838, 596.560 402.131, 597.557 402.568, 598.610 403.130, 599.698 403.796, 600.798 404.548, 601.887 405.366, 602.943 406.231, 603.943 407.123, 604.865 408.022, 605.686 408.910, 606.382 409.765, 606.931 414.352, 609.434 418.565, 611.594 422.443, 613.459 426.028, 615.079 429.365, 616.504 432.498, 617.786 435.470, 618.976 438.330, 620.128 441.123, 621.294 443.897, 622.528 446.699, 623.885 449.579, 625.419 452.458, 627.090 455.387, 628.897 458.390, 630.833 461.490, 632.890 464.711, 635.060 468.078, 637.334 471.617, 639.706 475.353, 642.169 479.314, 644.716 483.526, 647.339 488.018, 650.033 492.821, 652.790 493.839, 653.305 494.865, 653.712 495.880, 654.008 496.866, 654.187 497.804, 654.244 498.676, 654.174 499.463, 653.972 500.147, 653.634 500.709, 653.153 501.129, 652.526 501.390, 651.747 501.472, 650.812 501.373, 649.520 501.120, 648.281 500.729, 647.091 500.215, 645.946 499.593, 644.842 498.879, 643.776 498.087, 642.743 497.234, 641.739 496.334, 640.761 495.403, 639.804 494.456, 638.863 493.508, 637.935 489.740, 634.367 486.567, 631.143 483.932, 628.190 481.776, 625.437 480.045, 622.812 478.685, 620.246 477.641, 617.668 476.861, 615.010 476.292, 612.201 475.883, 609.172 475.580, 605.854 475.333, 602.176 474.986, 595.898 474.672, 589.628 474.390, 583.362 474.137, 577.094 473.908, 570.821 473.856, 569.248 473.701, 564.536 473.617, 561.728 473.512, 558.236 473.340, 551.915 473.179, 545.568 473.027, 539.190 472.881, 532.776 472.737, 526.322 472.744, 525.204 472.815, 524.221 472.945, 523.369 473.129, 522.647 473.365, 522.049 473.647, 521.572 473.971, 521.214 474.332, 520.970 474.726, 520.837 475.149, 520.812 475.597, 520.891 476.064, 521.071 476.627, 521.386 477.205, 521.800 477.799, 522.314 478.409, 522.931 479.034, 523.650 479.674, 524.474 480.330, 525.405 481.002, 526.444 481.689, 527.592 482.392, 528.851 483.110, 530.223 483.844, 531.708 488.258, 540.681 492.673, 549.654 494.367, 553.097 497.439, 559.341 501.854, 568.314 506.268, 577.287 510.683, 586.260 515.097, 595.233 519.512, 604.206 523.926, 613.178 528.341, 622.151 532.755, 631.124 534.191, 634.042 535.073, 635.866 535.559, 636.916 535.884, 637.620 536.624, 639.302 537.291, 640.915 537.884, 642.459 538.401, 643.934 538.842, 645.342 539.206, 646.682 539.318, 647.186 539.491, 647.957 539.695, 649.165 539.819, 650.309 539.861, 651.388 539.693, 652.631 539.354, 653.726 538.838, 654.667 538.139, 655.450 537.253, 656.070 " />
            <path fill="none" stroke-width="3.0" stroke-linecap="butt" stroke-opacity="1.0" stroke="rgb(0, 0, 0)" stroke-linejoin="miter" d=" M 420.434, 591.688 418.783, 592.258 416.765, 592.447 414.353, 592.274 411.520, 591.761 408.242, 590.931 407.184, 590.665 406.214, 590.511 405.333, 590.472 404.543, 590.550 403.846, 590.747 " />
            <path fill="none" stroke-width="3.0" stroke-linecap="butt" stroke-opacity="1.0" stroke="rgb(0, 0, 0)" stroke-linejoin="miter" d=" M 537.253, 656.070 536.174, 656.524 534.898, 656.807 533.420, 656.914 531.735, 656.843 529.840, 656.589 527.731, 656.148 525.402, 655.517 524.462, 655.342 523.594, 655.276 522.799, 655.321 522.080, 655.480 521.439, 655.755 " />
            <path fill="none" stroke-width="3.0" stroke-linecap="butt" stroke-opacity="1.0" stroke="rgb(0, 0, 0)" stroke-linejoin="miter" d=" M 494.140, 379.589 503.662, 376.534 513.184, 373.479 522.706, 370.424 532.228, 367.369 542.011, 364.231 551.533, 361.176 561.055, 358.121 570.577, 355.067 580.099, 352.012 589.621, 348.957 599.143, 345.902 599.722, 345.717 609.244, 342.662 618.766, 339.607 621.654, 338.680 622.435, 338.388 623.137, 338.012 623.758, 337.536 624.295, 336.946 624.747, 336.227 625.111, 335.362 625.385, 334.337 625.567, 333.136 625.654, 331.745 625.641, 330.631 625.540, 329.585 625.355, 328.608 625.088, 327.701 624.741, 326.865 624.318, 326.101 623.819, 325.410 623.249, 324.792 622.609, 324.249 621.902, 323.782 621.131, 323.391 620.298, 323.077 616.467, 321.891 612.275, 320.653 607.809, 319.379 603.152, 318.080 598.385, 316.771 593.590, 315.465 588.845, 314.173 584.225, 312.907 579.806, 311.679 575.659, 310.500 571.858, 309.380 568.471, 308.331 565.076, 307.200 561.402, 305.902 557.505, 304.471 553.441, 302.941 549.266, 301.347 545.033, 299.720 540.796, 298.093 536.607, 296.497 532.517, 294.966 528.576, 293.529 524.834, 292.216 521.338, 291.058 520.718, 290.914 520.086, 290.871 519.455, 290.927 518.838, 291.083 509.199, 293.744 499.560, 296.405 489.920, 299.066 480.281, 301.727 470.641, 304.388 461.002, 307.049 451.362, 309.710 441.723, 312.371 432.083, 315.032 422.444, 317.693 412.804, 320.354 403.165, 323.015 393.526, 325.676 391.986, 326.101 " />
            <path fill="none" stroke-width="3.0" stroke-linecap="butt" stroke-opacity="1.0" stroke="rgb(0, 0, 0)" stroke-linejoin="miter" d=" M 652.230, 438.315 659.163, 435.636 668.491, 432.031 677.819, 428.426 687.146, 424.821 696.474, 421.217 705.802, 417.612 715.130, 414.007 724.457, 410.402 733.785, 406.797 743.113, 403.193 752.440, 399.588 761.768, 395.983 771.096, 392.378 779.863, 388.990 781.113, 388.490 782.236, 387.825 783.198, 386.979 783.964, 385.937 784.498, 384.679 784.767, 383.192 784.741, 381.967 784.485, 380.774 784.023, 379.620 783.374, 378.512 782.562, 377.458 781.608, 376.465 780.535, 375.539 779.365, 374.689 778.119, 373.921 776.819, 373.242 775.488, 372.658 774.146, 372.177 765.956, 369.593 758.233, 367.210 750.912, 364.997 743.927, 362.920 737.214, 360.950 730.715, 359.058 724.369, 357.212 718.119, 355.387 711.910, 353.552 705.687, 351.682 699.398, 349.749 692.990, 347.727 683.466, 344.679 673.942, 341.632 666.347, 339.202 665.604, 339.022 664.842, 338.951 664.076, 338.987 663.323, 339.131 653.824, 342.257 644.326, 345.384 634.827, 348.510 625.328, 351.637 615.830, 354.764 606.331, 357.890 596.380, 361.165 586.882, 364.292 577.383, 367.418 567.884, 370.545 558.386, 373.672 548.887, 376.798 542.002, 379.064 535.052, 381.352 " />
            <path fill="none" stroke-width="3.0" stroke-linecap="butt" stroke-opacity="1.0" stroke="rgb(0, 0, 0)" stroke-linejoin="miter" d=" M 596.380, 361.165 596.490, 358.121 596.810, 354.496 597.342, 351.355 598.128, 348.666 599.212, 346.394 599.722, 345.717 " />
            <path fill="none" stroke-width="3.0" stroke-linecap="butt" stroke-opacity="1.0" stroke="rgb(0, 0, 0)" stroke-linejoin="miter" d=" M 650.609, 737.871 659.313, 732.948 668.017, 728.025 676.722, 723.102 685.426, 718.178 694.130, 713.255 702.834, 708.332 711.538, 703.409 720.243, 698.486 728.947, 693.563 737.651, 688.640 746.355, 683.717 755.059, 678.793 763.764, 673.870 767.720, 671.633 768.548, 671.148 769.166, 670.498 769.571, 669.690 769.761, 668.732 769.718, 667.399 769.398, 666.078 768.838, 664.775 768.073, 663.493 767.136, 662.237 766.066, 661.011 764.896, 659.817 763.662, 658.661 762.400, 657.544 761.144, 656.472 759.929, 655.446 758.789, 654.470 754.265, 650.642 750.151, 646.895 746.409, 643.212 743.000, 639.579 739.888, 635.980 737.036, 632.399 734.409, 628.822 731.973, 625.235 729.693, 621.624 727.535, 617.976 725.465, 614.276 723.450, 610.512 718.808, 601.655 714.166, 592.797 709.524, 583.940 704.882, 575.083 700.240, 566.225 695.598, 557.368 690.956, 548.511 686.314, 539.654 681.672, 530.796 677.030, 521.939 672.388, 513.082 667.746, 504.224 663.104, 495.367 658.462, 486.510 653.820, 477.652 649.178, 468.795 644.750, 460.347 644.007, 458.846 643.406, 457.389 642.948, 455.983 642.632, 454.632 642.458, 453.343 642.427, 452.120 642.537, 450.971 642.789, 449.901 643.183, 448.914 643.719, 448.019 644.397, 447.220 645.218, 446.524 650.465, 442.554 655.680, 438.451 659.163, 435.636 " />
            <path fill="none" stroke-width="3.0" stroke-linecap="butt" stroke-opacity="1.0" stroke="rgb(0, 0, 0)" stroke-linejoin="miter" d=" M 499.463, 653.972 508.505, 649.700 517.546, 645.428 526.587, 641.155 535.559, 636.916 " />
        </g>
    </g>
</svg>
